<svg width="24" height="24" viewBox="0 0 24 24" fill="none" xmlns="http://www.w3.org/2000/svg">
<path d="M15.1321 9.91355L17.0766 7.61545L16.3695 6.90835L14.0714 8.85289M15.1321 9.91355L14.0714 8.85289M15.1321 9.91355L16.723 11.5045M15.1321 9.91355L13.4316 11.9193M14.0714 8.85289L8.24833 13.7801C7.80102 14.1586 7.57736 14.3478 7.30367 14.3485C7.22302 14.3487 7.12228 14.3312 7.04645 14.3037C6.78911 14.2105 6.65705 13.9817 6.39292 13.5241C5.10268 11.289 4.67249 8.55239 5.40933 5.84769L5.05578 6.20124C4.21442 7.16147 3.58703 8.33791 3.26133 9.68155C2.13462 14.3297 5.04487 19.2185 9.76156 20.6011C12.7226 21.4691 15.6916 20.7488 17.7704 18.9424L18.1373 18.5756C15.4327 19.3124 12.6964 18.8823 10.4613 17.5923C10.0035 17.3281 9.77467 17.196 9.68148 16.9386C9.65402 16.8627 9.63648 16.762 9.63669 16.6813C9.63742 16.4075 9.82683 16.1839 10.2056 15.7365L10.8504 14.9752M14.0714 8.85289L12.4804 7.2619M19.5508 4.43374V4.43374C18.7698 3.6527 17.5034 3.6527 16.7224 4.43374V4.43374C15.9414 5.21479 15.9414 6.48112 16.7224 7.26217V7.26217C17.5034 8.04322 18.7698 8.04322 19.5508 7.26217V7.26217C20.3319 6.48112 20.3319 5.21479 19.5508 4.43374Z" stroke="#292556" stroke-width="1.5" stroke-linecap="round" stroke-linejoin="round"/>
</svg>
