<svg width="24" height="24" viewBox="0 0 24 24" fill="none" xmlns="http://www.w3.org/2000/svg">
<path d="M14 4H10.2C7.20021 4 5.70032 4 4.64886 4.76393C4.30928 5.01065 4.01065 5.30928 3.76393 5.64886C3 6.70032 3 8.20021 3 11.2V15.1C3 16.8699 3 17.7549 3.27514 18.4579C3.68167 19.4966 4.50344 20.3183 5.54212 20.7249C6.2451 21 7.13006 21 8.9 21V21H9M20 10V14C20 16.8089 20 18.2134 19.3259 19.2223C19.034 19.659 18.659 20.034 18.2223 20.3259C17.2134 21 15.8089 21 13 21V21M20.4142 6.41421C19.6332 7.19526 18.3668 7.19526 17.5858 6.41421C16.8047 5.63317 16.8047 4.36684 17.5858 3.58579C18.3668 2.80474 19.6332 2.80474 20.4142 3.58579C21.1953 4.36684 21.1953 5.63317 20.4142 6.41421Z" stroke="#292556" stroke-width="1.5" stroke-linecap="round" stroke-linejoin="round"/>
</svg>
