<svg width="24" height="24" viewBox="0 0 24 24" fill="none" xmlns="http://www.w3.org/2000/svg">
<path d="M7.5 15.362L6.49933 16.6157C5.16201 18.2912 4.49336 19.129 4.65396 19.8334C4.70406 20.0532 4.80303 20.2588 4.94353 20.435C5.39392 21 6.4658 21 8.60958 21H15.3902C17.5341 21 18.606 21 19.0564 20.435C19.1969 20.2588 19.2959 20.0531 19.3459 19.8334C19.5065 19.1289 18.8378 18.2912 17.5004 16.6157L16.5 15.3623M7.5 15.362C8.71679 16.3843 10.2866 17 12.0002 17C13.7136 17 15.2833 16.3844 16.5 15.3623M7.5 15.362C5.97163 14.0779 5.00017 12.1524 5.00017 10C5.00017 6.13401 8.13418 3 12.0002 3C13.0869 3 14.1158 3.24763 15.0334 3.68955M16.5 15.3623C18.0286 14.0782 19.0002 12.1526 19.0002 10C19.0002 8.68021 18.6349 7.44573 18 6.39213" stroke="#292556" stroke-width="1.5" stroke-linecap="round" stroke-linejoin="round"/>
</svg>
