<svg width="24" height="24" viewBox="0 0 24 24" fill="none" xmlns="http://www.w3.org/2000/svg">
<path d="M8 7V8C8 10.2091 9.79086 12 12 12C14.2091 12 16 10.2091 16 8V7M20.8194 12.5L20.8889 13V13C21.3315 16.1865 21.5527 17.7797 20.8975 18.9518C20.6277 19.4345 20.2606 19.8561 19.8196 20.1898C18.7488 21 17.1403 21 13.9232 21H10.2691C6.87042 21 5.17108 21 4.06784 20.1014C3.71367 19.8129 3.41152 19.4659 3.17451 19.0754C2.43624 17.8591 2.67002 16.1759 3.13757 12.8095L3.63757 9.20951C4.0012 6.59134 4.18302 5.28226 4.95232 4.38926C5.20212 4.09929 5.49225 3.84668 5.81383 3.63914C6.80417 3 8.12582 3 10.7691 3H13.9472C15.9036 3 16.8818 3 17.6693 3.35712C18.3801 3.67949 18.981 4.20276 19.3981 4.86246C19.8602 5.5933 19.9947 6.5622 20.2639 8.5V8.5" stroke="#292556" stroke-width="1.5" stroke-linecap="round" stroke-linejoin="round"/>
</svg>
