<svg width="24" height="24" viewBox="0 0 24 24" fill="none" xmlns="http://www.w3.org/2000/svg">
<path d="M21 15V15C21 16.8553 21 17.7829 20.7048 18.508C20.2985 19.5064 19.5064 20.2985 18.508 20.7048C17.7829 21 16.8657 21 15.0312 21V21H15M15 3H18M3 9V9C3 7.14473 3 6.2171 3.29516 5.49197C3.70153 4.49362 4.49362 3.70153 5.49197 3.29516C6.2171 3 7.13432 3 8.96875 3V3H9M9 21V21C7.14473 21 6.2171 21 5.49197 20.7048C4.49362 20.2985 3.70153 19.5064 3.29516 18.508C3 17.7829 3 16.8657 3 15.0312V15.0312V15M21 9V8.96875V5.98438" stroke="#292556" stroke-width="1.5" stroke-linecap="round" stroke-linejoin="round"/>
<path d="M9.12988 15.62V8.37988M12.3699 15.62V8.37988" stroke="#292556" stroke-width="1.75" stroke-linecap="round" stroke-linejoin="round"/>
<path d="M15.2403 16V8M6.28027 16V8M17.7203 16V8" stroke="#292556" stroke-linecap="round" stroke-linejoin="round"/>
</svg>
