<svg width="24" height="24" viewBox="0 0 24 24" fill="none" xmlns="http://www.w3.org/2000/svg">
<path fill-rule="evenodd" clip-rule="evenodd" d="M15.8882 5.34407C15.4328 5.24973 14.8999 5.24984 14.1046 5.25001L14 5.25003C13.5858 5.25003 13.25 5.58582 13.25 6.00003C13.25 6.41424 13.5858 6.75003 14 6.75003C14.1804 6.75003 14.3397 6.75019 14.4814 6.75087L15.8882 5.34407ZM7.52497 17.2428C7.94864 17.2498 8.43443 17.25 9 17.25H12.5C13.6843 17.25 14.5187 17.2492 15.1656 17.1865C15.8009 17.1249 16.1757 17.0091 16.4631 16.8285C16.8129 16.6087 17.1087 16.3129 17.3285 15.9631C17.5091 15.6757 17.6248 15.3009 17.6864 14.6656C17.7492 14.0188 17.75 13.1843 17.75 12V10.5C17.75 9.52926 17.7453 9.16941 17.6811 8.8881C17.5781 8.43718 17.3661 8.02953 17.0738 7.69397L18.1361 6.63168C18.6234 7.16443 18.9764 7.82251 19.1434 8.55432C19.2503 9.02253 19.2502 9.56645 19.25 10.3955L19.25 10.5V12V12.0391C19.25 13.1754 19.25 14.0827 19.1794 14.8104C19.1069 15.558 18.9544 16.1948 18.5986 16.7612C18.2589 17.3018 17.8018 17.7589 17.2611 18.0986C16.6948 18.4545 16.058 18.607 15.3104 18.6795C14.5826 18.75 13.6754 18.75 12.539 18.75H12.5H9H8.96096C7.82463 18.75 6.91737 18.75 6.18963 18.6795C6.1588 18.6765 6.12816 18.6734 6.0977 18.6701L7.52497 17.2428ZM4.67503 16.5572C4.48043 16.3846 4.31073 16.1847 4.17151 15.9631C3.99091 15.6757 3.87517 15.3009 3.81356 14.6656C3.75082 14.0188 3.75 13.1843 3.75 12C3.75 10.8158 3.75082 9.98129 3.81356 9.33445C3.87517 8.69916 3.99091 8.32436 4.17151 8.03694C4.39131 7.68713 4.6871 7.39134 5.03691 7.17154C5.32433 6.99094 5.69913 6.8752 6.33443 6.81358C6.98127 6.75085 7.81572 6.75003 9 6.75003H10C10.4142 6.75003 10.75 6.41424 10.75 6.00003C10.75 5.58582 10.4142 5.25003 10 5.25003H9H8.96094C7.82462 5.25002 6.91736 5.25001 6.18963 5.32059C5.44204 5.39309 4.80522 5.54558 4.23886 5.90145C3.69825 6.24114 3.24111 6.69828 2.90142 7.23889C2.54555 7.80525 2.39306 8.44207 2.32056 9.18966C2.24998 9.91739 2.24999 10.8247 2.25 11.961V12V12.0391C2.24999 13.1754 2.24998 14.0827 2.32056 14.8104C2.39306 15.558 2.54555 16.1948 2.90142 16.7612C3.10058 17.0781 3.3401 17.3664 3.61315 17.6191L4.67503 16.5572ZM21.75 11C21.75 10.5858 21.4142 10.25 21 10.25C20.5858 10.25 20.25 10.5858 20.25 11V13C20.25 13.4142 20.5858 13.75 21 13.75C21.4142 13.75 21.75 13.4142 21.75 13V11Z" fill="#292556"/>
<path d="M3 21L21 3" stroke="#292556" stroke-width="1.5" stroke-linecap="round" stroke-linejoin="round"/>
</svg>
