<svg width="24" height="24" viewBox="0 0 24 24" fill="none" xmlns="http://www.w3.org/2000/svg">
<path d="M21 13V11M10 6H9C6.66111 6 5.49167 6 4.63789 6.53647C4.19267 6.81621 3.81621 7.19267 3.53647 7.63789C3 8.49167 3 9.66111 3 12V12C3 14.3389 3 15.5083 3.53647 16.3621C3.81621 16.8073 4.19267 17.1838 4.63789 17.4635C5.49167 18 6.66111 18 9 18H12.5C14.8389 18 16.0083 18 16.8621 17.4635C17.3073 17.1838 17.6838 16.8073 17.9635 16.3621C18.5 15.5083 18.5 14.3389 18.5 12V10.5C18.5 9.57043 18.5 9.10564 18.4122 8.72118C18.1131 7.41044 17.0896 6.38692 15.7788 6.08775C15.3944 6 14.9296 6 14 6V6M10.75 14V10M7 10V14" stroke="#292556" stroke-width="1.5" stroke-linecap="round" stroke-linejoin="round"/>
</svg>
