<svg width="24" height="24" viewBox="0 0 24 24" fill="none" xmlns="http://www.w3.org/2000/svg">
<path fill-rule="evenodd" clip-rule="evenodd" d="M15.3636 5.86859C15.1681 5.72463 14.9631 5.59261 14.7499 5.47371L14.7498 4.99935C14.7495 3.48084 13.5184 2.25 11.9999 2.25C10.4812 2.25 9.25 3.48117 9.25 4.9999V5.43653C7.31478 6.48575 6.05772 8.61634 6.29335 10.9741C6.40691 12.1103 6.04854 13.2433 5.30222 14.1075L4.59027 14.9319C3.99765 15.6182 3.84313 16.4581 4.01798 17.2142L7.10979 14.1224C7.65988 13.1252 7.90099 11.9763 7.78592 10.8249C7.54185 8.38286 9.49356 6.25 11.9628 6.25C12.8212 6.25 13.6188 6.50737 14.2863 6.94586L15.3636 5.86859ZM17.0155 7.7522L15.8939 8.87378C16.1586 9.5011 16.2759 10.2006 16.2034 10.9253C16.1622 11.3375 16.4629 11.705 16.875 11.7463C17.2872 11.7875 17.6547 11.4868 17.696 11.0747C17.8159 9.87602 17.5544 8.73073 17.0155 7.7522ZM7.01769 17.75L5.67033 19.0974C5.94445 19.1956 6.24484 19.25 6.56666 19.25H9.26061C9.38692 20.6516 10.5649 21.75 11.9994 21.75C13.4339 21.75 14.6119 20.6516 14.7382 19.25H17.6815C19.8517 19.25 20.8275 16.735 19.6639 15.1279C19.4571 14.8422 19.2001 14.4612 18.9912 14.1456C18.8876 13.989 18.7973 13.8509 18.7329 13.7519L18.6575 13.6357L18.6375 13.6047L18.6324 13.5968L18.6312 13.5949L18.6309 13.5945L18.6309 13.5944C18.4069 13.246 17.9428 13.1451 17.5944 13.3691C17.246 13.5931 17.1451 14.0572 17.3691 14.4056L18 14C17.3691 14.4056 17.3691 14.4056 17.3692 14.4056L17.3692 14.4057L17.3693 14.4059L17.3697 14.4065L17.3712 14.4088L17.3767 14.4174L17.3978 14.45L17.4755 14.5698C17.5415 14.6714 17.6341 14.813 17.7405 14.9736C17.9516 15.2925 18.2228 15.6952 18.449 16.0076C19.0048 16.7752 18.4432 17.75 17.6815 17.75H13.9994H9.9994H7.01769ZM11.9628 4.75C11.5486 4.75 11.1448 4.79432 10.7558 4.87834C10.817 4.24508 11.3506 3.75 11.9999 3.75C12.6547 3.75 13.192 4.25359 13.2454 4.89465C12.8332 4.80008 12.404 4.75 11.9628 4.75ZM11.9994 20.25C11.3947 20.25 10.8902 19.8206 10.7744 19.25H13.2244C13.1086 19.8206 12.6041 20.25 11.9994 20.25Z" fill="#292556"/>
<path d="M3 21L21 3" stroke="#292556" stroke-width="1.5" stroke-linecap="round" stroke-linejoin="round"/>
</svg>
