<svg width="24" height="24" viewBox="0 0 24 24" fill="none" xmlns="http://www.w3.org/2000/svg">
<path d="M12.8703 17.2899L8.21804 20.1596C7.1691 20.8066 6.64464 21.1301 6.38926 20.9897C6.31173 20.947 6.24691 20.8846 6.2014 20.8087C6.05149 20.5588 6.35512 20.0226 6.96237 18.9501L9.21875 14.9652C9.47558 14.5116 9.60399 14.2848 9.55221 14.0881C9.53577 14.0257 9.50737 13.967 9.46861 13.9153C9.34653 13.7527 9.089 13.7126 8.57395 13.6324L5.23802 13.1134C4.40468 12.9837 3.988 12.9189 3.87272 12.6876C3.83709 12.6161 3.8191 12.5371 3.82027 12.4572C3.82406 12.1988 4.17159 11.96 4.86666 11.4823L15.669 4.0588C16.7185 3.33756 17.2432 2.97694 17.5065 3.1075C17.5863 3.14708 17.654 3.20726 17.7028 3.28181C17.8636 3.52773 17.5676 4.09146 16.9755 5.21894L14.6317 9.68266C14.4123 10.1006 14.3026 10.3096 14.3491 10.4948C14.364 10.554 14.3896 10.6099 14.4246 10.6599C14.5342 10.8163 14.7641 10.87 15.2237 10.9774L18.8665 11.8288C19.6645 12.0153 20.0635 12.1086 20.1622 12.3443C20.1927 12.4172 20.2055 12.4964 20.1995 12.5753C20.1801 12.8301 19.8308 13.0442 19.1321 13.4725L16.2899 15.2148" stroke="#292556" stroke-width="1.5" stroke-linecap="round" stroke-linejoin="round"/>
</svg>
