<svg width="24" height="24" viewBox="0 0 24 24" fill="none" xmlns="http://www.w3.org/2000/svg">
<path d="M12.3572 15.1856L10.9429 16.5998C11.9193 17.5761 11.9193 19.159 10.9429 20.1353C9.96664 21.1116 8.38373 21.1116 7.40742 20.1353C6.4311 19.159 6.4311 17.5761 7.40742 16.5998C6.4311 17.5761 4.84819 17.5761 3.87188 16.5998C2.89557 15.6235 2.89557 14.0406 3.87188 13.0643C4.84819 12.088 6.4311 12.088 7.40742 13.0643L13.0643 7.40742C12.088 6.4311 12.088 4.84819 13.0643 3.87188C14.0406 2.89557 15.6235 2.89557 16.5998 3.87188C17.5761 4.84819 17.5761 6.4311 16.5998 7.40742C17.5761 6.4311 19.159 6.4311 20.1353 7.40742C21.1116 8.38373 21.1116 9.96664 20.1353 10.9429C19.159 11.9193 17.5761 11.9193 16.5998 10.9429L15.1856 12.3572" stroke="#292556" stroke-width="1.5" stroke-linecap="round" stroke-linejoin="round"/>
</svg>
