<svg width="24" height="24" viewBox="0 0 24 24" fill="none" xmlns="http://www.w3.org/2000/svg">
<path d="M3 9V18.3C3 19.4249 3 19.9874 3.28647 20.3817C3.37899 20.509 3.49098 20.621 3.61832 20.7135C4.01262 21 4.57508 21 5.7 21H18.3C19.4249 21 19.9874 21 20.3817 20.7135C20.509 20.621 20.621 20.509 20.7135 20.3817C21 19.9874 21 19.4249 21 18.3V17M3 9L5.25374 4.49252C5.57553 3.84894 5.73643 3.52715 6.0023 3.31897C6.08956 3.25064 6.18413 3.1922 6.28426 3.14471C6.58937 3 6.94914 3 7.66869 3H12.0002M3 9H12.0002M12.0002 9V3M12.0002 9H21M12.0002 3H16.3313C17.0509 3 17.4106 3 17.7157 3.14471C17.8159 3.1922 17.9104 3.25064 17.9977 3.31897C18.2636 3.52715 18.4245 3.84894 18.7463 4.49252L21 9M21 9V13M9 15L11 17L15 13" stroke="#292556" stroke-width="1.5" stroke-linecap="round" stroke-linejoin="round"/>
</svg>
