<svg width="24" height="24" viewBox="0 0 24 24" fill="none" xmlns="http://www.w3.org/2000/svg">
<path d="M17 8.5V8.4C17 6.15016 17 5.02524 16.4271 4.23664C16.242 3.98196 16.018 3.75799 15.7634 3.57295C14.9748 3 13.8498 3 11.6 3H10.4C8.15016 3 7.02524 3 6.23664 3.57295C5.98196 3.75799 5.75799 3.98196 5.57295 4.23664C5 5.02524 5 6.15016 5 8.4V10M17 15.5V15.6C17 17.8498 17 18.9748 16.4271 19.7634C16.242 20.018 16.018 20.242 15.7634 20.4271C14.9748 21 13.8498 21 11.6 21H10.4C8.15016 21 7.02524 21 6.23664 20.4271C5.98196 20.242 5.75799 20.018 5.57295 19.7634C5 18.9748 5 17.8498 5 15.6V14M20 12H11M11 12L13.5 9.5M11 12L13.5 14.5" stroke="#292556" stroke-width="1.5" stroke-linecap="round" stroke-linejoin="round"/>
</svg>
