<svg width="24" height="24" viewBox="0 0 24 24" fill="none" xmlns="http://www.w3.org/2000/svg">
<path d="M15.75 9.5V14.5M13.0417 14.5L12.3542 13M8.45833 14.5L9.14583 13M9.14583 13L10.75 9.5L12.3542 13M9.14583 13H12.3542M20.4649 10C19.9094 9.03981 18.9663 8.33194 17.8496 8.0904C17.9476 7.74377 18 7.37801 18 7C18 4.79086 16.2091 3 14 3C13.2714 3 12.5883 3.19479 12 3.53513C11.4117 3.19479 10.7286 3 10 3C7.79086 3 6 4.79086 6 7C6 7.37801 6.05243 7.74377 6.15043 8.0904C4.34939 8.47994 3 10.0824 3 12C3 13.9176 4.34939 15.5201 6.15043 15.9096C6.05243 16.2562 6 16.622 6 17C6 19.2091 7.79086 21 10 21C10.7286 21 11.4117 20.8052 12 20.4649C12.5883 20.8052 13.2714 21 14 21C16.2091 21 18 19.2091 18 17C18 16.622 17.9476 16.2562 17.8496 15.9096C18.9663 15.6681 19.9094 14.9602 20.4649 14" stroke="#292556" stroke-width="1.5" stroke-linecap="round" stroke-linejoin="round"/>
</svg>
