<svg width="24" height="24" viewBox="0 0 24 24" fill="none" xmlns="http://www.w3.org/2000/svg">
<path d="M6.15045 8.0904C6.05246 7.74377 6.00003 7.37801 6.00003 7C6.00003 4.79086 7.79089 3 10 3C10.7286 3 11.4117 3.19479 12 3.53513V8M6.15045 8.0904C6.43627 9.10146 7.10968 9.94983 8.00003 10.4649M6.15045 8.0904C5.0337 8.33194 4.09059 9.03981 3.53516 10M12 8H16L16.8661 7.13388M12 8V12M12 16V20.4649C11.4117 20.8052 10.7286 21 10 21C7.79089 21 6.00003 19.2091 6.00003 17C6.00003 16.622 6.05246 16.2562 6.15045 15.9096C5.0337 15.6681 4.09059 14.9602 3.53516 14M12 16H16L16.8661 16.8661M12 16V12M12 12H18M18 12C18 12.8284 18.6716 13.5 19.5 13.5C20.3285 13.5 21 12.8284 21 12C21 11.1716 20.3285 10.5 19.5 10.5C18.6716 10.5 18 11.1716 18 12ZM16.8661 7.13388C17.0923 7.36009 17.4048 7.5 17.75 7.5C18.4404 7.5 19 6.94036 19 6.25C19 5.55964 18.4404 5 17.75 5C17.0597 5 16.5 5.55964 16.5 6.25C16.5 6.59518 16.6399 6.90768 16.8661 7.13388ZM16.8661 16.8661C16.6399 17.0923 16.5 17.4048 16.5 17.75C16.5 18.4404 17.0597 19 17.75 19C18.4404 19 19 18.4404 19 17.75C19 17.0596 18.4404 16.5 17.75 16.5C17.4048 16.5 17.0923 16.6399 16.8661 16.8661Z" stroke="#292556" stroke-width="1.5" stroke-linecap="round" stroke-linejoin="round"/>
</svg>
