<svg width="24" height="24" viewBox="0 0 24 24" fill="none" xmlns="http://www.w3.org/2000/svg">
<path d="M3 13V13.8C3 16.7998 3 18.2997 3.76393 19.3511C4.01065 19.6907 4.30928 19.9893 4.64886 20.2361C5.70032 21 7.20021 21 10.2 21H17.125C19.2651 21 21 19.2651 21 17.125V17.125V17M3 13V13C3 11.1362 3 10.2044 3.30448 9.46927C3.71046 8.48915 4.48915 7.71046 5.46927 7.30448C6.20435 7 7.13623 7 9 7H15.01C16.8644 7 17.7916 7 18.5235 7.30148C19.5094 7.70761 20.2924 8.49058 20.6985 9.47652C21 10.2084 21 11.1356 21 12.99V12.99V13H3ZM10 10H14M8 7V7C8 4.79086 9.79086 3 12 3V3C14.2091 3 16 4.79086 16 7V7" stroke="#292556" stroke-width="1.5" stroke-linecap="round" stroke-linejoin="round"/>
</svg>
