<svg width="24" height="24" viewBox="0 0 24 24" fill="none" xmlns="http://www.w3.org/2000/svg">
<path d="M16 8V7C16 4.79086 14.2091 3 12 3V3C9.79086 3 8 4.79086 8 7V8M15 14.5H11.9997M11.9997 14.5H9M11.9997 14.5L12 17.5M11.9997 14.5L12 11.5M10 21H7.5C5.62513 21 4.6877 21 4.03054 20.5225C3.8183 20.3683 3.63166 20.1817 3.47746 19.9695C3 19.3123 3 18.3749 3 16.5V12.5C3 10.6251 3 9.6877 3.47746 9.03054C3.63166 8.8183 3.8183 8.63166 4.03054 8.47746C4.6877 8 5.62513 8 7.5 8H16.5C18.3749 8 19.3123 8 19.9695 8.47746C20.1817 8.63166 20.3683 8.8183 20.5225 9.03054C21 9.6877 21 10.6251 21 12.5V16.5C21 18.3749 21 19.3123 20.5225 19.9695C20.3683 20.1817 20.1817 20.3683 19.9695 20.5225C19.3123 21 18.3749 21 16.5 21H14" stroke="#292556" stroke-width="1.5" stroke-linecap="round" stroke-linejoin="round"/>
</svg>
