<svg width="24" height="24" viewBox="0 0 24 24" fill="none" xmlns="http://www.w3.org/2000/svg">
<path d="M13.5001 8.29064C13.0369 8.10313 12.5306 7.99987 12.0001 7.99987C9.79097 7.99987 8.00011 9.79073 8.00011 11.9999C8.00011 14.209 9.79097 15.9999 12.0001 15.9999C14.2093 15.9999 16.0001 14.209 16.0001 11.9999C16.0001 11.8857 15.9953 11.7727 15.986 11.661M7 7L5.63602 5.63604M18.3639 18.3639L17 17M12 19L12 21M12 3L12 5M19 12L21 12M3 12H5M18.3639 5.63603L17 7M7 17L5.63601 18.3639" stroke="#292556" stroke-width="1.5" stroke-linecap="round" stroke-linejoin="round"/>
</svg>
