<svg width="24" height="24" viewBox="0 0 24 24" fill="none" xmlns="http://www.w3.org/2000/svg">
<path d="M8.5 3L7 8M15.5 3L17 8M8 12V17M12 12V17M16 12V17M20.2692 17V17C20.2056 17.3307 20.1738 17.4961 20.1361 17.6401C19.6456 19.513 18.0122 20.8622 16.0805 20.9902C15.9319 21 15.7635 21 15.4267 21H9.8691C8.30383 21 7.5212 21 6.85783 20.7898C5.74725 20.4379 4.81643 19.669 4.26114 18.6449C3.92945 18.0332 3.78166 17.2646 3.48606 15.7275V15.7275C3.06895 13.5585 2.8604 12.4741 3.0387 11.6003C3.33807 10.1332 4.34752 8.91114 5.73164 8.34011C6.55604 8 7.66039 8 9.8691 8H16.9084C19.5497 8 21.5373 10.4062 21.0385 13V13" stroke="#292556" stroke-width="1.5" stroke-linecap="round" stroke-linejoin="round"/>
</svg>
