<svg width="24" height="24" viewBox="0 0 24 24" fill="none" xmlns="http://www.w3.org/2000/svg">
<path d="M21 16V18C21 18.9319 21 19.3978 20.8478 19.7654C20.6448 20.2554 20.2554 20.6448 19.7654 20.8478C19.3978 21 18.9319 21 18 21V21L14.9 21C14.525 21 14.3375 21 14.2061 20.9045C14.1637 20.8737 14.1263 20.8363 14.0955 20.7939C14 20.6625 14 20.475 14 20.1V18C14 16.8954 13.1046 16 12 16V16C10.8954 16 10 16.8954 10 18V20.1C10 20.475 10 20.6625 9.90451 20.7939C9.87367 20.8363 9.83634 20.8737 9.79389 20.9045C9.66246 21 9.47497 21 9.1 21H6V21C5.06812 21 4.60217 21 4.23463 20.8478C3.74458 20.6448 3.35523 20.2554 3.15224 19.7654C3 19.3978 3 18.9319 3 18V10.6667C3 10.0467 3 9.73669 3.06815 9.48236C3.25308 8.79218 3.79218 8.25308 4.48236 8.06815C4.73669 8 5.04668 8 5.66667 8V8C5.74416 8 5.78291 8 5.8147 7.99148C5.90098 7.96836 5.96836 7.90098 5.99148 7.8147C6 7.78291 6 7.74416 6 7.66667V6.6C6 5.10011 6 4.35016 6.38197 3.82443C6.50533 3.65464 6.65464 3.50533 6.82443 3.38197C7.35016 3 8.10011 3 9.6 3H14.4C15.8999 3 16.6498 3 17.1756 3.38197C17.3454 3.50533 17.4947 3.65464 17.618 3.82443C18 4.35016 18 5.10011 18 6.6V7.66666C18 7.74416 18 7.78291 18.0085 7.8147C18.0316 7.90098 18.099 7.96836 18.1853 7.99148C18.2171 8 18.2558 8 18.3333 8V8C18.9533 8 19.2633 8 19.5176 8.06815C20.2078 8.25308 20.7469 8.79218 20.9319 9.48236C21 9.73669 21 10.0467 21 10.6667V12" stroke="#292556" stroke-width="1.5" stroke-linecap="round" stroke-linejoin="round"/>
<path d="M11 7.25C11 7.71731 11 7.95096 10.8995 8.125C10.8337 8.23901 10.739 8.33369 10.625 8.39952C10.451 8.5 10.2173 8.5 9.75 8.5V8.5C9.28269 8.5 9.04904 8.5 8.875 8.39952C8.76099 8.33369 8.66631 8.23901 8.60048 8.125C8.5 7.95096 8.5 7.71731 8.5 7.25V7.25C8.5 6.78269 8.5 6.54904 8.60048 6.375C8.66631 6.26099 8.76099 6.16631 8.875 6.10048C9.04904 6 9.28269 6 9.75 6V6C10.2173 6 10.451 6 10.625 6.10048C10.739 6.16631 10.8337 6.26099 10.8995 6.375C11 6.54904 11 6.78269 11 7.25V7.25Z" fill="#292556"/>
<path d="M15.5 7.25C15.5 7.71731 15.5 7.95096 15.3995 8.125C15.3337 8.23901 15.239 8.33369 15.125 8.39952C14.951 8.5 14.7173 8.5 14.25 8.5V8.5C13.7827 8.5 13.549 8.5 13.375 8.39952C13.261 8.33369 13.1663 8.23901 13.1005 8.125C13 7.95096 13 7.71731 13 7.25V7.25C13 6.78269 13 6.54904 13.1005 6.375C13.1663 6.26099 13.261 6.16631 13.375 6.10048C13.549 6 13.7827 6 14.25 6V6C14.7173 6 14.951 6 15.125 6.10048C15.239 6.16631 15.3337 6.26099 15.3995 6.375C15.5 6.54904 15.5 6.78269 15.5 7.25V7.25Z" fill="#292556"/>
<path d="M8.75 12C8.75 12.4673 8.75 12.701 8.64952 12.875C8.58369 12.989 8.48901 13.0837 8.375 13.1495C8.20096 13.25 7.96731 13.25 7.5 13.25V13.25C7.03269 13.25 6.79904 13.25 6.625 13.1495C6.51099 13.0837 6.41631 12.989 6.35048 12.875C6.25 12.701 6.25 12.4673 6.25 12V12C6.25 11.5327 6.25 11.299 6.35048 11.125C6.41631 11.011 6.51099 10.9163 6.625 10.8505C6.79904 10.75 7.03269 10.75 7.5 10.75V10.75C7.96731 10.75 8.20096 10.75 8.375 10.8505C8.48901 10.9163 8.58369 11.011 8.64952 11.125C8.75 11.299 8.75 11.5327 8.75 12V12Z" fill="#292556"/>
<path d="M13.25 12C13.25 12.4673 13.25 12.701 13.1495 12.875C13.0837 12.989 12.989 13.0837 12.875 13.1495C12.701 13.25 12.4673 13.25 12 13.25V13.25C11.5327 13.25 11.299 13.25 11.125 13.1495C11.011 13.0837 10.9163 12.989 10.8505 12.875C10.75 12.701 10.75 12.4673 10.75 12V12C10.75 11.5327 10.75 11.299 10.8505 11.125C10.9163 11.011 11.011 10.9163 11.125 10.8505C11.299 10.75 11.5327 10.75 12 10.75V10.75C12.4673 10.75 12.701 10.75 12.875 10.8505C12.989 10.9163 13.0837 11.011 13.1495 11.125C13.25 11.299 13.25 11.5327 13.25 12V12Z" fill="#292556"/>
<path d="M17.75 12C17.75 12.4673 17.75 12.701 17.6495 12.875C17.5837 12.989 17.489 13.0837 17.375 13.1495C17.201 13.25 16.9673 13.25 16.5 13.25V13.25C16.0327 13.25 15.799 13.25 15.625 13.1495C15.511 13.0837 15.4163 12.989 15.3505 12.875C15.25 12.701 15.25 12.4673 15.25 12V12C15.25 11.5327 15.25 11.299 15.3505 11.125C15.4163 11.011 15.511 10.9163 15.625 10.8505C15.799 10.75 16.0327 10.75 16.5 10.75V10.75C16.9673 10.75 17.201 10.75 17.375 10.8505C17.489 10.9163 17.5837 11.011 17.6495 11.125C17.75 11.299 17.75 11.5327 17.75 12V12Z" fill="#292556"/>
</svg>
