<svg width="24" height="24" viewBox="0 0 24 24" fill="none" xmlns="http://www.w3.org/2000/svg">
<path d="M16 11V11C16 10.0681 16 9.60218 15.8478 9.23463C15.6448 8.74458 15.2554 8.35523 14.7654 8.15224C14.3978 8 13.9319 8 13 8H8C7.06812 8 6.60218 8 6.23463 8.15224C5.74458 8.35523 5.35523 8.74458 5.15224 9.23463C5 9.60218 5 10.0681 5 11V11M16 11H17C18.1046 11 19 11.8954 19 13V13C19 14.1046 18.1046 15 17 15H16M16 11V15M16 15V15C16 16.6569 14.6569 18 13 18H8C6.34315 18 5 16.6569 5 15V15M7 5L6.5 3M10 4.5L9.75 3.5M13 5L12.5 3.5M16 21H5" stroke="#292556" stroke-width="1.5" stroke-linecap="round" stroke-linejoin="round"/>
</svg>
