<svg width="24" height="24" viewBox="0 0 24 24" fill="none" xmlns="http://www.w3.org/2000/svg">
<path d="M8 6V8.00004M8 8.00004V10M8 8.00004H6M8 8.00004H10M6.58579 14.5858L8.00003 16M8.00003 16L9.41421 17.4142M8.00003 16L6.58582 17.4142M8.00003 16L9.41424 14.5858M14 8H18M14 14.5H18M14 17.5H18M21 10V9.99V9.99C21 7.1906 21 5.7909 20.3302 4.78425C20.0363 4.34252 19.6575 3.96367 19.2157 3.66977C18.2091 3 16.8094 3 14.01 3H10.2C7.20021 3 5.70032 3 4.64886 3.76393C4.30928 4.01065 4.01065 4.30928 3.76393 4.64886C3 5.70032 3 7.20021 3 10.2V13.8C3 16.7998 3 18.2997 3.76393 19.3511C4.01065 19.6907 4.30928 19.9893 4.64886 20.2361C5.70032 21 7.20021 21 10.2 21H14C16.8089 21 18.2134 21 19.2223 20.3259C19.659 20.034 20.034 19.659 20.3259 19.2223C21 18.2134 21 16.8089 21 14V14" stroke="#292556" stroke-width="1.5" stroke-linecap="round" stroke-linejoin="round"/>
</svg>
