<svg width="24" height="24" viewBox="0 0 24 24" fill="none" xmlns="http://www.w3.org/2000/svg">
<path d="M9 5V5C8.07099 5 7.60649 5 7.21783 5.06156C5.07837 5.40042 3.40042 7.07837 3.06156 9.21783C3 9.60649 3 10.071 3 11V13C3 15.8003 3 17.2004 3.54497 18.27C4.02433 19.2108 4.78924 19.9757 5.73005 20.455C6.79961 21 8.19974 21 11 21H15C15.929 21 16.3935 21 16.7822 20.9384C18.9216 20.5996 20.5996 18.9216 20.9384 16.7822C21 16.3935 21 15.929 21 15V15M9 5V6.5M9 5V3M9 5H15M15 5H15.1C15.936 5 16.354 5 16.7045 5.04988C18.9065 5.36327 20.6367 7.09351 20.9501 9.29549C21 9.64598 21 10.064 21 10.9V10.9V11M15 5V3M15 5V6.5" stroke="#292556" stroke-width="1.5" stroke-linecap="round" stroke-linejoin="round"/>
</svg>
