<svg width="24" height="24" viewBox="0 0 24 24" fill="none" xmlns="http://www.w3.org/2000/svg">
<path d="M9 5V5C8.07099 5 7.60649 5 7.21783 5.06156C5.07837 5.40042 3.40042 7.07837 3.06156 9.21783C3 9.60649 3 10.071 3 11V13C3 15.8003 3 17.2004 3.54497 18.27C4.02433 19.2108 4.78924 19.9757 5.73005 20.455C6.79961 21 8.19974 21 11 21H15C15.929 21 16.3935 21 16.7822 20.9384C18.9216 20.5996 20.5996 18.9216 20.9384 16.7822C21 16.3935 21 15.929 21 15V15M9 5V6.5M9 5V3M9 5H15M15 5H15.1C15.936 5 16.354 5 16.7045 5.04988C18.9065 5.36327 20.6367 7.09351 20.9501 9.29549C21 9.64598 21 10.064 21 10.9V10.9V11M15 5V3M15 5V6.5" stroke="#292556" stroke-width="1.5" stroke-linecap="round" stroke-linejoin="round"/>
<path d="M7 10C7 9.44772 7.44772 9 8 9C8.55228 9 9 9.44772 9 10C9 10.5523 8.55228 11 8 11C7.44772 11 7 10.5523 7 10Z" fill="#292556"/>
<path d="M7 13.5C7 12.9477 7.44772 12.5 8 12.5C8.55228 12.5 9 12.9477 9 13.5C9 14.0523 8.55228 14.5 8 14.5C7.44772 14.5 7 14.0523 7 13.5Z" fill="#292556"/>
<path d="M7 17C7 16.4477 7.44772 16 8 16C8.55228 16 9 16.4477 9 17C9 17.5523 8.55228 18 8 18C7.44772 18 7 17.5523 7 17Z" fill="#292556"/>
<path d="M11 10C11 9.44772 11.4477 9 12 9C12.5523 9 13 9.44772 13 10C13 10.5523 12.5523 11 12 11C11.4477 11 11 10.5523 11 10Z" fill="#292556"/>
<path d="M11 13.5C11 12.9477 11.4477 12.5 12 12.5C12.5523 12.5 13 12.9477 13 13.5C13 14.0523 12.5523 14.5 12 14.5C11.4477 14.5 11 14.0523 11 13.5Z" fill="#292556"/>
<path d="M11 17C11 16.4477 11.4477 16 12 16C12.5523 16 13 16.4477 13 17C13 17.5523 12.5523 18 12 18C11.4477 18 11 17.5523 11 17Z" fill="#292556"/>
<path d="M15 10C15 9.44772 15.4477 9 16 9C16.5523 9 17 9.44772 17 10C17 10.5523 16.5523 11 16 11C15.4477 11 15 10.5523 15 10Z" fill="#292556"/>
<path d="M15 13.5C15 12.9477 15.4477 12.5 16 12.5C16.5523 12.5 17 12.9477 17 13.5C17 14.0523 16.5523 14.5 16 14.5C15.4477 14.5 15 14.0523 15 13.5Z" fill="#292556"/>
<path d="M15 17C15 16.4477 15.4477 16 16 16C16.5523 16 17 16.4477 17 17C17 17.5523 16.5523 18 16 18C15.4477 18 15 17.5523 15 17Z" fill="#292556"/>
</svg>
