<svg width="24" height="24" viewBox="0 0 24 24" fill="none" xmlns="http://www.w3.org/2000/svg">
<path d="M9.5 19C9.5 19.8284 8.82843 20.5 8 20.5C7.17157 20.5 6.5 19.8284 6.5 19C6.5 18.1716 7.17157 17.5 8 17.5C8.82843 17.5 9.5 18.1716 9.5 19Z" stroke="#292556" stroke-width="1.5" stroke-linecap="round" stroke-linejoin="round"/>
<path d="M17.5 19C17.5 19.8284 16.8284 20.5 16 20.5C15.1716 20.5 14.5 19.8284 14.5 19C14.5 18.1716 15.1716 17.5 16 17.5C16.8284 17.5 17.5 18.1716 17.5 19Z" stroke="#292556" stroke-width="1.5" stroke-linecap="round" stroke-linejoin="round"/>
<path d="M5 14.25C4.58579 14.25 4.25 14.5858 4.25 15C4.25 15.4142 4.58579 15.75 5 15.75L5 14.25ZM5 12H4.25C4.25 12.4142 4.58579 12.75 5 12.75V12ZM3 2.75C2.58579 2.75 2.25 3.08579 2.25 3.5C2.25 3.91421 2.58579 4.25 3 4.25V2.75ZM19.0559 14.2456C19.2915 13.9049 19.2063 13.4377 18.8657 13.2021C18.525 12.9665 18.0578 13.0517 17.8222 13.3924L19.0559 14.2456ZM19.5258 9.8867C19.3442 10.259 19.4988 10.708 19.8711 10.8896C20.2434 11.0712 20.6924 10.9166 20.874 10.5443L19.5258 9.8867ZM5 8.25C4.58579 8.25 4.25 8.58579 4.25 9C4.25 9.41421 4.58579 9.75 5 9.75V8.25ZM16 9.75C16.4142 9.75 16.75 9.41421 16.75 9C16.75 8.58579 16.4142 8.25 16 8.25V9.75ZM12 12.75C12.4142 12.75 12.75 12.4142 12.75 12C12.75 11.5858 12.4142 11.25 12 11.25V12.75ZM8 6.25L17.6988 6.25V4.75L8 4.75V6.25ZM16.2232 14.25H5L5 15.75H16.2232V14.25ZM5.75 12V8.5H4.25V12H5.75ZM5.75 12V5.5H4.25V12H5.75ZM19.7211 9.4864L19.5258 9.8867L20.874 10.5443L21.0692 10.144L19.7211 9.4864ZM17.8222 13.3924L17.8012 13.4227L19.0349 14.2759L19.0559 14.2456L17.8222 13.3924ZM5 9.75H16V8.25H5V9.75ZM5 12.75H12V11.25H5V12.75ZM16.2232 15.75C17.3456 15.75 18.3965 15.1991 19.0349 14.2759L17.8012 13.4227C17.4429 13.9408 16.8531 14.25 16.2232 14.25V15.75ZM17.6988 6.25C19.3618 6.25 20.4501 7.99177 19.7211 9.4864L21.0692 10.144C22.2843 7.65295 20.4704 4.75 17.6988 4.75V6.25ZM5.75 5.5C5.75 3.98122 4.51878 2.75 3 2.75V4.25C3.69036 4.25 4.25 4.80964 4.25 5.5H5.75ZM8 4.75C5.92893 4.75 4.25 6.42893 4.25 8.5H5.75C5.75 7.25736 6.75736 6.25 8 6.25V4.75Z" fill="#292556"/>
</svg>
