<svg width="24" height="24" viewBox="0 0 24 24" fill="none" xmlns="http://www.w3.org/2000/svg">
<path d="M8 20.25C7.58579 20.25 7.25 20.5858 7.25 21C7.25 21.4142 7.58579 21.75 8 21.75V20.25ZM16 21.75C16.4142 21.75 16.75 21.4142 16.75 21C16.75 20.5858 16.4142 20.25 16 20.25V21.75ZM12.75 16.0014C12.75 15.5872 12.4142 15.2514 12 15.2514C11.5858 15.2514 11.25 15.5872 11.25 16.0014H12.75ZM17.9587 12.179C18.0517 11.7753 17.7999 11.3727 17.3963 11.2797C16.9926 11.1867 16.59 11.4385 16.497 11.8421L17.9587 12.179ZM6.77215 12.0106L7.503 11.8421L6.77215 12.0106ZM17.1226 7.90477C17.07 8.31563 17.3604 8.69134 17.7713 8.74393C18.1821 8.79652 18.5578 8.50609 18.6104 8.09523L17.1226 7.90477ZM18.0915 5.91355L17.3418 5.93517L18.0915 5.91355ZM8.44182 3.03632L8.32547 2.2954L8.44182 3.03632ZM8 21.75H12V20.25H8V21.75ZM12 21.75H16V20.25H12V21.75ZM12.75 21V16.0014H11.25V21H12.75ZM12 15.2462C9.84322 15.2462 7.97031 13.8701 7.503 11.8421L6.0413 12.179C6.68204 14.9595 9.22097 16.7462 12 16.7462V15.2462ZM16.497 11.8421C16.0297 13.8701 14.1568 15.2462 12 15.2462V16.7462C14.779 16.7462 17.318 14.9595 17.9587 12.179L16.497 11.8421ZM7.503 11.8421C7.32829 11.084 7.14179 9.86267 6.99692 8.80684C6.92519 8.28402 6.86478 7.81021 6.8223 7.46708C6.80108 7.29558 6.78435 7.1569 6.77295 7.06127C6.76725 7.01346 6.76288 6.97642 6.75995 6.95144C6.75848 6.93894 6.75738 6.92946 6.75664 6.92316C6.75628 6.92001 6.756 6.91765 6.75582 6.9161C6.75574 6.91533 6.75567 6.91476 6.75563 6.9144C6.75561 6.91422 6.75559 6.91409 6.75558 6.91401C6.75558 6.91397 6.75558 6.91395 6.75557 6.91393C6.75557 6.91392 6.75557 6.91393 6.01053 7C5.26548 7.08607 5.26549 7.0861 5.26549 7.08615C5.2655 7.08618 5.2655 7.08624 5.26551 7.0863C5.26552 7.08643 5.26555 7.08661 5.26557 7.08685C5.26563 7.08731 5.2657 7.08799 5.26581 7.08886C5.26601 7.09062 5.26631 7.09319 5.2667 7.09656C5.26748 7.10329 5.26864 7.11321 5.27016 7.12615C5.2732 7.15204 5.27767 7.19003 5.28349 7.23884C5.29513 7.33645 5.31213 7.47738 5.33367 7.65135C5.37672 7.99916 5.43799 8.47975 5.51085 9.01073C5.65516 10.0625 5.84946 11.3465 6.0413 12.179L7.503 11.8421ZM9.53245 3.75H14.4676V2.25H9.53245V3.75ZM17.9895 7C17.2444 6.91393 17.2444 6.91393 17.2444 6.91392C17.2444 6.91392 17.2444 6.91392 17.2444 6.91392C17.2444 6.91393 17.2444 6.91394 17.2444 6.91395C17.2444 6.91398 17.2444 6.91404 17.2444 6.91412C17.2444 6.91428 17.2444 6.91454 17.2443 6.9149C17.2442 6.91561 17.2441 6.91671 17.2439 6.91819C17.2436 6.92115 17.2431 6.92564 17.2424 6.9316C17.241 6.94352 17.2389 6.96134 17.2361 6.98463C17.2306 7.03122 17.2225 7.09969 17.212 7.18673C17.191 7.36084 17.1604 7.60906 17.1226 7.90477L18.6104 8.09523C18.6488 7.79545 18.6798 7.54367 18.7012 7.36665C18.7119 7.27812 18.7202 7.20826 18.7258 7.16039C18.7286 7.13645 18.7308 7.11801 18.7323 7.10549C18.733 7.09922 18.7335 7.09444 18.7339 7.09119C18.7341 7.08956 18.7343 7.08832 18.7344 7.08746C18.7344 7.08703 18.7344 7.0867 18.7345 7.08647C18.7345 7.08635 18.7345 7.08626 18.7345 7.0862C18.7345 7.08616 18.7345 7.08613 18.7345 7.08611C18.7345 7.0861 18.7345 7.08609 18.7345 7.08609C18.7345 7.08608 18.7345 7.08607 17.9895 7ZM14.4676 3.75C15.0702 3.75 15.2832 3.75233 15.4418 3.77724L15.6745 2.2954C15.3706 2.24767 15.0107 2.25 14.4676 2.25V3.75ZM18.7334 7.09495C18.8022 6.55617 18.8501 6.19949 18.8412 5.89194L17.3418 5.93517C17.3465 6.09566 17.3218 6.30727 17.2455 6.90505L18.7334 7.09495ZM15.4418 3.77724C16.5121 3.94531 17.3106 4.85223 17.3418 5.93517L18.8412 5.89194C18.7892 4.08706 17.4583 2.57552 15.6745 2.2954L15.4418 3.77724ZM6.75449 6.90505C6.6782 6.30727 6.65354 6.09566 6.65817 5.93517L5.15879 5.89194C5.14992 6.19949 5.1978 6.55617 5.26656 7.09495L6.75449 6.90505ZM9.53245 2.25C8.98929 2.25 8.62943 2.24767 8.32547 2.2954L8.55818 3.77724C8.7168 3.75233 8.92982 3.75 9.53245 3.75V2.25ZM6.65817 5.93517C6.68938 4.85223 7.48791 3.94531 8.55818 3.77724L8.32547 2.2954C6.5417 2.57552 5.21082 4.08706 5.15879 5.89194L6.65817 5.93517Z" fill="#292556"/>
</svg>
