<svg width="24" height="24" viewBox="0 0 24 24" fill="none" xmlns="http://www.w3.org/2000/svg">
<path d="M3 8V8C3 5.79086 4.79086 4 7 4H14C16.8089 4 18.2134 4 19.2223 4.67412C19.659 4.96596 20.034 5.34096 20.3259 5.77772C21 6.78661 21 8.19108 21 11V11M16 20H16.5V20C16.9643 20 17.1965 20 17.3921 19.9807C19.2912 19.7937 20.7937 18.2912 20.9807 16.3921C21 16.1965 21 15.9643 21 15.5V15M3 14.0028C4.70974 13.9568 6.27049 14.4746 7.39793 15.6021C8.52537 16.7295 9.04325 18.2903 8.99718 20M3 11.0042C5.56461 10.9351 7.90574 11.7119 9.5969 13.4031C11.2881 15.0943 12.0649 17.4354 11.9958 20M3 17.0014C3.85487 16.9784 4.63525 17.2373 5.19897 17.801C5.76269 18.3648 6.02162 19.1451 5.99859 20" stroke="#292556" stroke-width="1.5" stroke-linecap="round" stroke-linejoin="round"/>
<path d="M3.95711 20.4571C3.56658 20.8476 2.93342 20.8476 2.54289 20.4571C2.15237 20.0666 2.15237 19.4334 2.54289 19.0429C2.93342 18.6524 3.56658 18.6524 3.95711 19.0429C4.34763 19.4334 4.34763 20.0666 3.95711 20.4571Z" fill="#292556"/>
</svg>
