<svg width="24" height="24" viewBox="0 0 24 24" fill="none" xmlns="http://www.w3.org/2000/svg">
<path d="M14.208 4.04858C14.6071 4.15916 15.0204 3.92521 15.131 3.52603C15.2415 3.12685 15.0076 2.71361 14.6084 2.60302L14.208 4.04858ZM18.9393 5.151C18.6483 4.8562 18.1734 4.85311 17.8786 5.14409C17.5839 5.43507 17.5808 5.90994 17.8717 6.20473L18.9393 5.151ZM20.25 12C20.25 16.5563 16.5563 20.25 12 20.25V21.75C17.3848 21.75 21.75 17.3848 21.75 12H20.25ZM12 20.25C7.44365 20.25 3.75 16.5563 3.75 12H2.25C2.25 17.3848 6.61522 21.75 12 21.75V20.25ZM3.75 12C3.75 7.44365 7.44365 3.75 12 3.75V2.25C6.61522 2.25 2.25 6.61522 2.25 12H3.75ZM12 3.75C12.7658 3.75 13.5061 3.85414 14.208 4.04858L14.6084 2.60302C13.7773 2.37279 12.9024 2.25 12 2.25V3.75ZM17.8717 6.20473C19.3431 7.69535 20.25 9.74102 20.25 12H21.75C21.75 9.33082 20.6764 6.91092 18.9393 5.151L17.8717 6.20473Z" fill="#292556"/>
<path d="M8.5 10.5L12 14L15.5 10.5" stroke="#292556" stroke-width="1.5" stroke-linecap="round" stroke-linejoin="round"/>
</svg>
