<svg width="24" height="24" viewBox="0 0 24 24" fill="none" xmlns="http://www.w3.org/2000/svg">
<path d="M3.20557 10C3.85668 12.3131 5.98053 14.0086 8.50008 14.0086H19.0001C20.1047 14.0086 21.0001 13.1125 21.0001 12.007C21.0001 10.9016 20.1047 10.0055 19.0001 10.0055C18.6029 10.0055 18.2328 10.1213 17.9216 10.3211C17.6119 8.99311 16.4214 8.00392 15.0001 8.00392C14.6459 8.00392 14.306 8.06534 13.9906 8.17813C13.8219 5.29002 11.4282 3 8.50008 3C6.36368 3 4.51177 4.21904 3.60099 6M10 17L7.74719 18.0013C7.45649 18.1304 7.31114 18.195 7.27769 18.3038C7.26718 18.3379 7.26412 18.3739 7.2687 18.4094C7.2833 18.5222 7.41564 18.6104 7.68033 18.7869L8.31967 19.2131C8.58436 19.3896 8.7167 19.4778 8.7313 19.5906C8.73588 19.6261 8.73282 19.6621 8.72231 19.6962C8.68886 19.8049 8.54351 19.8695 8.25281 19.9987L6 21M18 17L15.7472 18.0013C15.4565 18.1304 15.3111 18.195 15.2777 18.3038C15.2672 18.3379 15.2641 18.3739 15.2687 18.4094C15.2833 18.5222 15.4156 18.6104 15.6803 18.7869L16.3197 19.2131C16.5844 19.3896 16.7167 19.4778 16.7313 19.5906C16.7359 19.6261 16.7328 19.6621 16.7223 19.6962C16.6889 19.8049 16.5435 19.8695 16.2528 19.9987L14 21" stroke="#292556" stroke-width="1.5" stroke-linecap="round" stroke-linejoin="round"/>
</svg>
