<svg width="24" height="24" viewBox="0 0 24 24" fill="none" xmlns="http://www.w3.org/2000/svg">
<path d="M13.9906 15.1781L13.2419 15.2219C13.2556 15.4577 13.3797 15.6732 13.5767 15.8036C13.7737 15.934 14.0206 15.9639 14.2431 15.8844L13.9906 15.1781ZM17.9216 17.3211L17.1912 17.4915C17.2466 17.7288 17.4138 17.9245 17.6396 18.0161C17.8655 18.1077 18.1217 18.0839 18.3268 17.9522L17.9216 17.3211ZM3.92751 16.7968C3.81527 16.3981 3.40107 16.1658 3.00235 16.2781C2.60363 16.3903 2.37139 16.8045 2.48362 17.2032L3.92751 16.7968ZM2.93324 12.6585C2.74465 13.0273 2.89072 13.4791 3.2595 13.6677C3.62829 13.8563 4.08014 13.7103 4.26874 13.3415L2.93324 12.6585ZM15.9404 3L16.5508 3.43585C16.7364 3.17588 16.737 2.82686 16.5523 2.56626C16.3675 2.30565 16.038 2.19067 15.7312 2.27976L15.9404 3ZM21 8.05957L21.7202 8.26876C21.8093 7.96199 21.6943 7.63245 21.4337 7.44771C21.1731 7.26297 20.8241 7.26357 20.5641 7.44921L21 8.05957ZM20.2501 19.007C20.2501 19.6988 19.6899 20.2586 19.0001 20.2586V21.7586C20.5194 21.7586 21.7501 20.5261 21.7501 19.007H20.2501ZM19.0001 17.7555C19.6899 17.7555 20.2501 18.3153 20.2501 19.007H21.7501C21.7501 17.488 20.5194 16.2555 19.0001 16.2555V17.7555ZM8.50008 21.7586H19.0001V20.2586H8.50008V21.7586ZM14.2431 15.8844C14.4787 15.8001 14.7332 15.7539 15.0001 15.7539V14.2539C14.5586 14.2539 14.1334 14.3306 13.7381 14.4719L14.2431 15.8844ZM8.50008 10.75C11.0282 10.75 13.0962 12.7275 13.2419 15.2219L14.7393 15.1344C14.5477 11.8526 11.8283 9.25 8.50008 9.25V10.75ZM18.3268 17.9522C18.5207 17.8277 18.7509 17.7555 19.0001 17.7555V16.2555C18.455 16.2555 17.9448 16.4149 17.5164 16.69L18.3268 17.9522ZM15.0001 15.7539C16.0647 15.7539 16.9588 16.495 17.1912 17.4915L18.652 17.1508C18.265 15.4913 16.7781 14.2539 15.0001 14.2539V15.7539ZM8.50008 20.2586C6.32559 20.2586 4.49009 18.7954 3.92751 16.7968L2.48362 17.2032C3.22328 19.8309 5.63548 21.7586 8.50008 21.7586V20.2586ZM4.26874 13.3415C5.05642 11.8012 6.65639 10.75 8.50008 10.75V9.25C6.07096 9.25 3.96713 10.6368 2.93324 12.6585L4.26874 13.3415ZM17.0807 10.25C15.2412 10.25 13.75 8.75878 13.75 6.91927H12.25C12.25 9.58721 14.4128 11.75 17.0807 11.75V10.25ZM18.8944 7.98293C17.3053 7.98293 16.0171 6.69471 16.0171 5.10562H14.5171C14.5171 7.52314 16.4769 9.48293 18.8944 9.48293V7.98293ZM16.0171 5.10562C16.0171 4.48189 16.2147 3.90654 16.5508 3.43585L15.3301 2.56415C14.8183 3.2808 14.5171 4.15914 14.5171 5.10562H16.0171ZM13.75 6.91927C13.75 5.40391 14.7626 4.12309 16.1496 3.72024L15.7312 2.27976C13.7207 2.86372 12.25 4.71877 12.25 6.91927H13.75ZM20.5641 7.44921C20.0935 7.78533 19.5181 7.98293 18.8944 7.98293V9.48293C19.8409 9.48293 20.7192 9.18168 21.4359 8.66992L20.5641 7.44921ZM20.2798 7.85038C19.8769 9.2374 18.5961 10.25 17.0807 10.25V11.75C19.2812 11.75 21.1363 10.2793 21.7202 8.26876L20.2798 7.85038Z" fill="#292556"/>
</svg>
