<svg width="24" height="24" viewBox="0 0 24 24" fill="none" xmlns="http://www.w3.org/2000/svg">
<path d="M13.9906 8.17813L13.2419 8.22185C13.2556 8.45769 13.3797 8.67325 13.5767 8.8036C13.7737 8.93396 14.0206 8.96388 14.2431 8.88435L13.9906 8.17813ZM17.9216 10.3211L17.1912 10.4915C17.2466 10.7288 17.4138 10.9245 17.6396 11.0161C17.8655 11.1077 18.1217 11.0839 18.3268 10.9522L17.9216 10.3211ZM3.92751 9.79678C3.81527 9.39806 3.40107 9.16582 3.00235 9.27806C2.60363 9.39029 2.37139 9.8045 2.48362 10.2032L3.92751 9.79678ZM2.93324 5.65851C2.74465 6.0273 2.89072 6.47915 3.2595 6.66775C3.62829 6.85635 4.08014 6.71027 4.26874 6.34149L2.93324 5.65851ZM6 20.25C5.58579 20.25 5.25 20.5858 5.25 21C5.25 21.4142 5.58579 21.75 6 21.75V20.25ZM9.34957 16.8002C9.01838 17.0489 8.95156 17.5191 9.20033 17.8503C9.44909 18.1815 9.91924 18.2483 10.2504 17.9995L9.34957 16.8002ZM15 20.25C14.5858 20.25 14.25 20.5858 14.25 21C14.25 21.4142 14.5858 21.75 15 21.75V20.25ZM15.1496 17.7002C14.8184 17.949 14.7516 18.4191 15.0003 18.7503C15.2491 19.0815 15.7192 19.1483 16.0504 18.8996L15.1496 17.7002ZM20.2501 12.007C20.2501 12.6988 19.6899 13.2586 19.0001 13.2586V14.7586C20.5194 14.7586 21.7501 13.5261 21.7501 12.007H20.2501ZM19.0001 10.7555C19.6899 10.7555 20.2501 11.3153 20.2501 12.007H21.7501C21.7501 10.488 20.5194 9.25548 19.0001 9.25548V10.7555ZM8.50008 14.7586H19.0001V13.2586H8.50008V14.7586ZM14.2431 8.88435C14.4787 8.80012 14.7332 8.75392 15.0001 8.75392V7.25392C14.5586 7.25392 14.1334 7.33057 13.7381 7.47192L14.2431 8.88435ZM8.50008 3.75C11.0282 3.75 13.0962 5.72746 13.2419 8.22185L14.7393 8.13441C14.5477 4.85259 11.8283 2.25 8.50008 2.25V3.75ZM18.3268 10.9522C18.5207 10.8277 18.7509 10.7555 19.0001 10.7555V9.25548C18.455 9.25548 17.9448 9.41494 17.5164 9.69L18.3268 10.9522ZM15.0001 8.75392C16.0647 8.75392 16.9588 9.49495 17.1912 10.4915L18.652 10.1508C18.265 8.49127 16.7781 7.25392 15.0001 7.25392V8.75392ZM8.50008 13.2586C6.32559 13.2586 4.49009 11.7954 3.92751 9.79678L2.48362 10.2032C3.22328 12.8309 5.63548 14.7586 8.50008 14.7586V13.2586ZM4.26874 6.34149C5.05642 4.80125 6.65639 3.75 8.50008 3.75V2.25C6.07096 2.25 3.96713 3.63684 2.93324 5.65851L4.26874 6.34149ZM6 21.75H11V20.25H6V21.75ZM13.75 19C13.75 17.4812 12.5188 16.25 11 16.25V17.75C11.6904 17.75 12.25 18.3096 12.25 19H13.75ZM11 21.75C12.5188 21.75 13.75 20.5188 13.75 19H12.25C12.25 19.6904 11.6904 20.25 11 20.25V21.75ZM11 16.25C10.3818 16.25 9.80925 16.4549 9.34957 16.8002L10.2504 17.9995C10.4593 17.8427 10.7177 17.75 11 17.75V16.25ZM15 21.75H16.5V20.25H15V21.75ZM18.75 19.5C18.75 18.2574 17.7426 17.25 16.5 17.25V18.75C16.9142 18.75 17.25 19.0858 17.25 19.5H18.75ZM16.5 21.75C17.7426 21.75 18.75 20.7426 18.75 19.5H17.25C17.25 19.9142 16.9142 20.25 16.5 20.25V21.75ZM16.5 17.25C15.9943 17.25 15.5257 17.4177 15.1496 17.7002L16.0504 18.8996C16.1757 18.8055 16.3303 18.75 16.5 18.75V17.25Z" fill="#292556"/>
</svg>
