<svg width="24" height="24" viewBox="0 0 24 24" fill="none" xmlns="http://www.w3.org/2000/svg">
<path d="M14.1716 4.17157L14.4747 4.47468M19.8284 9.82842L19.5253 9.52532M17 11L17 10.5556M17 3L17 3.44444M21 7L20.5556 6.99999M13 7H13.4444M19.8284 4.17157L19.5253 4.47467M14.1716 9.82842L14.4747 9.52532M3.20557 17C3.85668 19.3131 5.98053 21.0086 8.50008 21.0086H19.0001C20.1047 21.0086 21.0001 20.1125 21.0001 19.007C21.0001 17.9016 20.1047 17.0055 19.0001 17.0055C18.6029 17.0055 18.2328 17.1213 17.9216 17.3211C17.6119 15.9931 16.4214 15.0039 15.0001 15.0039C14.6459 15.0039 14.306 15.0653 13.9906 15.1781C13.8219 12.29 11.4282 10 8.50008 10C6.36368 10 4.51177 11.219 3.60099 13M18.25 7C18.25 7.69036 17.6904 8.25 17 8.25C16.3096 8.25 15.75 7.69036 15.75 7C15.75 6.30964 16.3096 5.75 17 5.75C17.6904 5.75 18.25 6.30964 18.25 7Z" stroke="#292556" stroke-width="1.5" stroke-linecap="round" stroke-linejoin="round"/>
</svg>
