<svg width="24" height="24" viewBox="0 0 24 24" fill="none" xmlns="http://www.w3.org/2000/svg">
<path d="M3.20557 10C3.85668 12.3131 5.98053 14.0086 8.50008 14.0086H19.0001C20.1047 14.0086 21.0001 13.1125 21.0001 12.007C21.0001 10.9016 20.1047 10.0055 19.0001 10.0055C18.6029 10.0055 18.2328 10.1213 17.9216 10.3211C17.6119 8.99311 16.4214 8.00392 15.0001 8.00392C14.6459 8.00392 14.306 8.06534 13.9906 8.17813C13.8219 5.29002 11.4282 3 8.50008 3C6.36368 3 4.51177 4.21904 3.60099 6M8 21V20.99M12 18.5V18.51M17.9215 16.99V17M6 17.01V17M16 20.99V21" stroke="#292556" stroke-width="1.5" stroke-linecap="round" stroke-linejoin="round"/>
</svg>
