<svg width="24" height="24" viewBox="0 0 24 24" fill="none" xmlns="http://www.w3.org/2000/svg">
<path d="M9 16V16C9 17.8692 9 18.8038 9.40192 19.5C9.66523 19.9561 10.0439 20.3348 10.5 20.5981C11.1962 21 12.1308 21 14 21H16.01C17.8698 21 18.7996 21 19.4932 20.602C19.9546 20.3372 20.3372 19.9546 20.602 19.4932C21 18.7996 21 17.8698 21 16.01V16.01V16M15 8H17C17.93 8 18.395 8 18.7765 8.10222C19.8117 8.37962 20.6204 9.18827 20.8978 10.2235C21 10.605 21 11.07 21 12V12M9.6 16H8.4C6.15016 16 5.02524 16 4.23664 15.4271C3.98196 15.242 3.75799 15.018 3.57295 14.7634C3 13.9748 3 12.8498 3 10.6V8.4C3 6.15016 3 5.02524 3.57295 4.23664C3.75799 3.98196 3.98196 3.75799 4.23664 3.57295C5.02524 3 6.15016 3 8.4 3H9.6C11.8498 3 12.9748 3 13.7634 3.57295C14.018 3.75799 14.242 3.98196 14.4271 4.23664C15 5.02524 15 6.15016 15 8.4V10.6C15 12.8498 15 13.9748 14.4271 14.7634C14.242 15.018 14.018 15.242 13.7634 15.4271C12.9748 16 11.8498 16 9.6 16Z" stroke="#292556" stroke-width="1.5" stroke-linecap="round" stroke-linejoin="round"/>
</svg>
