<svg width="24" height="24" viewBox="0 0 24 24" fill="none" xmlns="http://www.w3.org/2000/svg">
<path fill-rule="evenodd" clip-rule="evenodd" d="M17.25 12.75C14.7647 12.75 12.75 14.7647 12.75 17.25C12.75 19.7353 14.7647 21.75 17.25 21.75C19.7353 21.75 21.75 19.7353 21.75 17.25C21.75 14.7647 19.7353 12.75 17.25 12.75ZM18 15.25C18 14.8358 17.6642 14.5 17.25 14.5C16.8358 14.5 16.5 14.8358 16.5 15.25V16.5H15.25C14.8358 16.5 14.5 16.8358 14.5 17.25C14.5 17.6642 14.8358 18 15.25 18H16.5V19.25C16.5 19.6642 16.8358 20 17.25 20C17.6642 20 18 19.6642 18 19.25V18H19.25C19.6642 18 20 17.6642 20 17.25C20 16.8358 19.6642 16.5 19.25 16.5H18V15.25Z" fill="#292556"/>
<path fill-rule="evenodd" clip-rule="evenodd" d="M14.0334 2.31861C13.6225 2.2662 13.2469 2.5568 13.1945 2.96769C13.1421 3.37857 13.4327 3.75415 13.8436 3.80655C15.2258 3.98286 16.3744 4.34089 17.1533 4.78183C17.9709 5.24461 18.1885 5.67584 18.1885 5.93835C18.1885 6.09894 18.1157 6.31465 17.8546 6.57926C17.5902 6.84708 17.1706 7.12268 16.5928 7.37031C15.4399 7.86442 13.7948 8.18835 11.9385 8.18835C10.0821 8.18835 8.43709 7.86442 7.28417 7.37031C6.70637 7.12268 6.28671 6.84708 6.02238 6.57926C5.76124 6.31465 5.68848 6.09894 5.68848 5.93835C5.68848 5.67584 5.90605 5.24461 6.72362 4.78183C7.5026 4.34089 8.65112 3.98286 10.0334 3.80655C10.4443 3.75415 10.7349 3.37857 10.6824 2.96769C10.63 2.5568 10.2545 2.2662 9.84358 2.31861C8.33434 2.51111 6.98286 2.91145 5.98472 3.47645C5.02516 4.0196 4.18848 4.84185 4.18848 5.93835V9.93835V13.9383V17.9383C4.18848 18.6062 4.50746 19.1797 4.95476 19.6329C5.39887 20.0829 6.00433 20.4538 6.69329 20.749C8.07387 21.3407 9.92884 21.6883 11.9385 21.6883C12.3548 21.6883 12.7645 21.6734 13.1647 21.6445C12.7113 21.2228 12.3232 20.7317 12.0174 20.1882C11.9911 20.1883 11.9648 20.1883 11.9385 20.1883C10.0821 20.1883 8.43709 19.8644 7.28417 19.3703C6.70637 19.1227 6.28671 18.8471 6.02238 18.5793C5.76124 18.3147 5.68848 18.0989 5.68848 17.9383V16.221C5.99289 16.4182 6.33158 16.594 6.69329 16.749C7.91815 17.274 9.51643 17.6068 11.2648 17.6752C11.255 17.5348 11.25 17.393 11.25 17.2501C11.25 16.8839 11.2828 16.5253 11.3456 16.1772C9.73305 16.1165 8.31276 15.8111 7.28417 15.3703C6.70637 15.1227 6.28671 14.8471 6.02238 14.5793C5.76124 14.3147 5.68848 14.0989 5.68848 13.9383V12.221C5.99289 12.4182 6.33158 12.594 6.69329 12.749C8.07387 13.3407 9.92884 13.6883 11.9385 13.6883C12.1021 13.6883 12.2647 13.686 12.4261 13.6815C12.9379 12.9908 13.5945 12.4139 14.351 11.9957C13.6106 12.119 12.7971 12.1883 11.9385 12.1883C10.0821 12.1883 8.43709 11.8644 7.28417 11.3703C6.70637 11.1227 6.28671 10.8471 6.02238 10.5793C5.76124 10.3147 5.68848 10.0989 5.68848 9.93835V8.22096C5.99289 8.41816 6.33158 8.59401 6.69329 8.74903C8.07387 9.3407 9.92884 9.68835 11.9385 9.68835C13.9481 9.68835 15.8031 9.3407 17.1837 8.74903C17.5454 8.59401 17.8841 8.41816 18.1885 8.22096V9.93835C18.1885 10.0989 18.1157 10.3147 17.8546 10.5793C17.6272 10.8096 17.285 11.0457 16.826 11.2648C16.9661 11.2551 17.1075 11.2501 17.25 11.2501C18.1182 11.2501 18.9434 11.4345 19.6885 11.7663V9.93835V5.93835C19.6885 4.84185 18.8518 4.0196 17.8922 3.47645C16.8941 2.91145 15.5426 2.51111 14.0334 2.31861Z" fill="#292556"/>
</svg>
