<svg width="24" height="24" viewBox="0 0 24 24" fill="none" xmlns="http://www.w3.org/2000/svg">
<path d="M18.9385 5.93827C18.9385 7.59512 15.8045 8.93827 11.9385 8.93827C8.07248 8.93827 4.93848 7.59512 4.93848 5.93827M18.9385 5.93827V17.9383C18.9385 19.5951 15.8045 20.9383 11.9385 20.9383C8.07248 20.9383 4.93848 19.5951 4.93848 17.9383L4.93848 5.93827M18.9385 5.93827C18.9385 4.57926 16.83 3.43131 13.9385 3.0625M4.93848 5.93827C4.93848 4.57926 7.04699 3.43131 9.93848 3.0625M18.9385 9.93827C18.9385 11.5951 15.8045 12.9383 11.9385 12.9383C8.07248 12.9383 4.93848 11.5951 4.93848 9.93827M18.9385 13.9383C18.9385 15.5951 15.8045 16.9383 11.9385 16.9383C8.07248 16.9383 4.93848 15.5951 4.93848 13.9383" stroke="#292556" stroke-width="1.5" stroke-linecap="round" stroke-linejoin="round"/>
</svg>
