<svg width="24" height="24" viewBox="0 0 24 24" fill="none" xmlns="http://www.w3.org/2000/svg">
<path d="M9 12.2187L7 9.5625L7.9232 8.49505C8.39336 7.95143 8.62844 7.67962 8.93006 7.50906C9.02967 7.45273 9.13393 7.40506 9.2417 7.36656C9.568 7.25 9.92737 7.25 10.6461 7.25H12M15.3375 16.9159L14.8523 17.546C13.6956 19.0481 13.1172 19.7992 12.3638 19.9386C12.1233 19.9831 11.8767 19.9831 11.6362 19.9386C10.8828 19.7992 10.3044 19.0481 9.14769 17.546L4.87138 11.9927C4.08098 10.9663 3.68578 10.4531 3.63267 9.87548C3.61541 9.68778 3.62478 9.49859 3.66048 9.31351C3.77035 8.744 4.21429 8.27232 5.10217 7.32895L6.93394 5.38269C7.40023 4.88726 7.63337 4.63955 7.92393 4.48478C8.01997 4.43363 8.12003 4.39039 8.22311 4.35552C8.53494 4.25 8.87512 4.25 9.55546 4.25L14.4445 4.25C15.1249 4.25 15.4651 4.25 15.7769 4.35552C15.88 4.39039 15.98 4.43363 16.0761 4.48478C16.3666 4.63955 16.5998 4.88726 17.0661 5.38269L18.8978 7.32894C19.7857 8.27232 20.2296 8.744 20.3395 9.31351C20.3752 9.49859 20.3846 9.68778 20.3673 9.87548C20.3142 10.4531 19.919 10.9663 19.1286 11.9927L17.7754 13.75" stroke="#292556" stroke-width="1.5" stroke-linecap="round" stroke-linejoin="round"/>
</svg>
