<svg width="24" height="24" viewBox="0 0 24 24" fill="none" xmlns="http://www.w3.org/2000/svg">
<path d="M8.48797 17.5176L7.77828 18.4626C7.44022 18.9128 7.27118 19.1379 7.01202 19.242C6.93471 19.2731 6.83149 19.299 6.74867 19.3081C6.47106 19.3386 6.24562 19.2339 5.79473 19.0243C4.9085 18.6124 4.08852 18.069 3.48386 17.345C3.38769 17.2299 3.33961 17.1723 3.28782 17.0695C3.27361 17.0413 3.25312 16.9941 3.24223 16.9644C3.20254 16.8564 3.19067 16.7603 3.16694 16.568C3.08472 15.902 3 15.1187 3 14.4994C3 11.6826 3.56044 8.89521 4.72953 6.52087C4.83572 6.3052 4.88882 6.19736 4.98616 6.09145C5.01465 6.06046 5.0574 6.02014 5.09001 5.99352C5.20145 5.90255 5.31344 5.85534 5.53742 5.76093C6.26646 5.45364 7.20058 5.10977 8.01339 4.82878C8.22078 4.75709 8.32447 4.72124 8.42917 4.70834C8.7428 4.66968 9.07053 4.78953 9.28523 5.02139C9.35691 5.09879 9.4153 5.19693 9.5321 5.39321V5.39321C9.64351 5.58042 9.69921 5.67403 9.75578 5.73985C9.94227 5.95684 10.1478 6.06153 10.433 6.08476C10.5195 6.09181 10.6484 6.07993 10.9063 6.05617C11.2766 6.02205 11.6548 6.00457 12 6.00457C12.3452 6.00457 12.7234 6.02205 13.0937 6.05617C13.3516 6.07993 13.4805 6.09181 13.567 6.08476C13.8522 6.06153 14.0577 5.95684 14.2442 5.73985C14.3008 5.67403 14.3565 5.58042 14.4679 5.39321V5.39321C14.5847 5.19693 14.6431 5.09879 14.7148 5.02139C14.9295 4.78953 15.2572 4.66968 15.5708 4.70834C15.6755 4.72124 15.7792 4.75709 15.9866 4.82878C16.7994 5.10977 17.7335 5.45364 18.4626 5.76093C18.6866 5.85534 18.7986 5.90255 18.91 5.99352C18.9426 6.02014 18.9854 6.06046 19.0138 6.09146C19.1112 6.19737 19.1643 6.30521 19.2705 6.52091C19.7252 7.44432 20.0878 8.43021 20.3612 9.456M8.48797 17.5176C9.6051 17.8301 10.783 17.9973 12 17.9973C13.217 17.9973 14.3949 17.8301 15.512 17.5176M8.48797 17.5176C7.80061 17.3253 7.13627 17.078 6.5 16.7806M15.512 17.5176L16.2217 18.4626C16.5598 18.9128 16.7288 19.1379 16.988 19.242C17.0653 19.2731 17.1685 19.299 17.2513 19.3081C17.5289 19.3386 17.7544 19.2339 18.2053 19.0243C19.0915 18.6124 19.9115 18.069 20.5161 17.345C20.6123 17.2299 20.6604 17.1723 20.7122 17.0695C20.7264 17.0413 20.7469 16.9941 20.7578 16.9644C20.7975 16.8564 20.8093 16.7603 20.8331 16.568C20.9153 15.902 21 15.1187 21 14.4994C21 14.1357 20.9907 13.7725 20.9719 13.4106M15.512 17.5176C16.1994 17.3253 16.8637 17.078 17.5 16.7806M10.5 12.4987C10.5 11.3941 9.60457 10.4987 8.5 10.4987C7.39543 10.4987 6.5 11.3941 6.5 12.4987C6.5 13.6033 7.39543 14.4987 8.5 14.4987C9.60457 14.4987 10.5 13.6033 10.5 12.4987ZM17.5 12.4987C17.5 11.3941 16.6046 10.4987 15.5 10.4987C14.3954 10.4987 13.5 11.3941 13.5 12.4987C13.5 13.6033 14.3954 14.4987 15.5 14.4987C16.6046 14.4987 17.5 13.6033 17.5 12.4987Z" stroke="#292556" stroke-width="1.5" stroke-linecap="round" stroke-linejoin="round"/>
</svg>
