<svg width="24" height="24" viewBox="0 0 24 24" fill="none" xmlns="http://www.w3.org/2000/svg">
<path d="M19 7C17.8954 7 17 7.89543 17 9C17 10.1046 17.8954 11 19 11C19.9319 11 20.715 10.3626 20.937 9.5M7 9C7 10.1046 6.10457 11 5 11C3.89543 11 3 10.1046 3 9C3 7.89543 3.89543 7 5 7C6.10457 7 7 7.89543 7 9ZM14 5C14 6.10457 13.1046 7 12 7C10.8954 7 10 6.10457 10 5C10 3.89543 10.8954 3 12 3C13.1046 3 14 3.89543 14 5ZM11.2969 21H12.7031C16.2685 21 18.4088 17.0412 16.4561 14.058L14.7858 11.5061C14.1707 10.5663 13.1232 10 12 10V10C10.8768 10 9.82933 10.5663 9.21421 11.5061L7.54388 14.058C5.59124 17.0412 7.73148 21 11.2969 21Z" stroke="#292556" stroke-width="1.5" stroke-linecap="round" stroke-linejoin="round"/>
</svg>
