<svg width="24" height="24" viewBox="0 0 24 24" fill="none" xmlns="http://www.w3.org/2000/svg">
<path d="M21 10V9.9V9.9C21 7.18625 21 5.82937 20.3689 4.84345C20.0571 4.35647 19.6435 3.94286 19.1566 3.63113C18.1706 3 16.8138 3 14.1 3H10.2C7.20021 3 5.70032 3 4.64886 3.76393C4.30928 4.01065 4.01065 4.30928 3.76393 4.64886C3 5.70032 3 7.20021 3 10.2V13.8C3 16.7998 3 18.2997 3.76393 19.3511C4.01065 19.6907 4.30928 19.9893 4.64886 20.2361C5.70032 21 7.20021 21 10.2 21H14C16.8089 21 18.2134 21 19.2223 20.3259C19.659 20.034 20.034 19.659 20.3259 19.2223C21 18.2134 21 16.8089 21 14V14" stroke="#292556" stroke-width="1.5" stroke-linecap="round" stroke-linejoin="round"/>
<path d="M7.37988 11.75L8.2137 12.8618C8.48542 13.2241 8.62128 13.4052 8.80282 13.445C8.86091 13.4577 8.9208 13.4599 8.97968 13.4516C9.1637 13.4256 9.3128 13.2552 9.61102 12.9144L12.3799 9.75" stroke="#292556" stroke-width="1.5" stroke-linecap="round" stroke-linejoin="round"/>
<path d="M16.6299 10.5L13.861 13.6644C13.5628 14.0052 13.4137 14.1756 13.2297 14.2016C13.1708 14.2099 13.1109 14.2077 13.0528 14.195C12.8713 14.1552 12.7354 13.9741 12.4637 13.6118L12.3799 13.5" stroke="#292556" stroke-width="1.5" stroke-linecap="round" stroke-linejoin="round"/>
</svg>
