<svg width="24" height="24" viewBox="0 0 24 24" fill="none" xmlns="http://www.w3.org/2000/svg">
<path d="M15 14H11.9997M11.9997 14H9M11.9997 14L12 17M11.9997 14L12 11M18.3064 12C17.6361 9.06682 15.3661 6.01644 13.7418 4.1257C13.0984 3.37671 12.7767 3.00222 12.2493 2.90889C12.0995 2.88238 11.8874 2.8816 11.7374 2.907C11.2093 2.99645 10.8861 3.36719 10.2395 4.10866C8.31458 6.31635 5.5 10.1381 5.5 13.6111C5.5 18.8889 9.21429 21 12 21C14.3064 21 17.2494 19.4378 18.1938 16" stroke="#292556" stroke-width="1.5" stroke-linecap="round" stroke-linejoin="round"/>
</svg>
