<svg width="24" height="24" viewBox="0 0 24 24" fill="none" xmlns="http://www.w3.org/2000/svg">
<path d="M5.638 18.3718L6.87543 19.6092C7.36964 20.1034 7.61674 20.3505 7.8924 20.4647C8.25994 20.6169 8.67291 20.6169 9.04045 20.4647C9.31611 20.3505 9.56321 20.1034 10.0574 19.6092V19.6092C10.5516 19.115 10.7987 18.8679 10.9129 18.5923C11.0651 18.2247 11.0651 17.8117 10.9129 17.4442C10.7987 17.1685 10.5516 16.9214 10.0574 16.4272L8.81998 15.1898M5.638 18.3718L4.40056 17.1343C3.90635 16.6401 3.65925 16.393 3.54507 16.1174C3.39283 15.7498 3.39283 15.3369 3.54507 14.9693C3.65925 14.6937 3.90635 14.4466 4.40056 13.9524V13.9524C4.89477 13.4582 5.14187 13.2111 5.41753 13.0969C5.78507 12.9446 6.19803 12.9446 6.56558 13.0969C6.84123 13.2111 7.08834 13.4582 7.58254 13.9524L8.81998 15.1898M5.638 18.3718L4.57596 19.4338M8.81998 15.1898L10.5864 13.4234M15.1839 8.82584L16.4214 10.0633C16.9156 10.5575 17.1627 10.8046 17.4383 10.9188C17.8059 11.071 18.2188 11.071 18.5864 10.9188C18.862 10.8046 19.1092 10.5575 19.6034 10.0633V10.0633C20.0976 9.56907 20.3447 9.32197 20.4588 9.04631C20.6111 8.67877 20.6111 8.2658 20.4588 7.89826C20.3447 7.6226 20.0976 7.3755 19.6034 6.88129L18.3659 5.64386M15.1839 8.82584L13.9465 7.5884C13.4523 7.09419 13.2052 6.84709 13.091 6.57144C12.9388 6.20389 12.9388 5.79093 13.091 5.42338C13.2052 5.14773 13.4523 4.90063 13.9465 4.40642V4.40642C14.4407 3.91221 14.6878 3.66511 14.9635 3.55093C15.331 3.39869 15.744 3.39869 16.1115 3.55093C16.3872 3.66511 16.6343 3.91221 17.1285 4.40642L18.3659 5.64386M15.1839 8.82584L13.4148 10.595M18.3659 5.64386L19.4252 4.58458" stroke="#292556" stroke-width="1.5" stroke-linecap="round" stroke-linejoin="round"/>
</svg>
