<svg width="24" height="24" viewBox="0 0 24 24" fill="none" xmlns="http://www.w3.org/2000/svg">
<path d="M3 12C3 9.67029 3 8.50544 3.3806 7.58658C3.88807 6.36144 4.86144 5.38807 6.08658 4.8806C7.00544 4.5 8.17029 4.5 10.5 4.5H13.5C15.8297 4.5 16.9946 4.5 17.9134 4.8806C19.1386 5.38807 20.1119 6.36144 20.6194 7.58658C21 8.50544 21 9.67029 21 12V12C21 14.3297 21 15.4946 20.6194 16.4134C20.1119 17.6386 19.1386 18.6119 17.9134 19.1194C16.9946 19.5 15.8297 19.5 13.5 19.5H10.5C8.17029 19.5 7.00544 19.5 6.08658 19.1194C4.86144 18.6119 3.88807 17.6386 3.3806 16.4134C3 15.4946 3 14.3297 3 12V12Z" stroke="#292556" stroke-width="1.5" stroke-linejoin="round"/>
<path d="M17.7461 9.60162C17.4203 9.85738 17.3635 10.3289 17.6193 10.6547C17.875 10.9805 18.3465 11.0373 18.6723 10.7815L17.7461 9.60162ZM15.5025 13.2269C15.8295 12.9726 15.8884 12.5014 15.634 12.1745C15.3797 11.8475 14.9085 11.7886 14.5816 12.0429L15.5025 13.2269ZM8.96064 12.6351L8.5002 13.2271L8.96064 12.6351ZM2.54053 8.59202L8.5002 13.2271L9.42108 12.0431L3.46142 7.40798L2.54053 8.59202ZM18.6723 10.7815L21.4641 8.58994L20.5379 7.41006L17.7461 9.60162L18.6723 10.7815ZM8.5002 13.2271C10.5596 14.8288 13.4432 14.8287 15.5025 13.2269L14.5816 12.0429C13.0639 13.2234 10.9388 13.2234 9.42108 12.0431L8.5002 13.2271Z" fill="#292556"/>
</svg>
