<svg width="24" height="24" viewBox="0 0 24 24" fill="none" xmlns="http://www.w3.org/2000/svg">
<path d="M15.675 14.592C16.002 14.3377 16.0609 13.8665 15.8066 13.5395C15.5522 13.2126 15.081 13.1537 14.7541 13.408L15.675 14.592ZM17.5395 11.2414C17.2126 11.4957 17.1537 11.967 17.408 12.2939C17.6623 12.6209 18.1335 12.6798 18.4605 12.4254L17.5395 11.2414ZM11.3412 3.37794L11.44 4.1214L11.3412 3.37794ZM12.6596 3.37797L12.7585 2.63452L12.6596 3.37797ZM6.11123 6.58027L5.65079 5.98824L6.11123 6.58027ZM3.96433 8.49365L4.56968 8.93643L3.96433 8.49365ZM5.68916 20.434L6.03578 19.7689L5.68916 20.434ZM20.4339 18.3109L21.099 18.6576L20.4339 18.3109ZM18.3109 20.4339L17.9643 19.7688L18.3109 20.4339ZM9.00074 14.167L9.46118 13.575L9.00074 14.167ZM20.8077 10.0719L20.0865 10.2779L20.8077 10.0719ZM17.889 6.58022L17.4285 7.17222L17.889 6.58022ZM20.0358 8.49369L20.6412 8.05094L20.0358 8.49369ZM12.9413 20.25H11.0586V21.75H12.9413V20.25ZM2.53956 10.092L8.54029 14.759L9.46118 13.575L3.46044 8.90798L2.53956 10.092ZM6.57167 7.17229L6.9354 6.88941L6.01452 5.70536L5.65079 5.98824L6.57167 7.17229ZM17.0652 6.88964L17.4285 7.17222L18.3495 5.98822L17.9862 5.70563L17.0652 6.88964ZM18.4605 12.4254L21.4605 10.092L20.5395 8.908L17.5395 11.2414L18.4605 12.4254ZM15.4605 14.7589L15.675 14.592L14.7541 13.408L14.5395 13.5749L15.4605 14.7589ZM6.9354 6.88941C8.12152 5.96691 8.96998 5.30804 9.68774 4.85261C10.3936 4.40473 10.9176 4.19087 11.44 4.1214L11.2423 2.63449C10.4228 2.74346 9.68848 3.07566 8.88409 3.58606C8.09161 4.0889 7.17792 4.80053 6.01452 5.70536L6.9354 6.88941ZM17.9862 5.70563C16.8228 4.80075 15.9091 4.08908 15.1167 3.5862C14.3123 3.07577 13.578 2.74353 12.7585 2.63452L12.5607 4.12142C13.0832 4.19092 13.6071 4.4048 14.313 4.85271C15.0307 5.30818 15.8791 5.96709 17.0652 6.88964L17.9862 5.70563ZM11.44 4.1214C11.812 4.07194 12.1888 4.07195 12.5607 4.12142L12.7585 2.63452C12.2553 2.56758 11.7455 2.56757 11.2423 2.63449L11.44 4.1214ZM3.75 12.9414C3.75 11.434 3.75677 10.8266 3.91348 10.2781L2.47118 9.86605C2.24323 10.664 2.25 11.5207 2.25 12.9414H3.75ZM5.65079 5.98824C4.52931 6.86046 3.84889 7.38107 3.35898 8.05087L4.56968 8.93643C4.90648 8.47595 5.38177 8.09773 6.57167 7.17229L5.65079 5.98824ZM3.91348 10.2781C4.0513 9.79563 4.27346 9.3414 4.56968 8.93643L3.35898 8.05087C2.95822 8.59878 2.65764 9.21333 2.47118 9.86605L3.91348 10.2781ZM11.0586 20.25C9.61817 20.25 8.58387 20.2494 7.77256 20.1818C6.97027 20.115 6.45367 19.9867 6.03578 19.7689L5.34253 21.0991C6.01074 21.4473 6.75107 21.602 7.64808 21.6767C8.53607 21.7506 9.64342 21.75 11.0586 21.75V20.25ZM2.25 12.9414C2.25 14.3566 2.24939 15.4639 2.32334 16.3519C2.39804 17.2489 2.5527 17.9893 2.90095 18.6575L4.23113 17.9642C4.01334 17.5463 3.88498 17.0297 3.81817 16.2274C3.75061 15.4161 3.75 14.3818 3.75 12.9414H2.25ZM6.03578 19.7689C5.26356 19.3664 4.63359 18.7364 4.23113 17.9642L2.90095 18.6575C3.44545 19.7022 4.29775 20.5545 5.34253 21.0991L6.03578 19.7689ZM20.25 12.9413C20.25 14.3817 20.2494 15.4161 20.1818 16.2275C20.115 17.0298 19.9866 17.5464 19.7688 17.9643L21.099 18.6576C21.4473 17.9894 21.6019 17.249 21.6767 16.3519C21.7506 15.4639 21.75 14.3565 21.75 12.9413H20.25ZM12.9413 21.75C14.3565 21.75 15.4639 21.7506 16.3519 21.6767C17.249 21.6019 17.9894 21.4473 18.6576 21.099L17.9643 19.7688C17.5464 19.9866 17.0298 20.115 16.2275 20.1818C15.4161 20.2494 14.3817 20.25 12.9413 20.25V21.75ZM19.7688 17.9643C19.3664 18.7365 18.7365 19.3664 17.9643 19.7688L18.6576 21.099C19.7023 20.5545 20.5545 19.7023 21.099 18.6576L19.7688 17.9643ZM8.54029 14.759C10.5755 16.3419 13.4253 16.3418 15.4605 14.7589L14.5395 13.5749C13.0461 14.7365 10.9547 14.7366 9.46118 13.575L8.54029 14.759ZM21.75 12.9413C21.75 11.5205 21.7568 10.6638 21.5288 9.86591L20.0865 10.2779C20.2432 10.8265 20.25 11.4339 20.25 12.9413H21.75ZM17.4285 7.17222C18.6184 8.09771 19.0936 8.47595 19.4304 8.93644L20.6412 8.05094C20.1513 7.38112 19.4709 6.86048 18.3495 5.98822L17.4285 7.17222ZM21.5288 9.86591C21.3424 9.21328 21.0419 8.5988 20.6412 8.05094L19.4304 8.93644C19.7266 9.34138 19.9487 9.79556 20.0865 10.2779L21.5288 9.86591Z" fill="#292556"/>
</svg>
