<svg width="24" height="24" viewBox="0 0 24 24" fill="none" xmlns="http://www.w3.org/2000/svg">
<path d="M10.1021 5.41388L5.63619 9.87981C4.31831 11.1977 3.65937 11.8566 3.35489 12.5917C2.94891 13.5718 2.94891 14.6731 3.35489 15.6532C3.65937 16.3883 4.31831 17.0472 5.63619 18.3651L6.34252 19.0714C7.00037 19.7293 7.32929 20.0582 7.65727 20.2772C9.00214 21.1754 10.7555 21.1754 12.1004 20.2772C12.4284 20.0582 12.7573 19.7293 13.4151 19.0714V19.0714M10.1021 5.41388V5.41388C11.2107 4.30528 11.765 3.75098 12.3647 3.45782C13.4732 2.91591 14.7698 2.91591 15.8783 3.45782C16.4779 3.75098 17.0322 4.30528 18.1408 5.41387L18.5874 5.86047C19.696 6.96907 20.2503 7.52337 20.5435 8.12303C21.0854 9.23153 21.0854 10.5281 20.5435 11.6366C20.2503 12.2363 19.696 12.7906 18.5874 13.8992V13.8992M10.1021 5.41388L18.5874 13.8992M18.5874 13.8992L16.2436 16.243" stroke="#292556" stroke-width="1.5" stroke-linecap="round" stroke-linejoin="round"/>
</svg>
