<svg width="24" height="24" viewBox="0 0 24 24" fill="none" xmlns="http://www.w3.org/2000/svg">
<path fill-rule="evenodd" clip-rule="evenodd" d="M15.9642 5.26836C14.7639 4.65918 13.4276 4.25 12.0005 4.25C8.41935 4.25 5.38309 6.82308 3.54524 8.82213L3.48822 8.88412C2.72595 9.71267 2.17938 10.3068 2.00896 11.4445C1.96459 11.7407 1.96459 12.2593 2.00896 12.5555C2.17938 13.6932 2.72595 14.2873 3.48822 15.1159L3.54524 15.1779C3.9163 15.5815 4.33622 16.0085 4.79961 16.433L5.86144 15.3712C5.42488 14.9743 5.01914 14.5647 4.64948 14.1627C3.82749 13.2686 3.59015 12.9858 3.49241 12.3333C3.47011 12.1844 3.47011 11.8156 3.49241 11.6667C3.59015 11.0142 3.82749 10.7314 4.64948 9.83733C6.44751 7.8816 9.09893 5.75 12.0005 5.75C12.9784 5.75 13.9315 5.9918 14.8389 6.39367L15.9642 5.26836ZM18.1178 6.65038L17.0479 7.72026C18.1985 8.5899 19.1813 9.60984 19.923 10.4849C20.1909 10.8009 20.6641 10.84 20.9801 10.5721C21.2961 10.3043 21.3351 9.83104 21.0673 9.51506C20.3172 8.63015 19.3134 7.57907 18.1178 6.65038ZM12.8791 8.3535C12.5973 8.28584 12.3031 8.25 12.0005 8.25C9.92942 8.25 8.25049 9.92893 8.25049 12C8.25049 12.3026 8.28632 12.5968 8.35399 12.8786L9.8309 11.4017C10.0405 10.64 10.6405 10.04 11.4022 9.83041L12.8791 8.3535ZM13.9286 10.8396L15.0082 9.75994C15.4745 10.385 15.7505 11.1603 15.7505 12C15.7505 14.0711 14.0716 15.75 12.0005 15.75C11.1607 15.75 10.3855 15.474 9.76043 15.0077L10.8401 13.9281C11.1789 14.1324 11.576 14.25 12.0005 14.25C13.2431 14.25 14.2505 13.2426 14.2505 12C14.2505 11.5755 14.1329 11.1784 13.9286 10.8396ZM7.86025 16.9079L6.77555 17.9926C8.28935 18.9987 10.0654 19.75 12.0005 19.75C14.0132 19.75 15.8452 18.9362 17.37 17.8952C18.8974 16.8525 20.1657 15.5487 21.0673 14.4849C21.3351 14.169 21.2961 13.6957 20.9801 13.4279C20.6641 13.16 20.1909 13.1991 19.923 13.5151C19.0711 14.5202 17.9012 15.7163 16.5242 16.6564C15.1446 17.5982 13.6061 18.25 12.0005 18.25C10.53 18.25 9.12373 17.7025 7.86025 16.9079Z" fill="#292556"/>
<path d="M3 21L21 3" stroke="#292556" stroke-width="1.5" stroke-linecap="round" stroke-linejoin="round"/>
</svg>
