<svg width="24" height="24" viewBox="0 0 24 24" fill="none" xmlns="http://www.w3.org/2000/svg">
<path d="M16.5 6.5C15.2541 5.78913 13.467 5 12 5C8.75865 5 5.91482 7.35234 4.09687 9.32973C3.28988 10.2075 2.88639 10.6464 2.7502 11.5556C2.71686 11.7782 2.71686 12.2218 2.7502 12.4444C2.88639 13.3536 3.28988 13.7925 4.09687 14.6703C5.91481 16.6477 8.75865 19 12 19C15.2414 19 18.0852 16.6477 19.9031 14.6703C20.7102 13.7924 21.1137 13.3535 21.2499 12.4443C21.2832 12.2217 21.2832 11.778 21.2498 11.5554C21.1136 10.6461 20.7097 10.2069 19.902 9.32846C19.8022 9.21995 19.6993 9.11031 19.5935 9M15 12C15 13.6569 13.6569 15 12 15C10.3431 15 9 13.6569 9 12C9 10.3431 10.3431 9 12 9C13.6569 9 15 10.3431 15 12Z" stroke="#292556" stroke-width="1.5" stroke-linecap="round" stroke-linejoin="round"/>
</svg>
