<svg width="24" height="24" viewBox="0 0 24 24" fill="none" xmlns="http://www.w3.org/2000/svg">
<path d="M17 5V5.5V5.5C17 6.05228 16.5523 6.5 16 6.5H15.5C15.0341 6.5 14.8011 6.5 14.6173 6.57612C14.3723 6.67761 14.1776 6.87229 14.0761 7.11732C14 7.30109 14 7.53406 14 8V10H15.25C15.9522 10 16.3033 10 16.5556 10.1685C16.6648 10.2415 16.7585 10.3352 16.8315 10.4444C17 10.6967 17 11.0478 17 11.75V11.75C17 12.4522 17 12.8033 16.8315 13.0556C16.7585 13.1648 16.6648 13.2585 16.5556 13.3315C16.3033 13.5 15.9522 13.5 15.25 13.5H14V19.2C14 19.9499 14 20.3249 13.809 20.5878C13.7473 20.6727 13.6727 20.7473 13.5878 20.809C13.3249 21 12.9499 21 12.2 21H11.8C11.0501 21 10.6751 21 10.4122 20.809C10.3273 20.7473 10.2527 20.6727 10.191 20.5878C10 20.3249 10 19.9499 10 19.2V13.5H8.75C8.04777 13.5 7.69665 13.5 7.44443 13.3315C7.33524 13.2585 7.24149 13.1648 7.16853 13.0556C7 12.8033 7 12.4522 7 11.75V11.75C7 11.0478 7 10.6967 7.16853 10.4444C7.24149 10.3352 7.33524 10.2415 7.44443 10.1685C7.69665 10 8.04777 10 8.75 10H10V7C10 6.53563 10 6.30344 10.022 6.10812C10.2048 4.48545 11.4855 3.20484 13.1081 3.02201C13.3034 3 13.5356 3 14 3V3H14.5" stroke="#292556" stroke-width="1.5" stroke-linecap="round" stroke-linejoin="round"/>
</svg>
