<svg width="24" height="24" viewBox="0 0 24 24" fill="none" xmlns="http://www.w3.org/2000/svg">
<path d="M11 9C11 9.82843 10.3284 10.5 9.5 10.5C8.67157 10.5 8 9.82843 8 9C8 8.17157 8.67157 7.5 9.5 7.5C10.3284 7.5 11 8.17157 11 9Z" fill="#292556"/>
<path d="M16 9C16 9.82843 15.3284 10.5 14.5 10.5C13.6716 10.5 13 9.82843 13 9C13 8.17157 13.6716 7.5 14.5 7.5C15.3284 7.5 16 8.17157 16 9Z" fill="#292556"/>
<path d="M19.4845 7C20.4417 8.4301 21 10.1499 21 12C21 16.9706 16.9706 21 12 21C7.02944 21 3 16.9706 3 12C3 7.02944 7.02944 3 12 3C13.6393 3 15.1762 3.43827 16.5 4.20404M12 16.5C10.4414 16.5 9.04936 15.7869 8.13239 14.6691C7.83735 14.3095 7.68983 14.1296 7.74182 13.8928C7.75604 13.828 7.7965 13.7425 7.83756 13.6904C7.9877 13.5 8.2556 13.5 8.7914 13.5H15.2085C15.7443 13.5 16.0122 13.5 16.1624 13.6904C16.2034 13.7425 16.2439 13.828 16.2581 13.8928C16.3101 14.1296 16.1626 14.3095 15.8676 14.6691C14.9506 15.7869 13.5586 16.5 12 16.5Z" stroke="#292556" stroke-width="1.5" stroke-linecap="round" stroke-linejoin="round"/>
</svg>
