<svg width="24" height="24" viewBox="0 0 24 24" fill="none" xmlns="http://www.w3.org/2000/svg">
<path d="M11 9C11 9.82843 10.3284 10.5 9.5 10.5C8.67157 10.5 8 9.82843 8 9C8 8.17157 8.67157 7.5 9.5 7.5C10.3284 7.5 11 8.17157 11 9Z" fill="#292556"/>
<path d="M16 9C16 9.82843 15.3284 10.5 14.5 10.5C13.6716 10.5 13 9.82843 13 9C13 8.17157 13.6716 7.5 14.5 7.5C15.3284 7.5 16 8.17157 16 9Z" fill="#292556"/>
<path d="M20.1077 6.58281C19.8773 6.23859 19.4115 6.14633 19.0673 6.37674C18.723 6.60715 18.6308 7.07298 18.8612 7.41719L20.1077 6.58281ZM16.1245 4.85324C16.483 5.06065 16.9418 4.93813 17.1492 4.57958C17.3566 4.22104 17.2341 3.76224 16.8755 3.55484L16.1245 4.85324ZM20.25 12C20.25 16.5563 16.5563 20.25 12 20.25V21.75C17.3848 21.75 21.75 17.3848 21.75 12H20.25ZM12 20.25C7.44365 20.25 3.75 16.5563 3.75 12H2.25C2.25 17.3848 6.61522 21.75 12 21.75V20.25ZM3.75 12C3.75 7.44365 7.44365 3.75 12 3.75V2.25C6.61522 2.25 2.25 6.61522 2.25 12H3.75ZM18.8612 7.41719C19.7384 8.7277 20.25 10.303 20.25 12H21.75C21.75 9.99674 21.145 8.1325 20.1077 6.58281L18.8612 7.41719ZM12 3.75C13.5039 3.75 14.9118 4.15173 16.1245 4.85324L16.8755 3.55484C15.4407 2.72481 13.7747 2.25 12 2.25V3.75ZM14.25 15C14.25 16.2426 13.2426 17.25 12 17.25V18.75C14.0711 18.75 15.75 17.0711 15.75 15H14.25ZM12 17.25C10.7574 17.25 9.75 16.2426 9.75 15H8.25C8.25 17.0711 9.92893 18.75 12 18.75V17.25ZM9.75 15C9.75 13.7574 10.7574 12.75 12 12.75V11.25C9.92893 11.25 8.25 12.9289 8.25 15H9.75ZM12 12.75C13.2426 12.75 14.25 13.7574 14.25 15H15.75C15.75 12.9289 14.0711 11.25 12 11.25V12.75Z" fill="#292556"/>
</svg>
