<svg width="24" height="24" viewBox="0 0 24 24" fill="none" xmlns="http://www.w3.org/2000/svg">
<path d="M13 9.81882L15.9971 7.63885C17.9236 6.23766 18.8868 5.53706 19.6847 5.74166C19.9343 5.80566 20.1666 5.92399 20.3652 6.08818C21 6.61311 21 7.80416 21 10.1863V13.8145C21 16.1964 21 17.3873 20.3653 17.9122C20.1667 18.0764 19.9343 18.1947 19.6848 18.2588C18.8869 18.4634 17.9238 17.763 15.9974 16.3621L13 14.1825M13 9.81882V9.81882C12.0513 10.5089 11.5769 10.8539 11.386 11.2683C11.1718 11.7332 11.1718 12.2685 11.386 12.7333C11.577 13.1477 12.0514 13.4926 13 14.1825V14.1825M13 9.81882V9.81882C13 7.76246 13 6.73428 12.5152 6.22697C12.241 5.93994 11.8773 5.7547 11.4838 5.70165C10.7884 5.60789 9.95683 6.21251 8.2936 7.42175L8.23386 7.46518M13 14.1825V14.1825C13 16.2373 13 17.2647 12.516 17.7719C12.2413 18.0596 11.8769 18.2452 11.4826 18.2981C10.7878 18.3913 9.95684 17.787 8.29496 16.5785L5.50372 14.5488C4.09216 13.5223 3.38638 13.009 3.25669 12.3287C3.21541 12.1122 3.21542 11.8897 3.25673 11.6732C3.38648 10.9928 4.09231 10.4797 5.50397 9.45334L5.78881 9.24625" stroke="#292556" stroke-width="1.5" stroke-linecap="round" stroke-linejoin="round"/>
</svg>
