<svg width="24" height="24" viewBox="0 0 24 24" fill="none" xmlns="http://www.w3.org/2000/svg">
<path d="M7.5 6.01096C13.1639 5.76259 17.7279 9.75927 17.9883 15.5069C18.0034 15.839 18.0038 16.1703 17.99 16.5H18M7.5 10.1127C10.9827 10.2008 13.7189 12.7583 13.8822 16.363C13.8843 16.4087 13.8859 16.4544 13.8872 16.5M21 10V9.99V9.99C21 7.1906 21 5.7909 20.3302 4.78425C20.0363 4.34252 19.6575 3.96367 19.2157 3.66977C18.2091 3 16.8094 3 14.01 3H10.2C7.20021 3 5.70032 3 4.64886 3.76393C4.30928 4.01065 4.01065 4.30928 3.76393 4.64886C3 5.70032 3 7.20021 3 10.2V13.8C3 16.7998 3 18.2997 3.76393 19.3511C4.01065 19.6907 4.30928 19.9893 4.64886 20.2361C5.70032 21 7.20021 21 10.2 21H14C16.8089 21 18.2134 21 19.2223 20.3259C19.659 20.034 20.034 19.659 20.3259 19.2223C21 18.2134 21 16.8089 21 14V14M8.38668 17.7097C7.71856 18.1994 6.77995 18.0548 6.29025 17.3867C5.80055 16.7186 5.94519 15.78 6.61332 15.2903C7.28145 14.8006 8.22005 14.9452 8.70975 15.6133C9.19945 16.2814 9.05481 17.22 8.38668 17.7097Z" stroke="#292556" stroke-width="1.5" stroke-linecap="round" stroke-linejoin="round"/>
</svg>
