<svg width="24" height="24" viewBox="0 0 24 24" fill="none" xmlns="http://www.w3.org/2000/svg">
<path d="M13 3V3.6C13 5.84984 13 6.97476 13.573 7.76336C13.758 8.01804 13.982 8.24201 14.2366 8.42705C15.0252 9 16.1502 9 18.4 9L19 9M13 3L10.4 3C8.15016 3 7.02524 3 6.23664 3.57295C5.98196 3.75799 5.75799 3.98196 5.57295 4.23664C5 5.02524 5 6.15016 5 8.4L5 15.6C5 17.8498 5 18.9748 5.57295 19.7634C5.75799 20.018 5.98196 20.242 6.23664 20.4271C7.02524 21 8.15016 21 10.4 21H14C15.8692 21 16.8038 21 17.5 20.5981C17.9561 20.3348 18.3348 19.9561 18.5981 19.5C19 18.8038 19 17.8692 19 16V16M13 3V3C13.6403 3 14.2544 3.25435 14.7071 3.70711L18.2929 7.2929C18.7456 7.74565 19 8.35971 19 9V9M19 9V12M15.2117 13.4357C14.8338 15.6527 11.9982 17.5 11.9982 17.5C11.9982 17.5 9.14167 15.6527 8.7846 13.4358C8.42754 11.2189 10.927 10.4799 11.9982 12.1983C13.0694 10.4798 15.5897 11.2186 15.2117 13.4357Z" stroke="#292556" stroke-width="1.5" stroke-linecap="round" stroke-linejoin="round"/>
</svg>
