<svg width="24" height="24" viewBox="0 0 24 24" fill="none" xmlns="http://www.w3.org/2000/svg">
<path d="M13 3V3.6C13 5.84984 13 6.97476 13.573 7.76336C13.758 8.01804 13.982 8.24201 14.2366 8.42705C15.0252 9 16.1502 9 18.4 9L19 9M19 12L19 10.2368C19 9.25724 19 8.76749 18.8532 8.31559C18.8046 8.16612 18.7444 8.0207 18.673 7.88067C18.4573 7.45731 18.111 7.111 17.4184 6.41838L15.5816 4.58162C14.889 3.88901 14.5427 3.5427 14.1193 3.32698C13.9793 3.25563 13.8339 3.1954 13.6844 3.14683C13.2325 3 12.7428 3 11.7632 3L10.4 3C8.15016 3 7.02524 3 6.23664 3.57295C5.98196 3.75799 5.75799 3.98196 5.57295 4.23664C5 5.02524 5 6.15016 5 8.4L5 15.6C5 17.8498 5 18.9748 5.57295 19.7634C5.75799 20.018 5.98196 20.242 6.23664 20.4271C7.02524 21 8.15016 21 10.4 21H14C15.8692 21 16.8038 21 17.5 20.5981C17.9561 20.3348 18.3348 19.9561 18.5981 19.5C19 18.8038 19 17.8692 19 16V16" stroke="#292556" stroke-width="1.5" stroke-linecap="round" stroke-linejoin="round"/>
<path d="M13.9697 15.9697C13.6768 16.2626 13.6768 16.7374 13.9697 17.0303C14.2626 17.3232 14.7374 17.3232 15.0303 17.0303L13.9697 15.9697ZM16.5 14.5L17.0303 15.0303C17.171 14.8897 17.25 14.6989 17.25 14.5C17.25 14.3011 17.171 14.1103 17.0303 13.9697L16.5 14.5ZM15.0303 11.9697C14.7374 11.6768 14.2626 11.6768 13.9697 11.9697C13.6768 12.2626 13.6768 12.7374 13.9697 13.0303L15.0303 11.9697ZM10.0303 13.0303C10.3232 12.7374 10.3232 12.2626 10.0303 11.9697C9.73744 11.6768 9.26256 11.6768 8.96967 11.9697L10.0303 13.0303ZM7.5 14.5L6.96967 13.9697C6.82902 14.1103 6.75 14.3011 6.75 14.5C6.75 14.6989 6.82902 14.8897 6.96967 15.0303L7.5 14.5ZM8.96967 17.0303C9.26256 17.3232 9.73744 17.3232 10.0303 17.0303C10.3232 16.7374 10.3232 16.2626 10.0303 15.9697L8.96967 17.0303ZM10.7575 17.8939C10.699 18.304 10.9839 18.6839 11.3939 18.7425C11.804 18.801 12.1839 18.5161 12.2425 18.1061L10.7575 17.8939ZM13.2425 11.1061C13.301 10.696 13.0161 10.3161 12.6061 10.2575C12.196 10.199 11.8161 10.4839 11.7575 10.8939L13.2425 11.1061ZM15.0303 17.0303L17.0303 15.0303L15.9697 13.9697L13.9697 15.9697L15.0303 17.0303ZM17.0303 13.9697L15.0303 11.9697L13.9697 13.0303L15.9697 15.0303L17.0303 13.9697ZM8.96967 11.9697L6.96967 13.9697L8.03033 15.0303L10.0303 13.0303L8.96967 11.9697ZM6.96967 15.0303L8.96967 17.0303L10.0303 15.9697L8.03033 13.9697L6.96967 15.0303ZM12.2425 18.1061L13.2425 11.1061L11.7575 10.8939L10.7575 17.8939L12.2425 18.1061Z" fill="#292556"/>
</svg>
