<svg width="24" height="24" viewBox="0 0 24 24" fill="none" xmlns="http://www.w3.org/2000/svg">
<path d="M14 14H10M14 14V17.2297C14 19.1962 14 20.1794 13.6271 20.5466C13.347 20.8225 12.9533 20.9505 12.5645 20.8922C12.0469 20.8145 11.4686 20.0193 10.312 18.429V18.429C10.1925 18.2646 10.1327 18.1825 10.0912 18.092C10.0589 18.0217 10.0349 17.9478 10.0196 17.872C10 17.7744 10 17.6728 10 17.4696V14M14 14L15.5 11.6429M10 14L6.52084 8.53276C5.15149 6.38092 4.46682 5.305 4.72588 4.43139C4.80722 4.1571 4.94645 3.90346 5.13419 3.68758C5.73214 3 7.00743 3 9.55802 3H14.8396C17.0309 3 18.1265 3 18.6984 3.51923C19.0289 3.81928 19.2494 4.22093 19.3251 4.66085C19.4561 5.42211 18.8676 6.34677 17.6907 8.1961V8.1961C17.6756 8.21981 17.6458 8.26665 17.6458 8.26665" stroke="#292556" stroke-width="1.5" stroke-linecap="round" stroke-linejoin="round"/>
</svg>
