<svg width="24" height="24" viewBox="0 0 24 24" fill="none" xmlns="http://www.w3.org/2000/svg">
<path fill-rule="evenodd" clip-rule="evenodd" d="M20.0752 4.69301L17.2093 7.5589C17.0956 7.73876 16.9747 7.92882 16.8466 8.1301L13.5885 13.25L11.5182 13.25L9.25016 15.5181L9.25016 17.4696L9.25012 17.5093C9.24989 17.6721 9.24963 17.8464 9.28451 18.0198C9.31121 18.1526 9.35323 18.2818 9.40973 18.4049C9.48353 18.5657 9.58626 18.7065 9.68217 18.838L9.68218 18.838L9.7056 18.8701L9.72858 18.9017L9.72859 18.9017C10.2874 19.6701 10.7366 20.2878 11.1119 20.7197C11.3038 20.9406 11.4993 21.1402 11.703 21.2952C11.9072 21.4505 12.1567 21.5894 12.4533 21.6339C13.0755 21.7272 13.7053 21.5224 14.1535 21.081C14.3672 20.8705 14.4873 20.6115 14.5611 20.3658C14.6348 20.1206 14.6755 19.8442 14.7007 19.5527C14.7502 18.9826 14.7502 18.2189 14.7502 17.2688V17.2297L14.7502 14.2184L18.1121 8.93541L18.1399 8.8916C18.801 7.8529 19.3343 7.01478 19.6639 6.32671C19.9221 5.78749 20.1053 5.24276 20.0752 4.69301ZM8.38066 12.852L5.88826 8.93542L5.86038 8.89159C5.19936 7.85289 4.666 7.01477 4.33645 6.32671C4.00403 5.63265 3.79607 4.92945 4.00699 4.21816C4.11883 3.84102 4.31028 3.49226 4.56842 3.19542C5.05527 2.6356 5.76018 2.43353 6.5242 2.34135C7.28162 2.24997 8.27505 2.24998 9.50625 2.25L9.55819 2.25L10.0007 2.25C10.4149 2.25 10.7507 2.58579 10.7507 3C10.7507 3.41422 10.4149 3.75 10.0007 3.75L9.55819 3.75C8.26282 3.75 7.36061 3.75132 6.70386 3.83055C6.0431 3.91027 5.8114 4.05198 5.70029 4.17974C5.58295 4.31466 5.49593 4.47319 5.44509 4.64462C5.39696 4.80695 5.4018 5.07851 5.68929 5.67877C5.97504 6.27538 6.45831 7.03725 7.15376 8.1301L9.4672 11.7655L8.38066 12.852ZM17.3901 3.84264C17.3599 3.83847 17.3287 3.83444 17.2965 3.83055C16.6397 3.75132 15.7375 3.75 14.4421 3.75L14.0007 3.75C13.5864 3.75 13.2507 3.41422 13.2507 3C13.2507 2.58579 13.5864 2.25 14.0007 2.25L14.4421 2.25L14.4941 2.25C15.7253 2.24999 16.7187 2.24997 17.4761 2.34135C17.8805 2.39013 18.2683 2.4697 18.6159 2.61678L17.3901 3.84264ZM10.7502 14.75L13.2502 14.75L13.2502 17.2297C13.2502 18.2279 13.2495 18.9259 13.2064 19.4231C13.185 19.6691 13.1558 19.8302 13.1246 19.9342C13.1092 19.9854 13.0965 20.0117 13.0911 20.0218C12.9831 20.1224 12.8361 20.1702 12.6896 20.1523C12.6792 20.1474 12.6536 20.1336 12.611 20.1012C12.5246 20.0355 12.4062 19.9224 12.2442 19.736C11.9169 19.3592 11.5058 18.7951 10.9187 17.9879C10.8557 17.9012 10.8209 17.8531 10.7958 17.8156C10.774 17.7831 10.7715 17.776 10.773 17.7791C10.7649 17.7615 10.7589 17.7431 10.7551 17.7241C10.7546 17.7213 10.7532 17.7097 10.752 17.6812C10.7503 17.6361 10.7502 17.5767 10.7502 17.4696L10.7502 14.75Z" fill="#292556"/>
<path d="M3 21L21 3" stroke="#292556" stroke-width="1.5" stroke-linecap="round" stroke-linejoin="round"/>
</svg>
