<svg width="24" height="24" viewBox="0 0 24 24" fill="none" xmlns="http://www.w3.org/2000/svg">
<path d="M12.4176 12.5503C11.9246 13.0433 11.6395 13.9537 11.4834 15M11.4997 21.0035C11.4997 21.0035 11.4007 20.1629 11.3481 19M14.4175 18.5513C14.4175 18.5513 13.1829 16.6285 14.4174 14.5465C15.5693 12.6035 14.9823 10.9654 14 10.2223M8.41758 18.5467C8.41758 18.5467 8.14282 13.7076 9.4178 11.5572C9.87857 10.7801 10.432 10.2856 11.0032 10.002M8.41789 7.59168C10.6815 5.90768 13.6685 6.41812 15.4191 7.45602C17.6753 8.79371 19.3377 12.1089 17.2981 16.0035M6.7495 10.002C5.71956 12.2428 5.49951 14.4685 5.50001 16.0077M17.1337 4.83868C13.6605 2.77945 6.68814 2.87238 4.34379 7.93699C3.43318 9.90421 3.08864 12.0782 3.00781 14.0016M21.0474 14.0016C21.4375 11.3037 20.7751 8.8318 19.4694 7.00673" stroke="#292556" stroke-width="1.5" stroke-linecap="round" stroke-linejoin="round"/>
</svg>
