<svg width="24" height="24" viewBox="0 0 24 24" fill="none" xmlns="http://www.w3.org/2000/svg">
<path d="M11.25 12.75C11.25 13.3023 10.8023 13.75 10.25 13.75C9.69772 13.75 9.25 13.3023 9.25 12.75C9.25 12.1977 9.69772 11.75 10.25 11.75C10.8023 11.75 11.25 12.1977 11.25 12.75Z" fill="#292556"/>
<path d="M14.75 17.25C14.75 17.8023 14.3023 18.25 13.75 18.25C13.1977 18.25 12.75 17.8023 12.75 17.25C12.75 16.6977 13.1977 16.25 13.75 16.25C14.3023 16.25 14.75 16.6977 14.75 17.25Z" fill="#292556"/>
<path d="M14.4999 12.4999L9.49988 17.5001M19.3073 12C18.8203 9.52208 17.5404 7.86658 17.0017 7.25898C16.9147 7.16083 16.8712 7.11175 16.7854 7.09661C16.7634 7.09273 16.724 7.09245 16.7019 7.09603C16.6159 7.10998 16.576 7.15373 16.4963 7.24122C16.1879 7.57954 15.6672 8.32135 15.2754 9.75619C14.5501 6.71833 13.1511 4.83341 12.2088 3.85022C11.921 3.5499 11.7771 3.39974 11.4288 3.35384C11.3468 3.34303 11.1738 3.34959 11.0928 3.36657C10.7491 3.43868 10.618 3.59795 10.356 3.91648C9.39538 5.08412 7.94257 7.43367 7.46824 11.3386C7.13696 10.5988 6.76771 9.9581 6.50537 9.53534C6.37827 9.33053 6.31472 9.22812 6.20674 9.20768C6.17527 9.20172 6.13517 9.20252 6.10396 9.20973C5.99688 9.23448 5.93832 9.33786 5.8212 9.54462C5.34143 10.3916 4.51286 12.1233 4.5 14C4.5 19 8.7857 21 12 21C14.7319 21 18.2378 19.4404 19.2285 16" stroke="#292556" stroke-width="1.5" stroke-linecap="round" stroke-linejoin="round"/>
</svg>
