<svg width="24" height="24" viewBox="0 0 24 24" fill="none" xmlns="http://www.w3.org/2000/svg">
<path d="M12 21C8.7857 21 4.5 19 4.5 14C4.51286 12.1233 5.34143 10.3916 5.8212 9.54462C5.93832 9.33786 5.99688 9.23448 6.10396 9.20973C6.13517 9.20252 6.17527 9.20172 6.20674 9.20768C6.31472 9.22812 6.37827 9.33053 6.50537 9.53534C6.76771 9.9581 7.13696 10.5988 7.46824 11.3386C7.94257 7.43367 9.39538 5.08412 10.356 3.91648C10.618 3.59795 10.7491 3.43868 11.0928 3.36657C11.1738 3.34959 11.3468 3.34303 11.4288 3.35384C11.7771 3.39974 11.921 3.5499 12.2088 3.85022C13.1511 4.83341 14.5501 6.71833 15.2754 9.75619C15.6672 8.32135 16.1879 7.57954 16.4963 7.24122C16.576 7.15373 16.6159 7.10998 16.7019 7.09603C16.724 7.09245 16.7634 7.09273 16.7854 7.09661C16.8712 7.11175 16.9147 7.16083 17.0017 7.25898C17.5404 7.86658 18.8203 9.52208 19.3073 12M12 21C13.2857 21 15 19.9205 15 17.5C15 16.113 14.0149 14.5096 13.1737 13.3933C12.7634 12.8488 12.5583 12.5766 12.1783 12.5047C12.0743 12.485 11.9154 12.4846 11.8113 12.5038C11.4309 12.5738 11.2255 12.8437 10.8147 13.3835C9.97603 14.4853 8.99995 16.074 8.99995 17.5C8.99995 20 10.7143 21 12 21ZM12 21C14.7319 21 18.2378 19.4404 19.2285 16" stroke="#292556" stroke-width="1.5" stroke-linecap="round" stroke-linejoin="round"/>
</svg>
