<svg width="24" height="24" viewBox="0 0 24 24" fill="none" xmlns="http://www.w3.org/2000/svg">
<path d="M12 21C14.7857 21 18.5 18.7211 18.5 13.6111C18.5 12.2509 18.0394 10.7921 17.3635 9.38361M12 21C9.21429 21 5.5 18.8889 5.5 13.6111C5.5 10.4842 7.78165 6.98671 9.64132 4.65541C10.4744 3.61109 10.8909 3.08893 11.6321 2.95612C11.837 2.91941 12.1437 2.92025 12.3484 2.95808C13.0888 3.09495 13.5044 3.62185 14.3356 4.67564C14.6584 5.08489 14.9943 5.52922 15.3291 6M12 21C13.2857 21 15 19.9205 15 17.5C15 16.113 14.0149 14.5096 13.1737 13.3933C12.7635 12.8488 12.5583 12.5766 12.1783 12.5047C12.0743 12.485 11.9154 12.4846 11.8114 12.5038C11.431 12.5738 11.2256 12.8437 10.8147 13.3835C9.97608 14.4853 9 16.074 9 17.5C9 20 10.7143 21 12 21Z" stroke="#292556" stroke-width="1.5" stroke-linecap="round" stroke-linejoin="round"/>
</svg>
