<svg width="24" height="24" viewBox="0 0 24 24" fill="none" xmlns="http://www.w3.org/2000/svg">
<path d="M18.7083 6C20.1334 7.59227 21 9.69494 21 12C21 16.9706 16.9706 21 12 21C7.02944 21 3 16.9706 3 12C3 7.02944 7.02944 3 12 3C13.0519 3 14.0617 3.18046 15 3.51212M10.75 12C10.75 13.1046 9.85457 14 8.75 14C7.64543 14 6.75 13.1046 6.75 12C6.75 10.8954 7.64543 10 8.75 10C9.85457 10 10.75 10.8954 10.75 12ZM17.25 12C17.25 13.1046 16.3546 14 15.25 14C14.1454 14 13.25 13.1046 13.25 12C13.25 10.8954 14.1454 10 15.25 10C16.3546 10 17.25 10.8954 17.25 12Z" stroke="#292556" stroke-width="1.5" stroke-linecap="round" stroke-linejoin="round"/>
</svg>
