<svg width="24" height="24" viewBox="0 0 24 24" fill="none" xmlns="http://www.w3.org/2000/svg">
<path d="M3 12V8.4C3 6.15016 3 5.02524 3.57295 4.23664C3.75799 3.98196 3.98196 3.75799 4.23664 3.57295C5.02524 3 6.15016 3 8.4 3H9.39922C9.94112 3 10.2121 3 10.4724 3.04625C10.7912 3.10289 11.0988 3.21077 11.3831 3.3657C11.6153 3.49221 11.8268 3.66148 12.25 4V4C12.6732 4.33852 12.8847 4.50779 13.1169 4.6343C13.4012 4.78923 13.7088 4.89711 14.0276 4.95375C14.2879 5 14.5589 5 15.1008 5H15.6C17.8498 5 18.9748 5 19.7634 5.57295C20.018 5.75799 20.242 5.98196 20.4271 6.23664C21 7.02524 21 8.15016 21 10.4V12M21 17V17C21 17.93 21 18.395 20.8978 18.7765C20.6204 19.8117 19.8117 20.6204 18.7765 20.8978C18.395 21 17.93 21 17 21H8.4C6.15016 21 5.02524 21 4.23664 20.4271C3.98196 20.242 3.75799 20.018 3.57295 19.7634C3 18.9748 3 17.8498 3 15.6V12.4C3 10.1502 3 9.02524 3.57295 8.23664C3.75799 7.98196 3.98196 7.75799 4.23664 7.57295C5.02524 7 6.15016 7 8.4 7H9.39922C9.94112 7 10.2121 7 10.4724 7.04625C10.7912 7.10289 11.0988 7.21077 11.3831 7.3657C11.6153 7.49221 11.8268 7.66148 12.25 8V8C12.6732 8.33852 12.8847 8.50779 13.1169 8.6343C13.4012 8.78923 13.7088 8.89711 14.0276 8.95375C14.2879 9 14.5589 9 15.1008 9H17.5C17.9644 9 18.1966 9 18.3916 9.02567C19.7378 9.2029 20.7971 10.2622 20.9743 11.6084C21 11.8034 21 12.0356 21 12.5V12.5V13" stroke="#292556" stroke-width="1.5" stroke-linecap="round" stroke-linejoin="round"/>
</svg>
