<svg width="24" height="24" viewBox="0 0 24 24" fill="none" xmlns="http://www.w3.org/2000/svg">
<path d="M21 11V10.5V10.5C21 10.0356 21 9.80337 20.9743 9.60842C20.7971 8.26222 19.7378 7.2029 18.3916 7.02567C18.1966 7 17.9644 7 17.5 7H15.1008C14.5589 7 14.2879 7 14.0276 6.95375C13.7088 6.89711 13.4012 6.78923 13.1169 6.6343C12.8847 6.50779 12.6732 6.33852 12.25 6V6C11.8268 5.66148 11.6153 5.49221 11.3831 5.3657C11.0988 5.21077 10.7912 5.10289 10.4724 5.04625C10.2121 5 9.94112 5 9.39922 5H8.4C6.15016 5 5.02524 5 4.23664 5.57295C3.98196 5.75799 3.75799 5.98196 3.57295 6.23664C3 7.02524 3 8.15016 3 10.4V13.6C3 15.8498 3 16.9748 3.57295 17.7634C3.75799 18.018 3.98196 18.242 4.23664 18.4271C5.02524 19 6.15016 19 8.4 19H17C17.93 19 18.395 19 18.7765 18.8978C19.8117 18.6204 20.6204 17.8117 20.8978 16.7765C21 16.395 21 15.93 21 15V15" stroke="#292556" stroke-width="1.5" stroke-linecap="round" stroke-linejoin="round"/>
</svg>
