<svg width="24" height="24" viewBox="0 0 24 24" fill="none" xmlns="http://www.w3.org/2000/svg">
<path d="M8.33003 18.8728L4.94684 20.2231C4.21441 20.5155 3.84819 20.6616 3.63409 20.5297C3.56766 20.4887 3.51174 20.4328 3.4708 20.3664C3.33883 20.1523 3.48499 19.7861 3.77733 19.0536L5.12767 15.6704M8.33003 18.8728L8.00415 16.7489C7.96138 16.4701 7.93999 16.3307 7.86075 16.2284C7.83487 16.195 7.80486 16.165 7.77143 16.1391C7.66907 16.0599 7.52968 16.0385 7.25088 15.9958L5.12767 15.6704M8.33003 18.8728L13.7481 13.4547M5.12767 15.6704L16.2026 4.59552M16.2026 4.59552L17.1969 3.60118C18.0812 2.71687 19.515 2.71687 20.3993 3.60118V3.60118C21.2836 4.48548 21.2836 5.91922 20.3993 6.80353L19.4049 7.79787M16.2026 4.59552L19.4049 7.79787M19.4049 7.79787L16.5765 10.6263M3 6.49987C5 5.99987 6 4.99987 6.5 2.99987C7 4.99987 8 5.99987 10 6.49987C8 6.99987 7 7.99987 6.5 9.99987C6 7.99987 5 6.99987 3 6.49987ZM15 16.7499C16 16.4999 16.5 15.9999 16.75 14.9999C17 15.9999 17.5 16.4999 18.5 16.7499C17.5 16.9999 17 17.4999 16.75 18.4999C16.5 17.4999 16 16.9999 15 16.7499Z" stroke="#292556" stroke-width="1.5" stroke-linecap="round" stroke-linejoin="round"/>
</svg>
