<svg width="24" height="24" viewBox="0 0 24 24" fill="none" xmlns="http://www.w3.org/2000/svg">
<path d="M12 21H14C14.9293 21 15.394 21 15.7804 20.9231C17.3671 20.6075 18.6075 19.3671 18.9231 17.7804C19 17.394 19 16.9293 19 16V16M12 21V21C9.19108 21 7.78661 21 6.77772 20.3259C6.34096 20.034 5.96596 19.659 5.67412 19.2223C5 18.2134 5 16.8089 5 14V10H12M12 21V10M12 10H19V12M9 3L11.25 6M15 3L12.75 6M11.25 6H5C3.89543 6 3 6.89543 3 8V8C3 9.10457 3.89543 10 5 10H19C20.1046 10 21 9.10457 21 8V8C21 6.89543 20.1046 6 19 6H12.75M11.25 6H12.75" stroke="#292556" stroke-width="1.5" stroke-linecap="round" stroke-linejoin="round"/>
</svg>
