<svg width="24" height="24" viewBox="0 0 24 24" fill="none" xmlns="http://www.w3.org/2000/svg">
<path d="M3 11V13.6C3 15.8498 3 16.9748 3.57295 17.7634C3.75799 18.018 3.98196 18.242 4.23664 18.4271C5.02524 19 6.15016 19 8.4 19H9M3 11V10.4C3 8.15016 3 7.02524 3.57295 6.23664C3.75799 5.98196 3.98196 5.75799 4.23664 5.57295C5.02524 5 6.15016 5 8.4 5H9M3 11H9M9 19H17C17.93 19 18.395 19 18.7765 18.8978C19.8117 18.6204 20.6204 17.8117 20.8978 16.7765C21 16.395 21 15.93 21 15V15M9 19V11M9 5H15.6C17.8498 5 18.9748 5 19.7634 5.57295C20.018 5.75799 20.242 5.98196 20.4271 6.23664C21 7.02524 21 8.15016 21 10.4V11H9M9 5V11M9 11L6.5 13.5M9 11L11.5 13.5M9 9.5C9 10.3284 8.32843 11 7.5 11C6.67157 11 6 10.3284 6 9.5C6 8.67157 6.67157 8 7.5 8C8.32843 8 9 8.67157 9 9.5ZM9 9.5C9 10.3284 9.67157 11 10.5 11C11.3284 11 12 10.3284 12 9.5C12 8.67157 11.3284 8 10.5 8C9.67157 8 9 8.67157 9 9.5Z" stroke="#292556" stroke-width="1.5" stroke-linecap="round" stroke-linejoin="round"/>
</svg>
