<svg width="24" height="24" viewBox="0 0 24 24" fill="none" xmlns="http://www.w3.org/2000/svg">
<path d="M19.4745 18.9745C20.1076 18.3412 20.4992 17.4663 20.4992 16.5C20.4992 14.567 18.9323 13 16.9996 13C15.0668 13 13.5 14.567 13.5 16.5C13.5 18.433 15.0668 20 16.9996 20C17.9661 20 18.8412 19.6081 19.4745 18.9745ZM19.4745 18.9745L21 20.5" stroke="#292556" stroke-width="1.5" stroke-linecap="round"/>
<path fill-rule="evenodd" clip-rule="evenodd" d="M7.25312 11.7485C6.08487 10.9253 5.13978 9.80632 4.52687 8.49999C5.55311 6.31274 7.51059 4.65069 9.88757 4.02293C9.29548 4.8026 8.79869 5.70799 8.40434 6.64413C7.70885 8.2951 7.29277 10.1337 7.25312 11.7485ZM9.78669 7.22645C10.3656 5.85229 11.1348 4.68098 12 3.94098C12.8652 4.68098 13.6344 5.85229 14.2133 7.22645C14.7365 8.46837 15.078 9.81461 15.2 11.0369C15.6692 10.8824 16.1651 10.7866 16.6789 10.7583C16.53 9.4074 16.1524 7.96564 15.5957 6.64413C15.2013 5.7079 14.7044 4.80242 14.1123 4.0227C14.9286 4.23821 15.695 4.57569 16.3913 5.01443C16.7418 5.23524 17.2049 5.13015 17.4257 4.7797C17.6465 4.42925 17.5414 3.96615 17.191 3.74534C15.6874 2.79798 13.9065 2.25 12 2.25C7.95891 2.25 4.49373 4.70832 3.01505 8.20809C2.52215 9.37468 2.25 10.6565 2.25 12C2.25 17.3848 6.61522 21.75 12 21.75C12.7466 21.75 13.4736 21.6661 14.172 21.5072C13.4231 21.0833 12.7787 20.4963 12.287 19.7944C12.1927 19.8878 12.0969 19.9761 12 20.059C11.1348 19.319 10.3656 18.1477 9.78669 16.7735C9.44659 15.9662 9.18326 15.1148 9.0071 14.282C9.80613 14.5395 10.6502 14.6966 11.5246 14.7386C11.6969 14.2025 11.9458 13.7007 12.2583 13.246C12.1725 13.2487 12.0864 13.25 12 13.25C10.8537 13.25 9.76187 13.0162 8.76962 12.5936C8.7566 12.3911 8.75 12.1929 8.75 12C8.75 10.553 9.12155 8.80539 9.78669 7.22645ZM21.6817 13.1604C21.7268 12.7799 21.75 12.3927 21.75 12C21.75 10.6565 21.4778 9.3747 20.985 8.20812C20.7788 7.72009 20.534 7.25246 20.2547 6.80905C20.0339 6.45859 19.5708 6.3535 19.2203 6.57431C18.8699 6.79512 18.7648 7.25822 18.9856 7.60867C19.1657 7.89451 19.3287 8.1921 19.4731 8.50002C19.0682 9.36308 18.5183 10.1444 17.8548 10.8126C18.4158 10.8962 18.9504 11.0609 19.4462 11.2943C19.6798 11.0182 19.8983 10.7289 20.1005 10.4278C20.1835 10.8583 20.2331 11.3009 20.2464 11.753C20.8032 12.1345 21.2895 12.6115 21.6817 13.1604ZM8.40434 17.3559C8.79869 18.292 9.29548 19.1974 9.88757 19.9771C6.35465 19.044 3.75 15.8262 3.75 12C3.75 11.462 3.8014 10.9364 3.89949 10.4278C4.77912 11.738 5.96837 12.8233 7.36267 13.5786C7.53366 14.8303 7.89368 16.1437 8.40434 17.3559Z" fill="#292556"/>
</svg>
