<svg width="24" height="24" viewBox="0 0 24 24" fill="none" xmlns="http://www.w3.org/2000/svg">
<path d="M17.7196 20.7864L18.1861 20.1992L17.7196 20.7864ZM18.2805 20.7864L18.747 21.3736L18.2805 20.7864ZM15.7944 17.0147C15.5108 15.4525 16.6343 14.25 18 14.25V12.75C15.7079 12.75 13.8661 14.7907 14.3185 17.2826L15.7944 17.0147ZM18 14.25C19.3656 14.25 20.4892 15.4525 20.2056 17.0147L21.6815 17.2826C22.1338 14.7907 20.2922 12.75 18 12.75V14.25ZM18.1861 20.1992C17.8679 19.9464 17.3163 19.4744 16.8152 18.885C16.3034 18.2831 15.9061 17.63 15.7944 17.0147L14.3185 17.2826C14.4998 18.2812 15.0952 19.1778 15.6724 19.8566C16.2601 20.548 16.8935 21.088 17.253 21.3736L18.1861 20.1992ZM20.2056 17.0147C20.094 17.63 19.6967 18.2831 19.1849 18.885C18.6838 19.4744 18.1321 19.9464 17.8139 20.1992L18.747 21.3736C19.1065 21.088 19.7399 20.548 20.3277 19.8566C20.9049 19.1778 21.5003 18.2812 21.6815 17.2826L20.2056 17.0147ZM17.253 21.3736C17.6923 21.7227 18.3077 21.7227 18.747 21.3736L17.8139 20.1992C17.921 20.1141 18.0791 20.1141 18.1861 20.1992L17.253 21.3736Z" fill="#292556"/>
<path d="M19 16.5C19 17.0523 18.5523 17.5 18 17.5C17.4477 17.5 17 17.0523 17 16.5C17 15.9477 17.4477 15.5 18 15.5C18.5523 15.5 19 15.9477 19 16.5Z" fill="#292556"/>
<path fill-rule="evenodd" clip-rule="evenodd" d="M7.25312 11.7485C6.08487 10.9253 5.13978 9.80632 4.52687 8.49999C5.55311 6.31274 7.51059 4.65069 9.88757 4.02293C9.29548 4.8026 8.79869 5.70799 8.40434 6.64413C7.70885 8.2951 7.29277 10.1337 7.25312 11.7485ZM9.78669 7.22645C10.3656 5.85229 11.1348 4.68098 12 3.94098C12.8652 4.68098 13.6344 5.85229 14.2133 7.22645C14.8785 8.80538 15.25 10.553 15.25 12C15.25 12.0071 15.25 12.0143 15.25 12.0214C15.7039 11.743 16.203 11.5325 16.7328 11.4022C16.6469 9.87428 16.2419 8.17818 15.5957 6.64413C15.2013 5.7079 14.7044 4.80242 14.1123 4.0227C14.9286 4.23821 15.695 4.57569 16.3913 5.01443C16.7418 5.23524 17.2049 5.13015 17.4257 4.7797C17.6465 4.42925 17.5414 3.96615 17.191 3.74534C15.6874 2.79798 13.9065 2.25 12 2.25C7.95891 2.25 4.49373 4.70832 3.01505 8.20809C2.52215 9.37468 2.25 10.6565 2.25 12C2.25 17.3848 6.61522 21.75 12 21.75C13.0323 21.75 14.0271 21.5896 14.9608 21.2923C14.278 20.5941 13.5938 19.7194 13.1758 18.7107C12.8134 19.2436 12.4179 19.7016 12 20.059C11.1348 19.319 10.3656 18.1477 9.78669 16.7735C9.44659 15.9662 9.18326 15.1148 9.0071 14.282C9.95006 14.5859 10.9558 14.75 12 14.75C12.3622 14.75 12.7197 14.7303 13.0716 14.6918C13.3046 14.0503 13.6558 13.4722 14.0974 12.981C13.4276 13.1566 12.7247 13.25 12 13.25C10.8537 13.25 9.76187 13.0162 8.76962 12.5936C8.7566 12.3911 8.75 12.1929 8.75 12C8.75 10.553 9.12155 8.80539 9.78669 7.22645ZM21.7187 12.7868C21.2933 12.3598 20.7955 12.0081 20.2463 11.7493C20.2328 11.2985 20.1833 10.8571 20.1005 10.4278C19.8674 10.775 19.6125 11.1064 19.3379 11.4201C18.91 11.3086 18.4615 11.2495 18 11.2495C17.7761 11.2495 17.5552 11.2634 17.3382 11.2905C18.2353 10.5286 18.9673 9.57808 19.4731 8.50002C19.3287 8.1921 19.1657 7.89451 18.9856 7.60867C18.7648 7.25822 18.8699 6.79512 19.2203 6.57431C19.5708 6.3535 20.0339 6.45859 20.2547 6.80905C20.534 7.25246 20.7788 7.72009 20.985 8.20812C21.4778 9.3747 21.75 10.6565 21.75 12C21.75 12.2649 21.7394 12.5272 21.7187 12.7868ZM8.40434 17.3559C8.79869 18.292 9.29548 19.1974 9.88757 19.9771C6.35465 19.044 3.75 15.8262 3.75 12C3.75 11.462 3.8014 10.9364 3.89949 10.4278C4.77912 11.738 5.96837 12.8233 7.36267 13.5786C7.53366 14.8303 7.89368 16.1437 8.40434 17.3559Z" fill="#292556"/>
</svg>
