<svg width="24" height="24" viewBox="0 0 24 24" fill="none" xmlns="http://www.w3.org/2000/svg">
<path d="M16 20.0645C14.795 20.6633 13.4368 21 12 21C7.02944 21 3 16.9706 3 12C3 7.02944 7.02944 3 12 3C14.1617 3 16.1453 3.7621 17.697 5.03228C17.9674 5.25363 18.1026 5.3643 18.1399 5.53377C18.1512 5.58501 18.1543 5.6477 18.1482 5.69981C18.1279 5.87214 17.9944 6.00557 17.7276 6.27243L16.879 7.12096C16.6208 7.37923 16.4916 7.50836 16.3489 7.53978C16.2977 7.55107 16.26 7.55389 16.2077 7.55034C16.0619 7.54048 15.895 7.41721 15.5612 7.17068C14.5652 6.43494 13.3334 6 12 6C8.68629 6 6 8.68629 6 12C6 15.3137 8.68629 18 12 18C14.6124 18 16.8349 16.3304 17.6586 14H12.9C12.525 14 12.3375 14 12.2061 13.9045C12.1637 13.8737 12.1263 13.8363 12.0955 13.7939C12 13.6625 12 13.475 12 13.1V11.9C12 11.525 12 11.3375 12.0955 11.2061C12.1263 11.1637 12.1637 11.1263 12.2061 11.0955C12.3375 11 12.525 11 12.9 11H20.1C20.475 11 20.6625 11 20.7939 11.0955C20.8363 11.1263 20.8737 11.1637 20.9045 11.2061C21 11.3375 21 11.525 21 11.9V12C21 13.8501 20.4417 15.5699 19.4845 17" stroke="#292556" stroke-width="1.5" stroke-linecap="round" stroke-linejoin="round"/>
</svg>
