<svg width="24" height="24" viewBox="0 0 24 24" fill="none" xmlns="http://www.w3.org/2000/svg">
<path d="M18.5 3H16.7C15.5751 3 15.0126 3 14.6183 3.28647C14.491 3.37899 14.379 3.49098 14.2865 3.61832C14 4.01262 14 4.57508 14 5.7V7.3C14 8.42492 14 8.98738 14.2865 9.38168C14.379 9.50902 14.491 9.62101 14.6183 9.71353C15.0126 10 15.5751 10 16.7 10L18.3 10C19.4249 10 19.9874 10 20.3817 9.71353C20.509 9.62101 20.621 9.50902 20.7135 9.38168C21 8.98738 21 8.42492 21 7.3V5.5M18.3 14H16.7C15.5751 14 15.0126 14 14.6183 14.2865C14.491 14.379 14.379 14.491 14.2865 14.6183C14 15.0126 14 15.5751 14 16.7V18.3C14 19.4249 14 19.9874 14.2865 20.3817C14.379 20.509 14.491 20.621 14.6183 20.7135C15.0126 21 15.5751 21 16.7 21H18.3C19.4249 21 19.9874 21 20.3817 20.7135C20.509 20.621 20.621 20.509 20.7135 20.3817C21 19.9874 21 19.4249 21 18.3V16.7C21 15.5751 21 15.0126 20.7135 14.6183C20.621 14.491 20.509 14.379 20.3817 14.2865C19.9874 14 19.4249 14 18.3 14ZM7.3 3H5.7C4.57508 3 4.01262 3 3.61832 3.28647C3.49098 3.37899 3.37899 3.49098 3.28647 3.61832C3 4.01262 3 4.57508 3 5.7V18.3C3 19.4249 3 19.9874 3.28647 20.3817C3.37899 20.509 3.49098 20.621 3.61832 20.7135C4.01262 21 4.57508 21 5.7 21L7.3 21C8.42492 21 8.98738 21 9.38168 20.7135C9.50902 20.621 9.62101 20.509 9.71353 20.3817C10 19.9874 10 19.4249 10 18.3V5.7C10 4.57508 10 4.01262 9.71353 3.61832C9.62101 3.49098 9.50902 3.37899 9.38168 3.28647C8.98738 3 8.42492 3 7.3 3Z" stroke="#292556" stroke-width="1.5" stroke-linecap="round" stroke-linejoin="round"/>
</svg>
