<svg width="24" height="24" viewBox="0 0 24 24" fill="none" xmlns="http://www.w3.org/2000/svg">
<path d="M12.0001 10.5L7.29102 13.7601C4.30138 15.8298 2.80656 16.8647 2.85435 17.836C2.86897 18.1331 2.95908 18.4216 3.11618 18.6742C3.62976 19.5 5.44785 19.5 9.08402 19.5H11H16.1345C18.7633 19.5 20.0777 19.5 20.5787 19.0435C21.046 18.6178 21.2473 17.9731 21.1054 17.3571C20.9532 16.6967 19.8724 15.9487 17.7107 14.4527V14.4527L17.6286 14.3956M12.0001 10.5V8.68217C12.0001 8.58156 12.0816 8.5 12.1822 8.5V8.5C13.1883 8.5 14.0039 7.68441 14.0039 6.67832V6.5C14.0039 5.39543 13.1085 4.5 12.0039 4.5V4.5C10.8993 4.5 10.0039 5.39543 10.0039 6.5V6.5M12.0001 10.5L14.3394 12.1191" stroke="#292556" stroke-width="1.5" stroke-linecap="round" stroke-linejoin="round"/>
</svg>
