<svg width="24" height="24" viewBox="0 0 24 24" fill="none" xmlns="http://www.w3.org/2000/svg">
<path d="M3.00045 14.5013H4.57414C4.97689 14.5013 5.17827 14.5013 5.35696 14.4299C5.41584 14.4063 5.47236 14.3773 5.52574 14.343C5.68772 14.2391 5.80476 14.0753 6.03886 13.7475L6.6831 12.8456C7.20862 12.1099 7.47138 11.742 7.82666 11.652C7.95881 11.6186 8.09641 11.6125 8.23099 11.6342C8.59283 11.6924 8.88703 12.0356 9.47544 12.7221V12.7221C10.0815 13.4292 10.3845 13.7827 10.7541 13.8374C10.8913 13.8578 11.0313 13.8493 11.1652 13.8126C11.5254 13.7138 11.7837 13.3264 12.3003 12.5515L13.4009 10.9006C14.0334 9.95182 14.3497 9.47743 14.7721 9.40379C14.9056 9.38052 15.0424 9.38462 15.1743 9.41585C15.5916 9.51466 15.8789 10.0071 16.4534 10.9921L17.9795 13.6083C18.205 13.9947 18.3177 14.188 18.4892 14.3119C18.5456 14.3526 18.6061 14.3874 18.6697 14.4156C18.8632 14.5013 19.0869 14.5013 19.5343 14.5013H21.0005M20.7782 10C19.3705 15.7806 11.9949 20.5 11.9949 20.5C11.9949 20.5 4.08463 15.4753 3.09582 9.44536C2.10702 3.41545 9.02855 1.40524 11.9949 6.0795C14.2845 2.47165 18.9648 2.84561 20.5 5.97693" stroke="#292556" stroke-width="1.5" stroke-linecap="round" stroke-linejoin="round"/>
</svg>
