<svg width="24" height="24" viewBox="0 0 24 24" fill="none" xmlns="http://www.w3.org/2000/svg">
<path d="M20 14V15.3313C20 16.0509 20 16.4106 19.8553 16.7157C19.8078 16.8159 19.7494 16.9104 19.681 16.9977C19.4729 17.2636 19.1511 17.4245 18.5075 17.7463L13.2075 20.3963C12.6819 20.6591 12.4191 20.7904 12.1389 20.8165C12.0465 20.8251 11.9535 20.8251 11.8611 20.8165C11.5809 20.7904 11.3181 20.6591 10.7925 20.3963L5.49252 17.7463C4.84894 17.4245 4.52715 17.2636 4.31897 16.9977C4.25064 16.9104 4.1922 16.8159 4.14471 16.7157C4 16.4106 4 16.0509 4 15.3313V8.66869C4 7.94914 4 7.58937 4.14471 7.28426C4.1922 7.18413 4.25064 7.08956 4.31897 7.0023C4.52715 6.73643 4.84894 6.57553 5.49252 6.25374L10.7925 3.60374C11.3181 3.34095 11.5809 3.20955 11.8611 3.1835C11.9535 3.1749 12.0465 3.1749 12.1389 3.1835C12.4191 3.20955 12.6819 3.34095 13.2075 3.60374L18.5075 6.25374C19.1511 6.57553 19.4729 6.73643 19.681 7.0023C19.7494 7.08956 19.8078 7.18413 19.8553 7.28426C20 7.58937 20 7.94914 20 8.66869V10" stroke="#292556" stroke-width="1.5" stroke-linecap="round" stroke-linejoin="round"/>
</svg>
