<svg width="24" height="24" viewBox="0 0 24 24" fill="none" xmlns="http://www.w3.org/2000/svg">
<path d="M2 12C2 16.9706 6.02944 21 11 21" stroke="#292556" stroke-width="1.5" stroke-linecap="round" stroke-linejoin="round" stroke-dasharray="0 3"/>
<path d="M11.9998 20.25C11.5856 20.25 11.2498 20.5858 11.2498 21C11.2498 21.4142 11.5856 21.75 11.9998 21.75V20.25ZM3.61426 7.7035H2.86426C2.86426 8.11772 3.20004 8.4535 3.61426 8.4535V7.7035ZM4.36426 4.16797C4.36426 3.75376 4.02847 3.41797 3.61426 3.41797C3.20004 3.41797 2.86426 3.75376 2.86426 4.16797H4.36426ZM7.14979 8.4535C7.56401 8.4535 7.89979 8.11772 7.89979 7.7035C7.89979 7.28929 7.56401 6.9535 7.14979 6.9535V8.4535ZM11.9998 13H11.2498C11.2498 13.4142 11.5856 13.75 11.9998 13.75V13ZM12.7498 9C12.7498 8.58579 12.414 8.25 11.9998 8.25C11.5856 8.25 11.2498 8.58579 11.2498 9H12.7498ZM14.9998 13.75C15.414 13.75 15.7498 13.4142 15.7498 13C15.7498 12.5858 15.414 12.25 14.9998 12.25V13.75ZM21.5082 14.166C21.5998 13.762 21.3467 13.3603 20.9427 13.2686C20.5388 13.1769 20.137 13.4301 20.0454 13.834L21.5082 14.166ZM20.0454 10.166C20.137 10.5699 20.5388 10.8231 20.9427 10.7314C21.3467 10.6397 21.5998 10.238 21.5082 9.83404L20.0454 10.166ZM4.36426 7.7035V4.16797H2.86426V7.7035H4.36426ZM3.61426 8.4535H4.08961V6.9535H3.61426V8.4535ZM4.08961 8.4535H7.14979V6.9535H4.08961V8.4535ZM11.9998 2.25C8.29963 2.25 5.08204 4.31144 3.43087 7.34494L4.74835 8.06206C6.14743 5.4917 8.87076 3.75 11.9998 3.75V2.25ZM12.7498 13V9H11.2498V13H12.7498ZM11.9998 13.75H14.9998V12.25H11.9998V13.75ZM11.9998 21.75C16.6408 21.75 20.5229 18.5081 21.5082 14.166L20.0454 13.834C19.2117 17.5079 15.9251 20.25 11.9998 20.25V21.75ZM21.5082 9.83404C20.5229 5.49195 16.6408 2.25 11.9998 2.25V3.75C15.9251 3.75 19.2117 6.4921 20.0454 10.166L21.5082 9.83404Z" fill="#292556"/>
</svg>
