<svg width="24" height="24" viewBox="0 0 24 24" fill="none" xmlns="http://www.w3.org/2000/svg">
<path d="M15 13H11.9997M11.9997 13H9M11.9997 13L12 16M11.9997 13L12 10M21 18V18C21 18.9319 21 19.3978 20.8478 19.7654C20.6448 20.2554 20.2554 20.6448 19.7654 20.8478C19.3978 21 18.9319 21 18 21H6.6C5.10011 21 4.35016 21 3.82443 20.618C3.65464 20.4947 3.50533 20.3454 3.38197 20.1756C3 19.6498 3 18.8999 3 17.4V13.7279C3 12.0954 3 11.2791 3.24472 10.526C3.32566 10.2769 3.42605 10.0345 3.54497 9.80112C3.90449 9.09551 4.48167 8.51833 5.63604 7.36396V7.36396C8.2875 4.7125 9.61323 3.38677 11.2178 3.13263C11.736 3.05055 12.264 3.05055 12.7822 3.13263C14.3868 3.38677 15.7125 4.7125 18.364 7.36396V7.36396C19.5183 8.51833 20.0955 9.09551 20.455 9.80112C20.5739 10.0345 20.6743 10.2769 20.7553 10.526C21 11.2791 21 12.0954 21 13.7279V14" stroke="#292556" stroke-width="1.5" stroke-linecap="round" stroke-linejoin="round"/>
</svg>
