<svg width="24" height="24" viewBox="0 0 24 24" fill="none" xmlns="http://www.w3.org/2000/svg">
<path d="M21 13V12.9V12.9C21 12.0849 21 11.6773 20.9384 11.2884C20.8149 10.5094 20.5089 9.77067 20.0454 9.13253C19.814 8.81396 19.5258 8.52577 18.9494 7.94939L18.364 7.36396C15.7125 4.7125 14.3868 3.38677 12.7822 3.13263C12.264 3.05055 11.736 3.05055 11.2178 3.13263C9.61323 3.38677 8.2875 4.7125 5.63604 7.36396V7.36396C4.48167 8.51833 3.90449 9.09551 3.54497 9.80112C3.42605 10.0345 3.32566 10.2769 3.24472 10.526C3 11.2791 3 12.0954 3 13.7279V15.6C3 17.8498 3 18.9748 3.57295 19.7634C3.75799 20.018 3.98196 20.242 4.23664 20.4271C5.02524 21 6.15016 21 8.4 21H17C17.93 21 18.395 21 18.7765 20.8978C19.8117 20.6204 20.6204 19.8117 20.8978 18.7765C21 18.395 21 17.93 21 17V17" stroke="#292556" stroke-width="1.5" stroke-linecap="round" stroke-linejoin="round"/>
<path d="M16 17H8" stroke="#292556" stroke-width="1.5" stroke-linecap="round" stroke-linejoin="round"/>
</svg>
