<svg width="24" height="24" viewBox="0 0 24 24" fill="none" xmlns="http://www.w3.org/2000/svg">
<path d="M5 4.5C5 3.67157 5.67157 3 6.5 3H17.5C18.3284 3 19 3.67157 19 4.5V4.5C19 5.32843 18.3284 6 17.5 6H6.5C5.67157 6 5 5.32843 5 4.5V4.5Z" stroke="#292556" stroke-width="1.5" stroke-linejoin="round"/>
<path d="M10 12.8827V11.3409C10 11.1227 10 11.0136 10.0411 10.9186C10.0546 10.8874 10.0713 10.8576 10.0908 10.8297C10.1503 10.745 10.2433 10.688 10.4293 10.5738L11.5293 9.89885C11.7323 9.77425 11.8339 9.71195 11.9451 9.69966C11.9816 9.69562 12.0184 9.69562 12.0549 9.69966C12.1661 9.71195 12.2677 9.77425 12.4707 9.89885L13.5707 10.5738C13.7567 10.688 13.8497 10.745 13.9092 10.8297C13.9287 10.8576 13.9454 10.8874 13.9589 10.9186C14 11.0136 14 11.1227 14 11.3409V12.8827M10 12.8827L8.43018 13.8435C8.24381 13.9576 8.15062 14.0146 8.09102 14.0994C8.07141 14.1272 8.05471 14.157 8.04117 14.1883C8 14.2834 8 14.3926 8 14.6112V15.6486C8 15.8668 8 15.9759 8.04107 16.0709C8.05459 16.1022 8.07126 16.1319 8.09082 16.1598C8.15029 16.2445 8.24329 16.3015 8.42929 16.4157L9.52929 17.0907C9.73233 17.2153 9.83386 17.2776 9.94507 17.2899C9.98158 17.2939 10.0184 17.2939 10.0549 17.2899C10.1661 17.2776 10.2677 17.2153 10.4707 17.0907L12 16.1523M10 12.8827L12 14.11M14 12.8827L12 14.11M14 12.8827L15.5698 13.8435C15.7562 13.9576 15.8494 14.0146 15.909 14.0994C15.9286 14.1272 15.9453 14.157 15.9588 14.1883C16 14.2834 16 14.3926 16 14.6112V15.6486C16 15.8668 16 15.9759 15.9589 16.0709C15.9454 16.1022 15.9287 16.1319 15.9092 16.1598C15.8497 16.2445 15.7567 16.3015 15.5707 16.4157L14.4707 17.0907C14.2677 17.2153 14.1661 17.2776 14.0549 17.2899C14.0184 17.2939 13.9816 17.2939 13.9451 17.2899C13.8339 17.2776 13.7323 17.2153 13.5293 17.0907L12 16.1523M12 14.11V16.1523M19 15V17.4C19 18.8999 19 19.6498 18.618 20.1756C18.4947 20.3454 18.3454 20.4947 18.1756 20.618C17.6498 21 16.8999 21 15.4 21H8.6C7.10011 21 6.35016 21 5.82443 20.618C5.65464 20.4947 5.50533 20.3454 5.38197 20.1756C5 19.6498 5 18.8999 5 17.4V9.6C5 8.10011 5 7.35016 5.38197 6.82443C5.50533 6.65464 5.65464 6.50533 5.82443 6.38197C6.35016 6 7.10011 6 8.6 6H15.4C16.8999 6 17.6498 6 18.1756 6.38197C18.3454 6.50533 18.4947 6.65464 18.618 6.82443C19 7.35016 19 8.10011 19 9.6V11" stroke="#292556" stroke-width="1.5" stroke-linecap="round" stroke-linejoin="round"/>
</svg>
