<svg width="24" height="24" viewBox="0 0 24 24" fill="none" xmlns="http://www.w3.org/2000/svg">
<path d="M12.75 9.8C12.75 9.98749 12.75 10.0812 12.7023 10.1469C12.6868 10.1682 12.6682 10.1868 12.6469 10.2023C12.5812 10.25 12.4875 10.25 12.3 10.25H11.7C11.5125 10.25 11.4188 10.25 11.3531 10.2023C11.3318 10.1868 11.3132 10.1682 11.2977 10.1469C11.25 10.0812 11.25 9.98749 11.25 9.8V8.5H9.95C9.76251 8.5 9.66877 8.5 9.60305 8.45225C9.58183 8.43683 9.56317 8.41817 9.54775 8.39695C9.5 8.33123 9.5 8.23749 9.5 8.05V7.45C9.5 7.26251 9.5 7.16877 9.54775 7.10305C9.56317 7.08183 9.58183 7.06317 9.60305 7.04775C9.66877 7 9.76251 7 9.95 7L11.25 7V5.7C11.25 5.51251 11.25 5.41877 11.2977 5.35305C11.3132 5.33183 11.3318 5.31317 11.3531 5.29775C11.4188 5.25 11.5125 5.25 11.7 5.25H12.3C12.4875 5.25 12.5812 5.25 12.6469 5.29775C12.6682 5.31317 12.6868 5.33183 12.7023 5.35305C12.75 5.41877 12.75 5.51251 12.75 5.7V7L14.05 7C14.2375 7 14.3312 7 14.3969 7.04775C14.4182 7.06317 14.4368 7.08183 14.4523 7.10305C14.5 7.16877 14.5 7.26251 14.5 7.45V8.05C14.5 8.23749 14.5 8.33123 14.4523 8.39695C14.4368 8.41817 14.4182 8.43683 14.3969 8.45225C14.3312 8.5 14.2375 8.5 14.05 8.5H12.75V9.8Z" fill="#292556"/>
<path d="M8 13.35C8 13.725 8 13.9125 7.90451 14.0439C7.87367 14.0863 7.83634 14.1237 7.79389 14.1545C7.66246 14.25 7.47497 14.25 7.1 14.25H6.9C6.52503 14.25 6.33754 14.25 6.20611 14.1545C6.16366 14.1237 6.12633 14.0863 6.09549 14.0439C6 13.9125 6 13.725 6 13.35V13.15C6 12.775 6 12.5875 6.09549 12.4561C6.12633 12.4137 6.16366 12.3763 6.20611 12.3455C6.33754 12.25 6.52503 12.25 6.9 12.25H7.1C7.47497 12.25 7.66246 12.25 7.79389 12.3455C7.83634 12.3763 7.87367 12.4137 7.90451 12.4561C8 12.5875 8 12.775 8 13.15V13.35Z" fill="#292556"/>
<path d="M13 13.35C13 13.725 13 13.9125 12.9045 14.0439C12.8737 14.0863 12.8363 14.1237 12.7939 14.1545C12.6625 14.25 12.475 14.25 12.1 14.25H11.9C11.525 14.25 11.3375 14.25 11.2061 14.1545C11.1637 14.1237 11.1263 14.0863 11.0955 14.0439C11 13.9125 11 13.725 11 13.35V13.15C11 12.775 11 12.5875 11.0955 12.4561C11.1263 12.4137 11.1637 12.3763 11.2061 12.3455C11.3375 12.25 11.525 12.25 11.9 12.25H12.1C12.475 12.25 12.6625 12.25 12.7939 12.3455C12.8363 12.3763 12.8737 12.4137 12.9045 12.4561C13 12.5875 13 12.775 13 13.15V13.35Z" fill="#292556"/>
<path d="M18 13.35C18 13.725 18 13.9125 17.9045 14.0439C17.8737 14.0863 17.8363 14.1237 17.7939 14.1545C17.6625 14.25 17.475 14.25 17.1 14.25H16.9C16.525 14.25 16.3375 14.25 16.2061 14.1545C16.1637 14.1237 16.1263 14.0863 16.0955 14.0439C16 13.9125 16 13.725 16 13.35V13.15C16 12.775 16 12.5875 16.0955 12.4561C16.1263 12.4137 16.1637 12.3763 16.2061 12.3455C16.3375 12.25 16.525 12.25 16.9 12.25H17.1C17.475 12.25 17.6625 12.25 17.7939 12.3455C17.8363 12.3763 17.8737 12.4137 17.9045 12.4561C18 12.5875 18 12.775 18 13.15V13.35Z" fill="#292556"/>
<path d="M21 18V18C21 18.9319 21 19.3978 20.8478 19.7654C20.6448 20.2554 20.2554 20.6448 19.7654 20.8478C19.3978 21 18.9319 21 18 21V21L15.4 21C15.025 21 14.8375 21 14.7061 20.9045C14.6637 20.8737 14.6263 20.8363 14.5955 20.7939C14.5 20.6625 14.5 20.475 14.5 20.1V18.3C14.5 17.5501 14.5 17.1751 14.309 16.9122C14.2473 16.8273 14.1727 16.7527 14.0878 16.691C13.8249 16.5 13.4499 16.5 12.7 16.5H11.3C10.5501 16.5 10.1751 16.5 9.91221 16.691C9.82732 16.7527 9.75266 16.8273 9.69098 16.9122C9.5 17.1751 9.5 17.5501 9.5 18.3V20.1C9.5 20.475 9.5 20.6625 9.40451 20.7939C9.37367 20.8363 9.33634 20.8737 9.29389 20.9045C9.16246 21 8.97497 21 8.6 21H6V21C5.06812 21 4.60217 21 4.23463 20.8478C3.74458 20.6448 3.35523 20.2554 3.15224 19.7654C3 19.3978 3 18.9319 3 18V12.8108C3 11.6159 3 11.0184 3.27472 10.5499C3.36426 10.3972 3.47369 10.2571 3.60013 10.1331C3.98803 9.75299 4.56764 9.60809 5.72687 9.31828L6.65914 9.08521C6.80404 9.04899 6.8765 9.03088 6.92498 8.98336C6.94079 8.96787 6.95447 8.95035 6.96566 8.93126C7 8.8727 7 8.79801 7 8.64865V6.6C7 5.10011 7 4.35016 7.38197 3.82443C7.50533 3.65464 7.65464 3.50533 7.82443 3.38197C8.35016 3 9.10011 3 10.6 3H13.4C14.8999 3 15.6498 3 16.1756 3.38197C16.3454 3.50533 16.4947 3.65464 16.618 3.82443C17 4.35016 17 5.10011 17 6.6V8.64865C17 8.79801 17 8.8727 17.0343 8.93126C17.0455 8.95035 17.0592 8.96787 17.075 8.98336C17.1235 9.03088 17.196 9.04899 17.3409 9.08521L18.2731 9.31828C19.4324 9.60809 20.012 9.75299 20.3999 10.1331C20.5263 10.2571 20.6357 10.3972 20.7253 10.5499C21 11.0184 21 11.6159 21 12.8108V14" stroke="#292556" stroke-width="1.5" stroke-linecap="round" stroke-linejoin="round"/>
</svg>
