<svg width="24" height="24" viewBox="0 0 24 24" fill="none" xmlns="http://www.w3.org/2000/svg">
<path d="M8.5 21H8.35C7.78754 21 7.50631 21 7.30916 20.8568C7.24549 20.8105 7.1895 20.7545 7.14324 20.6908C7 20.4937 7 20.2125 7 19.65V17.135C4.6211 15.8775 3 13.378 3 10.5C3 6.35786 6.35786 3 10.5 3C14.6421 3 18 6.35786 18 10.5C18 10.668 17.9945 10.8347 17.9836 11L19.7945 13.4014C20.0499 13.74 20.1775 13.9093 20.2159 14.0428C20.3234 14.4168 20.127 14.8109 19.7637 14.9503C19.634 15 19.4219 15 18.9978 15V15C18.7674 15 18.6521 15 18.5575 15.0251C18.2974 15.0942 18.0942 15.2974 18.0251 15.5575C18 15.6521 18 15.7674 18 15.9978V17.15C18 17.7125 18 17.9937 17.8568 18.1908C17.8105 18.2545 17.7545 18.3105 17.6908 18.3568C17.4937 18.5 17.2125 18.5 16.65 18.5H15.25C14.7827 18.5 14.549 18.5 14.375 18.6005C14.261 18.6663 14.1663 18.761 14.1005 18.875C14 19.049 14 19.2827 14 19.75V19.75C14 20.2173 14 20.451 13.8995 20.625C13.8337 20.739 13.739 20.8337 13.625 20.8995C13.451 21 13.2173 21 12.75 21H12.5M14 9.5C14 10.3284 13.3284 11 12.5 11C11.6716 11 11 10.3284 11 9.5C11 8.67157 11.6716 8 12.5 8C13.3284 8 14 8.67157 14 9.5Z" stroke="#292556" stroke-width="1.5" stroke-linecap="round" stroke-linejoin="round"/>
</svg>
