<svg width="24" height="24" viewBox="0 0 24 24" fill="none" xmlns="http://www.w3.org/2000/svg">
<path d="M10 8V3.15003C10.4847 3.05165 10.9863 3 11.5 3C13.1884 3 14.7465 3.55792 16 4.49945M10 8V12M10 8H6L4.70711 6.70711M10 12H6M10 12V16M6 12C6 12.8284 5.32843 13.5 4.5 13.5C3.67157 13.5 3 12.8284 3 12C3 11.1716 3.67157 10.5 4.5 10.5C5.32843 10.5 6 11.1716 6 12ZM10 16V19.65C10 20.2125 10 20.4937 10.1432 20.6908C10.1895 20.7545 10.2455 20.8105 10.3092 20.8568C10.5063 21 10.7875 21 11.35 21H13.75C14.2173 21 14.451 21 14.625 20.8995C14.739 20.8337 14.8337 20.739 14.8995 20.625C15 20.451 15 20.2173 15 19.75V19.75C15 19.2827 15 19.049 15.1005 18.875C15.1663 18.761 15.261 18.6663 15.375 18.6005C15.549 18.5 15.7827 18.5 16.25 18.5H17.65C18.2125 18.5 18.4937 18.5 18.6908 18.3568C18.7545 18.3105 18.8105 18.2545 18.8568 18.1908C19 17.9937 19 17.7125 19 17.15V15.9978C19 15.7674 19 15.6521 19.0251 15.5575C19.0942 15.2974 19.2974 15.0942 19.5575 15.0251C19.6521 15 19.7674 15 19.9978 15V15C20.4219 15 20.634 15 20.7637 14.9503C21.127 14.8109 21.3234 14.4168 21.2159 14.0428C21.1775 13.9093 21.0499 13.74 20.7945 13.4014L19.2849 11.3995C19.1569 11.2298 19.0929 11.1449 19.0562 11.0554C19.0423 11.0216 19.0339 10.9964 19.0246 10.9611C19 10.8675 19 10.745 19 10.5V10.5C19 9.62341 18.8496 8.78195 18.5732 8M10 16H6L4.70711 17.2929M4.70711 6.70711C4.88807 6.52614 5 6.27614 5 6C5 5.44772 4.55228 5 4 5C3.44772 5 3 5.44772 3 6C3 6.55228 3.44772 7 4 7C4.27614 7 4.52614 6.88807 4.70711 6.70711ZM4.70711 17.2929C4.52614 17.1119 4.27614 17 4 17C3.44772 17 3 17.4477 3 18C3 18.5523 3.44772 19 4 19C4.55228 19 5 18.5523 5 18C5 17.7239 4.88807 17.4739 4.70711 17.2929ZM15 9.5C15 10.3284 14.3284 11 13.5 11C12.6716 11 12 10.3284 12 9.5C12 8.67157 12.6716 8 13.5 8C14.3284 8 15 8.67157 15 9.5Z" stroke="#292556" stroke-width="1.5" stroke-linecap="round" stroke-linejoin="round"/>
</svg>
