<svg width="24" height="24" viewBox="0 0 24 24" fill="none" xmlns="http://www.w3.org/2000/svg">
<path d="M15.8588 9.2004C15.5659 9.49329 15.091 9.49329 14.7981 9.2004C14.5052 8.90751 14.5052 8.43263 14.7981 8.13974C15.091 7.84685 15.5659 7.84685 15.8588 8.13974C16.1517 8.43263 16.1517 8.90751 15.8588 9.2004Z" fill="#292556"/>
<path d="M11.4405 9.02252C11.1476 9.31541 10.6727 9.31541 10.3798 9.02252C10.0869 8.72962 10.0869 8.25475 10.3798 7.96186C10.6727 7.66896 11.1476 7.66896 11.4405 7.96186C11.7334 8.25475 11.7334 8.72962 11.4405 9.02252Z" fill="#292556"/>
<path d="M16.0367 13.6187C15.7438 13.9116 15.2689 13.9116 14.976 13.6187C14.6831 13.3258 14.6831 12.8509 14.976 12.5581C15.2689 12.2652 15.7438 12.2652 16.0367 12.5581C16.3296 12.8509 16.3296 13.3258 16.0367 13.6187Z" fill="#292556"/>
<path d="M19.4658 15.1424C18.267 16.3411 16.611 16.8039 15.0591 16.5308M7.47076 8.94243C7.64254 9.91831 8.10535 10.853 8.85919 11.6068C9.37205 12.1197 9.9686 12.4978 10.6049 12.7413C10.8347 12.8292 10.9496 12.8732 11.0143 12.9279C11.0411 12.9505 11.0511 12.9605 11.0737 12.9872C11.1284 13.052 11.1723 13.1669 11.2603 13.3967C11.5037 14.0329 11.8819 14.6295 12.3947 15.1424C13.1486 15.8962 14.0832 16.359 15.0591 16.5308M7.47076 8.94243C7.19761 7.39058 7.66042 5.73453 8.85919 4.53576C10.8118 2.58313 13.9776 2.58313 15.9303 4.53576C16.4431 5.04861 16.8213 5.64516 17.0647 6.28144C17.1526 6.51123 17.1966 6.62613 17.2513 6.6909C17.2739 6.71764 17.2839 6.72764 17.3106 6.75023C17.3754 6.80494 17.4903 6.8489 17.7201 6.93682C18.3564 7.18028 18.9529 7.55843 19.4658 8.07129C20.3572 8.9627 20.8417 10.1069 20.9192 11.2732M7.47076 8.94243L5.21272 14.0392C3.81142 17.2021 3.11077 18.7836 3.65177 19.6761C3.81878 19.9517 4.04989 20.1828 4.32544 20.3498C5.21799 20.8908 6.79945 20.1901 9.96238 18.7888L15.0591 16.5308" stroke="#292556" stroke-width="1.5" stroke-linecap="round" stroke-linejoin="round"/>
</svg>
