<svg width="24" height="24" viewBox="0 0 24 24" fill="none" xmlns="http://www.w3.org/2000/svg">
<path d="M5.00049 11.998H3.00049M5.00049 11.998L6.79556 6.01447C7.1841 4.71935 7.37837 4.07179 7.75632 3.77769C8.10653 3.50517 8.55942 3.40171 8.99323 3.49511C9.4614 3.59591 9.91769 4.09499 10.8303 5.09313V5.09313C11.2299 5.53023 11.4297 5.74878 11.6631 5.83242C11.8812 5.91061 12.1198 5.91061 12.3379 5.83242C12.5713 5.74878 12.771 5.53027 13.1706 5.09327V5.09327C14.0825 4.0959 14.5384 3.59721 15.0061 3.49627C15.4406 3.4025 15.8943 3.50625 16.2448 3.77954C16.6222 4.07374 16.8161 4.72103 17.2038 6.01561L17.2817 6.27559M5.00049 11.998H19.0005M21.0005 11.998H19.0005M19.0005 11.998L18.4316 10.1067M7.00049 20.498C5.34363 20.498 4.00049 19.1549 4.00049 17.498C4.00049 15.8412 5.34363 14.498 7.00049 14.498C8.65734 14.498 10.0005 15.8412 10.0005 17.498C10.0005 19.1549 8.65734 20.498 7.00049 20.498ZM17.0005 20.498C15.3436 20.498 14.0005 19.1549 14.0005 17.498C14.0005 15.8412 15.3436 14.498 17.0005 14.498C18.6573 14.498 20.0005 15.8412 20.0005 17.498C20.0005 19.1549 18.6573 20.498 17.0005 20.498Z" stroke="#292556" stroke-width="1.5" stroke-linecap="round" stroke-linejoin="round"/>
</svg>
