<svg width="24" height="24" viewBox="0 0 24 24" fill="none" xmlns="http://www.w3.org/2000/svg">
<path fill-rule="evenodd" clip-rule="evenodd" d="M15.8081 5.42409C15.2389 5.24943 14.6193 5.24968 13.7457 5.25003L13.6245 5.25006H8.4L8.35672 5.25006L8.35671 5.25006C7.26855 5.25005 6.3911 5.25004 5.68957 5.32605C4.96472 5.40458 4.33926 5.5714 3.79581 5.96625C3.47745 6.19755 3.19749 6.47751 2.96619 6.79587C2.57134 7.33933 2.40452 7.96479 2.32598 8.68963C2.24998 9.39116 2.24999 10.2686 2.25 11.3568V11.3568V11.4001V12.6001V12.6433V12.6434C2.24999 13.7315 2.24998 14.609 2.32598 15.3105C2.40452 16.0353 2.57134 16.6608 2.96619 17.2043C3.11411 17.4079 3.28193 17.5957 3.46697 17.7652L4.52933 16.7029C4.39873 16.5901 4.28139 16.4625 4.17971 16.3226C4.00161 16.0774 3.88196 15.7461 3.81726 15.1489C3.75103 14.5377 3.75 13.7417 3.75 12.6001V11.4001C3.75 10.2584 3.75103 9.46246 3.81726 8.8512C3.88196 8.25398 4.00161 7.92269 4.17971 7.67755C4.31849 7.48653 4.48647 7.31855 4.67748 7.17978C4.92262 7.00167 5.25392 6.88202 5.85114 6.81732C6.4624 6.75109 7.25837 6.75006 8.4 6.75006H13.6245C13.9755 6.75006 14.2518 6.75105 14.4761 6.75616L15.8081 5.42409ZM7.51934 17.2484L6.06123 18.7065C6.6943 18.7501 7.45281 18.7501 8.35673 18.7501H8.4H14C14.4142 18.7501 14.75 18.4143 14.75 18.0001C14.75 17.5859 14.4142 17.2501 14 17.2501H8.4C8.08056 17.2501 7.78818 17.25 7.51934 17.2484ZM16.7924 7.97537L17.8544 6.9134C17.9258 6.99083 17.9995 7.07135 18.0762 7.15503L18.158 7.24436L20.1017 9.36474L20.1274 9.39279C20.5151 9.8157 20.8447 10.1752 21.0828 10.4964C21.3348 10.8363 21.5336 11.1959 21.5985 11.6305C21.6352 11.8755 21.6352 12.1246 21.5985 12.3697C21.5336 12.8043 21.3348 13.1639 21.0828 13.5037C20.8447 13.825 20.5151 14.1845 20.1274 14.6074L20.1017 14.6354L17.9279 17.0069C17.648 17.3122 17.1735 17.3328 16.8682 17.0529C16.5629 16.773 16.5422 16.2986 16.8221 15.9933L18.996 13.6218C19.4163 13.1632 19.6919 12.8612 19.8779 12.6104C20.0553 12.3711 20.1009 12.2426 20.115 12.1479C20.1297 12.0499 20.1297 11.9502 20.115 11.8522C20.1009 11.7575 20.0553 11.6291 19.8779 11.3898C19.6919 11.1389 19.4163 10.8369 18.996 10.3783L17.0523 8.25795C16.9582 8.15529 16.8719 8.0614 16.7924 7.97537Z" fill="#292556"/>
<path d="M3 21L21 3" stroke="#292556" stroke-width="1.5" stroke-linecap="round" stroke-linejoin="round"/>
</svg>
