<svg width="24" height="24" viewBox="0 0 24 24" fill="none" xmlns="http://www.w3.org/2000/svg">
<path d="M11 12H6.74605C5.23842 12 4.48461 12 4.051 11.5903C3.91302 11.46 3.80104 11.3046 3.721 11.1325C3.46948 10.5916 3.70785 9.87644 4.18461 8.44618L5.17947 5.46158C5.53017 4.40949 5.70552 3.88345 6.07908 3.53584C6.20116 3.42224 6.33696 3.32436 6.48334 3.24447C6.93124 3 7.48574 3 8.59473 3H15.4053C16.5143 3 17.0688 3 17.5167 3.24447C17.663 3.32436 17.7988 3.42224 17.9209 3.53584C18.2945 3.88345 18.4698 4.4095 18.8205 5.46158L18.832 5.49604M11 12V19M11 12H13M11 19H13M11 19H9C8.44772 19 8 19.4477 8 20V20C8 20.5523 8.44772 21 9 21H15C15.5523 21 16 20.5523 16 20V20C16 19.4477 15.5523 19 15 19H13M13 19V12M13 12H16.5M16.5 12H18.1442C18.8386 12 19.1858 12 19.4363 11.9079C20.0109 11.6967 20.3995 11.1576 20.4182 10.5457C20.4263 10.2789 20.3165 9.94952 20.0969 9.29077V9.29077M16.5 12V16" stroke="#292556" stroke-width="1.5" stroke-linecap="round" stroke-linejoin="round"/>
</svg>
