<svg width="24" height="24" viewBox="0 0 24 24" fill="none" xmlns="http://www.w3.org/2000/svg">
<path d="M9 3H14.01C16.8094 3 18.2091 3 19.2157 3.66977C19.6575 3.96367 20.0363 4.34252 20.3302 4.78425C21 5.7909 21 7.1906 21 9.99V9.99V10M9 3V3C7.13623 3 6.20435 3 5.46927 3.30448C4.48915 3.71046 3.71046 4.48915 3.30448 5.46927C3 6.20435 3 7.13623 3 9V15C3 16.8638 3 17.7956 3.30448 18.5307C3.71046 19.5108 4.48915 20.2895 5.46927 20.6955C6.20435 21 7.13623 21 9 21V21M9 3V21M9 21H14C16.8089 21 18.2134 21 19.2223 20.3259C19.659 20.034 20.034 19.659 20.3259 19.2223C21 18.2134 21 16.8089 21 14V14" stroke="#292556" stroke-width="1.5" stroke-linecap="round" stroke-linejoin="round"/>
<path d="M7 6.5C7 7.05228 6.55228 7.5 6 7.5C5.44772 7.5 5 7.05228 5 6.5C5 5.94772 5.44772 5.5 6 5.5C6.55228 5.5 7 5.94772 7 6.5Z" fill="#292556"/>
<path d="M7 9.5C7 10.0523 6.55228 10.5 6 10.5C5.44772 10.5 5 10.0523 5 9.5C5 8.94772 5.44772 8.5 6 8.5C6.55228 8.5 7 8.94772 7 9.5Z" fill="#292556"/>
</svg>
