<svg width="24" height="24" viewBox="0 0 24 24" fill="none" xmlns="http://www.w3.org/2000/svg">
<path d="M12 3.00005L14 3.00005C16.8089 3.00005 18.2134 3.00005 19.2222 3.67415C19.659 3.96599 20.0341 4.34102 20.3259 4.7778C21 5.78669 21 7.19112 21 10V10M12 3.00005L10.2 3.00005C7.20021 3.00005 5.70032 3.00005 4.64886 3.76398C4.30928 4.0107 4.01065 4.30933 3.76393 4.64891C3 5.70037 3 7.20027 3 10.2V10.5M12 3.00005L12 10M12 21.0001H9.50006C7.16537 21.0001 5.99803 21.0001 5.11437 20.5277C4.41669 20.1548 3.84526 19.5834 3.47234 18.8857C3 18.002 3 16.8347 3 14.5V14.5M12 21.0001H13.8C16.7998 21.0001 18.2997 21.0001 19.3511 20.2361C19.6907 19.9894 19.9893 19.6908 20.2361 19.3512C21 18.2997 21 16.7998 21 13.8001V10M12 21.0001V10M12 10H21" stroke="#292556" stroke-width="1.5" stroke-linecap="round" stroke-linejoin="round"/>
</svg>
