<svg width="24" height="24" viewBox="0 0 24 24" fill="none" xmlns="http://www.w3.org/2000/svg">
<path d="M9 3H14.01C16.8094 3 18.2091 3 19.2157 3.66977C19.6575 3.96367 20.0363 4.34252 20.3302 4.78425C21 5.7909 21 7.1906 21 9.99V9.99V10M9 3V3C7.13623 3 6.20435 3 5.46927 3.30448C4.48915 3.71046 3.71046 4.48915 3.30448 5.46927C3 6.20435 3 7.13623 3 9V15C3 16.8638 3 17.7956 3.30448 18.5307C3.71046 19.5108 4.48915 20.2895 5.46927 20.6955C6.20435 21 7.13623 21 9 21V21M9 3V21M9 21H14C16.8089 21 18.2134 21 19.2223 20.3259C19.659 20.034 20.034 19.659 20.3259 19.2223C21 18.2134 21 16.8089 21 14V14" stroke="#292556" stroke-width="1.5" stroke-linecap="round" stroke-linejoin="round"/>
</svg>
