<svg width="24" height="24" viewBox="0 0 24 24" fill="none" xmlns="http://www.w3.org/2000/svg">
<path d="M13.3412 10.7033H16.3757M13.3412 10.7033V7.66878M13.3412 10.7033L9.73774 14.3067M9.73774 14.3067H14.2895M9.73774 14.3067L9.73774 9.75498M9.73774 14.3067L6.32395 17.7205C4.98786 19.0566 4.24006 19.8044 4.08053 21M16.1035 17L15.4052 17.6983C12.8913 20.2121 8.81557 20.2121 6.30173 17.6983V17.6983C3.78788 15.1844 3.78788 11.1087 6.30172 8.59483L10.0948 4.80172C12.6087 2.28787 16.6844 2.28788 19.1983 4.80173V4.80173C21.7121 7.31557 21.7121 11.3913 19.1983 13.9052L18.9138 14.1897" stroke="#292556" stroke-width="1.5" stroke-linecap="round" stroke-linejoin="round"/>
</svg>
