<svg width="24" height="24" viewBox="0 0 24 24" fill="none" xmlns="http://www.w3.org/2000/svg">
<path d="M15 17H9M15 17V18C15 18.9319 15 19.3978 14.8478 19.7654C14.6448 20.2554 14.2554 20.6448 13.7654 20.8478C13.3978 21 12.9319 21 12 21V21C11.0681 21 10.6022 21 10.2346 20.8478C9.74458 20.6448 9.35523 20.2554 9.15224 19.7654C9 19.3978 9 18.9319 9 18V17M15 17V15.5M9 17V15.9927C9 15.6724 8.89929 15.3601 8.71212 15.1002L7.01166 12.7384C4.08414 8.67242 6.98974 3 12 3H12.2938C17.1814 3 20.0158 8.53355 17.16 12.5V12.5M10.5 11.5L12 14L13.5 11.5" stroke="#292556" stroke-width="1.5" stroke-linecap="round" stroke-linejoin="round"/>
</svg>
