<svg width="24" height="24" viewBox="0 0 24 24" fill="none" xmlns="http://www.w3.org/2000/svg">
<path d="M9.72517 7.9796C9.68706 7.8448 9.66667 7.70256 9.66667 7.55556C9.66667 6.69645 10.3631 6 11.2222 6C11.5056 6 11.7712 6.07575 12 6.20811M9.72517 7.9796C9.02476 8.13109 8.5 8.75426 8.5 9.5C8.5 10.2457 9.02476 10.8689 9.72517 11.0204C9.68706 11.1552 9.66667 11.2974 9.66667 11.4444C9.66667 12.3036 10.3631 13 11.2222 13C11.5056 13 11.7712 12.9242 12 12.7919M9.72517 7.9796C9.78125 8.17799 9.8757 8.36026 10 8.51791M12 6.20811C12.2288 6.07575 12.4944 6 12.7778 6C13.6369 6 14.3333 6.69645 14.3333 7.55556C14.3333 7.70256 14.3129 7.8448 14.2748 7.9796C14.9752 8.13109 15.5 8.75426 15.5 9.5C15.5 10.2457 14.9752 10.8689 14.2748 11.0204M12 6.20811V12.7919M12 12.7919C12.2288 12.9242 12.4944 13 12.7778 13C13.6369 13 14.3333 12.3036 14.3333 11.4444C14.3333 11.2974 14.3129 11.1552 14.2748 11.0204M14.2748 11.0204C14.2188 10.822 14.1243 10.6397 14 10.4821M15 17H9M15 17V18C15 18.9319 15 19.3978 14.8478 19.7654C14.6448 20.2554 14.2554 20.6448 13.7654 20.8478C13.3978 21 12.9319 21 12 21V21C11.0681 21 10.6022 21 10.2346 20.8478C9.74458 20.6448 9.35523 20.2554 9.15224 19.7654C9 19.3978 9 18.9319 9 18V17M15 17V15.5M9 17V15.9927C9 15.6724 8.89929 15.3601 8.71212 15.1002L7.01166 12.7384C4.08414 8.67242 6.98974 3 12 3H12.2938C17.1814 3 20.0158 8.53355 17.16 12.5V12.5" stroke="#292556" stroke-width="1.5" stroke-linecap="round" stroke-linejoin="round"/>
</svg>
