<svg width="24" height="24" viewBox="0 0 24 24" fill="none" xmlns="http://www.w3.org/2000/svg">
<path d="M13 5H10.2C7.20021 5 5.70032 5 4.64886 5.76393C4.30928 6.01065 4.01065 6.30928 3.76393 6.64886C3 7.70032 3 9.20021 3 12.2L3 15C3 16.8638 3 17.7956 3.30448 18.5307C3.71046 19.5108 4.48915 20.2895 5.46927 20.6955C6.20435 21 7.13623 21 9 21V21M19 11V15.01C19 16.8644 19 17.7916 18.6985 18.5235C18.2924 19.5094 17.5094 20.2924 16.5235 20.6985C15.7916 21 14.8644 21 13.01 21V21H13M9.62277 14.3772L21 3M21 3L16.7335 3M21 3V7.26646" stroke="#292556" stroke-width="1.5" stroke-linecap="round" stroke-linejoin="round"/>
</svg>
