<svg width="24" height="24" viewBox="0 0 24 24" fill="none" xmlns="http://www.w3.org/2000/svg">
<path d="M15.0275 19.1665C14.6203 19.5249 14.2279 19.8496 13.8682 20.1353C13.1649 20.6939 12.8132 20.9732 12.2679 21.0468C12.1168 21.0673 11.8837 21.0673 11.7326 21.0469C11.1873 20.9732 10.8362 20.6944 10.1339 20.1367C7.98533 18.4306 4.66541 15.3259 4.00012 12C2.99997 7 7.02956 3 12.0001 3C16.9707 3 21 7 20.0001 12C19.6977 13.5121 18.8466 14.9784 17.8063 16.2884M15 11.15C15 12.8069 13.6569 14.15 12 14.15C10.3431 14.15 9 12.8069 9 11.15C9 9.49315 10.3431 8.15 12 8.15C13.6569 8.15 15 9.49315 15 11.15Z" stroke="#292556" stroke-width="1.5" stroke-linecap="round" stroke-linejoin="round"/>
</svg>
