<svg width="24" height="24" viewBox="0 0 24 24" fill="none" xmlns="http://www.w3.org/2000/svg">
<path d="M12 5V3M12 5C8.13401 5 5 8.13401 5 12M12 5C12.9186 5 13.7959 5.17694 14.5996 5.49859M5 12H3M5 12C5 15.866 8.13401 19 12 19M12 19L12 21M12 19C15.866 19 19 15.866 19 12M19 12L21 12M19 12C19 10.5128 18.5362 9.13383 17.7453 8M12 14.5C10.6193 14.5 9.5 13.3807 9.5 12C9.5 10.6193 10.6193 9.5 12 9.5C13.3807 9.5 14.5 10.6193 14.5 12C14.5 13.3807 13.3807 14.5 12 14.5Z" stroke="#292556" stroke-width="1.5" stroke-linecap="round" stroke-linejoin="round"/>
</svg>
