<svg width="24" height="24" viewBox="0 0 24 24" fill="none" xmlns="http://www.w3.org/2000/svg">
<path d="M7 8V8C7 5.23858 9.23858 3 12 3H14M21 13V12.5V12.5C21 12.0357 21 11.8035 20.9807 11.6079C20.7937 9.70882 19.2912 8.20631 17.3921 8.01926C17.1965 8 16.9643 8 16.5 8H9.5C7.16537 8 5.99805 8 5.11441 8.47231C4.4167 8.84525 3.84525 9.4167 3.47231 10.1144C3 10.9981 3 12.1654 3 14.5V14.5C3 16.8346 3 18.0019 3.47231 18.8856C3.84525 19.5833 4.4167 20.1548 5.11441 20.5277C5.99805 21 7.16537 21 9.5 21H17.1C19.2539 21 21 19.2539 21 17.1V17.1V17.0499M10 14.5V14.5C10 13.3954 10.8954 12.5 12 12.5V12.5C13.1046 12.5 14 13.3954 14 14.5V14.5C14 15.6046 13.1046 16.5 12 16.5V16.5C10.8954 16.5 10 15.6046 10 14.5Z" stroke="#292556" stroke-width="1.5" stroke-linecap="round" stroke-linejoin="round"/>
</svg>
