<svg width="24" height="24" viewBox="0 0 24 24" fill="none" xmlns="http://www.w3.org/2000/svg">
<path d="M10.3187 14.1979C11.6486 14.9656 13.2714 15.2259 14.8719 14.7971C15.9469 14.509 16.8751 13.9467 17.6015 13.2055M10.3187 14.1979C8.98869 13.4302 7.9516 12.1551 7.52275 10.5546C7.23469 9.47955 7.2577 8.39441 7.53661 7.39473M10.3187 14.1979L6.39207 21M9.03693 4.79704L8.43989 4.45234C7.72264 4.03825 6.80551 4.28385 6.3912 5.00097V5.00097C5.97671 5.71841 6.22244 6.63602 6.94 7.05029L7.53661 7.39473M9.03693 4.79704C9.7632 4.05613 10.6913 3.49396 11.766 3.20598C13.0972 2.84929 14.4438 2.96939 15.6245 3.46158M9.03693 4.79704L19.1015 10.6077M7.53661 7.39473L17.6015 13.2055M17.6015 13.2055L18.1978 13.5498C18.915 13.9639 19.8321 13.7183 20.2465 13.0012V13.0012C20.661 12.2838 20.4152 11.3661 19.6977 10.9519L19.1015 10.6077M19.1015 10.6077C19.3802 9.60818 19.4032 8.52328 19.1152 7.44845C18.9937 6.99519 18.8235 6.56803 18.6116 6.1711" stroke="#292556" stroke-width="1.5" stroke-linecap="round" stroke-linejoin="round"/>
</svg>
