<svg width="24" height="24" viewBox="0 0 24 24" fill="none" xmlns="http://www.w3.org/2000/svg">
<path d="M12 14H19.2C19.9499 14 20.3249 14 20.5878 13.809C20.6727 13.7473 20.7473 13.6727 20.809 13.5878C21 13.3249 21 12.9499 21 12.2V12M12 14H4.8C4.05005 14 3.67508 14 3.41221 13.809C3.32732 13.7473 3.25266 13.6727 3.19098 13.5878C3 13.3249 3 12.9499 3 12.2V11.2C3 8.20021 3 6.70032 3.76393 5.64886C4.01065 5.30928 4.30928 5.01065 4.64886 4.76393C5.70032 4 7.20021 4 10.2 4H17.01C17.9306 4 18.391 4 18.7689 4.1002C19.8103 4.37633 20.6237 5.18971 20.8998 6.23113C21 6.60904 21 7.06936 21 7.99V7.99V8M12 14V19.5C12 20.3284 12.6716 21 13.5 21V21C14.3284 21 15 20.3284 15 19.5V14" stroke="#292556" stroke-width="1.5" stroke-linecap="round" stroke-linejoin="round"/>
<path d="M6 8L9 8" stroke="#292556" stroke-width="1.5" stroke-linecap="round" stroke-linejoin="round"/>
<path d="M12 14V8.5C12 6.01472 9.98528 4 7.5 4C5.01472 4 3 6.01472 3 8.5V12.3333C3 12.9564 3 13.268 3.13397 13.5C3.22174 13.652 3.34798 13.7783 3.5 13.866C3.73205 14 4.04359 14 4.66667 14H12Z" stroke="#292556" stroke-width="1.5" stroke-linejoin="round"/>
</svg>
