<svg width="24" height="24" viewBox="0 0 24 24" fill="none" xmlns="http://www.w3.org/2000/svg">
<path d="M7 17V17C4.79086 17 3 15.2091 3 13V10.5C3 8.16537 3 6.99805 3.47231 6.11441C3.84525 5.4167 4.4167 4.84525 5.11441 4.47231C5.99805 4 7.16537 4 9.5 4H10M12 17H14.5C16.8346 17 18.0019 17 18.8856 16.5277C19.5833 16.1548 20.1548 15.5833 20.5277 14.8856C21 14.0019 21 12.8346 21 10.5V10.5C21 8.16537 21 6.99805 20.5277 6.11441C20.1548 5.4167 19.5833 4.84525 18.8856 4.47231C18.0019 4 16.8346 4 14.5 4H14" stroke="#292556" stroke-width="1.5" stroke-linecap="round" stroke-linejoin="round"/>
<path d="M7 17L6 20L12 17" stroke="#292556" stroke-width="1.5" stroke-linecap="round" stroke-linejoin="round"/>
<path d="M6 10.5C6 9.80964 6.55964 9.25 7.25 9.25V9.25C7.94036 9.25 8.5 9.80964 8.5 10.5V10.5C8.5 11.1904 7.94036 11.75 7.25 11.75V11.75C6.55964 11.75 6 11.1904 6 10.5V10.5Z" fill="#292556"/>
<path d="M10.75 10.5C10.75 9.80964 11.3096 9.25 12 9.25V9.25C12.6904 9.25 13.25 9.80964 13.25 10.5V10.5C13.25 11.1904 12.6904 11.75 12 11.75V11.75C11.3096 11.75 10.75 11.1904 10.75 10.5V10.5Z" fill="#292556"/>
<path d="M15.5 10.5C15.5 9.80964 16.0596 9.25 16.75 9.25V9.25C17.4404 9.25 18 9.80964 18 10.5V10.5C18 11.1904 17.4404 11.75 16.75 11.75V11.75C16.0596 11.75 15.5 11.1904 15.5 10.5V10.5Z" fill="#292556"/>
</svg>
