<svg width="24" height="24" viewBox="0 0 24 24" fill="none" xmlns="http://www.w3.org/2000/svg">
<path d="M10 4H9.5C7.16537 4 5.99805 4 5.11441 4.47231C4.4167 4.84525 3.84525 5.4167 3.47231 6.11441C3 6.99805 3 8.16537 3 10.5V11.5143C3 12.8965 3 13.5876 3.169 14.1504C3.5555 15.4375 4.5625 16.4445 5.8496 16.831C6.41239 17 7.1035 17 8.48571 17V17C8.62173 17 8.68974 17 8.75352 17.0111C8.89811 17.0362 9.03214 17.1033 9.13901 17.2038C9.18616 17.2482 9.22696 17.3026 9.30857 17.4114L9.84 18.12C10.7134 19.2845 11.15 19.8667 11.7234 19.9743C11.9062 20.0086 12.0938 20.0086 12.2766 19.9743C12.85 19.8667 13.2866 19.2845 14.16 18.12L14.6914 17.4114C14.773 17.3026 14.8138 17.2482 14.861 17.2038C14.9679 17.1033 15.1019 17.0362 15.2465 17.0111C15.3103 17 15.3783 17 15.5143 17V17C16.8965 17 17.5876 17 18.1504 16.831C19.4375 16.4445 20.4445 15.4375 20.831 14.1504C21 13.5876 21 12.8965 21 11.5143V10.5C21 8.16537 21 6.99805 20.5277 6.11441C20.1548 5.4167 19.5833 4.84525 18.8856 4.47231C18.0019 4 16.8346 4 14.5 4H14" stroke="#292556" stroke-width="1.5" stroke-linecap="round" stroke-linejoin="round"/>
</svg>
