<svg width="24" height="24" viewBox="0 0 24 24" fill="none" xmlns="http://www.w3.org/2000/svg">
<path d="M13.3443 5.81747L15.7954 6.64228C17.1937 7.1128 17.8928 7.34806 18.1616 7.55759C19.2601 8.41397 19.1687 10.103 17.9841 10.8358C17.6943 11.0151 16.9739 11.1735 15.533 11.4903V11.4903C15.3331 11.5343 15.2332 11.5563 15.1717 11.5894C14.9262 11.7216 14.8364 12.029 14.9719 12.2727C15.0059 12.3337 15.0782 12.4061 15.2229 12.5508L19.6715 16.9993C20.4128 17.7406 20.4128 18.9426 19.6715 19.6839V19.6839C18.9302 20.4252 17.7282 20.4252 16.9869 19.6839L12.5357 15.2327C12.3948 15.0917 12.3243 15.0212 12.2652 14.9878C12.0196 14.8488 11.7078 14.9403 11.5764 15.19C11.5447 15.2501 11.5235 15.3475 11.4811 15.5422V15.5422C11.1755 16.9463 11.0227 17.6483 10.8517 17.932C10.1237 19.1393 8.40862 19.2347 7.55126 18.1156C7.34983 17.8526 7.12009 17.1719 6.66063 15.8104L4.32129 8.87845C3.43061 6.23918 2.98527 4.91955 3.49316 4.1146C3.65182 3.86314 3.86457 3.65021 4.11589 3.49133C4.9204 2.98274 6.24042 3.42694 8.88045 4.31533L9.55322 4.54172" stroke="#292556" stroke-width="1.5" stroke-linecap="round" stroke-linejoin="round"/>
</svg>
