<svg width="24" height="24" viewBox="0 0 24 24" fill="none" xmlns="http://www.w3.org/2000/svg">
<path d="M10.0042 17.7195V17.7195C9.63874 18.7034 10.3665 19.75 11.416 19.75H19M12.9857 13V13C13.1889 12.9358 13.2904 12.9038 13.393 12.8773C13.6513 12.8105 13.9157 12.7697 14.1821 12.7556C14.288 12.75 14.3945 12.75 14.6075 12.75H14.843C16.7933 12.75 17.7685 12.75 18.5816 13.1353C18.9802 13.3242 19.3449 13.5778 19.6608 13.8857C20.3051 14.5138 20.6447 15.4279 21.3237 17.2562L21.3698 17.3802M8.33008 8.25C7.22551 8.25 6.33008 7.35457 6.33008 6.25C6.33008 5.14543 7.22551 4.25 8.33008 4.25C9.43465 4.25 10.3301 5.14543 10.3301 6.25C10.3301 7.35457 9.43465 8.25 8.33008 8.25ZM15.8301 10.25C14.7255 10.25 13.8301 9.35457 13.8301 8.25C13.8301 7.14543 14.7255 6.25 15.8301 6.25C16.9346 6.25 17.8301 7.14543 17.8301 8.25C17.8301 9.35457 16.9346 10.25 15.8301 10.25ZM5.96032 17.75H10.5397C11.0872 17.75 11.3609 17.75 11.5645 17.7162C12.9518 17.4855 13.876 16.1564 13.6091 14.7756C13.57 14.573 13.4747 14.3164 13.284 13.8031V13.8031C13.1253 13.3759 13.046 13.1623 12.9537 12.9759C12.3451 11.7459 11.1484 10.9139 9.78358 10.7716C9.5767 10.75 9.34883 10.75 8.89307 10.75H7.60693C7.15117 10.75 6.9233 10.75 6.71642 10.7716C5.35155 10.9139 4.15492 11.7459 3.54627 12.9759C3.45401 13.1623 3.37467 13.3759 3.21598 13.8031V13.8031C3.02535 14.3164 2.93003 14.573 2.89087 14.7756C2.62401 16.1564 3.54819 17.4855 4.9355 17.7162C5.13908 17.75 5.41283 17.75 5.96032 17.75Z" stroke="#292556" stroke-width="1.5" stroke-linecap="round" stroke-linejoin="round"/>
</svg>
