<svg width="24" height="24" viewBox="0 0 24 24" fill="none" xmlns="http://www.w3.org/2000/svg">
<path d="M19 7.5H8.5M19 12H17M8.5 12H14M19 16.5H8.5" stroke="#292556" stroke-width="1.5" stroke-linecap="round" stroke-linejoin="round"/>
<path d="M6.36467 16.5C6.57741 16.5 6.74987 16.3321 6.74987 16.125C6.74987 15.9179 6.57741 15.75 6.36467 15.75C6.19695 15.75 6.05427 15.8544 6.00139 16M6.36315 16.5C6.57589 16.5 6.74834 16.6679 6.74834 16.875C6.74834 17.0821 6.57589 17.25 6.36315 17.25C6.19543 17.25 6.05275 17.1456 5.99987 17M5.79883 11.675C5.79883 11.4403 5.98911 11.25 6.22383 11.25C6.45855 11.25 6.64883 11.4403 6.64883 11.675C6.64883 11.7924 6.60126 11.8986 6.52435 11.9755C6.44744 12.0524 5.79987 12.75 5.79987 12.75H6.74987M6.49987 8.25V6.75L5.99987 7.25" stroke="#292556" stroke-width="0.5" stroke-linecap="round" stroke-linejoin="round"/>
</svg>
