<svg width="24" height="24" viewBox="0 0 24 24" fill="none" xmlns="http://www.w3.org/2000/svg">
<path fill-rule="evenodd" clip-rule="evenodd" d="M9.48442 10.2521L4.59689 15.1397C4.52494 15.2116 4.46838 15.2975 4.43066 15.392L2.30346 20.7215C2.19232 21 2.25769 21.3179 2.46969 21.5299C2.68169 21.7419 2.99959 21.8073 3.27804 21.6961L8.6076 19.5689C8.70211 19.5312 8.78795 19.4746 8.85991 19.4027L10.0353 18.2273C10.3282 17.9344 10.3282 17.4595 10.0353 17.1666C9.74244 16.8737 9.26757 16.8737 8.97467 17.1666L8.84633 17.2949L8.64483 15.9817C8.59514 15.6578 8.34097 15.4037 8.0171 15.3541L6.70488 15.153L10.5451 11.3128L9.48442 10.2521ZM14.4545 11.6867L18.3438 7.79743L16.2021 5.65574L12.3128 9.54503L11.2522 8.48437L15.6718 4.06474L16.6662 3.0704C17.8434 1.8932 19.752 1.8932 20.9292 3.0704C22.1064 4.2476 22.1064 6.15621 20.9292 7.33341L19.9348 8.32776L15.5152 12.7474L14.4545 11.6867ZM12.6868 13.4545L11.803 14.3383C11.5101 14.6311 11.5101 15.106 11.803 15.3989C12.0959 15.6918 12.5708 15.6918 12.8637 15.3989L13.7474 14.5152L12.6868 13.4545ZM7.24568 16.7534L7.49783 18.3968L4.34397 19.6556L5.60282 16.5016L7.24568 16.7534ZM19.4045 6.73677L17.2628 4.59507L17.7268 4.13106C18.3182 3.53965 19.2771 3.53965 19.8685 4.13106C20.4599 4.72247 20.4599 5.68134 19.8685 6.27275L19.4045 6.73677Z" fill="#292556"/>
<path d="M21 21L3 3" stroke="#292556" stroke-width="1.5" stroke-linecap="round" stroke-linejoin="round"/>
</svg>
