<svg width="24" height="24" viewBox="0 0 24 24" fill="none" xmlns="http://www.w3.org/2000/svg">
<path d="M18.2997 17.7466L17.6784 19.2998C17.3871 20.028 17.2415 20.3921 16.9665 20.6305C16.8764 20.7086 16.7774 20.7756 16.6715 20.8302C16.348 20.9971 15.9558 20.9971 15.1715 20.9971H8.8275C8.04321 20.9971 7.65107 20.9971 7.32757 20.8302C7.22165 20.7756 7.12262 20.7086 7.03257 20.6305C6.75753 20.3921 6.61189 20.028 6.32061 19.2998L3.70384 12.7579C3.40232 12.0041 3.25156 11.6272 3.29248 11.2545C3.30586 11.1326 3.33414 11.0128 3.37668 10.8978C3.50675 10.5462 3.81015 10.2765 4.41694 9.73713L10.2057 4.59154C10.9608 3.92038 11.3383 3.58479 11.7823 3.51982C11.9263 3.49873 12.0727 3.49873 12.2167 3.51982C12.6607 3.58479 13.0382 3.92038 13.7933 4.59154L19.5821 9.73713C20.1889 10.2765 20.4923 10.5462 20.6223 10.8978C20.6649 11.0128 20.6932 11.1326 20.7065 11.2545C20.7475 11.6272 20.5967 12.0041 20.2952 12.7579L19.7853 14.0327" stroke="#292556" stroke-width="1.5" stroke-linecap="round" stroke-linejoin="round"/>
</svg>
