<svg width="24" height="24" viewBox="0 0 24 24" fill="none" xmlns="http://www.w3.org/2000/svg">
<path d="M4.02513 4.07256L3.4949 3.54213L3.4949 3.54213L4.02513 4.07256ZM8.97487 4.07256L9.5051 3.54213L8.97487 4.07256ZM8.97487 9.02037L8.44465 8.48994L8.44465 8.48994L8.97487 9.02037ZM14.9853 15.0284L14.4551 14.498L14.4551 14.498L14.9853 15.0284ZM19.935 19.9763L19.4048 19.4458L19.4048 19.4458L19.935 19.9763ZM7.56066 16.4421L7.03043 16.9725L7.56066 16.4421ZM3.01853 6.90711L3.76852 6.90286C3.76838 6.8786 3.76707 6.85436 3.76458 6.83022L3.01853 6.90711ZM17.0994 20.9825L17.1762 20.2364C17.1521 20.2339 17.1279 20.2326 17.1036 20.2325L17.0994 20.9825ZM7.05559 10.001L6.9372 9.2604C6.69728 9.29875 6.49081 9.45095 6.38319 9.66878C6.27556 9.88661 6.28013 10.1431 6.39544 10.3569L7.05559 10.001ZM14.0043 16.947L13.6486 17.6072C13.8624 17.7225 14.1188 17.727 14.3366 17.6193C14.5543 17.5117 14.7065 17.3053 14.7449 17.0654L14.0043 16.947ZM12.5256 2.25112C12.1114 2.24304 11.7691 2.57222 11.7611 2.98635C11.753 3.40049 12.0822 3.74276 12.4963 3.75083L12.5256 2.25112ZM18.5213 5.47488L17.9911 6.00532L17.9911 6.00532L18.5213 5.47488ZM20.2463 11.4976C20.2544 11.9117 20.5967 12.2409 21.0108 12.2328C21.425 12.2247 21.7541 11.8824 21.7461 11.4683L20.2463 11.4976ZM16.4044 7.60018L16.9346 7.06975L16.4044 7.60018ZM17.1077 11.1299C17.1298 11.5435 17.4831 11.8609 17.8967 11.8388C18.3103 11.8166 18.6277 11.4634 18.6055 11.0497L17.1077 11.1299ZM12.9397 5.39891C12.526 5.37753 12.1733 5.69554 12.152 6.1092C12.1306 6.52286 12.4486 6.87553 12.8623 6.89691L12.9397 5.39891ZM12.6456 8.44222C12.2321 8.46758 11.9175 8.8233 11.9429 9.23673C11.9682 9.65017 12.324 9.96477 12.7374 9.9394L12.6456 8.44222ZM14.0642 11.2653C14.0388 11.6788 14.3534 12.0345 14.7668 12.0599C15.1803 12.0853 15.536 11.7707 15.5614 11.3573L14.0642 11.2653ZM8.11244 12.9431C8.37099 13.2667 8.84292 13.3194 9.16654 13.0609C9.49015 12.8023 9.54289 12.3304 9.28434 12.0068L8.11244 12.9431ZM11.9948 14.7173C11.6712 14.4588 11.1992 14.5117 10.9408 14.8353C10.6823 15.159 10.7351 15.6309 11.0588 15.8894L11.9948 14.7173ZM4.55535 4.60299C5.62932 3.52945 7.37068 3.52945 8.44465 4.60299L9.5051 3.54213C7.8454 1.88307 5.1546 1.88307 3.4949 3.54213L4.55535 4.60299ZM8.44465 4.60299C9.51845 5.67638 9.51845 7.41656 8.44465 8.48994L9.5051 9.55081C11.165 7.89159 11.165 5.20134 9.5051 3.54213L8.44465 4.60299ZM15.5155 15.5589C16.5895 14.4853 18.3308 14.4853 19.4048 15.5589L20.4653 14.498C18.8055 12.8389 16.1148 12.8389 14.4551 14.498L15.5155 15.5589ZM19.4048 15.5589C20.4786 16.6323 20.4786 18.3724 19.4048 19.4458L20.4653 20.5067C22.1251 18.8475 22.1251 16.1572 20.4653 14.498L19.4048 15.5589ZM8.09089 15.9117C5.26504 13.0869 3.78435 9.69243 3.76852 6.90286L2.26854 6.91137C2.28711 10.1823 3.99291 13.9362 7.03043 16.9725L8.09089 15.9117ZM3.76458 6.83022C3.6825 6.03382 3.94644 5.21167 4.55535 4.60299L3.4949 3.54213C2.5532 4.48346 2.14608 5.75758 2.27248 6.98401L3.76458 6.83022ZM19.4048 19.4458C18.7959 20.0545 17.9732 20.3185 17.1762 20.2364L17.0225 21.7285C18.2491 21.8548 19.5236 21.448 20.4653 20.5067L19.4048 19.4458ZM17.1036 20.2325C14.3127 20.2166 10.9167 18.7364 8.09089 15.9117L7.03043 16.9725C10.068 20.0089 13.8232 21.7139 17.0951 21.7324L17.1036 20.2325ZM8.44465 8.48994C8.01844 8.91598 7.48913 9.17217 6.9372 9.2604L7.17398 10.7416C8.02737 10.6052 8.84804 10.2076 9.5051 9.55081L8.44465 8.48994ZM14.7449 17.0654C14.8331 16.5139 15.0893 15.9849 15.5155 15.5589L14.4551 14.498C13.798 15.1548 13.4002 15.9752 13.2637 16.8285L14.7449 17.0654ZM12.4963 3.75083C14.5739 3.79136 16.5268 4.54157 17.9911 6.00532L19.0516 4.94445C17.2848 3.17843 14.9488 2.29839 12.5256 2.25112L12.4963 3.75083ZM17.9911 6.00532C19.4554 7.46905 20.2058 9.421 20.2463 11.4976L21.7461 11.4683C21.6988 9.04575 20.8183 6.7105 19.0516 4.94445L17.9911 6.00532ZM15.8742 8.13062C16.6261 8.88221 17.0426 9.91396 17.1077 11.1299L18.6055 11.0497C18.5244 9.53372 17.9938 8.12848 16.9346 7.06975L15.8742 8.13062ZM12.8623 6.89691C14.0837 6.96004 15.12 7.37675 15.8742 8.13062L16.9346 7.06975C15.8723 6.00781 14.4613 5.47755 12.9397 5.39891L12.8623 6.89691ZM12.7374 9.9394C13.2053 9.9107 13.5406 10.0399 13.7522 10.2514L14.8127 9.1905C14.2267 8.60473 13.4316 8.394 12.6456 8.44222L12.7374 9.9394ZM13.7522 10.2514C13.9638 10.4628 14.0929 10.7979 14.0642 11.2653L15.5614 11.3573C15.6096 10.5713 15.3987 9.77631 14.8127 9.1905L13.7522 10.2514ZM9.28434 12.0068C8.67114 11.2393 8.14722 10.4453 7.71575 9.64506L6.39544 10.3569C6.87072 11.2384 7.4447 12.1073 8.11244 12.9431L9.28434 12.0068ZM14.36 16.2867C13.5585 15.8549 12.7631 15.3309 11.9948 14.7173L11.0588 15.8894C11.8958 16.5578 12.7661 17.1318 13.6486 17.6072L14.36 16.2867Z" fill="#292556"/>
</svg>
