<svg width="24" height="24" viewBox="0 0 24 24" fill="none" xmlns="http://www.w3.org/2000/svg">
<path d="M21 10.1231L21.75 10.1232L21.75 10.1232L21 10.1231ZM18.1995 12.995L18.1996 13.745L18.1995 12.995ZM15.4 10.1242L16.15 10.1243L16.15 10.1243L15.4 10.1242ZM8.6 10.1255L9.35 10.1257L9.35 10.1257L8.6 10.1255ZM3 10.1267L3.75 10.1268L3.75 10.1268L3 10.1267ZM19.9657 7.89438L19.4318 8.42103C19.4488 8.43835 19.4668 8.45482 19.4854 8.4704L19.9657 7.89438ZM4.0351 7.89757L4.51546 8.47355C4.53412 8.45798 4.55202 8.44152 4.56908 8.42422L4.0351 7.89757ZM15.9311 8.44162L16.5437 8.87433C16.6824 8.67792 16.7186 8.4269 16.6409 8.19932C16.5632 7.97175 16.3811 7.79523 16.1512 7.72465L15.9311 8.44162ZM8.06955 8.4432L7.84918 7.7263C7.61939 7.79694 7.43738 7.97345 7.35974 8.20097C7.2821 8.4285 7.31823 8.67945 7.45691 8.87583L8.06955 8.4432ZM10.1077 5.88285C10.5176 5.82335 10.8017 5.44281 10.7422 5.03289C10.6827 4.62298 10.3022 4.3389 9.89227 4.3984L10.1077 5.88285ZM14.1152 4.39841C13.7053 4.3389 13.3247 4.62296 13.2652 5.03287C13.2057 5.44279 13.4898 5.82333 13.8997 5.88284L14.1152 4.39841ZM20.25 10.1229C20.2498 11.3125 19.3139 12.2447 18.1993 12.245L18.1996 13.745C20.1778 13.7446 21.7496 12.1052 21.75 10.1232L20.25 10.1229ZM18.1993 12.245C17.0849 12.2452 16.1498 11.3137 16.15 10.1243L14.65 10.124C14.6496 12.1063 16.2212 13.7454 18.1996 13.745L18.1993 12.245ZM7.85 10.1254C7.84977 11.315 6.91393 12.2472 5.7993 12.2475L5.7996 13.7475C7.77777 13.7471 9.34962 12.1077 9.35 10.1257L7.85 10.1254ZM5.7993 12.2475C4.68492 12.2477 3.74977 11.3162 3.75 10.1268L2.25 10.1265C2.24962 12.1087 3.82119 13.7479 5.7996 13.7475L5.7993 12.2475ZM19.4854 8.4704C19.95 8.85777 20.2501 9.45144 20.25 10.1229L21.75 10.1232C21.7502 8.99566 21.244 7.98369 20.4461 7.31836L19.4854 8.4704ZM3.75 10.1268C3.75013 9.4553 4.05053 8.8613 4.51546 8.47355L3.55474 7.32158C2.75681 7.98705 2.25021 8.99901 2.25 10.1265L3.75 10.1268ZM16.15 10.1243C16.1501 9.65456 16.2969 9.22373 16.5437 8.87433L15.3185 8.00892C14.8973 8.60524 14.6501 9.337 14.65 10.124L16.15 10.1243ZM12.0006 8.61881C13.3286 8.61854 14.5847 8.8128 15.711 9.15859L16.1512 7.72465C14.8782 7.33379 13.4733 7.11851 12.0003 7.11881L12.0006 8.61881ZM7.45691 8.87583C7.70347 9.22498 7.85009 9.65565 7.85 10.1254L9.35 10.1257C9.35015 9.33864 9.10329 8.60687 8.68219 8.01057L7.45691 8.87583ZM8.28992 9.16009C9.41636 8.81383 10.6725 8.61907 12.0006 8.61881L12.0003 7.11881C10.5272 7.1191 9.12234 7.33495 7.84918 7.7263L8.28992 9.16009ZM4.56908 8.42422C5.7996 7.17658 7.75982 6.22364 10.1077 5.88285L9.89227 4.3984C7.29136 4.77591 5.0067 5.84438 3.50112 7.37091L4.56908 8.42422ZM13.8997 5.88284C16.2451 6.22335 18.2028 7.17499 19.4318 8.42103L20.4997 7.36772C18.9957 5.84275 16.7135 4.77563 14.1152 4.39841L13.8997 5.88284Z" fill="#292556"/>
<path d="M12 13V19M12 19L9.5 16.5M12 19L14.5 16.5" stroke="#292556" stroke-width="1.5" stroke-linecap="round" stroke-linejoin="round"/>
</svg>
