<svg width="24" height="24" viewBox="0 0 24 24" fill="none" xmlns="http://www.w3.org/2000/svg">
<path d="M21 16.6221L21.75 16.6222L21.75 16.6222L21 16.6221ZM18.1995 19.494L18.1996 20.244L18.1995 19.494ZM15.4 16.6232L16.15 16.6234L16.15 16.6234L15.4 16.6232ZM8.6 16.6246L9.35 16.6247L9.35 16.6247L8.6 16.6246ZM3 16.6257L3.75 16.6258L3.75 16.6258L3 16.6257ZM19.9657 14.3934L19.4318 14.9201C19.4488 14.9374 19.4668 14.9538 19.4854 14.9694L19.9657 14.3934ZM4.0351 14.3966L4.51546 14.9726C4.53412 14.957 4.55202 14.9405 4.56908 14.9232L4.0351 14.3966ZM15.9311 14.9406L16.5437 15.3734C16.6824 15.1769 16.7186 14.9259 16.6409 14.6983C16.5632 14.4708 16.3811 14.2943 16.1512 14.2237L15.9311 14.9406ZM8.06955 14.9422L7.84918 14.2253C7.61939 14.296 7.43738 14.4725 7.35974 14.7C7.2821 14.9275 7.31823 15.1785 7.45691 15.3748L8.06955 14.9422ZM10.1077 12.3819C10.5176 12.3224 10.8017 11.9418 10.7422 11.5319C10.6827 11.122 10.3022 10.8379 9.89227 10.8974L10.1077 12.3819ZM14.1152 10.8974C13.7053 10.8379 13.3247 11.122 13.2652 11.5319C13.2057 11.9418 13.4898 12.3224 13.8997 12.3819L14.1152 10.8974ZM20.25 16.6219C20.2498 17.8115 19.3139 18.7438 18.1993 18.744L18.1996 20.244C20.1778 20.2436 21.7496 18.6042 21.75 16.6222L20.25 16.6219ZM18.1993 18.744C17.0849 18.7442 16.1498 17.8127 16.15 16.6234L14.65 16.6231C14.6496 18.6053 16.2212 20.2444 18.1996 20.244L18.1993 18.744ZM7.85 16.6244C7.84977 17.814 6.91393 18.7463 5.7993 18.7465L5.7996 20.2465C7.77777 20.2461 9.34962 18.6067 9.35 16.6247L7.85 16.6244ZM5.7993 18.7465C4.68492 18.7467 3.74977 17.8152 3.75 16.6258L2.25 16.6255C2.24962 18.6078 3.82119 20.2469 5.7996 20.2465L5.7993 18.7465ZM19.4854 14.9694C19.95 15.3568 20.2501 15.9505 20.25 16.6219L21.75 16.6222C21.7502 15.4947 21.244 14.4827 20.4461 13.8174L19.4854 14.9694ZM3.75 16.6258C3.75013 15.9543 4.05053 15.3603 4.51546 14.9726L3.55474 13.8206C2.75681 14.4861 2.25021 15.498 2.25 16.6255L3.75 16.6258ZM16.15 16.6234C16.1501 16.1536 16.2969 15.7228 16.5437 15.3734L15.3185 14.5079C14.8973 15.1043 14.6501 15.836 14.65 16.6231L16.15 16.6234ZM12.0006 15.1178C13.3286 15.1176 14.5847 15.3118 15.711 15.6576L16.1512 14.2237C14.8782 13.8328 13.4733 13.6175 12.0003 13.6178L12.0006 15.1178ZM7.45691 15.3748C7.70347 15.724 7.85009 16.1547 7.85 16.6244L9.35 16.6247C9.35015 15.8377 9.10329 15.1059 8.68219 14.5096L7.45691 15.3748ZM8.28992 15.6591C9.41636 15.3129 10.6725 15.1181 12.0006 15.1178L12.0003 13.6178C10.5272 13.6181 9.12234 13.834 7.84918 14.2253L8.28992 15.6591ZM4.56908 14.9232C5.7996 13.6756 7.75982 12.7227 10.1077 12.3819L9.89227 10.8974C7.29136 11.2749 5.0067 12.3434 3.50112 13.8699L4.56908 14.9232ZM13.8997 12.3819C16.2451 12.7224 18.2028 13.674 19.4318 14.9201L20.4997 13.8667C18.9957 12.3418 16.7135 11.2746 14.1152 10.8974L13.8997 12.3819Z" fill="#292556"/>
<path d="M7 4.5L9.45442 6.95442C10.515 8.015 11.0453 8.54529 11.6871 8.64695C11.8944 8.67978 12.1056 8.67978 12.3129 8.64695C12.9547 8.54529 13.485 8.015 14.5456 6.95442L17 4.5M7 4.5V8M7 4.5H10.5" stroke="#292556" stroke-width="1.5" stroke-linecap="round" stroke-linejoin="round"/>
</svg>
