<svg width="24" height="24" viewBox="0 0 24 24" fill="none" xmlns="http://www.w3.org/2000/svg">
<path d="M18.25 4.5V4.5C18.25 4.96731 18.25 5.20096 18.1495 5.375C18.0837 5.48901 17.989 5.58369 17.875 5.64952C17.701 5.75 17.4673 5.75 17 5.75V5.75C16.5327 5.75 16.299 5.75 16.125 5.64952C16.011 5.58369 15.9163 5.48901 15.8505 5.375C15.75 5.20096 15.75 4.96731 15.75 4.5V3.875C15.75 3.52982 16.0298 3.25 16.375 3.25V3.25M12 20.75V20.75C12.4673 20.75 12.701 20.75 12.875 20.6495C12.989 20.5837 13.0837 20.489 13.1495 20.375C13.25 20.201 13.25 19.9673 13.25 19.5V19.5C13.25 19.0327 13.25 18.799 13.1495 18.625C13.0837 18.511 12.989 18.4163 12.875 18.3505C12.701 18.25 12.4673 18.25 12 18.25V18.25C11.5327 18.25 11.299 18.25 11.125 18.3505C11.011 18.4163 10.9163 18.511 10.8505 18.625C10.75 18.799 10.75 19.0327 10.75 19.5V19.5C10.75 19.9673 10.75 20.201 10.8505 20.375C10.9163 20.489 11.011 20.5837 11.125 20.6495C11.299 20.75 11.5327 20.75 12 20.75ZM17 15.75V15.75C17.4673 15.75 17.701 15.75 17.875 15.6495C17.989 15.5837 18.0837 15.489 18.1495 15.375C18.25 15.201 18.25 14.9673 18.25 14.5V14.5C18.25 14.0327 18.25 13.799 18.1495 13.625C18.0837 13.511 17.989 13.4163 17.875 13.3505C17.701 13.25 17.4673 13.25 17 13.25V13.25C16.5327 13.25 16.299 13.25 16.125 13.3505C16.011 13.4163 15.9163 13.511 15.8505 13.625C15.75 13.799 15.75 14.0327 15.75 14.5V14.5C15.75 14.9673 15.75 15.201 15.8505 15.375C15.9163 15.489 16.011 15.5837 16.125 15.6495C16.299 15.75 16.5327 15.75 17 15.75ZM12 15.75V15.75C12.4673 15.75 12.701 15.75 12.875 15.6495C12.989 15.5837 13.0837 15.489 13.1495 15.375C13.25 15.201 13.25 14.9673 13.25 14.5V14.5C13.25 14.0327 13.25 13.799 13.1495 13.625C13.0837 13.511 12.989 13.4163 12.875 13.3505C12.701 13.25 12.4673 13.25 12 13.25V13.25C11.5327 13.25 11.299 13.25 11.125 13.3505C11.011 13.4163 10.9163 13.511 10.8505 13.625C10.75 13.799 10.75 14.0327 10.75 14.5V14.5C10.75 14.9673 10.75 15.201 10.8505 15.375C10.9163 15.489 11.011 15.5837 11.125 15.6495C11.299 15.75 11.5327 15.75 12 15.75ZM7 15.75V15.75C7.46731 15.75 7.70096 15.75 7.875 15.6495C7.98901 15.5837 8.08369 15.489 8.14952 15.375C8.25 15.201 8.25 14.9673 8.25 14.5V14.5C8.25 14.0327 8.25 13.799 8.14952 13.625C8.08369 13.511 7.98901 13.4163 7.875 13.3505C7.70096 13.25 7.46731 13.25 7 13.25V13.25C6.53269 13.25 6.29904 13.25 6.125 13.3505C6.01099 13.4163 5.91631 13.511 5.85048 13.625C5.75 13.799 5.75 14.0327 5.75 14.5V14.5C5.75 14.9673 5.75 15.201 5.85048 15.375C5.91631 15.489 6.01099 15.5837 6.125 15.6495C6.29904 15.75 6.53269 15.75 7 15.75ZM17 10.75V10.75C17.4673 10.75 17.701 10.75 17.875 10.6495C17.989 10.5837 18.0837 10.489 18.1495 10.375C18.25 10.201 18.25 9.96731 18.25 9.5V9.5C18.25 9.03269 18.25 8.79904 18.1495 8.625C18.0837 8.51099 17.989 8.41631 17.875 8.35048C17.701 8.25 17.4673 8.25 17 8.25V8.25C16.5327 8.25 16.299 8.25 16.125 8.35048C16.011 8.41631 15.9163 8.51099 15.8505 8.625C15.75 8.79904 15.75 9.03269 15.75 9.5V9.5C15.75 9.96731 15.75 10.201 15.8505 10.375C15.9163 10.489 16.011 10.5837 16.125 10.6495C16.299 10.75 16.5327 10.75 17 10.75ZM12 10.75V10.75C12.4673 10.75 12.701 10.75 12.875 10.6495C12.989 10.5837 13.0837 10.489 13.1495 10.375C13.25 10.201 13.25 9.96731 13.25 9.5V9.5C13.25 9.03269 13.25 8.79904 13.1495 8.625C13.0837 8.51099 12.989 8.41631 12.875 8.35048C12.701 8.25 12.4673 8.25 12 8.25V8.25C11.5327 8.25 11.299 8.25 11.125 8.35048C11.011 8.41631 10.9163 8.51099 10.8505 8.625C10.75 8.79904 10.75 9.03269 10.75 9.5V9.5C10.75 9.96731 10.75 10.201 10.8505 10.375C10.9163 10.489 11.011 10.5837 11.125 10.6495C11.299 10.75 11.5327 10.75 12 10.75ZM7 10.75V10.75C7.46731 10.75 7.70096 10.75 7.875 10.6495C7.98901 10.5837 8.08369 10.489 8.14952 10.375C8.25 10.201 8.25 9.96731 8.25 9.5V9.5C8.25 9.03269 8.25 8.79904 8.14952 8.625C8.08369 8.51099 7.98901 8.41631 7.875 8.35048C7.70096 8.25 7.46731 8.25 7 8.25V8.25C6.53269 8.25 6.29904 8.25 6.125 8.35048C6.01099 8.41631 5.91631 8.51099 5.85048 8.625C5.75 8.79904 5.75 9.03269 5.75 9.5V9.5C5.75 9.96731 5.75 10.201 5.85048 10.375C5.91631 10.489 6.01099 10.5837 6.125 10.6495C6.29904 10.75 6.53269 10.75 7 10.75ZM12 5.75V5.75C12.4673 5.75 12.701 5.75 12.875 5.64952C12.989 5.58369 13.0837 5.48901 13.1495 5.375C13.25 5.20096 13.25 4.96731 13.25 4.5V4.5C13.25 4.03269 13.25 3.79904 13.1495 3.625C13.0837 3.51099 12.989 3.41631 12.875 3.35048C12.701 3.25 12.4673 3.25 12 3.25V3.25C11.5327 3.25 11.299 3.25 11.125 3.35048C11.011 3.41631 10.9163 3.51099 10.8505 3.625C10.75 3.79904 10.75 4.03269 10.75 4.5V4.5C10.75 4.96731 10.75 5.20096 10.8505 5.375C10.9163 5.48901 11.011 5.58369 11.125 5.64952C11.299 5.75 11.5327 5.75 12 5.75ZM7 5.75V5.75C7.46731 5.75 7.70096 5.75 7.875 5.64952C7.98901 5.58369 8.08369 5.48901 8.14952 5.375C8.25 5.20096 8.25 4.96731 8.25 4.5V4.5C8.25 4.03269 8.25 3.79904 8.14952 3.625C8.08369 3.51099 7.98901 3.41631 7.875 3.35048C7.70096 3.25 7.46731 3.25 7 3.25V3.25C6.53269 3.25 6.29904 3.25 6.125 3.35048C6.01099 3.41631 5.91631 3.51099 5.85048 3.625C5.75 3.79904 5.75 4.03269 5.75 4.5V4.5C5.75 4.96731 5.75 5.20096 5.85048 5.375C5.91631 5.48901 6.01099 5.58369 6.125 5.64952C6.29904 5.75 6.53269 5.75 7 5.75Z" stroke="#292556" stroke-width="1.5" stroke-linecap="round" stroke-linejoin="round"/>
</svg>
