<svg width="24" height="24" viewBox="0 0 24 24" fill="none" xmlns="http://www.w3.org/2000/svg">
<path d="M19.935 4.07258L20.4653 3.54214L20.4653 3.54214L19.935 4.07258ZM14.9853 9.02039L15.5155 8.48996L15.5155 8.48996L14.9853 9.02039ZM8.97487 15.0285L8.44465 15.5589L8.44465 15.5589L8.97487 15.0285ZM4.02513 19.9763L3.4949 20.5067L3.4949 20.5067L4.02513 19.9763ZM16.3995 16.4421L16.9297 16.9725L16.9297 16.9725L16.3995 16.4421ZM20.9416 6.90713L20.1956 6.83024C20.1931 6.85437 20.1918 6.87861 20.1916 6.90288L20.9416 6.90713ZM6.86079 20.9825L6.85653 20.2325C6.83229 20.2326 6.80807 20.2339 6.78395 20.2364L6.86079 20.9825ZM16.9046 10.001L17.5647 10.357C17.68 10.1431 17.6846 9.88663 17.577 9.6688C17.4693 9.45097 17.2629 9.29877 17.023 9.26042L16.9046 10.001ZM9.95588 16.947L9.2153 17.0655C9.25367 17.3053 9.40583 17.5117 9.62359 17.6194C9.84136 17.727 10.0978 17.7225 10.3116 17.6073L9.95588 16.947ZM14.6758 12.0068C14.4173 12.3304 14.47 12.8023 14.7936 13.0609C15.1172 13.3194 15.5892 13.2667 15.8477 12.9431L14.6758 12.0068ZM12.9014 15.8894C13.225 15.6309 13.2779 15.159 13.0194 14.8353C12.7609 14.5117 12.289 14.4588 11.9653 14.7173L12.9014 15.8894ZM20.4653 3.54214C18.8056 1.88309 16.1148 1.88309 14.4551 3.54214L15.5155 4.60301C16.5895 3.52946 18.3308 3.52946 19.4048 4.60301L20.4653 3.54214ZM14.4551 3.54214C12.7952 5.20136 12.7952 7.89161 14.4551 9.55083L15.5155 8.48996C14.4417 7.41657 14.4417 5.6764 15.5155 4.60301L14.4551 3.54214ZM9.5051 14.498C7.8454 12.839 5.1546 12.839 3.4949 14.498L4.55535 15.5589C5.62932 14.4853 7.37068 14.4853 8.44465 15.5589L9.5051 14.498ZM3.4949 14.498C1.83503 16.1572 1.83503 18.8475 3.4949 20.5067L4.55535 19.4458C3.48155 18.3725 3.48155 16.6323 4.55535 15.5589L3.4949 14.498ZM16.9297 16.9725C19.9672 13.9362 21.673 10.1823 21.6916 6.91139L20.1916 6.90288C20.1758 9.69245 18.6951 13.0869 15.8693 15.9117L16.9297 16.9725ZM21.6877 6.98403C21.8141 5.7576 21.407 4.48348 20.4653 3.54214L19.4048 4.60301C20.0137 5.21168 20.2777 6.03384 20.1956 6.83024L21.6877 6.98403ZM3.4949 20.5067C4.43658 21.448 5.71102 21.8548 6.93762 21.7285L6.78395 20.2364C5.98694 20.3185 5.16429 20.0545 4.55535 19.4458L3.4949 20.5067ZM6.86504 21.7325C10.1369 21.7139 13.8922 20.0089 16.9297 16.9725L15.8693 15.9117C13.0434 18.7364 9.6475 20.2167 6.85653 20.2325L6.86504 21.7325ZM14.4551 9.55083C15.1121 10.2076 15.9328 10.6052 16.7862 10.7416L17.023 9.26042C16.471 9.17219 15.9417 8.916 15.5155 8.48996L14.4551 9.55083ZM10.6965 16.8285C10.56 15.9753 10.1622 15.1548 9.5051 14.498L8.44465 15.5589C8.87085 15.9849 9.12706 16.5139 9.2153 17.0655L10.6965 16.8285ZM15.8477 12.9431C16.5155 12.1073 17.0894 11.2384 17.5647 10.357L16.2444 9.64507C15.8129 10.4453 15.289 11.2393 14.6758 12.0068L15.8477 12.9431ZM10.3116 17.6073C11.1941 17.1318 12.0644 16.5578 12.9014 15.8894L11.9653 14.7173C11.197 15.3309 10.4017 15.8549 9.60015 16.2867L10.3116 17.6073Z" fill="#292556"/>
</svg>
