<svg width="24" height="24" viewBox="0 0 24 24" fill="none" xmlns="http://www.w3.org/2000/svg">
<path d="M21 13.126L21.75 13.1261L21.75 13.1261L21 13.126ZM18.1995 15.9979L18.1996 16.7479L18.1995 15.9979ZM15.4 13.1271L16.15 13.1273L16.15 13.1273L15.4 13.1271ZM8.6 13.1285L9.35 13.1286L9.35 13.1286L8.6 13.1285ZM3 13.1296L3.75 13.1297L3.75 13.1297L3 13.1296ZM19.9657 10.8973L19.4318 11.424C19.4488 11.4413 19.4668 11.4578 19.4854 11.4733L19.9657 10.8973ZM4.0351 10.9005L4.51546 11.4765C4.53412 11.4609 4.55202 11.4445 4.56908 11.4271L4.0351 10.9005ZM15.9311 11.4446L16.5437 11.8773C16.6824 11.6808 16.7186 11.4298 16.6409 11.2023C16.5632 10.9747 16.3811 10.7982 16.1512 10.7276L15.9311 11.4446ZM8.06955 11.4461L7.84918 10.7292C7.61939 10.7999 7.43738 10.9764 7.35974 11.2039C7.2821 11.4314 7.31823 11.6824 7.45691 11.8788L8.06955 11.4461ZM10.1077 8.88578C10.5176 8.82628 10.8017 8.44574 10.7422 8.03582C10.6827 7.62591 10.3022 7.34183 9.89227 7.40133L10.1077 8.88578ZM14.1152 7.40134C13.7053 7.34183 13.3247 7.62589 13.2652 8.0358C13.2057 8.44572 13.4898 8.82626 13.8997 8.88577L14.1152 7.40134ZM20.25 13.1259C20.2498 14.3154 19.3139 15.2477 18.1993 15.2479L18.1996 16.7479C20.1778 16.7475 21.7496 15.1081 21.75 13.1261L20.25 13.1259ZM18.1993 15.2479C17.0849 15.2481 16.1498 14.3166 16.15 13.1273L14.65 13.127C14.6496 15.1092 16.2212 16.7483 18.1996 16.7479L18.1993 15.2479ZM7.85 13.1283C7.84977 14.3179 6.91393 15.2502 5.7993 15.2504L5.7996 16.7504C7.77777 16.75 9.34962 15.1106 9.35 13.1286L7.85 13.1283ZM5.7993 15.2504C4.68492 15.2506 3.74977 14.3191 3.75 13.1297L2.25 13.1295C2.24962 15.1117 3.82119 16.7508 5.7996 16.7504L5.7993 15.2504ZM19.4854 11.4733C19.95 11.8607 20.2501 12.4544 20.25 13.1259L21.75 13.1261C21.7502 11.9986 21.244 10.9866 20.4461 10.3213L19.4854 11.4733ZM3.75 13.1297C3.75013 12.4582 4.05053 11.8642 4.51546 11.4765L3.55474 10.3245C2.75681 10.99 2.25021 12.0019 2.25 13.1295L3.75 13.1297ZM16.15 13.1273C16.1501 12.6575 16.2969 12.2267 16.5437 11.8773L15.3185 11.0118C14.8973 11.6082 14.6501 12.3399 14.65 13.127L16.15 13.1273ZM12.0006 11.6217C13.3286 11.6215 14.5847 11.8157 15.711 12.1615L16.1512 10.7276C14.8782 10.3367 13.4733 10.1214 12.0003 10.1217L12.0006 11.6217ZM7.45691 11.8788C7.70347 12.2279 7.85009 12.6586 7.85 13.1283L9.35 13.1286C9.35015 12.3416 9.10329 11.6098 8.68219 11.0135L7.45691 11.8788ZM8.28992 12.163C9.41636 11.8168 10.6725 11.622 12.0006 11.6217L12.0003 10.1217C10.5272 10.122 9.12234 10.3379 7.84918 10.7292L8.28992 12.163ZM4.56908 11.4271C5.7996 10.1795 7.75982 9.22657 10.1077 8.88578L9.89227 7.40133C7.29136 7.77884 5.0067 8.84731 3.50112 10.3738L4.56908 11.4271ZM13.8997 8.88577C16.2451 9.22628 18.2028 10.1779 19.4318 11.424L20.4997 10.3707C18.9957 8.84568 16.7135 7.77856 14.1152 7.40134L13.8997 8.88577Z" fill="#292556"/>
</svg>
