<svg width="24" height="24" viewBox="0 0 24 24" fill="none" xmlns="http://www.w3.org/2000/svg">
<path fill-rule="evenodd" clip-rule="evenodd" d="M9.25862 11.9739C8.86185 11.4748 8.50269 10.9645 8.18207 10.4486C8.66278 10.2417 9.11305 9.9421 9.50507 9.55022C11.1649 7.89101 11.1649 5.20076 9.50507 3.54154C8.98843 3.0251 8.36998 2.6684 7.71351 2.47343C7.31644 2.3555 6.89895 2.58179 6.78101 2.97886C6.66308 3.37593 6.88937 3.79342 7.28644 3.91135C7.70971 4.03706 8.10883 4.26675 8.44462 4.60241C9.51843 5.67579 9.51843 7.41597 8.44462 8.48936C8.01841 8.9154 7.4891 9.17159 6.93718 9.25981C6.69726 9.29817 6.49078 9.45037 6.38316 9.66819C6.27554 9.88602 6.2801 10.1425 6.39541 10.3564C6.88921 11.2722 7.48972 12.1747 8.19163 13.0409L9.25862 11.9739ZM10.9543 13.8138L9.89316 14.8749C11.0742 15.9903 12.348 16.906 13.6485 17.6067C13.8624 17.7219 14.1188 17.7264 14.3365 17.6188C14.5543 17.5111 14.7065 17.3047 14.7448 17.0649C14.8331 16.5133 15.0893 15.9843 15.5155 15.5583C16.5894 14.4847 18.3308 14.4847 19.4048 15.5583C20.4786 16.6317 20.4786 18.3718 19.4048 19.4452C18.7958 20.0539 17.9732 20.3179 17.1762 20.2358C17.1521 20.2333 17.1278 20.232 17.1036 20.2319C14.4396 20.2168 11.2244 18.8674 8.4799 16.2882L7.41879 17.3493C10.373 20.1387 13.9344 21.7023 17.0597 21.7316C18.2749 21.846 19.5331 21.4379 20.4652 20.5061C22.1251 18.8469 22.1251 16.1566 20.4652 14.4974C18.8055 12.8384 16.1147 12.8384 14.455 14.4974C14.0629 14.8894 13.7631 15.3396 13.5561 15.8203C12.6623 15.2654 11.7855 14.5949 10.9543 13.8138ZM5.71727 15.5153C3.5148 12.797 2.29464 9.70205 2.26879 6.94618C2.15435 5.73124 2.5627 4.47335 3.49487 3.54154C3.78782 3.24871 4.2627 3.2488 4.55553 3.54175C4.84837 3.8347 4.84828 4.30957 4.55533 4.60241C3.94642 5.21108 3.68247 6.03323 3.76456 6.82964C3.76704 6.85377 3.76836 6.87801 3.7685 6.90227C3.78167 9.22437 4.80988 11.9656 6.78407 14.4485L5.71727 15.5153Z" fill="#292556"/>
<path d="M3 21L21 3" stroke="#292556" stroke-width="1.5" stroke-linecap="round" stroke-linejoin="round"/>
</svg>
