<svg width="24" height="24" viewBox="0 0 24 24" fill="none" xmlns="http://www.w3.org/2000/svg">
<path d="M19.4843 17C19.9058 16.3704 20.2499 15.6846 20.5031 14.9562C20.7364 14.2852 20.8531 13.9497 20.6869 13.5851C20.6404 13.4829 20.5487 13.354 20.4674 13.2764C20.1776 12.9998 19.7635 12.9998 18.9351 12.9998H12.8C12.0501 12.9998 11.6751 12.9998 11.4122 12.8088C11.3273 12.7471 11.2527 12.6724 11.191 12.5875C11 12.3247 11 11.9497 11 11.1998V5.06463C11 4.23629 11 3.82212 10.7233 3.5323C10.6458 3.45105 10.5169 3.35937 10.4146 3.3128C10.05 3.14667 9.71445 3.26335 9.04325 3.49671C5.5251 4.71993 3 8.06496 3 11.9998C3 16.9703 7.02944 20.9998 12 20.9998C13.636 20.9998 15.17 20.5633 16.4919 19.8004M13.5 10.4998V5.25133C13.5 4.38281 13.5 3.94856 13.7962 3.65511C13.8786 3.5734 14.0161 3.48265 14.1237 3.43897C14.51 3.28208 14.8522 3.42846 15.5366 3.72121C17.6634 4.63097 19.3688 6.33636 20.2785 8.46319C20.5713 9.14759 20.7177 9.48979 20.5608 9.87606C20.5171 9.98362 20.4264 10.1211 20.3446 10.2036C20.0512 10.4998 19.6169 10.4998 18.7484 10.4998H13.5Z" stroke="#292556" stroke-width="1.5" stroke-linecap="round" stroke-linejoin="round"/>
</svg>
