<svg width="24" height="24" viewBox="0 0 24 24" fill="none" xmlns="http://www.w3.org/2000/svg">
<path d="M6.52977 15.8827L2.96094 21.0376L8.11592 17.4688L6.52977 15.8827Z" fill="#292556"/>
<path d="M6.52977 15.8827L5.06815 14.421C4.38363 13.7365 4.04137 13.3943 4.01707 13.0181C4.00904 12.8939 4.02214 12.7811 4.05845 12.662C4.16836 12.3015 4.59758 12.036 5.45603 11.5049C8.5722 9.57716 10.5342 7.61511 12.462 4.49895C12.9931 3.6405 13.2586 3.21128 13.6191 3.10137C13.7382 3.06506 13.851 3.05196 13.9752 3.05998C14.3513 3.08429 14.6936 3.42655 15.3781 4.11106L16.4175 5.15047M6.52977 15.8827L2.96094 21.0376L8.11592 17.4688M6.52977 15.8827L8.11592 17.4688M8.11592 17.4688L9.57755 18.9304C10.2621 19.615 10.6043 19.9572 10.9804 19.9815C11.1047 19.9895 11.2174 19.9764 11.3365 19.9401C11.6971 19.8302 11.9626 19.401 12.4937 18.5426C14.4214 15.4264 16.3835 13.4643 19.4996 11.5366C20.3581 11.0055 20.7873 10.74 20.8972 10.3795C20.9335 10.2604 20.9466 10.1476 20.9386 10.0234C20.9143 9.64724 20.572 9.30498 19.8875 8.62047L19.2459 7.97889" stroke="#292556" stroke-width="1.5" stroke-linecap="round" stroke-linejoin="round"/>
</svg>
