<svg width="24" height="24" viewBox="0 0 24 24" fill="none" xmlns="http://www.w3.org/2000/svg">
<path d="M14.8514 9.23488L15.0687 9.37973C16.636 10.4248 17.4197 10.9473 17.5614 11.659C17.6064 11.8847 17.6064 12.117 17.5614 12.3426C17.4196 13.0543 16.6359 13.5768 15.0684 14.6217L11.8972 16.7356C9.99889 18.001 9.04975 18.6336 8.27387 18.4143C8.03057 18.3455 7.80507 18.2248 7.61288 18.0605C7 17.5366 7 16.3959 7 14.1145L7 9.88619C7 7.60457 7 6.46377 7.61294 5.93985C7.80514 5.77556 8.03066 5.65487 8.27397 5.58609C9.04991 5.36676 9.99909 5.99961 11.8974 7.26532L12.3521 7.56845" stroke="#292556" stroke-width="1.5" stroke-linecap="round" stroke-linejoin="round"/>
</svg>
