<svg width="24" height="24" viewBox="0 0 24 24" fill="none" xmlns="http://www.w3.org/2000/svg">
<path d="M17 4.51555C15.5699 3.55827 13.8501 3 12 3C7.02944 3 3 7.02944 3 12C3 16.9706 7.02944 21 12 21C16.9706 21 21 16.9706 21 12C21 10.3607 20.5617 8.82378 19.796 7.5" stroke="#292556" stroke-width="1.5" stroke-linecap="round" stroke-linejoin="round"/>
<path d="M14.6267 12.7492C15.0745 12.4507 15.2985 12.3014 15.339 12.0981C15.3518 12.0336 15.3518 11.9672 15.339 11.9028C15.2985 11.6994 15.0746 11.5501 14.6268 11.2515L11.1493 8.93295C10.6069 8.57132 10.3357 8.3905 10.114 8.45317C10.0445 8.47282 9.98004 8.5073 9.92512 8.55424C9.75 8.70393 9.75 9.02988 9.75 9.68177L9.75 14.3184C9.75 14.9703 9.75 15.2962 9.92511 15.4459C9.98002 15.4928 10.0444 15.5273 10.114 15.5469C10.3356 15.6096 10.6068 15.4288 11.1492 15.0673L14.6267 12.7492Z" stroke="#292556" stroke-width="1.5" stroke-linejoin="round"/>
</svg>
