<svg width="24" height="24" viewBox="0 0 24 24" fill="none" xmlns="http://www.w3.org/2000/svg">
<path d="M9.5 6V3M9.5 6H14.5M9.5 6H7.25H7C5.89543 6 5 6.89543 5 8V8V9C5 12.866 8.13401 16 12 16V16M14.5 6V3M14.5 6H16M12 16V16C15.866 16 19 12.866 19 9V8M12 16V16.4559C12 17.4627 12 17.9661 11.8419 18.3397C11.5855 18.9457 11.0475 19.3868 10.4029 19.5194C10.0056 19.6011 9.51196 19.5024 8.52475 19.305V19.305C8.06194 19.2124 7.83053 19.1661 7.60721 19.1717C7.24658 19.1807 6.8951 19.2872 6.59001 19.4797C6.4011 19.5989 6.23423 19.7658 5.90049 20.0995L5 21" stroke="#292556" stroke-width="1.5" stroke-linecap="round" stroke-linejoin="round"/>
</svg>
