<svg width="24" height="24" viewBox="0 0 24 24" fill="none" xmlns="http://www.w3.org/2000/svg">
<path d="M12 10V6M9 8C7.78565 8.91221 7 10.3643 7 12C7 14.7614 9.23858 17 12 17C14.7614 17 17 14.7614 17 12C17 10.3644 16.2147 8.91223 15.0005 8" stroke="#292556" stroke-width="1.5" stroke-linecap="round" stroke-linejoin="round"/>
<path d="M17 4.51555C15.5699 3.55827 13.8501 3 12 3C7.02944 3 3 7.02944 3 12C3 16.9706 7.02944 21 12 21C16.9706 21 21 16.9706 21 12C21 10.3607 20.5617 8.82378 19.796 7.5" stroke="#292556" stroke-width="1.5" stroke-linecap="round" stroke-linejoin="round"/>
</svg>
