<svg width="24" height="24" viewBox="0 0 24 24" fill="none" xmlns="http://www.w3.org/2000/svg">
<path d="M21 10V9.9V9.9C21 7.18625 21 5.82937 20.3689 4.84345C20.0571 4.35647 19.6435 3.94286 19.1566 3.63113C18.1706 3 16.8138 3 14.1 3H10.2C7.20021 3 5.70032 3 4.64886 3.76393C4.30928 4.01065 4.01065 4.30928 3.76393 4.64886C3 5.70032 3 7.20021 3 10.2V13.8C3 16.7998 3 18.2997 3.76393 19.3511C4.01065 19.6907 4.30928 19.9893 4.64886 20.2361C5.70032 21 7.20021 21 10.2 21H14C16.8089 21 18.2134 21 19.2223 20.3259C19.659 20.034 20.034 19.659 20.3259 19.2223C21 18.2134 21 16.8089 21 14V14" stroke="#292556" stroke-width="1.5" stroke-linecap="round" stroke-linejoin="round"/>
<path d="M13 16C13 15.4477 12.5523 15 12 15C11.4477 15 11 15.4477 11 16C11 16.5523 11.4477 17 12 17C12.5523 17 13 16.5523 13 16Z" fill="#292556"/>
<path d="M9.75 9.91274C9.75 8.71829 10.7574 7.75 12 7.75C13.2426 7.75 14.25 8.71829 14.25 9.91274C14.25 10.634 13.8827 11.2728 13.3181 11.6657C13.005 11.8836 12.629 12.0131 12.3645 12.2879C12.04 12.625 11.9931 13.0515 12 13.5" stroke="#292556" stroke-width="1.5" stroke-linecap="round" stroke-linejoin="round"/>
</svg>
