<svg width="24" height="24" viewBox="0 0 24 24" fill="none" xmlns="http://www.w3.org/2000/svg">
<path d="M13 19C13 18.4477 12.5523 18 12 18C11.4477 18 11 18.4477 11 19C11 19.5523 11.4477 20 12 20C12.5523 20 13 19.5523 13 19Z" fill="#292556"/>
<path d="M8 8.13694C8 6.20908 9.27477 4.58918 11 4.12988M12 14.9995C11.9877 14.1415 12.0712 13.3257 12.648 12.6807C13.1182 12.1549 13.7867 11.9072 14.3433 11.4904C15.347 10.7387 16 9.51671 16 8.13694C16 6.60552 15.1956 5.26843 14 4.55305" stroke="#292556" stroke-width="1.5" stroke-linecap="round" stroke-linejoin="round"/>
</svg>
