<svg width="24" height="24" viewBox="0 0 24 24" fill="none" xmlns="http://www.w3.org/2000/svg">
<path d="M9.9998 7.62988C10.414 7.62988 10.7498 7.2941 10.7498 6.87988C10.7498 6.46567 10.414 6.12988 9.9998 6.12988V7.62988ZM4.65138 15.6203C4.7703 16.0171 5.18835 16.2423 5.58512 16.1234C5.9819 16.0045 6.20715 15.5864 6.08823 15.1896L4.65138 15.6203ZM18.6998 7.63C19.114 7.63 19.4498 7.29421 19.4498 6.88C19.4498 6.46579 19.114 6.13 18.6998 6.13V7.63ZM13.3514 15.6204C13.4703 16.0172 13.8883 16.2424 14.2851 16.1235C14.6819 16.0046 14.9071 15.5865 14.7882 15.1898L13.3514 15.6204ZM7.08204 7.14138C6.75138 7.39086 6.68558 7.86115 6.93506 8.1918C7.18454 8.52246 7.65484 8.58826 7.98549 8.33878L7.08204 7.14138ZM6.40271 10.4186C6.57026 10.0398 6.39899 9.59684 6.02018 9.4293C5.64136 9.26175 5.19845 9.43301 5.0309 9.81183L6.40271 10.4186ZM4.4998 14.6479C4.4998 16.4399 5.97187 17.8799 7.7498 17.8799V16.3799C6.78618 16.3799 5.9998 15.5974 5.9998 14.6479H4.4998ZM9.4998 14.6479C9.4998 15.5974 8.71343 16.3799 7.7498 16.3799V17.8799C9.52774 17.8799 10.9998 16.4399 10.9998 14.6479H9.4998ZM7.7498 12.9158C8.71343 12.9158 9.4998 13.6983 9.4998 14.6479H10.9998C10.9998 12.8558 9.52774 11.4158 7.7498 11.4158V12.9158ZM7.7498 11.4158C5.97187 11.4158 4.4998 12.8558 4.4998 14.6479H5.9998C5.9998 13.6983 6.78618 12.9158 7.7498 12.9158V11.4158ZM4.2998 13.3799C4.2998 14.1777 4.44526 14.9326 4.65138 15.6203L6.08823 15.1896C5.91235 14.6028 5.7998 13.9962 5.7998 13.3799H4.2998ZM13.1998 14.648C13.1998 16.44 14.6719 17.88 16.4498 17.88V16.38C15.4862 16.38 14.6998 15.5975 14.6998 14.648H13.1998ZM18.1998 14.648C18.1998 15.5975 17.4134 16.38 16.4498 16.38V17.88C18.2277 17.88 19.6998 16.44 19.6998 14.648H18.1998ZM16.4498 12.916C17.4134 12.916 18.1998 13.6984 18.1998 14.648H19.6998C19.6998 12.856 18.2277 11.416 16.4498 11.416V12.916ZM16.4498 11.416C14.6719 11.416 13.1998 12.856 13.1998 14.648H14.6998C14.6998 13.6984 15.4862 12.916 16.4498 12.916V11.416ZM18.6998 6.13C17.0453 6.13 15.6036 7.01022 14.5998 8.32972C13.5968 9.64826 12.9998 11.4364 12.9998 13.38H14.4998C14.4998 11.7337 15.0071 10.2719 15.7936 9.23789C16.5795 8.20485 17.6127 7.63 18.6998 7.63V6.13ZM12.9998 13.38C12.9998 14.1778 13.1453 14.9327 13.3514 15.6204L14.7882 15.1898C14.6123 14.6029 14.4998 13.9963 14.4998 13.38H12.9998ZM9.9998 6.12988C8.91964 6.12988 7.92223 6.50744 7.08204 7.14138L7.98549 8.33878C8.59589 7.87822 9.28189 7.62988 9.9998 7.62988V6.12988ZM5.0309 9.81183C4.5629 10.8699 4.2998 12.0889 4.2998 13.3799H5.7998C5.7998 12.2908 6.02206 11.2792 6.40271 10.4186L5.0309 9.81183Z" fill="#292556"/>
</svg>
