<svg width="24" height="24" viewBox="0 0 24 24" fill="none" xmlns="http://www.w3.org/2000/svg">
<path d="M8 15H16M8 9H16M8 12H16M19 14L19 18C19 19.3288 19 19.9932 18.7152 20.2847C18.5243 20.4801 18.2617 20.5889 17.9884 20.5857C17.581 20.581 17.1112 20.1112 16.1716 19.1716V19.1716C15.7376 18.7376 15.5206 18.5206 15.2663 18.4503C15.092 18.4022 14.908 18.4022 14.7337 18.4503C14.4794 18.5206 14.2624 18.7376 13.8284 19.1716L13.2728 19.7272C12.7425 20.2575 12.4774 20.5226 12.1564 20.5735C12.0528 20.5899 11.9472 20.5899 11.8436 20.5735C11.5226 20.5226 11.2575 20.2575 10.7272 19.7272L10.1716 19.1716C9.73756 18.7376 9.52056 18.5206 9.26626 18.4503C9.09201 18.4022 8.90799 18.4022 8.73374 18.4503C8.47944 18.5206 8.26244 18.7376 7.82843 19.1716V19.1716C6.8888 20.1112 6.41899 20.581 6.01156 20.5857C5.73834 20.5889 5.47573 20.4801 5.28477 20.2847C5 19.9932 5 19.3288 5 18V6C5 4.67117 5 4.00676 5.28477 3.71533C5.47573 3.5199 5.73834 3.41112 6.01156 3.41428C6.41899 3.41899 6.8888 3.8888 7.82843 4.82843V4.82843C8.26244 5.26244 8.47944 5.47944 8.73374 5.54969C8.90799 5.59782 9.09201 5.59782 9.26626 5.54969C9.52056 5.47944 9.73756 5.26244 10.1716 4.82843L10.7272 4.27279C11.2575 3.7425 11.5226 3.47735 11.8436 3.42653C11.9472 3.41011 12.0528 3.41011 12.1564 3.42653C12.4774 3.47735 12.7425 3.7425 13.2728 4.27279L13.8284 4.82843C14.2624 5.26244 14.4794 5.47944 14.7337 5.54969C14.908 5.59782 15.092 5.59782 15.2663 5.54969C15.5206 5.47944 15.7376 5.26244 16.1716 4.82843V4.82843C17.1112 3.8888 17.581 3.41899 17.9884 3.41428C18.2617 3.41112 18.5243 3.5199 18.7152 3.71533C19 4.00676 19 4.67117 19 6V10" stroke="#292556" stroke-width="1.5" stroke-linecap="round" stroke-linejoin="round"/>
</svg>
