<svg width="24" height="24" viewBox="0 0 24 24" fill="none" xmlns="http://www.w3.org/2000/svg">
<path d="M16 18.499V19.8582C16 20.5797 16 20.9405 15.8103 21.0906C15.7512 21.1374 15.6822 21.1702 15.6086 21.1866C15.3725 21.2391 15.0925 21.0116 14.5325 20.5567L12.8707 19.2065C12.516 18.9183 12.3386 18.7741 12.3065 18.5899C12.2962 18.531 12.2966 18.4707 12.3076 18.4119C12.342 18.2281 12.5212 18.0863 12.8795 17.8025L13.089 17.6366M16 18.499V16.3816C16 16.3309 16 16.3055 15.999 16.2896C15.9738 15.8949 15.5221 15.6843 15.2036 15.9188C15.1908 15.9282 15.1713 15.9445 15.1324 15.9771V15.9771M16 18.499H17.1243C17.1572 18.499 17.1737 18.499 17.1848 18.499C20.1251 18.4814 21.9023 15.241 20.3366 12.7522C20.3307 12.7427 20.3218 12.7289 20.3042 12.7011V12.7011M16.1575 6.07992L17.3069 5.35467C17.9171 4.96964 18.2222 4.77713 18.4504 4.85744C18.5216 4.88248 18.5861 4.92328 18.6393 4.97681C18.8097 5.14848 18.7667 5.50668 18.6808 6.22307L18.4239 8.36303C18.3701 8.81173 18.3431 9.03608 18.2062 9.16129C18.1623 9.20136 18.1117 9.2333 18.0567 9.25561C17.8847 9.32534 17.6706 9.25305 17.2424 9.10849L15.2004 8.41903C14.5167 8.18822 14.1749 8.07281 14.0934 7.84507C14.0679 7.77406 14.0589 7.69823 14.0669 7.62323C14.0927 7.38269 14.3978 7.19018 15.008 6.80516L16.1575 6.07992ZM16.1575 6.07992L16.1603 6.07815L15.3126 4.73754C15.1849 4.53561 15.1211 4.43464 15.0715 4.36368C13.5795 2.22893 10.4192 2.22776 8.92567 4.36142C8.87602 4.43235 8.81211 4.53327 8.68429 4.7351V4.7351M8 18.499V18.499C6.97153 18.499 6.45729 18.499 6.11216 18.4338C3.79748 17.9964 2.45458 15.5582 3.32206 13.3681C3.4514 13.0415 3.72626 12.6069 4.27598 11.7377L4.42269 11.5057M3.46858 9.16263L5.50309 8.47242C5.92997 8.32761 6.14341 8.2552 6.31527 8.32436C6.37028 8.3465 6.42091 8.37824 6.4648 8.41811C6.60193 8.54267 6.62973 8.76634 6.68535 9.21367L6.95357 11.3709C7.04346 12.0938 7.0884 12.4553 6.91735 12.6279C6.86405 12.6816 6.79923 12.7226 6.72779 12.7477C6.49852 12.8281 6.19131 12.6324 5.57688 12.241L3.27415 10.774C2.66954 10.3888 2.36723 10.1962 2.34204 9.95633C2.33418 9.88152 2.34331 9.80589 2.36873 9.73509C2.45026 9.5081 2.7897 9.39294 3.46858 9.16263Z" stroke="#292556" stroke-width="1.5" stroke-linecap="round" stroke-linejoin="round"/>
</svg>
