<svg width="24" height="24" viewBox="0 0 24 24" fill="none" xmlns="http://www.w3.org/2000/svg">
<path d="M19.762 7C19.9253 6.10741 19.9802 5.33193 19.9953 4.79421C20.0038 4.4909 20.008 4.33925 19.9097 4.20223C19.8817 4.16324 19.8341 4.11569 19.7952 4.0877C19.6581 3.98931 19.5071 3.99353 19.205 4.00197C17.681 4.04453 14.2423 4.40635 11.6438 6.6566C11.5274 6.75741 11.4692 6.80781 11.4092 6.8367C11.3882 6.84681 11.37 6.85415 11.3479 6.8614C11.2846 6.88213 11.2138 6.88582 11.0721 6.89319L7.08373 7.10077C5.68729 7.17346 4.5923 8.32691 4.5923 9.72525V9.72525C4.5923 11.1331 5.70171 12.2908 7.10825 12.3509L8.07532 12.3922C8.13721 12.3948 8.16815 12.3961 8.19777 12.401C8.28092 12.4146 8.35926 12.449 8.42554 12.5011C8.44916 12.5196 8.47106 12.5415 8.51485 12.5853L11.412 15.4824C11.4558 15.5262 11.4777 15.5481 11.4962 15.5717C11.5482 15.638 11.5827 15.7164 11.5963 15.7995C11.6012 15.8291 11.6025 15.8601 11.6051 15.922L11.6464 16.889C11.7064 18.2956 12.8642 19.405 14.272 19.405V19.405C15.6704 19.405 16.8238 18.31 16.8965 16.9136L17.1041 12.9252C17.1115 12.7835 17.1152 12.7126 17.1359 12.6494C17.1432 12.6272 17.1505 12.609 17.1606 12.588C17.1895 12.5281 17.2398 12.47 17.3403 12.354C17.7054 11.9325 18.0207 11.4888 18.2931 11.0348M8.01883 18.8428C7.02351 19.8382 5.55794 19.9982 4.71067 19.9971C4.46186 19.9967 4.33746 19.9966 4.20628 19.9012C4.17154 19.876 4.1211 19.8255 4.09585 19.7908C4.00049 19.6596 4.00033 19.5352 4.00001 19.2864C3.99891 18.4391 4.15892 16.9736 5.15423 15.9782C5.20459 15.9279 5.25728 15.8785 5.31191 15.8304C6.05288 15.1769 7.14211 15.4578 7.84067 16.1564V16.1564C8.53923 16.855 8.82013 17.9442 8.16671 18.6852C8.11853 18.7398 8.06919 18.7925 8.01883 18.8428ZM12.0788 10.1519V10.1519C11.5912 10.6395 11.5912 11.4301 12.0788 11.9178V11.9178C12.5665 12.4054 13.3571 12.4054 13.8447 11.9178V11.9178C14.3324 11.4301 14.3324 10.6395 13.8447 10.1519V10.1519C13.3571 9.6642 12.5665 9.66421 12.0788 10.1519Z" stroke="#292556" stroke-width="1.5" stroke-linecap="round" stroke-linejoin="round"/>
</svg>
