<svg width="24" height="24" viewBox="0 0 24 24" fill="none" xmlns="http://www.w3.org/2000/svg">
<path d="M7 16.8891L10.5351 20.4242L13.0118 17.9475M13.0118 17.9475L10.8849 15.83M13.0118 17.9475L15.4791 15.4801M17.9512 13.0081L15.829 10.8859M17.9512 13.0081L20.4232 10.5361L16.8875 7M17.9512 13.0081L15.4791 15.4801M15.4791 15.4801L11.9427 11.9437M9.17039 7.76032L5.28399 11.649C3.96249 12.9713 3.30174 13.6324 3.09395 14.4091C2.95797 14.9173 2.95805 15.4524 3.09417 15.9606C3.30219 16.7372 3.96313 17.3982 5.28502 18.72V18.72C6.60725 20.0423 7.26837 20.7034 8.04516 20.9114C8.55348 21.0475 9.08866 21.0475 9.59697 20.9114C10.3738 20.7034 11.0349 20.0423 12.3571 18.72L18.7194 12.3578C20.0422 11.0349 20.7037 10.3735 20.9116 9.59624C21.0474 9.08838 21.0474 8.55375 20.9116 8.0459C20.7037 7.26866 20.0422 6.60722 18.7194 5.28434L18.3691 4.93405C17.3773 3.94228 16.8814 3.44639 16.3278 3.21797C15.5956 2.91589 14.7737 2.91561 14.0413 3.21719C13.4875 3.44524 12.9913 3.94079 11.9988 4.93189V4.93189" stroke="#292556" stroke-width="1.5" stroke-linecap="round" stroke-linejoin="round"/>
</svg>
