<svg width="24" height="24" viewBox="0 0 24 24" fill="none" xmlns="http://www.w3.org/2000/svg">
<path d="M13 12C13 12.5523 12.5523 13 12 13C11.4477 13 11 12.5523 11 12C11 11.4477 11.4477 11 12 11C12.5523 11 13 11.4477 13 12Z" fill="#292556"/>
<path d="M19.7942 7.49984C20.7607 9.17386 18.0546 12.5456 13.75 15.0309C9.44534 17.5162 5.17224 18.1739 4.20574 16.4998C3.23924 14.8258 5.94534 11.454 10.25 8.96875C12.2899 7.79099 14.3228 7.02367 16 6.72043M15.4998 12C15.4998 7.02944 13.9328 3 11.9998 3C10.0668 3 8.49977 7.02944 8.49977 12C8.49977 16.9706 10.0668 21 11.9998 21C13.9328 21 15.4998 16.9706 15.4998 12ZM10.2498 15.0311C5.94513 12.5458 3.23904 9.17403 4.20554 7.5C5.17204 5.82598 9.44513 6.48363 13.7498 8.96891C18.0544 11.4542 20.7605 14.826 19.794 16.5C18.8275 18.174 14.5544 17.5164 10.2498 15.0311Z" stroke="#292556" stroke-width="1.5" stroke-linecap="round" stroke-linejoin="round"/>
</svg>
