<svg width="24" height="24" viewBox="0 0 24 24" fill="none" xmlns="http://www.w3.org/2000/svg">
<path d="M21 21L16.825 16.8319M16.825 16.8319C16.9743 16.6829 17.1118 16.5222 17.2361 16.3511C17.8397 15.5203 17.9664 14.4095 17.9929 12.5M16.825 16.8319C16.678 16.9785 16.5196 17.1137 16.3511 17.2361C15.2997 18 13.7998 18 10.8 18H10.2C7.20021 18 5.70032 18 4.64886 17.2361C4.30928 16.9893 4.01065 16.6907 3.76393 16.3511C3 15.2997 3 13.7998 3 10.8V10.2C3 7.20021 3 5.70032 3.76393 4.64886C4.01065 4.30928 4.30928 4.01065 4.64886 3.76393C5.70032 3 7.20021 3 10.2 3H10.8C13.7998 3 15.2997 3 16.3511 3.76393C16.6907 4.01065 16.9893 4.30928 17.2361 4.64886C17.8397 5.47968 17.9664 6.59049 17.9929 8.5" stroke="#292556" stroke-width="1.5" stroke-linecap="round" stroke-linejoin="round"/>
</svg>
