<svg width="24" height="24" viewBox="0 0 24 24" fill="none" xmlns="http://www.w3.org/2000/svg">
<path d="M20 10L4 10M20 10V10C20.5523 10 21 9.55228 21 9V7.8C21 7.05005 21 6.67508 20.809 6.41221C20.7473 6.32732 20.6727 6.25266 20.5878 6.19098C20.3249 6 19.9499 6 19.2 6L4.8 6C4.05005 6 3.67508 6 3.41221 6.19098C3.32732 6.25266 3.25266 6.32732 3.19098 6.41221C3 6.67508 3 7.05005 3 7.8L3 9C3 9.55228 3.44772 10 4 10V10M20 10C20 11.2654 19.7062 12.4622 19.1831 13.5259M4 10C4 14.4183 7.58172 18 12 18C13.6984 18 15.2732 17.4707 16.5685 16.5681M13.5 14C13.5 14.8284 12.8284 15.5 12 15.5C11.1716 15.5 10.5 14.8284 10.5 14C10.5 13.1716 11.1716 12.5 12 12.5C12.8284 12.5 13.5 13.1716 13.5 14Z" stroke="#292556" stroke-width="1.5" stroke-linecap="round" stroke-linejoin="round"/>
</svg>
