<svg width="24" height="24" viewBox="0 0 24 24" fill="none" xmlns="http://www.w3.org/2000/svg">
<path d="M10.7907 13.2094C10.7675 13.1869 10.7432 13.1656 10.7179 13.1454C10.5344 12.9993 10.2886 12.9466 9.79707 12.841L9.30789 12.7359C5.7629 11.9743 3.9904 11.5936 3.54209 10.8726C3.17737 10.286 3.14111 9.55279 3.44618 8.93311C3.82117 8.17142 5.54745 7.61763 9 6.51004V6.51004M10.7907 13.2094C10.8226 13.2403 10.8525 13.2734 10.8801 13.3084C11.0254 13.4925 11.0771 13.7385 11.1805 14.2305V14.2305C11.9951 18.105 12.4024 20.0423 13.2236 20.4822C13.7485 20.7633 14.3713 20.7959 14.9227 20.5712C15.7854 20.2197 16.393 18.3356 17.6083 14.5674L19.3472 9.17545C20.177 6.60224 20.592 5.31563 20.0894 4.52336C19.9321 4.27544 19.7222 4.06518 19.4745 3.90752C18.683 3.40371 17.3957 3.81666 14.8212 4.64256L13 5.22682M10.7907 13.2094L17 7.00004" stroke="#292556" stroke-width="1.5" stroke-linecap="round" stroke-linejoin="round"/>
</svg>
