<svg width="24" height="24" viewBox="0 0 24 24" fill="none" xmlns="http://www.w3.org/2000/svg">
<path d="M21 10V9.9V9.9C21 7.18625 21 5.82937 20.3689 4.84345C20.0571 4.35647 19.6435 3.94286 19.1566 3.63113C18.1706 3 16.8138 3 14.1 3H10.2C7.20021 3 5.70032 3 4.64886 3.76393C4.30928 4.01065 4.01065 4.30928 3.76393 4.64886C3 5.70032 3 7.20021 3 10.2V13.8C3 16.7998 3 18.2997 3.76393 19.3511C4.01065 19.6907 4.30928 19.9893 4.64886 20.2361C5.70032 21 7.20021 21 10.2 21H14C16.8089 21 18.2134 21 19.2223 20.3259C19.659 20.034 20.034 19.659 20.3259 19.2223C21 18.2134 21 16.8089 21 14V14" stroke="#292556" stroke-width="1.5" stroke-linecap="round" stroke-linejoin="round"/>
<path d="M16.5099 11.8164C17.2564 11.2388 17.6297 10.95 17.699 10.5743C17.7211 10.4543 17.7211 10.3314 17.699 10.2114C17.6297 9.83576 17.2564 9.54694 16.5099 8.96929L13.8004 6.87263C13.2445 6.4425 12.9666 6.22743 12.7341 6.28265C12.6615 6.29989 12.5936 6.33317 12.5356 6.38003C12.3496 6.53013 12.3496 6.88156 12.3496 7.58442V8.53571C9.01295 8.75329 6.34971 10.892 6.34961 14.5714C6.34959 15.456 6.68959 16.4444 7.11295 17.3322V17.3322C7.3846 17.9019 8.0639 17.6675 8.0639 17.0364V16.8929C8.06446 14.2288 9.94688 12.4553 12.3496 12.2667V13.2013C12.3496 13.9042 12.3496 14.2556 12.5356 14.4057C12.5936 14.4525 12.6615 14.4858 12.7341 14.5031C12.9666 14.5583 13.2445 14.3432 13.8004 13.9131L16.5099 11.8164Z" stroke="#292556" stroke-width="1.5" stroke-linecap="round" stroke-linejoin="round"/>
</svg>
