<svg width="24" height="24" viewBox="0 0 24 24" fill="none" xmlns="http://www.w3.org/2000/svg">
<path d="M15 9V9C15.9319 9 16.3978 9 16.7654 9.15224C17.2554 9.35523 17.6448 9.74458 17.8478 10.2346C18 10.6022 18 11.0681 18 12V13M9 9H8.99V9C8.0675 9 7.60626 9 7.2419 9.14925C6.74601 9.35238 6.35238 9.74601 6.14925 10.2419C6 10.6063 6 11.0675 6 11.99V17.4C6 18.8999 6 19.6498 6.38197 20.1756C6.50533 20.3454 6.65464 20.4947 6.82443 20.618C7.35016 21 8.10011 21 9.6 21H14.4C15.8999 21 16.6498 21 17.1756 20.618C17.3454 20.4947 17.4947 20.3454 17.618 20.1756C18 19.6498 18 18.8999 18 17.4V17M12.0168 15V3M12.0168 3L9.50024 5.5M12.0168 3L14.5002 5.5" stroke="#292556" stroke-width="1.5" stroke-linecap="round" stroke-linejoin="round"/>
</svg>
