<svg width="24" height="24" viewBox="0 0 24 24" fill="none" xmlns="http://www.w3.org/2000/svg">
<path d="M17.0005 15.5L17.0005 15.9C17.0005 17.3999 17.0005 18.1498 16.6185 18.6756C16.4951 18.8454 16.3458 18.9947 16.176 19.118C15.6503 19.5 14.9003 19.5 13.4005 19.5H10.6005C9.10056 19.5 8.35061 19.5 7.82488 19.118C7.65509 18.9947 7.50578 18.8454 7.38242 18.6756C7.00045 18.1498 7.00045 17.3999 7.00045 15.9V9.58691C7.00045 9.17993 7.00045 8.97644 6.89737 8.90156C6.86545 8.87838 6.82849 8.86307 6.78951 8.85691C6.66367 8.837 6.51983 8.98094 6.23215 9.26882L6.05033 9.45075C5.54222 9.9592 5.28816 10.2134 4.98256 10.27C4.86233 10.2923 4.73904 10.2923 4.6188 10.2701C4.31318 10.2136 4.05903 9.95945 3.55075 9.45117V9.45117C3.04284 8.94326 2.78888 8.6893 2.73234 8.38386C2.7101 8.26369 2.71007 8.14046 2.73226 8.02028C2.78866 7.71482 3.04249 7.46074 3.55017 6.95259L4.94583 5.55561C5.40766 5.09335 5.63857 4.86222 5.92095 4.71824C6.01434 4.67062 6.11134 4.63042 6.21104 4.598C6.51247 4.5 6.83918 4.5 7.49261 4.5H9.05045C9.23153 4.5 9.32207 4.5 9.38273 4.53776C9.405 4.55162 9.41836 4.56278 9.43597 4.58223C9.48392 4.6352 9.50276 4.7394 9.54044 4.94779C9.75148 6.11482 10.7726 7 12.0005 7C13.2283 7 14.2494 6.11482 14.4605 4.94779C14.4981 4.7394 14.517 4.6352 14.5649 4.58223C14.5825 4.56278 14.5959 4.55162 14.6182 4.53776C14.6788 4.5 14.7694 4.5 14.9505 4.5H16.5083C17.1617 4.5 17.4884 4.5 17.7899 4.598C17.8896 4.63042 17.9866 4.67062 18.08 4.71824C18.3623 4.86222 18.5932 5.09335 19.0551 5.55561L20.4507 6.95259C20.9584 7.46074 21.2123 7.71482 21.2686 8.02028C21.2908 8.14046 21.2908 8.26369 21.2686 8.38386C21.212 8.6893 20.9581 8.94326 20.4502 9.45117V9.45117C19.9419 9.95945 19.6877 10.2136 19.3821 10.2701C19.2619 10.2923 19.1386 10.2923 19.0183 10.27C18.7127 10.2134 18.4587 9.9592 17.9506 9.45075L17.7688 9.26882C17.4811 8.98094 17.3372 8.837 17.2114 8.85691C17.1724 8.86307 17.1355 8.87838 17.1035 8.90156C17.0005 8.97644 17.0005 9.17993 17.0005 9.58691L17.0005 11.5" stroke="#292556" stroke-width="1.5" stroke-linecap="round" stroke-linejoin="round"/>
</svg>
