<svg width="24" height="24" viewBox="0 0 24 24" fill="none" xmlns="http://www.w3.org/2000/svg">
<path d="M6.99955 18V20M10.4995 16V17M13 19.5V21M16.4995 17V18M12 5H10.1256C9.42371 5 9.07276 5 8.77297 5.13879C8.67451 5.18436 8.58129 5.24049 8.49494 5.30618C8.23201 5.5062 8.06781 5.81637 7.73939 6.4367L6.09822 9.5367C5.27231 11.0968 4.85935 11.8768 5.07532 12.4948C5.14344 12.6898 5.25108 12.8685 5.39149 13.02C5.83666 13.5 6.71926 13.5 8.48444 13.5H16.9935C17.4683 13.5 17.7057 13.5 17.8712 13.4621C18.6937 13.2734 19.1988 12.4437 18.9886 11.6264C18.9463 11.4619 18.8373 11.2511 18.6193 10.8293V10.8293M12 5H13.8744C14.5763 5 14.9272 5 15.227 5.13879C15.3255 5.18436 15.4187 5.24049 15.5051 5.30618C15.768 5.5062 15.9322 5.81637 16.2606 6.4367L16.7216 7.30745M12 5V3" stroke="#292556" stroke-width="1.5" stroke-linecap="round" stroke-linejoin="round"/>
</svg>
