<svg width="24" height="24" viewBox="0 0 24 24" fill="none" xmlns="http://www.w3.org/2000/svg">
<path d="M9 7V10M13 7V10M19 12V10.9551C19 10.0961 19 9.6666 18.8849 9.26315C18.8468 9.12948 18.7994 8.99862 18.7431 8.87152C18.5733 8.4879 18.2983 8.15796 17.7484 7.49807L15.6667 5L15.6192 4.943C14.9128 4.09531 14.5595 3.67146 14.1002 3.40498C13.9485 3.31701 13.7894 3.24251 13.6248 3.18232C13.126 3 12.5742 3 11.4708 3H10.4C8.15016 3 7.02524 3 6.23664 3.57295C5.98196 3.75799 5.75799 3.98196 5.57295 4.23664C5 5.02524 5 6.15016 5 8.4V15.6C5 17.8498 5 18.9748 5.57295 19.7634C5.75799 20.018 5.98196 20.242 6.23664 20.4271C7.02524 21 8.15016 21 10.4 21H14C15.8692 21 16.8038 21 17.5 20.5981C17.9561 20.3348 18.3348 19.9561 18.5981 19.5C19 18.8038 19 17.8692 19 16V16" stroke="#292556" stroke-width="1.5" stroke-linecap="round" stroke-linejoin="round"/>
</svg>
