<svg width="24" height="24" viewBox="0 0 24 24" fill="none" xmlns="http://www.w3.org/2000/svg">
<path d="M15 9.5C15 8.11929 13.6569 7 12 7C10.3431 7 9 8.11929 9 9.5C9 10.8807 10.3431 12 12 12C13.6569 12 15 13.1193 15 14.5C15 15.8807 13.6569 17 12 17C10.3431 17 9 15.8807 9 14.5M16 5.07026C14.8233 4.38958 13.4571 4 12 4C11.7483 4 11.4993 4.01162 11.2535 4.03437C11.1713 4.04197 11.1302 4.04578 11.0948 4.03879C11.0821 4.03628 11.0724 4.03365 11.0602 4.02935C11.0261 4.01737 10.9917 3.99255 10.923 3.94292C10.1009 3.3496 9.09128 3 8 3C5.23858 3 3 5.23858 3 8C3 9.09128 3.3496 10.1009 3.94292 10.923C3.99255 10.9917 4.01737 11.0261 4.02935 11.0602C4.03365 11.0724 4.03628 11.0821 4.03879 11.0948C4.04578 11.1302 4.04197 11.1713 4.03437 11.2535C4.01162 11.4993 4 11.7483 4 12C4 16.4183 7.58172 20 12 20C12.2517 20 12.5007 19.9884 12.7465 19.9656C12.8287 19.958 12.8698 19.9542 12.9052 19.9612C12.9179 19.9637 12.9276 19.9664 12.9398 19.9706C12.9739 19.9826 13.0083 20.0074 13.077 20.0571C13.8991 20.6504 14.9087 21 16 21C18.7614 21 21 18.7614 21 16C21 14.9087 20.6504 13.8991 20.0571 13.077C20.0074 13.0083 19.9826 12.9739 19.9706 12.9398C19.9664 12.9276 19.9637 12.9179 19.9612 12.9052C19.9542 12.8698 19.958 12.8287 19.9656 12.7465C19.9884 12.5007 20 12.2517 20 12C20 10.5429 19.6104 9.17669 18.9297 8" stroke="#292556" stroke-width="1.5" stroke-linecap="round"/>
</svg>
