<svg width="24" height="24" viewBox="0 0 24 24" fill="none" xmlns="http://www.w3.org/2000/svg">
<path d="M21 10V9.5V9.5C21 7.16537 21 5.99805 20.5277 5.11441C20.1548 4.4167 19.5833 3.84525 18.8856 3.47231C18.0019 3 16.8346 3 14.5 3H10.2C7.20021 3 5.70032 3 4.64886 3.76393C4.30928 4.01065 4.01065 4.30928 3.76393 4.64886C3 5.70032 3 7.20021 3 10.2V13.8C3 16.7998 3 18.2997 3.76393 19.3511C4.01065 19.6907 4.30928 19.9893 4.64886 20.2361C5.70032 21 7.20021 21 10.2 21H14C16.8089 21 18.2134 21 19.2223 20.3259C19.659 20.034 20.034 19.659 20.3259 19.2223C21 18.2134 21 16.8089 21 14V14M8.61539 10.4557L7.40409 10.2627C6.89134 10.181 6.40042 10.5022 6.26995 11.0047C6.12373 11.568 6.48349 12.1377 7.05489 12.2477L8.5 12.526C8.52797 14.9639 7.03631 15.5 5.5 15.5C6.48932 17.4176 8.34864 17.5712 9.5 17.5C11 18.8392 13 18.8384 14.5 17.5C15.6403 17.5688 17.4782 17.4105 18.5 15.5C16.9637 15.5 15.472 14.9639 15.5 12.526L16.9451 12.2477C17.5165 12.1377 17.8763 11.568 17.73 11.0047C17.5996 10.5022 17.1087 10.181 16.5959 10.2627L15.3846 10.4557L15.3845 8.67292C15.3845 6.92057 13.8691 5.5 11.9998 5.5C10.1306 5.5 8.61523 6.92057 8.61523 8.67292L8.61539 10.4557Z" stroke="#292556" stroke-width="1.5" stroke-linecap="round" stroke-linejoin="round"/>
</svg>
