<svg width="24" height="24" viewBox="0 0 24 24" fill="none" xmlns="http://www.w3.org/2000/svg">
<path d="M12.0005 8L8.53639 10M12.0005 8L12.0005 6M12.0005 8L13.5679 8.90493M15.4646 14L12.0005 16M15.4646 14L17.1966 15M15.4646 14V12.5073M12.0005 16L8.53639 14M12.0005 16V18M8.53639 14V10M8.53639 14L6.80433 15M8.53639 10L6.80431 8.99998M12.0005 3L12.0005 6M12.0005 21V18M19.7947 16.5L17.1966 15M4.20626 7.5L6.80431 8.99998M19.7947 7.5L17.1966 9M4.20626 16.5L6.80433 15M6.80433 15L4.07226 14.268M6.80433 15L6.07223 17.7321M17.1966 9L17.9287 6.26798M17.1966 9L19.9287 9.73208M17.1966 9L16.3306 9.5M12.0005 6L14.0005 4M12.0005 6L10.0005 4M14.0005 20L12.0005 18M12.0005 18L10.0005 20M6.80431 8.99998L6.07228 6.2679M6.80431 8.99998L4.07228 9.732M17.1966 15L19.9287 14.2679M17.1966 15L17.9287 17.732" stroke="#292556" stroke-width="1.5" stroke-linecap="round" stroke-linejoin="round"/>
</svg>
