<svg width="24" height="24" viewBox="0 0 24 24" fill="none" xmlns="http://www.w3.org/2000/svg">
<path d="M12.9284 8.03589C12.5454 7.30517 12.2413 6.4653 12 5.5C11.0714 9.21429 9.21429 11.0714 5.5 12C9.21429 12.9286 11.0714 14.7857 12 18.5C12.9286 14.7857 14.7857 12.9286 18.5 12C17.4146 11.7286 16.4877 11.378 15.6963 10.9249M16 6.25C17 6.5 17.5 7 17.75 8C18 7 18.5 6.5 19.5 6.25C18.5 6 18 5.5 17.75 4.5C17.5 5.5 17 6 16 6.25ZM8 17.75C7 17.5 6.5 17 6.25 16C6 17 5.5 17.5 4.5 17.75C5.5 18 6 18.5 6.25 19.5C6.5 18.5 7 18 8 17.75Z" stroke="#292556" stroke-width="1.5" stroke-linecap="round" stroke-linejoin="round"/>
</svg>
