<svg width="24" height="24" viewBox="0 0 24 24" fill="none" xmlns="http://www.w3.org/2000/svg">
<path d="M10.9284 9.53589C10.5454 8.80517 10.2413 7.9653 10 7C9.07143 10.7143 7.21429 12.5714 3.5 13.5C7.21429 14.4286 9.07143 16.2857 10 20C10.9286 16.2857 12.7857 14.4286 16.5 13.5C15.4146 13.2286 14.4877 12.878 13.6963 12.4249M14 19.25C15 19 15.5 18.5 15.75 17.5C16 18.5 16.5 19 17.5 19.25C16.5 19.5 16 20 15.75 21C15.5 20 15 19.5 14 19.25Z" stroke="#292556" stroke-width="1.5" stroke-linecap="round" stroke-linejoin="round"/>
</svg>
