<svg width="24" height="24" viewBox="0 0 24 24" fill="none" xmlns="http://www.w3.org/2000/svg">
<path d="M21 10V9.99V9.99C21 7.1906 21 5.7909 20.3302 4.78425C20.0363 4.34252 19.6575 3.96367 19.2157 3.66977C18.2091 3 16.8094 3 14.01 3H10.2C7.20021 3 5.70032 3 4.64886 3.76393C4.30928 4.01065 4.01065 4.30928 3.76393 4.64886C3 5.70032 3 7.20021 3 10.2V13.8C3 16.7998 3 18.2997 3.76393 19.3511C4.01065 19.6907 4.30928 19.9893 4.64886 20.2361C5.70032 21 7.20021 21 10.2 21H14C16.8089 21 18.2134 21 19.2223 20.3259C19.659 20.034 20.034 19.659 20.3259 19.2223C21 18.2134 21 16.8089 21 14V14M13.5 15.25C14.5 15 15 14.5 15.25 13.5C15.5 14.5 16 15 17 15.25C16 15.5 15.5 16 15.25 17C15 16 14.5 15.5 13.5 15.25ZM7 10.5C9 10 10 9 10.5 7C11 9 12 10 14 10.5C12 11 11 12 10.5 14C10 12 9 11 7 10.5Z" stroke="#292556" stroke-width="1.5" stroke-linecap="round" stroke-linejoin="round"/>
</svg>
