<svg width="24" height="24" viewBox="0 0 24 24" fill="none" xmlns="http://www.w3.org/2000/svg">
<path d="M14.756 5.8781L14.7401 5.83264V5.83264C14.4316 4.95086 14.2774 4.50998 14.1501 4.29541C13.1816 2.66285 10.8184 2.66285 9.8499 4.29541C9.72261 4.50998 9.56837 4.95086 9.2599 5.83264L9.1261 6.21511C9.04828 6.43756 9.00937 6.54879 8.96545 6.64656C8.5937 7.47408 7.80283 8.03528 6.89896 8.11293C6.79218 8.1221 6.67434 8.1221 6.43867 8.1221H6.25772C5.55156 8.1221 5.19848 8.1221 5.01955 8.14812C2.97497 8.44543 2.15304 10.9537 3.62516 12.4034C3.75399 12.5303 4.0386 12.7392 4.60782 13.1571V13.1571C4.77156 13.2774 4.85343 13.3375 4.92318 13.397C5.65719 14.0237 5.96494 15.0169 5.71386 15.9487C5.69 16.0373 5.65538 16.1363 5.58615 16.3342V16.3342C5.29142 17.1767 5.14406 17.5979 5.10885 17.8186C4.79678 19.7742 6.77429 21.299 8.58634 20.5C8.7908 20.4098 9.14941 20.1678 9.86663 19.6838L10.3042 19.3885C10.5898 19.1958 10.7326 19.0995 10.8736 19.0283C11.582 18.6708 12.418 18.6708 13.1264 19.0283C13.2674 19.0995 13.4102 19.1958 13.6958 19.3885L14.1536 19.6975C14.8545 20.1704 15.205 20.4069 15.4044 20.4958C17.2216 21.306 19.211 19.772 18.8895 17.8085C18.8543 17.5931 18.7101 17.1811 18.4219 16.3571V16.3571C18.3535 16.1616 18.3193 16.0638 18.2957 15.9767C18.0398 15.0311 18.3597 14.0232 19.1141 13.3983C19.1836 13.3407 19.2652 13.2825 19.4285 13.1661L19.58 13.058C20.03 12.737 20.2551 12.5765 20.3588 12.4834C21.9665 11.0419 21.1136 8.3776 18.9677 8.13759C18.8292 8.1221 18.5528 8.1221 18 8.1221V8.1221" stroke="#292556" stroke-width="1.5" stroke-linecap="round" stroke-linejoin="round"/>
</svg>
