<svg width="24" height="24" viewBox="0 0 24 24" fill="none" xmlns="http://www.w3.org/2000/svg">
<path d="M17.6406 10.5979L19.4348 12.3913M17.6406 10.5979L15.5178 8.48218M17.6406 10.5979L15.5355 12.7071M13.4 6.35732L11.6087 4.56522M13.4 6.35732L7.7571 12.0003C6.58567 13.1717 6.58567 15.0709 7.7571 16.2424V16.2424C8.92792 17.4132 10.826 17.4139 11.9977 16.2439L12.7071 15.5355M13.4 6.35732L15.5178 8.48218M15.5178 8.48218L19.4348 4.56522M19.4348 4.56522L17.8696 3M19.4348 4.56522L21 6.13043M6.6967 15.182L5.98959 15.8891C5.4038 16.4749 5.4038 17.4246 5.98959 18.0104V18.0104M8.81802 17.3033L8.11091 18.0104C7.52512 18.5962 6.57538 18.5962 5.98959 18.0104V18.0104M5.98959 18.0104L3 21" stroke="#292556" stroke-width="1.5" stroke-linecap="round" stroke-linejoin="round"/>
</svg>
