<svg width="24" height="24" viewBox="0 0 24 24" fill="none" xmlns="http://www.w3.org/2000/svg">
<path d="M19.0833 8.91667L15.0833 4.91667M19.0833 8.91667L19.75 8.25C20.8546 7.14543 20.8546 5.35457 19.75 4.25V4.25C18.6454 3.14543 16.8546 3.14543 15.75 4.25L15.0833 4.91667M19.0833 8.91667L16.8284 11.1716M15.0833 4.91667L13.0833 6.91667M13.0833 6.91667L14.4167 8.25M13.0833 6.91667L11.4167 8.58333M11.4167 8.58333L12.75 9.91667M11.4167 8.58333L9.75 10.25M9.75 10.25L9.4982 10.5018C9.0188 10.9812 8.77909 11.2209 8.57484 11.4892C8.50685 11.5785 8.44188 11.6701 8.38006 11.7637C8.19432 12.0451 8.04726 12.3506 7.75314 12.9614L6.60647 15.343C6.37051 15.833 6.05356 16.2798 5.66896 16.6644L3.08333 19.25C2.6231 19.7102 2.6231 20.4564 3.08333 20.9167V20.9167C3.54357 21.3769 4.28976 21.3769 4.75 20.9167L7.33563 18.331C7.72023 17.9464 8.16697 17.6295 8.65703 17.3935L11.0386 16.2469C11.6494 15.9527 11.9549 15.8057 12.2363 15.6199C12.3299 15.5581 12.4215 15.4932 12.5108 15.4252C12.7791 15.2209 13.0188 14.9812 13.4982 14.5018L14 14M9.75 10.25L11.0833 11.5833" stroke="#292556" stroke-width="1.5" stroke-linecap="round" stroke-linejoin="round"/>
</svg>
