<svg width="24" height="24" viewBox="0 0 24 24" fill="none" xmlns="http://www.w3.org/2000/svg">
<path d="M16 17C16 15.8921 15.5495 14.8893 14.8218 14.1649C14.3952 13.7404 14.1819 13.5281 14.1096 13.3866C14.0778 13.3245 14.0709 13.3077 14.0492 13.2413C14 13.0903 14 12.8925 14 12.4969V12V5C14 3.89543 13.1046 3 12 3V3C10.8954 3 10 3.89543 10 5V6M10 6H11.5M10 6V9M10 9H11.5M10 9V12V12.4969C10 12.8925 10 13.0903 9.95077 13.2413C9.92913 13.3077 9.92216 13.3245 9.89037 13.3866C9.81805 13.5281 9.60477 13.7404 9.17821 14.165C8.45045 14.8893 8 15.8921 8 17C8 19.2091 9.79086 21 12 21C12.7286 21 13.4117 20.8052 14 20.4649" stroke="#292556" stroke-width="1.5" stroke-linecap="round" stroke-linejoin="round"/>
</svg>
