<svg width="24" height="24" viewBox="0 0 24 24" fill="none" xmlns="http://www.w3.org/2000/svg">
<path d="M17.5 10.5454C16.875 7.99996 15.338 6 11.8797 6C8.4213 6 6.5 8.3636 6.5 12C6.5 14.909 8.03704 18 11.8797 18C14.5695 18 16.6829 16.3636 16.6829 14.7272C16.6829 13.0909 15.8009 12.3996 14.5695 11.8433M14.5695 11.8433C13.8053 11.4981 12.6482 11.4545 11.6875 11.6363C10.7511 11.8135 9.95835 12.369 9.95835 13.2727C9.95835 14.1764 10.9247 14.9091 11.8797 14.9091C12.8761 14.9091 13.4777 14.5573 14.0469 13.83C14.6254 13.0909 14.5695 11.8433 14.5695 11.8433ZM14.5695 11.8433C14.4908 9.54409 13.3652 9.09087 11.8797 9.09087C11.1482 9.09087 10.4849 9.40665 10 9.91904M21 10V9.5V9.5C21 7.16537 21 5.99805 20.5277 5.11441C20.1548 4.4167 19.5833 3.84525 18.8856 3.47231C18.0019 3 16.8346 3 14.5 3H10.2C7.20021 3 5.70032 3 4.64886 3.76393C4.30928 4.01065 4.01065 4.30928 3.76393 4.64886C3 5.70032 3 7.20021 3 10.2V13.8C3 16.7998 3 18.2997 3.76393 19.3511C4.01065 19.6907 4.30928 19.9893 4.64886 20.2361C5.70032 21 7.20021 21 10.2 21H14C16.8089 21 18.2134 21 19.2223 20.3259C19.659 20.034 20.034 19.659 20.3259 19.2223C21 18.2134 21 16.8089 21 14V14" stroke="#292556" stroke-width="1.5" stroke-linecap="round" stroke-linejoin="round"/>
</svg>
