<svg width="24" height="24" viewBox="0 0 24 24" fill="none" xmlns="http://www.w3.org/2000/svg">
<path d="M12 16L7.72977 16C6.6429 16 6.09947 16 5.80599 15.7037C5.71301 15.6098 5.63956 15.4984 5.58988 15.3759C5.4331 14.9894 5.64717 14.4899 6.07531 13.4909L7.85446 9.33959C7.9189 9.18924 7.95111 9.11407 7.97064 9.03529C7.97713 9.00909 7.98256 8.98263 7.98691 8.95599C8 8.8759 8 8.79411 8 8.63054L8 4.8C8 4.05005 8 3.67508 8.19098 3.41221C8.25266 3.32732 8.32732 3.25266 8.41221 3.19098C8.67508 3 9.05005 3 9.8 3L14.2 3C14.9499 3 15.3249 3 15.5878 3.19098C15.6727 3.25266 15.7473 3.32732 15.809 3.41221C16 3.67508 16 4.05005 16 4.8L16 7M12 16L16.2702 16C17.3571 16 17.9005 16 18.194 15.7036C18.287 15.6098 18.3604 15.4984 18.4101 15.3759C18.5669 14.9894 18.3528 14.4899 17.9247 13.4909L16.8571 11M12 16L12 21" stroke="#292556" stroke-width="1.5" stroke-linecap="round" stroke-linejoin="round"/>
</svg>
