<svg width="24" height="24" viewBox="0 0 24 24" fill="none" xmlns="http://www.w3.org/2000/svg">
<path d="M6 18.1234V18.8831C6 19.5044 5.49632 20.0081 4.875 20.0081V20.0081C4.25368 20.0081 3.75 19.5044 3.75 18.8831V10.127C3.75 9.50572 4.25368 9.00204 4.875 9.00204V9.00204C5.49632 9.00204 6 9.50572 6 10.127V11.0207M6 18.1234L6.74938 18.8296C7.30255 19.3509 7.57914 19.6115 7.91804 19.7965C8.02624 19.8556 8.15107 19.9137 8.26593 19.9585C8.62567 20.0987 8.98516 20.1405 9.70414 20.224C10.7568 20.3464 12.0779 20.4786 13 20.4966C14.1117 20.5184 15.5394 20.3878 16.6616 20.2562C16.666 20.2557 16.6549 20.257 16.6846 20.2529C17.7371 20.1081 18.7164 19.3234 19.0871 18.3278C19.0976 18.2997 19.1027 18.2852 19.1128 18.2561V18.2561M6 18.1234V11.0207M6 11.0207C7.83793 10.385 8.91091 9.51665 10.3717 8.02263C11.3546 7.01738 12.0289 5.11368 12.4283 4.18787C12.6322 3.71528 13.1127 3.49902 13.6178 3.49902C14.3391 3.49902 15.0231 3.90797 15.2466 4.60941C15.6261 5.80066 15.627 6.93588 15.2494 8.25583V8.25583C15.1171 8.9173 15.5951 9.54485 16.268 9.59293L18.2522 9.73474C20.1405 9.8697 21.3845 11.7622 20.7594 13.5492L20.4271 14.499" stroke="#292556" stroke-width="1.5" stroke-linecap="round" stroke-linejoin="round"/>
</svg>
