<svg width="24" height="24" viewBox="0 0 24 24" fill="none" xmlns="http://www.w3.org/2000/svg">
<path d="M6 5.87461V5.11497C6 4.49365 5.49632 3.98997 4.875 3.98997V3.98997C4.25368 3.98997 3.75 4.49365 3.75 5.11497V13.871C3.75 14.4923 4.25368 14.996 4.875 14.996V14.996C5.49632 14.996 6 14.4923 6 13.871V12.9773M6 5.87461L6.74938 5.16846C7.30255 4.64719 7.57914 4.38656 7.91804 4.20154C8.02624 4.14247 8.15107 4.08436 8.26593 4.03958C8.62567 3.89935 8.98516 3.85756 9.70414 3.774C10.7568 3.65166 12.0779 3.51944 13 3.50141C14.1117 3.47967 15.5394 3.61027 16.6616 3.74187C16.666 3.74239 16.6549 3.74109 16.6846 3.74517C17.7371 3.88997 18.7164 4.67466 19.0871 5.67026C19.0976 5.69834 19.1027 5.71286 19.1128 5.74191V5.74191M6 5.87461V12.9773M6 12.9773C7.83793 13.613 8.91091 14.4814 10.3717 15.9754C11.3546 16.9807 12.0289 18.8844 12.4283 19.8102C12.6322 20.2828 13.1127 20.499 13.6178 20.499C14.3391 20.499 15.0231 20.0901 15.2466 19.3886C15.6261 18.1974 15.627 17.0622 15.2494 15.7422V15.7422C15.1171 15.0807 15.5951 14.4532 16.268 14.4051L18.2522 14.2633C20.1405 14.1283 21.3845 12.2358 20.7594 10.4488L20.4271 9.49902" stroke="#292556" stroke-width="1.5" stroke-linecap="round" stroke-linejoin="round"/>
</svg>
