<svg width="24" height="24" viewBox="0 0 24 24" fill="none" xmlns="http://www.w3.org/2000/svg">
<path d="M20.4515 11L20.7723 9.61535C21.1104 8.15631 21.2794 7.42678 21.2726 6.94127C21.238 4.46012 18.9761 2.60879 16.5371 3.06529C16.0598 3.15462 15.3781 3.4645 14.0147 4.08425V4.08425C13.6625 4.24432 13.4864 4.32436 13.3112 4.38514C12.4619 4.67984 11.5381 4.67984 10.6888 4.38514C10.5136 4.32436 10.3375 4.24432 9.98534 4.08425V4.08425C8.6219 3.4645 7.94018 3.15463 7.4629 3.06529C5.02387 2.60879 2.76198 4.46012 2.72739 6.94127C2.72063 7.42679 2.88964 8.15631 3.22767 9.61535L5.17889 18.0375C5.40036 18.9934 5.51109 19.4713 5.66904 19.7523C6.30704 20.887 7.77196 21.2451 8.86154 20.5328C9.13128 20.3564 9.45005 19.9834 10.0876 19.2375V19.2375C10.4458 18.8184 10.625 18.6088 10.8042 18.4751C11.5136 17.946 12.4864 17.946 13.1958 18.4751C13.375 18.6088 13.5542 18.8184 13.9124 19.2375V19.2375C14.55 19.9834 14.8687 20.3564 15.1385 20.5328C16.228 21.2451 17.693 20.887 18.331 19.7523C18.4889 19.4713 18.5996 18.9934 18.8211 18.0375L19.5248 15" stroke="#292556" stroke-width="1.5" stroke-linecap="round" stroke-linejoin="round"/>
</svg>
