<svg width="24" height="24" viewBox="0 0 24 24" fill="none" xmlns="http://www.w3.org/2000/svg">
<path d="M18.0297 5.9807L16.3916 4.34384C15.8031 3.75573 15.5088 3.46168 15.101 3.36218C14.9817 3.33306 14.818 3.31616 14.6952 3.32028C14.2756 3.33436 13.9782 3.52894 13.3832 3.91812C12.2813 4.63891 11.4458 5.47327 10.7243 6.57396C10.3344 7.1689 10.1394 7.46637 10.1251 7.88644C10.121 8.00933 10.1379 8.17335 10.1671 8.29281C10.2667 8.70113 10.5613 8.99551 11.1505 9.58427L12.787 11.2196M19.0519 9.1524L20.6817 7.52262C20.8143 7.39 20.8806 7.32369 20.8933 7.24344C20.8974 7.21752 20.8974 7.19112 20.8933 7.1652C20.8806 7.08496 20.8142 7.01867 20.6816 6.8861L19.221 5.4266C19.0885 5.29416 19.0222 5.22795 18.942 5.21525C18.9161 5.21115 18.8897 5.21115 18.8638 5.21525C18.7836 5.22795 18.7174 5.29416 18.5848 5.4266L13.0624 10.945C12.8631 11.1442 12.7634 11.2438 12.6483 11.3225C12.61 11.3486 12.5705 11.373 12.53 11.3955C12.4081 11.4632 12.2744 11.5077 12.0071 11.5968L10.0705 12.2418C9.80322 12.3309 9.66956 12.3754 9.54765 12.4431C9.50712 12.4656 9.46766 12.49 9.42939 12.5161C9.31426 12.5948 9.21461 12.6944 9.0153 12.8936L3.31855 18.5861C3.18584 18.7188 3.11948 18.7851 3.10676 18.8653C3.10266 18.8912 3.10266 18.9177 3.10676 18.9436C3.11948 19.0238 3.18584 19.0902 3.31855 19.2228L4.77901 20.6822C4.91154 20.8146 4.97781 20.8808 5.058 20.8935C5.0839 20.8976 5.11028 20.8976 5.13618 20.8935C5.21637 20.8808 5.28263 20.8146 5.41517 20.6822L11.1124 14.9891C11.3117 14.7899 11.4114 14.6904 11.5265 14.6117C11.5647 14.5855 11.6042 14.5611 11.6447 14.5386C11.7666 14.4709 11.9003 14.4264 12.1676 14.3374L14.1037 13.6925C14.3713 13.6034 14.505 13.5588 14.627 13.491C14.6676 13.4685 14.7071 13.4441 14.7454 13.4179C14.8606 13.3391 14.9603 13.2394 15.1597 13.04L16.2212 11.9785" stroke="#292556" stroke-width="1.5" stroke-linecap="round" stroke-linejoin="round"/>
</svg>
