<svg width="24" height="24" viewBox="0 0 24 24" fill="none" xmlns="http://www.w3.org/2000/svg">
<path d="M12 17.0628C12.7834 17.6513 13.7572 18 14.8125 18C16.6428 18 18.2282 16.9509 19 15.4213M12 17.0628C11.5548 17.3972 11.0481 17.6542 10.5 17.8138M12 17.0628V15M13.5 17.8138V20.1C13.5 20.475 13.5 20.6625 13.4045 20.7939C13.3737 20.8363 13.3363 20.8737 13.2939 20.9045C13.1625 21 12.975 21 12.6 21H11.4C11.025 21 10.8375 21 10.7061 20.9045C10.6637 20.8737 10.6263 20.8363 10.5955 20.7939C10.5 20.6625 10.5 20.475 10.5 20.1V17.8138M10.5 17.8138C10.0835 17.935 9.6431 18 9.1875 18C6.59866 18 4.5 15.9013 4.5 13.3125C4.5 11.1084 6.02129 9.25954 8.07116 8.75875C7.88401 8.28166 7.78125 7.76221 7.78125 7.21875C7.78125 4.8888 9.67005 3 12 3C14.33 3 16.2188 4.8888 16.2188 7.21875C16.2188 7.76221 16.116 8.28166 15.9288 8.75875C17.2733 9.08721 18.3904 9.99555 19 11.2037M12 10V12M12 12L14 11M12 12V15M12 15L10 14" stroke="#292556" stroke-width="1.5" stroke-linecap="round" stroke-linejoin="round"/>
</svg>
