<svg width="24" height="24" viewBox="0 0 24 24" fill="none" xmlns="http://www.w3.org/2000/svg">
<path d="M9 7V6C9 5.06812 9 4.60218 9.15224 4.23463C9.35523 3.74458 9.74458 3.35523 10.2346 3.15224C10.6022 3 11.0681 3 12 3V3C12.9319 3 13.3978 3 13.7654 3.15224C14.2554 3.35523 14.6448 3.74458 14.8478 4.23463C15 4.60218 15 5.06812 15 6V7M18 12V11.5V11.5C18 10.5704 18 10.1056 17.9122 9.72118C17.6131 8.41044 16.5896 7.38692 15.2788 7.08775C14.8944 7 14.4296 7 13.5 7H12C9.66111 7 8.49167 7 7.63789 7.53647C7.19267 7.81621 6.81621 8.19267 6.53647 8.63789C6 9.49167 6 10.6611 6 13V14C6 16.3389 6 17.5083 6.53647 18.3621C6.81621 18.8073 7.19267 19.1838 7.63789 19.4635C8.49167 20 9.66111 20 12 20H14C14.4644 20 14.6966 20 14.8919 19.978C16.5145 19.7952 17.7952 18.5145 17.978 16.8919C18 16.6966 18 16.4644 18 16V16" stroke="#292556" stroke-width="1.5" stroke-linecap="round" stroke-linejoin="round"/>
<path d="M8.75 20.25C8.75 20.9404 8.19036 21.5 7.5 21.5C6.80964 21.5 6.25 20.9404 6.25 20.25C6.25 19.5596 6.80964 19 7.5 19C8.19036 19 8.75 19.5596 8.75 20.25Z" fill="#292556"/>
<path d="M17.75 20.25C17.75 20.9404 17.1904 21.5 16.5 21.5C15.8096 21.5 15.25 20.9404 15.25 20.25C15.25 19.5596 15.8096 19 16.5 19C17.1904 19 17.75 19.5596 17.75 20.25Z" fill="#292556"/>
</svg>
