<svg width="24" height="24" viewBox="0 0 24 24" fill="none" xmlns="http://www.w3.org/2000/svg">
<path d="M17 20H7M10.5 16H8.4C6.15016 16 5.02524 16 4.23664 15.4271C3.98196 15.242 3.75799 15.018 3.57295 14.7634C3 13.9748 3 12.8498 3 10.6V9.4C3 7.15016 3 6.02524 3.57295 5.23664C3.75799 4.98196 3.98196 4.75799 4.23664 4.57295C5.02524 4 6.15016 4 8.4 4H17.01C17.9306 4 18.391 4 18.7689 4.1002C19.8103 4.37633 20.6237 5.18971 20.8998 6.23113C21 6.60904 21 7.06936 21 7.99V7.99V8M10.5 16H13.5M10.5 16V20M13.5 16H17C17.93 16 18.395 16 18.7765 15.8978C19.8117 15.6204 20.6204 14.8117 20.8978 13.7765C21 13.395 21 12.93 21 12V12M13.5 16V20" stroke="#292556" stroke-width="1.5" stroke-linecap="round" stroke-linejoin="round"/>
</svg>
