<svg width="24" height="24" viewBox="0 0 24 24" fill="none" xmlns="http://www.w3.org/2000/svg">
<path d="M17.6874 15.4785C15.9263 18.3753 12.8094 20 9.53164 20C6.99266 20 4.68921 18.9992 3 17.3735C3.2611 17.4088 3.52249 17.423 3.79045 17.423C5.41539 17.423 6.9109 16.8224 8.09725 15.8162C6.58016 15.785 5.30035 14.7008 4.86176 13.2032C5.07746 13.25 5.29316 13.2734 5.51605 13.2734C5.8324 13.2734 6.14157 13.2266 6.42917 13.1408C4.84019 12.7898 3.64665 11.2766 3.64665 9.45135V9.40455C4.114 9.68535 4.64606 9.85695 5.21407 9.87255C4.27937 9.20175 3.66822 8.04733 3.66822 6.74472C3.66822 6.05831 3.84078 5.4109 4.13557 4.85709C5.68712 6.9222 7.93023 8.34607 10.4844 8.71009C10.4748 8.59492 10.4699 8.47842 10.4699 8.3608C10.4699 6.04666 12.3603 4.17069 14.6922 4.17069C15.4149 4.17069 16.0951 4.35084 16.6898 4.66836C16.7637 4.7078 16.8363 4.74937 16.9075 4.79298C17.3734 5.07849 17.6064 5.22124 17.7678 5.24114C17.8331 5.24918 17.8621 5.24964 17.9276 5.24367C18.0896 5.2289 18.2677 5.12741 18.6238 4.92444L19.1234 4.63968C20.1423 4.05886 20.6518 3.76846 20.9006 3.91297C20.9763 3.95694 21.0391 4.02 21.0828 4.09585C21.2263 4.34519 20.934 4.85356 20.3492 5.87028L19.2029 7.86341C19.137 7.97796 19.1041 8.03523 19.0872 8.09614C19.0814 8.11701 19.0774 8.1362 19.0742 8.15763C19.0651 8.22018 19.0725 8.28907 19.0873 8.42685C19.2124 9.59364 19.1872 10.6863 19.0341 11.6983" stroke="#292556" stroke-width="1.5" stroke-linecap="round" stroke-linejoin="round"/>
</svg>
