<svg width="24" height="24" viewBox="0 0 24 24" fill="none" xmlns="http://www.w3.org/2000/svg">
<path d="M7.11111 4H4L16.8889 20H20L7.11111 4Z" stroke="#292556" stroke-width="1.5" stroke-linecap="round" stroke-linejoin="round"/>
<path d="M3.61612 18.6161C3.12796 19.1043 3.12796 19.8957 3.61612 20.3839C4.10427 20.872 4.89573 20.872 5.38388 20.3839L3.61612 18.6161ZM20.3839 5.38388C20.872 4.89573 20.872 4.10427 20.3839 3.61612C19.8957 3.12796 19.1043 3.12796 18.6161 3.61612L20.3839 5.38388ZM17.1161 5.11612C16.628 5.60427 16.628 6.39573 17.1161 6.88388C17.6043 7.37204 18.3957 7.37204 18.8839 6.88388L17.1161 5.11612ZM15.3839 10.3839C15.872 9.89573 15.872 9.10427 15.3839 8.61612C14.8957 8.12796 14.1043 8.12796 13.6161 8.61612L15.3839 10.3839ZM5.38388 20.3839L12.0015 13.7662L10.2338 11.9985L3.61612 18.6161L5.38388 20.3839ZM18.8839 6.88388L20.3839 5.38388L18.6161 3.61612L17.1161 5.11612L18.8839 6.88388ZM13.7662 12.0015L15.3839 10.3839L13.6161 8.61612L11.9985 10.2338L13.7662 12.0015Z" fill="#292556"/>
</svg>
