<svg width="24" height="24" viewBox="0 0 24 24" fill="none" xmlns="http://www.w3.org/2000/svg">
<path fill-rule="evenodd" clip-rule="evenodd" d="M17.25 12C14.7647 12 12.75 14.0147 12.75 16.5C12.75 18.9853 14.7647 21 17.25 21C19.7353 21 21.75 18.9853 21.75 16.5C21.75 14.0147 19.7353 12 17.25 12ZM18.0328 14.0017C17.7576 13.6921 17.2835 13.6643 16.9739 13.9394C16.6644 14.2146 16.6365 14.6887 16.9117 14.9983L17.5799 15.75L15.25 15.75C14.8358 15.75 14.5 16.0858 14.5 16.5C14.5 16.9142 14.8358 17.25 15.25 17.25H17.5799L16.9117 18.0017C16.6365 18.3113 16.6644 18.7854 16.9739 19.0606C17.2835 19.3357 17.7576 19.3079 18.0328 18.9983L19.8106 16.9983C20.0631 16.7141 20.0631 16.2859 19.8106 16.0017L18.0328 14.0017Z" fill="#292556"/>
<path fill-rule="evenodd" clip-rule="evenodd" d="M11.0001 2.25C8.92907 2.25 7.25014 3.92893 7.25014 6C7.25014 8.07107 8.92907 9.75 11.0001 9.75C12.1108 9.75 13.1095 9.26617 13.7951 8.50019C14.0713 8.19154 14.0451 7.71739 13.7364 7.44115C13.4278 7.1649 12.9536 7.19117 12.6774 7.49981C12.2643 7.96132 11.6664 8.25 11.0001 8.25C9.7575 8.25 8.75014 7.24264 8.75014 6C8.75014 4.75736 9.7575 3.75 11.0001 3.75C11.6664 3.75 12.2643 4.03868 12.6774 4.50019C12.9536 4.80883 13.4278 4.8351 13.7364 4.55885C14.0451 4.28261 14.0713 3.80846 13.7951 3.49981C13.1095 2.73383 12.1108 2.25 11.0001 2.25ZM9.50991 11.25C6.47112 11.25 3.71736 13.0396 2.48319 15.8165C1.24299 18.6069 3.28558 21.75 6.33923 21.75H14.3435C13.6575 21.3694 13.054 20.8582 12.5665 20.25H6.33923C4.37107 20.25 3.05456 18.2242 3.85391 16.4257C4.84732 14.1905 7.0639 12.75 9.50991 12.75H12.4904C12.5156 12.75 12.5409 12.7502 12.5661 12.7505C12.9871 12.2251 13.4947 11.7721 14.0672 11.4131C13.5551 11.3058 13.0272 11.25 12.4904 11.25H9.50991Z" fill="#292556"/>
</svg>
