<svg width="24" height="24" viewBox="0 0 24 24" fill="none" xmlns="http://www.w3.org/2000/svg">
<path fill-rule="evenodd" clip-rule="evenodd" d="M18.2898 12.4514C17.7272 11.8495 16.7728 11.8495 16.2102 12.4514C15.9297 12.7516 15.5331 12.9159 15.1224 12.902C14.2991 12.8742 13.6242 13.5491 13.652 14.3724C13.6659 14.7831 13.5016 15.1797 13.2014 15.4602C12.5995 16.0228 12.5995 16.9772 13.2014 17.5398C13.5016 17.8203 13.6659 18.2169 13.652 18.6276C13.6242 19.4509 14.2991 20.1258 15.1224 20.098C15.5331 20.0841 15.9297 20.2484 16.2102 20.5486C16.7728 21.1505 17.7272 21.1505 18.2898 20.5486C18.5703 20.2484 18.9669 20.0841 19.3776 20.098C20.2009 20.1258 20.8758 19.4509 20.848 18.6276C20.8341 18.2169 20.9984 17.8203 21.2986 17.5398C21.9005 16.9772 21.9005 16.0228 21.2986 15.4602C20.9984 15.1797 20.8341 14.7831 20.848 14.3724C20.8758 13.5491 20.2009 12.8742 19.3776 12.902C18.9669 12.9159 18.5703 12.7516 18.2898 12.4514ZM19.3607 15.8999C19.6506 15.6041 19.6458 15.1293 19.3499 14.8393C19.0541 14.5494 18.5793 14.5542 18.2893 14.8501L16.6628 16.5098L16.2493 16.0176C15.9829 15.7004 15.5098 15.6593 15.1926 15.9257C14.8754 16.1921 14.8343 16.6652 15.1007 16.9824L16.0457 18.1074C16.1818 18.2694 16.3799 18.3663 16.5913 18.3744C16.8026 18.3826 17.0076 18.301 17.1557 18.1499L19.3607 15.8999Z" fill="#292556"/>
<path fill-rule="evenodd" clip-rule="evenodd" d="M11.0001 2.25C8.92907 2.25 7.25014 3.92893 7.25014 6C7.25014 8.07107 8.92907 9.75 11.0001 9.75C12.1108 9.75 13.1095 9.26617 13.7951 8.50019C14.0713 8.19154 14.0451 7.71739 13.7364 7.44115C13.4278 7.1649 12.9536 7.19117 12.6774 7.49981C12.2643 7.96132 11.6664 8.25 11.0001 8.25C9.7575 8.25 8.75014 7.24264 8.75014 6C8.75014 4.75736 9.7575 3.75 11.0001 3.75C11.6664 3.75 12.2643 4.03868 12.6774 4.50019C12.9536 4.80883 13.4278 4.8351 13.7364 4.55885C14.0451 4.28261 14.0713 3.80846 13.7951 3.49981C13.1095 2.73383 12.1108 2.25 11.0001 2.25ZM9.50991 11.25C6.47112 11.25 3.71736 13.0396 2.48319 15.8165C1.24299 18.6069 3.28558 21.75 6.33923 21.75H14.3435C13.6575 21.3694 13.054 20.8582 12.5665 20.25H6.33923C4.37107 20.25 3.05456 18.2242 3.85391 16.4257C4.84732 14.1905 7.0639 12.75 9.50991 12.75H12.4904C12.5156 12.75 12.5409 12.7502 12.5661 12.7505C12.9871 12.2251 13.4947 11.7721 14.0672 11.4131C13.5551 11.3058 13.0272 11.25 12.4904 11.25H9.50991Z" fill="#292556"/>
</svg>
