<svg width="24" height="24" viewBox="0 0 24 24" fill="none" xmlns="http://www.w3.org/2000/svg">
<path d="M20.9588 15.1105C20.5518 17.505 17.498 19.5 17.498 19.5C17.498 19.5 14.4218 17.5049 14.0373 15.1107C13.6527 12.7164 16.3444 11.9183 17.498 13.7742C18.6516 11.9182 21.3658 12.7161 20.9588 15.1105Z" stroke="#292556" stroke-width="1.5" stroke-linecap="round" stroke-linejoin="round"/>
<path fill-rule="evenodd" clip-rule="evenodd" d="M10.9999 2.25C8.92883 2.25 7.2499 3.92893 7.2499 6C7.2499 8.07107 8.92883 9.75 10.9999 9.75C12.1106 9.75 13.1093 9.26617 13.7949 8.50019C14.0711 8.19154 14.0448 7.71739 13.7362 7.44115C13.4275 7.1649 12.9534 7.19117 12.6772 7.49981C12.2641 7.96132 11.6662 8.25 10.9999 8.25C9.75726 8.25 8.7499 7.24264 8.7499 6C8.7499 4.75736 9.75726 3.75 10.9999 3.75C11.6662 3.75 12.2641 4.03868 12.6772 4.50019C12.9534 4.80883 13.4275 4.8351 13.7362 4.55885C14.0448 4.28261 14.0711 3.80846 13.7949 3.49981C13.1093 2.73383 12.1106 2.25 10.9999 2.25ZM9.50966 11.25C6.47088 11.25 3.71712 13.0396 2.48295 15.8165C1.24275 18.6069 3.28534 21.75 6.33898 21.75H15.6608C16.0943 21.75 16.5074 21.6867 16.8937 21.57C16.8595 21.5444 16.8231 21.5169 16.784 21.4874C16.3874 21.1873 15.8632 20.7658 15.3076 20.25H6.33898C4.37083 20.25 3.05432 18.2242 3.85366 16.4257C4.84708 14.1905 7.06366 12.75 9.50966 12.75H12.3044C12.5919 12.1001 13.0612 11.6231 13.6178 11.3329C13.248 11.2782 12.8713 11.25 12.4901 11.25H9.50966Z" fill="#292556"/>
</svg>
