<svg width="24" height="24" viewBox="0 0 24 24" fill="none" xmlns="http://www.w3.org/2000/svg">
<path d="M19.4745 18.9745C20.1076 18.3412 20.4992 17.4663 20.4992 16.5C20.4992 14.567 18.9323 13 16.9996 13C15.0668 13 13.5 14.567 13.5 16.5C13.5 18.433 15.0668 20 16.9996 20C17.9661 20 18.8412 19.6081 19.4745 18.9745ZM19.4745 18.9745L21 20.5" stroke="#292556" stroke-width="1.5" stroke-linecap="round"/>
<path fill-rule="evenodd" clip-rule="evenodd" d="M11.0001 2.25C8.92907 2.25 7.25014 3.92893 7.25014 6C7.25014 8.07107 8.92907 9.75 11.0001 9.75C12.1108 9.75 13.1095 9.26617 13.7951 8.50019C14.0713 8.19154 14.0451 7.71739 13.7364 7.44115C13.4278 7.1649 12.9536 7.19117 12.6774 7.49981C12.2643 7.96132 11.6664 8.25 11.0001 8.25C9.7575 8.25 8.75014 7.24264 8.75014 6C8.75014 4.75736 9.7575 3.75 11.0001 3.75C11.6664 3.75 12.2643 4.03868 12.6774 4.50019C12.9536 4.80883 13.4278 4.8351 13.7364 4.55885C14.0451 4.28261 14.0713 3.80846 13.7951 3.49981C13.1095 2.73383 12.1108 2.25 11.0001 2.25ZM9.50991 11.25C6.47112 11.25 3.71736 13.0396 2.48319 15.8165C1.24299 18.6069 3.28558 21.75 6.33923 21.75H14.3435C13.6575 21.3694 13.054 20.8582 12.5665 20.25H6.33923C4.37107 20.25 3.05456 18.2242 3.85391 16.4257C4.84732 14.1905 7.0639 12.75 9.50991 12.75H12.4904C12.5156 12.75 12.5409 12.7502 12.5661 12.7505C12.9871 12.2251 13.4947 11.7721 14.0672 11.4131C13.5551 11.3058 13.0272 11.25 12.4904 11.25H9.50991Z" fill="#292556"/>
</svg>
