<svg width="24" height="24" viewBox="0 0 24 24" fill="none" xmlns="http://www.w3.org/2000/svg">
<path d="M3.05747 13.0055C4.73872 10.2582 7.46246 8.36264 10.5757 7.70567M5.63455 18.362L5.63604 18.3635C9.15076 21.8782 14.8492 21.8782 18.364 18.3635C18.6051 18.1224 18.8296 17.871 19.0377 17.6108M5.63455 18.362C2.12163 14.8475 2.12182 9.15081 5.6351 5.63651M5.63455 18.362L5.6345 18.3644M5.63455 18.362C5.67148 16.4465 6.28607 14.8487 7.36733 13.7333M5.6351 5.63651C7.56783 5.63664 9.1586 6.26112 10.2662 7.36875C10.374 7.47652 10.4772 7.58887 10.5757 7.70567M5.6351 5.63651C8.72456 2.54706 13.5022 2.17231 17 4.51415M21 12.0009L21.0014 11.9995M21 12.0009C19.6339 13.3664 18.0677 14.0496 16.5014 14.0503C14.9336 14.0509 13.3657 13.3677 11.9985 12.0005M21 12.0009C20.9997 13.9877 20.3456 15.9745 19.0377 17.6108M21 12.0009C21.0002 10.4443 20.5992 8.8877 19.7968 7.49954M11.9985 12.0005C10.0498 11.9634 8.46714 12.5988 7.36733 13.7333M11.9985 12.0005C11.9985 10.2555 11.4896 8.78931 10.5757 7.70567M7.36733 13.7333C10.2756 17.1854 14.7813 18.6354 19.0377 17.6108M10.9928 3.05582C14.727 5.34104 16.8877 9.5523 16.5031 14.0498" stroke="#292556" stroke-width="1.5" stroke-linecap="round" stroke-linejoin="round"/>
</svg>
