<svg width="24" height="24" viewBox="0 0 24 24" fill="none" xmlns="http://www.w3.org/2000/svg">
<path d="M17 7.83695C18.4964 11.0011 18.4964 13.0011 17 16.1655M19.0571 5.75482C21.647 8.87801 21.647 15.1244 19.0571 18.2476M6.99902 8.50008L6.4991 8.50007C5.09461 8.50004 4.39236 8.50003 3.8879 8.83709C3.66952 8.983 3.48201 9.17051 3.33609 9.38889C2.99902 9.89334 2.99902 10.5956 2.99902 12.0001V12.0001C2.99902 13.4045 2.99902 14.1067 3.33608 14.6112C3.48199 14.8295 3.66949 15.017 3.88786 15.163C4.3923 15.5 5.09451 15.5 6.49895 15.5001L6.99902 15.5001M6.99902 8.50008V15.5001M6.99902 8.50008L9.25742 6.8439C11.0308 5.54339 11.9175 4.89313 12.66 4.95285C13.1831 4.99493 13.6688 5.24099 14.0122 5.63795C14.4995 6.20127 14.4997 7.30085 14.5 9.5V9.5L14.499 10M6.99902 15.5001L8.85416 16.8605C10.9837 18.4222 12.0485 19.203 12.9347 19.0052C13.261 18.9324 13.5638 18.7789 13.8155 18.5589C14.499 17.9612 14.499 16.6408 14.499 14V14" stroke="#292556" stroke-width="1.5" stroke-linecap="round" stroke-linejoin="round"/>
</svg>
