<svg width="24" height="24" viewBox="0 0 24 24" fill="none" xmlns="http://www.w3.org/2000/svg">
<path fill-rule="evenodd" clip-rule="evenodd" d="M15.036 6.19596C14.9045 5.65676 14.6749 5.17632 14.2482 4.82458C13.9352 4.56658 13.569 4.38101 13.1758 4.28118C12.4262 4.09085 11.7016 4.36021 10.9962 4.75793C10.2915 5.15523 9.43528 5.78315 8.36898 6.56513L8.32657 6.59623L6.7535 7.74983L4.99904 7.7498C4.58483 7.74979 4.24903 8.08557 4.24902 8.49978C4.24902 8.91399 4.5848 9.24979 4.99901 9.2498L6.24902 9.24982V14.7496C5.67041 14.7484 5.2549 14.742 4.92669 14.7064C4.54982 14.6656 4.37798 14.5937 4.26428 14.5111C4.15816 14.434 4.06484 14.3406 3.98775 14.2345C3.90514 14.1208 3.83324 13.949 3.79241 13.5721C3.75005 13.1812 3.74902 12.6665 3.74902 11.8998V10.9998C3.74902 10.5855 3.41324 10.2498 2.99902 10.2498C2.58481 10.2498 2.24902 10.5855 2.24902 10.9998V11.8998V11.9409V11.9409C2.24901 12.6559 2.24899 13.2524 2.30113 13.7337C2.35579 14.2382 2.47487 14.7042 2.77421 15.1162C2.94383 15.3496 3.14913 15.555 3.38259 15.7246C3.7946 16.0239 4.26059 16.143 4.76509 16.1977C4.84443 16.2063 4.9269 16.2135 5.01252 16.2195L7.74902 13.4829V8.87989L9.21362 7.80583C10.3322 6.98556 11.116 6.41233 11.7329 6.06457C12.3583 5.71197 12.642 5.69323 12.8067 5.73505C12.9854 5.78042 13.1518 5.86477 13.2941 5.98204C13.4252 6.09013 13.5779 6.32996 13.6634 7.04283C13.6812 7.1913 13.6953 7.35173 13.7065 7.5255L15.036 6.19596ZM8.84444 15.9231L9.21366 16.1938C10.3322 17.0141 11.116 17.5873 11.7329 17.935C12.3583 18.2876 12.642 18.3064 12.8067 18.2645C12.9854 18.2192 13.1518 18.1348 13.2941 18.0175C13.4252 17.9094 13.5779 17.6696 13.6634 16.9568C13.7477 16.2537 13.749 15.2826 13.749 13.8956V11.0185L15.2488 9.51873C15.249 9.69135 15.249 9.86894 15.249 10.0515V10.1041V13.8956V13.9481C15.249 15.2704 15.2491 16.3322 15.1527 17.1354C15.0562 17.9395 14.8449 18.6831 14.2482 19.175C13.9352 19.433 13.569 19.6186 13.1759 19.7184C12.4263 19.9087 11.7017 19.6394 10.9962 19.2417C10.2915 18.8444 9.43534 18.2165 8.36906 17.4346L8.36904 17.4346L8.32662 17.4034L7.7713 16.9962L8.84444 15.9231ZM16.4136 8.35387C17.0731 9.7888 17.3723 10.9129 17.3723 12.0009C17.3723 13.1381 17.0454 14.3147 16.322 15.8446C16.1449 16.219 16.3049 16.6662 16.6794 16.8432C17.0538 17.0203 17.5009 16.8603 17.678 16.4858C18.451 14.8514 18.8723 13.4458 18.8723 12.0009C18.8723 10.556 18.451 9.15048 17.678 7.51606C17.6327 7.42023 17.5697 7.33845 17.4947 7.27277L16.4136 8.35387ZM18.5043 6.26318C19.6385 7.65076 20.2495 9.78853 20.2495 12.001C20.2495 14.2293 19.6296 16.3819 18.4797 17.7686C18.2153 18.0874 18.2595 18.5603 18.5783 18.8247C18.8972 19.0891 19.37 19.0449 19.6344 18.7261C21.0744 16.9896 21.7495 14.4574 21.7495 12.001C21.7495 9.54454 21.0744 7.01236 19.6344 5.27582C19.6126 5.24953 19.5894 5.22511 19.5649 5.20257L18.5043 6.26318Z" fill="#292556"/>
<path d="M3 21L21 3" stroke="#292556" stroke-width="1.5" stroke-linecap="round" stroke-linejoin="round"/>
</svg>
