<svg width="24" height="24" viewBox="0 0 24 24" fill="none" xmlns="http://www.w3.org/2000/svg">
<path d="M7 8.50008L6.50007 8.50007C5.09558 8.50004 4.39334 8.50003 3.88888 8.83709C3.6705 8.983 3.48299 9.17051 3.33707 9.38889C3 9.89334 3 10.5956 3 12.0001V12.0001C3 13.4045 3 14.1067 3.33705 14.6112C3.48297 14.8295 3.67046 15.017 3.88884 15.163C4.39327 15.5 5.09549 15.5 6.49993 15.5001L7 15.5001M7 8.50008V15.5001M7 8.50008L8.86326 7.13367C10.9856 5.5773 12.0467 4.79911 12.9301 4.99364C13.2604 5.06637 13.5668 5.22163 13.8207 5.44493C14.5 6.04227 14.5 7.35818 14.5 9.99V9.99V10M7 15.5001L8.85514 16.8605C10.9847 18.4222 12.0495 19.203 12.9357 19.0052C13.2619 18.9324 13.5648 18.7789 13.8165 18.5589C14.5 17.9612 14.5 16.6408 14.5 14V14M21 10.2551L19.25 12M19.25 12L17.5 13.7449M19.25 12L17.5051 10.25M19.25 12L20.9949 13.75" stroke="#292556" stroke-width="1.5" stroke-linecap="round" stroke-linejoin="round"/>
</svg>
