<svg width="24" height="24" viewBox="0 0 24 24" fill="none" xmlns="http://www.w3.org/2000/svg">
<path d="M6.5 8V8C6.03558 8 5.80337 8 5.60842 8.02567C4.26222 8.2029 3.2029 9.26222 3.02567 10.6084C3 10.8034 3 11.0356 3 11.5V12.2205C3 14.4239 3 15.5256 3.32022 16.2218C3.95411 17.6 5.40364 18.4129 6.91014 18.2352C7.67119 18.1454 8.62091 17.565 10.5204 16.4042V16.4042C10.941 16.1471 11.1514 16.0186 11.3674 15.9466C11.778 15.8097 12.222 15.8097 12.6326 15.9466C12.8486 16.0186 13.0571 16.146 13.474 16.4007L15.8803 17.8713C18.1226 19.2416 21 17.6278 21 15V15V14.9M6.5 8V8C6.5 6.61929 7.61929 5.5 9 5.5H15C16.3807 5.5 17.5 6.61929 17.5 8V8M6.5 8H17.5M17.5 8H18C19.6569 8 21 9.34315 21 11V11M11 10.5H13" stroke="#292556" stroke-width="1.5" stroke-linecap="round" stroke-linejoin="round"/>
</svg>
