<svg width="24" height="24" viewBox="0 0 24 24" fill="none" xmlns="http://www.w3.org/2000/svg">
<path d="M15 10.5H17M18 7V7C18 5.34315 16.6569 4 15 4H10.2C7.20021 4 5.70032 4 4.64886 4.76393C4.30928 5.01065 4.01065 5.30928 3.76393 5.64886C3 6.70032 3 8.20021 3 11.2V15M21 15V15C21 15.9293 21 16.394 20.9231 16.7804C20.6075 18.3671 19.3671 19.6075 17.7804 19.9231C17.394 20 16.9293 20 16 20H9.5C7.16537 20 5.99805 20 5.11441 19.5277C4.4167 19.1548 3.84525 18.5833 3.47231 17.8856C3 17.0019 3 15.8346 3 13.5V13.5C3 11.1654 3 9.99805 3.47231 9.11441C3.84525 8.4167 4.4167 7.84525 5.11441 7.47231C5.99805 7 7.16537 7 9.5 7H17.1C19.2539 7 21 8.74609 21 10.9V10.9V11" stroke="#292556" stroke-width="1.5" stroke-linecap="round" stroke-linejoin="round"/>
</svg>
