<svg width="24" height="24" viewBox="0 0 24 24" fill="none" xmlns="http://www.w3.org/2000/svg">
<path d="M6.25 21C6.25 21.4142 6.58579 21.75 7 21.75C7.41421 21.75 7.75 21.4142 7.75 21H6.25ZM16.25 21C16.25 21.4142 16.5858 21.75 17 21.75C17.4142 21.75 17.75 21.4142 17.75 21H16.25ZM20.25 14C20.25 14.4142 20.5858 14.75 21 14.75C21.4142 14.75 21.75 14.4142 21.75 14H20.25ZM21.75 18C21.75 17.5858 21.4142 17.25 21 17.25C20.5858 17.25 20.25 17.5858 20.25 18H21.75ZM16.5878 12.191L17.0286 11.5842L16.5878 12.191ZM16.809 12.4122L17.4158 11.9714L16.809 12.4122ZM7.41221 12.191L6.97138 11.5842L7.41221 12.191ZM7.19098 12.4122L6.58422 11.9714L7.19098 12.4122ZM19.7654 20.8478L20.0524 21.5407L19.7654 20.8478ZM20.8478 19.7654L20.1548 19.4784L20.8478 19.7654ZM20.455 9.80112L19.7868 10.1416L20.455 9.80112ZM20.7553 10.526L20.042 10.7577L20.7553 10.526ZM11.2178 3.13263L11.3352 3.87339L11.2178 3.13263ZM12.7822 3.13263L12.8995 2.39186L12.7822 3.13263ZM3.24472 10.526L3.95801 10.7577L3.24472 10.526ZM3.54497 9.80112L2.87671 9.46062L3.54497 9.80112ZM3.38197 20.1756L3.98873 19.7347L3.38197 20.1756ZM3.82443 20.618L4.26527 20.0113L3.82443 20.618ZM3.75 17.4V13.7279H2.25V17.4H3.75ZM6.6 21.75H18V20.25H6.6V21.75ZM8.8 12.75H15.2V11.25H8.8V12.75ZM7.75 15V13.8H6.25V15H7.75ZM17.75 15V13.8H16.25V15H17.75ZM7 15.75H17V14.25H7V15.75ZM7.75 21V18H6.25V21H7.75ZM7.75 18V15H6.25V18H7.75ZM17.75 21V18H16.25V21H17.75ZM17.75 18V15H16.25V18H17.75ZM7 18.75H17V17.25H7V18.75ZM12.75 7.75C12.75 8.16421 12.4142 8.5 12 8.5V10C13.2426 10 14.25 8.99264 14.25 7.75H12.75ZM12 8.5C11.5858 8.5 11.25 8.16421 11.25 7.75H9.75C9.75 8.99264 10.7574 10 12 10V8.5ZM11.25 7.75C11.25 7.33579 11.5858 7 12 7V5.5C10.7574 5.5 9.75 6.50736 9.75 7.75H11.25ZM12 7C12.4142 7 12.75 7.33579 12.75 7.75H14.25C14.25 6.50736 13.2426 5.5 12 5.5V7ZM20.25 13.7279V14H21.75V13.7279H20.25ZM15.2 12.75C15.5917 12.75 15.8252 12.751 15.9958 12.7695C16.1523 12.7865 16.1647 12.8106 16.1469 12.7977L17.0286 11.5842C16.748 11.3804 16.4415 11.309 16.1573 11.2782C15.8872 11.249 15.5583 11.25 15.2 11.25V12.75ZM17.75 13.8C17.75 13.4417 17.751 13.1128 17.7218 12.8427C17.691 12.5585 17.6196 12.252 17.4158 11.9714L16.2023 12.8531C16.1894 12.8353 16.2135 12.8477 16.2305 13.0042C16.249 13.1748 16.25 13.4083 16.25 13.8H17.75ZM16.1469 12.7977C16.1682 12.8132 16.1868 12.8318 16.2023 12.8531L17.4158 11.9714C17.3078 11.8228 17.1772 11.6922 17.0286 11.5842L16.1469 12.7977ZM8.8 11.25C8.44173 11.25 8.11279 11.249 7.84267 11.2782C7.55851 11.309 7.25197 11.3804 6.97138 11.5842L7.85305 12.7977C7.83533 12.8106 7.8477 12.7865 8.00424 12.7695C8.17481 12.751 8.40832 12.75 8.8 12.75V11.25ZM7.75 13.8C7.75 13.4083 7.75103 13.1748 7.76951 13.0042C7.78647 12.8477 7.81063 12.8353 7.79775 12.8531L6.58422 11.9714C6.38036 12.252 6.30902 12.5585 6.27824 12.8427C6.24897 13.1128 6.25 13.4417 6.25 13.8H7.75ZM6.97138 11.5842C6.82281 11.6922 6.69216 11.8228 6.58422 11.9714L7.79775 12.8531C7.81317 12.8318 7.83183 12.8132 7.85305 12.7977L6.97138 11.5842ZM18 21.75C18.4557 21.75 18.835 21.7504 19.1454 21.7292C19.4625 21.7076 19.762 21.661 20.0524 21.5407L19.4784 20.1548C19.4012 20.1868 19.284 20.2163 19.0433 20.2327C18.7958 20.2496 18.4762 20.25 18 20.25V21.75ZM20.25 18C20.25 18.4762 20.2496 18.7958 20.2327 19.0433C20.2163 19.284 20.1868 19.4012 20.1548 19.4784L21.5407 20.0524C21.661 19.762 21.7076 19.4625 21.7292 19.1454C21.7504 18.835 21.75 18.4557 21.75 18H20.25ZM20.0524 21.5407C20.7262 21.2616 21.2616 20.7262 21.5407 20.0524L20.1548 19.4784C20.028 19.7846 19.7846 20.028 19.4784 20.1548L20.0524 21.5407ZM17.8336 7.89429C19.0221 9.08273 19.4937 9.56646 19.7868 10.1416L21.1233 9.46062C20.6973 8.62456 20.0146 7.95392 18.8943 6.83363L17.8336 7.89429ZM21.75 13.7279C21.75 12.1436 21.7585 11.1866 21.4686 10.2942L20.042 10.7577C20.2415 11.3717 20.25 12.0472 20.25 13.7279H21.75ZM19.7868 10.1416C19.8879 10.34 19.9732 10.546 20.042 10.7577L21.4686 10.2942C21.3755 10.0077 21.26 9.72902 21.1233 9.46062L19.7868 10.1416ZM6.16637 7.89429C7.50391 6.55675 8.4652 5.59692 9.28963 4.93367C10.1031 4.27927 10.715 3.97162 11.3352 3.87339L11.1005 2.39186C10.1161 2.54777 9.26284 3.03006 8.34939 3.76493C7.44694 4.49095 6.41963 5.51971 5.10571 6.83363L6.16637 7.89429ZM18.8943 6.83363C17.5804 5.51971 16.5531 4.49095 15.6506 3.76493C14.7372 3.03006 13.8839 2.54777 12.8995 2.39186L12.6648 3.87339C13.285 3.97162 13.8969 4.27927 14.7104 4.93367C15.5348 5.59692 16.4961 6.55675 17.8336 7.89429L18.8943 6.83363ZM11.3352 3.87339C11.7756 3.80363 12.2244 3.80363 12.6648 3.87339L12.8995 2.39186C12.3035 2.29747 11.6965 2.29747 11.1005 2.39186L11.3352 3.87339ZM3.75 13.7279C3.75 12.0472 3.75854 11.3717 3.95801 10.7577L2.53143 10.2942C2.24146 11.1866 2.25 12.1436 2.25 13.7279H3.75ZM5.10571 6.83363C3.98542 7.95392 3.30271 8.62456 2.87671 9.46062L4.21322 10.1416C4.50628 9.56646 4.97793 9.08273 6.16637 7.89429L5.10571 6.83363ZM3.95801 10.7577C4.02681 10.546 4.11214 10.34 4.21322 10.1416L2.87671 9.46062C2.73996 9.72902 2.62451 10.0077 2.53143 10.2942L3.95801 10.7577ZM2.25 17.4C2.25 18.1332 2.24897 18.7434 2.30211 19.2339C2.35677 19.7384 2.47585 20.2044 2.7752 20.6164L3.98873 19.7347C3.90612 19.621 3.83421 19.4492 3.79338 19.0723C3.75103 18.6814 3.75 18.1667 3.75 17.4H2.25ZM6.6 20.25C5.83335 20.25 5.3186 20.249 4.92769 20.2066C4.55081 20.1658 4.37897 20.0939 4.26527 20.0113L3.38359 21.2248C3.79562 21.5242 4.26162 21.6432 4.76612 21.6979C5.25659 21.751 5.86676 21.75 6.6 21.75V20.25ZM2.7752 20.6164C2.94482 20.8499 3.15013 21.0552 3.38359 21.2248L4.26527 20.0113C4.15915 19.9342 4.06583 19.8408 3.98873 19.7347L2.7752 20.6164Z" fill="#292556"/>
</svg>
