<svg width="24" height="24" viewBox="0 0 24 24" fill="none" xmlns="http://www.w3.org/2000/svg">
<path fill-rule="evenodd" clip-rule="evenodd" d="M10 3.40644C6.75323 3.92202 4.2124 5.64025 2.457 7.48265C2.17128 7.78253 2.18276 8.25727 2.48265 8.543C2.78253 8.82872 3.25727 8.81724 3.543 8.51735C5.08433 6.89963 7.25708 5.42592 10 4.92833V3.40644ZM10 7.6734C8.02849 8.11892 6.29218 9.18159 4.97673 10.4627C4.67999 10.7517 4.67371 11.2265 4.9627 11.5233C5.2517 11.82 5.72653 11.8263 6.02327 11.5373C7.1009 10.4878 8.47359 9.63338 10 9.21913V7.6734ZM14 9.21913V7.6734C15.9715 8.11893 17.7078 9.18159 19.0233 10.4627C19.32 10.7517 19.3263 11.2265 19.0373 11.5233C18.7483 11.82 18.2735 11.8263 17.9767 11.5373C16.8991 10.4878 15.5264 9.63338 14 9.21913ZM10 11.9611C9.05534 12.2667 8.20072 12.7824 7.4865 13.4534C7.1846 13.737 7.16976 14.2116 7.45336 14.5135C7.73696 14.8154 8.2116 14.8302 8.5135 14.5466C8.95115 14.1355 9.45276 13.8016 10 13.5631V11.9611ZM14 13.5631V11.9611C14.9447 12.2667 15.7993 12.7824 16.5135 13.4534C16.8154 13.737 16.8302 14.2116 16.5466 14.5135C16.263 14.8154 15.7884 14.8302 15.4865 14.5466C15.0489 14.1355 14.5472 13.8016 14 13.5631ZM14 4.92833V3.40644C17.2468 3.92203 19.7876 5.64025 21.543 7.48265C21.8287 7.78253 21.8172 8.25727 21.5174 8.543C21.2175 8.82872 20.7427 8.81724 20.457 8.51735C18.9157 6.89963 16.7429 5.42593 14 4.92833ZM10.75 18C10.75 17.3096 11.3096 16.75 12 16.75C12.4617 16.75 12.866 17 13.0832 17.3755C13.2906 17.7341 13.7494 17.8566 14.108 17.6492C14.4665 17.4418 14.589 16.983 14.3816 16.6245C13.9073 15.8044 13.0188 15.25 12 15.25C10.4812 15.25 9.25 16.4812 9.25 18C9.25 19.5188 10.4812 20.75 12 20.75C12.4142 20.75 12.75 20.4142 12.75 20C12.75 19.5858 12.4142 19.25 12 19.25C11.3096 19.25 10.75 18.6904 10.75 18Z" fill="#292556"/>
<path d="M12 13.9922L12 2.99219" stroke="#292556" stroke-width="1.5" stroke-linecap="round"/>
</svg>
