<svg width="24" height="24" viewBox="0 0 24 24" fill="none" xmlns="http://www.w3.org/2000/svg">
<path fill-rule="evenodd" clip-rule="evenodd" d="M15.4932 3.73878C14.4186 3.42912 13.253 3.25 12 3.25C7.78458 3.25 4.55814 5.27737 2.45701 7.48265C2.17128 7.78253 2.18276 8.25727 2.48265 8.543C2.78253 8.82872 3.25727 8.81724 3.543 8.51735C5.44186 6.52438 8.29902 4.75 12 4.75C12.7903 4.75 13.5422 4.83091 14.2544 4.97759L15.4932 3.73878ZM11.781 7.45094C9.07748 7.51744 6.67597 8.80781 4.97673 10.4627C4.67999 10.7517 4.67371 11.2265 4.96271 11.5233C5.2517 11.82 5.72653 11.8263 6.02327 11.5373C7.10504 10.4838 8.48415 9.62681 10.0176 9.21437L11.781 7.45094ZM13.6377 9.12981L14.8576 7.90992C16.4752 8.43761 17.9021 9.37081 19.0233 10.4627C19.32 10.7517 19.3263 11.2265 19.0373 11.5233C18.7483 11.82 18.2735 11.8263 17.9767 11.5373C16.8145 10.4054 15.3091 9.50043 13.6377 9.12981ZM8.01773 14.7498L11.052 11.7155C11.3617 11.67 11.6781 11.6465 12 11.6465C13.7394 11.6465 15.3219 12.334 16.5135 13.4534C16.8154 13.737 16.8302 14.2116 16.5466 14.5135C16.263 14.8154 15.7884 14.8302 15.4865 14.5466C14.5551 13.6717 13.334 13.1465 12 13.1465C10.666 13.1465 9.44489 13.6717 8.5135 14.5466C8.37334 14.6783 8.19595 14.7456 8.01773 14.7498ZM16.8888 5.87873L18.0029 4.76466C19.4059 5.51907 20.5901 6.48257 21.543 7.48265C21.8287 7.78253 21.8172 8.25727 21.5174 8.543C21.2175 8.82872 20.7427 8.81724 20.457 8.51735C19.5041 7.51723 18.3099 6.57215 16.8888 5.87873ZM10.75 18C10.75 17.3096 11.3096 16.75 12 16.75C12.4617 16.75 12.866 17 13.0832 17.3755C13.2906 17.7341 13.7494 17.8566 14.108 17.6492C14.4665 17.4418 14.589 16.983 14.3816 16.6245C13.9073 15.8044 13.0188 15.25 12 15.25C10.4812 15.25 9.25 16.4812 9.25 18C9.25 19.5188 10.4812 20.75 12 20.75C12.4142 20.75 12.75 20.4142 12.75 20C12.75 19.5858 12.4142 19.25 12 19.25C11.3096 19.25 10.75 18.6904 10.75 18Z" fill="#292556"/>
<path d="M4 18L20 2" stroke="#292556" stroke-width="1.5" stroke-linecap="round" stroke-linejoin="round"/>
</svg>
