<svg width="24" height="24" viewBox="0 0 24 24" fill="none" xmlns="http://www.w3.org/2000/svg">
<path d="M20.9107 10C20.9084 9.96931 20.906 9.93864 20.9036 9.90799V9.90799C20.8085 8.69093 20.761 8.08239 20.4219 7.49431C20.2078 7.12301 19.8122 6.70664 19.4523 6.47386C18.8823 6.10518 18.2789 6.02687 17.0722 5.87027C15.5549 5.67336 13.7283 5.5 12 5.5C10.3878 5.5 8.69 5.65085 7.23759 5.83096C5.71759 6.01944 4.95759 6.11368 4.29539 6.64273C4.10304 6.7964 3.87199 7.03996 3.72866 7.24013C3.23524 7.92929 3.18122 8.69256 3.07317 10.2191C3.02923 10.8399 3 11.457 3 12C3 12.543 3.02923 13.1601 3.07317 13.7809C3.18122 15.3074 3.23524 16.0707 3.72866 16.7599C3.87199 16.96 4.10304 17.2036 4.29539 17.3573C4.95759 17.8863 5.71759 17.9806 7.23759 18.169C8.69 18.3491 10.3878 18.5 12 18.5C13.6939 18.5 15.4822 18.3335 16.9811 18.1415C18.2794 17.9752 18.9285 17.892 19.5279 17.4789C19.8362 17.2664 20.1835 16.9008 20.3798 16.5819C20.7615 15.9621 20.8113 15.3081 20.9107 14V14" stroke="#292556" stroke-width="1.5" stroke-linecap="round" stroke-linejoin="round"/>
<path d="M12.5777 9.78885C14.0725 10.5362 14.8198 10.9099 15.0335 11.4303C15.1834 11.7953 15.1834 12.2047 15.0335 12.5697C14.8198 13.0901 14.0725 13.4638 12.5777 14.2111V14.2111C11.3338 14.8331 10.7118 15.1441 10.2085 15.0443C9.85352 14.974 9.53596 14.7778 9.31432 14.4917C9 14.0861 9 13.3907 9 12V12C9 10.6093 9 9.91389 9.31432 9.50826C9.53596 9.22224 9.85352 9.02598 10.2085 8.95566C10.7118 8.85592 11.3338 9.1669 12.5777 9.78885V9.78885Z" fill="#292556"/>
</svg>
