<svg width="24" height="24" viewBox="0 0 24 24" fill="none" xmlns="http://www.w3.org/2000/svg">
<path d="M20.8544 5.44845C21.3295 6.12706 21.1646 7.06238 20.486 7.53755L8.12123 16.1955C7.63182 16.5381 7.38712 16.7095 7.11644 16.7313C7.02821 16.7385 6.93942 16.7338 6.85241 16.7176C6.58547 16.6677 6.35989 16.4719 5.90874 16.0802L3.82783 14.2736C3.31823 13.8312 3.06343 13.61 2.97627 13.3549C2.89304 13.1114 2.9069 12.8451 3.01499 12.6116C3.12818 12.367 3.40459 12.1734 3.9574 11.7864V11.7864C4.24155 11.5874 4.38363 11.4879 4.53879 11.4416C4.68802 11.3971 4.84558 11.3881 4.99892 11.4152C5.15836 11.4435 5.31087 11.5261 5.61591 11.6912L7.46216 12.6909C7.56761 12.748 7.62034 12.7766 7.67654 12.7796C7.69499 12.7806 7.71348 12.7795 7.73169 12.7764C7.78718 12.767 7.8363 12.7326 7.93454 12.6639L9.69206 11.4332C9.88382 11.2989 9.97971 11.2318 10.0017 11.1394C10.0087 11.1099 10.0103 11.0793 10.0064 11.0492C9.99413 10.955 9.90574 10.8783 9.72896 10.7248L5.9292 7.42594C5.75242 7.27246 5.66404 7.19573 5.65176 7.10152C5.64784 7.07143 5.64944 7.04087 5.65646 7.01135C5.67845 6.91893 5.77434 6.85179 5.96611 6.71752L6.55006 6.30862C6.62539 6.25588 6.66305 6.22951 6.70581 6.21811C6.71993 6.21435 6.73435 6.21183 6.74891 6.21059C6.79301 6.20682 6.83738 6.21887 6.92612 6.24297L14.0565 8.17952C14.1453 8.20362 14.1896 8.21567 14.2337 8.2119C14.2483 8.21066 14.2627 8.20814 14.2768 8.20438C14.3196 8.19298 14.3573 8.16661 14.4326 8.11387L18.7653 5.08009C19.4439 4.60492 20.3792 4.76985 20.8544 5.44845V5.44845Z" fill="#292556" fill-opacity="0.18"/>
<path d="M3 21H21M7.46216 12.6909L5.61591 11.6912C5.31087 11.5261 5.15836 11.4435 4.99892 11.4152C4.84558 11.3881 4.68802 11.3971 4.53879 11.4416C4.38363 11.4879 4.24155 11.5874 3.9574 11.7864V11.7864C3.40459 12.1734 3.12818 12.367 3.01499 12.6116C2.9069 12.8451 2.89304 13.1114 2.97627 13.3549C3.06343 13.61 3.31823 13.8312 3.82783 14.2736L5.90874 16.0802C6.35989 16.4719 6.58547 16.6677 6.85241 16.7176C6.93942 16.7338 7.02821 16.7385 7.11644 16.7313C7.38712 16.7095 7.63182 16.5381 8.12123 16.1955L20.486 7.53755C21.1646 7.06238 21.3295 6.12706 20.8544 5.44845V5.44845C20.3792 4.76985 19.4439 4.60492 18.7653 5.08009L14.4326 8.11387C14.3573 8.16661 14.3196 8.19298 14.2768 8.20438C14.2627 8.20814 14.2483 8.21066 14.2337 8.2119C14.1896 8.21567 14.1453 8.20362 14.0565 8.17952L6.92612 6.24297C6.83738 6.21887 6.79301 6.20682 6.74891 6.21059C6.73435 6.21183 6.71993 6.21435 6.70581 6.21811C6.66305 6.22951 6.62539 6.25588 6.55006 6.30862L5.96611 6.71752C5.77434 6.85179 5.67845 6.91893 5.65646 7.01135C5.64944 7.04087 5.64784 7.07143 5.65176 7.10152C5.66404 7.19573 5.75242 7.27246 5.9292 7.42594L9.72896 10.7248C9.90574 10.8783 9.99413 10.955 10.0064 11.0492C10.0103 11.0793 10.0087 11.1099 10.0017 11.1394C9.97971 11.2318 9.88382 11.2989 9.69206 11.4332L7.93454 12.6639C7.8363 12.7326 7.78718 12.767 7.73169 12.7764C7.71348 12.7795 7.69499 12.7806 7.67654 12.7796C7.62034 12.7766 7.56761 12.748 7.46216 12.6909Z" stroke="#292556" stroke-width="1.5" stroke-linecap="round" stroke-linejoin="round"/>
</svg>
