<svg width="24" height="24" viewBox="0 0 24 24" fill="none" xmlns="http://www.w3.org/2000/svg">
<path fill-rule="evenodd" clip-rule="evenodd" d="M13.7684 4.22005C15.4282 2.56032 18.1191 2.56032 19.7788 4.22005V4.22005C21.4386 5.87978 21.4386 8.57073 19.7788 10.2305L10.2329 19.7764C8.57317 21.4361 5.88222 21.4361 4.22249 19.7764V19.7764C2.56276 18.1167 2.56276 15.4257 4.22249 13.766L13.7684 4.22005ZM14.4759 11.9975C15.1593 11.314 15.1593 10.206 14.4759 9.52259V9.52259C13.7925 8.83918 12.6845 8.83918 12.001 9.52259L9.52617 11.9975C8.84275 12.6809 8.84275 13.7889 9.52617 14.4723V14.4723C10.2096 15.1558 11.3176 15.1558 12.001 14.4723L14.4759 11.9975Z" fill="#292556" fill-opacity="0.18"/>
<path d="M7.58105 15.7121C7.38579 15.9073 7.0692 15.9073 6.87394 15.7121C6.67868 15.5168 6.67868 15.2002 6.87394 15.005C7.0692 14.8097 7.38579 14.8097 7.58105 15.005C7.77631 15.2002 7.77631 15.5168 7.58105 15.7121Z" fill="#292556"/>
<path d="M8.99511 17.1261C8.79985 17.3214 8.48327 17.3214 8.28801 17.1261C8.09274 16.9309 8.09274 16.6143 8.28801 16.419C8.48327 16.2238 8.79985 16.2238 8.99511 16.419C9.19037 16.6143 9.19037 16.9309 8.99511 17.1261Z" fill="#292556"/>
<path d="M6.16699 17.1261C5.97172 17.3214 5.65514 17.3214 5.45988 17.1261C5.26462 16.9309 5.26462 16.6143 5.45988 16.419C5.65514 16.2238 5.97172 16.2238 6.16699 16.419C6.36225 16.6143 6.36225 16.9309 6.16699 17.1261Z" fill="#292556"/>
<path d="M7.58105 18.5402C7.38579 18.7355 7.0692 18.7355 6.87394 18.5402C6.67868 18.3449 6.67868 18.0283 6.87394 17.8331C7.0692 17.6378 7.38579 17.6378 7.58105 17.8331C7.77631 18.0283 7.77631 18.3449 7.58105 18.5402Z" fill="#292556"/>
<path d="M17.127 6.16613C16.9317 6.36139 16.6151 6.36139 16.4199 6.16613C16.2246 5.97087 16.2246 5.65428 16.4199 5.45902C16.6151 5.26376 16.9317 5.26376 17.127 5.45902C17.3223 5.65428 17.3223 5.97087 17.127 6.16613Z" fill="#292556"/>
<path d="M18.5411 7.58019C18.3458 7.77545 18.0292 7.77545 17.8339 7.58019C17.6387 7.38493 17.6387 7.06835 17.8339 6.87308C18.0292 6.67782 18.3458 6.67782 18.5411 6.87308C18.7363 7.06835 18.7363 7.38493 18.5411 7.58019Z" fill="#292556"/>
<path d="M15.7129 7.58019C15.5177 7.77545 15.2011 7.77545 15.0058 7.58019C14.8106 7.38493 14.8106 7.06835 15.0058 6.87308C15.2011 6.67782 15.5177 6.67782 15.7129 6.87308C15.9082 7.06835 15.9082 7.38493 15.7129 7.58019Z" fill="#292556"/>
<path d="M17.127 8.99425C16.9317 9.18952 16.6151 9.18952 16.4199 8.99425C16.2246 8.79899 16.2246 8.48241 16.4199 8.28715C16.6151 8.09189 16.9317 8.09188 17.127 8.28715C17.3223 8.48241 17.3223 8.79899 17.127 8.99425Z" fill="#292556"/>
<path d="M13.7682 4.22005C15.428 2.56032 18.1189 2.56032 19.7786 4.22005V4.22005C21.4384 5.87978 21.4384 8.57073 19.7786 10.2305L10.2327 19.7764C8.57297 21.4361 5.88202 21.4361 4.22229 19.7764V19.7764C2.56256 18.1167 2.56256 15.4257 4.22229 13.766L13.7682 4.22005Z" stroke="#292556" stroke-width="1.5" stroke-linejoin="round"/>
<path d="M12.0005 9.52335C12.6839 8.83993 13.7919 8.83993 14.4753 9.52335V9.52335C15.1588 10.2068 15.1588 11.3148 14.4753 11.9982L12.0005 14.4731C11.317 15.1565 10.209 15.1565 9.52559 14.4731V14.4731C8.84218 13.7897 8.84218 12.6816 9.52559 11.9982L12.0005 9.52335Z" stroke="#292556" stroke-width="1.5" stroke-linejoin="round"/>
</svg>
