<svg width="24" height="24" viewBox="0 0 24 24" fill="none" xmlns="http://www.w3.org/2000/svg">
<path d="M17.5 14C19.1023 14 20.4531 15.0767 20.8684 16.5461L19.4138 6H14.3966L14.2931 9L14.1897 12L14.0085 17.2548C14.1343 15.4362 15.6494 14 17.5 14Z" fill="#292556" fill-opacity="0.18"/>
<path d="M3.13158 16.5461C3.54688 15.0767 4.8977 14 6.5 14C8.35057 14 9.86569 15.4362 9.99155 17.2548L9.81034 12L9.7069 9L9.60345 6H4.58621L3.13158 16.5461Z" fill="#292556" fill-opacity="0.18"/>
<path fill-rule="evenodd" clip-rule="evenodd" d="M3 17.5L3.13158 16.5461C3.04586 16.8493 3 17.1693 3 17.5ZM9.99155 17.2548C9.99715 17.3358 10 17.4176 10 17.5L9.99155 17.2548Z" fill="#292556" fill-opacity="0.18"/>
<path fill-rule="evenodd" clip-rule="evenodd" d="M14.0085 17.2548C14.0028 17.3358 14 17.4176 14 17.5L14.0085 17.2548ZM21 17.5C21 17.1693 20.9541 16.8493 20.8684 16.5461L21 17.5Z" fill="#292556" fill-opacity="0.18"/>
<path d="M9.81034 12C11.5 10.75 12.5 10.75 14.1897 12L14.2931 9C12.5 8 11.5 8 9.7069 9L9.81034 12Z" fill="#292556" fill-opacity="0.18"/>
<path d="M21 17.5C21 19.433 19.433 21 17.5 21C15.567 21 14 19.433 14 17.5M21 17.5L20.8684 16.5461M21 17.5C21 17.1693 20.9541 16.8493 20.8684 16.5461M14 17.5L14.0085 17.2548M14 17.5C14 17.4176 14.0028 17.3358 14.0085 17.2548M19.4138 6L19.2916 5.11419C19.1245 3.90253 18.0889 3 16.8658 3V3C15.5462 3 14.4639 4.0456 14.4185 5.36439L14.3966 6M19.4138 6H14.3966M19.4138 6L20.8684 16.5461M14.3966 6L14.2931 9M3 17.5C3 19.433 4.567 21 6.5 21C8.433 21 10 19.433 10 17.5M3 17.5L3.13158 16.5461M3 17.5C3 17.1693 3.04586 16.8493 3.13158 16.5461M10 17.5L9.99155 17.2548M10 17.5C10 17.4176 9.99715 17.3358 9.99155 17.2548M4.58621 6L4.70839 5.11419C4.87551 3.90253 5.91107 3 7.1342 3V3C8.45378 3 9.53606 4.0456 9.58153 5.36439L9.60345 6M4.58621 6H9.60345M4.58621 6L3.13158 16.5461M9.60345 6L9.7069 9M9.81034 12C11.5 10.75 12.5 10.75 14.1897 12M9.81034 12L9.7069 9M9.81034 12L9.99155 17.2548M14.1897 12L14.2931 9M14.1897 12L14.0085 17.2548M9.7069 9C11.5 8 12.5 8 14.2931 9M20.8684 16.5461C20.4531 15.0767 19.1023 14 17.5 14C15.6494 14 14.1343 15.4362 14.0085 17.2548M3.13158 16.5461C3.54688 15.0767 4.8977 14 6.5 14C8.35057 14 9.86569 15.4362 9.99155 17.2548" stroke="#292556" stroke-width="1.5" stroke-linecap="round" stroke-linejoin="round"/>
</svg>
