<svg width="24" height="24" viewBox="0 0 24 24" fill="none" xmlns="http://www.w3.org/2000/svg">
<path fill-rule="evenodd" clip-rule="evenodd" d="M8.33334 9.10092L4.86675 11.4832C4.17169 11.9609 3.82415 12.1997 3.82037 12.4581C3.8192 12.538 3.83718 12.617 3.87282 12.6885C3.98809 12.9198 4.40477 12.9846 5.23812 13.1143L8.57405 13.6333C9.0891 13.7135 9.34662 13.7535 9.4687 13.9162C9.50747 13.9679 9.53586 14.0265 9.5523 14.089C9.60409 14.2857 9.47567 14.5125 9.21884 14.9661L6.95387 18.9662C6.34927 20.0339 6.04697 20.5678 6.19647 20.8176C6.24186 20.8935 6.30655 20.9559 6.38394 20.9986C6.63883 21.1393 7.16178 20.8184 8.20769 20.1768L15.1499 15.9175L8.33334 9.10092ZM17.3411 14.5732L19.1336 13.4735C19.8318 13.0451 20.1809 12.8309 20.2002 12.5762C20.2062 12.4973 20.1934 12.4182 20.1629 12.3452C20.0642 12.1096 19.6654 12.0164 18.8678 11.83L15.2238 10.9783C14.7642 10.8709 14.5343 10.8172 14.4247 10.6607C14.3897 10.6108 14.3641 10.5549 14.3492 10.4957C14.3027 10.3104 14.4124 10.1015 14.6318 9.68353L16.9756 5.21982C17.5676 4.09234 17.8637 3.5286 17.7029 3.28268C17.6541 3.20813 17.5863 3.14796 17.5066 3.10838C17.2433 2.97781 16.7186 3.33844 15.6691 4.05968L10.4288 7.66087L17.3411 14.5732Z" fill="#292556" fill-opacity="0.18"/>
<path fill-rule="evenodd" clip-rule="evenodd" d="M7.79385 8.56162L3.5086 11.5065L3.48222 11.5246C3.33199 11.6278 3.17006 11.739 3.04966 11.8438C2.9481 11.9323 2.66634 12.186 2.66026 12.6011C2.65792 12.7608 2.69389 12.9188 2.76516 13.0618C2.95035 13.4334 3.31418 13.5401 3.44401 13.5759C3.59793 13.6182 3.79203 13.6484 3.97212 13.6763L3.97214 13.6763L4.00375 13.6812L8.67304 14.4078L5.44229 20.1135L5.42504 20.144C5.28885 20.3844 5.16011 20.6117 5.07878 20.7948C5.03622 20.8906 4.98505 21.0205 4.96131 21.1647C4.93715 21.3116 4.92877 21.5535 5.07269 21.7939C5.16347 21.9456 5.29285 22.0705 5.44762 22.1559C5.693 22.2913 5.93444 22.2745 6.08035 22.2452C6.22366 22.2164 6.3517 22.1607 6.44594 22.1148C6.62605 22.0271 6.84869 21.8905 7.08422 21.7459L7.08424 21.7459L7.11405 21.7276L15.6951 16.4629L14.6045 15.3723L7.32016 19.8414L10.1921 14.7693L10.2038 14.7487L10.2038 14.7487C10.2572 14.6546 10.3258 14.5336 10.3726 14.4218C10.4257 14.2949 10.5065 14.0554 10.4315 13.7703C10.3986 13.6454 10.3418 13.528 10.2643 13.4247C10.0873 13.1888 9.84934 13.1036 9.71683 13.0665C9.60017 13.0338 9.46265 13.0125 9.35571 12.9959L9.33237 12.9923L4.98038 12.3151L8.87258 9.64035L7.79385 8.56162ZM13.4765 10.7087C13.4395 10.4793 13.4977 10.2881 13.5407 10.1762C13.5816 10.0699 13.6418 9.9554 13.6872 9.86916L13.6973 9.84988L16.5933 4.33451L10.9681 8.2003L9.88933 7.12157L16.7429 2.41169L16.7718 2.39182C17.0091 2.2287 17.2309 2.07625 17.4103 1.97659C17.5037 1.9247 17.63 1.86143 17.7721 1.82442C17.9151 1.78718 18.1616 1.75426 18.4197 1.88226C18.5793 1.96142 18.7148 2.08178 18.8123 2.23088C18.9699 2.47197 18.9664 2.72064 18.9463 2.86703C18.9264 3.01255 18.8785 3.1454 18.838 3.2443C18.7603 3.43427 18.6352 3.67253 18.5013 3.92746L18.485 3.95853L15.2057 10.2039L20.1046 11.3488L20.1353 11.356L20.1353 11.356C20.3072 11.3961 20.4945 11.4398 20.6423 11.4929C20.7704 11.5389 21.1159 11.6713 21.2732 12.0471C21.3343 12.193 21.3599 12.3514 21.348 12.5091C21.3171 12.9154 21.0309 13.1499 20.9239 13.234C20.8004 13.3309 20.6364 13.4314 20.4859 13.5237L20.4859 13.5237L20.459 13.5402L17.8863 15.1186L16.7957 14.0279L19.0524 12.6434L14.4867 11.5763L14.4655 11.5713L14.4654 11.5713C14.4158 11.5598 14.3577 11.5462 14.2982 11.5304L13.4765 10.7087ZM3.83238 12.1267L3.83521 12.1276C3.83325 12.127 3.83235 12.1267 3.83238 12.1267ZM4.02712 12.982L4.02926 12.9799C4.02829 12.9808 4.02767 12.9814 4.02735 12.9818C4.02718 12.9819 4.0271 12.982 4.02712 12.982Z" fill="#292556"/>
<path d="M21 21L3 3" stroke="#292556" stroke-width="1.5" stroke-linecap="round" stroke-linejoin="round"/>
</svg>
