<svg width="24" height="24" viewBox="0 0 24 24" fill="none" xmlns="http://www.w3.org/2000/svg">
<path d="M13.0643 7.40839L7.40742 13.0652C6.4311 12.0889 4.84819 12.0889 3.87188 13.0652C2.89557 14.0416 2.89557 15.6245 3.87188 16.6008C4.84819 17.5771 6.4311 17.5771 7.40742 16.6008C6.4311 17.5771 6.4311 19.16 7.40742 20.1363C8.38373 21.1126 9.96664 21.1126 10.9429 20.1363C11.9193 19.16 11.9193 17.5771 10.9429 16.6008L16.5998 10.9439C17.5761 11.9202 19.159 11.9202 20.1353 10.9439C21.1116 9.96762 21.1116 8.3847 20.1353 7.40839C19.159 6.43208 17.5761 6.43208 16.5998 7.40839C17.5761 6.43208 17.5761 4.84917 16.5998 3.87286C15.6235 2.89655 14.0406 2.89655 13.0643 3.87286C12.088 4.84917 12.088 6.43208 13.0643 7.40839Z" fill="#292556" fill-opacity="0.18"/>
<path d="M13.0643 7.40839L7.40742 13.0652C6.4311 12.0889 4.84819 12.0889 3.87188 13.0652C2.89557 14.0416 2.89557 15.6245 3.87188 16.6008C4.84819 17.5771 6.4311 17.5771 7.40742 16.6008C6.4311 17.5771 6.4311 19.16 7.40742 20.1363C8.38373 21.1126 9.96664 21.1126 10.9429 20.1363C11.9193 19.16 11.9193 17.5771 10.9429 16.6008L16.5998 10.9439C17.5761 11.9202 19.159 11.9202 20.1353 10.9439C21.1116 9.96762 21.1116 8.3847 20.1353 7.40839C19.159 6.43208 17.5761 6.43208 16.5998 7.40839C17.5761 6.43208 17.5761 4.84917 16.5998 3.87286C15.6235 2.89655 14.0406 2.89655 13.0643 3.87286C12.088 4.84917 12.088 6.43208 13.0643 7.40839Z" stroke="#292556" stroke-width="1.5" stroke-linejoin="round"/>
</svg>
