<svg width="24" height="24" viewBox="0 0 24 24" fill="none" xmlns="http://www.w3.org/2000/svg">
<path d="M18 6.472C18 5.49048 18 4.99973 17.7387 4.71335C17.6455 4.61127 17.5322 4.5296 17.4059 4.47351C17.0516 4.31614 16.586 4.47133 15.6549 4.78171V4.78171C14.1133 5.29558 13.3425 5.55251 12.8272 6.09367C12.639 6.29144 12.4785 6.514 12.3505 6.75517C12 7.41508 12 8.22757 12 9.85256V17.5026C12 18.5077 12 19.0103 12.2731 19.2993C12.36 19.3913 12.4636 19.466 12.5783 19.5193C12.939 19.687 13.4157 19.5281 14.3692 19.2103L16.7692 18.4103C17.2953 18.2349 17.5583 18.1472 17.7321 17.9605C17.7889 17.8994 17.8378 17.8315 17.8778 17.7583C18 17.5344 18 17.2571 18 16.7026V6.472Z" fill="#292556" fill-opacity="0.18"/>
<path d="M6 6.472C6 5.49048 6 4.99973 6.26134 4.71335C6.35449 4.61127 6.4678 4.5296 6.5941 4.47351C6.94842 4.31614 7.414 4.47133 8.34514 4.78171V4.78171C9.88674 5.29558 10.6575 5.55251 11.1728 6.09367C11.361 6.29144 11.5215 6.514 11.6495 6.75517C12 7.41508 12 8.22757 12 9.85256V17.5026C12 18.5077 12 19.0103 11.7269 19.2993C11.64 19.3913 11.5364 19.466 11.4217 19.5193C11.061 19.687 10.5843 19.5281 9.63079 19.2103L7.23079 18.4103C6.70475 18.2349 6.44173 18.1472 6.26792 17.9605C6.21112 17.8994 6.16218 17.8315 6.12223 17.7583C6 17.5344 6 17.2571 6 16.7026V6.472Z" fill="#292556" fill-opacity="0.18"/>
<path d="M12 20V9.85256C12 8.22757 12 7.41508 12.3505 6.75517C12.4785 6.514 12.639 6.29144 12.8272 6.09367C13.3425 5.55251 14.1133 5.29558 15.6549 4.78171V4.78171C16.586 4.47133 17.0516 4.31614 17.4059 4.47351C17.5322 4.5296 17.6455 4.61127 17.7387 4.71335C18 4.99973 18 5.49048 18 6.472V16.7026C18 17.2571 18 17.5344 17.8778 17.7583C17.8378 17.8315 17.7889 17.8994 17.7321 17.9605C17.5583 18.1472 17.2953 18.2349 16.7692 18.4103L12 20ZM12 20H19.2C19.9499 20 20.3249 20 20.5878 19.809C20.6727 19.7473 20.7473 19.6727 20.809 19.5878C21 19.3249 21 18.9499 21 18.2V8.49737C21 7.49228 21 6.98974 20.7269 6.70067C20.64 6.60868 20.5364 6.53403 20.4217 6.48067C20.061 6.31298 19.5843 6.4719 18.6308 6.78974L18 7" stroke="#292556" stroke-width="1.5" stroke-linecap="round" stroke-linejoin="round"/>
<path d="M12 20L7.23079 18.4103C6.70475 18.2349 6.44173 18.1472 6.26792 17.9605C6.21112 17.8994 6.16218 17.8315 6.12223 17.7583C6 17.5344 6 17.2571 6 16.7026V6.472C6 5.49048 6 4.99973 6.26134 4.71335C6.35449 4.61127 6.4678 4.5296 6.5941 4.47351C6.94842 4.31614 7.414 4.47133 8.34514 4.78171V4.78171C9.88674 5.29558 10.6575 5.55251 11.1728 6.09367C11.361 6.29144 11.5215 6.514 11.6495 6.75517C12 7.41508 12 8.22757 12 9.85256V20ZM12 20H4.8C4.05005 20 3.67508 20 3.41221 19.809C3.32732 19.7473 3.25266 19.6727 3.19098 19.5878C3 19.3249 3 18.9499 3 18.2V8.49737C3 7.49228 3 6.98974 3.27311 6.70067C3.36002 6.60868 3.4636 6.53403 3.57835 6.48067C3.93895 6.31298 4.4157 6.4719 5.36921 6.78974L6 7" stroke="#292556" stroke-width="1.5" stroke-linecap="round" stroke-linejoin="round"/>
</svg>
