<svg width="24" height="24" viewBox="0 0 24 24" fill="none" xmlns="http://www.w3.org/2000/svg">
<path d="M5.7 21H18.3C19.4249 21 19.9874 21 20.3817 20.7135C20.509 20.621 20.621 20.509 20.7135 20.3817C21 19.9874 21 19.4249 21 18.3V9.63738C21 9.35553 21 9.21461 20.9743 9.07751C20.9657 9.03193 20.9551 8.98677 20.9423 8.94218C20.904 8.80805 20.841 8.682 20.715 8.42991L18.7463 4.49252C18.4245 3.84894 18.2636 3.52715 17.9977 3.31897C17.9104 3.25064 17.8159 3.1922 17.7157 3.14471C17.4106 3 17.0509 3 16.3313 3H7.66869C6.94914 3 6.58937 3 6.28426 3.14471C6.18413 3.1922 6.08956 3.25064 6.0023 3.31897C5.73643 3.52715 5.57553 3.84894 5.25374 4.49252L3.28505 8.42991C3.159 8.682 3.09598 8.80805 3.05767 8.94218C3.04493 8.98677 3.03427 9.03193 3.02572 9.07751C3 9.21461 3 9.35553 3 9.63738V18.3C3 19.4249 3 19.9874 3.28647 20.3817C3.37899 20.509 3.49098 20.621 3.61832 20.7135C4.01262 21 4.57508 21 5.7 21Z" fill="#292556" fill-opacity="0.18"/>
<path d="M12.0002 3V9M12.0002 3L7.66869 3C6.94914 3 6.58937 3 6.28426 3.14471C6.18413 3.1922 6.08956 3.25064 6.0023 3.31897C5.73643 3.52715 5.57553 3.84894 5.25374 4.49252L3 9M12.0002 3L16.3313 3C17.0509 3 17.4106 3 17.7157 3.14471C17.8159 3.1922 17.9104 3.25064 17.9977 3.31897C18.2636 3.52715 18.4245 3.84894 18.7463 4.49252L21 9M3 9V18.3C3 19.4249 3 19.9874 3.28647 20.3817C3.37899 20.509 3.49098 20.621 3.61832 20.7135C4.01262 21 4.57508 21 5.7 21H18.3C19.4249 21 19.9874 21 20.3817 20.7135C20.509 20.621 20.621 20.509 20.7135 20.3817C21 19.9874 21 19.4249 21 18.3V9M3 9H12.0002M21 9H12.0002" stroke="#292556" stroke-width="1.5" stroke-linecap="round" stroke-linejoin="round"/>
</svg>
