<svg width="24" height="24" viewBox="0 0 24 24" fill="none" xmlns="http://www.w3.org/2000/svg">
<path d="M6.13909 9.32107V9.32107C5.14598 10.3142 4.64943 10.8107 4.53107 11.4058C4.47983 11.6634 4.47983 11.9285 4.53107 12.1861C4.64943 12.7812 5.14598 13.2777 6.13909 14.2708L7.19975 15.3315M6.13909 9.32107L10.6646 4.79558C11.7252 3.735 12.2554 3.20471 12.8973 3.10305C13.1046 3.07022 13.3157 3.07022 13.523 3.10305C14.1649 3.20471 14.6952 3.735 15.7557 4.79558L19.1499 8.1897C20.2104 9.25028 20.7407 9.78057 20.8424 10.4224C20.8752 10.6297 20.8752 10.8409 20.8424 11.0481C20.7407 11.69 20.2104 12.2203 19.1499 13.2809L14.6244 17.8063M6.13909 9.32107L14.6244 17.8063M14.6244 17.8063V17.8063C13.6313 18.7995 13.1347 19.296 12.5397 19.4144C12.2821 19.4656 12.0169 19.4656 11.7593 19.4144C11.1643 19.296 10.6677 18.7995 9.67462 17.8063L8.61396 16.7457M7.19975 15.3315L3.87747 17.7045C3.02553 18.3131 2.92391 19.5409 3.66421 20.2812V20.2812C4.40452 21.0215 5.63238 20.9199 6.2409 20.068L8.61396 16.7457M7.19975 15.3315L8.61396 16.7457" stroke="#292556" stroke-width="1.5" stroke-linejoin="round"/>
<path d="M19.1494 8.1897L15.7553 4.79558L15.7553 4.79558C14.6947 3.735 14.1644 3.20471 13.5226 3.10305C13.3153 3.07022 13.1042 3.07022 12.8969 3.10305C12.255 3.20471 11.7247 3.735 10.6642 4.79558L6.13867 9.32107L14.624 17.8063L19.1494 13.2809C20.21 12.2203 20.7403 11.69 20.842 11.0482C20.8748 10.8409 20.8748 10.6297 20.842 10.4224C20.7403 9.78057 20.21 9.25028 19.1494 8.1897Z" fill="#292556" fill-opacity="0.18" stroke="#292556" stroke-width="1.5" stroke-linejoin="round"/>
</svg>
