<svg width="24" height="24" viewBox="0 0 24 24" fill="none" xmlns="http://www.w3.org/2000/svg">
<path d="M10.4 18H10.6C12.8498 18 13.9748 18 14.7634 17.4271C15.018 17.242 15.242 17.018 15.4271 16.7634C16 15.9748 16 14.8498 16 12.6V11.6C16 10.1001 16 9.35016 15.618 8.82443C15.4947 8.65464 15.3454 8.50533 15.1756 8.38197C14.6498 8 13.8999 8 12.4 8H8.6C7.10011 8 6.35016 8 5.82443 8.38197C5.65464 8.50533 5.50533 8.65464 5.38197 8.82443C5 9.35016 5 10.1001 5 11.6V12.6C5 14.8498 5 15.9748 5.57295 16.7634C5.75799 17.018 5.98196 17.242 6.23664 17.4271C7.02524 18 8.15016 18 10.4 18Z" fill="#292556" fill-opacity="0.18"/>
<path d="M16 11V11C16 10.0681 16 9.60218 15.8478 9.23463C15.6448 8.74458 15.2554 8.35523 14.7654 8.15224C14.3978 8 13.9319 8 13 8H8.6C7.10011 8 6.35016 8 5.82443 8.38197C5.65464 8.50533 5.50533 8.65464 5.38197 8.82443C5 9.35016 5 10.1001 5 11.6V12.6C5 14.8498 5 15.9748 5.57295 16.7634C5.75799 17.018 5.98196 17.242 6.23664 17.4271C7.02524 18 8.15016 18 10.4 18H13C14.6569 18 16 16.6569 16 15V15M16 11H17C18.1046 11 19 11.8954 19 13V13C19 14.1046 18.1046 15 17 15H16M16 11V15M7 5L6.5 3M10 4.5L9.75 3.5M13 5L12.5 3.5M16 21H5" stroke="#292556" stroke-width="1.5" stroke-linecap="round" stroke-linejoin="round"/>
</svg>
