<svg width="24" height="24" viewBox="0 0 24 24" fill="none" xmlns="http://www.w3.org/2000/svg">
<path d="M21 11.2V12.8C21 15.7998 21 17.2997 20.2361 18.3511C19.9893 18.6907 19.6907 18.9893 19.3511 19.2361C18.2997 20 16.7998 20 13.8 20H10.2C7.20021 20 5.70032 20 4.64886 19.2361C4.30928 18.9893 4.01065 18.6907 3.76393 18.3511C3 17.2997 3 15.7998 3 12.8V11.2C3 8.20021 3 6.70032 3.76393 5.64886C4.01065 5.30928 4.30928 5.01065 4.64886 4.76393C5.70032 4 7.20021 4 10.2 4H13.8C16.7998 4 18.2997 4 19.3511 4.76393C19.6907 5.01065 19.9893 5.30928 20.2361 5.64886C21 6.70032 21 8.20021 21 11.2Z" fill="#292556" fill-opacity="0.18"/>
<path d="M3 8V8C3 5.79086 4.79086 4 7 4H13.8C16.7998 4 18.2997 4 19.3511 4.76393C19.6907 5.01065 19.9893 5.30928 20.2361 5.64886C21 6.70032 21 8.20021 21 11.2V15.5C21 15.9643 21 16.1965 20.9807 16.3921C20.7937 18.2912 19.2912 19.7937 17.3921 19.9807C17.1965 20 16.9643 20 16.5 20V20H16M3 14.0028C4.70974 13.9568 6.27049 14.4746 7.39793 15.6021C8.52537 16.7295 9.04325 18.2903 8.99718 20M3 11.0042C5.56461 10.9351 7.90574 11.7119 9.5969 13.4031C11.2881 15.0943 12.0649 17.4354 11.9958 20M3 17.0014C3.85487 16.9784 4.63525 17.2373 5.19897 17.801C5.76269 18.3648 6.02162 19.1451 5.99859 20" stroke="#292556" stroke-width="1.5" stroke-linecap="round" stroke-linejoin="round"/>
<path d="M3.95711 20.4571C3.56658 20.8476 2.93342 20.8476 2.54289 20.4571C2.15237 20.0666 2.15237 19.4334 2.54289 19.0429C2.93342 18.6524 3.56658 18.6524 3.95711 19.0429C4.34763 19.4334 4.34763 20.0666 3.95711 20.4571Z" fill="#292556"/>
</svg>
