<svg width="24" height="24" viewBox="0 0 24 24" fill="none" xmlns="http://www.w3.org/2000/svg">
<path d="M19 15.6V7C19 6.07003 19 5.60504 18.8978 5.22354C18.6204 4.18827 17.8117 3.37962 16.7765 3.10222C16.395 3 15.93 3 15 3V4C15 5.16944 15 5.75417 14.7318 6.18106C14.5919 6.40366 14.4037 6.59189 14.1811 6.73177C13.7542 7 13.1694 7 12 7C10.8306 7 10.2458 7 9.81894 6.73177C9.59634 6.59189 9.40811 6.40366 9.26823 6.18106C9 5.75417 9 5.16944 9 4V3C8.07003 3 7.60504 3 7.22354 3.10222C6.18827 3.37962 5.37962 4.18827 5.10222 5.22354C5 5.60504 5 6.07003 5 7V15.6C5 17.8498 5 18.9748 5.57295 19.7634C5.75799 20.018 5.98196 20.242 6.23664 20.4271C7.02524 21 8.15016 21 10.4 21H13.6C15.8498 21 16.9748 21 17.7634 20.4271C18.018 20.242 18.242 20.018 18.4271 19.7634C19 18.9748 19 17.8498 19 15.6Z" fill="#292556" fill-opacity="0.18"/>
<path d="M9 14H12M15 14H12M15 3V4C15 5.16944 15 5.75417 14.7318 6.18106C14.5919 6.40366 14.4037 6.59189 14.1811 6.73177C13.7542 7 13.1694 7 12 7V7C10.8306 7 10.2458 7 9.81894 6.73177C9.59634 6.59189 9.40811 6.40366 9.26823 6.18106C9 5.75417 9 5.16944 9 4V3M12 14V17M12 14V11M10.4 21H13.6C15.8498 21 16.9748 21 17.7634 20.4271C18.018 20.242 18.242 20.018 18.4271 19.7634C19 18.9748 19 17.8498 19 15.6V8.4C19 6.15016 19 5.02524 18.4271 4.23664C18.242 3.98196 18.018 3.75799 17.7634 3.57295C16.9748 3 15.8498 3 13.6 3H10.4C8.15016 3 7.02524 3 6.23664 3.57295C5.98196 3.75799 5.75799 3.98196 5.57295 4.23664C5 5.02524 5 6.15016 5 8.4V15.6C5 17.8498 5 18.9748 5.57295 19.7634C5.75799 20.018 5.98196 20.242 6.23664 20.4271C7.02524 21 8.15016 21 10.4 21Z" stroke="#292556" stroke-width="1.5" stroke-linecap="round" stroke-linejoin="round"/>
</svg>
