<svg width="24" height="24" viewBox="0 0 24 24" fill="none" xmlns="http://www.w3.org/2000/svg">
<path fill-rule="evenodd" clip-rule="evenodd" d="M9.49137 3.15744C14.2942 2.28438 20.8888 5.1236 20.9981 9.6592C21.0834 13.196 18.2149 13.6852 15.814 13.4803C14.6309 13.3793 13.6699 14.8482 14.2011 15.8771C14.5551 16.563 15.0586 17.1663 15.6768 17.6454C17.899 19.4693 15.2652 21 12.1047 21C8.94421 21 3.91315 17.8032 3.14995 13.3467C2.365 8.76304 4.68854 4.0305 9.49137 3.15744ZM10.5032 9.10365C10.5032 10.1188 9.68028 10.9417 8.66517 10.9417C7.65006 10.9417 6.82715 10.1188 6.82715 9.10365C6.82715 8.08853 7.65006 7.26562 8.66517 7.26562C9.68028 7.26562 10.5032 8.08853 10.5032 9.10365ZM17.3301 9.10365C17.3301 10.1188 16.5072 10.9417 15.4921 10.9417C14.477 10.9417 13.6541 10.1188 13.6541 9.10365C13.6541 8.08853 14.477 7.26562 15.4921 7.26562C16.5072 7.26562 17.3301 8.08853 17.3301 9.10365ZM9.19032 17.2435C10.2054 17.2435 11.0283 16.4205 11.0283 15.4054C11.0283 14.3903 10.2054 13.5674 9.19032 13.5674C8.17521 13.5674 7.3523 14.3903 7.3523 15.4054C7.3523 16.4205 8.17521 17.2435 9.19032 17.2435Z" fill="#292556" fill-opacity="0.18"/>
<path d="M20.9981 9.6592L20.2484 9.67727L20.2484 9.67727L20.9981 9.6592ZM9.49137 3.15744L9.35723 2.41953L9.35723 2.41953L9.49137 3.15744ZM15.814 13.4803L15.7502 14.2276L15.7502 14.2276L15.814 13.4803ZM14.2011 15.8771L14.8675 15.5331L14.8675 15.5331L14.2011 15.8771ZM15.6768 17.6454L16.1527 17.0656L16.1446 17.059L16.1362 17.0525L15.6768 17.6454ZM3.14995 13.3467L3.88919 13.2201L3.14995 13.3467ZM21.7479 9.64112C21.6838 6.9807 19.7274 4.94107 17.3488 3.71358C14.954 2.4778 11.9374 1.95051 9.35723 2.41953L9.6255 3.89535C11.8482 3.49131 14.5303 3.9471 16.6609 5.04656C18.8075 6.15432 20.2032 7.80209 20.2484 9.67727L21.7479 9.64112ZM15.7502 14.2276C16.9954 14.3339 18.4914 14.277 19.6923 13.6342C20.3085 13.3043 20.8477 12.8195 21.2202 12.1362C21.5905 11.457 21.7717 10.6271 21.7479 9.64112L20.2484 9.67727C20.2672 10.4597 20.1218 11.0172 19.9032 11.4181C19.6869 11.8149 19.3749 12.1027 18.9844 12.3117C18.1722 12.7464 17.0335 12.8317 15.8777 12.733L15.7502 14.2276ZM14.8675 15.5331C14.7594 15.3237 14.7744 14.9929 14.989 14.6707C15.2019 14.3509 15.5006 14.2063 15.7502 14.2276L15.8778 12.733C14.9443 12.6534 14.171 13.1928 13.7404 13.8393C13.3115 14.4835 13.1116 15.4016 13.5346 16.2211L14.8675 15.5331ZM16.1362 17.0525C15.6032 16.6394 15.1708 16.1206 14.8675 15.5331L13.5346 16.2211C13.9394 17.0054 14.5141 17.6932 15.2174 18.2382L16.1362 17.0525ZM12.1047 21.75C13.7625 21.75 15.4082 21.3556 16.3732 20.596C16.8698 20.2051 17.2794 19.6356 17.25 18.9087C17.2214 18.2029 16.7857 17.5852 16.1527 17.0656L15.201 18.2251C15.679 18.6175 15.7474 18.8751 15.7512 18.9693C15.7542 19.0424 15.7245 19.1976 15.4454 19.4174C14.8589 19.879 13.6075 20.25 12.1047 20.25V21.75ZM2.41072 13.4733C2.83332 15.941 4.42283 18.0051 6.26862 19.4371C8.10467 20.8615 10.3101 21.75 12.1047 21.75V20.25C10.7389 20.25 8.84846 19.5401 7.18807 18.2519C5.5374 16.9714 4.22978 15.2088 3.88919 13.2201L2.41072 13.4733ZM9.35723 2.41953C4.03785 3.38649 1.57727 8.60649 2.41072 13.4733L3.88919 13.2201C3.15273 8.91959 5.33923 4.67451 9.6255 3.89535L9.35723 2.41953ZM8.66517 11.6917C10.0945 11.6917 11.2532 10.533 11.2532 9.10365H9.75319C9.75319 9.70454 9.26607 10.1917 8.66517 10.1917V11.6917ZM6.07715 9.10365C6.07715 10.533 7.23584 11.6917 8.66517 11.6917V10.1917C8.06427 10.1917 7.57715 9.70454 7.57715 9.10365H6.07715ZM8.66517 6.51562C7.23584 6.51562 6.07715 7.67432 6.07715 9.10365H7.57715C7.57715 8.50275 8.06427 8.01562 8.66517 8.01562V6.51562ZM11.2532 9.10365C11.2532 7.67432 10.0945 6.51562 8.66517 6.51562V8.01562C9.26607 8.01562 9.75319 8.50275 9.75319 9.10365H11.2532ZM15.4921 11.6917C16.9214 11.6917 18.0801 10.533 18.0801 9.10365H16.5801C16.5801 9.70454 16.093 10.1917 15.4921 10.1917V11.6917ZM12.9041 9.10365C12.9041 10.533 14.0628 11.6917 15.4921 11.6917V10.1917C14.8912 10.1917 14.4041 9.70454 14.4041 9.10365H12.9041ZM15.4921 6.51562C14.0628 6.51562 12.9041 7.67432 12.9041 9.10365H14.4041C14.4041 8.50275 14.8912 8.01562 15.4921 8.01562V6.51562ZM18.0801 9.10365C18.0801 7.67432 16.9214 6.51562 15.4921 6.51562V8.01562C16.093 8.01562 16.5801 8.50275 16.5801 9.10365H18.0801ZM10.2783 15.4054C10.2783 16.0063 9.79121 16.4935 9.19032 16.4935V17.9935C10.6196 17.9935 11.7783 16.8348 11.7783 15.4054H10.2783ZM9.19032 14.3174C9.79121 14.3174 10.2783 14.8045 10.2783 15.4054H11.7783C11.7783 13.9761 10.6196 12.8174 9.19032 12.8174V14.3174ZM8.1023 15.4054C8.1023 14.8045 8.58942 14.3174 9.19032 14.3174V12.8174C7.76099 12.8174 6.6023 13.9761 6.6023 15.4054H8.1023ZM9.19032 16.4935C8.58942 16.4935 8.1023 16.0063 8.1023 15.4054H6.6023C6.6023 16.8348 7.76099 17.9935 9.19032 17.9935V16.4935Z" fill="#292556"/>
</svg>
