<svg width="24" height="24" viewBox="0 0 24 24" fill="none" xmlns="http://www.w3.org/2000/svg">
<path d="M8.2 10H5.8C5.05005 10 4.67508 10 4.41221 10.191C4.32732 10.2527 4.25266 10.3273 4.19098 10.4122C4 10.6751 4 11.0501 4 11.8V12.2C4 12.9499 4 13.3249 4.19098 13.5878C4.25266 13.6727 4.32732 13.7473 4.41221 13.809C4.67508 14 5.05005 14 5.8 14H8.2C8.94995 14 9.32492 14 9.58779 14.191C9.67268 14.2527 9.74734 14.3273 9.80902 14.4122C10 14.6751 10 15.0501 10 15.8V18.2C10 18.9499 10 19.3249 10.191 19.5878C10.2527 19.6727 10.3273 19.7473 10.4122 19.809C10.6751 20 11.0501 20 11.8 20H12.2C12.9499 20 13.3249 20 13.5878 19.809C13.6727 19.7473 13.7473 19.6727 13.809 19.5878C14 19.3249 14 18.9499 14 18.2V15.8C14 15.0501 14 14.6751 14.191 14.4122C14.2527 14.3273 14.3273 14.2527 14.4122 14.191C14.6751 14 15.0501 14 15.8 14H18.2C18.9499 14 19.3249 14 19.5878 13.809C19.6727 13.7473 19.7473 13.6727 19.809 13.5878C20 13.3249 20 12.9499 20 12.2V11.8C20 11.0501 20 10.6751 19.809 10.4122C19.7473 10.3273 19.6727 10.2527 19.5878 10.191C19.3249 10 18.9499 10 18.2 10H15.8C15.0501 10 14.6751 10 14.4122 9.80902C14.3273 9.74734 14.2527 9.67268 14.191 9.58779C14 9.32492 14 8.94995 14 8.2V5.8C14 5.05005 14 4.67508 13.809 4.41221C13.7473 4.32732 13.6727 4.25266 13.5878 4.19098C13.3249 4 12.9499 4 12.2 4H11.8C11.0501 4 10.6751 4 10.4122 4.19098C10.3273 4.25266 10.2527 4.32732 10.191 4.41221C10 4.67508 10 5.05005 10 5.8V8.2C10 8.94995 10 9.32492 9.80902 9.58779C9.74734 9.67268 9.67268 9.74734 9.58779 9.80902C9.32492 10 8.94995 10 8.2 10Z" fill="#292556" fill-opacity="0.18"/>
<path d="M4 10H7.3C8.42492 10 8.98738 10 9.38168 9.71353C9.50902 9.62101 9.62101 9.50902 9.71353 9.38168C10 8.98738 10 8.42492 10 7.3V4M4 14H6.85C8.16241 14 8.81861 14 9.27862 14.3342C9.42719 14.4422 9.55784 14.5728 9.66578 14.7214C10 15.1814 10 15.8376 10 17.15V20M20 10H17.15C15.8376 10 15.1814 10 14.7214 9.66578C14.5728 9.55784 14.4422 9.42719 14.3342 9.27862C14 8.81861 14 8.16241 14 6.85V4M20 14H17.15C15.8376 14 15.1814 14 14.7214 14.3342C14.5728 14.4422 14.4422 14.5728 14.3342 14.7214C14 15.1814 14 15.8376 14 17.15V20" stroke="#292556" stroke-width="1.5" stroke-linecap="round" stroke-linejoin="round"/>
</svg>
