<svg width="24" height="24" viewBox="0 0 24 24" fill="none" xmlns="http://www.w3.org/2000/svg">
<path fill-rule="evenodd" clip-rule="evenodd" d="M20.5452 10.7966L19.463 17.9389C19.2673 19.2307 19.1694 19.8766 18.785 20.3162C18.6601 20.459 18.5155 20.5833 18.3556 20.6854C17.8634 20.9996 17.2102 20.9996 15.9036 20.9996H8.09489C6.78836 20.9996 6.13509 20.9996 5.64287 20.6854C5.48297 20.5833 5.3384 20.459 5.21352 20.3162C4.82911 19.8766 4.73124 19.2307 4.53552 17.9389L3.45335 10.7966C3.1838 9.01757 3.04902 8.12806 3.27334 7.80225C3.49744 7.47677 3.8922 7.31378 4.28065 7.38636C4.66948 7.459 5.20151 8.18449 6.26556 9.63548C6.80812 10.3753 7.0794 10.7452 7.37864 10.8464C7.67977 10.9483 8.01139 10.9009 8.27194 10.7187C8.53084 10.5378 8.68761 10.1067 9.00114 9.24442L10.3076 5.65158L10.3076 5.65157C10.93 3.93999 11.2412 3.0842 11.7573 2.9555C11.9162 2.91588 12.0824 2.91588 12.2412 2.9555C12.7573 3.0842 13.0685 3.93999 13.6909 5.65158L14.9974 9.24443C15.3109 10.1067 15.4677 10.5378 15.7266 10.7187C15.9871 10.9009 16.3187 10.9483 16.6199 10.8464C16.9191 10.7452 17.1904 10.3753 17.733 9.63548C18.797 8.18449 19.329 7.459 19.7179 7.38636C20.1063 7.31378 20.5011 7.47677 20.7252 7.80225C20.9495 8.12806 20.8147 9.01756 20.5452 10.7966V10.7966ZM11.9993 13.4996C10.8947 13.4996 9.99926 14.395 9.99926 15.4996C9.99926 16.6042 10.8947 17.4996 11.9993 17.4996C13.1038 17.4996 13.9993 16.6042 13.9993 15.4996C13.9993 14.395 13.1038 13.4996 11.9993 13.4996Z" fill="#292556" fill-opacity="0.18"/>
<path d="M3.45409 10.797C3.18454 9.01796 3.04977 8.12845 3.27408 7.80265C3.49818 7.47716 3.89294 7.31417 4.28139 7.38675C4.67022 7.4594 5.20225 8.18489 6.26631 9.63587V9.63587C6.80886 10.3757 7.08014 10.7456 7.37938 10.8468C7.68052 10.9487 8.01213 10.9013 8.27268 10.7191C8.53158 10.5382 8.68835 10.107 9.00188 9.24482L10.3084 5.65197C10.9308 3.94039 11.242 3.08459 11.758 2.95589C11.9169 2.91627 12.0831 2.91627 12.242 2.95589C12.758 3.08459 13.0692 3.94039 13.6916 5.65198L14.9981 9.24482C15.3117 10.107 15.4684 10.5382 15.7273 10.7191C15.9879 10.9013 16.3195 10.9487 16.6206 10.8468C16.9199 10.7456 17.1911 10.3757 17.7337 9.63587V9.63587C18.7977 8.18489 19.3298 7.4594 19.7186 7.38675C20.1071 7.31417 20.5018 7.47716 20.7259 7.80265C20.9502 8.12845 20.8155 9.01796 20.5459 10.797L19.4637 17.9393C19.268 19.2311 19.1702 19.877 18.7857 20.3166C18.6609 20.4594 18.5163 20.5837 18.3564 20.6858C17.8642 21 17.2109 21 15.9044 21H8.09563C6.7891 21 6.13583 21 5.64362 20.6858C5.48371 20.5837 5.33915 20.4594 5.21426 20.3166C4.82985 19.877 4.73198 19.2311 4.53626 17.9393L3.45409 10.797Z" stroke="#292556" stroke-width="1.5" stroke-linejoin="round"/>
<path d="M10 15.5C10 14.3954 10.8954 13.5 12 13.5V13.5C13.1046 13.5 14 14.3954 14 15.5V15.5C14 16.6046 13.1046 17.5 12 17.5V17.5C10.8954 17.5 10 16.6046 10 15.5V15.5Z" stroke="#292556" stroke-width="1.5" stroke-linejoin="round"/>
</svg>
