<svg width="24" height="24" viewBox="0 0 24 24" fill="none" xmlns="http://www.w3.org/2000/svg">
<path d="M19 6C19 7.65685 15.866 9 12 9C8.13401 9 5 7.65685 5 6V10C5 11.6569 8.13401 13 12 13C15.866 13 19 11.6569 19 10V6Z" fill="#292556" fill-opacity="0.18"/>
<path d="M19 10C19 11.6569 15.866 13 12 13C8.13401 13 5 11.6569 5 10V14C5 15.6569 8.13401 17 12 17C15.866 17 19 15.6569 19 14V10Z" fill="#292556" fill-opacity="0.18"/>
<path d="M19 14C19 15.6569 15.866 17 12 17C8.13401 17 5 15.6569 5 14V18C5 19.6569 8.13401 21 12 21C15.866 21 19 19.6569 19 18V14Z" fill="#292556" fill-opacity="0.18"/>
<path d="M19 6C19 7.65685 15.866 9 12 9C8.13401 9 5 7.65685 5 6M19 6C19 4.34315 15.866 3 12 3C8.13401 3 5 4.34315 5 6M19 6V18C19 19.6569 15.866 21 12 21C8.13401 21 5 19.6569 5 18V6M19 10C19 11.6569 15.866 13 12 13C8.13401 13 5 11.6569 5 10M19 14C19 15.6569 15.866 17 12 17C8.13401 17 5 15.6569 5 14" stroke="#292556" stroke-width="1.5" stroke-linejoin="round"/>
</svg>
