<svg width="24" height="24" viewBox="0 0 24 24" fill="none" xmlns="http://www.w3.org/2000/svg">
<path d="M5.638 18.3688L6.87543 19.6063C7.36964 20.1005 7.61674 20.3476 7.8924 20.4618C8.25994 20.614 8.67291 20.614 9.04045 20.4618C9.31611 20.3476 9.56321 20.1005 10.0574 19.6063C10.5516 19.1121 10.7987 18.865 10.9129 18.5893C11.0651 18.2218 11.0651 17.8088 10.9129 17.4413C10.7987 17.1656 10.5516 16.9185 10.0574 16.4243L8.81998 15.1869L7.58254 13.9494C7.08834 13.4552 6.84123 13.2081 6.56558 13.0939C6.19803 12.9417 5.78507 12.9417 5.41753 13.0939C5.14187 13.2081 4.89477 13.4552 4.40056 13.9494C3.90635 14.4436 3.65925 14.6907 3.54507 14.9664C3.39283 15.3339 3.39283 15.7469 3.54507 16.1144C3.65925 16.3901 3.90635 16.6372 4.40056 17.1314L5.638 18.3688Z" fill="#292556" fill-opacity="0.18"/>
<path d="M15.1839 8.82291L16.4214 10.0603C16.9156 10.5546 17.1627 10.8017 17.4383 10.9158C17.8059 11.0681 18.2188 11.0681 18.5864 10.9158C18.862 10.8017 19.1091 10.5545 19.6034 10.0603C20.0976 9.56614 20.3447 9.31904 20.4588 9.04338C20.6111 8.67584 20.6111 8.26287 20.4588 7.89533C20.3447 7.61967 20.0976 7.37257 19.6034 6.87836L18.3659 5.64093L17.1285 4.40349C16.6343 3.90928 16.3872 3.66218 16.1115 3.548C15.744 3.39576 15.331 3.39576 14.9635 3.548C14.6878 3.66218 14.4407 3.90928 13.9465 4.40349C13.4523 4.8977 13.2052 5.1448 13.091 5.42046C12.9388 5.788 12.9388 6.20096 13.091 6.56851C13.2052 6.84416 13.4523 7.09126 13.9465 7.58547L15.1839 8.82291Z" fill="#292556" fill-opacity="0.18"/>
<path d="M5.638 18.3688L6.87543 19.6063C7.36964 20.1005 7.61674 20.3476 7.8924 20.4618C8.25994 20.614 8.67291 20.614 9.04045 20.4618C9.31611 20.3476 9.56321 20.1005 10.0574 19.6063V19.6063C10.5516 19.1121 10.7987 18.865 10.9129 18.5893C11.0651 18.2218 11.0651 17.8088 10.9129 17.4413C10.7987 17.1656 10.5516 16.9185 10.0574 16.4243L8.81998 15.1869M5.638 18.3688L4.40056 17.1314C3.90635 16.6372 3.65925 16.3901 3.54507 16.1144C3.39283 15.7469 3.39283 15.3339 3.54507 14.9664C3.65925 14.6907 3.90635 14.4436 4.40056 13.9494V13.9494C4.89477 13.4552 5.14187 13.2081 5.41753 13.0939C5.78507 12.9417 6.19803 12.9417 6.56558 13.0939C6.84123 13.2081 7.08834 13.4552 7.58254 13.9494L8.81998 15.1869M5.638 18.3688L4.57596 19.4309M8.81998 15.1869L15.1839 8.82291M15.1839 8.82291L16.4214 10.0603C16.9156 10.5545 17.1627 10.8017 17.4383 10.9158C17.8059 11.0681 18.2188 11.0681 18.5864 10.9158C18.862 10.8017 19.1092 10.5545 19.6034 10.0603V10.0603C20.0976 9.56614 20.3447 9.31904 20.4588 9.04338C20.6111 8.67584 20.6111 8.26287 20.4588 7.89533C20.3447 7.61967 20.0976 7.37257 19.6034 6.87836L18.3659 5.64093M15.1839 8.82291L13.9465 7.58547C13.4523 7.09126 13.2052 6.84416 13.091 6.56851C12.9388 6.20096 12.9388 5.788 13.091 5.42046C13.2052 5.1448 13.4523 4.8977 13.9465 4.40349V4.40349C14.4407 3.90928 14.6878 3.66218 14.9635 3.548C15.331 3.39576 15.744 3.39576 16.1115 3.548C16.3872 3.66218 16.6343 3.90928 17.1285 4.40349L18.3659 5.64093M18.3659 5.64093L19.4252 4.58165" stroke="#292556" stroke-width="1.5" stroke-linecap="round" stroke-linejoin="round"/>
</svg>
