<svg width="24" height="24" viewBox="0 0 24 24" fill="none" xmlns="http://www.w3.org/2000/svg">
<path d="M10.1016 5.41406L5.63562 9.88C4.31774 11.1979 3.6588 11.8568 3.35432 12.5919C2.94834 13.572 2.94834 14.6733 3.35432 15.6534C3.6588 16.3885 4.31774 17.0474 5.63563 18.3653C6.95351 19.6832 7.61245 20.3421 8.34753 20.6466C9.32764 21.0526 10.4289 21.0526 11.409 20.6466C12.1441 20.3421 12.803 19.6832 14.1209 18.3653L18.5868 13.8993L10.1016 5.41406Z" fill="#292556" fill-opacity="0.18" stroke="#292556" stroke-opacity="0.18" stroke-width="1.5" stroke-linecap="round" stroke-linejoin="round"/>
<path d="M10.1017 5.41388L5.63581 9.87981C4.31793 11.1977 3.65899 11.8566 3.35451 12.5917C2.94853 13.5718 2.94853 14.6731 3.35451 15.6532C3.65899 16.3883 4.31793 17.0472 5.63581 18.3651V18.3651C6.95369 19.683 7.61263 20.3419 8.34772 20.6464C9.32783 21.0524 10.4291 21.0524 11.4092 20.6464C12.1443 20.3419 12.8032 19.683 14.1211 18.3651L18.587 13.8992M10.1017 5.41388V5.41388C11.2103 4.30528 11.7646 3.75098 12.3643 3.45782C13.4728 2.91591 14.7694 2.91591 15.8779 3.45782C16.4775 3.75098 17.0318 4.30528 18.1404 5.41387L18.587 5.86047C19.6956 6.96907 20.2499 7.52337 20.5431 8.12303C21.085 9.23153 21.085 10.5281 20.5431 11.6366C20.2499 12.2363 19.6956 12.7906 18.587 13.8992V13.8992M10.1017 5.41388L18.587 13.8992" stroke="#292556" stroke-width="1.5" stroke-linecap="round" stroke-linejoin="round"/>
</svg>
