<svg width="24" height="24" viewBox="0 0 24 24" fill="none" xmlns="http://www.w3.org/2000/svg">
<path fill-rule="evenodd" clip-rule="evenodd" d="M7.3169 17.4509C8.70807 18.3523 10.2995 19 12.0004 19C15.2417 19 18.0856 16.6477 19.9035 14.6703C20.7105 13.7925 21.114 13.3536 21.2502 12.4444C21.2835 12.2218 21.2835 11.7782 21.2502 11.5556C21.114 10.6464 20.7105 10.2075 19.9035 9.32973C19.2521 8.62112 18.4688 7.86436 17.5828 7.18496L14.4706 10.2971C14.8047 10.7809 15.0004 11.3676 15.0004 12C15.0004 13.6569 13.6572 15 12.0004 15C11.368 15 10.7813 14.8043 10.2975 14.4702L7.3169 17.4509ZM12.0004 5C13.1999 5 14.345 5.32215 15.4038 5.82824L12.2238 9.00819C12.1501 9.00276 12.0755 9 12.0004 9C10.3435 9 9.00039 10.3431 9.00039 12C9.00039 12.0752 9.00316 12.1497 9.00859 12.2234L5.33016 15.9019C4.88019 15.4911 4.46746 15.0729 4.09726 14.6703C3.29027 13.7925 2.88678 13.3536 2.75059 12.4444C2.71725 12.2218 2.71725 11.7782 2.75059 11.5556C2.88678 10.6464 3.29027 10.2075 4.09726 9.32973C5.91521 7.35234 8.75904 5 12.0004 5Z" fill="#292556" fill-opacity="0.18"/>
<path fill-rule="evenodd" clip-rule="evenodd" d="M15.9632 5.26829C14.7549 4.65492 13.42 4.25 11.9994 4.25C8.41827 4.25 5.38202 6.82308 3.54416 8.82213L3.48715 8.88412C2.72487 9.71267 2.17831 10.3068 2.00789 11.4445C1.96352 11.7407 1.96352 12.2593 2.00789 12.5555C2.17831 13.6932 2.72487 14.2873 3.48715 15.1159L3.54416 15.1779C3.91523 15.5815 4.33515 16.0085 4.79854 16.433L5.86037 15.3712C5.4238 14.9743 5.01807 14.5647 4.64841 14.1627C3.82642 13.2686 3.58908 12.9858 3.49134 12.3333C3.46903 12.1844 3.46903 11.8156 3.49134 11.6667C3.58908 11.0142 3.82642 10.7314 4.64841 9.83733C6.44644 7.8816 9.09786 5.75 11.9994 5.75C12.982 5.75 13.936 5.99446 14.8378 6.39377L15.9632 5.26829ZM18.1167 6.65036L17.0468 7.72027C17.9103 8.37298 18.6882 9.11708 19.3504 9.83733C20.1724 10.7314 20.4098 11.0142 20.5075 11.6667C20.5298 11.8156 20.5298 12.1844 20.5075 12.3333C20.4098 12.9858 20.1724 13.2686 19.3504 14.1627C17.5524 16.1184 14.901 18.25 11.9994 18.25C10.5289 18.25 9.12266 17.7025 7.85918 16.9079L6.77448 17.9926C8.28828 18.9987 10.0643 19.75 11.9994 19.75C15.5806 19.75 18.6168 17.1769 20.4547 15.1779L20.5117 15.1159C21.274 14.2873 21.8205 13.6932 21.9909 12.5555C22.0353 12.2593 22.0353 11.7407 21.9909 11.4445C21.8205 10.3068 21.274 9.71267 20.5117 8.88411L20.4547 8.82213C19.8124 8.12354 19.0238 7.35484 18.1167 6.65036ZM9.75936 15.0077C10.3844 15.474 11.1597 15.75 11.9994 15.75C14.0705 15.75 15.7494 14.0711 15.7494 12C15.7494 11.1603 15.4734 10.385 15.0071 9.75994L13.9275 10.8396C14.1318 11.1784 14.2494 11.5755 14.2494 12C14.2494 13.2426 13.2421 14.25 11.9994 14.25C11.5749 14.25 11.1778 14.1324 10.839 13.9281L9.75936 15.0077ZM12.878 8.3535C12.5962 8.28584 12.302 8.25 11.9994 8.25C9.92835 8.25 8.24942 9.92893 8.24942 12C8.24942 12.3026 8.28525 12.5968 8.35291 12.8786L12.878 8.3535Z" fill="#292556"/>
<path d="M3 21L21 3" stroke="#292556" stroke-width="1.5" stroke-linecap="round" stroke-linejoin="round"/>
</svg>
