<svg width="24" height="24" viewBox="0 0 24 24" fill="none" xmlns="http://www.w3.org/2000/svg">
<path fill-rule="evenodd" clip-rule="evenodd" d="M19.9045 9.32973C18.0866 7.35234 15.2427 5 12.0014 5C8.76002 5 5.91618 7.35234 4.09824 9.32973C3.29125 10.2075 2.88775 10.6464 2.75157 11.5556C2.71823 11.7782 2.71823 12.2218 2.75157 12.4444C2.88775 13.3536 3.29125 13.7925 4.09824 14.6703C5.91618 16.6477 8.76002 19 12.0014 19C15.2427 19 18.0866 16.6477 19.9045 14.6703C20.7115 13.7925 21.115 13.3536 21.2512 12.4444C21.2845 12.2218 21.2845 11.7782 21.2512 11.5556C21.115 10.6464 20.7115 10.2075 19.9045 9.32973ZM12.0014 15C13.6582 15 15.0014 13.6569 15.0014 12C15.0014 10.3431 13.6582 9 12.0014 9C10.3445 9 9.00137 10.3431 9.00137 12C9.00137 13.6569 10.3445 15 12.0014 15Z" fill="#292556" fill-opacity="0.18"/>
<path d="M12 5C15.2414 5 18.0852 7.35234 19.9031 9.32973C20.7101 10.2075 21.1136 10.6464 21.2498 11.5556C21.2831 11.7782 21.2831 12.2218 21.2498 12.4444C21.1136 13.3536 20.7101 13.7925 19.9031 14.6703C18.0852 16.6477 15.2414 19 12 19C8.75865 19 5.91481 16.6477 4.09687 14.6703C3.28988 13.7925 2.88639 13.3536 2.7502 12.4444C2.71686 12.2218 2.71686 11.7782 2.7502 11.5556C2.88639 10.6464 3.28988 10.2075 4.09687 9.32973C5.91482 7.35234 8.75865 5 12 5Z" stroke="#292556" stroke-width="1.5" stroke-linejoin="round"/>
<path d="M15 12C15 13.6569 13.6569 15 12 15C10.3431 15 9 13.6569 9 12C9 10.3431 10.3431 9 12 9C13.6569 9 15 10.3431 15 12Z" stroke="#292556" stroke-width="1.5" stroke-linejoin="round"/>
</svg>
