<svg width="24" height="24" viewBox="0 0 24 24" fill="none" xmlns="http://www.w3.org/2000/svg">
<path d="M6.52084 8.53276C5.15149 6.38092 4.46682 5.305 4.72588 4.43139C4.80722 4.1571 4.94645 3.90346 5.13419 3.68758C5.73214 3 7.00743 3 9.55802 3H14.442C16.9926 3 18.2679 3 18.8658 3.68758C19.0535 3.90346 19.1928 4.1571 19.2741 4.43139C19.5332 5.305 18.8485 6.38092 17.4792 8.53275L15.061 12.3328C14.6009 13.0557 14.3709 13.4172 14.0354 13.6479C13.925 13.7238 13.8073 13.7885 13.6839 13.8409C13.3092 14 12.8807 14 12.0238 14H11.9762C11.1193 14 10.6908 14 10.3161 13.8409C10.1927 13.7885 10.075 13.7238 9.96458 13.6479C9.62914 13.4172 9.3991 13.0557 8.93902 12.3328L6.52084 8.53276Z" fill="#292556" fill-opacity="0.18"/>
<path d="M14 14L17.4792 8.53275C18.8485 6.38092 19.5332 5.305 19.2741 4.43139C19.1928 4.1571 19.0535 3.90346 18.8658 3.68758C18.2679 3 16.9926 3 14.442 3H9.55802C7.00743 3 5.73214 3 5.13419 3.68758C4.94645 3.90346 4.80722 4.1571 4.72588 4.43139C4.46682 5.305 5.15149 6.38092 6.52084 8.53276L10 14M14 14H10M14 14V17.2297C14 19.1962 14 20.1794 13.6271 20.5466C13.347 20.8225 12.9533 20.9505 12.5645 20.8922C12.0469 20.8145 11.4686 20.0193 10.312 18.429V18.429C10.1925 18.2646 10.1327 18.1825 10.0912 18.092C10.0589 18.0217 10.0349 17.9478 10.0196 17.872C10 17.7744 10 17.6728 10 17.4696V14" stroke="#292556" stroke-width="1.5" stroke-linejoin="round"/>
</svg>
