<svg width="24" height="24" viewBox="0 0 24 24" fill="none" xmlns="http://www.w3.org/2000/svg">
<path d="M18.2324 3H9.55802C7.00743 3 5.73214 3 5.13419 3.68758C4.94645 3.90346 4.80722 4.1571 4.72588 4.43139C4.46682 5.305 5.15149 6.38092 6.52084 8.53275L8.9237 12.3087L18.2324 3Z" fill="#292556" fill-opacity="0.18"/>
<path d="M10.7679 14H14L19.6562 5.11175L10.7679 14Z" fill="#292556" fill-opacity="0.18"/>
<path fill-rule="evenodd" clip-rule="evenodd" d="M18.6158 2.61673C18.2682 2.46968 17.8804 2.39012 17.4761 2.34135C16.7187 2.24997 15.7253 2.24998 14.4941 2.25H14.4941H14.4421H9.55819H9.50624H9.50623C8.27504 2.24998 7.28161 2.24997 6.5242 2.34135C5.76018 2.43352 5.05526 2.6356 4.56842 3.19542C4.31028 3.49226 4.11883 3.84102 4.00699 4.21816C3.79607 4.92945 4.00403 5.63264 4.33645 6.32671C4.666 7.01477 5.19936 7.85289 5.86038 8.89159L5.86038 8.8916L5.88826 8.93541L8.3806 12.8519L9.46713 11.7654L7.15376 8.1301C6.45831 7.03725 5.97503 6.27538 5.68929 5.67877C5.4018 5.07851 5.39696 4.80695 5.44509 4.64462C5.49593 4.47319 5.58295 4.31466 5.70029 4.17974C5.81139 4.05198 6.0431 3.91027 6.70386 3.83055C7.3606 3.75132 8.26282 3.75 9.55819 3.75H14.4421C15.7375 3.75 16.6397 3.75132 17.2965 3.83055C17.3286 3.83443 17.3598 3.83845 17.3899 3.84262L18.6158 2.61673ZM11.5181 13.25H13.5885L16.8466 8.1301C16.9748 7.92865 17.0958 7.73844 17.2096 7.55845L20.0752 4.69285C20.1053 5.24266 19.9222 5.78744 19.6639 6.32671C19.3343 7.01477 18.801 7.85288 18.14 8.89158L18.1399 8.89161L18.1121 8.93541L14.7502 14.2184V17.2297V17.2688C14.7502 18.2189 14.7502 18.9826 14.7007 19.5527C14.6755 19.8442 14.6348 20.1206 14.5611 20.3658C14.4873 20.6115 14.3672 20.8705 14.1535 21.081C13.7053 21.5224 13.0755 21.7272 12.4533 21.6339C12.1567 21.5894 11.9072 21.4505 11.703 21.2952C11.4993 21.1402 11.3038 20.9406 11.1119 20.7197C10.7366 20.2878 10.2874 19.6701 9.72859 18.9017L9.7056 18.8701L9.68218 18.838C9.58626 18.7065 9.48354 18.5657 9.40973 18.4049C9.35323 18.2818 9.31121 18.1526 9.28451 18.0198C9.24963 17.8464 9.24989 17.6721 9.25013 17.5093L9.25017 17.4696V15.5179L11.5181 13.25ZM10.7502 17.4696V14.75H13.2502V17.2297C13.2502 18.2279 13.2495 18.9259 13.2064 19.4231C13.185 19.6691 13.1558 19.8302 13.1246 19.9342C13.1092 19.9854 13.0965 20.0117 13.0911 20.0218C12.9831 20.1224 12.8361 20.1702 12.6896 20.1523C12.6792 20.1474 12.6536 20.1336 12.611 20.1012C12.5246 20.0355 12.4062 19.9224 12.2442 19.736C11.9169 19.3592 11.5058 18.7951 10.9187 17.9879C10.8557 17.9012 10.8209 17.8531 10.7958 17.8156C10.774 17.7831 10.7715 17.776 10.773 17.7791C10.7649 17.7615 10.7589 17.7431 10.7551 17.7241C10.7546 17.7213 10.7532 17.7097 10.7521 17.6812C10.7503 17.6361 10.7502 17.5767 10.7502 17.4696Z" fill="#292556"/>
<path d="M3 21L21 3" stroke="#292556" stroke-width="1.5" stroke-linecap="round" stroke-linejoin="round"/>
</svg>
