<svg width="24" height="24" viewBox="0 0 24 24" fill="none" xmlns="http://www.w3.org/2000/svg">
<path fill-rule="evenodd" clip-rule="evenodd" d="M19.5 14.003C19.5 18.8441 15.2143 21.003 12 21.003C8.7857 21.003 4.5 19.003 4.5 14.003C4.51286 12.1263 5.34143 10.3946 5.8212 9.54762C5.93832 9.34086 5.99688 9.23748 6.10396 9.21273C6.13517 9.20552 6.17527 9.20472 6.20674 9.21068C6.31472 9.23112 6.37827 9.33352 6.50537 9.53834C6.76771 9.9611 7.13696 10.6018 7.46824 11.3416C7.94257 7.43667 9.39538 5.08712 10.356 3.91948C10.618 3.60095 10.7491 3.44168 11.0928 3.36957C11.1738 3.35259 11.3468 3.34603 11.4288 3.35684C11.7771 3.40273 11.921 3.5529 12.2088 3.85322C13.1511 4.83641 14.5501 6.72133 15.2754 9.75919C15.6672 8.32435 16.1879 7.58254 16.4963 7.24422C16.576 7.15674 16.6159 7.113 16.7019 7.09904C16.724 7.09546 16.7634 7.09573 16.7854 7.09962C16.8712 7.11475 16.9145 7.16363 17.0012 7.26139C17.6735 8.0196 19.5035 10.4133 19.5 14.003ZM15 17.503C15 19.9235 13.2857 21.003 12 21.003C10.7143 21.003 9 20.003 9 17.503C9 16.077 9.97608 14.4883 10.8147 13.3865C11.2256 12.8467 11.431 12.5768 11.8114 12.5068C11.9154 12.4876 12.0743 12.488 12.1783 12.5077C12.5583 12.5796 12.7635 12.8518 13.1737 13.3963C14.0149 14.5126 15 16.116 15 17.503Z" fill="#292556" fill-opacity="0.18"/>
<path d="M12 21C15.2143 21 19.5 18.8411 19.5 14C19.5035 10.4103 17.6735 8.0166 17.0012 7.25839C16.9145 7.16063 16.8712 7.11175 16.7854 7.09662C16.7634 7.09273 16.724 7.09246 16.7019 7.09604C16.6159 7.11 16.576 7.15374 16.4963 7.24122C16.1879 7.57954 15.6672 8.32135 15.2754 9.75619C14.5501 6.71833 13.1511 4.83341 12.2088 3.85022C11.921 3.5499 11.7771 3.39974 11.4288 3.35384C11.3468 3.34303 11.1738 3.34959 11.0928 3.36657C10.7491 3.43868 10.618 3.59795 10.356 3.91648C9.39538 5.08412 7.94257 7.43367 7.46824 11.3386C7.13696 10.5988 6.76771 9.9581 6.50537 9.53534C6.37827 9.33053 6.31472 9.22812 6.20674 9.20768C6.17527 9.20172 6.13517 9.20252 6.10396 9.20973C5.99688 9.23448 5.93832 9.33786 5.8212 9.54462C5.34143 10.3916 4.51286 12.1233 4.5 14C4.5 19 8.7857 21 12 21ZM12 21C13.2857 21 15 19.9205 15 17.5C15 16.113 14.0149 14.5096 13.1737 13.3933C12.7634 12.8488 12.5583 12.5766 12.1783 12.5047C12.0743 12.485 11.9154 12.4846 11.8113 12.5038C11.4309 12.5738 11.2255 12.8437 10.8147 13.3835C9.97603 14.4853 8.99995 16.074 8.99995 17.5C8.99995 20 10.7143 21 12 21Z" stroke="#292556" stroke-width="1.5" stroke-linecap="round" stroke-linejoin="round"/>
</svg>
