<svg width="24" height="24" viewBox="0 0 24 24" fill="none" xmlns="http://www.w3.org/2000/svg">
<path fill-rule="evenodd" clip-rule="evenodd" d="M18.5 13.6107C18.5 18.7207 14.7857 20.9996 12 20.9996C13.2857 20.9996 15 19.9201 15 17.4996C15 16.1126 14.0149 14.5092 13.1737 13.3928C12.7635 12.8484 12.5583 12.5761 12.1783 12.5043C12.0743 12.4846 11.9154 12.4842 11.8114 12.5034C11.431 12.5734 11.2256 12.8433 10.8147 13.3831C9.97608 14.4849 9 16.0736 9 17.4996C9 19.9996 10.7143 20.9996 12 20.9996C9.21429 20.9996 5.5 18.8885 5.5 13.6107C5.5 10.4838 7.78165 6.9863 9.64132 4.65499C10.4744 3.61066 10.8909 3.0885 11.6321 2.95569C11.837 2.91898 12.1437 2.91982 12.3484 2.95766C13.0888 3.09453 13.5045 3.6215 14.3358 4.67544C16.1996 7.03841 18.5 10.5707 18.5 13.6107Z" fill="#292556" fill-opacity="0.18"/>
<path d="M13.1737 13.3928L13.7727 12.9415L13.7727 12.9415L13.1737 13.3928ZM12.1783 12.5043L12.3177 11.7673L12.3177 11.7673L12.1783 12.5043ZM11.8114 12.5034L11.9472 13.241L11.9472 13.241L11.8114 12.5034ZM10.8147 13.3831L10.2179 12.9288L10.2179 12.9288L10.8147 13.3831ZM9.64132 4.65499L9.05501 4.18729L9.05501 4.18729L9.64132 4.65499ZM11.6321 2.95569L11.4998 2.21745L11.4998 2.21745L11.6321 2.95569ZM12.3484 2.95766L12.4847 2.22015L12.4847 2.22015L12.3484 2.95766ZM14.3358 4.67544L13.7469 5.13991L13.7469 5.13991L14.3358 4.67544ZM12 21.7496C15.1605 21.7496 19.25 19.1732 19.25 13.6107H17.75C17.75 18.2682 14.4109 20.2496 12 20.2496V21.7496ZM12 21.7496C13.6793 21.7496 15.75 20.3547 15.75 17.4996H14.25C14.25 19.4855 12.8922 20.2496 12 20.2496V21.7496ZM15.75 17.4996C15.75 16.642 15.4499 15.7745 15.0752 15.0134C14.6958 14.2428 14.2098 13.5216 13.7727 12.9415L12.5748 13.8442C12.9789 14.3805 13.406 15.0191 13.7295 15.676C14.0576 16.3424 14.25 16.9701 14.25 17.4996H15.75ZM13.7727 12.9415C13.5814 12.6876 13.3881 12.4275 13.186 12.2322C12.9554 12.0092 12.682 11.8362 12.3177 11.7673L12.0389 13.2412C12.0546 13.2442 12.0739 13.2433 12.1434 13.3105C12.2414 13.4053 12.3558 13.5536 12.5748 13.8442L13.7727 12.9415ZM12.3177 11.7673C12.1228 11.7305 11.8706 11.7299 11.6755 11.7658L11.9472 13.241C11.9411 13.2421 11.9432 13.2414 11.9544 13.2405C11.9647 13.2398 11.9781 13.2392 11.9931 13.2393C12.008 13.2393 12.0214 13.2399 12.0317 13.2407C12.0429 13.2416 12.045 13.2423 12.0389 13.2412L12.3177 11.7673ZM11.6755 11.7658C11.3116 11.8328 11.0378 12.0035 10.8061 12.225C10.6034 12.4189 10.4094 12.6772 10.2179 12.9288L11.4115 13.8373C11.6309 13.5491 11.7451 13.4026 11.8428 13.3091C11.9117 13.2433 11.9307 13.244 11.9472 13.241L11.6755 11.7658ZM10.2179 12.9288C9.78096 13.5029 9.29675 14.2183 8.91916 14.9902C8.54533 15.7544 8.25 16.6262 8.25 17.4996H9.75C9.75 16.9469 9.94271 16.3114 10.2666 15.6493C10.5867 14.9949 11.0098 14.365 11.4115 13.8373L10.2179 12.9288ZM8.25 17.4996C8.25 18.9338 8.74811 20.0119 9.5 20.7296C10.2366 21.4328 11.1754 21.7496 12 21.7496V20.2496C11.5389 20.2496 10.9776 20.0664 10.5357 19.6446C10.109 19.2373 9.75 18.5653 9.75 17.4996H8.25ZM4.75 13.6107C4.75 16.4402 5.7527 18.4924 7.19458 19.8335C8.61973 21.159 10.4311 21.7496 12 21.7496V20.2496C10.7831 20.2496 9.34456 19.7846 8.21614 18.7351C7.10444 17.7012 6.25 16.059 6.25 13.6107H4.75ZM9.05501 4.18729C8.10733 5.37532 7.04005 6.87499 6.20672 8.49069C5.3781 10.0973 4.75 11.8772 4.75 13.6107H6.25C6.25 12.2173 6.76273 10.685 7.53985 9.17827C8.31226 7.68068 9.31564 6.26597 10.2276 5.12269L9.05501 4.18729ZM11.4998 2.21745C10.9579 2.31455 10.543 2.56124 10.1625 2.91234C9.80993 3.23773 9.45766 3.68253 9.05501 4.18729L10.2276 5.12269C10.658 4.58312 10.9306 4.24468 11.1798 4.0147C11.4011 3.81043 11.5651 3.72963 11.7644 3.69393L11.4998 2.21745ZM12.4847 2.22015C12.1913 2.16591 11.7936 2.16482 11.4998 2.21745L11.7644 3.69393C11.8804 3.67314 12.0961 3.67374 12.2121 3.69516L12.4847 2.22015ZM14.9246 4.21097C14.5227 3.70144 14.1716 3.25301 13.82 2.92458C13.4409 2.57045 13.0268 2.32036 12.4847 2.22015L12.2121 3.69516C12.4104 3.73183 12.5744 3.81366 12.796 4.02072C13.0452 4.25348 13.3175 4.59551 13.7469 5.13991L14.9246 4.21097ZM19.25 13.6107C19.25 11.9169 18.6145 10.1483 17.7826 8.54395C16.945 6.92846 15.8732 5.41358 14.9246 4.21097L13.7469 5.13991C14.6621 6.30027 15.6725 7.73302 16.451 9.23442C17.2353 10.747 17.75 12.2645 17.75 13.6107H19.25Z" fill="#292556"/>
</svg>
