<svg width="24" height="24" viewBox="0 0 24 24" fill="none" xmlns="http://www.w3.org/2000/svg">
<path d="M10 19.5C10 20.3284 10.6716 21 11.5 21H13C13.8284 21 14.5 20.3284 14.5 19.5C14.5 18.6716 13.8284 18 13 18H11.5C10.6716 18 10 18.6716 10 19.5Z" fill="#292556" fill-opacity="0.18"/>
<path d="M3.05493 11C3.01863 11.3283 3 11.662 3 12V15C3 16.1046 3.89543 17 5 17C5.93188 17 6.39782 17 6.76537 16.8478C7.25542 16.6448 7.64477 16.2554 7.84776 15.7654C8 15.3978 8 14.9319 8 14C8 13.0681 8 12.6022 7.84776 12.2346C7.64477 11.7446 7.25542 11.3552 6.76537 11.1522C6.39782 11 5.93188 11 5 11H3.05493Z" fill="#292556" fill-opacity="0.18"/>
<path d="M21 12C21 11.662 20.9814 11.3283 20.9451 11H19C18.0681 11 17.6022 11 17.2346 11.1522C16.7446 11.3552 16.3552 11.7446 16.1522 12.2346C16 12.6022 16 13.0681 16 14V14.5C16 14.9647 16 15.197 16.0384 15.3902C16.1962 16.1836 16.8164 16.8038 17.6098 16.9616C17.803 17 18.0353 17 18.5 17C18.9647 17 19.197 17 19.3902 16.9616C20.1836 16.8038 20.8038 16.1836 20.9616 15.3902C21 15.197 21 14.9647 21 14.5V12Z" fill="#292556" fill-opacity="0.18"/>
<path d="M3 12C3 11.662 3.01863 11.3283 3.05493 11M3 12V15C3 16.1046 3.89543 17 5 17V17M3 12L3.05 11H3.05493M3.05493 11C3.55237 6.50005 7.36745 3 12 3C16.6326 3 20.4476 6.50005 20.9451 11M3.05493 11H5C6.65685 11 8 12.3431 8 14V14C8 15.6569 6.65685 17 5 17V17M20.9451 11C20.9814 11.3283 21 11.662 21 12M20.9451 11H19C17.3431 11 16 12.3431 16 14V14C16 15.6569 17.3431 17 19 17V17C20.1046 17 21 16.1046 21 15V12M20.9451 11H20.95L21 12M5 17V17C5 17.4647 5 17.697 5.03843 17.8902C5.19624 18.6836 5.81644 19.3038 6.60982 19.4616C6.80302 19.5 7.03534 19.5 7.5 19.5H10M10 19.5C10 20.3284 10.6716 21 11.5 21H13C13.8284 21 14.5 20.3284 14.5 19.5C14.5 18.6716 13.8284 18 13 18H11.5C10.6716 18 10 18.6716 10 19.5Z" stroke="#292556" stroke-width="1.5" stroke-linejoin="round"/>
</svg>
