<svg width="24" height="24" viewBox="0 0 24 24" fill="none" xmlns="http://www.w3.org/2000/svg">
<path fill-rule="evenodd" clip-rule="evenodd" d="M15.4 6C16.8999 6 17.6498 6 18.1756 6.38197C18.3454 6.50533 18.4947 6.65464 18.618 6.82443C19 7.35016 19 8.10011 19 9.6V17.4C19 18.8999 19 19.6498 18.618 20.1756C18.4947 20.3454 18.3454 20.4947 18.1756 20.618C17.6498 21 16.8999 21 15.4 21H8.6C7.10011 21 6.35016 21 5.82443 20.618C5.65464 20.4947 5.50533 20.3454 5.38197 20.1756C5 19.6498 5 18.8999 5 17.4V9.6C5 8.10011 5 7.35016 5.38197 6.82443C5.50533 6.65464 5.65464 6.50533 5.82443 6.38197C6.35016 6 7.10011 6 8.6 6H15.4ZM10 10.8366V12.8821L8 14.1062V16.1516L10 17.3789L12 16.1516L14 17.3789L16 16.1516V14.1062L14 12.8821V10.8366L12 9.60938L10 10.8366Z" fill="#292556" fill-opacity="0.18"/>
<path d="M5 4.5C5 3.67157 5.67157 3 6.5 3H17.5C18.3284 3 19 3.67157 19 4.5V4.5C19 5.32843 18.3284 6 17.5 6H6.5C5.67157 6 5 5.32843 5 4.5V4.5Z" stroke="#292556" stroke-width="1.5" stroke-linejoin="round"/>
<path d="M19 17.4V9.6C19 8.10011 19 7.35016 18.618 6.82443C18.4947 6.65464 18.3454 6.50533 18.1756 6.38197C17.6498 6 16.8999 6 15.4 6H8.6C7.10011 6 6.35016 6 5.82443 6.38197C5.65464 6.50533 5.50533 6.65464 5.38197 6.82443C5 7.35016 5 8.10011 5 9.6V17.4C5 18.8999 5 19.6498 5.38197 20.1756C5.50533 20.3454 5.65464 20.4947 5.82443 20.618C6.35016 21 7.10011 21 8.6 21H15.4C16.8999 21 17.6498 21 18.1756 20.618C18.3454 20.4947 18.4947 20.3454 18.618 20.1756C19 19.6498 19 18.8999 19 17.4Z" stroke="#292556" stroke-width="1.5" stroke-linejoin="round"/>
<path d="M14 12.8821V10.8366L12 9.60938L10 10.8366V12.8821M14 12.8821L12 14.1094M14 12.8821L16 14.1062V16.1516L14 17.3789L12 16.1516M10 12.8821L8 14.1062V16.1516L10 17.3789L12 16.1516M10 12.8821L12 14.1094M12 14.1094V16.1516" stroke="#292556" stroke-width="1.5" stroke-linejoin="round"/>
</svg>
