<svg width="24" height="24" viewBox="0 0 24 24" fill="none" xmlns="http://www.w3.org/2000/svg">
<path fill-rule="evenodd" clip-rule="evenodd" d="M19.9978 15C20.4219 15 20.634 15 20.7637 14.9503C21.127 14.8109 21.3234 14.4168 21.2159 14.0428C21.1775 13.9093 21.0499 13.74 20.7945 13.4014L18.9836 11C18.9945 10.8347 19 10.668 19 10.5C19 6.35786 15.6421 3 11.5 3C7.35786 3 4 6.35786 4 10.5C4 13.378 5.6211 15.8775 8 17.135V19.65C8 20.2125 8 20.4937 8.14324 20.6908C8.1895 20.7545 8.24549 20.8105 8.30916 20.8568C8.50631 21 8.78754 21 9.35 21H13.75C14.2173 21 14.451 21 14.625 20.8995C14.739 20.8337 14.8337 20.739 14.8995 20.625C15 20.451 15 20.2173 15 19.75V19.75C15 19.2827 15 19.049 15.1005 18.875C15.1663 18.761 15.261 18.6663 15.375 18.6005C15.549 18.5 15.7827 18.5 16.25 18.5H17.65C18.2125 18.5 18.4937 18.5 18.6908 18.3568C18.7545 18.3105 18.8105 18.2545 18.8568 18.1908C19 17.9937 19 17.7125 19 17.15V15.9978C19 15.7674 19 15.6521 19.0251 15.5575C19.0942 15.2974 19.2974 15.0942 19.5575 15.0251C19.6521 15 19.7674 15 19.9978 15V15ZM10.6111 6.5C9.62927 6.5 8.83333 7.29594 8.83333 8.27778C8.83333 8.44578 8.85664 8.60834 8.90019 8.7624C8.09973 8.93553 7.5 9.64773 7.5 10.5C7.5 11.3523 8.09973 12.0645 8.90019 12.2376C8.85664 12.3917 8.83333 12.5542 8.83333 12.7222C8.83333 13.7041 9.62927 14.5 10.6111 14.5C10.9349 14.5 11.2385 14.4134 11.5 14.2622C11.7615 14.4134 12.0651 14.5 12.3889 14.5C13.3707 14.5 14.1667 13.7041 14.1667 12.7222C14.1667 12.5542 14.1434 12.3917 14.0998 12.2376C14.9003 12.0645 15.5 11.3523 15.5 10.5C15.5 9.64773 14.9003 8.93553 14.0998 8.7624C14.1434 8.60834 14.1667 8.44578 14.1667 8.27778C14.1667 7.29594 13.3707 6.5 12.3889 6.5C12.0651 6.5 11.7615 6.58657 11.5 6.73783C11.2385 6.58657 10.9349 6.5 10.6111 6.5Z" fill="#292556" fill-opacity="0.18"/>
<path d="M8.90019 8.7624C8.85664 8.60834 8.83333 8.44578 8.83333 8.27778C8.83333 7.29594 9.62927 6.5 10.6111 6.5C10.9349 6.5 11.2385 6.58657 11.5 6.73783M8.90019 8.7624C8.09973 8.93553 7.5 9.64773 7.5 10.5C7.5 11.3523 8.09973 12.0645 8.90019 12.2376C8.85664 12.3917 8.83333 12.5542 8.83333 12.7222C8.83333 13.7041 9.62927 14.5 10.6111 14.5C10.9349 14.5 11.2385 14.4134 11.5 14.2622M8.90019 8.7624C8.96428 8.98913 9.07223 9.19744 9.21429 9.37761M11.5 6.73783C11.7615 6.58657 12.0651 6.5 12.3889 6.5C13.3707 6.5 14.1667 7.29594 14.1667 8.27778C14.1667 8.44578 14.1434 8.60834 14.0998 8.7624C14.9003 8.93553 15.5 9.64773 15.5 10.5C15.5 11.3523 14.9003 12.0645 14.0998 12.2376M11.5 6.73783V14.2622M11.5 14.2622C11.7615 14.4134 12.0651 14.5 12.3889 14.5C13.3707 14.5 14.1667 13.7041 14.1667 12.7222C14.1667 12.5542 14.1434 12.3917 14.0998 12.2376M14.0998 12.2376C14.0357 12.0109 13.9278 11.8026 13.7857 11.6224M18.9836 11L20.7945 13.4014C21.0499 13.74 21.1775 13.9093 21.2159 14.0428C21.3234 14.4168 21.127 14.8109 20.7637 14.9503C20.634 15 20.4219 15 19.9978 15V15C19.7674 15 19.6521 15 19.5575 15.0251C19.2974 15.0942 19.0942 15.2974 19.0251 15.5575C19 15.6521 19 15.7674 19 15.9978V17.15C19 17.7125 19 17.9937 18.8568 18.1908C18.8105 18.2545 18.7545 18.3105 18.6908 18.3568C18.4937 18.5 18.2125 18.5 17.65 18.5H16.25C15.7827 18.5 15.549 18.5 15.375 18.6005C15.261 18.6663 15.1663 18.761 15.1005 18.875C15 19.049 15 19.2827 15 19.75V19.75C15 20.2173 15 20.451 14.8995 20.625C14.8337 20.739 14.739 20.8337 14.625 20.8995C14.451 21 14.2173 21 13.75 21H9.35C8.78754 21 8.50631 21 8.30916 20.8568C8.24549 20.8105 8.1895 20.7545 8.14324 20.6908C8 20.4937 8 20.2125 8 19.65V17.135C5.6211 15.8775 4 13.378 4 10.5C4 6.35786 7.35786 3 11.5 3C15.6421 3 19 6.35786 19 10.5C19 10.668 18.9945 10.8347 18.9836 11Z" stroke="#292556" stroke-width="1.5" stroke-linecap="round" stroke-linejoin="round"/>
</svg>
