<svg width="24" height="24" viewBox="0 0 24 24" fill="none" xmlns="http://www.w3.org/2000/svg">
<path d="M4 17.5C4 19.1569 5.34315 20.5 7 20.5C8.65685 20.5 10 19.1569 10 17.5C10 15.8431 8.65685 14.5 7 14.5C5.34315 14.5 4 15.8431 4 17.5Z" fill="#292556" fill-opacity="0.18"/>
<path d="M14 17.5C14 19.1569 15.3431 20.5 17 20.5C18.6569 20.5 20 19.1569 20 17.5C20 15.8431 18.6569 14.5 17 14.5C15.3431 14.5 14 15.8431 14 17.5Z" fill="#292556" fill-opacity="0.18"/>
<path d="M10.8295 5.09476C9.9171 4.09683 9.46091 3.59787 8.99274 3.49707C8.55894 3.40366 8.10604 3.50713 7.75583 3.77964C7.37788 4.07374 7.18361 4.7213 6.79507 6.01643L5 12H19L17.2049 6.01643C16.8164 4.7213 16.6221 4.07374 16.2442 3.77964C15.894 3.50713 15.4411 3.40366 15.0073 3.49707C14.5391 3.59787 14.0829 4.09683 13.1705 5.09476V5.09476C12.7706 5.5322 12.5706 5.75092 12.337 5.83453C12.1191 5.91251 11.8809 5.91251 11.663 5.83453C11.4294 5.75092 11.2294 5.5322 10.8295 5.09476V5.09476Z" fill="#292556" fill-opacity="0.18"/>
<path d="M5 12H3M5 12L6.79507 6.01643C7.18361 4.7213 7.37788 4.07374 7.75583 3.77964C8.10604 3.50713 8.55894 3.40366 8.99274 3.49707C9.46091 3.59787 9.9171 4.09683 10.8295 5.09476V5.09476C11.2294 5.5322 11.4294 5.75092 11.663 5.83453C11.8809 5.91251 12.1191 5.91251 12.337 5.83453C12.5706 5.75092 12.7706 5.5322 13.1705 5.09476V5.09476C14.0829 4.09683 14.5391 3.59787 15.0073 3.49707C15.4411 3.40366 15.894 3.50713 16.2442 3.77964C16.6221 4.07374 16.8164 4.7213 17.2049 6.01643L19 12M5 12H19M21 12H19M7 20.5C5.34315 20.5 4 19.1569 4 17.5C4 15.8431 5.34315 14.5 7 14.5C8.65685 14.5 10 15.8431 10 17.5C10 19.1569 8.65685 20.5 7 20.5ZM17 20.5C15.3431 20.5 14 19.1569 14 17.5C14 15.8431 15.3431 14.5 17 14.5C18.6569 14.5 20 15.8431 20 17.5C20 19.1569 18.6569 20.5 17 20.5Z" stroke="#292556" stroke-width="1.5" stroke-linecap="round" stroke-linejoin="round"/>
</svg>
