<svg width="24" height="24" viewBox="0 0 24 24" fill="none" xmlns="http://www.w3.org/2000/svg">
<path fill-rule="evenodd" clip-rule="evenodd" d="M3 11.55C3 7.98775 3 6.20663 3.90717 4.95802C4.20015 4.55477 4.55477 4.20015 4.95802 3.90717C6.20663 3 7.98775 3 11.55 3H12.45C16.0122 3 17.7934 3 19.042 3.90717C19.4452 4.20015 19.7999 4.55477 20.0928 4.95802C21 6.20663 21 7.98775 21 11.55V12.45C21 16.0122 21 17.7934 20.0928 19.042C19.7999 19.4452 19.4452 19.7999 19.042 20.0928C17.7934 21 16.0122 21 12.45 21H11.55C7.98775 21 6.20663 21 4.95802 20.0928C4.55477 19.7999 4.20015 19.4452 3.90717 19.042C3 17.7934 3 16.0122 3 12.45V11.55ZM12 16C14.2091 16 16 14.2091 16 12C16 9.79086 14.2091 8 12 8C9.79086 8 8 9.79086 8 12C8 14.2091 9.79086 16 12 16Z" fill="#292556" fill-opacity="0.18"/>
<path d="M18.5 6.5C18.5 7.05228 18.0523 7.5 17.5 7.5C16.9477 7.5 16.5 7.05228 16.5 6.5C16.5 5.94772 16.9477 5.5 17.5 5.5C18.0523 5.5 18.5 5.94772 18.5 6.5Z" fill="#292556"/>
<path d="M3 10.2C3 7.20021 3 5.70032 3.76393 4.64886C4.01065 4.30928 4.30928 4.01065 4.64886 3.76393C5.70032 3 7.20021 3 10.2 3H13.8C16.7998 3 18.2997 3 19.3511 3.76393C19.6907 4.01065 19.9893 4.30928 20.2361 4.64886C21 5.70032 21 7.20021 21 10.2V13.8C21 16.7998 21 18.2997 20.2361 19.3511C19.9893 19.6907 19.6907 19.9893 19.3511 20.2361C18.2997 21 16.7998 21 13.8 21H10.2C7.20021 21 5.70032 21 4.64886 20.2361C4.30928 19.9893 4.01065 19.6907 3.76393 19.3511C3 18.2997 3 16.7998 3 13.8V10.2Z" stroke="#292556" stroke-width="1.5" stroke-linejoin="round"/>
<path d="M16 12C16 14.2091 14.2091 16 12 16C9.79086 16 8 14.2091 8 12C8 9.79086 9.79086 8 12 8C14.2091 8 16 9.79086 16 12Z" stroke="#292556" stroke-width="1.5" stroke-linejoin="round"/>
</svg>
