<svg width="24" height="24" viewBox="0 0 24 24" fill="none" xmlns="http://www.w3.org/2000/svg">
<path d="M18.0007 13.9997L16.0007 11.9997L12.0007 15.9997L14.0007 17.9997C15.1053 19.1043 16.8961 19.1043 18.0007 17.9997C19.1052 16.8951 19.1052 15.1043 18.0007 13.9997Z" fill="#292556" fill-opacity="0.18"/>
<path d="M8.00067 11.9997L6.00066 13.9997C4.8961 15.1043 4.8961 16.8951 6.00066 17.9997C7.10523 19.1043 8.89609 19.1043 10.0007 17.9997L12.0007 15.9997L8.00067 11.9997Z" fill="#292556" fill-opacity="0.18"/>
<path d="M6.00071 5.99973C4.89614 7.1043 4.89614 8.89515 6.00071 9.99972L8.00067 11.9997L12.0007 7.9997L10.0007 5.99973C8.89613 4.89516 7.10527 4.89516 6.00071 5.99973Z" fill="#292556" fill-opacity="0.18"/>
<path d="M18.0006 9.99971C19.1052 8.89514 19.1052 7.10428 18.0006 5.99972C16.8961 4.89515 15.1052 4.89515 14.0006 5.99972L12.0007 7.9997L16.0007 11.9997L18.0006 9.99971Z" fill="#292556" fill-opacity="0.18"/>
<path d="M16.0007 11.9997L18.0007 13.9997C19.1052 15.1043 19.1052 16.8951 18.0007 17.9997C16.8961 19.1043 15.1053 19.1043 14.0007 17.9997L12.0007 15.9997M16.0007 11.9997L12.0007 15.9997M16.0007 11.9997L18.0006 9.99971C19.1052 8.89514 19.1052 7.10428 18.0006 5.99972C16.8961 4.89515 15.1052 4.89515 14.0006 5.99972L12.0007 7.9997M16.0007 11.9997L12.0007 7.9997M12.0007 15.9997L10.0007 17.9997C8.89609 19.1043 7.10523 19.1043 6.00066 17.9997C4.8961 16.8951 4.8961 15.1043 6.00066 13.9997L8.00067 11.9997M12.0007 15.9997L8.00067 11.9997M8.00067 11.9997L6.00071 9.99972C4.89614 8.89515 4.89614 7.1043 6.00071 5.99973C7.10527 4.89516 8.89613 4.89516 10.0007 5.99973L12.0007 7.9997M8.00067 11.9997L12.0007 7.9997" stroke="#292556" stroke-width="1.5"/>
<path d="M3.5 5C3.5 4.17157 4.17157 3.5 5 3.5C5.82843 3.5 6.5 4.17157 6.5 5C6.5 5.82843 5.82843 6.5 5 6.5C4.17157 6.5 3.5 5.82843 3.5 5Z" fill="#292556"/>
<path d="M17.5 5C17.5 4.17157 18.1716 3.5 19 3.5C19.8284 3.5 20.5 4.17157 20.5 5C20.5 5.82843 19.8284 6.5 19 6.5C18.1716 6.5 17.5 5.82843 17.5 5Z" fill="#292556"/>
<path d="M3.5 19C3.5 18.1716 4.17157 17.5 5 17.5C5.82843 17.5 6.5 18.1716 6.5 19C6.5 19.8284 5.82843 20.5 5 20.5C4.17157 20.5 3.5 19.8284 3.5 19Z" fill="#292556"/>
<path d="M17.5 19C17.5 18.1716 18.1716 17.5 19 17.5C19.8284 17.5 20.5 18.1716 20.5 19C20.5 19.8284 19.8284 20.5 19 20.5C18.1716 20.5 17.5 19.8284 17.5 19Z" fill="#292556"/>
</svg>
