<svg width="24" height="24" viewBox="0 0 24 24" fill="none" xmlns="http://www.w3.org/2000/svg">
<path fill-rule="evenodd" clip-rule="evenodd" d="M15.1798 6.05245C14.8032 6 14.3356 6 13.6245 6H8.4C6.15016 6 5.02524 6 4.23664 6.57295C3.98196 6.75799 3.75799 6.98196 3.57295 7.23664C3 8.02524 3 9.15016 3 11.4V12.6C3 14.8498 3 15.9748 3.57295 16.7634C3.69775 16.9351 3.84027 17.0929 3.99797 17.2342L15.1798 6.05245ZM6.77974 17.988C7.2454 18 7.77998 18 8.4 18H13.6245C14.663 18 15.1822 18 15.6568 17.8366C15.8136 17.7826 15.9657 17.7157 16.1115 17.6366C16.5526 17.3972 16.9035 17.0144 17.6052 16.2489L19.5488 14.1285C20.368 13.2349 20.7777 12.788 20.8568 12.2587C20.8824 12.0872 20.8824 11.9128 20.8568 11.7413C20.7777 11.212 20.368 10.7651 19.5488 9.87147L17.6052 7.75109C17.5044 7.6412 17.4109 7.53921 17.3234 7.44439L6.77974 17.988Z" fill="#292556" fill-opacity="0.18"/>
<path fill-rule="evenodd" clip-rule="evenodd" d="M15.8082 5.42404C15.2389 5.24936 14.6193 5.24961 13.7457 5.24997L13.6245 5.25H8.4H8.35672C7.26855 5.24999 6.3911 5.24998 5.68957 5.32598C4.96472 5.40451 4.33926 5.57134 3.79581 5.96619C3.47745 6.19748 3.19748 6.47745 2.96619 6.79581C2.57134 7.33926 2.40451 7.96472 2.32598 8.68957C2.24998 9.3911 2.24999 10.2685 2.25 11.3567V11.4V12.6V12.6433C2.24999 13.7315 2.24998 14.6089 2.32598 15.3104C2.40451 16.0353 2.57134 16.6607 2.96619 17.2042C3.11411 17.4078 3.28195 17.5957 3.467 17.7652L4.52936 16.7029C4.39875 16.5901 4.28139 16.4625 4.17971 16.3225C4.00161 16.0774 3.88196 15.7461 3.81726 15.1489C3.75103 14.5376 3.75 13.7416 3.75 12.6V11.4C3.75 10.2584 3.75103 9.4624 3.81726 8.85114C3.88196 8.25392 4.00161 7.92262 4.17971 7.67748C4.31849 7.48647 4.48647 7.31849 4.67748 7.17971C4.92262 7.00161 5.25392 6.88196 5.85114 6.81726C6.4624 6.75103 7.25837 6.75 8.4 6.75H13.6245C13.9755 6.75 14.2518 6.75099 14.4761 6.7561L15.8082 5.42404ZM7.5194 17.2484C7.78822 17.2499 8.08058 17.25 8.4 17.25H13.6245C14.7144 17.25 15.0844 17.2405 15.4127 17.1275C15.5303 17.087 15.6444 17.0368 15.7537 16.9775C16.0588 16.8118 16.3159 16.5455 17.0523 15.7421L18.996 13.6217C19.4163 13.1632 19.6919 12.8612 19.8779 12.6103C20.0553 12.371 20.1009 12.2425 20.115 12.1478C20.1297 12.0498 20.1297 11.9502 20.115 11.8522C20.1009 11.7575 20.0553 11.629 19.8779 11.3897C19.6919 11.1388 19.4163 10.8368 18.996 10.3783L17.0523 8.25788C16.9582 8.15524 16.8719 8.06136 16.7924 7.97534L17.8544 6.91337C17.9258 6.99079 17.9996 7.0713 18.0762 7.15497L18.158 7.24429L20.1017 9.36467L20.1274 9.39273C20.5151 9.81563 20.8447 10.1751 21.0828 10.4963C21.3348 10.8362 21.5336 11.1958 21.5985 11.6304C21.6352 11.8754 21.6352 12.1246 21.5985 12.3696C21.5336 12.8042 21.3348 13.1638 21.0828 13.5037C20.8447 13.8249 20.5151 14.1844 20.1274 14.6073L20.1274 14.6074L20.1017 14.6353L18.158 16.7557L18.0762 16.845C17.4539 17.5244 17.0225 17.9955 16.4693 18.2958C16.2871 18.3947 16.097 18.4783 15.9009 18.5458C15.3058 18.7507 14.6669 18.7504 13.7457 18.75L13.6245 18.75H8.4H8.35673C7.45284 18.75 6.69434 18.75 6.06129 18.7065L7.5194 17.2484Z" fill="#292556"/>
<path d="M3 21L21 3" stroke="#292556" stroke-width="1.5" stroke-linecap="round" stroke-linejoin="round"/>
</svg>
