<svg width="24" height="24" viewBox="0 0 24 24" fill="none" xmlns="http://www.w3.org/2000/svg">
<path d="M17 18C19.2091 18 21 16.2091 21 14V14C21 11.7909 19.2091 10 17 10H15V10C15 10 15 10 15 10C15 12.2091 13.2091 14 11 14C11 14 11 14 11 14H9V14C9 16.2091 10.7909 18 13 18H17Z" fill="#292556" fill-opacity="0.18"/>
<path d="M15 10C15 7.79086 13.2091 6 11 6H7C4.79086 6 3 7.79086 3 10V10C3 12.2091 4.79086 14 7 14H9H11C11 14 11 14 11 14C13.2091 14 15 12.2091 15 10C15 10 15 10 15 10V10V10Z" fill="#292556" fill-opacity="0.18"/>
<path d="M15 10V10C15 10 15 10 15 10C15 12.2091 13.2091 14 11 14C11 14 11 14 11 14H9M15 10H17C19.2091 10 21 11.7909 21 14V14C21 16.2091 19.2091 18 17 18H13C10.7909 18 9 16.2091 9 14V14M15 10V10C15 7.79086 13.2091 6 11 6H7C4.79086 6 3 7.79086 3 10V10C3 12.2091 4.79086 14 7 14H9" stroke="#292556" stroke-width="1.5" stroke-linejoin="round"/>
</svg>
