<svg width="24" height="24" viewBox="0 0 24 24" fill="none" xmlns="http://www.w3.org/2000/svg">
<path d="M10.3182 14.1979C11.6481 14.9656 13.2709 15.2259 14.8714 14.7971C15.9464 14.509 16.8746 13.9467 17.601 13.2055L7.53612 7.39473C7.25721 8.39441 7.2342 9.47955 7.52226 10.5546C7.95111 12.1551 8.9882 13.4302 10.3182 14.1979Z" fill="#292556" fill-opacity="0.18"/>
<path d="M19.1147 7.44845C18.257 4.24765 14.9667 2.34823 11.7655 3.20598C10.6908 3.49396 9.76271 4.05613 9.03644 4.79704L19.101 10.6077C19.3797 9.60818 19.4027 8.52328 19.1147 7.44845Z" fill="#292556" fill-opacity="0.18"/>
<path d="M10.3182 14.1979C11.6481 14.9656 13.2709 15.2259 14.8714 14.7971C15.9464 14.509 16.8746 13.9467 17.601 13.2055M10.3182 14.1979C8.9882 13.4302 7.95111 12.1551 7.52226 10.5546C7.2342 9.47955 7.25721 8.39441 7.53612 7.39473M10.3182 14.1979L6.39158 21M9.03644 4.79704L8.4394 4.45234C7.72215 4.03825 6.80502 4.28385 6.39071 5.00097V5.00097C5.97622 5.71841 6.22195 6.63602 6.93951 7.05029L7.53612 7.39473M9.03644 4.79704C9.76271 4.05613 10.6908 3.49396 11.7655 3.20598C14.9667 2.34823 18.257 4.24765 19.1147 7.44845C19.4027 8.52328 19.3797 9.60818 19.101 10.6077M9.03644 4.79704L19.101 10.6077M7.53612 7.39473L17.601 13.2055M17.601 13.2055L18.1973 13.5498C18.9145 13.9639 19.8317 13.7183 20.246 13.0012V13.0012C20.6605 12.2838 20.4147 11.3661 19.6972 10.9519L19.101 10.6077" stroke="#292556" stroke-width="1.5" stroke-linecap="round" stroke-linejoin="round"/>
</svg>
