<svg width="24" height="24" viewBox="0 0 24 24" fill="none" xmlns="http://www.w3.org/2000/svg">
<path d="M8 7C8 4.79086 9.79086 3 12 3V3C14.2091 3 16 4.79086 16 7V11C16 13.2091 14.2091 15 12 15V15C9.79086 15 8 13.2091 8 11V7Z" fill="#292556" fill-opacity="0.18"/>
<path d="M19 10V11C19 14.866 15.866 18 12 18V18M5 10V11C5 14.866 8.13401 18 12 18V18M12 18V21M12 15V15C14.2091 15 16 13.2091 16 11V7C16 4.79086 14.2091 3 12 3V3C9.79086 3 8 4.79086 8 7V11C8 13.2091 9.79086 15 12 15Z" stroke="#292556" stroke-width="1.5" stroke-linecap="round" stroke-linejoin="round"/>
</svg>
