<svg width="24" height="24" viewBox="0 0 24 24" fill="none" xmlns="http://www.w3.org/2000/svg">
<path d="M8.72501 12.5072C8.07312 11.6953 7.51524 10.8525 7.05559 10C7.75825 9.88771 8.43324 9.56084 8.97487 9.01942C10.3417 7.65311 10.3417 5.4379 8.97487 4.0716C7.60804 2.7053 5.39196 2.7053 4.02513 4.0716C3.24982 4.8466 2.91429 5.89474 3.01853 6.90616C3.03296 9.44887 4.15711 12.3746 6.25057 14.9816L8.72501 12.5072Z" fill="#292556" fill-opacity="0.18"/>
<path d="M10.4237 14.344L7.94937 16.8184C10.8044 19.5081 14.2007 20.9651 17.0994 20.9815C18.1112 21.0857 19.1597 20.7503 19.935 19.9753C21.3019 18.609 21.3019 16.3938 19.935 15.0275C18.5682 13.6612 16.3521 13.6612 14.9853 15.0275C14.4436 15.5689 14.1166 16.2436 14.0043 16.946C12.7689 16.2804 11.5539 15.4088 10.4237 14.344Z" fill="#292556" fill-opacity="0.18"/>
<path fill-rule="evenodd" clip-rule="evenodd" d="M9.25862 11.9736C8.86185 11.4744 8.50269 10.9642 8.18207 10.4482C8.66278 10.2413 9.11305 9.94172 9.50507 9.54985C11.1649 7.89063 11.1649 5.20039 9.50507 3.54117C7.84537 1.88211 5.15458 1.88211 3.49487 3.54117C2.5627 4.47298 2.15435 5.73087 2.26879 6.9458C2.29464 9.70168 3.5148 12.7967 5.71728 15.5149L6.78408 14.4481C4.80988 11.9652 3.78167 9.22399 3.7685 6.9019C3.76836 6.87764 3.76704 6.8534 3.76456 6.82926C3.68247 6.03286 3.94642 5.21071 4.55533 4.60203C5.62929 3.52849 7.37066 3.52849 8.44462 4.60203C9.51843 5.67542 9.51843 7.4156 8.44462 8.48898C8.01841 8.91502 7.4891 9.17121 6.93718 9.25944C6.69726 9.29779 6.49078 9.44999 6.38316 9.66782C6.27554 9.88565 6.2801 10.1421 6.39541 10.356C6.88921 11.2718 7.48973 12.1743 8.19163 13.0406L9.25862 11.9736ZM8.47991 16.2878C11.2244 18.8671 14.4396 20.2164 17.1036 20.2315C17.1278 20.2316 17.1521 20.233 17.1762 20.2354C17.9732 20.3175 18.7958 20.0536 19.4048 19.4449C20.4786 18.3715 20.4786 16.6313 19.4048 15.5579C18.3308 14.4844 16.5894 14.4844 15.5155 15.5579C15.0893 15.9839 14.8331 16.513 14.7448 17.0645C14.7065 17.3043 14.5543 17.5108 14.3365 17.6184C14.1188 17.726 13.8624 17.7215 13.6485 17.6063C12.348 16.9056 11.0742 15.9899 9.89316 14.8746L10.9543 13.8134C11.7855 14.5945 12.6623 15.265 13.5561 15.8199C13.7631 15.3392 14.0629 14.889 14.455 14.497C16.1147 12.838 18.8055 12.838 20.4652 14.497C22.1251 16.1563 22.1251 18.8465 20.4652 20.5057C19.5331 21.4375 18.2749 21.8456 17.0597 21.7312C13.9344 21.7019 10.373 20.1383 7.4188 17.3489L8.47991 16.2878Z" fill="#292556"/>
<path d="M3 21L21 3" stroke="#292556" stroke-width="1.5" stroke-linecap="round" stroke-linejoin="round"/>
</svg>
