<svg width="24" height="24" viewBox="0 0 24 24" fill="none" xmlns="http://www.w3.org/2000/svg">
<path d="M19.8875 8.61851L15.3781 4.10911C14.6935 3.42459 14.3513 3.08233 13.9752 3.05803C13.8509 3.05 13.7382 3.0631 13.6191 3.09941C13.2586 3.20932 12.993 3.63855 12.462 4.49699C10.5342 7.61316 8.57215 9.5752 5.45598 11.503C4.59753 12.034 4.16831 12.2996 4.0584 12.6601C4.02209 12.7792 4.00899 12.8919 4.01702 13.0162C4.04132 13.3923 4.38358 13.7346 5.06809 14.4191L6.52972 15.8807L8.11587 17.4669L9.5775 18.9285C10.262 19.613 10.6043 19.9553 10.9804 19.9796C11.1046 19.9876 11.2174 19.9745 11.3365 19.9382C11.697 19.8283 11.9625 19.399 12.4936 18.5406C14.4214 15.4244 16.3834 13.4624 19.4996 11.5346C20.358 11.0036 20.7873 10.738 20.8972 10.3775C20.9335 10.2584 20.9466 10.1457 20.9385 10.0214C20.9142 9.64529 20.572 9.30303 19.8875 8.61851Z" fill="#292556" fill-opacity="0.18"/>
<path d="M6.52977 15.8827L2.96094 21.0376L8.11592 17.4688L6.52977 15.8827Z" fill="#292556"/>
<path d="M6.52977 15.8827L5.06815 14.421C4.38363 13.7365 4.04137 13.3943 4.01707 13.0181C4.00904 12.8939 4.02214 12.7811 4.05845 12.662C4.16836 12.3015 4.59758 12.036 5.45603 11.5049C8.5722 9.57716 10.5342 7.61511 12.462 4.49895C12.9931 3.6405 13.2586 3.21128 13.6191 3.10137C13.7382 3.06506 13.851 3.05196 13.9752 3.05998C14.3513 3.08429 14.6936 3.42654 15.3781 4.11106L19.8875 8.62047C20.572 9.30498 20.9143 9.64724 20.9386 10.0234C20.9466 10.1476 20.9335 10.2604 20.8972 10.3795C20.7873 10.74 20.3581 11.0055 19.4996 11.5366C16.3835 13.4643 14.4214 15.4264 12.4937 18.5426C11.9626 19.401 11.6971 19.8302 11.3365 19.9401C11.2174 19.9764 11.1047 19.9895 10.9804 19.9815C10.6043 19.9572 10.2621 19.615 9.57755 18.9304L8.11592 17.4688M6.52977 15.8827L2.96094 21.0376L8.11592 17.4688M6.52977 15.8827L8.11592 17.4688" stroke="#292556" stroke-width="1.5" stroke-linejoin="round"/>
</svg>
