<svg width="24" height="24" viewBox="0 0 24 24" fill="none" xmlns="http://www.w3.org/2000/svg">
<path d="M11.5 3H5.8C5.05005 3 4.67508 3 4.41221 3.19098C4.32732 3.25266 4.25266 3.32732 4.19098 3.41221C4 3.67508 4 4.05005 4 4.8V9.2C4 9.94995 4 10.3249 4.19098 10.5878C4.25266 10.6727 4.32732 10.7473 4.41221 10.809C4.67508 11 5.05005 11 5.8 11H10H11.5C13.7091 11 15.5 9.20914 15.5 7C15.5 4.79086 13.7091 3 11.5 3Z" fill="#292556" fill-opacity="0.18"/>
<path d="M4 21V11M4 11V4.8C4 4.05005 4 3.67508 4.19098 3.41221C4.25266 3.32732 4.32732 3.25266 4.41221 3.19098C4.67508 3 5.05005 3 5.8 3H11.5C13.7091 3 15.5 4.79086 15.5 7V7C15.5 9.20914 13.7091 11 11.5 11H10M4 11H10M10 11L16 17M20 21L16 17M16 17L20 13M16 17L12 21" stroke="#292556" stroke-width="1.5" stroke-linecap="round" stroke-linejoin="round"/>
</svg>
