<svg width="24" height="24" viewBox="0 0 24 24" fill="none" xmlns="http://www.w3.org/2000/svg">
<path d="M21 12C21 16.9706 16.9706 21 12 21C7.02944 21 3 16.9706 3 12C3 7.02944 7.02944 3 12 3C16.9706 3 21 7.02944 21 12Z" fill="#292556" fill-opacity="0.18"/>
<path fill-rule="evenodd" clip-rule="evenodd" d="M10.5 9.66274C10.5 8.91019 11.1433 8.25 12 8.25C12.8567 8.25 13.5 8.91019 13.5 9.66274C13.5 10.1205 13.2681 10.5368 12.8897 10.8001C12.8075 10.8573 12.7295 10.9002 12.6195 10.9606L12.6195 10.9606C12.5715 10.987 12.5173 11.0167 12.454 11.0525C12.2741 11.1542 12.035 11.2987 11.8241 11.5178C10.9837 12.3911 10.7487 13.7236 11.3571 14.8552C11.5532 15.22 12.008 15.3567 12.3728 15.1606C12.7377 14.9644 12.8744 14.5097 12.6782 14.1448C12.3925 13.6134 12.4951 12.9838 12.9049 12.558C12.9585 12.5022 13.0396 12.4446 13.1922 12.3583C13.2187 12.3434 13.2502 12.3261 13.2853 12.3068L13.2853 12.3068L13.2853 12.3068C13.4149 12.2358 13.5932 12.138 13.7465 12.0313C14.4974 11.5087 15 10.6474 15 9.66274C15 8.02639 13.6286 6.75 12 6.75C10.3714 6.75 9 8.02639 9 9.66274C9 10.0769 9.33579 10.4127 9.75 10.4127C10.1642 10.4127 10.5 10.0769 10.5 9.66274ZM12 17.5C12.4142 17.5 12.75 17.1642 12.75 16.75C12.75 16.3358 12.4142 16 12 16C11.5858 16 11.25 16.3358 11.25 16.75C11.25 17.1642 11.5858 17.5 12 17.5Z" fill="#292556"/>
<path d="M21 12C21 16.9706 16.9706 21 12 21C7.02944 21 3 16.9706 3 12C3 7.02944 7.02944 3 12 3C16.9706 3 21 7.02944 21 12Z" stroke="#292556" stroke-width="1.5" stroke-linejoin="round"/>
</svg>
