<svg width="24" height="24" viewBox="0 0 24 24" fill="none" xmlns="http://www.w3.org/2000/svg">
<path fill-rule="evenodd" clip-rule="evenodd" d="M11.0002 10.2675C11.5986 9.92282 12.3594 9.89741 13.0004 10.2675L16.499 4.20298C13.8067 2.6528 10.3843 2.54019 7.50036 4.20526L11.0002 10.2675ZM13.9996 11.9996C13.9998 12.3394 13.9143 12.6838 13.7321 12.9993C13.5498 13.3151 13.2942 13.5621 12.9994 13.7319L16.5022 19.794C19.1908 18.2375 20.9995 15.3299 20.9995 11.9998L13.9996 11.9996ZM11.0001 13.7322C10.3592 13.3621 10.0007 12.6906 9.99995 11.9999L3 12.0001C3 15.3302 4.80872 18.2378 7.49734 19.7943L11.0001 13.7322Z" fill="#292556" fill-opacity="0.18"/>
<path d="M11.0002 10.2675L7.50036 4.20526C10.3843 2.54019 13.8067 2.6528 16.499 4.20298L13.0004 10.2675M13.0004 10.2675C12.0438 9.71525 10.8203 10.0427 10.268 10.9993C9.71574 11.9559 10.0435 13.1799 11.0001 13.7322M13.0004 10.2675C13.957 10.8198 14.2844 12.0427 13.7321 12.9993C13.1798 13.9559 11.9567 14.2845 11.0001 13.7322M13.9996 11.9996L20.9995 11.9998C20.9995 15.3299 19.1908 18.2375 16.5022 19.794L12.9994 13.7319M9.99995 11.9999L3 12.0001C3 15.3302 4.80872 18.2378 7.49734 19.7943L11.0001 13.7322" stroke="#292556" stroke-width="1.5" stroke-linejoin="round"/>
</svg>
