<svg width="24" height="24" viewBox="0 0 24 24" fill="none" xmlns="http://www.w3.org/2000/svg">
<path fill-rule="evenodd" clip-rule="evenodd" d="M11.0721 6.89327H11.0721L7.08371 7.10085C5.68727 7.17354 4.59229 8.32699 4.59229 9.72532C4.59229 11.1332 5.70169 12.2909 7.10824 12.351L8.07531 12.3922L8.07536 12.3922C8.13721 12.3949 8.16814 12.3962 8.19776 12.4011C8.2809 12.4147 8.35925 12.4491 8.42552 12.5011C8.44914 12.5197 8.47104 12.5416 8.51484 12.5854L11.412 15.4825C11.4558 15.5263 11.4777 15.5482 11.4962 15.5718C11.5482 15.6381 11.5827 15.7164 11.5963 15.7996C11.6012 15.8292 11.6025 15.8602 11.6051 15.922L11.6464 16.8891C11.7064 18.2957 12.8642 19.4051 14.272 19.4051C15.6704 19.4051 16.8238 18.3101 16.8965 16.9136L17.1041 12.9252C17.1115 12.7836 17.1151 12.7127 17.1359 12.6495C17.1431 12.6273 17.1505 12.6091 17.1606 12.5882C17.1895 12.5282 17.2399 12.47 17.3407 12.3536L17.3407 12.3536C19.5909 9.7551 19.9527 6.31636 19.9953 4.79241C20.0037 4.49032 20.008 4.33927 19.9096 4.20228C19.8816 4.16329 19.8341 4.11575 19.7951 4.08776C19.6581 3.98939 19.507 3.99361 19.2049 4.00205C17.681 4.04461 14.2422 4.40643 11.6438 6.65668L11.6437 6.65669C11.5273 6.75749 11.4691 6.80789 11.4092 6.83678C11.3882 6.84689 11.37 6.85423 11.3479 6.86148C11.2846 6.88221 11.2138 6.8859 11.0721 6.89327ZM13.8447 11.9175C13.357 12.4052 12.5664 12.4052 12.0788 11.9175C11.5911 11.4299 11.5911 10.6392 12.0788 10.1516C12.5664 9.66395 13.357 9.66395 13.8447 10.1516C14.3323 10.6392 14.3323 11.4299 13.8447 11.9175Z" fill="#292556" fill-opacity="0.18"/>
<path d="M19.2049 4.0049C17.681 4.04746 14.2422 4.40928 11.6438 6.65953L11.6437 6.65954C11.5273 6.76034 11.4691 6.81074 11.4092 6.83963C11.3882 6.84974 11.37 6.85708 11.3479 6.86433C11.2846 6.88506 11.2138 6.88875 11.0721 6.89612H11.0721L7.08371 7.1037C5.68727 7.17638 4.59229 8.32984 4.59229 9.72817C4.59229 11.136 5.70169 12.2938 7.10824 12.3538L8.07531 12.3951L8.07536 12.3951C8.13721 12.3977 8.16814 12.399 8.19776 12.4039C8.2809 12.4175 8.35925 12.452 8.42553 12.504C8.44914 12.5225 8.47104 12.5444 8.51484 12.5882L11.412 15.4854C11.4558 15.5292 11.4777 15.5511 11.4962 15.5747C11.5482 15.641 11.5827 15.7193 11.5963 15.8024C11.6012 15.8321 11.6025 15.863 11.6051 15.9249L11.6464 16.892C11.7064 18.2985 12.8642 19.4079 14.272 19.4079C15.6704 19.4079 16.8238 18.3129 16.8965 16.9165L17.1041 12.9281C17.1115 12.7864 17.1151 12.7156 17.1359 12.6523C17.1431 12.6302 17.1505 12.612 17.1606 12.591C17.1895 12.531 17.2399 12.4728 17.3407 12.3564L17.3407 12.3564C19.5909 9.75795 19.9527 6.31921 19.9953 4.79526C20.0037 4.49317 20.008 4.34212 19.9096 4.20513C19.8816 4.16614 19.8341 4.1186 19.7951 4.09061C19.6581 3.99224 19.507 3.99646 19.2049 4.0049Z" stroke="#292556" stroke-width="1.5" stroke-linejoin="round"/>
<path d="M4.00001 19.2831C4.00033 19.5319 4.00049 19.6563 4.09585 19.7875C4.1211 19.8223 4.17154 19.8727 4.20628 19.898C4.33746 19.9933 4.46186 19.9935 4.71067 19.9938C5.55794 19.9949 7.02351 19.8349 8.01883 18.8396C8.06919 18.7892 8.11853 18.7365 8.16671 18.6819C8.82013 17.9409 8.53923 16.8517 7.84067 16.1531V16.1531C7.14211 15.4546 6.05288 15.1737 5.31191 15.8271C5.25728 15.8753 5.20459 15.9246 5.15423 15.975C4.15892 16.9703 3.99891 18.4359 4.00001 19.2831Z" stroke="#292556" stroke-width="1.5" stroke-linejoin="round"/>
<path d="M12.0788 11.9145C12.5665 12.4022 13.3571 12.4022 13.8447 11.9145V11.9145C14.3324 11.4269 14.3324 10.6362 13.8447 10.1486V10.1486C13.3571 9.66094 12.5665 9.66094 12.0788 10.1486V10.1486C11.5912 10.6362 11.5912 11.4269 12.0788 11.9145V11.9145Z" stroke="#292556" stroke-width="1.5" stroke-linejoin="round"/>
</svg>
