<svg width="24" height="24" viewBox="0 0 24 24" fill="none" xmlns="http://www.w3.org/2000/svg">
<path d="M5.28553 18.7206C3.96379 17.3988 3.30291 16.7379 3.09486 15.9615C2.95857 15.4528 2.95857 14.9172 3.09486 14.4086C3.30291 13.6321 3.96379 12.9712 5.28553 11.6495L11.6495 5.28553C12.9712 3.96379 13.6321 3.30291 14.4086 3.09486C14.9172 2.95857 15.4528 2.95857 15.9615 3.09486C16.7379 3.30291 17.3988 3.96379 18.7206 5.28553L20.4821 7.04705C21.4618 8.02681 21.4618 9.61532 20.4821 10.5951V10.5951L10.594 20.4831V20.4831C9.61484 21.4623 8.02729 21.4623 7.04812 20.4831L5.28553 18.7206Z" fill="#292556" fill-opacity="0.18"/>
<path d="M10.594 20.4831L7.0589 16.948M10.594 20.4831V20.4831C9.61484 21.4623 8.02729 21.4623 7.04812 20.4831L5.28553 18.7206C3.96379 17.3988 3.30291 16.7379 3.09486 15.9615C2.95857 15.4528 2.95857 14.9172 3.09486 14.4086C3.30291 13.6321 3.96379 12.9712 5.28553 11.6495L11.6495 5.28553C12.9712 3.96379 13.6321 3.30291 14.4086 3.09486C14.9172 2.95857 15.4528 2.95857 15.9615 3.09486C16.7379 3.30291 17.3988 3.96379 18.7206 5.28553L20.4821 7.04705C21.4618 8.02681 21.4618 9.61532 20.4821 10.5951V10.5951M10.594 20.4831L20.4821 10.5951M13.0707 18.0065L10.9438 15.8889M18.0101 13.0671L15.8879 10.9449M20.4821 10.5951L16.9464 7.05898M15.538 15.5391L12.0016 12.0027" stroke="#292556" stroke-width="1.5" stroke-linecap="round" stroke-linejoin="round"/>
</svg>
