<svg width="24" height="24" viewBox="0 0 24 24" fill="none" xmlns="http://www.w3.org/2000/svg">
<path d="M9.09658 6.97154C6.70716 6.31815 4.8099 6.45322 4.20554 7.5C3.60118 8.54678 4.43284 10.2574 6.19342 12C6.86464 11.3356 7.67088 10.6666 8.58405 10.0279C8.68056 8.91777 8.85683 7.88503 9.09658 6.97154Z" fill="#292556" fill-opacity="0.18"/>
<path d="M9.09656 17.0284C9.72541 19.4244 10.791 21 11.9998 21C13.2085 21 14.2741 19.4245 14.9029 17.0285C13.9919 16.7793 13.0094 16.4156 11.9997 15.9441C10.99 16.4156 10.0075 16.7793 9.09656 17.0284Z" fill="#292556" fill-opacity="0.18"/>
<path d="M14.9029 17.0285C17.2924 17.6819 19.1896 17.5468 19.794 16.5C20.3983 15.4532 19.5667 13.7426 17.8061 12C17.1349 12.6644 16.3287 13.3334 15.4155 13.972C15.319 15.0822 15.1427 16.115 14.9029 17.0285Z" fill="#292556" fill-opacity="0.18"/>
<path d="M17.8061 12C19.5668 10.2574 20.3986 8.54666 19.7942 7.49984C19.1898 6.45303 17.2925 6.31798 14.9029 6.97145C15.1427 7.88496 15.319 8.91774 15.4155 10.0279C16.3287 10.6666 17.1349 11.3356 17.8061 12Z" fill="#292556" fill-opacity="0.18"/>
<path d="M14.9029 6.97145C14.2741 4.5755 13.2085 3 11.9998 3C10.791 3 9.72544 4.57555 9.09658 6.97154C10.0075 7.22065 10.99 7.58435 11.9997 8.05584C13.0094 7.58432 13.9919 7.22058 14.9029 6.97145Z" fill="#292556" fill-opacity="0.18"/>
<path d="M15.4998 12C15.4998 11.3226 15.4707 10.6626 15.4155 10.0279C14.8934 9.66282 14.3364 9.30763 13.7498 8.96891C13.1631 8.63018 12.5769 8.32539 11.9997 8.05584C11.4226 8.32535 10.8366 8.63008 10.25 8.96875C9.66321 9.30752 9.10615 9.66275 8.58405 10.0279C8.52887 10.6626 8.49977 11.3226 8.49977 12C8.49977 12.6774 8.52887 13.3374 8.58405 13.9721C9.10609 14.3372 9.66308 14.6924 10.2498 15.0311C10.8364 15.3698 11.4225 15.6746 11.9997 15.9441C12.577 15.6745 13.1632 15.3697 13.75 15.0309C14.3366 14.6923 14.8935 14.3371 15.4155 13.972C15.4707 13.3374 15.4998 12.6774 15.4998 12Z" fill="#292556" fill-opacity="0.18"/>
<path d="M6.19342 12C4.43298 13.7426 3.6014 15.4531 4.20574 16.4998C4.81008 17.5466 6.70724 17.6817 9.09656 17.0284C8.85682 16.1149 8.68056 15.0822 8.58405 13.9721C7.67089 13.3334 6.86465 12.6644 6.19342 12Z" fill="#292556" fill-opacity="0.18"/>
<path fill-rule="evenodd" clip-rule="evenodd" d="M17.8061 12C17.1349 12.6644 16.3287 13.3334 15.4155 13.972C15.4707 13.3374 15.4998 12.6774 15.4998 12C15.4998 11.3226 15.4707 10.6626 15.4155 10.0279C16.3287 10.6666 17.1349 11.3356 17.8061 12Z" fill="#292556" fill-opacity="0.18"/>
<path d="M15.4155 13.972C14.8935 14.3371 14.3366 14.6923 13.75 15.0309C13.1632 15.3697 12.577 15.6745 11.9997 15.9441C13.0094 16.4156 13.9919 16.7793 14.9029 17.0285C15.1427 16.115 15.319 15.0822 15.4155 13.972Z" fill="#292556" fill-opacity="0.18"/>
<path d="M11.9997 15.9441C11.4225 15.6746 10.8364 15.3698 10.2498 15.0311C9.66308 14.6924 9.10609 14.3372 8.58405 13.9721C8.68056 15.0822 8.85682 16.1149 9.09656 17.0284C10.0075 16.7793 10.99 16.4156 11.9997 15.9441Z" fill="#292556" fill-opacity="0.18"/>
<path d="M8.58405 13.9721C8.52887 13.3374 8.49977 12.6774 8.49977 12C8.49977 11.3226 8.52887 10.6626 8.58405 10.0279C7.67088 10.6666 6.86464 11.3356 6.19342 12C6.86465 12.6644 7.67089 13.3334 8.58405 13.9721Z" fill="#292556" fill-opacity="0.18"/>
<path d="M11.9997 8.05584C12.5769 8.32539 13.1631 8.63018 13.7498 8.96891C14.3364 9.30763 14.8934 9.66282 15.4155 10.0279C15.319 8.91774 15.1427 7.88496 14.9029 6.97145C13.9919 7.22058 13.0094 7.58432 11.9997 8.05584Z" fill="#292556" fill-opacity="0.18"/>
<path d="M8.58405 10.0279C9.10615 9.66275 9.66321 9.30752 10.25 8.96875C10.8366 8.63008 11.4226 8.32535 11.9997 8.05584C10.99 7.58435 10.0075 7.22065 9.09658 6.97154C8.85683 7.88503 8.68056 8.91777 8.58405 10.0279Z" fill="#292556" fill-opacity="0.18"/>
<path d="M13 12C13 12.5523 12.5523 13 12 13C11.4477 13 11 12.5523 11 12C11 11.4477 11.4477 11 12 11C12.5523 11 13 11.4477 13 12Z" fill="#292556"/>
<path d="M15.4998 12C15.4998 7.02944 13.9328 3 11.9998 3C10.0668 3 8.49977 7.02944 8.49977 12C8.49977 16.9706 10.0668 21 11.9998 21C13.9328 21 15.4998 16.9706 15.4998 12Z" stroke="#292556" stroke-width="1.5" stroke-linejoin="round"/>
<path d="M10.2498 15.0311C5.94513 12.5458 3.23904 9.17403 4.20554 7.5C5.17204 5.82598 9.44513 6.48363 13.7498 8.96891C18.0544 11.4542 20.7605 14.826 19.794 16.5C18.8275 18.174 14.5544 17.5164 10.2498 15.0311Z" stroke="#292556" stroke-width="1.5" stroke-linejoin="round"/>
<path d="M13.75 15.0309C18.0546 12.5456 20.7607 9.17386 19.7942 7.49984C18.8277 5.82582 14.5546 6.48347 10.25 8.96875C5.94534 11.454 3.23924 14.8258 4.20574 16.4998C5.17224 18.1739 9.44534 17.5162 13.75 15.0309Z" stroke="#292556" stroke-width="1.5" stroke-linejoin="round"/>
</svg>
