<svg width="24" height="24" viewBox="0 0 24 24" fill="none" xmlns="http://www.w3.org/2000/svg">
<path fill-rule="evenodd" clip-rule="evenodd" d="M11.499 20C6.80514 20 3 16.1944 3 11.5C3 6.80558 6.80514 3 11.499 3C16.1929 3 19.998 6.80558 19.998 11.5C19.998 13.8468 19.0471 15.9714 17.5096 17.5095C15.9715 19.0482 13.8464 20 11.499 20ZM8.5376 12.5L10.1418 9L11.7459 12.5H8.5376Z" fill="#292556" fill-opacity="0.18"/>
<path d="M21 20.9997L17.5096 17.5095M17.5096 17.5095C19.0471 15.9714 19.998 13.8468 19.998 11.5C19.998 6.80558 16.1929 3 11.499 3C6.80514 3 3 6.80558 3 11.5C3 16.1944 6.80514 20 11.499 20C13.8464 20 15.9715 19.0482 17.5096 17.5095ZM15.1418 9V14M8.5376 12.5L10.1418 9L11.7459 12.5M8.5376 12.5L7.8501 14M8.5376 12.5H11.7459M12.4334 14L11.7459 12.5" stroke="#292556" stroke-width="1.5" stroke-linecap="round" stroke-linejoin="round"/>
</svg>
