<svg width="24" height="24" viewBox="0 0 24 24" fill="none" xmlns="http://www.w3.org/2000/svg">
<path fill-rule="evenodd" clip-rule="evenodd" d="M10.2 3H13.8C16.7998 3 18.2997 3 19.3511 3.76393C19.6907 4.01065 19.9893 4.30928 20.2361 4.64886C21 5.70032 21 7.20021 21 10.2V13.8C21 16.7998 21 18.2997 20.2361 19.3511C19.9893 19.6907 19.6907 19.9893 19.3511 20.2361C18.2997 21 16.7998 21 13.8 21H10.2C7.20021 21 5.70032 21 4.64886 20.2361C4.30928 19.9893 4.01065 19.6907 3.76393 19.3511C3 18.2997 3 16.7998 3 13.8V10.2C3 7.20021 3 5.70032 3.76393 4.64886C4.01065 4.30928 4.30928 4.01065 4.64886 3.76393C5.70032 3 7.20021 3 10.2 3ZM17.699 10.5743C17.6297 10.95 17.2564 11.2388 16.5099 11.8164L13.8004 13.9131C13.2445 14.3432 12.9666 14.5583 12.7341 14.5031C12.6615 14.4858 12.5936 14.4525 12.5356 14.4057C12.3496 14.2556 12.3496 13.9042 12.3496 13.2013V12.2667C9.94688 12.4553 8.06446 14.2288 8.0639 16.8929V17.0364C8.0639 17.6675 7.3846 17.9019 7.11295 17.3322C6.68959 16.4444 6.34959 15.456 6.34961 14.5714C6.34971 10.892 9.01295 8.75329 12.3496 8.53571V7.58442C12.3496 6.88156 12.3496 6.53013 12.5356 6.38003C12.5936 6.33317 12.6615 6.29989 12.7341 6.28265C12.9666 6.22743 13.2445 6.4425 13.8004 6.87263L16.5099 8.96929C17.2564 9.54694 17.6297 9.83576 17.699 10.2114C17.7211 10.3314 17.7211 10.4543 17.699 10.5743Z" fill="#292556" fill-opacity="0.18"/>
<path d="M16.5099 11.8164C17.2564 11.2388 17.6297 10.95 17.699 10.5743C17.7211 10.4543 17.7211 10.3314 17.699 10.2114C17.6297 9.83576 17.2564 9.54694 16.5099 8.96929L13.8004 6.87263C13.2445 6.4425 12.9666 6.22743 12.7341 6.28265C12.6615 6.29989 12.5936 6.33317 12.5356 6.38003C12.3496 6.53013 12.3496 6.88156 12.3496 7.58442V8.53571C9.01295 8.75329 6.34971 10.892 6.34961 14.5714C6.34959 15.456 6.68959 16.4444 7.11295 17.3322V17.3322C7.3846 17.9019 8.0639 17.6675 8.0639 17.0364V16.8929C8.06446 14.2288 9.94688 12.4553 12.3496 12.2667V13.2013C12.3496 13.9042 12.3496 14.2556 12.5356 14.4057C12.5936 14.4525 12.6615 14.4858 12.7341 14.5031C12.9666 14.5583 13.2445 14.3432 13.8004 13.9131L16.5099 11.8164Z" stroke="#292556" stroke-width="1.5" stroke-linecap="round" stroke-linejoin="round"/>
<path d="M13.8 3H10.2C7.20021 3 5.70032 3 4.64886 3.76393C4.30928 4.01065 4.01065 4.30928 3.76393 4.64886C3 5.70032 3 7.20021 3 10.2V13.8C3 16.7998 3 18.2997 3.76393 19.3511C4.01065 19.6907 4.30928 19.9893 4.64886 20.2361C5.70032 21 7.20021 21 10.2 21H13.8C16.7998 21 18.2997 21 19.3511 20.2361C19.6907 19.9893 19.9893 19.6907 20.2361 19.3511C21 18.2997 21 16.7998 21 13.8V10.2C21 7.20021 21 5.70032 20.2361 4.64886C19.9893 4.30928 19.6907 4.01065 19.3511 3.76393C18.2997 3 16.7998 3 13.8 3Z" stroke="#292556" stroke-width="1.5" stroke-linecap="round" stroke-linejoin="round"/>
</svg>
