<svg width="24" height="24" viewBox="0 0 24 24" fill="none" xmlns="http://www.w3.org/2000/svg">
<path fill-rule="evenodd" clip-rule="evenodd" d="M20.5144 11.1226C19.3845 16.4507 16.5463 21.4998 11.9998 21.4998C7.45334 21.4998 4.61516 16.4507 3.48529 11.1227C3.22215 9.88177 3.09058 9.26133 3.3101 8.52784C3.37434 8.31317 3.49672 8.03595 3.61206 7.84384C4.00613 7.18741 4.64331 6.81376 5.91767 6.06645L5.91767 6.06645L9.2682 4.10163C10.4492 3.40909 11.0397 3.06282 11.6822 2.9944C11.8934 2.97192 12.1063 2.97192 12.3175 2.9944C12.96 3.06282 13.5505 3.40909 14.7315 4.10163L18.082 6.06645C19.3563 6.81376 19.9935 7.18741 20.3876 7.84384C20.5029 8.03595 20.6253 8.31317 20.6896 8.52784C20.9091 9.26132 20.7775 9.88175 20.5144 11.1226L20.5144 11.1226L20.5144 11.1226ZM13.9443 9.9442V10.4998H15.4998V12.4998C15.4998 13.9042 15.4998 14.6064 15.1628 15.1109C15.0169 15.3293 14.8293 15.5168 14.611 15.6627C14.1065 15.9998 13.4043 15.9998 11.9998 15.9998C10.5954 15.9998 9.89314 15.9998 9.38869 15.6627C9.17031 15.5168 8.98281 15.3293 8.83689 15.1109C8.49983 14.6064 8.49983 13.9042 8.49983 12.4998V10.4998H10.0554V9.9442C10.0554 8.87031 10.9259 7.99975 11.9998 7.99975C13.0737 7.99975 13.9443 8.87031 13.9443 9.9442Z" fill="#292556" fill-opacity="0.18"/>
<path d="M12 21.5C16.5465 21.5 19.3847 16.451 20.5145 11.1229L20.5145 11.1229C20.7777 9.88201 20.9092 9.26157 20.6897 8.52808C20.6255 8.31342 20.5031 8.0362 20.3878 7.84409C19.9937 7.18766 19.3565 6.81401 18.0822 6.0667L14.7316 4.10188C13.5507 3.40933 12.9602 3.06306 12.3176 2.99465C12.1065 2.97216 11.8935 2.97216 11.6824 2.99465C11.0398 3.06306 10.4493 3.40933 9.26837 4.10188L5.91784 6.0667L5.91784 6.0667C4.64348 6.81401 4.00631 7.18766 3.61223 7.84409C3.49689 8.0362 3.37452 8.31342 3.31027 8.52808C3.09076 9.26157 3.22233 9.88201 3.48547 11.1229C4.61533 16.451 7.45351 21.5 12 21.5Z" stroke="#292556" stroke-width="1.5" stroke-linecap="round" stroke-linejoin="round"/>
<path d="M13.9444 10.5V9.94444C13.9444 8.87056 13.0739 8 12 8V8C10.9261 8 10.0556 8.87056 10.0556 9.94444V10.5M11.25 16H12.75C13.4478 16 13.7967 16 14.0806 15.9139C14.7198 15.72 15.22 15.2198 15.4139 14.5806C15.5 14.2967 15.5 13.9478 15.5 13.25V13.25C15.5 12.5522 15.5 12.2033 15.4139 11.9194C15.22 11.2802 14.7198 10.78 14.0806 10.5861C13.7967 10.5 13.4478 10.5 12.75 10.5H11.25C10.5522 10.5 10.2033 10.5 9.91943 10.5861C9.28023 10.78 8.78002 11.2802 8.58612 11.9194C8.5 12.2033 8.5 12.5522 8.5 13.25V13.25C8.5 13.9478 8.5 14.2967 8.58612 14.5806C8.78002 15.2198 9.28023 15.72 9.91943 15.9139C10.2033 16 10.5522 16 11.25 16Z" stroke="#292556" stroke-width="1.5" stroke-linecap="round" stroke-linejoin="round"/>
</svg>
