<svg width="24" height="24" viewBox="0 0 24 24" fill="none" xmlns="http://www.w3.org/2000/svg">
<path fill-rule="evenodd" clip-rule="evenodd" d="M11.55 3H12.45C16.0122 3 17.7934 3 19.042 3.90717C19.4452 4.20015 19.7999 4.55477 20.0928 4.95802C21 6.20663 21 7.98775 21 11.55V12.45C21 16.0122 21 17.7934 20.0928 19.042C19.7999 19.4452 19.4452 19.7999 19.042 20.0928C17.7934 21 16.0122 21 12.45 21H11.55C7.98775 21 6.20663 21 4.95802 20.0928C4.55477 19.7999 4.20015 19.4452 3.90717 19.042C3 17.7934 3 16.0122 3 12.45V11.55C3 7.98775 3 6.20663 3.90717 4.95802C4.20015 4.55477 4.55477 4.20015 4.95802 3.90717C6.20663 3 7.98775 3 11.55 3ZM8.61539 10.4557L7.40409 10.2627C6.89134 10.181 6.40042 10.5022 6.26995 11.0047C6.12373 11.568 6.48349 12.1377 7.05489 12.2477L8.5 12.526C8.52797 14.9639 7.03631 15.5 5.5 15.5C6.48932 17.4176 8.34864 17.5712 9.5 17.5C11 18.8392 13 18.8384 14.5 17.5C15.6403 17.5688 17.4782 17.4105 18.5 15.5C16.9637 15.5 15.472 14.9639 15.5 12.526L16.9451 12.2477C17.5165 12.1377 17.8763 11.568 17.73 11.0047C17.5996 10.5022 17.1087 10.181 16.5959 10.2627L15.3846 10.4557L15.3845 8.67292C15.3845 6.92057 13.8691 5.5 11.9998 5.5C10.1306 5.5 8.61523 6.92057 8.61523 8.67292L8.61539 10.4557Z" fill="#292556" fill-opacity="0.18"/>
<path d="M3 10.2C3 7.20021 3 5.70032 3.76393 4.64886C4.01065 4.30928 4.30928 4.01065 4.64886 3.76393C5.70032 3 7.20021 3 10.2 3H13.8C16.7998 3 18.2997 3 19.3511 3.76393C19.6907 4.01065 19.9893 4.30928 20.2361 4.64886C21 5.70032 21 7.20021 21 10.2V13.8C21 16.7998 21 18.2997 20.2361 19.3511C19.9893 19.6907 19.6907 19.9893 19.3511 20.2361C18.2997 21 16.7998 21 13.8 21H10.2C7.20021 21 5.70032 21 4.64886 20.2361C4.30928 19.9893 4.01065 19.6907 3.76393 19.3511C3 18.2997 3 16.7998 3 13.8V10.2Z" stroke="#292556" stroke-width="1.5" stroke-linecap="round" stroke-linejoin="round"/>
<path d="M7.40409 10.2627L8.61539 10.4557L8.61523 8.67292C8.61523 6.92057 10.1306 5.5 11.9998 5.5C13.8691 5.5 15.3845 6.92057 15.3845 8.67292L15.3846 10.4557L16.5959 10.2627C17.1087 10.181 17.5996 10.5022 17.73 11.0047C17.8763 11.568 17.5165 12.1377 16.9451 12.2477L15.5 12.526C15.472 14.9639 16.9637 15.5 18.5 15.5C17.4782 17.4105 15.6403 17.5688 14.5 17.5C13 18.8384 11 18.8392 9.5 17.5C8.34864 17.5712 6.48932 17.4176 5.5 15.5C7.03631 15.5 8.52797 14.9639 8.5 12.526L7.05489 12.2477C6.48349 12.1377 6.12373 11.568 6.26995 11.0047C6.40042 10.5022 6.89134 10.181 7.40409 10.2627Z" stroke="#292556" stroke-width="1.5" stroke-linecap="round" stroke-linejoin="round"/>
</svg>
