<svg width="24" height="24" viewBox="0 0 24 24" fill="none" xmlns="http://www.w3.org/2000/svg">
<path d="M11.9971 16.2417L17.6408 10.598L15.518 8.48228L13.4002 6.35742L7.75652 12.0011C6.58552 13.1721 6.58552 15.0707 7.75652 16.2417C8.92752 17.4127 10.8261 17.4127 11.9971 16.2417Z" fill="#292556" fill-opacity="0.18"/>
<path d="M17.6406 10.5979L11.9969 16.2416C10.8259 17.4126 8.92732 17.4126 7.75632 16.2416V16.2416C6.58532 15.0706 6.58532 13.172 7.75632 12.001L13.4 6.35732M17.6406 10.5979L19.4348 12.3913M17.6406 10.5979L15.5178 8.48218M13.4 6.35732L11.6087 4.56522M13.4 6.35732L15.5178 8.48218M15.5178 8.48218L19.4348 4.56522M19.4348 4.56522L17.8696 3M19.4348 4.56522L21 6.13043M6.6967 15.182L5.98959 15.8891C5.4038 16.4749 5.4038 17.4246 5.98959 18.0104V18.0104M8.81802 17.3033L8.11091 18.0104C7.52512 18.5962 6.57538 18.5962 5.98959 18.0104V18.0104M5.98959 18.0104L3 21" stroke="#292556" stroke-width="1.5" stroke-linecap="round" stroke-linejoin="round"/>
</svg>
