<svg width="24" height="24" viewBox="0 0 24 24" fill="none" xmlns="http://www.w3.org/2000/svg">
<path fill-rule="evenodd" clip-rule="evenodd" d="M18.1151 12.9615L12.1984 18.8783C11.1378 19.9389 10.6075 20.4691 9.96567 20.5708C9.75838 20.6036 9.54721 20.6036 9.33993 20.5708C8.69809 20.4691 8.1678 19.9389 7.10721 18.8783L5.12731 16.8984L5.12731 16.8984C4.06673 15.8378 3.53644 15.3075 3.43478 14.6657C3.40195 14.4584 3.40195 14.2472 3.43478 14.0399C3.53644 13.3981 4.06673 12.8678 5.12731 11.8072L5.12731 11.8072L11.0441 5.89046C11.3661 5.56838 11.5272 5.40733 11.717 5.28778C11.7801 5.24808 11.8453 5.21194 11.9124 5.17952C12.1144 5.08187 12.3363 5.03066 12.7801 4.92824L15.354 4.33427C17.5737 3.82202 18.6836 3.5659 19.3992 4.03774C19.6253 4.18683 19.8187 4.38031 19.9678 4.60642C20.4397 5.32197 20.1836 6.43183 19.6713 8.65157L19.0773 11.2254L19.0773 11.2255C18.9749 11.6693 18.9237 11.8912 18.8261 12.0932C18.7936 12.1603 18.7575 12.2255 18.7178 12.2885C18.5982 12.4784 18.4372 12.6394 18.1151 12.9615ZM16.076 10.045C15.4903 10.6308 14.5405 10.6308 13.9547 10.045C13.3689 9.45925 13.3689 8.5095 13.9547 7.92371C14.5405 7.33793 15.4903 7.33793 16.076 7.92371C16.6618 8.5095 16.6618 9.45925 16.076 10.045Z" fill="#292556" fill-opacity="0.18"/>
<path d="M6.29289 13.5312C6.68342 13.1407 7.31658 13.1407 7.70711 13.5312C8.09763 13.9217 8.09763 14.5549 7.70711 14.9454C7.31658 15.3359 6.68342 15.3359 6.29289 14.9454C5.90237 14.5549 5.90237 13.9217 6.29289 13.5312Z" fill="#292556"/>
<path d="M11.5962 13.8847C11.9867 13.4942 12.6199 13.4942 13.0104 13.8847C13.4009 14.2753 13.4009 14.9084 13.0104 15.2989C12.6199 15.6895 11.9867 15.6895 11.5962 15.2989C11.2057 14.9084 11.2057 14.2753 11.5962 13.8847Z" fill="#292556"/>
<path d="M9.00476 12L10.2989 16.8296M16.0763 10.045C15.4905 10.6308 14.5408 10.6308 13.955 10.045C13.3692 9.45925 13.3692 8.5095 13.955 7.92371C14.5408 7.33793 15.4905 7.33793 16.0763 7.92371C16.6621 8.5095 16.6621 9.45925 16.0763 10.045ZM15.3543 4.33425L12.7804 4.92822C12.3366 5.03065 12.1147 5.08186 11.9127 5.1795C11.8456 5.21192 11.7804 5.24806 11.7174 5.28776C11.5275 5.40732 11.3664 5.56836 11.0444 5.89045L5.12762 11.8072C4.06703 12.8678 3.53674 13.3981 3.43508 14.0399C3.40225 14.2472 3.40225 14.4584 3.43508 14.6656C3.53674 15.3075 4.06703 15.8378 5.12762 16.8984L7.10751 18.8783C8.1681 19.9388 8.69839 20.4691 9.34023 20.5708C9.54752 20.6036 9.75868 20.6036 9.96597 20.5708C10.6078 20.4691 11.1381 19.9388 12.1987 18.8783L18.1154 12.9615C18.4375 12.6394 18.5986 12.4784 18.7181 12.2885C18.7578 12.2255 18.7939 12.1603 18.8264 12.0932C18.924 11.8912 18.9752 11.6693 19.0776 11.2254L19.6716 8.65156C20.1839 6.43182 20.44 5.32195 19.9681 4.6064C19.819 4.38029 19.6256 4.18682 19.3995 4.03772C18.6839 3.56588 17.574 3.82201 15.3543 4.33425Z" stroke="#292556" stroke-width="1.5" stroke-linecap="round" stroke-linejoin="round"/>
</svg>
