<svg width="24" height="24" viewBox="0 0 24 24" fill="none" xmlns="http://www.w3.org/2000/svg">
<path d="M16.0466 5.13294L15.9503 5.03668C15.4703 4.55666 15.2303 4.31666 14.9353 4.25666C14.8397 4.2372 14.7416 4.23186 14.6444 4.2408C14.3447 4.26837 14.08 4.48086 13.5507 4.90584L6.17685 10.8256C5.53147 11.3438 5.20877 11.6028 5.13174 11.9434C5.10697 12.0529 5.10082 12.1658 5.11353 12.2773C5.15308 12.6242 5.4457 12.9168 6.03092 13.5021L10.5059 17.977C11.0911 18.5622 11.3837 18.8549 11.7306 18.8944C11.8422 18.9071 11.955 18.901 12.0645 18.8762C12.4051 18.7992 12.6642 18.4765 13.1823 17.8311L19.1021 10.4573C19.5271 9.92793 19.7396 9.66325 19.7671 9.36352C19.7761 9.2663 19.7707 9.16829 19.7513 9.07262C19.6913 8.77766 19.4513 8.53765 18.9713 8.05764L18.875 7.96137L16.0466 5.13294Z" fill="#292556" fill-opacity="0.18"/>
<path d="M16.0467 5.13368L15.9505 5.03741C15.4705 4.5574 15.2305 4.31739 14.9355 4.2574C14.8398 4.23794 14.7418 4.23259 14.6446 4.24153C14.3449 4.2691 14.0802 4.48159 13.5508 4.90657L4.61151 12.0832M16.0467 5.13368L18.8752 7.9621M16.0467 5.13368L18.0326 3.57977C18.4963 3.21691 18.7282 3.03548 18.9856 2.99544C19.1278 2.97333 19.2731 2.98216 19.4115 3.02133C19.6622 3.09225 19.8704 3.30043 20.2867 3.71679V3.71679C20.7019 4.13201 20.9095 4.33962 20.9806 4.58968C21.0198 4.7278 21.0288 4.87275 21.007 5.01467C20.9676 5.27161 20.7873 5.50338 20.4268 5.9669L18.8752 7.9621M18.8752 7.9621L18.9714 8.05837C19.4515 8.53839 19.6915 8.77839 19.7515 9.07335C19.7709 9.16902 19.7763 9.26703 19.7673 9.36425C19.7398 9.66398 19.5273 9.92866 19.1023 10.458L11.9256 19.3973M4.61151 12.0832L11.9256 19.3973M4.61151 12.0832L4.21592 12.4008C3.57053 12.9189 3.24784 13.178 3.1708 13.5186C3.14604 13.6281 3.13988 13.7409 3.1526 13.8524C3.19214 14.1994 3.48476 14.492 4.06998 15.0772L8.93163 19.9389C9.51686 20.5241 9.80947 20.8167 10.1564 20.8563C10.2679 20.869 10.3808 20.8628 10.4903 20.8381C10.8309 20.761 11.0899 20.4383 11.6081 19.7929L11.9256 19.3973" stroke="#292556" stroke-width="1.5" stroke-linejoin="round"/>
</svg>
