<svg width="24" height="24" viewBox="0 0 24 24" fill="none" xmlns="http://www.w3.org/2000/svg">
<path d="M10 13C10 13.5523 9.55228 14 9 14V14C8.44772 14 8 13.5523 8 13V13C8 12.4477 8.44772 12 9 12V12C9.55228 12 10 12.4477 10 13V13Z" fill="#292556"/>
<path d="M16 13C16 13.5523 15.5523 14 15 14V14C14.4477 14 14 13.5523 14 13V13C14 12.4477 14.4477 12 15 12V12C15.5523 12 16 12.4477 16 13V13Z" fill="#292556"/>
<path fill-rule="evenodd" clip-rule="evenodd" d="M6 6.6C6 5.10011 6 4.35016 6.38197 3.82443C6.50533 3.65464 6.65464 3.50533 6.82443 3.38197C7.35016 3 8.10011 3 9.6 3H14.4C15.8999 3 16.6498 3 17.1756 3.38197C17.3454 3.50533 17.4947 3.65464 17.618 3.82443C18 4.35016 18 5.10011 18 6.6V12.4C18 13.8999 18 14.6498 17.618 15.1756C17.4947 15.3454 17.3454 15.4947 17.1756 15.618C16.6498 16 15.8999 16 14.4 16L9.6 16C8.10011 16 7.35016 16 6.82443 15.618C6.65464 15.4947 6.50533 15.3454 6.38197 15.1756C6 14.6498 6 13.8999 6 12.4V6.6ZM8.75 7.55C8.75 6.80005 8.75 6.42508 8.94098 6.16221C9.00266 6.07732 9.07732 6.00266 9.16221 5.94098C9.42508 5.75 9.80005 5.75 10.55 5.75H13.45C14.1999 5.75 14.5749 5.75 14.8378 5.94098C14.9227 6.00266 14.9973 6.07732 15.059 6.16221C15.25 6.42508 15.25 6.80005 15.25 7.55V8.2C15.25 8.94995 15.25 9.32492 15.059 9.58779C14.9973 9.67268 14.9227 9.74734 14.8378 9.80902C14.5749 10 14.1999 10 13.45 10H10.55C9.80005 10 9.42508 10 9.16221 9.80902C9.07732 9.74734 9.00266 9.67268 8.94098 9.58779C8.75 9.32492 8.75 8.94995 8.75 8.2V7.55Z" fill="#292556" fill-opacity="0.18"/>
<path d="M7 21L8 18.5M8 18.5L9 16M8 18.5H16M15 16L16 18.5M16 18.5L17 21M14.35 10H9.65C9.27503 10 9.08754 10 8.95611 9.90451C8.91366 9.87367 8.87633 9.83634 8.84549 9.79389C8.75 9.66246 8.75 9.47497 8.75 9.1V6.65C8.75 6.27503 8.75 6.08754 8.84549 5.95611C8.87633 5.91366 8.91366 5.87633 8.95611 5.84549C9.08754 5.75 9.27503 5.75 9.65 5.75H14.35C14.725 5.75 14.9125 5.75 15.0439 5.84549C15.0863 5.87633 15.1237 5.91366 15.1545 5.95611C15.25 6.08754 15.25 6.27503 15.25 6.65V9.1C15.25 9.47497 15.25 9.66246 15.1545 9.79389C15.1237 9.83634 15.0863 9.87367 15.0439 9.90451C14.9125 10 14.725 10 14.35 10ZM14.4 16L9.6 16C8.10011 16 7.35016 16 6.82443 15.618C6.65464 15.4947 6.50533 15.3454 6.38197 15.1756C6 14.6498 6 13.8999 6 12.4V6.6C6 5.10011 6 4.35016 6.38197 3.82443C6.50533 3.65464 6.65464 3.50533 6.82443 3.38197C7.35016 3 8.10011 3 9.6 3H14.4C15.8999 3 16.6498 3 17.1756 3.38197C17.3454 3.50533 17.4947 3.65464 17.618 3.82443C18 4.35016 18 5.10011 18 6.6V12.4C18 13.8999 18 14.6498 17.618 15.1756C17.4947 15.3454 17.3454 15.4947 17.1756 15.618C16.6498 16 15.8999 16 14.4 16Z" stroke="#292556" stroke-width="1.5" stroke-linecap="round" stroke-linejoin="round"/>
</svg>
