<svg width="24" height="24" viewBox="0 0 24 24" fill="none" xmlns="http://www.w3.org/2000/svg">
<path fill-rule="evenodd" clip-rule="evenodd" d="M6.6 5C5.10011 5 4.35016 5 3.82443 5.38197C3.65464 5.50533 3.50533 5.65464 3.38197 5.82443C3 6.35016 3 7.10011 3 8.6V15C3 16.1046 3.89543 17 5 17V17C5 15.8954 5.89543 15 7 15C8.10457 15 9 15.8954 9 17H15C15 15.8954 15.8954 15 17 15C18.1046 15 19 15.8954 19 17V17C20.1046 17 21 16.1046 21 15V12.8498C21 12.474 21 12.2861 20.9657 12.1033C20.9543 12.0426 20.9401 11.9824 20.9231 11.9229C20.872 11.7441 20.788 11.576 20.6199 11.2399L19.495 8.99003C19.066 8.13192 18.8514 7.70286 18.4969 7.42529C18.3806 7.33419 18.2545 7.25626 18.121 7.19294C17.7142 7 17.2345 7 16.2751 7H13V7C13 5.89543 12.1046 5 11 5H6.6ZM17 9.5H15.5V12H18.25L17 9.5Z" fill="#292556" fill-opacity="0.18"/>
<path d="M9 17C9 18.1046 8.10457 19 7 19C5.89543 19 5 18.1046 5 17M9 17C9 15.8954 8.10457 15 7 15C5.89543 15 5 15.8954 5 17M9 17H15M5 17V17C3.89543 17 3 16.1046 3 15V8.6C3 7.10011 3 6.35016 3.38197 5.82443C3.50533 5.65464 3.65464 5.50533 3.82443 5.38197C4.35016 5 5.10011 5 6.6 5H9.4C10.8999 5 11.6498 5 12.1756 5.38197C12.3454 5.50533 12.4947 5.65464 12.618 5.82443C13 6.35016 13 7.10011 13 8.6V10V10C13 9.06812 13 8.60218 13.1522 8.23463C13.3552 7.74458 13.7446 7.35523 14.2346 7.15224C14.6022 7 15.0681 7 16 7H16.3992C17.2371 7 17.6561 7 18.0193 7.14812C18.2251 7.23205 18.4154 7.3497 18.5825 7.49622C18.8774 7.75479 19.0648 8.12953 19.4395 8.87902L20.6199 11.2399C20.788 11.576 20.872 11.7441 20.9231 11.9229C20.9401 11.9824 20.9543 12.0426 20.9657 12.1033C21 12.2861 21 12.474 21 12.8498V15C21 16.1046 20.1046 17 19 17V17M19 17C19 18.1046 18.1046 19 17 19C15.8954 19 15 18.1046 15 17M19 17C19 15.8954 18.1046 15 17 15C15.8954 15 15 15.8954 15 17M15.5 9.5H17L18.25 12H15.5V9.5Z" stroke="#292556" stroke-width="1.5" stroke-linecap="round" stroke-linejoin="round"/>
</svg>
