<svg width="24" height="24" viewBox="0 0 24 24" fill="none" xmlns="http://www.w3.org/2000/svg">
<path fill-rule="evenodd" clip-rule="evenodd" d="M10.2 3H13.8C16.7998 3 18.2997 3 19.3511 3.76393C19.6907 4.01065 19.9893 4.30928 20.2361 4.64886C21 5.70032 21 7.20021 21 10.2V13.8C21 16.7998 21 18.2997 20.2361 19.3511C19.9893 19.6907 19.6907 19.9893 19.3511 20.2361C18.2997 21 16.7998 21 13.8 21H10.2C7.20021 21 5.70032 21 4.64886 20.2361C4.30928 19.9893 4.01065 19.6907 3.76393 19.3511C3 18.2997 3 16.7998 3 13.8V10.2C3 7.20021 3 5.70032 3.76393 4.64886C4.01065 4.30928 4.30928 4.01065 4.64886 3.76393C5.70032 3 7.20021 3 10.2 3ZM15.9338 12.5307C15.784 12.7368 15.3772 12.7368 14.5636 12.7368H13.6662L13.1252 17.0084C13.0534 17.5754 12.5711 18.0005 11.9995 18.0005C11.428 18.0005 10.9457 17.5754 10.8739 17.0084L10.3329 12.7368H9.43549C8.62185 12.7368 8.21504 12.7368 8.06529 12.5307C8.01891 12.4669 7.9883 12.393 7.97596 12.3151C7.9361 12.0634 8.22377 11.7758 8.79909 11.2004L11.3631 8.6364C11.6283 8.37125 11.7609 8.23868 11.9213 8.21326C11.9731 8.20505 12.0259 8.20505 12.0778 8.21326C12.2382 8.23868 12.3708 8.37125 12.6359 8.63639L12.6359 8.6364L15.2 11.2004L15.2 11.2004C15.7753 11.7758 16.063 12.0634 16.0231 12.3151C16.0108 12.393 15.9802 12.4669 15.9338 12.5307Z" fill="#292556" fill-opacity="0.18"/>
<path d="M13.8 3H10.2C7.20021 3 5.70032 3 4.64886 3.76393C4.30928 4.01065 4.01065 4.30928 3.76393 4.64886C3 5.70032 3 7.20021 3 10.2V13.8C3 16.7998 3 18.2997 3.76393 19.3511C4.01065 19.6907 4.30928 19.9893 4.64886 20.2361C5.70032 21 7.20021 21 10.2 21H13.8C16.7998 21 18.2997 21 19.3511 20.2361C19.6907 19.9893 19.9893 19.6907 20.2361 19.3511C21 18.2997 21 16.7998 21 13.8V10.2C21 7.20021 21 5.70032 20.2361 4.64886C19.9893 4.30928 19.6907 4.01065 19.3511 3.76393C18.2997 3 16.7998 3 13.8 3Z" stroke="#292556" stroke-width="1.5" stroke-linecap="round" stroke-linejoin="round"/>
<path d="M17 6L7 6M13.6667 12.7368L14.564 12.7368C15.3777 12.7368 15.7845 12.7368 15.9342 12.5307C15.9806 12.4669 16.0112 12.393 16.0236 12.3151C16.0634 12.0634 15.7758 11.7758 15.2004 11.2004L12.6364 8.6364C12.3712 8.37125 12.2387 8.23868 12.0782 8.21326C12.0264 8.20506 11.9736 8.20506 11.9218 8.21326C11.7613 8.23868 11.6287 8.37125 11.3636 8.6364L8.79956 11.2004C8.22423 11.7758 7.93657 12.0634 7.97642 12.3151C7.98876 12.393 8.01938 12.4669 8.06576 12.5307C8.2155 12.7368 8.62232 12.7368 9.43595 12.7368L10.3333 12.7368L10.8743 17.0084C10.9462 17.5754 11.4285 18.0005 12 18.0005V18.0005C12.5715 18.0005 13.0538 17.5754 13.1256 17.0084L13.6667 12.7368Z" stroke="#292556" stroke-width="1.5" stroke-linecap="round" stroke-linejoin="round"/>
</svg>
