<svg width="24" height="24" viewBox="0 0 24 24" fill="none" xmlns="http://www.w3.org/2000/svg">
<path d="M11.4085 5.85719C12.5243 4.74142 14.3333 4.74142 15.4491 5.85719V5.85719L18.1428 8.55089V8.55089C19.2586 9.66666 19.2586 11.4757 18.1428 12.5914L12.1014 18.6329C10.9388 19.7955 10.3575 20.3768 9.68976 20.6011C9.06979 20.8094 8.39872 20.8094 7.77875 20.6011C7.11102 20.3768 6.52973 19.7955 5.36713 18.6329V18.6329C4.20453 17.4703 3.62323 16.889 3.39887 16.2212C3.19056 15.6013 3.19056 14.9302 3.39887 14.3102C3.62323 13.6425 4.20453 13.0612 5.36713 11.8986L11.4085 5.85719Z" fill="#292556" fill-opacity="0.18"/>
<path d="M15.4491 5.8572V5.8572C14.3333 4.74144 12.5243 4.74144 11.4085 5.8572L5.36713 11.8986C4.20453 13.0612 3.62323 13.6425 3.39887 14.3102C3.19056 14.9302 3.19056 15.6013 3.39887 16.2213C3.62323 16.889 4.20453 17.4703 5.36713 18.6329V18.6329C6.52973 19.7955 7.11102 20.3768 7.77875 20.6011C8.39872 20.8094 9.06979 20.8094 9.68976 20.6011C10.3575 20.3768 10.9388 19.7955 12.1014 18.6329L18.1428 12.5915C19.2586 11.4757 19.2586 9.66667 18.1428 8.55091V8.55091M15.4491 5.8572L17.0335 4.27279C17.5638 3.7425 17.8289 3.47735 18.1499 3.42653C18.2535 3.41011 18.3591 3.41011 18.4627 3.42653C18.7837 3.47735 19.0488 3.7425 19.5791 4.27279L19.7272 4.42091C20.2575 4.9512 20.5226 5.21635 20.5735 5.53727C20.5899 5.64091 20.5899 5.74649 20.5735 5.85014C20.5226 6.17106 20.2575 6.4362 19.7272 6.96649L18.1428 8.55091M15.4491 5.8572L18.1428 8.55091" stroke="#292556" stroke-width="1.5" stroke-linejoin="round"/>
<path d="M9.25 15.875C9.25 16.4963 8.74632 17 8.125 17C7.50368 17 7 16.4963 7 15.875C7 15.2537 7.50368 14.75 8.125 14.75C8.74632 14.75 9.25 15.2537 9.25 15.875Z" fill="#292556"/>
</svg>
