<svg width="24" height="24" viewBox="0 0 24 24" fill="none" xmlns="http://www.w3.org/2000/svg">
<path d="M13.5 16.5C13.5 18.433 15.0668 20 16.9996 20C17.9661 20 18.8412 19.6081 19.4745 18.9745C20.1076 18.3412 20.4992 17.4663 20.4992 16.5C20.4992 14.567 18.9323 13 16.9996 13C15.0668 13 13.5 14.567 13.5 16.5Z" fill="#292556" fill-opacity="0.18"/>
<path d="M19.4745 18.9745C20.1076 18.3412 20.4992 17.4663 20.4992 16.5C20.4992 14.567 18.9323 13 16.9996 13C15.0668 13 13.5 14.567 13.5 16.5C13.5 18.433 15.0668 20 16.9996 20C17.9661 20 18.8412 19.6081 19.4745 18.9745ZM19.4745 18.9745L21 20.5" stroke="#292556" stroke-width="1.5" stroke-linecap="round"/>
<path fill-rule="evenodd" clip-rule="evenodd" d="M10.9998 3C9.34293 3 7.99978 4.34315 7.99978 6C7.99978 7.65685 9.34293 9 10.9998 9C12.6566 9 13.9998 7.65685 13.9998 6C13.9998 4.34315 12.6566 3 10.9998 3ZM9.50955 12C6.76716 12 4.28199 13.615 3.16819 16.1211C2.14842 18.4156 3.82797 21 6.33887 21H13.2814C12.0358 19.9006 11.2501 18.292 11.2501 16.5C11.2501 14.7296 12.0169 13.1383 13.2364 12.0401C12.9903 12.0136 12.7413 12 12.49 12H9.50955Z" fill="#292556" fill-opacity="0.18"/>
<path fill-rule="evenodd" clip-rule="evenodd" d="M10.9997 2.25C8.92858 2.25 7.24965 3.92893 7.24965 6C7.24965 8.07107 8.92858 9.75 10.9997 9.75C13.0707 9.75 14.7497 8.07107 14.7497 6C14.7497 3.92893 13.0707 2.25 10.9997 2.25ZM8.74965 6C8.74965 4.75736 9.75701 3.75 10.9997 3.75C12.2423 3.75 13.2497 4.75736 13.2497 6C13.2497 7.24264 12.2423 8.25 10.9997 8.25C9.75701 8.25 8.74965 7.24264 8.74965 6ZM9.50942 11.25C6.47063 11.25 3.71687 13.0396 2.4827 15.8165C1.2425 18.6069 3.2851 21.75 6.33874 21.75H14.343C13.657 21.3694 13.0535 20.8582 12.566 20.25H6.33874C4.37058 20.25 3.05408 18.2242 3.85342 16.4257C4.84684 14.1905 7.06342 12.75 9.50942 12.75H12.4899C12.5151 12.75 12.5404 12.7502 12.5656 12.7505C12.9867 12.2251 13.4942 11.7721 14.0668 11.4131C13.5546 11.3058 13.0267 11.25 12.4899 11.25H9.50942Z" fill="#292556"/>
</svg>
