<svg width="24" height="24" viewBox="0 0 24 24" fill="none" xmlns="http://www.w3.org/2000/svg">
<path fill-rule="evenodd" clip-rule="evenodd" d="M16.9602 17.3567C17.095 17.19 17.1527 16.9704 17.2683 16.5313L18.2511 12.7967L19.9783 11.0695C20.5086 10.5392 20.7737 10.2741 20.8246 9.95316C20.841 9.84951 20.841 9.74393 20.8246 9.64029C20.7737 9.31937 20.5086 9.05422 19.9783 8.52393L15.5239 4.06952C14.9936 3.53922 14.7284 3.27408 14.4075 3.22325C14.3039 3.20683 14.1983 3.20683 14.0946 3.22325C13.7737 3.27408 13.5086 3.53922 12.9783 4.06952L11.2511 5.79672L7.51651 6.77951L7.51651 6.77951C7.0774 6.89506 6.85784 6.95284 6.69108 7.08764C6.63627 7.13194 6.5863 7.18191 6.54199 7.23672C6.4072 7.40348 6.34942 7.62304 6.23386 8.06215L4.12535 16.0745C3.5866 18.1218 3.31723 19.1454 3.74012 19.7953C3.8733 20 4.04784 20.1745 4.25251 20.3077C4.90244 20.7306 5.92605 20.4612 7.97328 19.9225L15.9857 17.8139C16.4248 17.6984 16.6443 17.6406 16.8111 17.5058C16.8659 17.4615 16.9159 17.4115 16.9602 17.3567ZM12.5008 11.5513C11.7759 10.8264 10.6007 10.8264 9.87579 11.5513C9.15092 12.2762 9.15092 13.4514 9.87579 14.1763C10.6007 14.9012 11.7759 14.9012 12.5008 14.1763C13.2257 13.4514 13.2257 12.2762 12.5008 11.5513Z" fill="#292556" fill-opacity="0.18"/>
<path d="M11.251 5.79687L7.5164 6.77966C7.07729 6.89521 6.85773 6.95299 6.69097 7.08779C6.63616 7.13209 6.58619 7.18206 6.54189 7.23687C6.40709 7.40363 6.34931 7.62319 6.23376 8.0623L4.12524 16.0747C3.58649 18.1219 3.31712 19.1455 3.74002 19.7954C3.87319 20.0001 4.04773 20.1747 4.2524 20.3078C4.90233 20.7307 5.92595 20.4614 7.97318 19.9226L15.9855 17.8141C16.4247 17.6985 16.6442 17.6408 16.811 17.506C16.8658 17.4617 16.9158 17.4117 16.9601 17.3569C17.0949 17.1901 17.1526 16.9706 17.2682 16.5314L18.251 12.7969M11.251 5.79687L18.251 12.7969M11.251 5.79687L12.9782 4.06967C13.5085 3.53938 13.7736 3.27423 14.0945 3.2234C14.1982 3.20698 14.3038 3.20698 14.4074 3.2234C14.7283 3.27423 14.9935 3.53937 15.5238 4.06967L19.9782 8.52408C20.5085 9.05438 20.7736 9.31952 20.8245 9.64044C20.8409 9.74408 20.8409 9.84967 20.8245 9.95331C20.7736 10.2742 20.5085 10.5394 19.9782 11.0697L18.251 12.7969" stroke="#292556" stroke-width="1.5" stroke-linecap="round" stroke-linejoin="round"/>
<path d="M9.87598 14.1765C9.1511 13.4516 9.1511 12.2763 9.87598 11.5515C10.6009 10.8266 11.7761 10.8266 12.501 11.5515C13.2259 12.2763 13.2259 13.4516 12.501 14.1765C11.7761 14.9013 10.6009 14.9013 9.87598 14.1765ZM9.87598 14.1765L7.25098 16.8015" stroke="#292556" stroke-width="1.5" stroke-linecap="round" stroke-linejoin="round"/>
</svg>
