<svg width="24" height="24" viewBox="0 0 24 24" fill="none" xmlns="http://www.w3.org/2000/svg">
<path d="M5.63604 18.364L5.63455 18.3625C2.12163 14.8479 2.12182 9.15128 5.6351 5.63698L5.63604 5.63604C9.15076 2.12132 14.8492 2.12132 18.364 5.63604C20.1217 7.39374 21.0003 9.69761 21 12.0014C20.9997 13.9882 20.3456 15.975 19.0377 17.6112C18.8296 17.8715 18.6051 18.1229 18.364 18.364C14.8492 21.8787 9.15076 21.8787 5.63604 18.364Z" fill="#292556" fill-opacity="0.18"/>
<path d="M3.05747 13.006C4.73872 10.2587 7.46246 8.3631 10.5757 7.70613M5.63455 18.3625L5.63604 18.364C9.15076 21.8787 14.8492 21.8787 18.364 18.364C18.6051 18.1229 18.8296 17.8715 19.0377 17.6112M5.63455 18.3625C2.12163 14.8479 2.12182 9.15128 5.6351 5.63698M5.63455 18.3625L5.6345 18.3649M5.63455 18.3625C5.67148 16.4469 6.28607 14.8491 7.36733 13.7338M5.6351 5.63698L5.63604 5.63604C9.15076 2.12132 14.8492 2.12132 18.364 5.63604C20.1217 7.39375 21.0003 9.69761 21 12.0014M5.6351 5.63698C7.56783 5.63711 9.1586 6.26158 10.2662 7.36921C10.374 7.47699 10.4772 7.58934 10.5757 7.70613M21 12.0014L21.0014 12M21 12.0014C19.6339 13.3669 18.0677 14.0501 16.5014 14.0507C14.9336 14.0514 13.3657 13.3682 11.9985 12.0009M21 12.0014C20.9997 13.9882 20.3456 15.975 19.0377 17.6112M11.9985 12.0009C10.0498 11.9639 8.46714 12.5993 7.36733 13.7338M11.9985 12.0009C11.9985 10.256 11.4896 8.78978 10.5757 7.70613M7.36733 13.7338C10.2756 17.1859 14.7813 18.6358 19.0377 17.6112M10.9928 3.05628C14.727 5.34151 16.8877 9.55276 16.5031 14.0502" stroke="#292556" stroke-width="1.5" stroke-linejoin="round"/>
</svg>
