<svg width="24" height="24" viewBox="0 0 24 24" fill="none" xmlns="http://www.w3.org/2000/svg">
<path fill-rule="evenodd" clip-rule="evenodd" d="M14.3933 6.83926C14.2978 6.14571 14.1163 5.68865 13.7711 5.4041C13.5435 5.21646 13.2772 5.08151 12.9912 5.0089C12.077 4.77675 10.9747 5.58511 8.77009 7.20182L6.99902 8.50062V14.2335L14.3933 6.83926ZM8.30772 16.4603L8.77014 16.7994C10.9747 18.4161 12.077 19.2244 12.9913 18.9922C13.2772 18.9196 13.5435 18.7847 13.7711 18.597C14.499 17.9971 14.499 16.6302 14.499 13.8963V10.269L8.30772 16.4603Z" fill="#292556" fill-opacity="0.18"/>
<path fill-rule="evenodd" clip-rule="evenodd" d="M15.0359 6.1964C14.9044 5.65741 14.6748 5.17718 14.2482 4.82556C13.9352 4.56755 13.569 4.38199 13.1758 4.28216C12.4262 4.09183 11.7016 4.36119 10.9962 4.7589C10.2915 5.1562 9.43528 5.78412 8.36898 6.5661L8.32657 6.59721L6.7535 7.75081L6.49911 7.7508L6.46077 7.7508C5.79118 7.75077 5.23244 7.75075 4.7801 7.79675C4.30662 7.84491 3.86724 7.94962 3.47124 8.21421C3.17096 8.41485 2.91314 8.67266 2.7125 8.97294C2.44789 9.36894 2.34318 9.80831 2.29501 10.2818C2.24899 10.7341 2.24901 11.2929 2.24902 11.9624V11.9625V12.0008V12.0392V12.0392C2.24901 12.7087 2.24899 13.2674 2.29501 13.7198C2.34317 14.1932 2.44788 14.6326 2.71247 15.0286C2.9131 15.3288 3.17091 15.5867 3.47118 15.7873C3.86716 16.0519 4.30652 16.1566 4.77999 16.2048C4.85336 16.2123 4.92953 16.2185 5.00852 16.2237L7.74902 13.4832V8.88086L9.21362 7.80681C10.3322 6.98653 11.116 6.41331 11.7329 6.06555C12.3583 5.71294 12.642 5.6942 12.8067 5.73602C12.9854 5.7814 13.1518 5.86575 13.2941 5.98302C13.4252 6.0911 13.5779 6.33094 13.6634 7.0438C13.6812 7.1921 13.6953 7.35231 13.7064 7.52584L15.0359 6.1964ZM8.84405 15.9238L9.21366 16.1948C10.3322 17.0151 11.116 17.5883 11.7329 17.936C12.3583 18.2886 12.642 18.3073 12.8067 18.2655C12.9854 18.2201 13.1518 18.1358 13.2941 18.0185C13.4252 17.9104 13.5779 17.6706 13.6634 16.9577C13.7477 16.2547 13.749 15.2836 13.749 13.8965V11.0188L15.2488 9.51903C15.249 9.69187 15.249 9.86968 15.249 10.0525V10.1051V13.8965V13.9491C15.249 15.2714 15.2491 16.3332 15.1527 17.1364C15.0562 17.9404 14.8449 18.6841 14.2482 19.176C13.9352 19.434 13.569 19.6195 13.1759 19.7194C12.4263 19.9097 11.7017 19.6404 10.9962 19.2427C10.2915 18.8454 9.43534 18.2175 8.36906 17.4355L8.36904 17.4355L8.32662 17.4044L7.77091 16.9969L8.84405 15.9238ZM16.4134 8.35438C17.073 9.78953 17.3723 10.9138 17.3723 12.0019C17.3723 13.1391 17.0454 14.3157 16.322 15.8456C16.1449 16.22 16.3049 16.6671 16.6794 16.8442C17.0538 17.0213 17.5009 16.8613 17.678 16.4868C18.451 14.8523 18.8723 13.4468 18.8723 12.0019C18.8723 10.5569 18.451 9.15146 17.678 7.51704C17.6326 7.42106 17.5695 7.33916 17.4944 7.27343L16.4134 8.35438ZM18.504 6.26378C19.6384 7.65135 20.2495 9.7893 20.2495 12.0019C20.2495 14.2303 19.6296 16.3829 18.4797 17.7696C18.2153 18.0884 18.2595 18.5612 18.5783 18.8256C18.8972 19.0901 19.37 19.0459 19.6344 18.7271C21.0744 16.9905 21.7495 14.4584 21.7495 12.0019C21.7495 9.54552 21.0744 7.01334 19.6344 5.2768C19.6125 5.25038 19.5891 5.22585 19.5646 5.20323L18.504 6.26378ZM6.24902 9.2509V14.7507C5.66642 14.75 5.25486 14.7454 4.93183 14.7125C4.57696 14.6764 4.413 14.6126 4.30455 14.5401C4.16806 14.4489 4.05088 14.3317 3.95968 14.1952C3.88722 14.0868 3.8234 13.9228 3.78731 13.5679C3.74993 13.2005 3.74902 12.7186 3.74902 12.0008C3.74902 11.2829 3.74993 10.801 3.78731 10.4336C3.82341 10.0787 3.88723 9.91475 3.95969 9.8063C4.05089 9.66981 4.16808 9.55262 4.30457 9.46143C4.41303 9.38896 4.577 9.32515 4.93188 9.28905C5.2549 9.2562 5.66645 9.25154 6.24902 9.2509Z" fill="#292556"/>
<path d="M3 21L21 3" stroke="#292556" stroke-width="1.5" stroke-linecap="round" stroke-linejoin="round"/>
</svg>
