<svg xmlns="http://www.w3.org/2000/svg" height="1024" preserveAspectRatio="none" style="display: block;" version="1.1" viewBox="0 0 2048 2048" width="1024">
<path d="M 0 0 L 2048 0 L 2048 2048 L 0 2048 L 0 0 z" fill="rgb(21,19,20)" transform="translate(0,0)"></path>
<path d="M 1517.47 372.74 L 1518.3 374.705 L 1520.12 375.536 C 1550.61 379.155 1576.61 384.477 1603.34 400.456 C 1641.51 423.273 1667.16 459.665 1674.49 503.582 C 1675.91 512.051 1677.57 519.965 1676.12 528.656 C 1667.88 583.365 1626 628.188 1573.32 643.497 C 1569.07 644.734 1556 647.61 1552.96 649.555 C 1541.24 648.874 1528.67 649.02 1516.87 648.944 L 1516.61 653.962 C 1516.45 660.538 1516.24 667.182 1516.16 673.753 C 1516.11 682.875 1516.48 701.524 1515.61 709.85 C 1514.16 728.128 1515.09 758.685 1515.1 778.142 C 1500.74 778.136 1399.96 779.53 1392.97 777.057 C 1388.73 775.672 1383.72 775.999 1379.15 775.959 L 1379.2 857.808 C 1379.23 865.424 1379.77 891.818 1378.83 897.954 C 1370.05 892.678 1361.82 886.848 1353.4 881.025 C 1317.03 886.172 1294.59 892.173 1262.15 911.344 C 1214.87 910.98 1168.06 912.345 1121 912.061 L 1121.16 989.772 C 1123 1004.01 1121.12 1019.59 1121.87 1034 C 1122.21 1040.51 1121.83 1051.49 1121.14 1058.02 C 1121.07 1084.68 1121.57 1114.42 1119.98 1140.71 C 1101.55 1139.34 1081.5 1140.38 1062.94 1140.02 C 1018.56 1139.15 971.191 1141.29 927 1139.69 L 925.287 1138.97 C 878.479 1139.03 822.287 1137.63 776.14 1140.16 C 746.593 1153.35 731.793 1158.49 700.665 1166.32 C 687.583 1157.72 680.298 1153.78 665.933 1147.53 C 666.427 1188.04 666.673 1228.55 666.673 1269.06 L 655.101 1269.23 C 651.526 1211.66 616.318 1168.61 563.182 1148.68 C 554.696 1145.49 543.145 1145.26 535.591 1141.98 L 534.74 1139.33 L 534.799 1133.07 C 532.97 1128.97 534.001 1089.24 534.102 1081.72 C 533.782 1075.51 533.796 1068.03 533.938 1061.79 C 534.715 1027.78 532.248 992.598 533.62 958.691 C 534.208 943.485 533.599 925.715 533.861 909.989 L 533.759 898.057 L 533.149 897.851 C 526.174 898.157 521.223 898.055 514.23 897.74 C 489.227 894.424 465.767 883.774 446.811 867.136 C 421.434 844.768 408.628 816.41 406.556 782.886 C 398.113 783.287 388.317 783.143 379.765 783.228 C 379.952 777.445 380.376 771.673 381.038 765.926 C 385.14 730.428 403.415 698.094 431.713 676.271 C 457.618 656.21 497.409 642.796 531.03 645.594 C 533.927 645.835 533.631 645.967 535.018 647.988 L 536.003 649.925 L 537.312 649.869 L 541.796 648.598 C 579.856 649.334 618.115 648.345 656.19 648.532 C 660.058 648.551 665.252 648.193 668.941 648.724 L 670.868 648.864 L 671.881 651.223 C 681.411 654.186 783.124 652.27 801.134 651.891 L 802.235 654.037 L 802.629 654.073 L 803.424 639.671 C 800.828 631.269 802.874 530.695 802.853 511.975 C 828.098 513.135 853.394 512.702 878.659 512.733 C 888.264 512.745 897.888 512.578 907.451 511.621 C 912.414 511.281 928.192 513.952 931.388 511.339 C 931.912 511.789 932.437 512.24 932.962 512.69 C 959.233 513.359 996.295 512.925 1021.62 512.997 C 1028.47 553.749 1042.57 581.3 1076.51 607.327 C 1087.19 615.512 1106.95 625.421 1120.06 628.609 L 1119.86 647.607 C 1126.54 651.589 1152.08 680.347 1158.82 687.622 L 1208.97 741.036 C 1220.47 753.196 1232.59 764.512 1244.25 776.474 L 1243.97 641.291 C 1236.55 640.844 1227.68 638.786 1220.59 636.566 C 1162.43 618.359 1121.47 572.016 1118.56 510.67 C 1130.67 509.163 1168.25 510.248 1182.71 510.313 C 1189.61 510.47 1211.74 511.463 1216.56 509.235 L 1216.86 510.164 L 1244.03 510.031 L 1244.1 417.684 C 1244.09 409.079 1243.49 380.26 1244.93 373.114 C 1287.62 373.14 1336.66 371.985 1378.83 373.279 C 1394.86 374.419 1415.18 373.918 1431.7 373.955 L 1515.83 374.357 L 1517.47 372.74 z" fill="rgb(234,94,131)" transform="translate(0,0)"></path>
<path d="M 379.765 783.228 C 379.952 777.445 380.376 771.673 381.038 765.926 C 385.14 730.428 403.415 698.094 431.713 676.271 C 457.618 656.21 497.409 642.796 531.03 645.594 C 533.927 645.835 533.631 645.967 535.018 647.988 L 536.003 649.925 L 537.312 649.869 L 541.796 648.598 C 579.856 649.334 618.115 648.345 656.19 648.532 C 660.058 648.551 665.252 648.193 668.941 648.724 L 670.868 648.864 L 671.881 651.223 C 681.411 654.186 783.124 652.27 801.134 651.891 L 802.235 654.037 L 802.629 654.073 C 807.299 660.177 832.25 683.317 839.777 690.853 C 858.269 709.563 876.9 728.136 895.667 746.57 C 901.122 752.004 922.039 774.989 926.834 775.767 L 927.2 778.344 L 924.725 780.107 L 825.169 883.107 C 821.808 886.557 803.331 904.301 802.878 906.436 C 805.212 907.69 805.513 907.443 808.235 907.556 C 808.092 996.419 756.017 1061.86 667.098 1074.51 C 664.838 1078.65 666.796 1097.83 665.506 1105.27 C 664.071 1112.87 664.763 1128.89 665.045 1137 C 665.3 1140.25 665.499 1144.39 665.933 1147.53 C 666.427 1188.04 666.673 1228.55 666.673 1269.06 L 655.101 1269.23 C 651.526 1211.66 616.318 1168.61 563.182 1148.68 C 554.696 1145.49 543.145 1145.26 535.591 1141.98 L 534.74 1139.33 L 534.799 1133.07 C 532.97 1128.97 534.001 1089.24 534.102 1081.72 C 533.782 1075.51 533.796 1068.03 533.938 1061.79 C 534.715 1027.78 532.248 992.598 533.62 958.691 C 534.208 943.485 533.599 925.715 533.861 909.989 L 533.759 898.057 L 533.149 897.851 C 526.174 898.157 521.223 898.055 514.23 897.74 C 489.227 894.424 465.767 883.774 446.811 867.136 C 421.434 844.768 408.628 816.41 406.556 782.886 C 398.113 783.287 388.317 783.143 379.765 783.228 z" fill="rgb(234,94,131)" transform="translate(0,0)"></path>
<path d="M 668.941 648.724 L 670.868 648.864 L 671.881 651.223 C 681.411 654.186 783.124 652.27 801.134 651.891 L 802.235 654.037 L 802.629 654.073 C 807.299 660.177 832.25 683.317 839.777 690.853 C 858.269 709.563 876.9 728.136 895.667 746.57 C 901.122 752.004 922.039 774.989 926.834 775.767 L 927.2 778.344 L 924.725 780.107 L 825.169 883.107 C 821.808 886.557 803.331 904.301 802.878 906.436 C 805.212 907.69 805.513 907.443 808.235 907.556 C 808.092 996.419 756.017 1061.86 667.098 1074.51 C 665.264 1069.72 666.334 1054.14 666.69 1048.39 C 667.555 1032.3 667.192 1014.1 667.195 997.83 C 667.398 970.426 667.906 935.357 666.979 908.295 L 667.604 904.025 C 670.005 865.411 666.465 819.714 668.416 780.028 L 668.898 776.823 C 670.847 767.558 669.649 750.717 670.041 740.677 C 671.083 714 669.077 680.103 671.049 654.113 L 668.923 650.829 L 668.941 648.724 z" fill="rgb(234,67,27)" transform="translate(0,0)"></path>
<path d="M 668.941 648.724 L 670.868 648.864 L 671.881 651.223 C 681.411 654.186 783.124 652.27 801.134 651.891 L 802.235 654.037 C 802.054 692.31 803.732 741.213 802.049 778.493 L 785.339 779.024 C 746.362 778.756 707.383 779.091 668.416 780.028 L 668.898 776.823 C 670.847 767.558 669.649 750.717 670.041 740.677 C 671.083 714 669.077 680.103 671.049 654.113 L 668.923 650.829 L 668.941 648.724 z" fill="rgb(220,203,183)" transform="translate(0,0)"></path>
<path d="M 671.049 654.113 C 689.999 675.39 719.606 700.2 740.894 720.613 C 760.246 739.168 782.208 761.393 802.049 778.493 L 785.339 779.024 C 746.362 778.756 707.383 779.091 668.416 780.028 L 668.898 776.823 C 670.847 767.558 669.649 750.717 670.041 740.677 C 671.083 714 669.077 680.103 671.049 654.113 z" fill="rgb(12,65,136)" transform="translate(0,0)"></path>
<path d="M 759.084 907.292 C 759.198 907.12 759.276 906.917 759.427 906.776 C 762.896 903.542 794.87 905.467 801.095 905.576 C 794.679 977.845 740.092 1040.52 666.69 1048.39 C 667.555 1032.3 667.192 1014.1 667.195 997.83 C 667.398 970.426 667.906 935.357 666.979 908.295 C 679.627 908.823 750.419 909.62 759.084 907.292 z" fill="rgb(12,65,136)" transform="translate(0,0)"></path>
<path d="M 666.979 908.295 C 679.627 908.823 750.419 909.62 759.084 907.292 C 759.554 938.406 742.045 970.626 715.379 986.738 C 700.215 995.901 684.535 998.007 667.195 997.83 C 667.398 970.426 667.906 935.357 666.979 908.295 z" fill="rgb(21,19,20)" transform="translate(0,0)"></path>
<path d="M 801.761 778.962 C 829.244 779.384 857.195 778.682 884.667 778.988 C 893.059 779.082 917.636 778.443 924.725 780.107 L 825.169 883.107 C 821.808 886.557 803.331 904.301 802.878 906.436 C 805.212 907.69 805.513 907.443 808.235 907.556 C 808.092 996.419 756.017 1061.86 667.098 1074.51 C 665.264 1069.72 666.334 1054.14 666.69 1048.39 C 740.092 1040.52 794.679 977.845 801.095 905.576 C 800.781 863.37 801.003 821.162 801.761 778.962 z" fill="rgb(21,19,20)" transform="translate(0,0)"></path>
<path d="M 668.416 780.028 C 707.383 779.091 746.362 778.756 785.339 779.024 C 778.34 788.11 768.53 798.434 760.482 806.667 C 729.619 838.234 700.428 872.801 669.447 904.123 L 667.604 904.025 C 670.005 865.411 666.465 819.714 668.416 780.028 z" fill="rgb(21,19,20)" transform="translate(0,0)"></path>
<path d="M 379.765 783.228 C 379.952 777.445 380.376 771.673 381.038 765.926 C 385.14 730.428 403.415 698.094 431.713 676.271 C 457.618 656.21 497.409 642.796 531.03 645.594 C 533.927 645.835 533.631 645.967 535.018 647.988 C 533.246 656.114 535.335 677.447 533.042 682.427 C 529.171 682.974 527.562 683.106 523.655 683.136 C 527.428 683.594 529.177 683.803 532.946 683.733 C 533.494 684.352 534.043 684.972 534.592 685.592 C 536.662 702.869 533.152 738.936 535.848 754.522 L 536.192 775.836 C 573.095 775.75 616.097 774.573 652.449 775.724 C 643.945 820.843 630.804 849.208 591.743 877.23 C 576.004 888.522 553.293 897.267 533.759 898.057 L 533.149 897.851 C 526.174 898.157 521.223 898.055 514.23 897.74 C 489.227 894.424 465.767 883.774 446.811 867.136 C 421.434 844.768 408.628 816.41 406.556 782.886 C 398.113 783.287 388.317 783.143 379.765 783.228 z" fill="rgb(21,19,20)" transform="translate(0,0)"></path>
<path d="M 406.556 782.886 C 409.73 782.712 414.211 782.962 416.439 781.118 C 420.505 783.465 518.191 781.355 533.297 781.845 L 533.149 897.851 C 526.174 898.157 521.223 898.055 514.23 897.74 C 489.227 894.424 465.767 883.774 446.811 867.136 C 421.434 844.768 408.628 816.41 406.556 782.886 z" fill="rgb(234,67,27)" transform="translate(0,0)"></path>
<path d="M 379.765 783.228 C 379.952 777.445 380.376 771.673 381.038 765.926 C 385.14 730.428 403.415 698.094 431.713 676.271 C 457.618 656.21 497.409 642.796 531.03 645.594 C 533.927 645.835 533.631 645.967 535.018 647.988 C 533.246 656.114 535.335 677.447 533.042 682.427 C 529.171 682.974 527.562 683.106 523.655 683.136 C 461.029 682.574 421.637 718.982 416.439 781.118 C 414.211 782.962 409.73 782.712 406.556 782.886 C 398.113 783.287 388.317 783.143 379.765 783.228 z" fill="rgb(234,94,131)" transform="translate(0,0)"></path>
<path d="M 533.861 909.989 C 548.181 910.674 558.379 910.998 571.855 916.238 C 654.83 948.503 677.533 1046.89 607.706 1106.3 C 585.229 1125.43 564.019 1132.84 534.799 1133.07 C 532.97 1128.97 534.001 1089.24 534.102 1081.72 C 533.782 1075.51 533.796 1068.03 533.938 1061.79 C 534.715 1027.78 532.248 992.598 533.62 958.691 C 534.208 943.485 533.599 925.715 533.861 909.989 z" fill="rgb(21,19,20)" transform="translate(0,0)"></path>
<path d="M 533.62 958.691 C 540.301 959.978 546.645 961.16 553.053 963.474 C 581.062 973.588 600.297 1002.41 594.107 1032.46 C 590.772 1048.52 581.118 1062.56 567.318 1071.42 C 556.484 1078.52 546.787 1080.83 534.102 1081.72 C 533.782 1075.51 533.796 1068.03 533.938 1061.79 C 534.715 1027.78 532.248 992.598 533.62 958.691 z" fill="rgb(234,94,131)" transform="translate(0,0)"></path>
<path d="M 541.796 648.598 C 579.856 649.334 618.115 648.345 656.19 648.532 C 660.058 648.551 665.252 648.193 668.941 648.724 L 668.923 650.829 L 671.049 654.113 C 669.077 680.103 671.083 714 670.041 740.677 C 669.649 750.717 670.847 767.558 668.898 776.823 L 667.745 774.948 C 624.73 732.351 580.313 692.029 537.312 649.869 L 541.796 648.598 z" fill="rgb(12,65,136)" transform="translate(0,0)"></path>
<path d="M 668.923 650.829 L 671.049 654.113 C 669.077 680.103 671.083 714 670.041 740.677 C 669.649 750.717 670.847 767.558 668.898 776.823 L 667.745 774.948 C 668.875 746.555 667.375 716.04 668.115 687.406 C 668.43 675.236 667.721 663.012 668.923 650.829 z" fill="rgb(74,95,154)" transform="translate(0,0)"></path>
<path d="M 523.655 683.136 C 527.562 683.106 529.171 682.974 533.042 682.427 C 535.335 677.447 533.246 656.114 535.018 647.988 L 536.003 649.925 C 535.849 673.628 535.831 697.331 535.949 721.034 C 535.962 730.766 536.401 745.205 535.848 754.522 C 533.152 738.936 536.662 702.869 534.592 685.592 C 534.043 684.972 533.494 684.352 532.946 683.733 C 529.177 683.803 527.428 683.594 523.655 683.136 z" fill="rgb(125,36,60)" transform="translate(0,0)"></path>
<path d="M 1517.47 372.74 L 1518.3 374.705 L 1520.12 375.536 C 1550.61 379.155 1576.61 384.477 1603.34 400.456 C 1641.51 423.273 1667.16 459.665 1674.49 503.582 C 1675.91 512.051 1677.57 519.965 1676.12 528.656 C 1667.88 583.365 1626 628.188 1573.32 643.497 C 1569.07 644.734 1556 647.61 1552.96 649.555 C 1541.24 648.874 1528.67 649.02 1516.87 648.944 L 1516.61 653.962 C 1516.45 660.538 1516.24 667.182 1516.16 673.753 C 1516.11 682.875 1516.48 701.524 1515.61 709.85 C 1514.16 728.128 1515.09 758.685 1515.1 778.142 C 1500.74 778.136 1399.96 779.53 1392.97 777.057 C 1388.73 775.672 1383.72 775.999 1379.15 775.959 C 1348.93 775.643 1316.07 777.093 1286.07 775.775 C 1287.1 771.65 1288.16 767.533 1289.25 763.426 C 1303.45 710.776 1332.07 676.69 1378.59 649.895 C 1336.65 650.067 1289.3 651.95 1247.76 650.26 C 1286.38 609.14 1327.62 569.852 1366.23 528.676 C 1370.94 523.651 1375.65 518.778 1380.16 513.565 L 1378.59 511.07 C 1379.47 506.014 1379.13 501.608 1379.27 496.414 C 1378.57 455.504 1379.33 414.269 1378.83 373.279 C 1394.86 374.419 1415.18 373.918 1431.7 373.955 L 1515.83 374.357 L 1517.47 372.74 z" fill="rgb(21,19,20)" transform="translate(0,0)"></path>
<path d="M 1517.47 372.74 L 1518.3 374.705 L 1520.12 375.536 C 1550.61 379.155 1576.61 384.477 1603.34 400.456 C 1641.51 423.273 1667.16 459.665 1674.49 503.582 C 1675.91 512.051 1677.57 519.965 1676.12 528.656 C 1667.88 583.365 1626 628.188 1573.32 643.497 C 1569.07 644.734 1556 647.61 1552.96 649.555 C 1541.24 648.874 1528.67 649.02 1516.87 648.944 L 1517.03 374.497 C 1471.59 419.495 1426.76 466.508 1381.52 511.951 L 1380.16 513.565 L 1378.59 511.07 C 1379.47 506.014 1379.13 501.608 1379.27 496.414 C 1378.57 455.504 1379.33 414.269 1378.83 373.279 C 1394.86 374.419 1415.18 373.918 1431.7 373.955 L 1515.83 374.357 L 1517.47 372.74 z" fill="rgb(234,94,131)" transform="translate(0,0)"></path>
<path d="M 1379.27 496.414 C 1381.07 503.465 1379.33 506.731 1381.52 511.951 L 1380.16 513.565 L 1378.59 511.07 C 1379.47 506.014 1379.13 501.608 1379.27 496.414 z" fill="rgb(197,82,107)" transform="translate(0,0)"></path>
<path d="M 1392.97 777.057 C 1394.14 710.466 1451.28 656.804 1516.61 653.962 C 1516.45 660.538 1516.24 667.182 1516.16 673.753 C 1516.11 682.875 1516.48 701.524 1515.61 709.85 C 1514.16 728.128 1515.09 758.685 1515.1 778.142 C 1500.74 778.136 1399.96 779.53 1392.97 777.057 z" fill="rgb(234,67,27)" transform="translate(0,0)"></path>
<path d="M 1380.18 514.662 C 1385.59 517.389 1410.94 544.753 1417.06 550.962 L 1493.22 627.679 C 1497.47 631.916 1513.18 645.084 1513.59 649.009 C 1471.23 649.445 1420.46 648.275 1379.1 650.013 L 1379.26 562.838 C 1379.28 549.197 1378.63 527.419 1380.18 514.662 z" fill="rgb(234,67,27)" transform="translate(0,0)"></path>
<path d="M 907.451 511.621 C 912.414 511.281 928.192 513.952 931.388 511.339 C 931.912 511.789 932.437 512.24 932.962 512.69 C 959.233 513.359 996.295 512.925 1021.62 512.997 C 1028.47 553.749 1042.57 581.3 1076.51 607.327 C 1087.19 615.512 1106.95 625.421 1120.06 628.609 L 1119.86 647.607 C 1126.54 651.589 1152.08 680.347 1158.82 687.622 L 1208.97 741.036 C 1220.47 753.196 1232.59 764.512 1244.25 776.474 C 1238.94 779.147 1134.15 776.354 1119.06 777.694 C 1103.66 778.421 1068.63 778.655 1054.23 777.743 C 1043.46 781.842 946.249 777.314 927.2 778.344 L 926.834 775.767 C 922.039 774.989 901.122 752.004 895.667 746.57 C 876.9 728.136 858.269 709.563 839.777 690.853 C 832.25 683.317 807.299 660.177 802.629 654.073 L 803.424 639.671 C 800.828 631.269 802.874 530.695 802.853 511.975 C 828.098 513.135 853.394 512.702 878.659 512.733 C 888.264 512.745 897.888 512.578 907.451 511.621 z" fill="rgb(21,19,20)" transform="translate(0,0)"></path>
<path d="M 907.451 511.621 C 912.414 511.281 928.192 513.952 931.388 511.339 C 931.912 511.789 932.437 512.24 932.962 512.69 C 959.233 513.359 996.295 512.925 1021.62 512.997 C 1028.47 553.749 1042.57 581.3 1076.51 607.327 C 1087.19 615.512 1106.95 625.421 1120.06 628.609 L 1119.86 647.607 L 1119.12 648.089 C 1092.9 647.93 1066.39 648.281 1040.14 648.454 C 1038.36 632.205 1034.98 613.691 1027.24 599.154 C 966.981 485.898 827.376 520.034 803.424 639.671 C 800.828 631.269 802.874 530.695 802.853 511.975 C 828.098 513.135 853.394 512.702 878.659 512.733 C 888.264 512.745 897.888 512.578 907.451 511.621 z" fill="rgb(234,67,27)" transform="translate(0,0)"></path>
<path d="M 928.782 648.738 C 944.611 666.472 962.118 683.605 978.495 700.89 C 1003.41 727.182 1028.26 752.478 1054.23 777.743 C 1043.46 781.842 946.249 777.314 927.2 778.344 L 926.834 775.767 C 925.928 766.024 925.951 755.336 926.039 745.505 C 926.325 713.553 925.379 681.327 926.216 649.401 C 927.003 649.226 928.033 649.043 928.782 648.738 z" fill="rgb(220,203,183)" transform="translate(0,0)"></path>
<path d="M 1119.86 647.607 C 1126.54 651.589 1152.08 680.347 1158.82 687.622 L 1208.97 741.036 C 1220.47 753.196 1232.59 764.512 1244.25 776.474 C 1238.94 779.147 1134.15 776.354 1119.06 777.694 L 1119.12 648.089 L 1119.86 647.607 z" fill="rgb(12,65,136)" transform="translate(0,0)"></path>
<path d="M 867.968 648.484 C 882.989 616.818 896.144 604.46 929.133 592.852 C 929.104 605.572 929.998 637.279 928.782 648.738 C 928.033 649.043 927.003 649.226 926.216 649.401 C 918.163 648 879.716 649.097 867.968 648.484 z" fill="rgb(234,67,27)" transform="translate(0,0)"></path>
<path d="M 926.01 910.755 C 989.258 912.287 1056.29 911.364 1119.9 911.423 L 1121 912.061 L 1121.16 989.772 C 1123 1004.01 1121.12 1019.59 1121.87 1034 C 1122.21 1040.51 1121.83 1051.49 1121.14 1058.02 C 1121.07 1084.68 1121.57 1114.42 1119.98 1140.71 C 1101.55 1139.34 1081.5 1140.38 1062.94 1140.02 C 1018.56 1139.15 971.191 1141.29 927 1139.69 L 925.287 1138.97 C 924.495 1120.33 924.937 1098.54 924.852 1079.65 C 925.758 1071.62 923.256 1042.52 925.811 1037.27 C 924.513 1026.85 924.898 1016.28 926.95 1005.97 L 924.813 1006.55 C 925.238 974.413 925.1 942.944 926.01 910.755 z" fill="rgb(21,19,20)" transform="translate(0,0)"></path>
<path d="M 925.811 1037.27 C 931.649 1084.19 970.1 1120.29 1017.3 1123.15 C 1064.49 1126.02 1107.02 1094.84 1118.49 1048.97 C 1122.32 1051.82 1120.72 1052.66 1121.14 1058.02 C 1121.07 1084.68 1121.57 1114.42 1119.98 1140.71 C 1101.55 1139.34 1081.5 1140.38 1062.94 1140.02 C 1018.56 1139.15 971.191 1141.29 927 1139.69 L 925.287 1138.97 C 924.495 1120.33 924.937 1098.54 924.852 1079.65 C 925.758 1071.62 923.256 1042.52 925.811 1037.27 z" fill="rgb(12,65,136)" transform="translate(0,0)"></path>
<path d="M 926.01 910.755 C 989.258 912.287 1056.29 911.364 1119.9 911.423 L 1121 912.061 L 1121.16 989.772 C 1121 993.966 1121.98 1012.21 1120.86 1014.66 C 1115.68 966.45 1076.08 929.239 1027.64 927.068 C 979.195 924.896 936.422 958.416 926.95 1005.97 L 924.813 1006.55 C 925.238 974.413 925.1 942.944 926.01 910.755 z" fill="rgb(12,65,136)" transform="translate(0,0)"></path>
<path d="M 1121.16 989.772 C 1123 1004.01 1121.12 1019.59 1121.87 1034 C 1122.21 1040.51 1121.83 1051.49 1121.14 1058.02 C 1120.72 1052.66 1122.32 1051.82 1118.49 1048.97 C 1121.29 1037.76 1122.1 1026.15 1120.86 1014.66 C 1121.98 1012.21 1121 993.966 1121.16 989.772 z" fill="rgb(26,45,75)" transform="translate(0,0)"></path>
<path d="M 1012.89 961.133 C 1048.41 955.26 1081.93 979.403 1087.61 1014.95 C 1093.29 1050.5 1068.97 1083.89 1033.39 1089.38 C 998.08 1094.83 965.003 1070.73 959.365 1035.45 C 953.727 1000.17 977.646 966.962 1012.89 961.133 z" fill="rgb(12,65,136)" transform="translate(0,0)"></path>
<path d="M 984.829 987.967 C 1011.45 988.029 1038.33 987.694 1064.92 988.022 C 1064.82 1012.86 1065.1 1039.22 1064.27 1063.97 C 1059.75 1064.6 1047.27 1064.27 1042.14 1064.3 L 984.72 1064.33 C 984.83 1038.95 984.526 1013.3 984.829 987.967 z" fill="rgb(234,94,131)" transform="translate(0,0)"></path>
<path d="M 1000.35 1005.02 L 1048.03 1005.03 C 1048.02 1018.01 1048.61 1035.8 1047.75 1048.35 C 1032.83 1048.87 1015.62 1048.77 1000.58 1048.7 C 1000.81 1035.58 1001.2 1018.01 1000.35 1005.02 z" fill="rgb(220,203,183)" transform="translate(0,0)"></path>
<path d="M 808.235 907.556 C 815.763 906.704 833.605 907.254 841.005 908.662 C 851.991 909.117 862.905 908.99 873.897 908.951 C 884.944 908.85 895.993 908.815 907.041 908.847 L 907.275 921.393 C 905.823 985.005 871.654 1060.63 825.381 1102.81 C 808.459 1118.24 794.97 1127.78 776.14 1140.16 C 746.593 1153.35 731.793 1158.49 700.665 1166.32 C 687.583 1157.72 680.298 1153.78 665.933 1147.53 C 665.499 1144.39 665.3 1140.25 665.045 1137 C 664.763 1128.89 664.071 1112.87 665.506 1105.27 C 666.796 1097.83 664.838 1078.65 667.098 1074.51 C 756.017 1061.86 808.092 996.419 808.235 907.556 z" fill="rgb(21,19,20)" transform="translate(0,0)"></path>
<path d="M 873.897 908.951 C 884.944 908.85 895.993 908.815 907.041 908.847 L 907.275 921.393 C 905.823 985.005 871.654 1060.63 825.381 1102.81 C 808.459 1118.24 794.97 1127.78 776.14 1140.16 C 746.593 1153.35 731.793 1158.49 700.665 1166.32 C 687.583 1157.72 680.298 1153.78 665.933 1147.53 C 665.499 1144.39 665.3 1140.25 665.045 1137 C 713.864 1136.48 766.794 1114.13 801.713 1080.27 C 852.292 1031.22 871.99 977.774 873.897 908.951 z" fill="rgb(220,203,183)" transform="translate(0,0)"></path>
<path d="M 808.235 907.556 C 815.763 906.704 833.605 907.254 841.005 908.662 C 840.742 950.757 829.796 988.315 806.95 1023.84 C 776.888 1070.57 721.44 1103.86 665.506 1105.27 C 666.796 1097.83 664.838 1078.65 667.098 1074.51 C 756.017 1061.86 808.092 996.419 808.235 907.556 z" fill="rgb(220,203,183)" transform="translate(0,0)"></path>
<path d="M 1023.44 896.324 C 1044.05 872.074 1064.4 847.606 1084.5 822.924 C 1095.25 809.663 1110.16 792.113 1118.99 777.931 C 1119.4 822.326 1118.68 867.057 1119.9 911.423 C 1056.29 911.364 989.258 912.287 926.01 910.755 C 925.1 942.944 925.238 974.413 924.813 1006.55 L 926.95 1005.97 C 924.898 1016.28 924.513 1026.85 925.811 1037.27 C 923.256 1042.52 925.758 1071.62 924.852 1079.65 C 924.937 1098.54 924.495 1120.33 925.287 1138.97 C 878.479 1139.03 822.287 1137.63 776.14 1140.16 C 794.97 1127.78 808.459 1118.24 825.381 1102.81 C 871.654 1060.63 905.823 985.005 907.275 921.393 C 907.587 917.678 907.608 912.797 907.742 908.976 L 926.498 909.032 C 928.135 870.264 926.9 820.924 927.055 781.075 C 951.629 813.74 981.552 844.822 1006.99 876.999 C 1012.18 883.565 1017.87 890.075 1023.44 896.324 z" fill="rgb(21,19,20)" transform="translate(0,0)"></path>
<path d="M 924.813 1006.55 L 926.95 1005.97 C 924.898 1016.28 924.513 1026.85 925.811 1037.27 C 923.256 1042.52 925.758 1071.62 924.852 1079.65 C 923.698 1076 923.898 1011.83 924.813 1006.55 z" fill="rgb(26,45,75)" transform="translate(0,0)"></path>
<path d="M 1182.71 510.313 C 1189.61 510.47 1211.74 511.463 1216.56 509.235 L 1216.86 510.164 C 1223.01 511.384 1236.56 510.754 1243.75 510.779 C 1242.8 553.589 1245.47 599.272 1243.97 641.291 C 1236.55 640.844 1227.68 638.786 1220.59 636.566 C 1162.43 618.359 1121.47 572.016 1118.56 510.67 C 1130.67 509.163 1168.25 510.248 1182.71 510.313 z" fill="rgb(234,67,27)" transform="translate(0,0)"></path>
<path d="M 1244.93 373.114 C 1287.62 373.14 1336.66 371.985 1378.83 373.279 C 1379.33 414.269 1378.57 455.504 1379.27 496.414 C 1379.13 501.608 1379.47 506.014 1378.59 511.07 C 1349.33 480.245 1320.62 448.95 1290.73 418.721 C 1275.71 403.528 1260.73 387.448 1244.93 373.114 z" fill="rgb(21,19,20)" transform="translate(0,0)"></path>
<path d="M 1286.07 775.775 C 1316.07 777.093 1348.93 775.643 1379.15 775.959 L 1379.2 857.808 C 1379.23 865.424 1379.77 891.818 1378.83 897.954 C 1370.05 892.678 1361.82 886.848 1353.4 881.025 C 1325.11 858.592 1302.41 830.547 1289.95 796.44 C 1288.06 791.267 1283.03 780.438 1286.07 775.775 z" fill="rgb(12,65,136)" transform="translate(0,0)"></path>
<path d="M 1175.41 798.994 L 1237.37 798.99 L 1237.44 861.751 L 1175.96 861.801 L 1175.41 798.994 z" fill="rgb(21,19,20)" transform="translate(0,0)"></path>
<path d="M 534.74 1139.33 L 535.591 1141.98 C 543.145 1145.26 554.696 1145.49 563.182 1148.68 C 616.318 1168.61 651.526 1211.66 655.101 1269.23 L 666.673 1269.06 C 666.673 1228.55 666.427 1188.04 665.933 1147.53 C 680.298 1153.78 687.583 1157.72 700.665 1166.32 C 731.793 1158.49 746.593 1153.35 776.14 1140.16 C 822.287 1137.63 878.479 1139.03 925.287 1138.97 L 927 1139.69 C 927.003 1182.42 926.157 1228.55 927.107 1271 L 927.039 1402.59 C 886.173 1359.15 843.416 1316.02 803.678 1271.76 C 801.24 1279.08 803.054 1380.46 802.968 1395.66 C 802.963 1399.59 802.889 1403.52 802.744 1407.44 C 827.62 1405.96 867.019 1426.72 884.859 1443.62 C 915.139 1472.31 926.923 1499.22 930.974 1539.52 C 922.932 1541.73 870.889 1540.8 860.342 1540.25 C 849.861 1539.52 838.044 1539.82 827.443 1539.85 C 821.203 1570.03 827.333 1601.46 844.46 1627.09 C 858.847 1648.67 882.149 1663.98 907.111 1670.44 C 894.156 1676.46 808.619 1669.12 802.271 1673.48 L 802.72 1675.16 C 803.517 1729.8 803.259 1786.24 803.088 1840.97 L 800.329 1841.07 C 791.699 1802.33 773.102 1770.53 738.925 1748.82 C 709.243 1730.32 673.485 1724.2 639.341 1731.79 C 603.829 1739.97 572.996 1761.86 553.573 1792.7 C 542.554 1810.47 537.515 1827.31 532.944 1847.49 C 531.507 1841.87 531.924 1818.82 531.935 1811.69 L 532.072 1720.26 C 532.083 1710.65 532.69 1681.05 530.973 1672.78 L 531.186 1671.89 L 531.219 1671.25 C 444.158 1669.3 381.491 1613.44 372.898 1532.93 C 372.717 1531.24 371.631 1532.77 371.565 1531.08 C 370.855 1512.93 377.138 1490.49 385.32 1474.54 C 400.935 1444.46 426.805 1420.97 458.245 1408.32 C 468.757 1404.18 478 1402.85 487.92 1399.44 C 426.212 1385.06 387.915 1347.83 373.438 1286.07 C 372.814 1282.9 372.874 1280.02 372.767 1276.79 C 373.197 1273.33 372.986 1270.85 372.866 1267.41 C 373.123 1263.61 372.774 1260.71 372.466 1256.9 C 370.114 1248.41 370.507 1224.76 371.685 1215.57 C 372.233 1207.55 370.881 1202.89 372.246 1193.22 C 370.49 1186.06 370.93 1161.85 371.755 1153.98 C 381.899 1153.52 428.734 1151.95 436.247 1149.14 C 464.217 1148.94 505.051 1147.21 532.096 1148.42 C 532.798 1144.88 533.566 1142.77 534.74 1139.33 z" fill="rgb(21,19,20)" transform="translate(0,0)"></path>
<path d="M 799.724 1396.71 C 801.247 1395.97 801.299 1395.97 802.968 1395.66 C 802.963 1399.59 802.889 1403.52 802.744 1407.44 C 827.62 1405.96 867.019 1426.72 884.859 1443.62 C 915.139 1472.31 926.923 1499.22 930.974 1539.52 C 922.932 1541.73 870.889 1540.8 860.342 1540.25 C 849.861 1539.52 838.044 1539.82 827.443 1539.85 C 821.203 1570.03 827.333 1601.46 844.46 1627.09 C 858.847 1648.67 882.149 1663.98 907.111 1670.44 C 894.156 1676.46 808.619 1669.12 802.271 1673.48 L 802.72 1675.16 C 803.517 1729.8 803.259 1786.24 803.088 1840.97 L 800.329 1841.07 C 791.699 1802.33 773.102 1770.53 738.925 1748.82 C 709.243 1730.32 673.485 1724.2 639.341 1731.79 C 603.829 1739.97 572.996 1761.86 553.573 1792.7 C 542.554 1810.47 537.515 1827.31 532.944 1847.49 C 531.507 1841.87 531.924 1818.82 531.935 1811.69 L 532.072 1720.26 C 532.083 1710.65 532.69 1681.05 530.973 1672.78 L 531.186 1671.89 L 620.684 1671.91 C 632.786 1671.92 655.315 1671.32 666.894 1672.22 L 667.751 1671.96 C 666.898 1647.69 668.084 1619.65 667.803 1595 C 667.628 1579.67 667.157 1549.7 668.504 1535.17 L 668.591 1533.29 C 674.276 1526.46 684.323 1516.6 690.65 1509.99 C 707.566 1492.28 724.666 1474.75 741.947 1457.4 C 761.188 1437.8 779.343 1416.36 799.637 1398.12 C 799.649 1396.99 799.589 1397.46 799.724 1396.71 z" fill="rgb(234,94,131)" transform="translate(0,0)"></path>
<path d="M 801.872 1539.99 L 827.443 1539.85 C 821.203 1570.03 827.333 1601.46 844.46 1627.09 C 858.847 1648.67 882.149 1663.98 907.111 1670.44 C 894.156 1676.46 808.619 1669.12 802.271 1673.48 L 802.72 1675.16 C 803.517 1729.8 803.259 1786.24 803.088 1840.97 L 800.329 1841.07 C 791.699 1802.33 773.102 1770.53 738.925 1748.82 C 709.243 1730.32 673.485 1724.2 639.341 1731.79 C 603.829 1739.97 572.996 1761.86 553.573 1792.7 C 542.554 1810.47 537.515 1827.31 532.944 1847.49 C 531.507 1841.87 531.924 1818.82 531.935 1811.69 L 532.072 1720.26 C 532.083 1710.65 532.69 1681.05 530.973 1672.78 L 531.186 1671.89 L 620.684 1671.91 C 632.786 1671.92 655.315 1671.32 666.894 1672.22 L 667.751 1671.96 C 696.004 1671.65 724.259 1671.49 752.514 1671.5 C 763.558 1671.44 791.393 1670.67 801.097 1672.01 C 802.972 1668.53 801.902 1553.19 801.872 1539.99 z" fill="rgb(220,203,183)" transform="translate(0,0)"></path>
<path d="M 802.744 1407.44 C 827.62 1405.96 867.019 1426.72 884.859 1443.62 C 915.139 1472.31 926.923 1499.22 930.974 1539.52 C 922.932 1541.73 870.889 1540.8 860.342 1540.25 C 849.861 1539.52 838.044 1539.82 827.443 1539.85 L 801.872 1539.99 C 802.005 1496.37 802.532 1451.83 802.023 1408.28 L 802.744 1407.44 z" fill="rgb(234,67,27)" transform="translate(0,0)"></path>
<path d="M 668.504 1535.17 L 750.948 1620.51 C 767.544 1637.37 785.518 1654.32 801.097 1672.01 C 791.393 1670.67 763.558 1671.44 752.514 1671.5 C 724.259 1671.49 696.004 1671.65 667.751 1671.96 C 666.898 1647.69 668.084 1619.65 667.803 1595 C 667.628 1579.67 667.157 1549.7 668.504 1535.17 z" fill="rgb(21,19,20)" transform="translate(0,0)"></path>
<path d="M 799.724 1396.71 C 801.247 1395.97 801.299 1395.97 802.968 1395.66 C 802.963 1399.59 802.889 1403.52 802.744 1407.44 L 802.023 1408.28 C 801.631 1403.88 802.985 1400.56 799.637 1398.12 C 799.649 1396.99 799.589 1397.46 799.724 1396.71 z" fill="rgb(197,82,107)" transform="translate(0,0)"></path>
<path d="M 925.287 1138.97 L 927 1139.69 C 927.003 1182.42 926.157 1228.55 927.107 1271 L 927.039 1402.59 C 886.173 1359.15 843.416 1316.02 803.678 1271.76 C 801.24 1279.08 803.054 1380.46 802.968 1395.66 C 801.299 1395.97 801.247 1395.97 799.724 1396.71 C 776.936 1397.69 752.205 1397.37 729.252 1397.74 C 719.141 1397.91 694.375 1398.92 685.338 1398.11 C 682.345 1397.24 678.679 1396.6 675.967 1395.35 C 728.106 1362.58 751.621 1327.66 766.294 1268.3 L 666.673 1269.06 C 666.673 1228.55 666.427 1188.04 665.933 1147.53 C 680.298 1153.78 687.583 1157.72 700.665 1166.32 C 731.793 1158.49 746.593 1153.35 776.14 1140.16 C 822.287 1137.63 878.479 1139.03 925.287 1138.97 z" fill="rgb(234,94,131)" transform="translate(0,0)"></path>
<path d="M 665.933 1147.53 C 680.298 1153.78 687.583 1157.72 700.665 1166.32 C 728.524 1186.8 764.699 1232.62 766.294 1268.3 L 666.673 1269.06 C 666.673 1228.55 666.427 1188.04 665.933 1147.53 z" fill="rgb(12,65,136)" transform="translate(0,0)"></path>
<path d="M 803.678 1271.76 C 844.822 1271.81 885.966 1271.56 927.107 1271 L 927.039 1402.59 C 886.173 1359.15 843.416 1316.02 803.678 1271.76 z" fill="rgb(12,65,136)" transform="translate(0,0)"></path>
<path d="M 825.569 1187.5 C 840.984 1187.37 856.401 1187.34 871.817 1187.4 L 871.706 1250.46 C 867.888 1250.55 864.069 1250.61 860.25 1250.63 C 844.263 1250.79 828.276 1250.86 812.288 1250.86 C 812.37 1229.98 812.593 1208.43 812.317 1187.61 C 816.735 1187.6 821.152 1187.56 825.569 1187.5 z" fill="rgb(21,19,20)" transform="translate(0,0)"></path>
<path d="M 534.74 1139.33 L 535.591 1141.98 C 543.145 1145.26 554.696 1145.49 563.182 1148.68 C 616.318 1168.61 651.526 1211.66 655.101 1269.23 L 532.955 1269.08 C 533.115 1292.13 533.135 1315.18 533.014 1338.23 C 533.134 1350.51 533.13 1362.79 533.004 1375.06 C 532.976 1379.98 533.182 1391.75 532.588 1396.08 L 530.497 1397.76 C 517.835 1399.8 499.943 1397.36 487.92 1399.44 C 426.212 1385.06 387.915 1347.83 373.438 1286.07 C 372.814 1282.9 372.874 1280.02 372.767 1276.79 C 373.197 1273.33 372.986 1270.85 372.866 1267.41 C 373.123 1263.61 372.774 1260.71 372.466 1256.9 C 370.114 1248.41 370.507 1224.76 371.685 1215.57 C 372.233 1207.55 370.881 1202.89 372.246 1193.22 C 370.49 1186.06 370.93 1161.85 371.755 1153.98 C 381.899 1153.52 428.734 1151.95 436.247 1149.14 C 464.217 1148.94 505.051 1147.21 532.096 1148.42 C 532.798 1144.88 533.566 1142.77 534.74 1139.33 z" fill="rgb(234,94,131)" transform="translate(0,0)"></path>
<path d="M 534.74 1139.33 L 535.591 1141.98 C 543.145 1145.26 554.696 1145.49 563.182 1148.68 C 616.318 1168.61 651.526 1211.66 655.101 1269.23 L 532.955 1269.08 C 533.115 1292.13 533.135 1315.18 533.014 1338.23 C 485.025 1337.03 440.936 1309.81 438.739 1258.3 C 469.818 1258.06 500.898 1258.09 531.976 1258.37 C 531.773 1221.72 531.813 1185.07 532.096 1148.42 C 532.798 1144.88 533.566 1142.77 534.74 1139.33 z" fill="rgb(21,19,20)" transform="translate(0,0)"></path>
<path d="M 372.466 1256.9 C 381.681 1255.86 393.453 1256.07 402.884 1256.29 C 403.382 1287.51 416.416 1317.22 439.053 1338.73 C 464.214 1362.93 498.624 1373.91 533.004 1375.06 C 532.976 1379.98 533.182 1391.75 532.588 1396.08 L 530.497 1397.76 C 517.835 1399.8 499.943 1397.36 487.92 1399.44 C 426.212 1385.06 387.915 1347.83 373.438 1286.07 C 372.814 1282.9 372.874 1280.02 372.767 1276.79 C 373.197 1273.33 372.986 1270.85 372.866 1267.41 C 373.123 1263.61 372.774 1260.71 372.466 1256.9 z" fill="rgb(220,203,183)" transform="translate(0,0)"></path>
<path d="M 372.246 1193.22 C 381.991 1170.95 403.797 1159.34 426.006 1168.92 C 458.227 1182.82 457.68 1229.67 423.482 1240.84 C 413.026 1244.26 401.635 1243.34 391.858 1238.3 C 381.525 1232.91 376.654 1225.52 371.685 1215.57 C 372.233 1207.55 370.881 1202.89 372.246 1193.22 z" fill="rgb(21,19,20)" transform="translate(0,0)"></path>
<path d="M 530.497 1397.76 C 531.252 1429.91 530.609 1463.79 530.782 1496.16 C 531.497 1554.52 531.643 1612.89 531.219 1671.25 C 444.158 1669.3 381.491 1613.44 372.898 1532.93 C 372.717 1531.24 371.631 1532.77 371.565 1531.08 C 370.855 1512.93 377.138 1490.49 385.32 1474.54 C 400.935 1444.46 426.805 1420.97 458.245 1408.32 C 468.757 1404.18 478 1402.85 487.92 1399.44 C 499.943 1397.36 517.835 1399.8 530.497 1397.76 z" fill="rgb(234,94,131)" transform="translate(0,0)"></path>
<path d="M 655.101 1269.23 C 650.917 1337.41 599.288 1387.26 532.588 1396.08 C 533.182 1391.75 532.976 1379.98 533.004 1375.06 C 533.13 1362.79 533.134 1350.51 533.014 1338.23 C 533.135 1315.18 533.115 1292.13 532.955 1269.08 L 655.101 1269.23 z" fill="rgb(234,67,27)" transform="translate(0,0)"></path>
<path d="M 668.591 1533.29 L 668.504 1535.17 C 667.157 1549.7 667.628 1579.67 667.803 1595 C 668.084 1619.65 666.898 1647.69 667.751 1671.96 L 666.894 1672.22 C 655.315 1671.32 632.786 1671.92 620.684 1671.91 L 531.186 1671.89 L 531.219 1671.25 C 537.412 1667.9 566.847 1636.55 574.166 1629.32 C 605.145 1598.7 635.614 1565.29 666.792 1535.05 L 668.591 1533.29 z" fill="rgb(234,94,131)" transform="translate(0,0)"></path>
<path d="M 668.591 1533.29 L 668.504 1535.17 C 667.157 1549.7 667.628 1579.67 667.803 1595 C 668.084 1619.65 666.898 1647.69 667.751 1671.96 L 666.894 1672.22 C 665.736 1641.01 667.425 1607.48 666.998 1576.08 C 666.831 1563.81 667.842 1546.79 666.792 1535.05 L 668.591 1533.29 z" fill="rgb(197,82,107)" transform="translate(0,0)"></path>
<path d="M 685.338 1398.11 C 684.014 1398.21 664.127 1400.19 675.967 1395.35 C 678.679 1396.6 682.345 1397.24 685.338 1398.11 z" fill="rgb(197,82,107)" transform="translate(0,0)"></path>
<path d="M 653.447 1399.49 L 667.178 1399.29 C 667.039 1443.88 667.208 1488.47 667.686 1533.06 C 649.453 1517.37 627.367 1493.18 609.61 1475.38 C 586.131 1451.25 559.892 1422.07 535.473 1399.96 C 574.358 1399.32 614.451 1399.73 653.447 1399.49 z" fill="rgb(234,67,27)" transform="translate(0,0)"></path>
<path d="M 1379.15 775.959 C 1383.72 775.999 1388.73 775.672 1392.97 777.057 C 1392.24 840.709 1451.44 895.72 1513.23 901.377 C 1513.07 905.774 1512.77 910.768 1512.84 915.113 C 1512.97 930.7 1512.53 948.979 1513.14 964.223 C 1513.98 999.514 1514.58 1050.31 1513.21 1085.22 L 1513 1136.29 L 1512.99 1149.8 L 1513.25 1150.71 C 1523.19 1150.87 1532.94 1150.81 1542.81 1152.09 C 1598.8 1165.33 1636.28 1207.04 1645.97 1263.21 L 1663.08 1263 C 1663.62 1290.68 1660.95 1312.96 1645.99 1336.88 C 1621.58 1375.88 1579.83 1400.81 1533.43 1400.21 C 1527.58 1400.14 1517 1400.6 1511.66 1398.31 L 1510.94 1396.9 L 1510.32 1396.98 C 1503.06 1396.26 1487.62 1396.68 1479.39 1396.63 C 1458.21 1396.46 1437.02 1396.44 1415.84 1396.55 C 1406.61 1396.59 1388.95 1397.19 1380.75 1395.74 C 1379.35 1393.16 1379.02 1392.71 1376.62 1391.03 L 1376 1394.73 L 1374.79 1395.98 C 1339.36 1397.31 1295.28 1396.07 1259.01 1396.26 C 1253.92 1396.18 1248.85 1395.9 1243.84 1396.62 L 1243.2 1396.24 C 1204.55 1355.5 1158.54 1314.49 1120.91 1273.67 L 1120.6 1272.86 L 1121.16 1271.59 C 1140.94 1250.84 1161.74 1231.04 1181.77 1210.54 C 1202.91 1188.92 1223.81 1166.95 1244.78 1145.15 L 1245.21 1142.07 L 1241.98 1141.21 C 1231.05 1141.15 1220.79 1141.04 1209.86 1141.64 C 1204.1 1142.21 1181.84 1142.53 1176.77 1141.13 C 1165.9 1140.54 1155.65 1140.79 1144.79 1140.95 L 1144.73 1116.64 C 1144.92 1106.73 1145.89 1096.86 1147.63 1087.11 C 1160.85 1008.93 1198.92 956.44 1262.15 911.344 C 1294.59 892.173 1317.03 886.172 1353.4 881.025 C 1361.82 886.848 1370.05 892.678 1378.83 897.954 C 1379.77 891.818 1379.23 865.424 1379.2 857.808 L 1379.15 775.959 z" fill="rgb(220,203,183)" transform="translate(0,0)"></path>
<path d="M 1396.44 1270.79 C 1397.61 1247.06 1405.84 1224.21 1420.08 1205.19 C 1443.2 1173.98 1474.75 1155.34 1512.99 1149.8 L 1513.25 1150.71 C 1523.19 1150.87 1532.94 1150.81 1542.81 1152.09 C 1598.8 1165.33 1636.28 1207.04 1645.97 1263.21 L 1663.08 1263 C 1663.62 1290.68 1660.95 1312.96 1645.99 1336.88 C 1621.58 1375.88 1579.83 1400.81 1533.43 1400.21 C 1527.58 1400.14 1517 1400.6 1511.66 1398.31 L 1510.94 1396.9 L 1510.32 1396.98 C 1503.06 1396.26 1487.62 1396.68 1479.39 1396.63 C 1458.21 1396.46 1437.02 1396.44 1415.84 1396.55 C 1406.61 1396.59 1388.95 1397.19 1380.75 1395.74 C 1379.35 1393.16 1379.02 1392.71 1376.62 1391.03 C 1375.69 1385.6 1375.91 1356.7 1376.02 1350.09 C 1376.45 1324.28 1375.35 1295.94 1377 1270.32 L 1378.73 1270.15 L 1379.79 1271.3 L 1396.44 1270.79 z" fill="rgb(21,19,20)" transform="translate(0,0)"></path>
<path d="M 1513.25 1150.71 C 1523.19 1150.87 1532.94 1150.81 1542.81 1152.09 C 1598.8 1165.33 1636.28 1207.04 1645.97 1263.21 C 1640.65 1263.13 1632.13 1262.76 1627.07 1263.08 C 1620.39 1263.89 1614.49 1266.29 1607.67 1266.54 C 1576.54 1267.7 1544.42 1266.52 1513.32 1266.03 L 1513.25 1150.71 z" fill="rgb(234,67,27)" transform="translate(0,0)"></path>
<path d="M 1377 1270.32 L 1378.73 1270.15 L 1379.79 1271.3 C 1406.34 1294.49 1434.37 1324.38 1460.85 1348.39 C 1467.09 1354.04 1507.75 1392.19 1510.94 1396.9 L 1510.32 1396.98 C 1503.06 1396.26 1487.62 1396.68 1479.39 1396.63 C 1458.21 1396.46 1437.02 1396.44 1415.84 1396.55 C 1406.61 1396.59 1388.95 1397.19 1380.75 1395.74 C 1379.35 1393.16 1379.02 1392.71 1376.62 1391.03 C 1375.69 1385.6 1375.91 1356.7 1376.02 1350.09 C 1376.45 1324.28 1375.35 1295.94 1377 1270.32 z" fill="rgb(220,203,183)" transform="translate(0,0)"></path>
<path d="M 1379.79 1271.3 L 1396.44 1270.79 C 1410.29 1269.8 1427.13 1270.2 1441.32 1270.18 L 1513 1269.94 C 1512.98 1298.96 1514.04 1335.35 1512.84 1363.74 C 1512.62 1373.29 1512.99 1389.68 1511.66 1398.31 L 1510.94 1396.9 C 1507.75 1392.19 1467.09 1354.04 1460.85 1348.39 C 1434.37 1324.38 1406.34 1294.49 1379.79 1271.3 z" fill="rgb(12,65,136)" transform="translate(0,0)"></path>
<path d="M 1645.97 1263.21 L 1663.08 1263 C 1663.62 1290.68 1660.95 1312.96 1645.99 1336.88 C 1621.58 1375.88 1579.83 1400.81 1533.43 1400.21 C 1527.58 1400.14 1517 1400.6 1511.66 1398.31 C 1512.99 1389.68 1512.62 1373.29 1512.84 1363.74 C 1544.81 1364.04 1570.75 1363.14 1595.8 1340.58 C 1619.61 1319.14 1625.41 1293.78 1627.07 1263.08 C 1632.13 1262.76 1640.65 1263.13 1645.97 1263.21 z" fill="rgb(234,94,131)" transform="translate(0,0)"></path>
<path d="M 1289.68 1144.81 C 1297.83 1144 1310.86 1144.44 1319.5 1144.4 C 1339.45 1144.44 1359.4 1144.34 1379.36 1144.11 L 1379.86 1146.7 C 1380.07 1161.56 1381.58 1262 1378.73 1270.15 L 1377 1270.32 C 1375.35 1295.94 1376.45 1324.28 1376.02 1350.09 C 1375.91 1356.7 1375.69 1385.6 1376.62 1391.03 L 1376 1394.73 L 1374.79 1395.98 C 1339.36 1397.31 1295.28 1396.07 1259.01 1396.26 C 1253.92 1396.18 1248.85 1395.9 1243.84 1396.62 L 1243.2 1396.24 C 1204.55 1355.5 1158.54 1314.49 1120.91 1273.67 L 1120.6 1272.86 L 1121.16 1271.59 C 1140.94 1250.84 1161.74 1231.04 1181.77 1210.54 C 1202.91 1188.92 1223.81 1166.95 1244.78 1145.15 L 1245.79 1147.63 C 1257.96 1147.31 1269.96 1147.21 1282.12 1147.15 C 1286.4 1147.13 1287.35 1147.26 1289.68 1144.81 z" fill="rgb(234,67,27)" transform="translate(0,0)"></path>
<path d="M 1260.92 1273.62 C 1297.28 1275.13 1335.17 1273.54 1371.64 1273.57 C 1374.73 1273.58 1375.42 1272.48 1377 1270.32 C 1375.35 1295.94 1376.45 1324.28 1376.02 1350.09 C 1375.91 1356.7 1375.69 1385.6 1376.62 1391.03 L 1376 1394.73 L 1374.79 1395.98 C 1339.36 1397.31 1295.28 1396.07 1259.01 1396.26 C 1253.92 1396.18 1248.85 1395.9 1243.84 1396.62 L 1243.2 1396.24 C 1243.17 1383.11 1241.95 1277.18 1244.4 1273.44 L 1260.92 1273.62 z" fill="rgb(220,203,183)" transform="translate(0,0)"></path>
<path d="M 1260.92 1273.62 C 1297.28 1275.13 1335.17 1273.54 1371.64 1273.57 C 1374.73 1273.58 1375.42 1272.48 1377 1270.32 C 1375.35 1295.94 1376.45 1324.28 1376.02 1350.09 C 1375.91 1356.7 1375.69 1385.6 1376.62 1391.03 L 1376 1394.73 C 1368.09 1385.98 1348.64 1369.02 1339.41 1360.68 L 1274.28 1301.7 C 1265.93 1294.09 1251.29 1281.36 1244.4 1273.44 L 1260.92 1273.62 z" fill="rgb(12,65,136)" transform="translate(0,0)"></path>
<path d="M 1121.16 1271.59 C 1140.94 1250.84 1161.74 1231.04 1181.77 1210.54 C 1202.91 1188.92 1223.81 1166.95 1244.78 1145.15 L 1245.79 1147.63 C 1244.44 1157.44 1245.17 1174.59 1244.95 1185.02 C 1244.35 1213.47 1245.73 1243.52 1243.96 1271.81 C 1209.73 1268.22 1155.7 1274.49 1121.16 1271.59 z" fill="rgb(21,19,20)" transform="translate(0,0)"></path>
<path d="M 1260.92 1273.62 C 1267.31 1265.13 1288.69 1244.48 1296.77 1235.87 C 1324.38 1206.44 1351.93 1175.71 1379.86 1146.7 C 1380.07 1161.56 1381.58 1262 1378.73 1270.15 L 1377 1270.32 C 1375.42 1272.48 1374.73 1273.58 1371.64 1273.57 C 1335.17 1273.54 1297.28 1275.13 1260.92 1273.62 z" fill="rgb(21,19,20)" transform="translate(0,0)"></path>
<path d="M 1379.15 775.959 C 1383.72 775.999 1388.73 775.672 1392.97 777.057 C 1392.24 840.709 1451.44 895.72 1513.23 901.377 C 1513.07 905.774 1512.77 910.768 1512.84 915.113 C 1512.97 930.7 1512.53 948.979 1513.14 964.223 C 1513.98 999.514 1514.58 1050.31 1513.21 1085.22 L 1513 1136.29 L 1512.99 1149.8 C 1474.75 1155.34 1443.2 1173.98 1420.08 1205.19 C 1405.84 1224.21 1397.61 1247.06 1396.44 1270.79 L 1379.79 1271.3 L 1378.73 1270.15 C 1381.58 1262 1380.07 1161.56 1379.86 1146.7 L 1379.36 1144.11 C 1378.58 1135.05 1379.02 1120.84 1379.01 1111.25 L 1379.03 1054.98 C 1378.89 1035.95 1378.95 1016.92 1379.21 997.885 C 1379.48 988.965 1379.69 980.043 1379.83 971.12 C 1380.32 964.472 1380.43 948.99 1379.9 942.641 C 1377.67 941.173 1376.07 941.703 1372.88 941.607 L 1380.04 940.892 C 1382.07 938.574 1382.35 912.548 1379.17 909.627 C 1380.71 907.415 1380.42 900.351 1378.83 897.954 C 1379.77 891.818 1379.23 865.424 1379.2 857.808 L 1379.15 775.959 z" fill="rgb(234,94,131)" transform="translate(0,0)"></path>
<path d="M 1513 1136.29 C 1476.84 1133.2 1458.35 1125.71 1431.69 1100.35 C 1360.08 1032.23 1418.07 913.009 1512.84 915.113 C 1512.97 930.7 1512.53 948.979 1513.14 964.223 C 1513.98 999.514 1514.58 1050.31 1513.21 1085.22 L 1513 1136.29 z" fill="rgb(21,19,20)" transform="translate(0,0)"></path>
<path d="M 1513.14 964.223 C 1513.98 999.514 1514.58 1050.31 1513.21 1085.22 C 1501.39 1083.26 1486.57 1079.93 1477.37 1072.02 C 1430.44 1031.67 1455.55 971.08 1513.14 964.223 z" fill="rgb(234,94,131)" transform="translate(0,0)"></path>
<path d="M 1245.21 1142.07 C 1246.4 1137.89 1247.7 1126.87 1249.1 1120.85 C 1254.47 1096.72 1265.12 1074.08 1280.28 1054.56 C 1304.82 1023.32 1339.59 1002.49 1379.21 997.885 C 1378.95 1016.92 1378.89 1035.95 1379.03 1054.98 L 1379.01 1111.25 C 1379.02 1120.84 1378.58 1135.05 1379.36 1144.11 C 1359.4 1144.34 1339.45 1144.44 1319.5 1144.4 C 1310.86 1144.44 1297.83 1144 1289.68 1144.81 C 1287.35 1147.26 1286.4 1147.13 1282.12 1147.15 C 1269.96 1147.21 1257.96 1147.31 1245.79 1147.63 L 1244.78 1145.15 L 1245.21 1142.07 z" fill="rgb(12,65,136)" transform="translate(0,0)"></path>
<path d="M 1289.68 1144.81 C 1289.1 1137.88 1289.86 1132.25 1290.82 1125.49 C 1292.39 1114.9 1296.06 1104.73 1301.61 1095.58 C 1319.31 1066.28 1345.95 1055.22 1379.03 1054.98 L 1379.01 1111.25 C 1379.02 1120.84 1378.58 1135.05 1379.36 1144.11 C 1359.4 1144.34 1339.45 1144.44 1319.5 1144.4 C 1310.86 1144.44 1297.83 1144 1289.68 1144.81 z" fill="rgb(21,19,20)" transform="translate(0,0)"></path>
<path d="M 1372.88 941.607 C 1376.07 941.703 1377.67 941.173 1379.9 942.641 C 1380.43 948.99 1380.32 964.472 1379.83 971.12 C 1379.69 980.043 1379.48 988.965 1379.21 997.885 C 1339.59 1002.49 1304.82 1023.32 1280.28 1054.56 C 1265.12 1074.08 1254.47 1096.72 1249.1 1120.85 C 1247.7 1126.87 1246.4 1137.89 1245.21 1142.07 L 1241.98 1141.21 C 1231.05 1141.15 1220.79 1141.04 1209.86 1141.64 C 1209.91 1129.29 1209.76 1117.58 1211.38 1105.29 C 1223.05 1016.81 1284.55 952.565 1372.88 941.607 z" fill="rgb(220,203,183)" transform="translate(0,0)"></path>
<path d="M 1379.83 971.12 C 1379.69 980.043 1379.48 988.965 1379.21 997.885 C 1339.59 1002.49 1304.82 1023.32 1280.28 1054.56 C 1265.12 1074.08 1254.47 1096.72 1249.1 1120.85 C 1247.7 1126.87 1246.4 1137.89 1245.21 1142.07 L 1241.98 1141.21 C 1241.67 1049.72 1287.34 985.934 1379.83 971.12 z" fill="rgb(21,19,20)" transform="translate(0,0)"></path>
<path d="M 1379.17 909.627 C 1382.35 912.548 1382.07 938.574 1380.04 940.892 L 1372.88 941.607 C 1284.55 952.565 1223.05 1016.81 1211.38 1105.29 C 1209.76 1117.58 1209.91 1129.29 1209.86 1141.64 C 1204.1 1142.21 1181.84 1142.53 1176.77 1141.13 C 1176.42 1017.28 1250.83 917.505 1379.17 909.627 z" fill="rgb(21,19,20)" transform="translate(0,0)"></path>
<path d="M 1516.87 648.944 C 1528.67 649.02 1541.24 648.874 1552.96 649.555 C 1592.42 655.469 1621.51 673.147 1646.18 705.216 C 1658.8 721.623 1672.9 754.277 1671.57 775.336 C 1675.93 774.764 1676.06 773.987 1679.24 775.598 C 1681.98 780.242 1679.47 789.115 1681.42 795.839 C 1708.59 889.07 1841.9 890.616 1868.95 795.711 C 1869.68 792.271 1869.95 790.88 1870.32 787.344 C 1871.2 778.212 1870.71 772.488 1870.29 763.347 C 1869.92 759.501 1869.61 757.745 1868.85 753.926 L 1872.04 754.333 L 1872.19 754.87 C 1873.48 764.534 1873.83 889.191 1872.02 896.328 L 1871.89 896.8 C 1873.08 903.797 1872.67 921.487 1872.68 929.651 L 1872.64 994.086 L 1873.11 1269.14 L 1737.1 1269.02 C 1727.93 1269.02 1686.71 1269.56 1679.93 1268.22 C 1678.48 1232.04 1679.35 1188.24 1679.34 1151.67 C 1665.57 1150.33 1646.71 1152.97 1631.27 1151.27 C 1623.42 1152.51 1605.89 1152.21 1597.24 1152.21 C 1579.58 1152.22 1560.33 1152.93 1542.81 1152.09 C 1532.94 1150.81 1523.19 1150.87 1513.25 1150.71 L 1512.99 1149.8 L 1513 1136.29 L 1513.21 1085.22 C 1514.58 1050.31 1513.98 999.514 1513.14 964.223 C 1512.53 948.979 1512.97 930.7 1512.84 915.113 C 1512.77 910.768 1513.07 905.774 1513.23 901.377 C 1451.44 895.72 1392.24 840.709 1392.97 777.057 C 1399.96 779.53 1500.74 778.136 1515.1 778.142 C 1515.09 758.685 1514.16 728.128 1515.61 709.85 C 1516.48 701.524 1516.11 682.875 1516.16 673.753 C 1516.24 667.182 1516.45 660.538 1516.61 653.962 L 1516.87 648.944 z" fill="rgb(234,67,27)" transform="translate(0,0)"></path>
<path d="M 1516.87 648.944 C 1528.67 649.02 1541.24 648.874 1552.96 649.555 C 1592.42 655.469 1621.51 673.147 1646.18 705.216 C 1658.8 721.623 1672.9 754.277 1671.57 775.336 C 1671.51 775.949 1671.17 779.038 1671.21 779.768 C 1672.24 790.702 1671.34 787.135 1679.02 792.738 C 1680.49 809.106 1678.92 825.385 1679.21 841.617 C 1679.53 859.62 1679.98 877.087 1679.99 895.144 C 1664.47 895.943 1631.78 894.725 1620.12 901.81 C 1591.54 903.208 1562.27 901.953 1533.62 902.271 C 1527.66 902.337 1521.1 902.249 1515.19 901.621 L 1513.23 901.377 C 1451.44 895.72 1392.24 840.709 1392.97 777.057 C 1399.96 779.53 1500.74 778.136 1515.1 778.142 C 1515.09 758.685 1514.16 728.128 1515.61 709.85 C 1516.48 701.524 1516.11 682.875 1516.16 673.753 C 1516.24 667.182 1516.45 660.538 1516.61 653.962 L 1516.87 648.944 z" fill="rgb(234,94,131)" transform="translate(0,0)"></path>
<path d="M 1515.61 709.85 C 1563.4 710.964 1602.56 740.294 1603.15 790.502 C 1573.93 790.658 1544.16 790.514 1514.98 791.003 C 1515.11 827.203 1515.88 865.583 1515.19 901.621 L 1513.23 901.377 C 1451.44 895.72 1392.24 840.709 1392.97 777.057 C 1399.96 779.53 1500.74 778.136 1515.1 778.142 C 1515.09 758.685 1514.16 728.128 1515.61 709.85 z" fill="rgb(21,19,20)" transform="translate(0,0)"></path>
<path d="M 1516.87 648.944 C 1528.67 649.02 1541.24 648.874 1552.96 649.555 C 1592.42 655.469 1621.51 673.147 1646.18 705.216 C 1658.8 721.623 1672.9 754.277 1671.57 775.336 C 1671.51 775.949 1671.17 779.038 1671.21 779.768 C 1671.11 783.245 1671.47 786.964 1669.96 789.784 C 1662.25 790.803 1647.29 790.296 1639.02 790.253 C 1637 719.045 1585.28 675.999 1516.16 673.753 C 1516.24 667.182 1516.45 660.538 1516.61 653.962 L 1516.87 648.944 z" fill="rgb(220,203,183)" transform="translate(0,0)"></path>
<path d="M 1630.55 807.253 C 1651.63 803.041 1672.16 816.606 1676.56 837.646 C 1680.96 858.686 1667.58 879.34 1646.57 883.924 C 1625.31 888.566 1604.34 874.978 1599.89 853.672 C 1595.43 832.367 1609.2 811.517 1630.55 807.253 z" fill="rgb(21,19,20)" transform="translate(0,0)"></path>
<path d="M 1797.63 896.975 L 1871.89 896.8 C 1873.08 903.797 1872.67 921.487 1872.68 929.651 L 1872.64 994.086 L 1873.11 1269.14 L 1737.1 1269.02 C 1727.93 1269.02 1686.71 1269.56 1679.93 1268.22 C 1678.48 1232.04 1679.35 1188.24 1679.34 1151.67 L 1679.99 1151.32 C 1684.79 1150.79 1689.6 1150.88 1694.42 1150.81 C 1724.23 1150.38 1754.08 1151.1 1783.87 1149.96 C 1828.51 1124.21 1862.18 1073.4 1862.41 1020.97 C 1862.52 997.455 1848.3 963.723 1836.9 943.138 C 1828.61 928.167 1810.23 908.925 1797.63 896.975 z" fill="rgb(12,65,136)" transform="translate(0,0)"></path>
<path d="M 1783.87 1149.96 L 1870.92 1149.71 C 1809.26 1190.45 1741.81 1227.35 1679.93 1268.22 C 1678.48 1232.04 1679.35 1188.24 1679.34 1151.67 L 1679.99 1151.32 C 1684.79 1150.79 1689.6 1150.88 1694.42 1150.81 C 1724.23 1150.38 1754.08 1151.1 1783.87 1149.96 z" fill="rgb(234,94,131)" transform="translate(0,0)"></path>
<path d="M 1679.99 1151.32 C 1679.35 1140.39 1681.32 1141.64 1691.78 1140.97 C 1720.49 1139.12 1746.69 1130.82 1770.14 1113.61 C 1795.78 1095.14 1813 1067.23 1818.01 1036.04 C 1822.49 1006.5 1817.17 979.448 1799.24 955.358 C 1778.82 928.085 1748.81 909.58 1715.27 903.582 C 1704.7 901.74 1692.09 901.712 1680.8 900.108 L 1680.56 898.855 C 1686.49 896.065 1784.04 896.704 1797.63 896.975 C 1810.23 908.925 1828.61 928.167 1836.9 943.138 C 1848.3 963.723 1862.52 997.455 1862.41 1020.97 C 1862.18 1073.4 1828.51 1124.21 1783.87 1149.96 C 1754.08 1151.1 1724.23 1150.38 1694.42 1150.81 C 1689.6 1150.88 1684.79 1150.79 1679.99 1151.32 z" fill="rgb(21,19,20)" transform="translate(0,0)"></path>
<path d="M 1515.19 901.621 C 1521.1 902.249 1527.66 902.337 1533.62 902.271 C 1562.27 901.953 1591.54 903.208 1620.12 901.81 C 1580.82 927.43 1555.84 948.068 1545.56 996.77 C 1530.89 1066.31 1568.27 1123.47 1631.27 1151.27 C 1623.42 1152.51 1605.89 1152.21 1597.24 1152.21 C 1579.58 1152.22 1560.33 1152.93 1542.81 1152.09 C 1532.94 1150.81 1523.19 1150.87 1513.25 1150.71 L 1512.99 1149.8 L 1513 1136.29 L 1513.21 1085.22 C 1514.58 1050.31 1513.98 999.514 1513.14 964.223 C 1512.53 948.979 1512.97 930.7 1512.84 915.113 C 1512.77 910.768 1513.07 905.774 1513.23 901.377 L 1515.19 901.621 z" fill="rgb(12,65,136)" transform="translate(0,0)"></path>
<path d="M 1868.85 753.926 L 1872.04 754.333 L 1872.19 754.87 C 1873.48 764.534 1873.83 889.191 1872.02 896.328 C 1871.33 864.491 1871.89 829.607 1872.03 797.687 L 1868.95 795.711 C 1869.68 792.271 1869.95 790.88 1870.32 787.344 C 1871.2 778.212 1870.71 772.488 1870.29 763.347 C 1869.92 759.501 1869.61 757.745 1868.85 753.926 z" fill="rgb(95,35,30)" transform="translate(0,0)"></path>
<path d="M 1870.32 787.344 C 1873.2 787.665 1872.02 795.236 1872.03 797.687 L 1868.95 795.711 C 1869.68 792.271 1869.95 790.88 1870.32 787.344 z" fill="rgb(197,61,38)" transform="translate(0,0)"></path>
<path d="M 1868.85 753.926 L 1872.04 754.333 L 1872.19 754.87 C 1872.06 756.586 1872.21 763.147 1871.27 763.876 C 1870.83 763.806 1871.13 763.905 1870.29 763.347 C 1869.92 759.501 1869.61 757.745 1868.85 753.926 z" fill="rgb(197,61,38)" transform="translate(0,0)"></path>
<path d="M 1672.69 919.366 C 1675.26 918.96 1675.25 918.749 1677.65 919.589 C 1680.33 924.706 1679.06 946.077 1678.96 953.758 C 1643.8 955.496 1615.01 982.739 1611.89 1017.88 C 1610.15 1036.04 1615.84 1054.12 1627.65 1068.01 C 1641.39 1083.99 1658.52 1090.76 1679.09 1092.22 L 1679.01 1128.09 C 1670.05 1127.48 1664.24 1126.66 1655.55 1124.79 C 1642.86 1121.5 1630.86 1115.96 1620.12 1108.44 C 1598.34 1093.02 1582.13 1068.01 1578.05 1041.58 C 1568.24 978.005 1610.99 928.591 1672.69 919.366 z" fill="rgb(21,19,20)" transform="translate(0,0)"></path>
<path d="M 1679.99 956.628 C 1702.93 956.923 1721.97 960.808 1739.35 976.974 C 1767.53 1003.18 1766.32 1040.44 1740.64 1067.67 C 1721.02 1085.02 1705 1087.7 1679.85 1088.22 C 1679.4 1044.75 1679.93 1000.19 1679.99 956.628 z" fill="rgb(21,19,20)" transform="translate(0,0)"></path>
<path d="M 181.254 775.862 C 241.565 775.765 309.904 777.275 369.726 775.329 L 371.428 776.186 C 371.511 777.826 371.736 779.879 371.492 781.438 C 370.493 819.475 371.012 860.864 371.149 899.066 C 384.07 898.837 396.992 898.77 409.914 898.864 C 415.801 898.016 435.99 898.432 442.835 898.402 C 466.635 898.412 490.434 898.191 514.23 897.74 C 521.223 898.055 526.174 898.157 533.149 897.851 L 533.759 898.057 L 533.861 909.989 C 533.599 925.715 534.208 943.485 533.62 958.691 C 532.248 992.598 534.715 1027.78 533.938 1061.79 C 533.796 1068.03 533.782 1075.51 534.102 1081.72 C 534.001 1089.24 532.97 1128.97 534.799 1133.07 L 534.74 1139.33 C 533.566 1142.77 532.798 1144.88 532.096 1148.42 C 505.051 1147.21 464.217 1148.94 436.247 1149.14 C 428.734 1151.95 381.899 1153.52 371.755 1153.98 C 358.758 1155.15 343.537 1155.08 330.372 1154.81 C 303.058 1154.26 274.438 1156.06 247.33 1154.9 C 225.693 1155.31 202.779 1154.96 181.045 1154.97 L 181.09 979.762 C 181.1 965.19 180.049 912.839 181.797 900.796 L 182.162 899.143 C 179.926 891.735 181.312 789.3 181.254 775.862 z" fill="rgb(234,67,27)" transform="translate(0,0)"></path>
<path d="M 270.983 900.969 C 302.294 899.339 339.253 900.064 371.049 899.992 L 370.958 916.714 C 329.219 916.275 297.547 921.493 267.009 951.107 C 183.382 1032.21 247.818 1153.53 358.316 1150.04 C 361.351 1149.95 368.742 1149.32 371.116 1151 L 371.755 1153.98 C 358.758 1155.15 343.537 1155.08 330.372 1154.81 C 303.058 1154.26 274.438 1156.06 247.33 1154.9 C 225.693 1155.31 202.779 1154.96 181.045 1154.97 L 181.09 979.762 C 181.1 965.19 180.049 912.839 181.797 900.796 C 210.543 901.061 242.927 899.938 270.983 900.969 z" fill="rgb(21,19,20)" transform="translate(0,0)"></path>
<path d="M 181.797 900.796 C 210.543 901.061 242.927 899.938 270.983 900.969 C 261.804 906.721 251.286 912.407 242.847 919.371 C 214.688 942.61 197.41 973.21 188.812 1008.37 C 179.38 1046.94 196.431 1082.75 215.647 1115.22 C 224.554 1130.27 238.855 1142.24 247.33 1154.9 C 225.693 1155.31 202.779 1154.96 181.045 1154.97 L 181.09 979.762 C 181.1 965.19 180.049 912.839 181.797 900.796 z" fill="rgb(12,65,136)" transform="translate(0,0)"></path>
<path d="M 514.23 897.74 C 521.223 898.055 526.174 898.157 533.149 897.851 L 533.759 898.057 L 533.861 909.989 C 533.599 925.715 534.208 943.485 533.62 958.691 C 532.248 992.598 534.715 1027.78 533.938 1061.79 C 533.796 1068.03 533.782 1075.51 534.102 1081.72 C 534.001 1089.24 532.97 1128.97 534.799 1133.07 L 534.74 1139.33 C 533.566 1142.77 532.798 1144.88 532.096 1148.42 C 505.051 1147.21 464.217 1148.94 436.247 1149.14 C 440.745 1145.92 447.179 1142.68 452.819 1138.61 C 472.515 1124.52 487.968 1105.29 497.496 1083.03 C 521.665 1027.19 507.92 970.514 463.774 929.396 C 447.209 913.968 430.33 907.561 409.914 898.864 C 415.801 898.016 435.99 898.432 442.835 898.402 C 466.635 898.412 490.434 898.191 514.23 897.74 z" fill="rgb(12,65,136)" transform="translate(0,0)"></path>
<path d="M 181.254 775.862 C 241.565 775.765 309.904 777.275 369.726 775.329 L 371.428 776.186 C 371.511 777.826 371.736 779.879 371.492 781.438 C 349.583 792.419 326.563 809.28 305.317 822.11 C 263.847 847.153 222.9 872.917 182.162 899.143 C 179.926 891.735 181.312 789.3 181.254 775.862 z" fill="rgb(12,65,136)" transform="translate(0,0)"></path>
<path d="M 371.287 924.834 C 488.152 931.844 518.222 1087.97 398.25 1131.47 C 389.211 1134.53 380.501 1136.16 371.106 1137.55 L 370.987 1100.25 C 388.549 1098.97 401.076 1095.2 414.795 1083.45 C 429.208 1071.29 438.098 1053.83 439.447 1035.02 C 440.74 1016.76 434.689 998.742 422.638 984.963 C 408.584 969.13 391.778 962.441 371.068 961.127 L 371.287 924.834 z" fill="rgb(21,19,20)" transform="translate(0,0)"></path>
<path d="M 354.013 967.38 C 358.087 966.815 366.181 966.713 370.603 966.543 C 371.441 1008.21 371.215 1056.42 370.337 1098.1 C 349.172 1097.48 338.223 1095.15 319.515 1085.31 L 318.245 1084.43 C 262.534 1045.76 289.567 975.605 354.013 967.38 z" fill="rgb(21,19,20)" transform="translate(0,0)"></path>
<path d="M 1679.86 1269.25 C 1690.48 1279.27 1702.32 1286.78 1714.07 1295.3 C 1759.76 1328.44 1804.39 1363.66 1851.28 1395.11 C 1857.17 1395.29 1864.22 1395.34 1869.98 1395.81 C 1869.98 1413.67 1868.56 1533.14 1871.56 1541.3 C 1875.45 1546.19 1871.88 1583.09 1870.12 1590.22 C 1863.77 1615.62 1847.38 1637.34 1824.71 1650.42 C 1802.81 1663.09 1776.81 1666.66 1752.31 1660.36 C 1727.27 1653.73 1705.89 1637.44 1692.86 1615.05 C 1681.97 1596.24 1679.07 1577.25 1678.5 1555.8 C 1678.38 1551.2 1677.92 1545.17 1679.08 1540.92 C 1680.96 1535.87 1682.09 1524.9 1683.13 1519.15 C 1695.77 1448.76 1749.48 1410.09 1815.73 1397.66 C 1815.37 1395.44 1813.34 1395.93 1811.18 1395.8 L 1809.44 1395.59 C 1768.84 1397.43 1721.12 1395.57 1679.79 1395.75 L 1679.86 1269.25 z" fill="rgb(234,94,131)" transform="translate(0,0)"></path>
<path d="M 1679.08 1540.92 C 1706.54 1540.22 1735.87 1540.88 1763.48 1541 L 1871.56 1541.3 C 1875.45 1546.19 1871.88 1583.09 1870.12 1590.22 C 1863.77 1615.62 1847.38 1637.34 1824.71 1650.42 C 1802.81 1663.09 1776.81 1666.66 1752.31 1660.36 C 1727.27 1653.73 1705.89 1637.44 1692.86 1615.05 C 1681.97 1596.24 1679.07 1577.25 1678.5 1555.8 C 1678.38 1551.2 1677.92 1545.17 1679.08 1540.92 z" fill="rgb(220,203,183)" transform="translate(0,0)"></path>
<path d="M 1809.44 1395.59 C 1816.26 1394.87 1822.87 1395 1829.71 1394.99 C 1824.16 1396.52 1821.63 1397.2 1815.73 1397.66 C 1815.37 1395.44 1813.34 1395.93 1811.18 1395.8 L 1809.44 1395.59 z" fill="rgb(125,36,60)" transform="translate(0,0)"></path>
<path d="M 181.229 504.222 C 180.974 503.275 180.719 502.453 180.641 501.449 C 178.533 474.486 181.461 450.548 197.863 428.426 C 213.916 406.774 236.41 392.345 262.723 388.497 C 288.06 384.879 313.788 391.584 334.136 407.109 C 364.379 429.764 371.273 454.134 376.11 489.119 C 376.376 488.939 377.813 487.909 378.329 487.689 L 378.28 487.679 L 378.317 488.508 C 375.568 491.521 377.441 497.25 378.087 501.213 L 377.749 504.994 C 374.672 504.168 376.327 501.75 375.903 497.502 L 374.98 503.903 C 368.182 551.112 356.559 584.054 316.141 614.553 C 294.416 631.062 269.001 642.039 242.088 646.537 C 251.059 652.416 352.326 643.325 370.983 648.446 L 371.066 731.626 C 371.084 744.521 370.568 763.722 371.428 776.186 L 369.726 775.329 C 362.291 768.198 349.331 759.458 340.754 753.439 L 293.826 720.525 C 262.409 698.08 234.416 675.052 201.835 653.12 L 182.241 652.995 L 182.386 553.847 C 182.396 544.325 182.972 511.443 181.229 504.222 z" fill="rgb(234,94,131)" transform="translate(0,0)"></path>
<path d="M 181.229 504.222 C 180.974 503.275 180.719 502.453 180.641 501.449 C 178.533 474.486 181.461 450.548 197.863 428.426 C 213.916 406.774 236.41 392.345 262.723 388.497 C 288.06 384.879 313.788 391.584 334.136 407.109 C 364.379 429.764 371.273 454.134 376.11 489.119 C 376.376 488.939 377.813 487.909 378.329 487.689 L 378.28 487.679 L 378.317 488.508 C 375.568 491.521 377.441 497.25 378.087 501.213 L 377.749 504.994 C 374.672 504.168 376.327 501.75 375.903 497.502 L 374.98 503.903 L 250.473 503.95 C 228.22 504.002 203.257 503.478 181.229 504.222 z" fill="rgb(220,203,183)" transform="translate(0,0)"></path>
<path d="M 376.11 489.119 C 376.376 488.939 377.813 487.909 378.329 487.689 L 378.28 487.679 L 378.317 488.508 C 375.568 491.521 377.441 497.25 378.087 501.213 L 377.749 504.994 C 374.672 504.168 376.327 501.75 375.903 497.502 C 375.717 494.49 375.791 492.097 376.11 489.119 z" fill="rgb(3,1,1)" transform="translate(0,0)"></path>
<path d="M 232.638 649.017 C 236.466 647.302 237.867 647.246 242.088 646.537 C 251.059 652.416 352.326 643.325 370.983 648.446 C 363.281 649.553 335.319 648.992 326.685 648.986 L 232.638 649.017 z" fill="rgb(63,27,33)" transform="translate(0,0)"></path>
<path d="M 371.755 1153.98 C 370.93 1161.85 370.49 1186.06 372.246 1193.22 C 370.881 1202.89 372.233 1207.55 371.685 1215.57 C 370.507 1224.76 370.114 1248.41 372.466 1256.9 C 372.774 1260.71 373.123 1263.61 372.866 1267.41 C 372.986 1270.85 373.197 1273.33 372.767 1276.79 C 372.874 1280.02 372.814 1282.9 373.438 1286.07 C 371.409 1289.38 371.894 1290.31 371.202 1294.23 C 370.052 1325.42 370.635 1359.33 370.724 1390.65 C 277.836 1392.77 206.881 1445.11 183.456 1535.97 L 180.98 1534.1 L 180.962 1300.18 C 180.919 1296.78 180.956 1293.54 180.85 1290.12 C 180.707 1285.46 181.51 1282.31 181.488 1278 C 181.469 1274.29 180.775 1271.44 180.708 1267.32 C 181.164 1262.52 180.899 1256.83 181.111 1251.76 C 180.39 1220.49 181.061 1186.47 181.045 1154.97 C 202.779 1154.96 225.693 1155.31 247.33 1154.9 C 274.438 1156.06 303.058 1154.26 330.372 1154.81 C 343.537 1155.08 358.758 1155.15 371.755 1153.98 z" fill="rgb(21,19,20)" transform="translate(0,0)"></path>
<path d="M 367.978 1291.61 L 370.658 1292.26 L 371.202 1294.23 C 370.052 1325.42 370.635 1359.33 370.724 1390.65 C 277.836 1392.77 206.881 1445.11 183.456 1535.97 L 180.98 1534.1 L 180.962 1300.18 L 183.845 1300 C 193.274 1334.36 218.919 1361.71 254.368 1369.39 C 278.716 1374.46 304.08 1369.63 324.866 1355.98 C 348.277 1340.74 362.077 1318.73 367.978 1291.61 z" fill="rgb(234,67,27)" transform="translate(0,0)"></path>
<path d="M 371.755 1153.98 C 370.93 1161.85 370.49 1186.06 372.246 1193.22 C 370.881 1202.89 372.233 1207.55 371.685 1215.57 C 370.507 1224.76 370.114 1248.41 372.466 1256.9 C 372.774 1260.71 373.123 1263.61 372.866 1267.41 C 371.715 1268.92 370.63 1270.36 369.412 1271.82 C 367.251 1261.52 363.704 1251.56 358.868 1242.22 C 317.045 1162.72 208.056 1173.03 183.569 1259.65 C 183.257 1262.41 183.1 1264.25 183.211 1267.02 L 180.708 1267.32 C 181.164 1262.52 180.899 1256.83 181.111 1251.76 C 180.39 1220.49 181.061 1186.47 181.045 1154.97 C 202.779 1154.96 225.693 1155.31 247.33 1154.9 C 274.438 1156.06 303.058 1154.26 330.372 1154.81 C 343.537 1155.08 358.758 1155.15 371.755 1153.98 z" fill="rgb(234,67,27)" transform="translate(0,0)"></path>
<path d="M 181.111 1251.76 C 181.566 1254.56 180.901 1258.84 183.569 1259.65 C 183.257 1262.41 183.1 1264.25 183.211 1267.02 L 180.708 1267.32 C 181.164 1262.52 180.899 1256.83 181.111 1251.76 z" fill="rgb(197,61,38)" transform="translate(0,0)"></path>
<path d="M 369.412 1271.82 C 370.63 1270.36 371.715 1268.92 372.866 1267.41 C 372.986 1270.85 373.197 1273.33 372.767 1276.79 C 372.874 1280.02 372.814 1282.9 373.438 1286.07 C 371.409 1289.38 371.894 1290.31 371.202 1294.23 L 370.658 1292.26 L 367.978 1291.61 C 368.591 1284.14 369.011 1279.51 369.412 1271.82 z" fill="rgb(197,61,38)" transform="translate(0,0)"></path>
<path d="M 370.658 1292.26 C 371.344 1284.73 369.33 1281.34 372.767 1276.79 C 372.874 1280.02 372.814 1282.9 373.438 1286.07 C 371.409 1289.38 371.894 1290.31 371.202 1294.23 L 370.658 1292.26 z" fill="rgb(95,35,30)" transform="translate(0,0)"></path>
<path d="M 183.211 1267.02 L 183.081 1269.01 C 182.779 1273.34 180.265 1275.18 182.16 1280.01 C 182.487 1280.85 183.01 1291.71 183.003 1292.98 L 180.85 1290.12 C 180.707 1285.46 181.51 1282.31 181.488 1278 C 181.469 1274.29 180.775 1271.44 180.708 1267.32 L 183.211 1267.02 z" fill="rgb(63,27,33)" transform="translate(0,0)"></path>
<path d="M 180.85 1290.12 L 183.003 1292.98 C 183.117 1296.25 183.195 1296.77 183.845 1300 L 180.962 1300.18 C 180.919 1296.78 180.956 1293.54 180.85 1290.12 z" fill="rgb(197,61,38)" transform="translate(0,0)"></path>
<path d="M 264.625 1230.53 C 290.808 1225.48 316.115 1242.66 321.073 1268.86 C 326.032 1295.07 308.755 1320.31 282.535 1325.17 C 256.45 1330.01 231.365 1312.84 226.432 1286.77 C 221.499 1260.71 238.576 1235.56 264.625 1230.53 z" fill="rgb(234,94,131)" transform="translate(0,0)"></path>
<path d="M 1025.58 1573.11 L 1028.73 1571.18 C 1043.47 1615.68 1067.61 1644.68 1113.89 1658.09 L 1113.79 1671.76 C 1147 1671.1 1190.8 1669.97 1223.53 1671.96 C 1223.89 1672.36 1224.24 1672.77 1224.6 1673.17 C 1208.1 1687.06 1187.58 1709.31 1172.11 1725.36 C 1153.66 1744.49 1132.59 1765.31 1115.33 1785.09 L 1020.75 1881.98 C 1017.03 1880.17 994.222 1857.2 988.885 1852.14 L 856.129 1724.66 C 845.513 1714.56 834.968 1704.39 824.496 1694.14 C 818.98 1688.73 809.873 1679.14 804.048 1674.82 L 802.72 1675.16 L 802.271 1673.48 C 808.619 1669.12 894.156 1676.46 907.111 1670.44 C 970.375 1680.21 1018.53 1634.33 1025.58 1573.11 z" fill="rgb(234,94,131)" transform="translate(0,0)"></path>
<path d="M 1020.24 1672.02 C 1049.1 1672.33 1085.33 1672.87 1113.79 1671.76 C 1147 1671.1 1190.8 1669.97 1223.53 1671.96 C 1223.89 1672.36 1224.24 1672.77 1224.6 1673.17 C 1208.1 1687.06 1187.58 1709.31 1172.11 1725.36 C 1153.66 1744.49 1132.59 1765.31 1115.33 1785.09 L 1020.75 1881.98 C 1021.66 1856.6 1020.97 1827.21 1020.95 1801.58 C 1021.07 1758.39 1020.83 1715.2 1020.24 1672.02 z" fill="rgb(234,67,27)" transform="translate(0,0)"></path>
<path d="M 1029 168.36 L 1031.93 165.661 C 1035.63 166.023 1062.96 193.924 1068.49 199.228 C 1091.43 221.091 1114.27 243.072 1136.99 265.17 C 1161.34 288.92 1185.5 312.874 1209.45 337.029 C 1219.52 347.049 1235.22 361.209 1244.2 371.311 C 1237.19 375.782 1151.25 370.163 1143.15 374.327 C 1114.44 369.58 1088.96 375.398 1064.96 392.045 C 1042.67 407.509 1022.42 439.979 1021.96 467.574 C 1021.98 469.545 1022.19 481.867 1021.44 483.021 C 1020 483.804 1019.63 477.454 1019.58 476.951 C 1016.19 463.867 1010.9 451.352 1003.87 439.809 C 988.057 413.502 963.22 393.444 933.2 386.104 L 933.265 373.896 C 924.789 374.841 894.609 374.386 885.007 374.275 C 871.377 374.119 840.721 375.17 828.596 373.566 C 860.905 340.816 892.941 307.798 924.701 274.516 C 941.495 258.218 958.174 240.031 974.662 223.179 C 992.371 205.079 1011.88 186.783 1029 168.36 z" fill="rgb(234,94,131)" transform="translate(0,0)"></path>
<path d="M 1029 168.36 C 1028.86 233.909 1030.37 308.431 1028.16 373.222 L 967.247 372.99 C 959.765 372.972 939.601 372.637 933.265 373.896 C 924.789 374.841 894.609 374.386 885.007 374.275 C 871.377 374.119 840.721 375.17 828.596 373.566 C 860.905 340.816 892.941 307.798 924.701 274.516 C 941.495 258.218 958.174 240.031 974.662 223.179 C 992.371 205.079 1011.88 186.783 1029 168.36 z" fill="rgb(234,67,27)" transform="translate(0,0)"></path>
<path d="M 1019.58 476.951 C 1021.35 473.631 1021.08 471.294 1021.96 467.574 C 1021.98 469.545 1022.19 481.867 1021.44 483.021 C 1020 483.804 1019.63 477.454 1019.58 476.951 z" fill="rgb(63,27,33)" transform="translate(0,0)"></path>
<path d="M 1517.12 163.896 L 1678.71 163.898 C 1678.86 166.809 1678.71 170.461 1678.68 173.442 C 1677.36 183.818 1678.83 195.175 1677.79 203.946 C 1679.65 208.488 1678.98 224.311 1678.82 229.87 C 1675.24 273.119 1677.21 329.401 1676.85 373.992 L 1577.49 374.058 C 1563.45 374.095 1533.2 373.742 1520.12 375.536 L 1518.3 374.705 L 1517.47 372.74 C 1516.63 361.487 1517.22 341.05 1517.21 329.319 L 1517.26 240.91 C 1517.27 230.548 1517.84 202.606 1516.13 193.899 C 1516.51 183.17 1517.07 174.965 1517.12 163.896 z" fill="rgb(234,67,27)" transform="translate(0,0)"></path>
<path d="M 1677.79 203.946 C 1679.65 208.488 1678.98 224.311 1678.82 229.87 C 1675.24 273.119 1677.21 329.401 1676.85 373.992 L 1577.49 374.058 C 1563.45 374.095 1533.2 373.742 1520.12 375.536 L 1518.3 374.705 C 1524.27 366.836 1538.16 352.776 1545.31 345.218 L 1594.18 293.671 C 1609.73 277.335 1625.12 260.849 1640.35 244.214 C 1652.35 231.046 1665.09 216.263 1677.79 203.946 z" fill="rgb(12,65,136)" transform="translate(0,0)"></path>
<path d="M 530.973 1672.78 C 532.69 1681.05 532.083 1710.65 532.072 1720.26 L 531.935 1811.69 C 531.924 1818.82 531.507 1841.87 532.944 1847.49 C 531.556 1861.32 531.051 1871.12 531.15 1884.83 L 419.534 1885.06 C 411.581 1885.08 378.119 1885.6 373.157 1884.42 C 371.495 1881.15 371.956 1878.56 372.03 1874.85 L 369.822 1873.65 C 370.89 1864.93 369.286 1851.4 370.691 1843.8 L 372.636 1843.31 L 374.253 1841.21 C 372.932 1832.27 373.273 1791.53 373.306 1781.37 C 373.435 1746.23 373.308 1711.09 372.927 1675.96 C 405.251 1675.98 437.575 1675.78 469.897 1675.37 C 485.68 1675.17 512.992 1674.13 528.109 1675.23 L 530.973 1672.78 z" fill="rgb(234,67,27)" transform="translate(0,0)"></path>
<path d="M 372.927 1675.96 C 405.251 1675.98 437.575 1675.78 469.897 1675.37 C 485.68 1675.17 512.992 1674.13 528.109 1675.23 C 519.802 1683.44 511.665 1691.81 503.807 1700.44 C 460.924 1747.57 416.831 1793.81 374.253 1841.21 C 372.932 1832.27 373.273 1791.53 373.306 1781.37 C 373.435 1746.23 373.308 1711.09 372.927 1675.96 z" fill="rgb(12,65,136)" transform="translate(0,0)"></path>
<path d="M 369.822 1873.65 C 370.89 1864.93 369.286 1851.4 370.691 1843.8 L 372.636 1843.31 C 372.1 1853.62 372.526 1864.2 372.03 1874.85 L 369.822 1873.65 z" fill="rgb(95,35,30)" transform="translate(0,0)"></path>
<path d="M 1512 1405.87 C 1588.32 1405.27 1663.72 1455.21 1669.67 1537.52 C 1672.07 1570.71 1646.71 1607.14 1624.78 1630.34 C 1591.32 1660.28 1556.09 1674.34 1511.11 1674.73 L 1512 1405.87 z" fill="rgb(234,94,131)" transform="translate(0,0)"></path>
<path d="M 378.087 501.213 C 396.201 423.664 455.872 372.658 536.388 372.837 C 536.45 411.712 536.521 450.586 536.504 489.461 C 536.499 502.248 534.38 514.886 534.316 527.531 C 534.121 566.033 534.264 604.633 534.408 643.129 C 486.796 640.511 445.089 627.625 412.048 590.997 C 390.505 567.474 378.306 536.886 377.749 504.994 L 378.087 501.213 z" fill="rgb(234,94,131)" transform="translate(0,0)"></path>
<path d="M 1224.6 1673.17 C 1230.1 1675.05 1234.5 1674.82 1240.25 1674.93 L 1344.36 1675.01 C 1344.98 1674.94 1345.53 1674.7 1346.13 1674.49 L 1347.91 1676.81 C 1346.4 1677.12 1344.97 1677.4 1343.47 1677.79 C 1311.66 1690.34 1284.45 1709.58 1270.35 1741.84 C 1259.49 1766.38 1258.98 1794.27 1268.95 1819.19 C 1280.4 1848.24 1303.46 1870.68 1331.99 1883 C 1338.36 1885.76 1344.97 1887.91 1351.75 1889.4 C 1354.72 1889.87 1356.04 1889.66 1358.32 1891.25 C 1349.71 1892.76 1327.16 1892.09 1317.12 1892.06 C 1291.72 1891.9 1266.33 1891.92 1240.93 1892.13 C 1233.94 1895.54 1131.16 1894.08 1115.8 1894.07 C 1115.41 1861.47 1117.42 1816.51 1115.33 1785.09 C 1132.59 1765.31 1153.66 1744.49 1172.11 1725.36 C 1187.58 1709.31 1208.1 1687.06 1224.6 1673.17 z" fill="rgb(12,65,136)" transform="translate(0,0)"></path>
<path d="M 1346.13 1674.49 L 1347.91 1676.81 C 1346.4 1677.12 1344.97 1677.4 1343.47 1677.79 C 1311.66 1690.34 1284.45 1709.58 1270.35 1741.84 C 1259.49 1766.38 1258.98 1794.27 1268.95 1819.19 C 1280.4 1848.24 1303.46 1870.68 1331.99 1883 C 1338.36 1885.76 1344.97 1887.91 1351.75 1889.4 C 1354.72 1889.87 1356.04 1889.66 1358.32 1891.25 C 1349.71 1892.76 1327.16 1892.09 1317.12 1892.06 C 1291.72 1891.9 1266.33 1891.92 1240.93 1892.13 L 1240.66 1891.22 C 1239.51 1884.33 1240.41 1842.8 1240.38 1832.61 L 1240.25 1674.93 L 1344.36 1675.01 C 1344.98 1674.94 1345.53 1674.7 1346.13 1674.49 z" fill="rgb(220,203,183)" transform="translate(0,0)"></path>
<path d="M 1351.75 1889.4 C 1354.72 1889.87 1356.04 1889.66 1358.32 1891.25 C 1349.71 1892.76 1327.16 1892.09 1317.12 1892.06 C 1291.72 1891.9 1266.33 1891.92 1240.93 1892.13 L 1240.66 1891.22 C 1274.86 1890.65 1318.09 1892.65 1350.98 1890.79 L 1351.75 1889.4 z" fill="rgb(109,102,104)" transform="translate(0,0)"></path>
<path d="M 1346.13 1674.49 L 1347.91 1676.81 C 1346.4 1677.12 1344.97 1677.4 1343.47 1677.79 L 1344.36 1675.01 C 1344.98 1674.94 1345.53 1674.7 1346.13 1674.49 z" fill="rgb(193,180,174)" transform="translate(0,0)"></path>
<path d="M 808.392 155.681 C 817.026 154.432 838.976 154.951 848.697 154.937 L 924.353 154.857 L 924.701 274.516 C 892.941 307.798 860.905 340.816 828.596 373.566 C 825.011 372.842 813.202 373 808.894 372.969 L 707.442 373.104 L 704.846 370.292 C 742.033 357.434 773.191 331.238 783.465 292.049 C 790.503 265.731 786.773 237.694 773.098 214.132 C 756.055 185.338 730.176 166.748 697.958 158.667 C 693.711 158.3 688.394 157.398 684.114 156.756 C 691.236 156.207 707.716 155.152 714.654 156.147 C 740.439 156.132 783.447 157.445 808.392 155.681 z" fill="rgb(12,65,136)" transform="translate(0,0)"></path>
<path d="M 684.114 156.756 C 691.236 156.207 707.716 155.152 714.654 156.147 C 740.439 156.132 783.447 157.445 808.392 155.681 L 808.894 372.969 L 707.442 373.104 L 704.846 370.292 C 742.033 357.434 773.191 331.238 783.465 292.049 C 790.503 265.731 786.773 237.694 773.098 214.132 C 756.055 185.338 730.176 166.748 697.958 158.667 C 693.711 158.3 688.394 157.398 684.114 156.756 z" fill="rgb(220,203,183)" transform="translate(0,0)"></path>
<path d="M 684.114 156.756 C 691.236 156.207 707.716 155.152 714.654 156.147 C 709.875 157.594 699.415 154.316 697.958 158.667 C 693.711 158.3 688.394 157.398 684.114 156.756 z" fill="rgb(144,125,116)" transform="translate(0,0)"></path>
<path d="M 1144.17 1141.88 C 1144.18 1133.2 1144.19 1125.33 1144.73 1116.64 L 1144.79 1140.95 C 1155.65 1140.79 1165.9 1140.54 1176.77 1141.13 C 1181.84 1142.53 1204.1 1142.21 1209.86 1141.64 C 1220.79 1141.04 1231.05 1141.15 1241.98 1141.21 L 1245.21 1142.07 L 1244.78 1145.15 C 1223.81 1166.95 1202.91 1188.92 1181.77 1210.54 C 1161.74 1231.04 1140.94 1250.84 1121.16 1271.59 L 1120.6 1272.86 L 1120.91 1273.67 L 1120.9 1401.04 L 1118.82 1403.22 C 1076.73 1359.9 1035 1316.23 993.638 1272.21 C 990.025 1269.97 936.016 1270.98 927.186 1271 C 933.503 1260.47 959.056 1230.36 967.788 1220.09 C 986.26 1198.37 1005.27 1173.19 1024.01 1152.22 C 1033.36 1161.63 1048.49 1181.87 1057.18 1192.81 C 1077.29 1218.44 1097.86 1243.71 1118.9 1268.59 C 1119.96 1227.36 1118.92 1183.39 1119.25 1141.77 C 1127.41 1142.03 1135.98 1141.89 1144.17 1141.88 z" fill="rgb(234,94,131)" transform="translate(0,0)"></path>
<path d="M 993.638 1272.21 C 1019.57 1270.87 1049.35 1272.61 1075.65 1272.04 C 1083.12 1271.88 1115.62 1271.76 1120.6 1272.86 L 1120.91 1273.67 L 1120.9 1401.04 L 1118.82 1403.22 C 1076.73 1359.9 1035 1316.23 993.638 1272.21 z" fill="rgb(220,203,183)" transform="translate(0,0)"></path>
<path d="M 1516.13 193.899 C 1517.84 202.606 1517.27 230.548 1517.26 240.91 L 1517.21 329.319 C 1517.22 341.05 1516.63 361.487 1517.47 372.74 L 1515.83 374.357 L 1431.7 373.955 C 1415.18 373.918 1394.86 374.419 1378.83 373.279 C 1336.66 371.985 1287.62 373.14 1244.93 373.114 C 1243.49 380.26 1244.09 409.079 1244.1 417.684 L 1244.03 510.031 L 1216.86 510.164 L 1216.56 509.235 C 1231.35 447.603 1204.21 394.461 1143.15 374.327 C 1151.25 370.163 1237.19 375.782 1244.2 371.311 C 1243.8 361.533 1244.2 349.672 1244.26 339.743 C 1243.15 295.033 1244.3 247.11 1243.98 201.951 L 1246.03 203.198 L 1246.48 207.164 C 1251.58 227.172 1256.37 240.593 1267.65 258.101 C 1307.32 319.682 1391.38 338.689 1452.7 297.56 C 1491.71 271.396 1507.55 239.04 1516.13 193.899 z" fill="rgb(220,203,183)" transform="translate(0,0)"></path>
<path d="M 1243.98 201.951 L 1246.03 203.198 L 1246.48 207.164 C 1241.06 217.862 1248.98 332.123 1244.26 339.743 C 1243.15 295.033 1244.3 247.11 1243.98 201.951 z" fill="rgb(193,180,174)" transform="translate(0,0)"></path>
<path d="M 1376.62 1391.03 C 1379.02 1392.71 1379.35 1393.16 1380.75 1395.74 C 1388.95 1397.19 1406.61 1396.59 1415.84 1396.55 C 1437.02 1396.44 1458.21 1396.46 1479.39 1396.63 C 1487.62 1396.68 1503.06 1396.26 1510.32 1396.98 C 1487.31 1419.83 1462.74 1446.24 1439.75 1469.2 C 1429.68 1479.25 1380.34 1526.77 1375.38 1535.04 L 1376.02 1535.5 L 1374.91 1536.57 C 1334.57 1538.31 1284.1 1537.08 1243.05 1537.42 L 1243.29 1455.99 C 1243.36 1447.51 1244.45 1423 1243.01 1416.46 C 1243.64 1409.12 1243.86 1403.99 1243.84 1396.62 C 1248.85 1395.9 1253.92 1396.18 1259.01 1396.26 C 1295.28 1396.07 1339.36 1397.31 1374.79 1395.98 L 1376 1394.73 L 1376.62 1391.03 z" fill="rgb(234,94,131)" transform="translate(0,0)"></path>
<path d="M 1376.62 1391.03 C 1379.02 1392.71 1379.35 1393.16 1380.75 1395.74 C 1388.95 1397.19 1406.61 1396.59 1415.84 1396.55 C 1437.02 1396.44 1458.21 1396.46 1479.39 1396.63 C 1487.62 1396.68 1503.06 1396.26 1510.32 1396.98 C 1487.31 1419.83 1462.74 1446.24 1439.75 1469.2 C 1429.68 1479.25 1380.34 1526.77 1375.38 1535.04 L 1374.68 1532.45 C 1375.49 1517.2 1374.97 1498.03 1374.95 1482.53 L 1374.79 1395.98 L 1376 1394.73 L 1376.62 1391.03 z" fill="rgb(234,67,27)" transform="translate(0,0)"></path>
<path d="M 1259.01 1396.26 C 1295.28 1396.07 1339.36 1397.31 1374.79 1395.98 L 1374.95 1482.53 C 1374.97 1498.03 1375.49 1517.2 1374.68 1532.45 C 1348.77 1504.42 1322.66 1476.59 1296.35 1448.95 C 1283.66 1435.42 1259.76 1408.47 1246.3 1396.92 L 1259.01 1396.26 z" fill="rgb(21,19,20)" transform="translate(0,0)"></path>
<path d="M 536.932 157.388 C 540.081 155.111 630.836 155.935 642.308 155.929 C 642.962 156.831 643.279 157.402 643.83 158.357 C 609.696 167.658 583.882 183.493 566.015 215.125 C 552.393 238.841 548.809 267.015 556.058 293.387 C 564.3 321.679 583.564 345.473 609.52 359.424 C 618.941 364.523 628.934 368.486 639.289 371.231 C 630.824 372.748 618.165 371.692 609.076 371.907 C 586.222 372.448 559.466 370.544 536.985 371.981 L 536.138 370.75 C 526.845 357.985 507.119 337.543 496.207 324.171 C 457.25 276.435 412.929 228.843 374.823 180.777 L 374.597 167.928 C 374.564 164.479 374.179 161.858 375.607 158.768 C 379.928 157.429 399.457 157.913 405.137 157.933 L 490.331 158.404 C 500.624 158.466 528.634 159.248 536.932 157.388 z" fill="rgb(234,67,27)" transform="translate(0,0)"></path>
<path d="M 536.932 157.388 C 540.081 155.111 630.836 155.935 642.308 155.929 C 642.962 156.831 643.279 157.402 643.83 158.357 C 609.696 167.658 583.882 183.493 566.015 215.125 C 552.393 238.841 548.809 267.015 556.058 293.387 C 564.3 321.679 583.564 345.473 609.52 359.424 C 618.941 364.523 628.934 368.486 639.289 371.231 C 630.824 372.748 618.165 371.692 609.076 371.907 C 586.222 372.448 559.466 370.544 536.985 371.981 L 536.138 370.75 L 536.932 157.388 z" fill="rgb(220,203,183)" transform="translate(0,0)"></path>
<path d="M 672.158 512.803 C 681.707 512.125 691.886 512.159 701.504 512.174 C 735.224 512.227 769.154 511.266 802.853 511.975 C 802.874 530.695 800.828 631.269 803.424 639.671 L 802.629 654.073 L 802.235 654.037 L 801.134 651.891 C 783.124 652.27 681.411 654.186 671.881 651.223 L 670.868 648.864 L 668.941 648.724 C 665.252 648.193 660.058 648.551 656.19 648.532 C 618.115 648.345 579.856 649.334 541.796 648.598 C 551.805 638.8 563.146 626.265 573.175 615.928 L 670.948 513.881 L 670.991 513.376 L 672.158 512.803 z" fill="rgb(21,19,20)" transform="translate(0,0)"></path>
<path d="M 672.158 512.803 C 681.707 512.125 691.886 512.159 701.504 512.174 C 735.224 512.227 769.154 511.266 802.853 511.975 C 802.874 530.695 800.828 631.269 803.424 639.671 L 802.629 654.073 L 802.235 654.037 L 801.134 651.891 C 775.199 626.899 750.986 600.828 726.583 574.385 C 708.919 555.243 689.07 535.446 672.306 515.772 L 670.948 513.881 L 670.991 513.376 L 672.158 512.803 z" fill="rgb(234,94,131)" transform="translate(0,0)"></path>
<path d="M 670.948 513.881 L 672.306 515.772 C 671.231 528.82 671.698 543.829 671.447 557.038 C 670.869 587.464 671.751 618.494 670.868 648.864 L 668.941 648.724 C 665.252 648.193 660.058 648.551 656.19 648.532 C 618.115 648.345 579.856 649.334 541.796 648.598 C 551.805 638.8 563.146 626.265 573.175 615.928 L 670.948 513.881 z" fill="rgb(234,67,27)" transform="translate(0,0)"></path>
<path d="M 176.897 1704.65 C 176.641 1678.58 177.037 1654.22 191.573 1631.18 C 204.556 1610.47 225.278 1595.82 249.124 1590.48 C 299.177 1579.67 347.79 1606.39 361.85 1656.37 C 363.835 1663.43 365.312 1670.19 366.787 1677.37 C 367.988 1685.72 366.687 1695.04 365.059 1703.27 C 356.598 1746.06 318.585 1772.68 285.76 1796.98 L 285.057 1796.93 L 282.136 1795.94 C 245.82 1766.07 228.748 1752.69 218.016 1704.27 C 204.629 1704.78 190.367 1704.61 176.897 1704.65 z" fill="rgb(234,94,131)" transform="translate(0,0)"></path>
<path d="M 366.787 1677.37 C 367.988 1685.72 366.687 1695.04 365.059 1703.27 C 356.598 1746.06 318.585 1772.68 285.76 1796.98 L 285.057 1796.93 L 282.136 1795.94 C 245.82 1766.07 228.748 1752.69 218.016 1704.27 C 217.264 1697.59 217.444 1684.98 217.336 1677.85 C 267.153 1678.01 316.971 1677.86 366.787 1677.37 z" fill="rgb(12,65,136)" transform="translate(0,0)"></path>
<path d="M 1509.25 1674.29 L 1510.56 1675.16 C 1510.83 1678.88 1511 1682.62 1511.07 1686.35 L 1613.49 1804.83 C 1633.66 1828.63 1657.08 1858.12 1678.16 1880.69 L 1678.28 1882.33 C 1678.71 1885.44 1679.34 1887.61 1678.35 1890.55 C 1671.62 1891.91 1648.32 1891.37 1640.41 1891.36 L 1555.41 1891.29 C 1545.95 1891.29 1519.77 1890.73 1511.05 1891.83 C 1484.35 1893.39 1442.25 1891.95 1414.48 1891.95 C 1410.05 1892.05 1403.15 1892.3 1398.98 1891.55 L 1398.99 1891.44 C 1400.64 1890.31 1403.51 1889.98 1405.44 1889.97 C 1418.82 1887.41 1431.63 1882.46 1443.26 1875.38 C 1468.4 1859.97 1488.39 1835.04 1495.09 1806.02 C 1501.46 1778.72 1496.6 1750.01 1481.62 1726.31 C 1464.05 1698.28 1435.48 1682.03 1403.89 1674.76 C 1410.22 1673.54 1434.2 1673.83 1442.27 1673.9 C 1464.23 1674.1 1487.41 1673.49 1509.25 1674.29 z" fill="rgb(234,94,131)" transform="translate(0,0)"></path>
<path d="M 1509.25 1674.29 L 1510.56 1675.16 C 1510.83 1678.88 1511 1682.62 1511.07 1686.35 L 1511.05 1891.83 C 1484.35 1893.39 1442.25 1891.95 1414.48 1891.95 C 1410.05 1892.05 1403.15 1892.3 1398.98 1891.55 L 1398.99 1891.44 C 1400.64 1890.31 1403.51 1889.98 1405.44 1889.97 C 1418.82 1887.41 1431.63 1882.46 1443.26 1875.38 C 1468.4 1859.97 1488.39 1835.04 1495.09 1806.02 C 1501.46 1778.72 1496.6 1750.01 1481.62 1726.31 C 1464.05 1698.28 1435.48 1682.03 1403.89 1674.76 C 1410.22 1673.54 1434.2 1673.83 1442.27 1673.9 C 1464.23 1674.1 1487.41 1673.49 1509.25 1674.29 z" fill="rgb(220,203,183)" transform="translate(0,0)"></path>
<path d="M 1414.48 1891.95 C 1410.05 1892.05 1403.15 1892.3 1398.98 1891.55 L 1398.99 1891.44 C 1400.64 1890.31 1403.51 1889.98 1405.44 1889.97 C 1408.81 1890.88 1411.05 1891.34 1414.48 1891.95 z" fill="rgb(144,125,116)" transform="translate(0,0)"></path>
<path d="M 1764.82 252.63 C 1799.08 282.544 1821.25 296.374 1832.28 345.168 L 1872.48 345.262 C 1872.45 381.715 1873.04 406.57 1844.71 434.538 C 1827.23 451.776 1803.63 461.381 1779.09 461.247 C 1753.31 460.978 1728.69 450.48 1710.65 432.063 C 1690.05 410.908 1690.03 398.633 1683.87 373.358 C 1683.46 371.226 1683.3 370.107 1683.54 367.897 C 1689.44 313.117 1727.29 285.175 1764.82 252.63 z" fill="rgb(234,94,131)" transform="translate(0,0)"></path>
<path d="M 1764.82 252.63 C 1799.08 282.544 1821.25 296.374 1832.28 345.168 C 1832.66 354.775 1832.83 364.388 1832.79 374.001 C 1783.15 374.165 1733.51 373.951 1683.87 373.358 C 1683.46 371.226 1683.3 370.107 1683.54 367.897 C 1689.44 313.117 1727.29 285.175 1764.82 252.63 z" fill="rgb(12,65,136)" transform="translate(0,0)"></path>
<path d="M 180.083 369.624 C 194.306 352.948 218.926 328.943 234.659 312.484 C 272.192 272.637 310.092 233.138 348.356 193.992 C 352.807 189.378 370.522 168.632 374.597 167.928 L 374.823 180.777 C 373.018 202.526 374.396 238.231 374.696 260.545 C 375.039 296.758 375.194 332.972 375.162 369.187 C 311.58 369.442 243.276 368.104 180.083 369.624 z" fill="rgb(12,65,136)" transform="translate(0,0)"></path>
<path d="M 1678.01 1682.05 L 1802.05 1681.66 C 1820.59 1681.53 1856.71 1680.29 1874.31 1682.01 C 1826.27 1731.85 1777.91 1781.38 1729.23 1830.6 C 1720.36 1839.69 1686.42 1877.22 1678.28 1882.33 L 1678.16 1880.69 C 1679.8 1870.05 1678.99 1832.03 1678.95 1819.98 L 1678.01 1682.05 z" fill="rgb(12,65,136)" transform="translate(0,0)"></path>
<path d="M 1872.54 493.294 C 1873.72 512.96 1872.91 536.519 1872.92 556.544 C 1872.93 568.353 1873.31 590.895 1872.17 602.153 L 1872.04 754.333 L 1868.85 753.926 C 1861.94 728.103 1847.26 709.115 1823.94 695.685 C 1801.6 682.878 1775.12 679.376 1750.22 685.935 C 1716.27 695.199 1686.52 725.107 1681.63 760.539 C 1681.57 761.762 1681.63 768.353 1679.99 768.489 C 1678.44 767.022 1679.51 744.045 1679.83 740.709 L 1679.58 659.933 C 1721.91 658.199 1757.84 651.12 1793.42 626.691 C 1833.94 598.978 1861.65 556.157 1870.31 507.833 C 1871 502.955 1871.65 498.143 1872.54 493.294 z" fill="rgb(234,67,27)" transform="translate(0,0)"></path>
<path d="M 1872.54 493.294 C 1873.72 512.96 1872.91 536.519 1872.92 556.544 C 1872.93 568.353 1873.31 590.895 1872.17 602.153 C 1871.07 581.122 1872.39 557.998 1872.07 536.803 C 1871.96 529.775 1872.85 514.166 1871.62 507.883 L 1870.31 507.833 C 1871 502.955 1871.65 498.143 1872.54 493.294 z" fill="rgb(130,42,30)" transform="translate(0,0)"></path>
<path d="M 1681.63 760.539 C 1681.57 761.762 1681.63 768.353 1679.99 768.489 C 1678.44 767.022 1679.51 744.045 1679.83 740.709 C 1680.04 743.608 1679.97 759.608 1680.86 760.471 C 1681.12 760.494 1681.37 760.516 1681.63 760.539 z" fill="rgb(130,42,30)" transform="translate(0,0)"></path>
<path d="M 926.681 1401.96 L 1009.48 1401.97 C 1011.81 1423.82 1014.29 1438.93 1025.24 1458.37 C 1056.96 1514.64 1125.38 1538.18 1182.24 1503.81 C 1216.07 1483.35 1233.2 1454.06 1243.01 1416.46 C 1244.45 1423 1243.36 1447.51 1243.29 1455.99 L 1243.05 1537.42 L 1178.79 1537.57 C 1173.01 1537.63 1154.36 1537.7 1149.54 1538.7 C 1148.7 1538.71 1138.73 1537.5 1136.84 1537.36 C 1128.52 1536.72 1122.35 1536.83 1114.01 1537.1 C 1085.36 1537.87 1055.66 1537.73 1026.92 1537.95 C 1017.27 1476.03 986.104 1438.81 926.513 1419.56 C 926.397 1413.92 926.601 1407.64 926.681 1401.96 z" fill="rgb(234,67,27)" transform="translate(0,0)"></path>
<path d="M 639.289 371.231 L 644.345 372.276 C 654.149 373.856 661.697 374.043 671.659 374.139 L 671.248 465.63 C 671.214 475.581 670.685 504.174 672.158 512.803 L 670.991 513.376 C 666.829 509.907 661.459 503.988 657.728 499.87 C 618.777 456.883 576.603 416.221 538.248 372.779 L 536.985 371.981 C 559.466 370.544 586.222 372.448 609.076 371.907 C 618.165 371.692 630.824 372.748 639.289 371.231 z" fill="rgb(12,65,136)" transform="translate(0,0)"></path>
<path d="M 639.289 371.231 L 644.345 372.276 C 635.959 373.588 616.506 372.95 607.038 372.928 L 538.248 372.779 L 536.985 371.981 C 559.466 370.544 586.222 372.448 609.076 371.907 C 618.165 371.692 630.824 372.748 639.289 371.231 z" fill="rgb(193,180,174)" transform="translate(0,0)"></path>
<path d="M 1374.91 1536.57 L 1376.02 1535.5 C 1383.28 1540.21 1412.8 1572.8 1420.63 1580.88 C 1450.56 1611.73 1480.79 1642.1 1509.25 1674.29 C 1487.41 1673.49 1464.23 1674.1 1442.27 1673.9 C 1434.2 1673.83 1410.22 1673.54 1403.89 1674.76 C 1397.2 1674.96 1383.16 1674.01 1375.15 1673.94 C 1374.84 1628.39 1375.91 1581.97 1374.91 1536.57 z" fill="rgb(12,65,136)" transform="translate(0,0)"></path>
<path d="M 1065.36 511.427 C 1059.79 484.987 1068.91 451.492 1090.39 434.227 C 1116.51 413.24 1149.93 419.947 1169.82 445.247 C 1185.8 465.581 1185.61 485.733 1182.71 510.313 C 1168.25 510.248 1130.67 509.163 1118.56 510.67 C 1103.97 511.901 1080.69 511.28 1065.36 511.427 z" fill="rgb(12,65,136)" transform="translate(0,0)"></path>
<path d="M 930.974 1539.52 C 938.762 1536.63 972.383 1537.86 982.941 1537.98 C 983.003 1549.25 983.265 1560.25 980.461 1571.24 C 959.768 1652.35 858.176 1633.56 859.848 1552.57 C 859.929 1548.46 860.094 1544.35 860.342 1540.25 C 870.889 1540.8 922.932 1541.73 930.974 1539.52 z" fill="rgb(12,65,136)" transform="translate(0,0)"></path>
<path d="M 859.513 488.422 C 861.877 443.019 884.166 397.651 932.332 387.846 C 932.097 427.713 932.93 471.918 931.388 511.339 C 928.192 513.952 912.414 511.281 907.451 511.621 C 888.867 509.346 873.373 500.743 859.513 488.422 z" fill="rgb(234,94,131)" transform="translate(0,0)"></path>
<path d="M 1114.01 1537.1 C 1122.35 1536.83 1128.52 1536.72 1136.84 1537.36 C 1138.73 1537.5 1148.7 1538.71 1149.54 1538.7 C 1165.89 1543.47 1176.77 1550.66 1189.1 1561.96 C 1188.97 1603.98 1157.03 1650.25 1113.95 1656.65 L 1114.01 1537.1 z" fill="rgb(234,94,131)" transform="translate(0,0)"></path>
<path d="M 762.806 419.514 C 778.155 417.217 793.546 423.407 803.03 435.691 C 812.515 447.975 814.609 464.431 808.503 478.699 C 802.398 492.968 789.048 502.815 773.613 504.435 C 750.461 506.866 729.61 490.353 726.671 467.26 C 723.733 444.168 739.784 422.959 762.806 419.514 z" fill="rgb(234,94,131)" transform="translate(0,0)"></path>
<path d="M 1268.6 1545.34 C 1291.86 1540.83 1314.35 1556.08 1318.77 1579.36 C 1323.19 1602.64 1307.85 1625.07 1284.55 1629.4 C 1261.39 1633.7 1239.11 1618.46 1234.72 1595.31 C 1230.32 1572.17 1245.47 1549.83 1268.6 1545.34 z" fill="rgb(234,94,131)" transform="translate(0,0)"></path>
<path d="M 1871.66 145.922 C 1873.87 148.728 1872.98 239.97 1872.97 251.07 C 1837.44 251.073 1801.91 251.278 1766.38 251.685 L 1765.57 251.13 C 1767.5 248.153 1783.62 234.979 1787.33 231.697 C 1799.44 221.021 1811.36 210.128 1823.07 199.025 C 1842.56 180.495 1854.57 166.361 1871.66 145.922 z" fill="rgb(234,94,131)" transform="translate(0,0)"></path>
<path d="M 282.136 1795.94 L 285.057 1796.93 L 285.073 1797.65 C 251.095 1825.47 205.165 1867.07 178.131 1901.76 C 177.687 1866.85 178.04 1831.17 178.011 1796.2 C 212.457 1795.56 247.591 1796.19 282.136 1795.94 z" fill="rgb(234,94,131)" transform="translate(0,0)"></path>
<path d="M 1803.57 1816.88 L 1869.82 1816.83 C 1869.59 1840.24 1869.52 1863.64 1869.6 1887.04 L 1803.6 1887.03 C 1803.49 1864.35 1803.11 1839.38 1803.57 1816.88 z" fill="rgb(234,94,131)" transform="translate(0,0)"></path>
<path d="M 181.136 162.171 C 203.137 162.428 225.139 162.551 247.142 162.538 C 247.127 185.549 247.497 209.074 247.266 232.018 L 181.271 231.949 C 180.654 210.571 180.742 183.703 181.136 162.171 z" fill="rgb(234,94,131)" transform="translate(0,0)"></path>
<path d="M 285.76 1796.98 C 311.82 1795.94 344.673 1796.8 371.266 1796.73 C 370.914 1812.37 371.131 1828.18 370.691 1843.8 C 369.286 1851.4 370.89 1864.93 369.822 1873.65 C 341.83 1848.76 313.314 1822.11 285.073 1797.65 L 285.057 1796.93 L 285.76 1796.98 z" fill="rgb(234,67,27)" transform="translate(0,0)"></path>
<path d="M 1678.68 173.442 C 1679.87 174.478 1680.21 174.863 1681.26 176.073 C 1703.4 198.308 1740.51 230.307 1764.85 251.019 L 1679.36 251.107 C 1678.59 246.115 1679.12 235.866 1678.82 229.87 C 1678.98 224.311 1679.65 208.488 1677.79 203.946 C 1678.83 195.175 1677.36 183.818 1678.68 173.442 z" fill="rgb(234,67,27)" transform="translate(0,0)"></path>
<path d="M 1678.68 173.442 C 1679.87 174.478 1680.21 174.863 1681.26 176.073 C 1678.43 181.281 1680.85 238.777 1679.36 251.107 C 1678.59 246.115 1679.12 235.866 1678.82 229.87 C 1678.98 224.311 1679.65 208.488 1677.79 203.946 C 1678.83 195.175 1677.36 183.818 1678.68 173.442 z" fill="rgb(130,42,30)" transform="translate(0,0)"></path>
<path d="M 1120.9 1401.04 C 1139.98 1401.55 1159.67 1401.18 1178.79 1401.19 C 1167.78 1433.86 1151 1446.15 1119.1 1456.37 C 1119.03 1447.88 1120.25 1408.88 1118.82 1403.22 L 1120.9 1401.04 z" fill="rgb(234,67,27)" transform="translate(0,0)"></path>
<path d="M 803.088 1840.97 C 803.162 1842.8 803.222 1856.96 801.887 1857.22 C 801.476 1856.77 800.457 1842.75 800.329 1841.07 L 803.088 1840.97 z" fill="rgb(144,125,116)" transform="translate(0,0)"></path>
<path d="M 180.804 1541.88 L 182.941 1542.6 C 182.78 1544.62 182.554 1546.52 182.202 1548.55 C 182.397 1548.71 181.781 1551.82 181.061 1551.34 C 179.292 1550.16 180.426 1543.22 180.804 1541.88 z" fill="rgb(95,35,30)" transform="translate(0,0)"></path>
<path d="M 180.98 1534.1 L 183.456 1535.97 C 183.183 1538.39 183.027 1540.15 182.941 1542.6 L 180.804 1541.88 L 180.98 1534.1 z" fill="rgb(197,61,38)" transform="translate(0,0)"></path>
<path d="M 1243.49 198.829 C 1243.4 197.728 1242.64 187.371 1244.61 187.536 C 1245.46 190.038 1245.22 193.678 1245.04 196.293 L 1243.49 198.829 z" fill="rgb(26,45,75)" transform="translate(0,0)"></path>
<path d="M 642.308 155.929 C 643.751 155.922 649.97 155.824 651.01 156.718 C 650.405 158.01 645.143 158.217 643.83 158.357 C 643.279 157.402 642.962 156.831 642.308 155.929 z" fill="rgb(144,125,116)" transform="translate(0,0)"></path>
<path d="M 1025.58 1573.11 C 1025.66 1572.32 1025.86 1565.55 1026.74 1565.54 C 1027.87 1566.28 1028.34 1569.82 1028.73 1571.18 L 1025.58 1573.11 z" fill="rgb(197,82,107)" transform="translate(0,0)"></path>
<path d="M 1346.13 1674.49 C 1352.91 1673.54 1357.78 1674.38 1347.91 1676.81 L 1346.13 1674.49 z" fill="rgb(102,77,73)" transform="translate(0,0)"></path>
<path d="M 707.442 373.104 C 705.234 373.056 703.026 373.015 700.818 372.982 L 700.001 372.432 L 699.7 372.669 L 699.567 372.558 L 699.598 372.409 C 700.704 371.317 703.294 370.91 704.846 370.292 L 707.442 373.104 z" fill="rgb(193,180,174)" transform="translate(0,0)"></path>
<path d="M 1243.49 198.829 L 1245.04 196.293 L 1246.03 203.198 L 1243.98 201.951 L 1243.49 198.829 z" fill="rgb(109,102,104)" transform="translate(0,0)"></path>
<metadata><recraft-signature>{"signed_by": "recraft", "signature_b64": "4waQ00WbGKhqfv9Gd13CXvciszGP+vW5HS1QZW3RRm2BEVECnAOYKoasrUB7dQ5LyaNWcentOiSLVBZL2oxFBg==", "signing_algo": "Ed25519", "generation_timestamp": 1781763817, "identifier": "1955133c-daff-4c37-93ee-921ff6e769b6"}</recraft-signature></metadata></svg>