<svg width="24" height="24" viewBox="0 0 24 24" fill="none" xmlns="http://www.w3.org/2000/svg">
<path fill-rule="evenodd" clip-rule="evenodd" d="M21.75 12C21.75 17.3848 17.3848 21.75 12 21.75C6.61522 21.75 2.25 17.3848 2.25 12C2.25 6.61522 6.61522 2.25 12 2.25C17.3848 2.25 21.75 6.61522 21.75 12ZM12.8867 8.20975C12.2186 8.69945 11.28 8.55481 10.7903 7.88668C10.3006 7.21855 10.4452 6.27995 11.1133 5.79025C11.7814 5.30055 12.72 5.44519 13.2098 6.11332C13.6995 6.78145 13.5548 7.72005 12.8867 8.20975ZM8.29058 8.80858C7.90872 8.6481 7.46906 8.82756 7.30858 9.20942C7.1481 9.59128 7.32756 10.0309 7.70942 10.1914C9.03387 10.748 10.151 11.1002 11.25 11.2117V12.5C11.25 14.209 10.4107 15.4912 9.08388 16.376C8.73927 16.6058 8.64621 17.0715 8.87602 17.4161C9.10584 17.7607 9.57151 17.8538 9.91612 17.624C10.7747 17.0514 11.4987 16.3199 12 15.4336C12.5013 16.3199 13.2253 17.0514 14.0839 17.624C14.4285 17.8538 14.8942 17.7607 15.124 17.4161C15.3538 17.0715 15.2607 16.6058 14.9161 16.376C13.5893 15.4912 12.75 14.209 12.75 12.5V11.2118C13.8491 11.1003 14.9659 10.7482 16.2906 10.1914C16.6725 10.0309 16.8519 9.59126 16.6914 9.2094C16.5309 8.82755 16.0913 8.64809 15.7094 8.80859C14.1577 9.46075 13.06 9.75005 12 9.75C10.9402 9.74995 9.84195 9.46057 8.29058 8.80858Z" fill="#292556"/>
</svg>
