<svg width="24" height="24" viewBox="0 0 24 24" fill="none" xmlns="http://www.w3.org/2000/svg">
<path fill-rule="evenodd" clip-rule="evenodd" d="M12 4.25C6.61522 4.25 2.25 8.7186 2.25 14.2309C2.25 15.2262 2.39232 16.1875 2.65726 17.0946C2.90149 17.9308 3.02361 18.3489 3.5893 18.8996C3.73197 19.0385 4.03194 19.2634 4.20526 19.3614C4.89248 19.75 5.53056 19.75 6.80672 19.75H17.1933C18.4694 19.75 19.1075 19.75 19.7947 19.3614C19.9681 19.2634 20.268 19.0385 20.4107 18.8996C20.9764 18.3489 21.0985 17.9308 21.3427 17.0946C21.6077 16.1875 21.75 15.2262 21.75 14.2309C21.75 8.7186 17.3848 4.25 12 4.25ZM14 14.25C14 15.3546 13.1046 16.25 12 16.25C10.8954 16.25 10 15.3546 10 14.25C10 13.4107 10.517 12.6921 11.25 12.3954V9C11.25 8.58578 11.5858 8.25 12 8.25C12.4142 8.25 12.75 8.58579 12.75 9V12.3954C13.483 12.6921 14 13.4107 14 14.25Z" fill="#292556"/>
</svg>
