<svg width="24" height="24" viewBox="0 0 24 24" fill="none" xmlns="http://www.w3.org/2000/svg">
<path d="M3 12H4.66074C5.23196 12 5.51757 12 5.74566 11.8719C5.82013 11.8301 5.88893 11.7789 5.95038 11.7196C6.13862 11.5379 6.22069 11.2644 6.38483 10.7172L7.27591 7.74696C7.89434 5.68552 8.20356 4.6548 8.74691 4.51266C8.91285 4.46925 9.08715 4.46925 9.25309 4.51266C9.79644 4.6548 10.1057 5.68552 10.7241 7.74696L13.2759 16.253C13.8943 18.3145 14.2036 19.3452 14.7469 19.4873C14.9128 19.5307 15.0872 19.5307 15.2531 19.4873C15.7964 19.3452 16.1057 18.3145 16.7241 16.253L17.6152 13.2828C17.7793 12.7356 17.8614 12.4621 18.0496 12.2804C18.1111 12.2211 18.1799 12.1699 18.2543 12.1281C18.4824 12 18.768 12 19.3393 12H21" stroke="#292556" stroke-width="1.5" stroke-linecap="round" stroke-linejoin="round"/>
</svg>
