<svg width="24" height="24" viewBox="0 0 24 24" fill="none" xmlns="http://www.w3.org/2000/svg">
<path d="M3 21H21" stroke="#292556" stroke-width="1.5" stroke-linecap="round" stroke-linejoin="round"/>
<path d="M21.469 5.0179C21.4663 5.01409 21.465 5.01219 21.4639 5.01059C20.7527 3.99869 19.357 3.7526 18.3426 4.46023C18.341 4.46136 18.3391 4.46269 18.3353 4.46535L14.1178 7.41853L7.30715 5.56885C7.03796 5.49574 6.90336 5.45918 6.7695 5.45931C6.65462 5.45941 6.54062 5.47932 6.43249 5.51814C6.30651 5.56338 6.19226 5.64338 5.96376 5.80337V5.80337C5.38426 6.20914 5.09451 6.41203 4.98213 6.67177C4.88681 6.89211 4.87393 7.13938 4.94585 7.36843C5.03063 7.63844 5.29773 7.87033 5.83193 8.33411L8.94738 11.0389L7.65648 11.9428L5.97328 11.0313C5.6688 10.8665 5.51655 10.784 5.36339 10.7345C4.94779 10.6001 4.49693 10.6259 4.09941 10.807C3.95292 10.8737 3.8111 10.973 3.52746 11.1716V11.1716C2.97698 11.5571 2.70173 11.7498 2.53929 11.9595C2.09178 12.5372 2.05037 13.3322 2.43543 13.9533C2.57521 14.1787 2.82894 14.399 3.3364 14.8396L5.06355 16.3391C5.85307 17.0245 6.24783 17.3672 6.71498 17.4545C6.86725 17.4829 7.02262 17.491 7.17703 17.4785C7.65071 17.4403 8.07894 17.1404 8.9354 16.5407L20.9164 8.15154C20.9202 8.14887 20.9221 8.14754 20.9237 8.14641C21.9356 7.43523 22.1817 6.03959 21.4741 5.02521C21.473 5.0236 21.4716 5.0217 21.469 5.0179V5.0179Z" fill="#292556"/>
</svg>
