<svg width="24" height="24" viewBox="0 0 24 24" fill="none" xmlns="http://www.w3.org/2000/svg">
<path d="M4 12H20M4 6H20M4 18H14" stroke="#292556" stroke-width="1.5" stroke-linecap="round" stroke-linejoin="round"/>
<path d="M18.9776 16.0681C18.8941 15.7342 18.5942 15.5 18.25 15.5C17.9058 15.5 17.6059 15.7342 17.5224 16.0681C17.4186 16.4833 17.2817 16.7201 17.1259 16.8759C16.9701 17.0317 16.7333 17.1686 16.3181 17.2724C15.9842 17.3559 15.75 17.6558 15.75 18C15.75 18.3442 15.9842 18.6441 16.3181 18.7276C16.7333 18.8314 16.9701 18.9683 17.1259 19.1241C17.2817 19.2799 17.4186 19.5167 17.5224 19.9319C17.6059 20.2658 17.9058 20.5 18.25 20.5C18.5942 20.5 18.8941 20.2658 18.9776 19.9319C19.0814 19.5167 19.2183 19.2799 19.3741 19.1241C19.5299 18.9683 19.7667 18.8314 20.1819 18.7276C20.5158 18.6441 20.75 18.3442 20.75 18C20.75 17.6558 20.5158 17.3559 20.1819 17.2724C19.7667 17.1686 19.5299 17.0317 19.3741 16.8759C19.2183 16.7201 19.0814 16.4833 18.9776 16.0681Z" fill="#292556"/>
</svg>
