<svg width="24" height="24" viewBox="0 0 24 24" fill="none" xmlns="http://www.w3.org/2000/svg">
<path fill-rule="evenodd" clip-rule="evenodd" d="M20.069 3.87382C18.9951 2.79987 17.2539 2.79987 16.18 3.87382C15.4342 4.61962 15.2063 5.68722 15.4963 6.62967L14.0951 7.81535L12.9957 6.71595C12.7028 6.42306 12.2279 6.42306 11.935 6.71595C11.6421 7.00884 11.6421 7.48372 11.935 7.77661L12.946 8.78762L7.30077 13.5644C5.89951 11.4218 5.38921 8.70544 6.12077 6.02009C6.21015 5.69202 6.06762 5.34486 5.7735 5.17422C5.47937 5.00359 5.10726 5.05219 4.86681 5.29263L4.51326 5.64618C4.50161 5.65783 4.49035 5.66986 4.4795 5.68225C3.559 6.73279 2.87468 8.01799 2.52025 9.48013C1.295 14.5348 4.45484 19.806 9.5384 21.2961C12.7427 22.2354 15.9771 21.4591 18.2502 19.4838C18.2634 19.4723 18.2762 19.4604 18.2886 19.448L18.6554 19.0812C18.8958 18.8408 18.9444 18.4686 18.7738 18.1745C18.6032 17.8804 18.256 17.7379 17.9279 17.8273C15.2426 18.5588 12.5262 18.0485 10.3837 16.6472L15.1604 11.002L16.1782 12.0198C16.4711 12.3127 16.9459 12.3127 17.2388 12.0198C17.5317 11.7269 17.5317 11.252 17.2388 10.9591L16.1327 9.85296L17.3208 8.44885C18.2614 8.73536 19.3252 8.50671 20.069 7.7629C21.143 6.68896 21.143 4.94776 20.069 3.87382ZM17.2124 6.67309L17.2698 6.73048C17.7598 7.19021 18.5298 7.1808 19.0084 6.70224C19.4965 6.21409 19.4965 5.42263 19.0084 4.93448C18.5202 4.44632 17.7288 4.44632 17.2406 4.93448C16.7621 5.41303 16.7526 6.18307 17.2124 6.67309Z" fill="#292556"/>
</svg>
