<svg width="24" height="24" viewBox="0 0 24 24" fill="none" xmlns="http://www.w3.org/2000/svg">
<path fill-rule="evenodd" clip-rule="evenodd" d="M7.29721 2.44332C7.60466 2.16575 8.07891 2.18996 8.35649 2.49741L9.71069 3.99735C10.3862 3.59191 11.1663 3.35776 11.9998 3.35776C12.8333 3.35776 13.6134 3.59191 14.2889 3.99735L15.6431 2.49741C15.9207 2.18996 16.395 2.16575 16.7024 2.44332C17.0098 2.7209 17.0341 3.19515 16.7565 3.5026L15.4383 4.9627C16.2571 5.89908 16.75 7.16262 16.75 8.53847C16.75 8.95268 16.4142 9.28847 16 9.28847H7.9996C7.58538 9.28847 7.2496 8.95268 7.2496 8.53847C7.2496 7.16262 7.74253 5.89908 8.56135 4.9627L7.24312 3.5026C6.96554 3.19515 6.98976 2.7209 7.29721 2.44332ZM10.95 10.5586L10.9099 10.5586H10.9099H10.9099H10.9098C10.2879 10.5586 9.76149 10.5586 9.33526 10.6047C8.88584 10.6534 8.4597 10.7606 8.08054 11.0361C7.8683 11.1903 7.68166 11.3769 7.52746 11.5891C7.25198 11.9683 7.14483 12.3944 7.09614 12.8439C7.04996 13.2701 7.04998 13.7965 7.05 14.4185L7.05 14.4586V14.6201L7.05 14.6603C7.04998 15.2822 7.04996 15.8086 7.09614 16.2349C7.14483 16.6843 7.25198 17.1104 7.52746 17.4896C7.68166 17.7018 7.8683 17.8885 8.08054 18.0427C8.40721 18.28 8.76875 18.3924 9.15 18.4501V21.0009C9.15 21.4151 9.48579 21.7509 9.9 21.7509C10.3142 21.7509 10.65 21.4151 10.65 21.0009V18.52L10.9099 18.5201H10.95H13.05H13.0901L13.35 18.52V21.0009C13.35 21.4151 13.6858 21.7509 14.1 21.7509C14.5142 21.7509 14.85 21.4151 14.85 21.0009V18.4501C15.2313 18.3924 15.5928 18.28 15.9195 18.0427C16.1317 17.8885 16.3183 17.7018 16.4725 17.4896C16.748 17.1104 16.8552 16.6843 16.9039 16.2349C16.95 15.8086 16.95 15.2822 16.95 14.6602V14.6201V14.4586V14.4185C16.95 13.7965 16.95 13.2701 16.9039 12.8439C16.8552 12.3944 16.748 11.9683 16.4725 11.5891C16.3183 11.3769 16.1317 11.1903 15.9195 11.0361C15.5403 10.7606 15.1142 10.6534 14.6647 10.6047C14.2385 10.5586 13.7121 10.5586 13.0902 10.5586H13.0901H13.0901H13.0901L13.05 10.5586H10.95ZM5.75 12.6932C5.75 12.279 5.41421 11.9432 5 11.9432C4.58579 11.9432 4.25 12.279 4.25 12.6932V15.4624C4.25 15.8767 4.58579 16.2124 5 16.2124C5.41421 16.2124 5.75 15.8767 5.75 15.4624V12.6932ZM19.75 12.6932C19.75 12.279 19.4142 11.9432 19 11.9432C18.5858 11.9432 18.25 12.279 18.25 12.6932V15.4624C18.25 15.8767 18.5858 16.2124 19 16.2124C19.4142 16.2124 19.75 15.8767 19.75 15.4624V12.6932Z" fill="#292556"/>
</svg>
