<svg width="24" height="24" viewBox="0 0 24 24" fill="none" xmlns="http://www.w3.org/2000/svg">
<path fill-rule="evenodd" clip-rule="evenodd" d="M3.53148 5.41438C3.85493 5.15562 4.32689 5.20806 4.58565 5.53151L6.51238 7.93992C8.07563 6.87373 9.96578 6.25003 12 6.25003C14.0342 6.25003 15.9244 6.87373 17.4876 7.93992L19.4143 5.53151C19.6731 5.20806 20.1451 5.15562 20.4685 5.41438C20.792 5.67313 20.8444 6.1451 20.5857 6.46855L18.6584 8.87762C20.5599 10.6561 21.75 13.1893 21.75 16C21.75 17.6998 20.2394 18.75 18.7604 18.75H5.23959C3.76064 18.75 2.25 17.6998 2.25 16C2.25 13.1893 3.44008 10.6561 5.34161 8.87762L3.41435 6.46855C3.15559 6.1451 3.20803 5.67313 3.53148 5.41438ZM6.25 13.5C6.25 12.2574 7.25736 11.25 8.5 11.25C9.74264 11.25 10.75 12.2574 10.75 13.5C10.75 14.7426 9.74264 15.75 8.5 15.75C7.25736 15.75 6.25 14.7426 6.25 13.5ZM13.25 13.5C13.25 12.2574 14.2574 11.25 15.5 11.25C16.7426 11.25 17.75 12.2574 17.75 13.5C17.75 14.7426 16.7426 15.75 15.5 15.75C14.2574 15.75 13.25 14.7426 13.25 13.5Z" fill="#292556"/>
</svg>
