<svg width="24" height="24" viewBox="0 0 24 24" fill="none" xmlns="http://www.w3.org/2000/svg">
<path d="M15.1258 3.25H10.8C7.23775 3.25 5.45663 3.25 4.20802 4.15717C3.80477 4.45015 3.45015 4.80477 3.15717 5.20802C2.25 6.45663 2.25 8.23775 2.25 11.8V13.2C2.25 16.7622 2.25 18.5434 3.15717 19.792C3.45015 20.1952 3.80477 20.5499 4.20802 20.8428C5.45663 21.75 7.23775 21.75 10.8 21.75H12.2C15.7622 21.75 17.5434 21.75 18.792 20.8428C19.1952 20.5499 19.5499 20.1952 19.8428 19.792C20.75 18.5434 20.75 16.7622 20.75 13.2V8.87425C19.1853 9.58069 17.2806 9.29101 15.9948 8.0052C14.709 6.7194 14.4193 4.81468 15.1258 3.25Z" fill="#292556"/>
<path d="M20.9445 6.94454C19.8706 8.01849 18.1294 8.01849 17.0555 6.94454C15.9815 5.8706 15.9815 4.1294 17.0555 3.05546C18.1294 1.98151 19.8706 1.98151 20.9445 3.05546C22.0185 4.1294 22.0185 5.8706 20.9445 6.94454Z" fill="#292556"/>
</svg>
