<svg width="24" height="24" viewBox="0 0 24 24" fill="none" xmlns="http://www.w3.org/2000/svg">
<path d="M15.7476 5.35019C14.8458 5.19897 14.0324 5.57904 13.4487 6.01978C12.5914 6.66715 11.4086 6.66715 10.5513 6.01978C9.9676 5.57904 9.15415 5.19897 8.25242 5.35019C6.4729 5.6486 5.21261 6.88394 4.41843 8.37913C3.62559 9.87178 3.24971 11.6991 3.25 13.3928C3.25033 15.2695 3.81796 17.3652 4.8625 18.9857C5.90654 20.6054 7.51895 21.87 9.60676 21.7427C10.0108 21.718 10.3775 21.602 10.6797 21.4864C11.5299 21.1613 12.4701 21.1613 13.3203 21.4864C13.6225 21.602 13.9892 21.718 14.3932 21.7427C16.4811 21.87 18.0935 20.6054 19.1375 18.9857C20.182 17.3652 20.7497 15.2695 20.75 13.3928C20.7503 11.6991 20.3744 9.87178 19.5816 8.37913C18.7874 6.88394 17.5271 5.6486 15.7476 5.35019Z" fill="#292556"/>
<path d="M16.2312 3C16.2312 3 14.5309 3.1349 13.2312 4.01042C12.2526 4.66961 12.0044 5.93987 12 7.04169" stroke="#292556" stroke-width="1.5" stroke-linecap="round" stroke-linejoin="round"/>
</svg>
