<svg width="24" height="24" viewBox="0 0 24 24" fill="none" xmlns="http://www.w3.org/2000/svg">
<path d="M17.6068 11.625C17.1922 12.1152 16.9488 12.7317 16.9488 13.4C16.9488 14.3243 17.4164 15.1564 18.1623 15.6831L18.7187 16.1886C18.7279 16.1969 18.7325 16.2011 18.7366 16.2049C19.1321 16.5708 19.2487 17.1489 19.0259 17.6394C19.0236 17.6445 19.021 17.6502 19.0158 17.6614V17.6614C18.919 17.8609 18.7699 18.1545 18.6384 18.3926C18.2764 18.982 17.9537 19.4409 17.5434 19.8543C17.1333 20.2677 16.6632 20.6078 16.0371 20.9948L16.0265 21.0013L16.0157 21.0075C15.9138 21.0659 15.8207 21.1232 15.721 21.1845L15.642 21.233C15.5171 21.3095 15.3769 21.3937 15.2283 21.4688C14.9161 21.6264 14.5554 21.75 14.1029 21.75C13.8725 21.75 13.6578 21.71 13.4999 21.6805C13.4631 21.6737 13.4294 21.6674 13.3993 21.6623C13.0553 21.6043 12.7666 21.4937 12.5619 21.4153C12.534 21.4046 12.5076 21.3945 12.4829 21.3852C12.2642 21.3031 12.1424 21.27 12.007 21.27C11.8715 21.27 11.7497 21.3031 11.531 21.3852C11.5063 21.3945 11.4799 21.4046 11.452 21.4153C11.2473 21.4937 10.9586 21.6043 10.6146 21.6623C10.5845 21.6674 10.5508 21.6737 10.514 21.6805C10.3561 21.71 10.1414 21.75 9.91101 21.75C9.10995 21.75 8.37929 21.4289 7.85851 20.9052C5.83372 19.1626 4.54994 16.6282 4.54994 13.8C4.54994 13.7322 4.5503 13.6861 4.55061 13.6453C4.54934 13.5518 4.54985 13.0954 4.55025 13C4.55025 10.3439 6.796 8.25 9.49182 8.25C10.0972 8.25 10.5667 8.37362 11.0905 8.51156L11.1565 8.52893C11.4001 8.59295 11.6146 8.69502 11.7437 8.75645C11.7676 8.76784 11.7886 8.77786 11.8063 8.78595C11.9358 8.84515 11.9736 8.85 12.007 8.85C12.0403 8.85 12.0781 8.84514 12.2076 8.78595C12.2253 8.77785 12.2463 8.76785 12.2702 8.75645C12.3993 8.69502 12.6138 8.59295 12.8574 8.52893L12.9234 8.51156C13.4472 8.37362 13.9167 8.25 14.5221 8.25C15.6559 8.25 16.4739 8.60055 17.4187 9.15424L17.9737 9.48619C18.4966 9.79894 18.5891 10.5186 18.1623 10.9534V10.9534L17.6068 11.625Z" fill="#292556"/>
<path d="M15.8233 6.16948C14.5541 7.43868 13.0503 7.9927 12.4645 7.40691C11.8787 6.82113 12.4328 5.31736 13.702 4.04816C14.9712 2.77895 16.4749 2.22493 17.0607 2.81072C17.6465 3.39651 17.0925 4.90027 15.8233 6.16948Z" fill="#292556"/>
</svg>
