<svg width="24" height="24" viewBox="0 0 24 24" fill="none" xmlns="http://www.w3.org/2000/svg">
<path fill-rule="evenodd" clip-rule="evenodd" d="M12 21.75C17.3848 21.75 21.75 17.3848 21.75 12C21.75 6.61522 17.3848 2.25 12 2.25C6.61522 2.25 2.25 6.61522 2.25 12C2.25 17.3848 6.61522 21.75 12 21.75ZM15.0303 10.7197L12.5303 8.21967C12.2374 7.92678 11.7626 7.92678 11.4697 8.21967L8.96967 10.7197C8.67678 11.0126 8.67678 11.4874 8.96967 11.7803C9.26256 12.0732 9.73744 12.0732 10.0303 11.7803L11.25 10.5607V15.25C11.25 15.6642 11.5858 16 12 16C12.4142 16 12.75 15.6642 12.75 15.25V10.5607L13.9697 11.7803C14.2626 12.0732 14.7374 12.0732 15.0303 11.7803C15.3232 11.4874 15.3232 11.0126 15.0303 10.7197Z" fill="#292556"/>
</svg>
