<svg width="24" height="24" viewBox="0 0 24 24" fill="none" xmlns="http://www.w3.org/2000/svg">
<path fill-rule="evenodd" clip-rule="evenodd" d="M12 21.75C17.3848 21.75 21.75 17.3848 21.75 12C21.75 6.61522 17.3848 2.25 12 2.25C6.61522 2.25 2.25 6.61522 2.25 12C2.25 17.3848 6.61522 21.75 12 21.75ZM14.8282 10.2322C15.1211 9.93934 15.1211 9.46447 14.8282 9.17157C14.5353 8.87868 14.0604 8.87868 13.7675 9.17157L10.4517 12.4874V10.7626C10.4517 10.3484 10.1159 10.0126 9.70166 10.0126C9.28745 10.0126 8.95166 10.3484 8.95166 10.7626V14.2981C8.95166 14.7123 9.28745 15.0481 9.70166 15.0481H13.2372C13.6514 15.0481 13.9872 14.7123 13.9872 14.2981C13.9872 13.8839 13.6514 13.5481 13.2372 13.5481H11.5123L14.8282 10.2322Z" fill="#292556"/>
</svg>
