<svg width="24" height="24" viewBox="0 0 24 24" fill="none" xmlns="http://www.w3.org/2000/svg">
<path fill-rule="evenodd" clip-rule="evenodd" d="M3.01393 3.89886C2.25 4.95032 2.25 6.45021 2.25 9.45V14.55C2.25 17.5498 2.25 19.0497 3.01393 20.1011C3.26065 20.4407 3.55928 20.7393 3.89886 20.9861C4.95032 21.75 6.45021 21.75 9.45 21.75H14.55C17.5498 21.75 19.0497 21.75 20.1011 20.9861C20.4407 20.7393 20.7393 20.4407 20.9861 20.1011C21.75 19.0497 21.75 17.5498 21.75 14.55V9.45C21.75 6.45021 21.75 4.95032 20.9861 3.89886C20.7393 3.55928 20.4407 3.26065 20.1011 3.01393C19.0497 2.25 17.5498 2.25 14.55 2.25H9.45C6.45021 2.25 4.95032 2.25 3.89886 3.01393C3.55928 3.26065 3.26065 3.55928 3.01393 3.89886ZM12.5303 8.21967C12.2374 7.92678 11.7626 7.92678 11.4697 8.21967L8.96967 10.7197C8.67678 11.0126 8.67678 11.4874 8.96967 11.7803C9.26256 12.0732 9.73744 12.0732 10.0303 11.7803L11.25 10.5607V15.25C11.25 15.6642 11.5858 16 12 16C12.4142 16 12.75 15.6642 12.75 15.25V10.5607L13.9697 11.7803C14.2626 12.0732 14.7374 12.0732 15.0303 11.7803C15.3232 11.4874 15.3232 11.0126 15.0303 10.7197L12.5303 8.21967Z" fill="#292556"/>
</svg>
