<svg width="24" height="24" viewBox="0 0 24 24" fill="none" xmlns="http://www.w3.org/2000/svg">
<path fill-rule="evenodd" clip-rule="evenodd" d="M12 21.75C17.3848 21.75 21.75 17.3848 21.75 12C21.75 6.61522 17.3848 2.25 12 2.25C6.61522 2.25 2.25 6.61522 2.25 12C2.25 17.3848 6.61522 21.75 12 21.75ZM10.7628 8.9519C10.3486 8.9519 10.0128 9.28769 10.0128 9.7019C10.0128 10.1161 10.3486 10.4519 10.7628 10.4519H12.4877L9.17182 13.7678C8.87893 14.0607 8.87893 14.5355 9.17182 14.8284C9.46471 15.1213 9.93959 15.1213 10.2325 14.8284L13.5483 11.5126V13.2374C13.5483 13.6517 13.8841 13.9874 14.2983 13.9874C14.7126 13.9874 15.0483 13.6517 15.0483 13.2374V9.7019C15.0483 9.28769 14.7126 8.9519 14.2983 8.9519H10.7628Z" fill="#292556"/>
</svg>
