<svg width="24" height="24" viewBox="0 0 24 24" fill="none" xmlns="http://www.w3.org/2000/svg">
<path fill-rule="evenodd" clip-rule="evenodd" d="M3.01393 3.89886C2.25 4.95032 2.25 6.45021 2.25 9.45V14.55C2.25 17.5498 2.25 19.0497 3.01393 20.1011C3.26065 20.4407 3.55928 20.7393 3.89886 20.9861C4.95032 21.75 6.45021 21.75 9.45 21.75H14.55C17.5498 21.75 19.0497 21.75 20.1011 20.9861C20.4407 20.7393 20.7393 20.4407 20.9861 20.1011C21.75 19.0497 21.75 17.5498 21.75 14.55V9.45C21.75 6.45021 21.75 4.95032 20.9861 3.89886C20.7393 3.55928 20.4407 3.26065 20.1011 3.01393C19.0497 2.25 17.5498 2.25 14.55 2.25H9.45C6.45021 2.25 4.95032 2.25 3.89886 3.01393C3.55928 3.26065 3.26065 3.55928 3.01393 3.89886ZM13.2803 8.96967C12.9874 8.67678 12.5126 8.67678 12.2197 8.96967C11.9268 9.26256 11.9268 9.73744 12.2197 10.0303L13.4393 11.25H8.75C8.33579 11.25 8 11.5858 8 12C8 12.4142 8.33579 12.75 8.75 12.75H13.4393L12.2197 13.9697C11.9268 14.2626 11.9268 14.7374 12.2197 15.0303C12.5126 15.3232 12.9874 15.3232 13.2803 15.0303L15.7803 12.5303C16.0732 12.2374 16.0732 11.7626 15.7803 11.4697L13.2803 8.96967Z" fill="#292556"/>
</svg>
