<svg width="24" height="24" viewBox="0 0 24 24" fill="none" xmlns="http://www.w3.org/2000/svg">
<path fill-rule="evenodd" clip-rule="evenodd" d="M12 21.75C17.3848 21.75 21.75 17.3848 21.75 12C21.75 6.61522 17.3848 2.25 12 2.25C6.61522 2.25 2.25 6.61522 2.25 12C2.25 17.3848 6.61522 21.75 12 21.75ZM11.7803 10.0303C12.0732 9.73744 12.0732 9.26256 11.7803 8.96967C11.4874 8.67678 11.0126 8.67678 10.7197 8.96967L8.21967 11.4697C7.92678 11.7626 7.92678 12.2374 8.21967 12.5303L10.7197 15.0303C11.0126 15.3232 11.4874 15.3232 11.7803 15.0303C12.0732 14.7374 12.0732 14.2626 11.7803 13.9697L10.5607 12.75H15.25C15.6642 12.75 16 12.4142 16 12C16 11.5858 15.6642 11.25 15.25 11.25H10.5607L11.7803 10.0303Z" fill="#292556"/>
</svg>
