<svg width="24" height="24" viewBox="0 0 24 24" fill="none" xmlns="http://www.w3.org/2000/svg">
<path fill-rule="evenodd" clip-rule="evenodd" d="M12 21.75C17.3848 21.75 21.75 17.3848 21.75 12C21.75 6.61522 17.3848 2.25 12 2.25C6.61522 2.25 2.25 6.61522 2.25 12C2.25 17.3848 6.61522 21.75 12 21.75ZM9.70166 8.9519C9.28745 8.9519 8.95166 9.28769 8.95166 9.7019V13.2374C8.95166 13.6517 9.28745 13.9874 9.70166 13.9874C10.1159 13.9874 10.4517 13.6517 10.4517 13.2374V11.5126L13.7675 14.8284C14.0604 15.1213 14.5353 15.1213 14.8282 14.8284C15.1211 14.5355 15.1211 14.0607 14.8282 13.7678L11.5123 10.4519H13.2372C13.6514 10.4519 13.9872 10.1161 13.9872 9.7019C13.9872 9.28769 13.6514 8.9519 13.2372 8.9519H9.70166Z" fill="#292556"/>
</svg>
