<svg width="24" height="24" viewBox="0 0 24 24" fill="none" xmlns="http://www.w3.org/2000/svg">
<path fill-rule="evenodd" clip-rule="evenodd" d="M3.01393 3.89886C2.25 4.95032 2.25 6.45021 2.25 9.45V14.55C2.25 17.5498 2.25 19.0497 3.01393 20.1011C3.26065 20.4407 3.55928 20.7393 3.89886 20.9861C4.95032 21.75 6.45021 21.75 9.45 21.75H14.55C17.5498 21.75 19.0497 21.75 20.1011 20.9861C20.4407 20.7393 20.7393 20.4407 20.9861 20.1011C21.75 19.0497 21.75 17.5498 21.75 14.55V9.45C21.75 6.45021 21.75 4.95032 20.9861 3.89886C20.7393 3.55928 20.4407 3.26065 20.1011 3.01393C19.0497 2.25 17.5498 2.25 14.55 2.25H9.45C6.45021 2.25 4.95032 2.25 3.89886 3.01393C3.55928 3.26065 3.26065 3.55928 3.01393 3.89886ZM11.7803 10.0303C12.0732 9.73744 12.0732 9.26256 11.7803 8.96967C11.4874 8.67678 11.0126 8.67678 10.7197 8.96967L8.21967 11.4697C7.92678 11.7626 7.92678 12.2374 8.21967 12.5303L10.7197 15.0303C11.0126 15.3232 11.4874 15.3232 11.7803 15.0303C12.0732 14.7374 12.0732 14.2626 11.7803 13.9697L10.5607 12.75H15.25C15.6642 12.75 16 12.4142 16 12C16 11.5858 15.6642 11.25 15.25 11.25H10.5607L11.7803 10.0303Z" fill="#292556"/>
</svg>
