<svg width="24" height="24" viewBox="0 0 24 24" fill="none" xmlns="http://www.w3.org/2000/svg">
<path fill-rule="evenodd" clip-rule="evenodd" d="M3.01393 3.89886C2.25 4.95032 2.25 6.45021 2.25 9.45V14.55C2.25 17.5498 2.25 19.0497 3.01393 20.1011C3.26065 20.4407 3.55928 20.7393 3.89886 20.9861C4.95032 21.75 6.45021 21.75 9.45 21.75H14.55C17.5498 21.75 19.0497 21.75 20.1011 20.9861C20.4407 20.7393 20.7393 20.4407 20.9861 20.1011C21.75 19.0497 21.75 17.5498 21.75 14.55V9.45C21.75 6.45021 21.75 4.95032 20.9861 3.89886C20.7393 3.55928 20.4407 3.26065 20.1011 3.01393C19.0497 2.25 17.5498 2.25 14.55 2.25H9.45C6.45021 2.25 4.95032 2.25 3.89886 3.01393C3.55928 3.26065 3.26065 3.55928 3.01393 3.89886ZM15.0303 13.2803L12.5303 15.7803C12.2374 16.0732 11.7626 16.0732 11.4697 15.7803L8.96967 13.2803C8.67678 12.9874 8.67678 12.5126 8.96967 12.2197C9.26256 11.9268 9.73744 11.9268 10.0303 12.2197L11.25 13.4393V8.75C11.25 8.33579 11.5858 8 12 8C12.4142 8 12.75 8.33579 12.75 8.75V13.4393L13.9697 12.2197C14.2626 11.9268 14.7374 11.9268 15.0303 12.2197C15.3232 12.5126 15.3232 12.9874 15.0303 13.2803Z" fill="#292556"/>
</svg>
