<svg width="24" height="24" viewBox="0 0 24 24" fill="none" xmlns="http://www.w3.org/2000/svg">
<path fill-rule="evenodd" clip-rule="evenodd" d="M12 21.75C17.3848 21.75 21.75 17.3848 21.75 12C21.75 6.61522 17.3848 2.25 12 2.25C6.61522 2.25 2.25 6.61522 2.25 12C2.25 17.3848 6.61522 21.75 12 21.75ZM15.0303 13.2803L12.5303 15.7803C12.2374 16.0732 11.7626 16.0732 11.4697 15.7803L8.96967 13.2803C8.67678 12.9874 8.67678 12.5126 8.96967 12.2197C9.26256 11.9268 9.73744 11.9268 10.0303 12.2197L11.25 13.4393V8.75C11.25 8.33579 11.5858 8 12 8C12.4142 8 12.75 8.33579 12.75 8.75V13.4393L13.9697 12.2197C14.2626 11.9268 14.7374 11.9268 15.0303 12.2197C15.3232 12.5126 15.3232 12.9874 15.0303 13.2803Z" fill="#292556"/>
</svg>
