<svg width="24" height="24" viewBox="0 0 24 24" fill="none" xmlns="http://www.w3.org/2000/svg">
<path fill-rule="evenodd" clip-rule="evenodd" d="M12 21.75C17.3848 21.75 21.75 17.3848 21.75 12C21.75 6.61522 17.3848 2.25 12 2.25C6.61522 2.25 2.25 6.61522 2.25 12C2.25 17.3848 6.61522 21.75 12 21.75ZM13.2803 8.96967C12.9874 8.67678 12.5126 8.67678 12.2197 8.96967C11.9268 9.26256 11.9268 9.73744 12.2197 10.0303L13.4393 11.25H8.75C8.33579 11.25 8 11.5858 8 12C8 12.4142 8.33579 12.75 8.75 12.75H13.4393L12.2197 13.9697C11.9268 14.2626 11.9268 14.7374 12.2197 15.0303C12.5126 15.3232 12.9874 15.3232 13.2803 15.0303L15.7803 12.5303C16.0732 12.2374 16.0732 11.7626 15.7803 11.4697L13.2803 8.96967Z" fill="#292556"/>
</svg>
