<svg width="24" height="24" viewBox="0 0 24 24" fill="none" xmlns="http://www.w3.org/2000/svg">
<path fill-rule="evenodd" clip-rule="evenodd" d="M12 21.75C17.3848 21.75 21.75 17.3848 21.75 12C21.75 6.61522 17.3848 2.25 12 2.25C6.61522 2.25 2.25 6.61522 2.25 12C2.25 17.3848 6.61522 21.75 12 21.75ZM10.2325 9.17157C9.93959 8.87868 9.46471 8.87868 9.17182 9.17157C8.87893 9.46447 8.87893 9.93934 9.17182 10.2322L12.4877 13.5481H10.7628C10.3486 13.5481 10.0128 13.8839 10.0128 14.2981C10.0128 14.7123 10.3486 15.0481 10.7628 15.0481H14.2983C14.7126 15.0481 15.0483 14.7123 15.0483 14.2981V10.7626C15.0483 10.3484 14.7126 10.0126 14.2983 10.0126C13.8841 10.0126 13.5483 10.3484 13.5483 10.7626V12.4874L10.2325 9.17157Z" fill="#292556"/>
</svg>
