<svg width="24" height="24" viewBox="0 0 24 24" fill="none" xmlns="http://www.w3.org/2000/svg">
<path fill-rule="evenodd" clip-rule="evenodd" d="M5.4069 3.00898C6.58293 2.25 8.15238 2.25 11.2913 2.25H12.7082C15.8471 2.25 17.4166 2.25 18.5926 3.00898C18.9745 3.25543 19.319 3.55541 19.6157 3.89975C20.5292 4.96018 20.7451 6.51472 21.1769 9.62379L21.5103 12.0238C22.0655 16.0214 22.3431 18.0202 21.4664 19.4646C21.1849 19.9283 20.8261 20.3404 20.4056 20.6829C19.0955 21.75 17.0775 21.75 13.0416 21.75H10.958C6.92202 21.75 4.90405 21.75 3.59396 20.6829C3.17337 20.3404 2.81458 19.9283 2.53313 19.4646C1.65643 18.0202 1.93404 16.0214 2.48926 12.0238L2.82259 9.62379C3.25441 6.51472 3.47031 4.96018 4.38386 3.89975C4.6805 3.55541 5.02503 3.25543 5.4069 3.00898ZM8.74975 7C8.74975 6.58579 8.41397 6.25 7.99975 6.25C7.58554 6.25 7.24975 6.58579 7.24975 7V8C7.24975 10.6234 9.3764 12.75 11.9998 12.75C14.6231 12.75 16.7498 10.6234 16.7498 8V7C16.7498 6.58579 16.414 6.25 15.9998 6.25C15.5855 6.25 15.2498 6.58579 15.2498 7V8C15.2498 9.79493 13.7947 11.25 11.9998 11.25C10.2048 11.25 8.74975 9.79493 8.74975 8V7Z" fill="#292556"/>
</svg>
