<svg width="24" height="24" viewBox="0 0 24 24" fill="none" xmlns="http://www.w3.org/2000/svg">
<path fill-rule="evenodd" clip-rule="evenodd" d="M11.399 2.25C8.55476 2.25 6.24902 4.55573 6.24902 7.4H6.25224C6.05814 7.43724 5.88103 7.48373 5.71431 7.54175C3.86939 8.1839 2.53356 9.79729 2.24692 11.7296C2.11668 12.6076 2.32211 13.6893 2.73297 15.8527C3.02546 17.3928 3.17171 18.1629 3.47497 18.7889C4.1384 20.1584 5.36338 21.1726 6.83256 21.5689C7.50415 21.75 8.28799 21.75 9.85565 21.75H14.1154C15.6786 21.75 16.4601 21.75 17.1303 21.5697C18.5963 21.1752 19.8198 20.1654 20.4851 18.8008C20.7893 18.177 20.9375 17.4096 21.2339 15.8748C21.6526 13.7066 21.862 12.6225 21.7337 11.7427C21.4514 9.80604 20.1153 8.18721 18.2674 7.54278C18.0996 7.48427 17.9213 7.43746 17.7257 7.4H17.749C17.749 4.55573 15.4433 2.25 12.599 2.25H11.399ZM16.2467 7.26742C16.1769 5.31299 14.5705 3.75 12.599 3.75H11.399C9.4278 3.75 7.82155 5.31262 7.75141 7.26673C8.32116 7.25 9.00656 7.25 9.85566 7.25H14.1154C14.9774 7.25 15.6712 7.25 16.2467 7.26742Z" fill="#292556"/>
</svg>
