<svg width="24" height="24" viewBox="0 0 24 24" fill="none" xmlns="http://www.w3.org/2000/svg">
<path fill-rule="evenodd" clip-rule="evenodd" d="M12 21.75C17.3848 21.75 21.75 17.3848 21.75 12C21.75 9.57718 20.8663 7.36076 19.4036 5.6555L18.892 6.16705L10.7189 14.3402L7.4744 17.5847L6.51314 18.546L6.25406 18.805L6.18694 18.8722L6.16987 18.8892L6.16556 18.8935L6.16448 18.8946L6.16421 18.8949C6.16415 18.8949 6.16412 18.895 5.63379 18.3646C5.10346 17.8343 5.10349 17.8343 5.10355 17.8342L5.10382 17.834L5.1049 17.8329L5.10921 17.8286L5.12628 17.8115L5.19339 17.7444L5.45248 17.4853L6.41374 16.524L9.65819 13.2796L17.8314 5.10639L18.3428 4.59496C16.6378 3.13314 14.422 2.25 12 2.25C6.61522 2.25 2.25 6.61522 2.25 12C2.25 14.422 3.13314 16.6378 4.59496 18.3428L5.10346 17.8343L5.63379 18.3646L6.16412 18.895L5.6555 19.4036C7.36076 20.8663 9.57718 21.75 12 21.75ZM18.7503 4.96461C18.8473 5.05769 18.9423 5.15275 19.0354 5.24974L18.7503 4.96461Z" fill="#292556"/>
</svg>
