<svg width="24" height="24" viewBox="0 0 24 24" fill="none" xmlns="http://www.w3.org/2000/svg">
<path fill-rule="evenodd" clip-rule="evenodd" d="M13.2382 3.69178C15.1908 1.73916 18.3567 1.73916 20.3093 3.69178V3.69178C22.2619 5.6444 22.2619 8.81022 20.3093 10.7628L10.7633 20.3088C8.81071 22.2614 5.64489 22.2614 3.69227 20.3088V20.3088C1.73965 18.3562 1.73965 15.1903 3.69227 13.2377L13.2382 3.69178ZM12.0025 9.52443C12.6859 8.84101 13.794 8.84101 14.4774 9.52443V9.52443C15.1608 10.2078 15.1608 11.3159 14.4774 11.9993L12.0025 14.4742C11.3191 15.1576 10.2111 15.1576 9.52766 14.4742V14.4742C8.84424 13.7908 8.84424 12.6827 9.52766 11.9993L12.0025 9.52443ZM17.128 6.16735C16.9327 6.36261 16.6161 6.36261 16.4209 6.16735C16.2256 5.97209 16.2256 5.6555 16.4209 5.46024C16.6161 5.26498 16.9327 5.26498 17.128 5.46024C17.3233 5.6555 17.3233 5.97209 17.128 6.16735ZM6.87494 15.7133C7.07021 15.9085 7.38679 15.9086 7.58205 15.7133C7.77731 15.518 7.77731 15.2014 7.58205 15.0062C7.38679 14.8109 7.07021 14.8109 6.87494 15.0062C6.67968 15.2014 6.67968 15.518 6.87494 15.7133ZM8.28901 17.1273C8.48427 17.3226 8.80085 17.3226 8.99611 17.1274C9.19138 16.9321 9.19137 16.6155 8.99611 16.4202C8.80085 16.225 8.48427 16.225 8.28901 16.4202C8.09374 16.6155 8.09374 16.9321 8.28901 17.1273ZM6.16799 17.1273C5.97272 17.3226 5.65614 17.3226 5.46088 17.1273C5.26562 16.9321 5.26562 16.6155 5.46088 16.4202C5.65614 16.225 5.97273 16.225 6.16799 16.4202C6.36325 16.6155 6.36325 16.9321 6.16799 17.1273ZM6.87494 18.5414C7.07021 18.7367 7.38679 18.7367 7.58205 18.5414C7.77731 18.3462 7.77731 18.0296 7.58205 17.8343C7.38679 17.639 7.07021 17.639 6.87494 17.8343C6.67968 18.0296 6.67968 18.3462 6.87494 18.5414ZM17.8349 7.58141C18.0302 7.77667 18.3468 7.77667 18.5421 7.58141C18.7373 7.38615 18.7373 7.06957 18.5421 6.8743C18.3468 6.67904 18.0302 6.67904 17.8349 6.8743C17.6397 7.06957 17.6397 7.38615 17.8349 7.58141ZM15.7139 7.58141C15.5187 7.77667 15.2021 7.77667 15.0068 7.58141C14.8116 7.38615 14.8116 7.06957 15.0068 6.8743C15.2021 6.67904 15.5187 6.67904 15.7139 6.8743C15.9092 7.06957 15.9092 7.38615 15.7139 7.58141ZM16.4209 8.99547C16.6161 9.19074 16.9327 9.19074 17.128 8.99547C17.3233 8.80021 17.3233 8.48363 17.128 8.28837C16.9327 8.0931 16.6161 8.0931 16.4209 8.28837C16.2256 8.48363 16.2256 8.80021 16.4209 8.99547Z" fill="#292556"/>
</svg>
