<svg width="24" height="24" viewBox="0 0 24 24" fill="none" xmlns="http://www.w3.org/2000/svg">
<path fill-rule="evenodd" clip-rule="evenodd" d="M10.8 2.25H13.2C16.7622 2.25 18.5434 2.25 19.792 3.15717C20.1952 3.45015 20.5499 3.80477 20.8428 4.20802C21.75 5.45663 21.75 7.23775 21.75 10.8V13.2C21.75 16.7622 21.75 18.5434 20.8428 19.792C20.5499 20.1952 20.1952 20.5499 19.792 20.8428C18.5434 21.75 16.7622 21.75 13.2 21.75H10.8C7.23775 21.75 5.45663 21.75 4.20802 20.8428C3.80477 20.5499 3.45015 20.1952 3.15717 19.792C2.25 18.5434 2.25 16.7622 2.25 13.2V10.8C2.25 7.23775 2.25 5.45663 3.15717 4.20802C3.45015 3.80477 3.80477 3.45015 4.20802 3.15717C5.45663 2.25 7.23775 2.25 10.8 2.25ZM18.0303 7.03033C18.3232 6.73744 18.3232 6.26256 18.0303 5.96967C17.7374 5.67678 17.2626 5.67678 16.9697 5.96967L16.7543 6.18509C15.4975 7.44187 13.7041 8.00208 11.9554 7.68414C10.2556 7.37509 8.5195 7.99147 7.39516 9.30321L5.93056 11.0119C5.66099 11.3264 5.69741 11.7999 6.01191 12.0694C6.3264 12.339 6.79988 12.3026 7.06944 11.9881L8.53404 10.2794C9.31143 9.37244 10.5118 8.94626 11.6871 9.15994C13.92 9.56594 16.2101 8.85058 17.8149 7.24575L18.0303 7.03033ZM16.75 11C16.75 10.5858 16.4142 10.25 16 10.25C15.5858 10.25 15.25 10.5858 15.25 11V18C15.25 18.4142 15.5858 18.75 16 18.75C16.4142 18.75 16.75 18.4142 16.75 18V11ZM12.75 13C12.75 12.5858 12.4142 12.25 12 12.25C11.5858 12.25 11.25 12.5858 11.25 13V18C11.25 18.4142 11.5858 18.75 12 18.75C12.4142 18.75 12.75 18.4142 12.75 18V13ZM8.75 15C8.75 14.5858 8.41421 14.25 8 14.25C7.58579 14.25 7.25 14.5858 7.25 15V18C7.25 18.4142 7.58579 18.75 8 18.75C8.41421 18.75 8.75 18.4142 8.75 18V15Z" fill="#292556"/>
</svg>
