<svg width="24" height="24" viewBox="0 0 24 24" fill="none" xmlns="http://www.w3.org/2000/svg">
<path fill-rule="evenodd" clip-rule="evenodd" d="M10.8 2.25H13.2C16.7622 2.25 18.5434 2.25 19.792 3.15717C20.1952 3.45015 20.5499 3.80477 20.8428 4.20802C21.75 5.45663 21.75 7.23775 21.75 10.8V13.2C21.75 16.7622 21.75 18.5434 20.8428 19.792C20.5499 20.1952 20.1952 20.5499 19.792 20.8428C18.5434 21.75 16.7622 21.75 13.2 21.75H10.8C7.23775 21.75 5.45663 21.75 4.20802 20.8428C3.80477 20.5499 3.45015 20.1952 3.15717 19.792C2.25 18.5434 2.25 16.7622 2.25 13.2V10.8C2.25 7.23775 2.25 5.45663 3.15717 4.20802C3.45015 3.80477 3.80477 3.45015 4.20802 3.15717C5.45663 2.25 7.23775 2.25 10.8 2.25ZM9.13 7.50488C9.61325 7.50488 10.005 7.89663 10.005 8.37988V15.62C10.005 16.1032 9.61325 16.495 9.13 16.495C8.64676 16.495 8.255 16.1032 8.255 15.62V8.37988C8.255 7.89663 8.64676 7.50488 9.13 7.50488ZM12.37 7.50488C12.8533 7.50488 13.245 7.89663 13.245 8.37988V15.62C13.245 16.1032 12.8533 16.495 12.37 16.495C11.8868 16.495 11.495 16.1032 11.495 15.62V8.37988C11.495 7.89663 11.8868 7.50488 12.37 7.50488ZM6.78003 8C6.78003 7.72386 6.55617 7.5 6.28003 7.5C6.00389 7.5 5.78003 7.72386 5.78003 8V16C5.78003 16.2761 6.00389 16.5 6.28003 16.5C6.55617 16.5 6.78003 16.2761 6.78003 16V8ZM15.74 8C15.74 7.72386 15.5162 7.5 15.24 7.5C14.9639 7.5 14.74 7.72386 14.74 8V16C14.74 16.2761 14.9639 16.5 15.24 16.5C15.5162 16.5 15.74 16.2761 15.74 16V8ZM18.22 8C18.22 7.72386 17.9962 7.5 17.72 7.5C17.4439 7.5 17.22 7.72386 17.22 8V16C17.22 16.2761 17.4439 16.5 17.72 16.5C17.9962 16.5 18.22 16.2761 18.22 16V8Z" fill="#292556"/>
</svg>
