<svg width="24" height="24" viewBox="0 0 24 24" fill="none" xmlns="http://www.w3.org/2000/svg">
<path fill-rule="evenodd" clip-rule="evenodd" d="M2.69556 7.60561C2.25 8.50041 2.25 9.66694 2.25 12C2.25 14.3331 2.25 15.4996 2.69556 16.3944C3.10758 17.2218 3.77815 17.8924 4.60561 18.3044C5.50041 18.75 6.66694 18.75 9 18.75H12.5C14.8331 18.75 15.9996 18.75 16.8944 18.3044C17.7218 17.8924 18.3924 17.2218 18.8044 16.3944C19.25 15.4996 19.25 14.3331 19.25 12C19.25 9.66694 19.25 8.50041 18.8044 7.60561C18.3924 6.77815 17.7218 6.10758 16.8944 5.69556C15.9996 5.25 14.8331 5.25 12.5 5.25H9C6.66694 5.25 5.50041 5.25 4.60561 5.69556C3.77815 6.10758 3.10758 6.77815 2.69556 7.60561ZM7.75 10C7.75 9.58579 7.41421 9.25 7 9.25C6.58579 9.25 6.25 9.58579 6.25 10V14C6.25 14.4142 6.58579 14.75 7 14.75C7.41421 14.75 7.75 14.4142 7.75 14V10ZM11.5 10C11.5 9.58579 11.1642 9.25 10.75 9.25C10.3358 9.25 10 9.58579 10 10V14C10 14.4142 10.3358 14.75 10.75 14.75C11.1642 14.75 11.5 14.4142 11.5 14V10ZM21.75 11C21.75 10.5858 21.4142 10.25 21 10.25C20.5858 10.25 20.25 10.5858 20.25 11V13C20.25 13.4142 20.5858 13.75 21 13.75C21.4142 13.75 21.75 13.4142 21.75 13V11Z" fill="#292556"/>
</svg>
