<svg width="24" height="24" viewBox="0 0 24 24" fill="none" xmlns="http://www.w3.org/2000/svg">
<path fill-rule="evenodd" clip-rule="evenodd" d="M2.25 12C2.25 9.66694 2.25 8.50041 2.69556 7.60561C3.10758 6.77815 3.77815 6.10758 4.60561 5.69556C5.50041 5.25 6.66694 5.25 9 5.25H12.5C14.8331 5.25 15.9996 5.25 16.8944 5.69556C17.7218 6.10758 18.3924 6.77815 18.8044 7.60561C19.25 8.50041 19.25 9.66694 19.25 12C19.25 14.3331 19.25 15.4996 18.8044 16.3944C18.3924 17.2218 17.7218 17.8924 16.8944 18.3044C15.9996 18.75 14.8331 18.75 12.5 18.75H9C6.66694 18.75 5.50041 18.75 4.60561 18.3044C3.77815 17.8924 3.10758 17.2218 2.69556 16.3944C2.25 15.4996 2.25 14.3331 2.25 12ZM21 10.25C21.4142 10.25 21.75 10.5858 21.75 11V13C21.75 13.4142 21.4142 13.75 21 13.75C20.5858 13.75 20.25 13.4142 20.25 13V11C20.25 10.5858 20.5858 10.25 21 10.25ZM14.0546 9.68536C14.4331 9.51713 14.6036 9.07391 14.4354 8.6954C14.2671 8.31688 13.8239 8.14641 13.4454 8.31464L10.4398 9.65048L10.4049 9.66598C10.1446 9.7816 9.89064 9.89441 9.69743 10.0098C9.49892 10.1283 9.20601 10.3385 9.08852 10.7204C9.03601 10.8911 9.02069 11.0711 9.04361 11.2483C9.09487 11.6446 9.34806 11.9012 9.52368 12.0516C9.69463 12.1979 9.92588 12.352 10.1629 12.51L10.1629 12.51L10.1946 12.5311L10.4733 12.7169C10.5581 12.7734 10.6324 12.823 10.6988 12.868C10.6258 12.9011 10.5441 12.9374 10.451 12.9788L7.4454 14.3146C7.06688 14.4829 6.89641 14.9261 7.06464 15.3046C7.23287 15.6831 7.67609 15.8536 8.0546 15.6854L11.0602 14.3495L11.0951 14.334C11.3554 14.2184 11.6094 14.1056 11.8026 13.9902C12.0011 13.8717 12.294 13.6615 12.4115 13.2796C12.464 13.1089 12.4793 12.9289 12.4564 12.7517C12.4051 12.3554 12.1519 12.0988 11.9763 11.9484C11.8054 11.8021 11.5741 11.648 11.3372 11.49L11.3371 11.49L11.3054 11.4689L11.0267 11.2831C10.9419 11.2266 10.8676 11.177 10.8012 11.132C10.8742 11.0989 10.9559 11.0626 11.049 11.0212L14.0546 9.68536ZM11.0405 13.1254C11.0404 13.1254 11.0391 13.1241 11.037 13.1214C11.0395 13.1241 11.0406 13.1255 11.0405 13.1254ZM11.0749 12.6754C11.0775 12.6731 11.079 12.672 11.0791 12.672C11.0792 12.672 11.0779 12.6731 11.0749 12.6754ZM10.4601 10.8751C10.4597 10.8747 10.4595 10.8746 10.4595 10.8746C10.4594 10.8745 10.4605 10.8759 10.463 10.8786C10.4617 10.8769 10.4606 10.8757 10.4601 10.8751ZM10.4209 11.328C10.421 11.328 10.4225 11.3269 10.4251 11.3246C10.4236 11.3258 10.4225 11.3266 10.4218 11.3272C10.4211 11.3277 10.4209 11.328 10.4209 11.328Z" fill="#292556"/>
</svg>
