<svg width="24" height="24" viewBox="0 0 24 24" fill="none" xmlns="http://www.w3.org/2000/svg">
<path fill-rule="evenodd" clip-rule="evenodd" d="M15.8583 5.37345C15.3224 4.90041 14.693 4.52945 13.9995 4.29294V4.25C13.9995 3.14543 13.104 2.25 11.9995 2.25C10.8949 2.25 9.99948 3.14543 9.99948 4.25V4.2936C7.67766 5.08645 6.07384 7.38656 6.30123 9.9788C6.42878 11.4329 5.97289 12.8781 5.03403 13.9957L4.54295 14.5804C3.90967 15.3343 3.8444 16.2807 4.17706 17.0546L15.8583 5.37345ZM17.3241 7.44316L6.26919 18.4981C6.30235 18.4993 6.33577 18.5 6.36944 18.5H9.73662H14.2629H17.6315C19.6583 18.5 20.7616 16.1323 19.458 14.5804L18.9669 13.9957C18.028 12.8781 17.5721 11.4329 17.6997 9.9788C17.7784 9.08183 17.6378 8.21983 17.3241 7.44316ZM12 22C10.8954 22 10 21.1046 10 20H14C14 21.1046 13.1046 22 12 22Z" fill="#292556"/>
<path d="M3 21L21 3" stroke="#292556" stroke-width="1.5" stroke-linecap="round" stroke-linejoin="round"/>
</svg>
