<svg width="24" height="24" viewBox="0 0 24 24" fill="none" xmlns="http://www.w3.org/2000/svg">
<path fill-rule="evenodd" clip-rule="evenodd" d="M17.6987 9.9788C17.9262 7.38584 16.3214 5.08517 13.9985 4.29294V4.25C13.9985 3.14543 13.1031 2.25 11.9985 2.25C10.8939 2.25 9.9985 3.14543 9.9985 4.25V4.2936C7.67668 5.08645 6.07286 7.38656 6.30025 9.9788C6.4278 11.4329 5.97191 12.8781 5.03305 13.9957L4.54197 14.5804C3.23835 16.1323 4.34167 18.5 6.36847 18.5H9.73564H14.262H17.6305C19.6573 18.5 20.7606 16.1323 19.457 14.5804L18.9659 13.9957C18.027 12.8781 17.5712 11.4329 17.6987 9.9788ZM11.999 22C10.8945 22 9.99902 21.1046 9.99902 20H13.999C13.999 21.1046 13.1036 22 11.999 22ZM11.0299 9.96969C10.737 9.67679 10.2621 9.67677 9.9692 9.96965C9.6763 10.2625 9.67628 10.7374 9.96916 11.0303L10.9388 12L9.96916 12.9697C9.67628 13.2626 9.6763 13.7375 9.9692 14.0303C10.2621 14.3232 10.737 14.3232 11.0299 14.0303L11.9994 13.0607L12.9692 14.0303C13.2621 14.3232 13.737 14.3232 14.0299 14.0303C14.3227 13.7374 14.3227 13.2625 14.0298 12.9697L13.0601 12L14.0298 11.0303C14.3227 10.7375 14.3227 10.2626 14.0299 9.96969C13.737 9.67679 13.2621 9.67677 12.9692 9.96965L11.9994 10.9393L11.0299 9.96969Z" fill="#292556"/>
</svg>
