<svg width="24" height="24" viewBox="0 0 24 24" fill="none" xmlns="http://www.w3.org/2000/svg">
<path fill-rule="evenodd" clip-rule="evenodd" d="M13.9995 4.29294C16.3224 5.08517 17.9271 7.38584 17.6997 9.9788C17.5721 11.4329 18.028 12.8781 18.9669 13.9957L19.458 14.5804C20.7616 16.1323 19.6583 18.5 17.6315 18.5H14.2629H9.73662H6.36944C4.34265 18.5 3.23933 16.1323 4.54295 14.5804L5.03403 13.9957C5.97289 12.8781 6.42878 11.4329 6.30123 9.9788C6.07384 7.38656 7.67766 5.08645 9.99948 4.2936V4.25C9.99948 3.14543 10.8949 2.25 11.9995 2.25C13.104 2.25 13.9995 3.14543 13.9995 4.25V4.29294ZM10 20C10 21.1046 10.8954 22 12 22C13.1046 22 14 21.1046 14 20H10ZM12.0004 9C12.4146 9 12.7504 9.33579 12.7504 9.75V10.75H13.7504C14.1646 10.75 14.5004 11.0858 14.5004 11.5C14.5004 11.9142 14.1646 12.25 13.7504 12.25H12.7504V13.25C12.7504 13.6642 12.4146 14 12.0004 14C11.5862 14 11.2504 13.6642 11.2504 13.25V12.25H10.2504C9.83621 12.25 9.50043 11.9142 9.50043 11.5C9.50043 11.0858 9.83621 10.75 10.2504 10.75H11.2504V9.75C11.2504 9.33579 11.5862 9 12.0004 9Z" fill="#292556"/>
</svg>
