<svg width="24" height="24" viewBox="0 0 24 24" fill="none" xmlns="http://www.w3.org/2000/svg">
<path fill-rule="evenodd" clip-rule="evenodd" d="M13.9995 4.29294C16.3224 5.08517 17.9271 7.38584 17.6997 9.9788C17.5721 11.4329 18.028 12.8781 18.9669 13.9957L19.458 14.5804C20.7616 16.1323 19.6583 18.5 17.6315 18.5H14.2629H9.73662H6.36944C4.34265 18.5 3.23933 16.1323 4.54295 14.5804L5.03403 13.9957C5.97289 12.8781 6.42878 11.4329 6.30123 9.9788C6.07384 7.38656 7.67766 5.08645 9.99948 4.2936V4.25C9.99948 3.14543 10.8949 2.25 11.9995 2.25C13.104 2.25 13.9995 3.14543 13.9995 4.25V4.29294ZM10 20C10 21.1046 10.8954 22 12 22C13.1046 22 14 21.1046 14 20H10ZM13 9C13 9.55228 12.5523 10 12 10C11.4477 10 11 9.55228 11 9C11 8.44772 11.4477 8 12 8C12.5523 8 13 8.44772 13 9ZM12.75 12C12.75 11.5858 12.4142 11.25 12 11.25C11.5858 11.25 11.25 11.5858 11.25 12V15C11.25 15.4142 11.5858 15.75 12 15.75C12.4142 15.75 12.75 15.4142 12.75 15V12Z" fill="#292556"/>
</svg>
