<svg width="24" height="24" viewBox="0 0 24 24" fill="none" xmlns="http://www.w3.org/2000/svg">
<path fill-rule="evenodd" clip-rule="evenodd" d="M13.9995 4.29294C16.3224 5.08517 17.9271 7.38584 17.6997 9.9788C17.5721 11.4329 18.028 12.8781 18.9669 13.9957L19.458 14.5804C20.7616 16.1323 19.6583 18.5 17.6315 18.5H14.2629H9.73662H6.36944C4.34265 18.5 3.23933 16.1323 4.54295 14.5804L5.03403 13.9957C5.97289 12.8781 6.42878 11.4329 6.30123 9.9788C6.07384 7.38656 7.67766 5.08645 9.99948 4.2936V4.25C9.99948 3.14543 10.8949 2.25 11.9995 2.25C13.104 2.25 13.9995 3.14543 13.9995 4.25V4.29294ZM10 20C10 21.1046 10.8954 22 12 22C13.1046 22 14 21.1046 14 20H10ZM10.5005 10.75C10.0862 10.75 9.75046 10.4142 9.75046 10C9.75046 9.58579 10.0862 9.25 10.5005 9.25H13.5005C13.8038 9.25 14.0773 9.43273 14.1934 9.71299C14.3095 9.99324 14.2453 10.3158 14.0308 10.5303L12.3111 12.25H13.5005C13.9147 12.25 14.2505 12.5858 14.2505 13C14.2505 13.4142 13.9147 13.75 13.5005 13.75H10.5005C10.1971 13.75 9.92363 13.5673 9.80755 13.287C9.69146 13.0068 9.75563 12.6842 9.97013 12.4697L11.6898 10.75H10.5005Z" fill="#292556"/>
</svg>
