<svg width="24" height="24" viewBox="0 0 24 24" fill="none" xmlns="http://www.w3.org/2000/svg">
<path fill-rule="evenodd" clip-rule="evenodd" d="M17.6987 9.9788C17.9262 7.38584 16.3214 5.08517 13.9985 4.29294V4.25C13.9985 3.14543 13.1031 2.25 11.9985 2.25C10.8939 2.25 9.9985 3.14543 9.9985 4.25V4.2936C7.67668 5.08645 6.07286 7.38656 6.30025 9.9788C6.4278 11.4329 5.97191 12.8781 5.03305 13.9957L4.54197 14.5804C3.23835 16.1323 4.34167 18.5 6.36847 18.5H9.73564H14.262H17.6305C19.6573 18.5 20.7606 16.1323 19.457 14.5804L18.9659 13.9957C18.027 12.8781 17.5712 11.4329 17.6987 9.9788ZM11.999 22C10.8945 22 9.99902 21.1046 9.99902 20H13.999C13.999 21.1046 13.1036 22 11.999 22ZM14.499 11.5595C14.808 11.2836 14.8348 10.8095 14.559 10.5005C14.2831 10.1915 13.809 10.1647 13.5 10.4405L11.2396 12.4588L10.5406 11.7306C10.2537 11.4318 9.77892 11.4221 9.48011 11.709C9.1813 11.9958 9.17162 12.4706 9.45847 12.7694L10.6585 14.0194C10.938 14.3106 11.3979 14.3283 11.699 14.0595L14.499 11.5595Z" fill="#292556"/>
</svg>
