<svg width="24" height="24" viewBox="0 0 24 24" fill="none" xmlns="http://www.w3.org/2000/svg">
<path d="M10.3314 5.33865C10.2721 3.6159 8.85829 2.25001 7.13451 2.25003V2.25003C5.53681 2.25004 4.18412 3.42893 3.96577 5.01164L2.8566 13.0514C3.84847 12.2381 5.11723 11.75 6.5 11.75C8.1114 11.75 9.56798 12.4129 10.612 13.4808L10.5442 11.5131C11.5914 10.9123 12.4089 10.9123 13.4562 11.5131L13.3883 13.4806C14.4322 12.4128 15.8887 11.75 17.5 11.75C18.8829 11.75 20.1517 12.2382 21.1436 13.0516L20.0349 5.01187C19.8167 3.42908 18.4639 2.25009 16.8662 2.25007V2.25007C15.1424 2.25006 13.7287 3.61585 13.6692 5.33853L13.5558 8.62689C12.4246 8.1244 11.5759 8.12437 10.4447 8.6268L10.3314 5.33865Z" fill="#292556"/>
<path d="M21.75 17.5C21.75 19.8472 19.8472 21.75 17.5 21.75C15.1528 21.75 13.25 19.8472 13.25 17.5C13.25 15.1528 15.1528 13.25 17.5 13.25C19.8472 13.25 21.75 15.1528 21.75 17.5Z" fill="#292556"/>
<path d="M10.75 17.5C10.75 19.8472 8.84721 21.75 6.5 21.75C4.15279 21.75 2.25 19.8472 2.25 17.5C2.25 15.1528 4.15279 13.25 6.5 13.25C8.84721 13.25 10.75 15.1528 10.75 17.5Z" fill="#292556"/>
</svg>
