<svg width="24" height="24" viewBox="0 0 24 24" fill="none" xmlns="http://www.w3.org/2000/svg">
<path fill-rule="evenodd" clip-rule="evenodd" d="M9.54492 4.21191C9.87174 3.95742 9.93038 3.48619 9.67589 3.15937C9.42141 2.83255 8.95017 2.77391 8.62335 3.02839C7.33251 4.03353 6.49996 5.60481 6.49996 7.37015C6.49996 8.37218 6.76783 9.31135 7.23576 10.1202C5.83293 10.1238 4.43122 10.6607 3.36088 11.7311C2.11259 12.9794 1.59023 14.6791 1.79225 16.3026C1.8434 16.7137 2.21808 17.0054 2.62912 16.9543C3.04017 16.9031 3.33192 16.5284 3.28077 16.1174C3.13341 14.9332 3.51419 13.6991 4.42154 12.7917C5.88099 11.3323 8.18774 11.2364 9.75844 12.504C9.75283 12.5687 9.74997 12.6342 9.74997 12.7002C9.74997 12.7002 9.74996 12.7002 9.74996 12.7002C9.74996 12.7039 9.74997 12.7076 9.74999 12.7112C9.75026 12.7667 9.75253 12.8217 9.75674 12.8761C9.82401 13.7468 10.3866 14.478 11.1633 14.7893C11.2209 15.0618 11.2498 15.339 11.2501 15.6162L11.2501 15.625C11.2489 16.6478 10.8578 17.6692 10.0784 18.4486C9.17104 19.3559 7.93695 19.7367 6.75273 19.5893C6.34169 19.5382 5.96701 19.83 5.91586 20.241C5.86471 20.652 6.15646 21.0267 6.56751 21.0779C8.19101 21.2799 9.89077 20.7575 11.1391 19.5092C11.4803 19.168 11.7672 18.7932 12 18.3954C12.2327 18.7932 12.5197 19.168 12.8609 19.5092C14.1092 20.7575 15.8089 21.2799 17.4324 21.0779C17.8435 21.0267 18.1352 20.652 18.0841 20.241C18.0329 19.83 17.6582 19.5382 17.2472 19.5893C16.063 19.7367 14.8289 19.3559 13.9215 18.4486C13.1421 17.6692 12.7511 16.6478 12.7498 15.625V15.6162C12.7501 15.339 12.779 15.0618 12.8366 14.7893C13.5615 14.4987 14.0999 13.8424 14.2232 13.0483C14.2408 12.9348 14.25 12.8186 14.25 12.7002C14.25 12.7002 14.25 12.7002 14.25 12.7002C14.25 12.6342 14.2471 12.5687 14.2415 12.504C15.8122 11.2364 18.1189 11.3323 19.5784 12.7917C20.4857 13.6991 20.8665 14.9332 20.7192 16.1174C20.668 16.5284 20.9598 16.9031 21.3708 16.9543C21.7819 17.0054 22.1565 16.7137 22.2077 16.3026C22.4097 14.6791 21.8873 12.9794 20.6391 11.7311C19.5687 10.6607 18.167 10.1238 16.7642 10.1202C17.2321 9.31135 17.5 8.37218 17.5 7.37015C17.5 5.60481 16.6674 4.03353 15.3766 3.02839C15.0498 2.77391 14.5785 2.83255 14.324 3.15937C14.0696 3.48619 14.1282 3.95742 14.455 4.21191C15.3966 4.94508 16 6.08696 16 7.37015C16 9.03181 14.9862 10.4583 13.5424 11.0622C13.1401 10.6833 12.5975 10.4502 12 10.4502C11.4025 10.4502 10.8598 10.6833 10.4575 11.0622C9.0137 10.4583 7.99996 9.03181 7.99996 7.37015C7.99996 6.08696 8.60335 4.94508 9.54492 4.21191ZM10.3161 8.97068C10.827 8.7332 11.3969 8.60025 12 8.60025C12.603 8.60025 13.1729 8.7332 13.6838 8.97068C14.0594 9.14529 14.5055 8.98234 14.6801 8.60673C14.8547 8.23111 14.6917 7.78507 14.3161 7.61046C13.6112 7.2828 12.8259 7.10025 12 7.10025C11.174 7.10025 10.3887 7.2828 9.68381 7.61046C9.3082 7.78507 9.14525 8.23111 9.31986 8.60673C9.49446 8.98234 9.94051 9.14529 10.3161 8.97068ZM8.03798 13.159C7.98049 12.7488 7.60135 12.4628 7.19114 12.5203C6.78094 12.5778 6.49501 12.957 6.55251 13.3672C6.6604 14.137 6.93385 14.8955 7.3826 15.5888C7.83134 16.2822 8.4113 16.8424 9.06936 17.2561C9.42002 17.4766 9.88302 17.371 10.1035 17.0203C10.324 16.6697 10.2184 16.2067 9.86774 15.9862C9.3908 15.6864 8.96953 15.2801 8.64188 14.7739C8.31423 14.2676 8.11618 13.7169 8.03798 13.159ZM17.4462 13.376C17.5043 12.9659 17.219 12.5863 16.8089 12.5281C16.3988 12.4699 16.0192 12.7553 15.961 13.1654C15.8819 13.7232 15.683 14.2735 15.3545 14.7793C15.0261 15.285 14.6041 15.6906 14.1267 15.9897C13.7757 16.2096 13.6694 16.6724 13.8893 17.0234C14.1092 17.3744 14.572 17.4807 14.923 17.2608C15.5818 16.8482 16.1626 16.289 16.6125 15.5963C17.0624 14.9037 17.337 14.1456 17.4462 13.376Z" fill="#292556"/>
</svg>
