<svg width="24" height="24" viewBox="0 0 24 24" fill="none" xmlns="http://www.w3.org/2000/svg">
<path fill-rule="evenodd" clip-rule="evenodd" d="M15.1492 21.75H8.85208C7.41418 21.75 6.69523 21.75 6.10212 21.4441C5.90794 21.344 5.72638 21.2211 5.56129 21.078C5.05704 20.6409 4.79005 19.9733 4.25606 18.6382L4.11608 18.2882C3.03156 15.5767 2.4893 14.2209 2.92985 13.179C3.06962 12.8485 3.27273 12.5485 3.52772 12.296C4.33152 11.5 5.79171 11.5 8.7121 11.5H15.2892C18.2096 11.5 19.6698 11.5 20.4736 12.296C20.7286 12.5485 20.9317 12.8485 21.0715 13.179C21.512 14.2209 20.9697 15.5767 19.8852 18.2882L19.7452 18.6382C19.2113 19.9733 18.9443 20.6409 18.44 21.078C18.2749 21.2211 18.0934 21.344 17.8992 21.4441C17.3061 21.75 16.5871 21.75 15.1492 21.75ZM17.5302 15.5303C17.823 15.2374 17.823 14.7626 17.5302 14.4697C17.2373 14.1768 16.7624 14.1768 16.4695 14.4697L15.1059 15.8333C15.0656 15.8735 15.0309 15.9082 14.9998 15.9389C14.9688 15.9082 14.934 15.8736 14.8938 15.8333L14.1666 15.1061L14.1473 15.0868L14.1473 15.0868C14.0318 14.9712 13.9067 14.8461 13.788 14.7506C13.6516 14.6409 13.4577 14.514 13.1954 14.4725C13.0658 14.452 12.9338 14.452 12.8043 14.4725C12.542 14.514 12.348 14.6409 12.2117 14.7506C12.0929 14.8461 11.9678 14.9712 11.8523 15.0868L11.8331 15.1061L11.1059 15.8333C11.0656 15.8735 11.0309 15.9082 10.9998 15.9389C10.9688 15.9082 10.934 15.8736 10.8938 15.8333L10.1666 15.1061L10.1473 15.0868L10.1473 15.0868C10.0318 14.9712 9.90672 14.8461 9.788 14.7506C9.65164 14.6409 9.4577 14.514 9.19537 14.4725C9.06581 14.452 8.93384 14.452 8.80428 14.4725C8.54195 14.514 8.34801 14.6409 8.21165 14.7506C8.09293 14.8461 7.96784 14.9712 7.85234 15.0868L7.8331 15.1061L6.46949 16.4697C6.1766 16.7626 6.1766 17.2374 6.46949 17.5303C6.76239 17.8232 7.23726 17.8232 7.53016 17.5303L8.89376 16.1667C8.93404 16.1264 8.96875 16.0918 8.99983 16.0611C9.0309 16.0918 9.06561 16.1264 9.10589 16.1667L9.8331 16.8939L9.85234 16.9132C9.96784 17.0288 10.0929 17.1539 10.2117 17.2494C10.348 17.3591 10.542 17.486 10.8043 17.5275C10.9338 17.548 11.0658 17.548 11.1954 17.5275C11.4577 17.486 11.6516 17.3591 11.788 17.2494C11.9067 17.1539 12.0318 17.0288 12.1473 16.9132L12.1666 16.8939L12.8938 16.1667C12.934 16.1264 12.9687 16.0918 12.9998 16.0611C13.0309 16.0918 13.0656 16.1265 13.1059 16.1667L13.8331 16.8939L13.8523 16.9132C13.9678 17.0288 14.0929 17.1539 14.2117 17.2494C14.348 17.3591 14.542 17.486 14.8043 17.5275C14.9338 17.548 15.0658 17.548 15.1954 17.5275C15.4577 17.486 15.6516 17.3591 15.788 17.2494C15.9067 17.1539 16.0318 17.0288 16.1473 16.9132L16.1473 16.9132L16.1666 16.8939L17.5302 15.5303Z" fill="#292556"/>
<path d="M15.635 9.27264L13.8357 6.97381C11.4898 3.97677 10.3169 2.47825 9.28375 2.3168C8.41636 2.18126 7.53814 2.48409 6.93865 3.12546C6.22461 3.88937 6.22461 5.79235 6.22461 9.5983C6.22461 9.73992 6.22461 9.81073 6.25247 9.86469C6.27627 9.91079 6.31382 9.94834 6.35992 9.97214C6.41388 10 6.48469 10 6.62631 10H15.2806C15.6342 10 15.811 10 15.8861 9.90658C15.9095 9.87742 15.9261 9.84338 15.9346 9.80696C15.9619 9.69027 15.8529 9.55106 15.635 9.27264Z" fill="#292556"/>
</svg>
