<svg width="24" height="24" viewBox="0 0 24 24" fill="none" xmlns="http://www.w3.org/2000/svg">
<path d="M17.8291 2.38567C17.5381 2.24135 17.2506 2.2733 17.0563 2.32389C16.8628 2.37426 16.675 2.46523 16.5078 2.55811C16.181 2.73962 15.7634 3.0266 15.2679 3.36712L4.39675 10.838C4.07897 11.0563 3.78821 11.2561 3.58108 11.4364C3.3924 11.6007 3.06673 11.9166 3.0597 12.3963C3.05678 12.596 3.10174 12.7935 3.19083 12.9722C3.40483 13.4016 3.83516 13.5453 4.07636 13.6117C4.34116 13.6846 4.68972 13.7388 5.07069 13.7981L8.66235 14.3569L6.26979 18.5824C5.98511 19.0851 5.74366 19.5115 5.59623 19.8433C5.52056 20.0137 5.44805 20.2053 5.41593 20.4005C5.38339 20.5983 5.37957 20.8803 5.54218 21.152C5.65566 21.3416 5.81738 21.4977 6.01085 21.6045C6.28809 21.7575 6.56977 21.7438 6.76628 21.7043C6.9602 21.6653 7.14921 21.5862 7.31679 21.5046C7.64326 21.3456 8.0609 21.0893 8.55331 20.7872L19.5505 14.0402C19.869 13.8448 20.1623 13.6649 20.3739 13.4988C20.5694 13.3453 20.9016 13.0522 20.9373 12.5822C20.9523 12.385 20.9203 12.1871 20.8439 12.0047C20.6619 11.57 20.2542 11.3965 20.0202 11.3125C19.7671 11.2215 19.432 11.1433 19.0682 11.0583L15.195 10.153L17.6483 5.48073C17.9278 4.94845 18.1634 4.49985 18.305 4.15386C18.3774 3.9768 18.4455 3.77957 18.4726 3.58152C18.4999 3.38261 18.4976 3.09327 18.3199 2.82144C18.198 2.63506 18.0286 2.48462 17.8291 2.38567Z" fill="#292556"/>
</svg>
