<svg width="24" height="24" viewBox="0 0 24 24" fill="none" xmlns="http://www.w3.org/2000/svg">
<path d="M17.1301 3.34204C17.8409 4.05284 18.1537 5.01097 18.0683 5.9394C18.9967 5.85405 19.9549 6.16678 20.6657 6.87758C21.9349 8.14678 21.9349 10.2046 20.6657 11.4738C19.579 12.5604 17.9142 12.7167 16.6613 11.9426L11.9421 16.6618C12.7162 17.9147 12.5599 19.5795 11.4733 20.6662C10.2041 21.9354 8.14628 21.9354 6.87708 20.6662C6.16628 19.9554 5.85356 18.9972 5.9389 18.0688C5.01047 18.1541 4.05234 17.8414 3.34155 17.1306C2.07234 15.8614 2.07234 13.8036 3.34155 12.5344C4.42822 11.4478 6.09297 11.2915 7.34592 12.0656L12.0651 7.34641C11.291 6.09347 11.4473 4.42872 12.5339 3.34204C13.8031 2.07284 15.8609 2.07284 17.1301 3.34204Z" fill="#292556"/>
</svg>
