<svg width="24" height="24" viewBox="0 0 24 24" fill="none" xmlns="http://www.w3.org/2000/svg">
<path fill-rule="evenodd" clip-rule="evenodd" d="M4.96619 3.79581C4.25 4.78155 4.25 6.1877 4.25 9V16.7396C4.25 18.404 4.25 19.2362 4.35873 19.6113C4.92383 21.5608 7.33383 22.2473 8.84138 20.8882C9.13144 20.6267 9.56997 19.9194 10.447 18.5048L10.447 18.5048C10.6911 18.1112 10.8131 17.9144 10.93 17.7953C11.5179 17.1971 12.4821 17.1971 13.07 17.7953C13.1869 17.9144 13.3089 18.1112 13.553 18.5048L13.553 18.5048C14.43 19.9194 14.8686 20.6267 15.1586 20.8882C16.6662 22.2473 19.0762 21.5608 19.6413 19.6113C19.75 19.2362 19.75 18.404 19.75 16.7396V9C19.75 6.1877 19.75 4.78155 19.0338 3.79581C18.8025 3.47745 18.5226 3.19748 18.2042 2.96619C17.2184 2.25 15.8123 2.25 13 2.25H11C8.1877 2.25 6.78155 2.25 5.79581 2.96619C5.47745 3.19748 5.19748 3.47745 4.96619 3.79581ZM15.5303 8.53033C15.8232 8.23744 15.8232 7.76256 15.5303 7.46967C15.2374 7.17678 14.7626 7.17678 14.4697 7.46967L11 10.9393L9.53033 9.46967C9.23744 9.17678 8.76256 9.17678 8.46967 9.46967C8.17678 9.76256 8.17678 10.2374 8.46967 10.5303L10.4697 12.5303C10.7626 12.8232 11.2374 12.8232 11.5303 12.5303L15.5303 8.53033Z" fill="#292556"/>
</svg>
