<svg width="24" height="24" viewBox="0 0 24 24" fill="none" xmlns="http://www.w3.org/2000/svg">
<path fill-rule="evenodd" clip-rule="evenodd" d="M4.96619 3.79581C4.25 4.78155 4.25 6.1877 4.25 9V16.7396C4.25 18.404 4.25 19.2362 4.35873 19.6113C4.92383 21.5608 7.33383 22.2473 8.84138 20.8882C9.13144 20.6267 9.56997 19.9194 10.447 18.5048L10.447 18.5048C10.6911 18.1112 10.8131 17.9144 10.93 17.7953C11.5179 17.1971 12.4821 17.1971 13.07 17.7953C13.1869 17.9144 13.3089 18.1112 13.553 18.5048L13.553 18.5048C14.43 19.9194 14.8686 20.6267 15.1586 20.8882C16.6662 22.2473 19.0762 21.5608 19.6413 19.6113C19.75 19.2362 19.75 18.404 19.75 16.7396V9C19.75 6.1877 19.75 4.78155 19.0338 3.79581C18.8025 3.47745 18.5226 3.19748 18.2042 2.96619C17.2184 2.25 15.8123 2.25 13 2.25H11C8.1877 2.25 6.78155 2.25 5.79581 2.96619C5.47745 3.19748 5.19748 3.47745 4.96619 3.79581ZM11.0924 13.274C11.2383 13.385 11.3599 13.472 11.4463 13.5321L11.5905 13.6298C11.8392 13.7906 12.1598 13.7901 12.4079 13.6284L12.5511 13.5308C12.6369 13.4706 12.7577 13.3837 12.9027 13.2727C13.1919 13.0515 13.5825 12.7316 13.9874 12.3359C14.7712 11.5699 15.7207 10.4133 15.9511 9.06196C16.197 7.61927 15.4827 6.50799 14.3927 6.13235C13.6052 5.86093 12.7032 6.00616 11.9985 6.57557C11.2961 6.00675 10.3977 5.86046 9.61057 6.13278C8.52398 6.5087 7.81255 7.61747 8.04414 9.0553C8.26263 10.4118 9.2158 11.5711 10.002 12.3368C10.4086 12.7327 10.8014 13.0528 11.0924 13.274Z" fill="#292556"/>
</svg>
