<svg width="24" height="24" viewBox="0 0 24 24" fill="none" xmlns="http://www.w3.org/2000/svg">
<path d="M8.9093 4.17875C7.68888 3.77195 7.07867 3.56854 6.59205 3.68519C6.14478 3.79241 5.7577 4.0714 5.51455 4.46181C5.25 4.88657 5.25 5.52979 5.25 6.81623V15.9454C5.25 17.0544 5.25 17.6089 5.49447 18.0568C5.57436 18.2032 5.67224 18.339 5.78584 18.461C6.13345 18.8346 6.65949 19.01 7.71158 19.3606L11.0039 20.4581C11.4423 20.6042 11.6615 20.6773 11.8875 20.6918C11.9624 20.6967 12.0376 20.6967 12.1125 20.6918C12.3385 20.6773 12.5577 20.6042 12.9961 20.4581L16.2884 19.3606C17.3405 19.01 17.8665 18.8346 18.2142 18.461C18.3278 18.339 18.4256 18.2032 18.5055 18.0568C18.75 17.6089 18.75 17.0544 18.75 15.9454V6.81623C18.75 5.52979 18.75 4.88657 18.4855 4.46181C18.2423 4.0714 17.8552 3.79241 17.4079 3.68519C16.9213 3.56854 16.3111 3.77195 15.0907 4.17875V4.17875C14.1259 4.50035 13.6435 4.66115 13.2849 4.95678C12.9526 5.23062 12.6968 5.58561 12.542 5.98738C12.375 6.4211 12.375 6.92959 12.375 7.94658V19.1251C12.375 19.3322 12.2071 19.5001 12 19.5001V19.5001C11.7929 19.5001 11.625 19.3322 11.625 19.1251V7.94658C11.625 6.92959 11.625 6.4211 11.458 5.98738C11.3032 5.58561 11.0474 5.23062 10.7151 4.95678C10.3565 4.66115 9.8741 4.50035 8.9093 4.17875V4.17875Z" fill="#292556"/>
<path d="M18 7L18.6308 6.78974C19.5843 6.4719 20.061 6.31298 20.4217 6.48067C20.5364 6.53403 20.64 6.60868 20.7269 6.70067C21 6.98974 21 7.49228 21 8.49737V18.2C21 18.9499 21 19.3249 20.809 19.5878C20.7473 19.6727 20.6727 19.7473 20.5878 19.809C20.3249 20 19.9499 20 19.2 20H4.8C4.05005 20 3.67508 20 3.41221 19.809C3.32732 19.7473 3.25266 19.6727 3.19098 19.5878C3 19.3249 3 18.9499 3 18.2V8.49737C3 7.49228 3 6.98974 3.27311 6.70067C3.36002 6.60868 3.4636 6.53403 3.57835 6.48067C3.93895 6.31298 4.4157 6.4719 5.36921 6.78974L6 7" stroke="#292556" stroke-width="1.5" stroke-linecap="round" stroke-linejoin="round"/>
</svg>
