<svg width="24" height="24" viewBox="0 0 24 24" fill="none" xmlns="http://www.w3.org/2000/svg">
<path fill-rule="evenodd" clip-rule="evenodd" d="M4.96619 3.79581C4.25 4.78155 4.25 6.1877 4.25 9V16.7396C4.25 18.404 4.25 19.2362 4.35873 19.6113C4.92383 21.5608 7.33383 22.2473 8.84138 20.8882C9.13144 20.6267 9.56997 19.9194 10.447 18.5048L10.447 18.5048C10.6911 18.1112 10.8131 17.9144 10.93 17.7953C11.5179 17.1971 12.4821 17.1971 13.07 17.7953C13.1869 17.9144 13.3089 18.1112 13.553 18.5048L13.553 18.5048C14.43 19.9194 14.8686 20.6267 15.1586 20.8882C16.6662 22.2473 19.0762 21.5608 19.6413 19.6113C19.75 19.2362 19.75 18.404 19.75 16.7396V9C19.75 6.1877 19.75 4.78155 19.0338 3.79581C18.8025 3.47745 18.5226 3.19748 18.2042 2.96619C17.2184 2.25 15.8123 2.25 13 2.25H11C8.1877 2.25 6.78155 2.25 5.79581 2.96619C5.47745 3.19748 5.19748 3.47745 4.96619 3.79581ZM9.5 9.25C9.08579 9.25 8.75 9.58579 8.75 10C8.75 10.4142 9.08579 10.75 9.5 10.75H14.5C14.9142 10.75 15.25 10.4142 15.25 10C15.25 9.58579 14.9142 9.25 14.5 9.25H9.5Z" fill="#292556"/>
</svg>
