<svg width="24" height="24" viewBox="0 0 24 24" fill="none" xmlns="http://www.w3.org/2000/svg">
<path d="M8.55839 8.78701L8.55142 8.79753L8.55134 8.79766C8.25229 9.24941 8.01884 9.60207 7.84738 9.8776C7.68045 10.1459 7.54064 10.3899 7.45819 10.6128C7.40174 10.7655 7.38127 10.8326 7.34315 10.9905C7.2935 11.1961 7.27024 11.4206 7.25937 11.6819H7.25L7.25011 19.4981C7.25013 20.9734 8.81188 21.9254 10.1232 21.2495L10.1233 21.2495C10.5713 21.5181 10.7953 21.6523 11.0232 21.7389C11.6525 21.9781 12.3476 21.9781 12.9769 21.7389C13.2048 21.6523 13.429 21.518 13.8773 21.2493C15.1883 21.9253 16.75 20.9736 16.75 19.4985L16.7499 11.6819H16.7405C16.7296 11.4206 16.7064 11.1961 16.6567 10.9905C16.6186 10.8326 16.5981 10.7655 16.5417 10.6128C16.4592 10.3899 16.3194 10.1459 16.1525 9.8776C15.981 9.60203 15.7475 9.24935 15.4484 8.79751L15.4415 8.78701C15.3829 8.69858 15.3242 8.60167 15.2667 8.5H8.73312C8.67563 8.60169 8.61691 8.6986 8.55839 8.78701Z" fill="#292556"/>
<path d="M15.1941 6.70595L15.1942 5.11604C15.1942 5.00865 15.1942 4.95496 15.1927 4.90957C15.145 3.46189 13.9825 2.29942 12.5348 2.25169C12.4894 2.2502 12.4357 2.2502 12.3283 2.25021L11.2803 2.25028C9.91363 2.25038 8.80574 3.35828 8.80565 4.72498L8.80551 6.70548C8.8055 6.97859 9.02689 7.2 9.3 7.2H14.7C14.9729 7.2 15.1941 6.97881 15.1941 6.70595Z" fill="#292556"/>
</svg>
