<svg width="24" height="24" viewBox="0 0 24 24" fill="none" xmlns="http://www.w3.org/2000/svg">
<path d="M9.53832 7.03492C11.028 5.54526 11.7728 4.80043 12.6654 4.62289C13.0518 4.54603 13.4495 4.54603 13.8359 4.62289C14.7285 4.80043 15.4733 5.54526 16.9629 7.03492V7.03492C18.4526 8.52457 19.1974 9.2694 19.375 10.162C19.4518 10.5484 19.4518 10.9461 19.375 11.3325C19.1974 12.2251 18.4526 12.9699 16.9629 14.4595L12.1051 19.3174C10.6155 20.807 9.87064 21.5518 8.97808 21.7294C8.59169 21.8062 8.19394 21.8062 7.80754 21.7294C6.91499 21.5518 6.17016 20.807 4.6805 19.3174V19.3174C3.19085 17.8277 2.44602 17.0829 2.26848 16.1903C2.19162 15.8039 2.19162 15.4062 2.26848 15.0198C2.44602 14.1272 3.19085 13.3824 4.6805 11.8927L9.53832 7.03492Z" fill="#292556"/>
<path d="M15.6902 3.35796C16.2166 2.83151 16.4798 2.56829 16.7621 2.42448C17.3325 2.13383 18.0076 2.13383 18.578 2.42448C18.8603 2.56829 19.1235 2.83151 19.65 3.35796L20.6399 4.34791C21.1664 4.87436 21.4296 5.13758 21.5734 5.41983C21.864 5.99026 21.864 6.66536 21.5734 7.23579C21.4296 7.51803 21.1664 7.78126 20.6399 8.30771V8.30771C20.5083 8.43932 20.4425 8.50513 20.3719 8.54108C20.2293 8.61374 20.0605 8.61374 19.9179 8.54108C19.8474 8.50513 19.7816 8.43932 19.65 8.30771L15.6902 4.34791C15.5585 4.2163 15.4927 4.15049 15.4568 4.07993C15.3841 3.93732 15.3841 3.76855 15.4568 3.62594C15.4927 3.55538 15.5585 3.48957 15.6902 3.35796V3.35796Z" fill="#292556"/>
</svg>
