<svg width="24" height="24" viewBox="0 0 24 24" fill="none" xmlns="http://www.w3.org/2000/svg">
<path fill-rule="evenodd" clip-rule="evenodd" d="M2.6121 8.09875C2.4835 8.35596 2.4192 8.48456 2.45615 8.58575C2.46782 8.61772 2.48589 8.64696 2.50926 8.67169C2.58325 8.75 2.72703 8.75 3.01459 8.75H11.2502V2.25H8.03951C6.96019 2.25 6.42053 2.25 5.96287 2.46706C5.81267 2.5383 5.67082 2.62596 5.53993 2.72845C5.14111 3.04072 4.89977 3.52341 4.41708 4.48878L4.41708 4.48879L2.6121 8.09875ZM2.7 10.25C2.51251 10.25 2.41877 10.25 2.35305 10.2977C2.33183 10.3132 2.31317 10.3318 2.29775 10.3531C2.25 10.4188 2.25 10.5125 2.25 10.7V17.7C2.25 19.3874 2.25 20.2311 2.67971 20.8225C2.81849 21.0135 2.98647 21.1815 3.17748 21.3203C3.76893 21.75 4.61262 21.75 6.3 21.75H17.7C19.3874 21.75 20.2311 21.75 20.8225 21.3203C21.0135 21.1815 21.1815 21.0135 21.3203 20.8225C21.75 20.2311 21.75 19.3874 21.75 17.7V10.7C21.75 10.5125 21.75 10.4188 21.7023 10.3531C21.6868 10.3318 21.6682 10.3132 21.6469 10.2977C21.5812 10.25 21.4875 10.25 21.3 10.25H2.7ZM21.4907 8.67169C21.4168 8.75 21.273 8.75 20.9854 8.75H12.7502V2.25H15.9605C17.0398 2.25 17.5795 2.25 18.0371 2.46706C18.1873 2.5383 18.3292 2.62596 18.4601 2.72845C18.8589 3.04072 19.1002 3.52341 19.5829 4.48878L21.3879 8.09875C21.5165 8.35596 21.5808 8.48456 21.5438 8.58575C21.5322 8.61772 21.5141 8.64696 21.4907 8.67169ZM15.5303 14.5303C15.8232 14.2374 15.8232 13.7626 15.5303 13.4697C15.2374 13.1768 14.7626 13.1768 14.4697 13.4697L11 16.9393L9.53033 15.4697C9.23744 15.1768 8.76256 15.1768 8.46967 15.4697C8.17678 15.7626 8.17678 16.2374 8.46967 16.5303L10.4697 18.5303C10.7626 18.8232 11.2374 18.8232 11.5303 18.5303L15.5303 14.5303Z" fill="#292556"/>
</svg>
