<svg width="24" height="24" viewBox="0 0 24 24" fill="none" xmlns="http://www.w3.org/2000/svg">
<path d="M7 4.8C7 4.05005 7 3.67508 7.19098 3.41221C7.25266 3.32732 7.32732 3.25266 7.41221 3.19098C7.67508 3 8.05005 3 8.8 3H11.2929C11.3772 3 11.4194 3 11.46 3.0022C11.8012 3.02072 12.1259 3.15522 12.3803 3.38342C12.4106 3.41058 12.4404 3.44039 12.5 3.5V3.5C12.5596 3.55961 12.5894 3.58942 12.6197 3.61658C12.8741 3.84478 13.1988 3.97928 13.54 3.9978C13.5806 4 13.6228 4 13.7071 4H15.2C15.9499 4 16.3249 4 16.5878 4.19098C16.6727 4.25266 16.7473 4.32732 16.809 4.41221C17 4.67508 17 5.05005 17 5.8V7H7V4.8Z" stroke="#292556" stroke-width="1.5" stroke-linecap="round" stroke-linejoin="round"/>
<path d="M2.25 8.5C2.25 8.03521 2.25 7.80282 2.29388 7.61059C2.44346 6.95522 2.95522 6.44346 3.61059 6.29388C3.80282 6.25 4.03521 6.25 4.5 6.25H19.5C19.9648 6.25 20.1972 6.25 20.3894 6.29388C21.0448 6.44346 21.5565 6.95522 21.7061 7.61059C21.75 7.80282 21.75 8.03521 21.75 8.5V8.5C21.75 8.96479 21.75 9.19718 21.7061 9.38941C21.5565 10.0448 21.0448 10.5565 20.3894 10.7061C20.1972 10.75 19.9648 10.75 19.5 10.75H4.5C4.03522 10.75 3.80282 10.75 3.61059 10.7061C2.95522 10.5565 2.44346 10.0448 2.29388 9.38941C2.25 9.19718 2.25 8.96479 2.25 8.5V8.5Z" fill="#292556"/>
<path fill-rule="evenodd" clip-rule="evenodd" d="M4.25 10H19.75V15C19.75 17.8123 19.75 19.2184 19.0338 20.2042C18.8025 20.5225 18.5226 20.8025 18.2042 21.0338C17.2184 21.75 15.8123 21.75 13 21.75H11C8.1877 21.75 6.78155 21.75 5.79581 21.0338C5.47745 20.8025 5.19748 20.5225 4.96619 20.2042C4.25 19.2184 4.25 17.8123 4.25 15V10ZM8 12.25C7.58579 12.25 7.25 12.5858 7.25 13C7.25 13.4142 7.58579 13.75 8 13.75H16C16.4142 13.75 16.75 13.4142 16.75 13C16.75 12.5858 16.4142 12.25 16 12.25H8Z" fill="#292556"/>
</svg>
