<svg width="24" height="24" viewBox="0 0 24 24" fill="none" xmlns="http://www.w3.org/2000/svg">
<path d="M3.96667 6.67419C3.6245 6.51756 3.45341 6.43924 3.42587 6.31909C3.4173 6.28172 3.41744 6.24288 3.42628 6.20557C3.45471 6.08563 3.62638 6.00858 3.9697 5.85448L11.8159 2.33271C11.8964 2.29658 11.9367 2.27851 11.9791 2.27492C11.9931 2.27373 12.0072 2.27373 12.0213 2.27492C12.0637 2.27851 12.104 2.29658 12.1845 2.33271L14.5089 3.3761C14.8534 3.53072 15.0256 3.60803 15.054 3.72818C15.0628 3.76555 15.0629 3.80444 15.0542 3.84185C15.0264 3.96212 14.8545 4.0402 14.5108 4.19635L6.68803 7.74952C6.60645 7.78657 6.56566 7.8051 6.52261 7.80873C6.50839 7.80992 6.4941 7.8099 6.47988 7.80866C6.43684 7.80491 6.3961 7.78626 6.31463 7.74897L3.96667 6.67419Z" fill="#292556"/>
<path d="M2.8873 7.82979C2.63439 7.71402 2.50794 7.65614 2.40942 7.69444C2.37825 7.70656 2.34982 7.72481 2.32583 7.74811C2.25 7.82175 2.25 7.96082 2.25 8.23896V17.4189C2.25 17.5442 2.25 17.6068 2.27594 17.6593C2.28444 17.6764 2.29489 17.6926 2.30708 17.7074C2.34428 17.7525 2.40143 17.7782 2.51573 17.8295L10.6159 21.4653C10.8679 21.5784 10.9938 21.6349 11.0918 21.5964C11.1228 21.5842 11.151 21.5659 11.1749 21.5426C11.2502 21.469 11.2502 21.3309 11.2502 21.0548V11.9254C11.2502 11.8005 11.2502 11.738 11.2244 11.6857C11.2159 11.6685 11.2055 11.6524 11.1934 11.6376C11.1563 11.5926 11.0994 11.5668 10.9856 11.5154L7.18793 9.79841L2.8873 7.82979Z" fill="#292556"/>
<path d="M12.7502 21.0547C12.7502 21.3309 12.7502 21.469 12.8255 21.5426C12.8493 21.5659 12.8776 21.5841 12.9086 21.5964C13.0065 21.6349 13.1325 21.5784 13.3845 21.4653L21.4845 17.8295C21.5988 17.7782 21.6559 17.7525 21.6931 17.7074C21.7053 17.6926 21.7157 17.6764 21.7242 17.6593C21.7502 17.6068 21.7502 17.5442 21.7502 17.4189L21.7502 8.23701C21.7502 7.95945 21.7502 7.82067 21.6746 7.74706C21.6506 7.72376 21.6222 7.7055 21.5911 7.69335C21.4928 7.65497 21.3664 7.71246 21.1138 7.82742L13.0138 11.5137C12.9004 11.5653 12.8437 11.5911 12.8068 11.6362C12.7947 11.6509 12.7843 11.667 12.7759 11.6842C12.7502 11.7364 12.7502 11.7987 12.7502 11.9233V21.0547Z" fill="#292556"/>
<path d="M20.0291 6.67307C20.3724 6.5168 20.5441 6.43866 20.5719 6.31841C20.5805 6.28102 20.5804 6.24214 20.5716 6.20479C20.5432 6.08469 20.3711 6.00744 20.0269 5.85295L17.4278 4.68628C17.3468 4.64994 17.3063 4.63176 17.2637 4.62823C17.2496 4.62706 17.2354 4.62709 17.2213 4.62832C17.1786 4.63205 17.1382 4.6504 17.0574 4.6871L9.21496 8.24924C8.87224 8.40491 8.70088 8.48274 8.67299 8.60282C8.66432 8.64017 8.66435 8.67902 8.67309 8.71636C8.70119 8.83639 8.87268 8.91393 9.21567 9.06899L11.8132 10.2433C11.8944 10.2801 11.935 10.2984 11.9779 10.302C11.992 10.3032 12.0062 10.3032 12.0204 10.302C12.0632 10.2983 12.1038 10.2798 12.1849 10.2429L20.0291 6.67307Z" fill="#292556"/>
</svg>
