<svg width="24" height="24" viewBox="0 0 24 24" fill="none" xmlns="http://www.w3.org/2000/svg">
<path fill-rule="evenodd" clip-rule="evenodd" d="M9 2.25H9.79167C11.8526 2.25 12.883 2.25 13.6732 2.644C14.402 3.00734 14.9927 3.59801 15.356 4.32676C15.75 5.11699 15.75 6.14744 15.75 8.20833V11.25H12C11.5858 11.25 11.25 11.5858 11.25 12C11.25 12.4142 11.5858 12.75 12 12.75H15.75V15C15.75 17.8123 15.75 19.2185 15.0338 20.2042C14.8025 20.5226 14.5225 20.8025 14.2042 21.0338C13.2184 21.75 11.8123 21.75 9 21.75C6.1877 21.75 4.78155 21.75 3.79581 21.0338C3.47745 20.8025 3.19748 20.5226 2.96619 20.2042C2.25 19.2185 2.25 17.8123 2.25 15V9C2.25 6.1877 2.25 4.78155 2.96619 3.79581C3.19748 3.47745 3.47745 3.19748 3.79581 2.96619C4.78155 2.25 6.1877 2.25 9 2.25ZM15.75 12.75H19.1893L17.9697 13.9697C17.6768 14.2626 17.6768 14.7374 17.9697 15.0303C18.2626 15.3232 18.7374 15.3232 19.0303 15.0303L21.5303 12.5303C21.8232 12.2374 21.8232 11.7626 21.5303 11.4697L19.0303 8.96967C18.7374 8.67678 18.2626 8.67678 17.9697 8.96967C17.6768 9.26256 17.6768 9.73744 17.9697 10.0303L19.1893 11.25H15.75V12.75Z" fill="#292556"/>
</svg>
