<svg width="24" height="24" viewBox="0 0 24 24" fill="none" xmlns="http://www.w3.org/2000/svg">
<path fill-rule="evenodd" clip-rule="evenodd" d="M11 2.25H11.7917C13.8526 2.25 14.883 2.25 15.6732 2.644C16.402 3.00734 16.9927 3.59801 17.356 4.32676C17.75 5.11699 17.75 6.14744 17.75 8.20833V11.25H12.8107L14.0303 10.0303C14.3232 9.73744 14.3232 9.26256 14.0303 8.96967C13.7374 8.67678 13.2626 8.67678 12.9697 8.96967L10.4697 11.4697C10.1768 11.7626 10.1768 12.2374 10.4697 12.5303L12.9697 15.0303C13.2626 15.3232 13.7374 15.3232 14.0303 15.0303C14.3232 14.7374 14.3232 14.2626 14.0303 13.9697L12.8107 12.75H17.75V15C17.75 17.8123 17.75 19.2185 17.0338 20.2042C16.8025 20.5226 16.5225 20.8025 16.2042 21.0338C15.2184 21.75 13.8123 21.75 11 21.75C8.1877 21.75 6.78155 21.75 5.79581 21.0338C5.47745 20.8025 5.19748 20.5226 4.96619 20.2042C4.25 19.2185 4.25 17.8123 4.25 15V9C4.25 6.1877 4.25 4.78155 4.96619 3.79581C5.19748 3.47745 5.47745 3.19748 5.79581 2.96619C6.78155 2.25 8.1877 2.25 11 2.25ZM17.75 12.75H20C20.4142 12.75 20.75 12.4142 20.75 12C20.75 11.5858 20.4142 11.25 20 11.25H17.75V12.75Z" fill="#292556"/>
</svg>
