<svg width="24" height="24" viewBox="0 0 24 24" fill="none" xmlns="http://www.w3.org/2000/svg">
<path fill-rule="evenodd" clip-rule="evenodd" d="M12.75 4.125C12.75 3.71079 12.4142 3.375 12 3.375C11.5858 3.375 11.25 3.71079 11.25 4.125V6.375H9C6.1877 6.375 4.78155 6.375 3.79581 7.09119C3.47745 7.32249 3.19748 7.60245 2.96619 7.92081C2.25 8.90655 2.25 10.3127 2.25 13.125C2.25 15.9373 2.25 17.3434 2.96619 18.3292C3.19749 18.6476 3.47745 18.9275 3.79581 19.1588C4.78155 19.875 6.1877 19.875 9 19.875H15C17.8123 19.875 19.2184 19.875 20.2042 19.1588C20.5226 18.9275 20.8025 18.6475 21.0338 18.3292C21.75 17.3434 21.75 15.9373 21.75 13.125C21.75 10.3127 21.75 8.90655 21.0338 7.92081C20.8025 7.60245 20.5226 7.32248 20.2042 7.09119C19.2184 6.375 17.8123 6.375 15 6.375H12.75V4.125ZM12.75 6.375L11.25 6.375V11.3143L10.0303 10.0947C9.73744 9.80178 9.26256 9.80178 8.96967 10.0947C8.67678 10.3876 8.67678 10.8624 8.96967 11.1553L11.4697 13.6553C11.7626 13.9482 12.2374 13.9482 12.5303 13.6553L15.0303 11.1553C15.3232 10.8624 15.3232 10.3876 15.0303 10.0947C14.7374 9.80178 14.2626 9.80178 13.9697 10.0947L12.75 11.3143V6.375Z" fill="#292556"/>
</svg>
