<svg width="24" height="24" viewBox="0 0 24 24" fill="none" xmlns="http://www.w3.org/2000/svg">
<path fill-rule="evenodd" clip-rule="evenodd" d="M12.5303 2.46967C12.2374 2.17678 11.7626 2.17678 11.4697 2.46967L8.96967 4.96967C8.67678 5.26256 8.67678 5.73744 8.96967 6.03033C9.26256 6.32322 9.73744 6.32322 10.0303 6.03033L11.25 4.81066V8.25H9C6.1877 8.25 4.78155 8.25 3.79581 8.96619C3.47745 9.19748 3.19748 9.47745 2.96619 9.79581C2.25 10.7816 2.25 12.1877 2.25 15C2.25 17.8123 2.25 19.2184 2.96619 20.2042C3.19748 20.5225 3.47745 20.8025 3.79581 21.0338C4.78155 21.75 6.1877 21.75 9 21.75H15C17.8123 21.75 19.2184 21.75 20.2042 21.0338C20.5226 20.8025 20.8025 20.5225 21.0338 20.2042C21.75 19.2184 21.75 17.8123 21.75 15C21.75 12.1877 21.75 10.7816 21.0338 9.79581C20.8025 9.47745 20.5226 9.19748 20.2042 8.96619C19.2184 8.25 17.8123 8.25 15 8.25H12.75V4.81066L13.9697 6.03033C14.2626 6.32322 14.7374 6.32322 15.0303 6.03033C15.3232 5.73744 15.3232 5.26256 15.0303 4.96967L12.5303 2.46967ZM12.75 8.25H12H11.25V12C11.25 12.4142 11.5858 12.75 12 12.75C12.4142 12.75 12.75 12.4142 12.75 12V8.25Z" fill="#292556"/>
</svg>
