<svg width="24" height="24" viewBox="0 0 24 24" fill="none" xmlns="http://www.w3.org/2000/svg">
<path d="M3.97234 5.85329L11.8159 2.33271C11.8964 2.29658 11.9367 2.27851 11.9791 2.27492C11.9931 2.27373 12.0072 2.27373 12.0213 2.27492C12.0637 2.27851 12.104 2.29658 12.1845 2.33271L20.0269 5.85295C20.3711 6.00744 20.5432 6.08469 20.5716 6.20479C20.5804 6.24214 20.5805 6.28102 20.5719 6.31841C20.5441 6.43866 20.3724 6.5168 20.0291 6.67307L12.1856 10.2426C12.1042 10.2797 12.0635 10.2982 12.0205 10.3019C12.0063 10.3031 11.992 10.3031 11.9778 10.3019C11.9349 10.2982 11.8942 10.2797 11.8128 10.2426L11.8128 10.2426L3.97021 6.67341C3.62683 6.51714 3.45514 6.439 3.42741 6.31876C3.41878 6.28136 3.41888 6.24248 3.4277 6.20513C3.45606 6.08503 3.62815 6.00778 3.97234 5.85329Z" fill="#292556"/>
<path d="M2.25 17.4189V8.23734C2.25 7.95976 2.25 7.82097 2.32568 7.74735C2.34963 7.72406 2.378 7.7058 2.40913 7.69365C2.50748 7.65527 2.6338 7.71278 2.88644 7.82778L10.9866 11.515C11.1 11.5666 11.1567 11.5925 11.1936 11.6375C11.2057 11.6522 11.216 11.6683 11.2245 11.6855C11.2502 11.7377 11.2502 11.8 11.2502 11.9246V21.0548C11.2502 21.3309 11.2502 21.469 11.1749 21.5426C11.151 21.5659 11.1228 21.5842 11.0918 21.5964C10.9938 21.6349 10.8679 21.5784 10.6159 21.4653L2.51573 17.8295C2.40143 17.7782 2.34428 17.7525 2.30708 17.7074C2.29489 17.6926 2.28444 17.6764 2.27594 17.6593C2.25 17.6068 2.25 17.5442 2.25 17.4189Z" fill="#292556"/>
<path d="M21.4845 17.8295L13.3845 21.4653C13.1325 21.5784 13.0065 21.6349 12.9086 21.5964C12.8776 21.5841 12.8493 21.5659 12.8255 21.5426C12.7502 21.469 12.7502 21.3309 12.7502 21.0547V11.9233C12.7502 11.7987 12.7502 11.7364 12.7759 11.6842C12.7843 11.667 12.7947 11.6509 12.8068 11.6362C12.8437 11.5911 12.9004 11.5653 13.0138 11.5137L21.1138 7.82742C21.3664 7.71246 21.4928 7.65497 21.5911 7.69335C21.6222 7.7055 21.6506 7.72376 21.6746 7.74706C21.7502 7.82067 21.7502 7.95945 21.7502 8.23701L21.7502 17.4189C21.7502 17.5442 21.7502 17.6068 21.7242 17.6593C21.7157 17.6764 21.7053 17.6926 21.6931 17.7074C21.6559 17.7525 21.5988 17.7782 21.4845 17.8295Z" fill="#292556"/>
</svg>
