<svg width="24" height="24" viewBox="0 0 24 24" fill="none" xmlns="http://www.w3.org/2000/svg">
<path d="M5.25 7C5.25 7.19259 5.2615 7.38272 5.28389 7.56971C3.5088 8.25783 2.25 9.98122 2.25 12C2.25 14.0188 3.5088 15.7422 5.28389 16.4303C5.2615 16.6173 5.25 16.8074 5.25 17C5.25 19.6234 7.37665 21.75 10 21.75C10.8639 21.75 11.6761 21.5187 12.3755 21.1141V21.1141C12.6073 20.98 12.75 20.7326 12.75 20.4649V16.75H15.6893L15.9084 16.9691C15.8065 17.2091 15.75 17.4731 15.75 17.75C15.75 18.8546 16.6454 19.75 17.75 19.75C18.8546 19.75 19.75 18.8546 19.75 17.75C19.75 16.6454 18.8546 15.75 17.75 15.75C17.4731 15.75 17.2091 15.8065 16.9691 15.9084L16.8379 15.7772C16.607 15.5463 16.4916 15.4309 16.3504 15.359C16.3038 15.3352 16.2553 15.3151 16.2055 15.2989C16.0548 15.25 15.8916 15.25 15.5651 15.25H12.75V12.75H17.378C17.6869 13.6239 18.5203 14.25 19.5 14.25C20.7426 14.25 21.75 13.2426 21.75 12C21.75 10.7574 20.7426 9.75 19.5 9.75C18.5203 9.75 17.6869 10.3761 17.378 11.25H12.75V8.75H15.5651C15.8916 8.75 16.0548 8.75 16.2055 8.70106C16.2553 8.68487 16.3038 8.66479 16.3504 8.64101C16.4916 8.5691 16.607 8.45366 16.8379 8.22279L16.9691 8.09159C17.2091 8.19348 17.4731 8.25 17.75 8.25C18.8546 8.25 19.75 7.35457 19.75 6.25C19.75 5.14543 18.8546 4.25 17.75 4.25C16.6454 4.25 15.75 5.14543 15.75 6.25C15.75 6.52689 15.8065 6.79093 15.9084 7.03093L15.6893 7.25H12.75V3.53513C12.75 3.2674 12.6073 3.01998 12.3755 2.88592V2.88592C11.6761 2.48133 10.8639 2.25 10 2.25C7.37665 2.25 5.25 4.37665 5.25 7Z" fill="#292556"/>
</svg>
