<svg width="24" height="24" viewBox="0 0 24 24" fill="none" xmlns="http://www.w3.org/2000/svg">
<path fill-rule="evenodd" clip-rule="evenodd" d="M5.25 7C5.25 4.37665 7.37665 2.25 10 2.25C10.7134 2.25 11.3915 2.40774 12 2.69053C12.6085 2.40774 13.2866 2.25 14 2.25C16.6234 2.25 18.75 4.37665 18.75 7C18.75 7.19259 18.7385 7.38273 18.7161 7.56971C20.4912 8.25783 21.75 9.98122 21.75 12C21.75 14.0188 20.4912 15.7422 18.7161 16.4303C18.7385 16.6173 18.75 16.8074 18.75 17C18.75 19.6234 16.6234 21.75 14 21.75C13.2866 21.75 12.6085 21.5923 12 21.3095C11.3915 21.5923 10.7134 21.75 10 21.75C7.37665 21.75 5.25 19.6234 5.25 17C5.25 16.8074 5.2615 16.6173 5.28389 16.4303C3.5088 15.7422 2.25 14.0188 2.25 12C2.25 9.98122 3.5088 8.25783 5.28389 7.56971C5.2615 7.38272 5.25 7.19259 5.25 7ZM11.432 9.18751C11.3098 8.92092 11.0434 8.75 10.7502 8.75C10.4569 8.75 10.1906 8.92092 10.0684 9.18751L8.4642 12.6875L7.7767 14.1875C7.60411 14.5641 7.76946 15.0092 8.14601 15.1818C8.52255 15.3544 8.96771 15.189 9.14029 14.8125L9.62727 13.75H11.8731L12.36 14.8125C12.5326 15.189 12.9778 15.3544 13.3543 15.1818C13.7309 15.0092 13.8962 14.5641 13.7236 14.1875L13.0361 12.6875L11.432 9.18751ZM10.7502 11.3001L11.1856 12.25H10.3148L10.7502 11.3001ZM16.5002 9.5C16.5002 9.08579 16.1644 8.75 15.7502 8.75C15.3359 8.75 15.0002 9.08579 15.0002 9.5V14.5C15.0002 14.9142 15.3359 15.25 15.7502 15.25C16.1644 15.25 16.5002 14.9142 16.5002 14.5V9.5Z" fill="#292556"/>
</svg>
