<svg width="24" height="24" viewBox="0 0 24 24" fill="none" xmlns="http://www.w3.org/2000/svg">
<path d="M11.25 2.41638V6.25003H10C9.58579 6.25003 9.25 6.58581 9.25 7.00003C9.25 7.41424 9.58579 7.75003 10 7.75003H11.25V13.1632C10.7739 13.0509 10.3386 12.8338 9.96886 12.5373C9.64569 12.2782 9.17367 12.3301 8.91456 12.6533C8.65545 12.9765 8.70737 13.4485 9.03054 13.7076C9.65889 14.2114 10.4189 14.5591 11.25 14.6911L11.2497 21.5837C10.8512 21.6921 10.4321 21.75 10 21.75C7.37665 21.75 5.25 19.6234 5.25 17C5.25 16.8074 5.2615 16.6173 5.28389 16.4303C3.5088 15.7422 2.25 14.0188 2.25 12C2.25 9.98122 3.5088 8.25783 5.28389 7.56971C5.2615 7.38272 5.25 7.19259 5.25 7C5.25 4.37665 7.37665 2.25 10 2.25C10.4322 2.25 10.8514 2.30788 11.25 2.41638Z" fill="#292556"/>
<path d="M12.75 2.41639V8.70564C13.2918 8.49082 13.8824 8.37267 14.5 8.37267C14.9142 8.37267 15.25 8.70845 15.25 9.12267C15.25 9.53688 14.9142 9.87267 14.5 9.87267C13.8549 9.87267 13.255 10.0599 12.75 10.3835V16.25H14C14.4142 16.25 14.75 16.5858 14.75 17C14.75 17.4142 14.4142 17.75 14 17.75H12.75L12.7497 21.5835C13.1484 21.6921 13.5677 21.75 14 21.75C16.6234 21.75 18.75 19.6234 18.75 17C18.75 16.8074 18.7385 16.6173 18.7161 16.4303C20.4912 15.7422 21.75 14.0188 21.75 12C21.75 9.98122 20.4912 8.25783 18.7161 7.56971C18.7385 7.38273 18.75 7.19259 18.75 7C18.75 4.37665 16.6234 2.25 14 2.25C13.5678 2.25 13.1486 2.30788 12.75 2.41639Z" fill="#292556"/>
</svg>
