<svg width="24" height="24" viewBox="0 0 24 24" fill="none" xmlns="http://www.w3.org/2000/svg">
<path fill-rule="evenodd" clip-rule="evenodd" d="M8.1 7.25C5.66267 7.25 4.44401 7.25 3.5897 7.87069C3.31379 8.07115 3.07115 8.31379 2.87069 8.5897C2.25 9.44401 2.25 10.6627 2.25 13.1V15.9C2.25 18.3373 2.25 19.556 2.87069 20.4103C3.07115 20.6862 3.31379 20.9288 3.5897 21.1293C4.44401 21.75 5.66267 21.75 8.1 21.75H15.9C18.3373 21.75 19.556 21.75 20.4103 21.1293C20.6862 20.9288 20.9288 20.6862 21.1293 20.4103C21.75 19.556 21.75 18.3373 21.75 15.9V13.1C21.75 10.6627 21.75 9.44401 21.1293 8.5897C20.9288 8.31379 20.6862 8.07115 20.4103 7.87069C19.556 7.25 18.3373 7.25 15.9 7.25H15.25H8.75H8.1ZM12.75 11.5001C12.75 11.0859 12.4143 10.75 12.0001 10.75C11.5859 10.75 11.25 11.0857 11.25 11.4999L11.2497 13.75H9C8.58579 13.75 8.25 14.0858 8.25 14.5C8.25 14.9142 8.58579 15.25 9 15.25H11.2497L11.25 17.5001C11.25 17.9143 11.5859 18.25 12.0001 18.25C12.4143 18.25 12.75 17.9141 12.75 17.4999L12.7497 15.25H15C15.4142 15.25 15.75 14.9142 15.75 14.5C15.75 14.0858 15.4142 13.75 15 13.75H12.7497L12.75 11.5001Z" fill="#292556"/>
<path d="M16 7.25V7C16 4.79086 14.2091 3 12 3V3C9.79086 3 8 4.79086 8 7V7.25" stroke="#292556" stroke-width="1.5" stroke-linejoin="round"/>
</svg>
