<svg width="24" height="24" viewBox="0 0 24 24" fill="none" xmlns="http://www.w3.org/2000/svg">
<path fill-rule="evenodd" clip-rule="evenodd" d="M12.75 2.99999C12.75 2.58577 12.4142 2.24999 12 2.25C11.5857 2.25001 11.25 2.5858 11.25 3.00001L11.25 5.00001C11.25 5.41423 11.5858 5.75001 12 5.75C12.4142 5.74999 12.75 5.4142 12.75 4.99999L12.75 2.99999ZM18.8943 6.16635C19.1872 5.87345 19.1872 5.39858 18.8943 5.10569C18.6014 4.8128 18.1265 4.81281 17.8336 5.1057L16.4697 6.46968C16.1768 6.76258 16.1768 7.23745 16.4697 7.53034C16.7626 7.82323 17.2374 7.82322 17.5303 7.53032L18.8943 6.16635ZM6.16635 5.10571C5.87346 4.81281 5.39858 4.81282 5.10569 5.10571C4.8128 5.39861 4.8128 5.87348 5.1057 6.16637L6.46967 7.53033C6.76257 7.82322 7.23744 7.82322 7.53033 7.53033C7.82322 7.23743 7.82322 6.76256 7.53033 6.46967L6.16635 5.10571ZM19 11.25C18.5858 11.25 18.25 11.5857 18.25 12C18.25 12.4142 18.5858 12.75 19 12.75L21 12.75C21.4142 12.75 21.75 12.4142 21.75 12C21.75 11.5858 21.4142 11.25 21 11.25L19 11.25ZM3 11.25C2.58579 11.25 2.25 11.5858 2.25 12C2.25 12.4142 2.58579 12.75 3 12.75H5C5.41421 12.75 5.75 12.4142 5.75 12C5.75 11.5858 5.41421 11.25 5 11.25H3ZM7.53032 17.5303C7.82322 17.2374 7.82323 16.7626 7.53034 16.4697C7.23745 16.1768 6.76258 16.1768 6.46968 16.4697L5.10569 17.8336C4.81279 18.1265 4.81278 18.6014 5.10567 18.8943C5.39856 19.1872 5.87343 19.1872 6.16633 18.8943L7.53032 17.5303ZM17.5303 16.4697C17.2374 16.1768 16.7626 16.1768 16.4697 16.4697C16.1768 16.7626 16.1768 17.2374 16.4697 17.5303L17.8336 18.8943C18.1265 19.1872 18.6014 19.1872 18.8943 18.8943C19.1872 18.6014 19.1872 18.1265 18.8943 17.8336L17.5303 16.4697ZM12.75 19C12.75 18.5858 12.4142 18.25 12 18.25C11.5858 18.25 11.25 18.5858 11.25 19L11.25 21C11.25 21.4142 11.5857 21.75 12 21.75C12.4142 21.75 12.75 21.4142 12.75 21L12.75 19ZM12 16.75C14.6234 16.75 16.75 14.6234 16.75 12C16.75 9.37665 14.6234 7.25 12 7.25C9.37665 7.25 7.25 9.37665 7.25 12C7.25 14.6234 9.37665 16.75 12 16.75Z" fill="#292556"/>
</svg>
