<svg width="24" height="24" viewBox="0 0 24 24" fill="none" xmlns="http://www.w3.org/2000/svg">
<path d="M21.0009 4.06056C21.2938 3.76764 21.2937 3.29276 21.0008 2.9999C20.7079 2.70703 20.233 2.70707 19.9401 2.99999L21.0009 4.06056ZM19.9401 2.99999L12.6913 10.2501L13.7521 11.3107L21.0009 4.06056L19.9401 2.99999Z" fill="#292556"/>
<path d="M13.2234 10.7778C12.7816 10.3359 12.5607 10.115 12.3358 9.94872C11.2791 9.16749 9.89052 8.99644 8.67578 9.49784C8.41725 9.60456 8.14934 9.76528 7.6135 10.0867L5.74992 11.2047C4.34457 12.0478 3.6419 12.4693 3.44276 13.1039C3.37915 13.3066 3.35298 13.5191 3.36551 13.7312C3.40477 14.3951 3.98419 14.9745 5.14301 16.1333L7.86705 18.8573C9.02571 20.016 9.60504 20.5953 10.2689 20.6346C10.4809 20.6472 10.6935 20.621 10.8961 20.5574C11.5306 20.3584 11.9522 19.6559 12.7954 18.2509L13.9135 16.3877C14.235 15.852 14.3958 15.5841 14.5025 15.3256C15.0041 14.111 14.8333 12.7224 14.0523 11.6655C13.8861 11.4406 13.6652 11.2197 13.2234 10.7778V10.7778Z" fill="#292556"/>
<path d="M13.2273 3.3181C13.1438 2.98422 12.8438 2.75 12.4996 2.75C12.1555 2.75 11.8555 2.98422 11.772 3.3181C11.6682 3.73333 11.5314 3.97014 11.3756 4.12592C11.2198 4.2817 10.983 4.41858 10.5677 4.52239C10.2339 4.60586 9.99965 4.90585 9.99965 5.25C9.99965 5.59415 10.2339 5.89414 10.5677 5.97761C10.983 6.08142 11.2198 6.2183 11.3756 6.37408C11.5314 6.52986 11.6682 6.76667 11.772 7.1819C11.8555 7.51578 12.1555 7.75 12.4996 7.75C12.8438 7.75 13.1438 7.51578 13.2273 7.1819C13.3311 6.76667 13.4679 6.52986 13.6237 6.37408C13.7795 6.2183 14.0163 6.08142 14.4316 5.97761C14.7654 5.89414 14.9996 5.59415 14.9996 5.25C14.9996 4.90585 14.7654 4.60586 14.4316 4.52239C14.0163 4.41858 13.7795 4.2817 13.6237 4.12592C13.4679 3.97014 13.3311 3.73333 13.2273 3.3181Z" fill="#292556"/>
<path d="M19.4773 15.8181C19.3938 15.4842 19.0938 15.25 18.7496 15.25C18.4055 15.25 18.1055 15.4842 18.022 15.8181C17.9182 16.2333 17.7814 16.4701 17.6256 16.6259C17.4698 16.7817 17.233 16.9186 16.8177 17.0224C16.4839 17.1059 16.2496 17.4058 16.2496 17.75C16.2496 18.0942 16.4839 18.3941 16.8177 18.4776C17.233 18.5814 17.4698 18.7183 17.6256 18.8741C17.7814 19.0299 17.9182 19.2667 18.022 19.6819C18.1055 20.0158 18.4055 20.25 18.7496 20.25C19.0938 20.25 19.3938 20.0158 19.4773 19.6819C19.5811 19.2667 19.7179 19.0299 19.8737 18.8741C20.0295 18.7183 20.2663 18.5814 20.6816 18.4776C21.0154 18.3941 21.2496 18.0942 21.2496 17.75C21.2496 17.4058 21.0154 17.1059 20.6816 17.0224C20.2663 16.9186 20.0295 16.7817 19.8737 16.6259C19.7179 16.4701 19.5811 16.2333 19.4773 15.8181Z" fill="#292556"/>
</svg>
