<svg width="24" height="24" viewBox="0 0 24 24" fill="none" xmlns="http://www.w3.org/2000/svg">
<path d="M21.75 12C21.75 17.3848 17.3848 21.75 12 21.75C11.9574 21.75 11.9148 21.7497 11.8723 21.7492L16.1028 14.3949C16.1028 14.3949 16.1184 14.3688 16.1255 14.3556C16.5231 13.6607 16.75 12.8557 16.75 11.9999C16.75 10.7427 16.2616 9.5996 15.4642 8.74995H21.1952C21.5545 9.76649 21.75 10.8604 21.75 12Z" fill="#292556"/>
<path d="M20.5167 7.24995L12 7.24994C9.85847 7.24994 8.04792 8.66718 7.45512 10.6149L4.60106 5.65007C6.38918 3.56848 9.04062 2.25 12 2.25C15.6602 2.25 18.8494 4.2669 20.5167 7.24995Z" fill="#292556"/>
<path d="M2.25 12C2.25 10.1655 2.75663 8.44938 3.63762 6.98386L7.84037 14.2949C8.64853 15.7571 10.2078 16.7499 12 16.7499C12.3749 16.7499 12.7396 16.7065 13.0894 16.6244L10.2333 21.5903C5.69192 20.7591 2.25 16.7815 2.25 12Z" fill="#292556"/>
<path d="M15.25 12C15.25 13.7949 13.7949 15.25 12 15.25C10.2051 15.25 8.75 13.7949 8.75 12C8.75 10.2051 10.2051 8.75 12 8.75C13.7949 8.75 15.25 10.2051 15.25 12Z" fill="#292556"/>
</svg>
