<svg width="24" height="24" viewBox="0 0 24 24" fill="none" xmlns="http://www.w3.org/2000/svg">
<path d="M5.42584 14.3346C4.76804 13.6768 4.43915 13.3479 4.24966 13.0008C3.80115 12.1795 3.80115 11.1864 4.24966 10.365C4.43915 10.0179 4.76804 9.68904 5.42584 9.03125V9.03125L14.9718 18.5772V18.5772C14.314 19.235 13.9851 19.5639 13.6381 19.7534C12.8167 20.2019 11.8236 20.2019 11.0022 19.7534C10.6552 19.5639 10.3263 19.235 9.66847 18.5772L8.89066 17.7994L7.04072 20.3893C6.15835 21.6246 4.37795 21.772 3.30452 20.6985V20.6985C2.23108 19.6251 2.37843 17.8447 3.61373 16.9623L6.20365 15.1124L5.42584 14.3346Z" fill="#292556"/>
<path d="M19.2496 14.3C20.7079 12.8417 21.4371 12.1126 21.5768 11.23C21.622 10.945 21.622 10.6547 21.5768 10.3697C21.4371 9.48713 20.7079 8.75797 19.2496 7.29967L16.704 4.75409C15.2457 3.29578 14.5166 2.56663 13.634 2.42685C13.349 2.38171 13.0587 2.38171 12.7736 2.42685C11.8911 2.56663 11.162 3.29578 9.70367 4.75408L6.48633 7.97142L16.0323 17.5174L19.2496 14.3Z" fill="#292556"/>
</svg>
