<svg width="24" height="24" viewBox="0 0 24 24" fill="none" xmlns="http://www.w3.org/2000/svg">
<path fill-rule="evenodd" clip-rule="evenodd" d="M10 11.2515C10.4142 11.2515 10.75 11.5873 10.75 12.0015V16.0015C10.75 16.4157 10.4142 16.7515 10 16.7515C9.58579 16.7515 9.25 16.4157 9.25 16.0015V12.0015C9.25 11.5873 9.58579 11.2515 10 11.2515ZM14 11.2515C14.4142 11.2515 14.75 11.5873 14.75 12.0015V16.0015C14.75 16.4157 14.4142 16.7515 14 16.7515C13.5858 16.7515 13.25 16.4157 13.25 16.0015V12.0015C13.25 11.5873 13.5858 11.2515 14 11.2515ZM8.25 6C8.25 3.92893 9.92893 2.25 12 2.25C14.0711 2.25 15.75 3.92893 15.75 6V7.4317C16.875 7.55606 17.75 8.50983 17.75 9.66797V10.668V15.0013V16.0013C17.75 19.1769 15.1756 21.7513 12 21.7513C8.82436 21.7513 6.25 19.1769 6.25 16.0013V15.0013V10.668V9.66797C6.25 8.50983 7.12501 7.55606 8.25 7.4317V6Z" fill="#292556"/>
<path d="M7 11V11C4.79086 11 3 9.20914 3 7V5M21 5V7C21 9.20914 19.2091 11 17 11V11M7 15V15C4.79086 15 3 16.7909 3 19V21M17 15V15C19.2091 15 21 16.7909 21 19V21" stroke="#292556" stroke-width="1.5" stroke-linecap="round" stroke-linejoin="round"/>
</svg>
