<svg width="24" height="24" viewBox="0 0 24 24" fill="none" xmlns="http://www.w3.org/2000/svg">
<path fill-rule="evenodd" clip-rule="evenodd" d="M10.2 2.25H13.8C15.8624 2.25 16.8935 2.25 17.6164 2.7752C17.8499 2.94482 18.0552 3.15013 18.2248 3.38359C18.75 4.10647 18.75 5.15431 18.75 7.25C18.9821 7.25 19.0982 7.25 19.1962 7.25701C20.5603 7.35457 21.6454 8.4397 21.743 9.80381C21.75 9.90178 21.75 10.0179 21.75 10.25V16.8C21.75 18.8624 21.75 19.8935 21.2248 20.6164C21.0552 20.8499 20.8499 21.0552 20.6164 21.2248C19.8935 21.75 18.8624 21.75 16.8 21.75H16.8L15.4706 21.75C15.2657 21.75 15.1632 21.75 15.0773 21.738C14.5241 21.6608 14.0892 21.2259 14.012 20.6727C14 20.5868 14 20.4843 14 20.2794V18.75C14 17.6454 13.1046 16.75 12 16.75C10.8954 16.75 10 17.6454 10 18.75V20.2794C10 20.4843 10 20.5868 9.98801 20.6727C9.91084 21.2259 9.47595 21.6608 8.9227 21.738C8.83676 21.75 8.73431 21.75 8.52941 21.75H7.2C5.13765 21.75 4.10647 21.75 3.38359 21.2248C3.15013 21.0552 2.94482 20.8499 2.7752 20.6164C2.25 19.8935 2.25 18.8624 2.25 16.8V10.25C2.25 10.0179 2.25 9.90178 2.25701 9.80382C2.35457 8.4397 3.43971 7.35457 4.80382 7.25701C4.90178 7.25 5.01785 7.25 5.25 7.25C5.25 5.15431 5.25 4.10647 5.7752 3.38359C5.94482 3.15013 6.15013 2.94482 6.38359 2.7752C7.10647 2.25 8.13765 2.25 10.2 2.25ZM11 7.25C11 7.71731 11 7.95096 10.8995 8.125C10.8337 8.23901 10.739 8.33369 10.625 8.39952C10.451 8.5 10.2173 8.5 9.75 8.5C9.28269 8.5 9.04904 8.5 8.875 8.39952C8.76099 8.33369 8.66631 8.23901 8.60048 8.125C8.5 7.95096 8.5 7.71731 8.5 7.25C8.5 6.78269 8.5 6.54904 8.60048 6.375C8.66631 6.26099 8.76099 6.16631 8.875 6.10048C9.04904 6 9.28269 6 9.75 6C10.2173 6 10.451 6 10.625 6.10048C10.739 6.16631 10.8337 6.26099 10.8995 6.375C11 6.54904 11 6.78269 11 7.25ZM15.5 7.25C15.5 7.71731 15.5 7.95096 15.3995 8.125C15.3337 8.23901 15.239 8.33369 15.125 8.39952C14.951 8.5 14.7173 8.5 14.25 8.5C13.7827 8.5 13.549 8.5 13.375 8.39952C13.261 8.33369 13.1663 8.23901 13.1005 8.125C13 7.95096 13 7.71731 13 7.25C13 6.78269 13 6.54904 13.1005 6.375C13.1663 6.26099 13.261 6.16631 13.375 6.10048C13.549 6 13.7827 6 14.25 6C14.7173 6 14.951 6 15.125 6.10048C15.239 6.16631 15.3337 6.26099 15.3995 6.375C15.5 6.54904 15.5 6.78269 15.5 7.25ZM8.64952 12.875C8.75 12.701 8.75 12.4673 8.75 12C8.75 11.5327 8.75 11.299 8.64952 11.125C8.58369 11.011 8.48901 10.9163 8.375 10.8505C8.20096 10.75 7.96731 10.75 7.5 10.75C7.03269 10.75 6.79904 10.75 6.625 10.8505C6.51099 10.9163 6.41631 11.011 6.35048 11.125C6.25 11.299 6.25 11.5327 6.25 12C6.25 12.4673 6.25 12.701 6.35048 12.875C6.41631 12.989 6.51099 13.0837 6.625 13.1495C6.79904 13.25 7.03269 13.25 7.5 13.25C7.96731 13.25 8.20096 13.25 8.375 13.1495C8.48901 13.0837 8.58369 12.989 8.64952 12.875ZM13.25 12C13.25 12.4673 13.25 12.701 13.1495 12.875C13.0837 12.989 12.989 13.0837 12.875 13.1495C12.701 13.25 12.4673 13.25 12 13.25C11.5327 13.25 11.299 13.25 11.125 13.1495C11.011 13.0837 10.9163 12.989 10.8505 12.875C10.75 12.701 10.75 12.4673 10.75 12C10.75 11.5327 10.75 11.299 10.8505 11.125C10.9163 11.011 11.011 10.9163 11.125 10.8505C11.299 10.75 11.5327 10.75 12 10.75C12.4673 10.75 12.701 10.75 12.875 10.8505C12.989 10.9163 13.0837 11.011 13.1495 11.125C13.25 11.299 13.25 11.5327 13.25 12ZM17.6495 12.875C17.75 12.701 17.75 12.4673 17.75 12C17.75 11.5327 17.75 11.299 17.6495 11.125C17.5837 11.011 17.489 10.9163 17.375 10.8505C17.201 10.75 16.9673 10.75 16.5 10.75C16.0327 10.75 15.799 10.75 15.625 10.8505C15.511 10.9163 15.4163 11.011 15.3505 11.125C15.25 11.299 15.25 11.5327 15.25 12C15.25 12.4673 15.25 12.701 15.3505 12.875C15.4163 12.989 15.511 13.0837 15.625 13.1495C15.799 13.25 16.0327 13.25 16.5 13.25C16.9673 13.25 17.201 13.25 17.375 13.1495C17.489 13.0837 17.5837 12.989 17.6495 12.875Z" fill="#292556"/>
</svg>
