<svg width="24" height="24" viewBox="0 0 24 24" fill="none" xmlns="http://www.w3.org/2000/svg">
<path d="M6 9.5V17.75M10 9.5V17.75M14 9.5V17.75M18 9.5V17.75" stroke="#292556" stroke-width="1.5" stroke-linecap="square" stroke-linejoin="round"/>
<path d="M4.40595 17.7496C4.01381 17.7496 3.81774 17.7496 3.65598 17.8331C3.60302 17.8604 3.55351 17.8939 3.50848 17.9329C3.37096 18.0521 3.29814 18.2342 3.15251 18.5983L2.63251 19.8983C2.3367 20.6378 2.18879 21.0076 2.30894 21.2917C2.34705 21.3819 2.40245 21.4637 2.47199 21.5326C2.69121 21.7496 3.08946 21.7496 3.88595 21.7496H20.1135C20.91 21.7496 21.3083 21.7496 21.5275 21.5326C21.597 21.4637 21.6524 21.3819 21.6905 21.2917C21.8107 21.0076 21.6628 20.6378 21.367 19.8983L20.847 18.5983C20.7013 18.2342 20.6285 18.0521 20.491 17.9329C20.4459 17.8939 20.3964 17.8604 20.3435 17.8331C20.1817 17.7496 19.9857 17.7496 19.5935 17.7496H4.40595Z" fill="#292556"/>
<path d="M12.6943 2.29174C12.3943 2.11177 12.2444 2.02179 12.0806 2.00402C12.0269 1.99818 11.9726 1.99818 11.9188 2.00402C11.7551 2.02179 11.6051 2.11177 11.3052 2.29174L3.47135 6.99203C1.9874 7.8824 1.24543 8.32758 1.24977 8.75721C1.25109 8.888 1.28659 9.01617 1.35275 9.129C1.57008 9.49964 2.43536 9.49964 4.16592 9.49964H19.8335C21.5641 9.49964 22.4294 9.49964 22.6467 9.129C22.7129 9.01617 22.7484 8.888 22.7497 8.75721C22.754 8.32758 22.0121 7.88239 20.5281 6.99203L12.6943 2.29174Z" fill="#292556"/>
</svg>
