<svg width="24" height="24" viewBox="0 0 24 24" fill="none" xmlns="http://www.w3.org/2000/svg">
<path fill-rule="evenodd" clip-rule="evenodd" d="M4.77521 4.38359C4.44991 4.83132 4.3261 5.39732 4.27897 6.25335C4.12171 6.25682 3.97512 6.26389 3.84267 6.27824C3.55851 6.30902 3.25197 6.38036 2.97138 6.58422C2.82281 6.69216 2.69216 6.82281 2.58422 6.97138C2.38036 7.25197 2.30903 7.55851 2.27824 7.84267C2.24994 8.10389 2.24997 8.42012 2.25 8.76468L2.25 8.8V9C2.25 9.41421 2.58579 9.75 3 9.75C3.41422 9.75 3.75 9.41421 3.75 9V8.8C3.75 8.40832 3.75103 8.17481 3.76951 8.00424C3.78038 7.9039 3.79421 7.8628 3.79935 7.85088C3.81392 7.83128 3.83128 7.81391 3.85088 7.79934C3.8628 7.79421 3.90391 7.78038 4.00424 7.76951C4.07367 7.76199 4.15352 7.75736 4.25022 7.75451C4.25 7.89745 4.25 8.04584 4.25 8.2V13.8C4.25 15.8624 4.25 16.8935 4.77521 17.6164C4.94483 17.8499 5.15013 18.0552 5.38359 18.2248C5.68741 18.4455 6.04569 18.5735 6.51209 18.6477C6.50415 18.6925 6.5 18.7386 6.5 18.7857C6.5 19.8706 7.39714 20.75 8.48199 20.75C9.58656 20.75 10.5 19.8546 10.5 18.75H13.5C13.5 19.8546 14.4135 20.75 15.518 20.75C16.6029 20.75 17.5 19.8706 17.5 18.7857C17.5 18.7386 17.4959 18.6925 17.4879 18.6477C17.9543 18.5735 18.3126 18.4455 18.6164 18.2248C18.8499 18.0552 19.0552 17.8499 19.2248 17.6164C19.75 16.8935 19.75 15.8624 19.75 13.8V8.2C19.75 8.04584 19.75 7.89745 19.7498 7.75451C19.8465 7.75736 19.9263 7.76199 19.9958 7.76951C20.0961 7.78038 20.1372 7.79421 20.1491 7.79934C20.1687 7.81391 20.1861 7.83128 20.2007 7.85088C20.2058 7.8628 20.2196 7.9039 20.2305 8.00424C20.249 8.17481 20.25 8.40832 20.25 8.8V9C20.25 9.41421 20.5858 9.75 21 9.75C21.4142 9.75 21.75 9.41421 21.75 9V8.8L21.75 8.76466C21.75 8.42011 21.7501 8.10388 21.7218 7.84267C21.691 7.55851 21.6196 7.25197 21.4158 6.97138C21.3078 6.82281 21.1772 6.69216 21.0286 6.58422C20.748 6.38036 20.4415 6.30902 20.1573 6.27824C20.0249 6.26389 19.8783 6.25682 19.721 6.25335C19.6739 5.39732 19.5501 4.83132 19.2248 4.38359C19.0552 4.15013 18.8499 3.94482 18.6164 3.7752C17.8935 3.25 16.8624 3.25 14.8 3.25H9.2C7.13765 3.25 6.10648 3.25 5.38359 3.7752C5.15013 3.94482 4.94483 4.15013 4.77521 4.38359ZM7.33422 6.72138C7 7.18139 7 7.83759 7 9.15V9.6C7 10.9124 7 11.5686 7.33422 12.0286C7.44216 12.1772 7.57281 12.3078 7.72138 12.4158C8.1814 12.75 8.8376 12.75 10.15 12.75H13.85C15.1624 12.75 15.8186 12.75 16.2786 12.4158C16.4272 12.3078 16.5578 12.1772 16.6658 12.0286C17 11.5686 17 10.9124 17 9.6V9.15C17 7.83759 17 7.18139 16.6658 6.72138C16.5578 6.57281 16.4272 6.44216 16.2786 6.33422C15.8186 6 15.1624 6 13.85 6H10.15C8.8376 6 8.1814 6 7.72138 6.33422C7.57281 6.44216 7.44216 6.57281 7.33422 6.72138ZM3.80139 7.84693C3.80143 7.84706 3.80087 7.84834 3.79955 7.85042C3.80068 7.84785 3.80134 7.84681 3.80139 7.84693ZM3.84694 7.80138C3.84682 7.80133 3.84785 7.80067 3.85042 7.79954C3.84834 7.80086 3.84706 7.80143 3.84694 7.80138ZM20.1531 7.80138C20.1529 7.80143 20.1517 7.80086 20.1496 7.79954C20.1522 7.80067 20.1532 7.80133 20.1531 7.80138ZM20.1986 7.84693C20.1987 7.84681 20.1993 7.84785 20.2005 7.85042C20.1991 7.84834 20.1986 7.84706 20.1986 7.84693ZM8 16C8.55229 16 9 15.5523 9 15C9 14.4477 8.55229 14 8 14C7.44772 14 7 14.4477 7 15C7 15.5523 7.44772 16 8 16ZM16 16C16.5523 16 17 15.5523 17 15C17 14.4477 16.5523 14 16 14C15.4477 14 15 14.4477 15 15C15 15.5523 15.4477 16 16 16Z" fill="#292556"/>
</svg>
