<svg width="24" height="24" viewBox="0 0 24 24" fill="none" xmlns="http://www.w3.org/2000/svg">
<path fill-rule="evenodd" clip-rule="evenodd" d="M7.22761 2.81828C7.12715 2.41643 6.71994 2.17211 6.3181 2.27257C5.91625 2.37303 5.67193 2.78023 5.77239 3.18208L6.27239 5.18208C6.37285 5.58393 6.78006 5.82825 7.1819 5.72778C7.58375 5.62732 7.82807 5.22012 7.72761 4.81828L7.22761 2.81828ZM13.2115 3.26301C13.0805 2.87005 12.6558 2.65768 12.2628 2.78866C11.8699 2.91965 11.6575 3.34439 11.7885 3.73735L12.2885 5.23735C12.4195 5.63031 12.8442 5.84268 13.2372 5.71169C13.6301 5.5807 13.8425 5.15596 13.7115 4.76301L13.2115 3.26301ZM10.4776 3.31828C10.3771 2.91643 9.96994 2.67211 9.5681 2.77257C9.16625 2.87303 8.92193 3.28023 9.02239 3.68208L9.27239 4.68208C9.37285 5.08393 9.78006 5.32825 10.1819 5.22778C10.5837 5.12732 10.8281 4.72012 10.7276 4.31828L10.4776 3.31828ZM16.7499 11.7502H17C17.6904 11.7502 18.25 12.3098 18.25 13.0002C18.25 13.6905 17.6904 14.2502 17 14.2502H16.738C16.75 13.75 16.75 13.1736 16.75 12.5002V12.1156C16.75 11.9898 16.75 11.8681 16.7499 11.7502ZM16.7235 10.2502H17C18.5188 10.2502 19.75 11.4814 19.75 13.0002C19.75 14.519 18.5188 15.7502 17 15.7502H16.6231C16.5493 16.1944 16.4325 16.555 16.2476 16.8752C15.9185 17.4452 15.4451 17.9186 14.875 18.2478C14.0048 18.7502 12.8365 18.7502 10.5 18.7502C8.16346 18.7502 6.99519 18.7502 6.125 18.2478C5.55493 17.9186 5.08154 17.4452 4.7524 16.8752C4.25 16.005 4.25 14.8367 4.25 12.5002V12.1156C4.25 10.134 4.25 9.14324 4.73679 8.438C4.92607 8.16378 5.16361 7.92625 5.43782 7.73697C6.14307 7.25018 7.13384 7.25018 9.11539 7.25018H11.8846C13.8662 7.25018 14.8569 7.25018 15.5622 7.73697C15.8364 7.92625 16.0739 8.16378 16.2632 8.438C16.5654 8.87579 16.68 9.42362 16.7235 10.2502ZM5 20.2502C4.58579 20.2502 4.25 20.586 4.25 21.0002C4.25 21.4144 4.58579 21.7502 5 21.7502H16C16.4142 21.7502 16.75 21.4144 16.75 21.0002C16.75 20.586 16.4142 20.2502 16 20.2502H5Z" fill="#292556"/>
</svg>
