<svg width="24" height="24" viewBox="0 0 24 24" fill="none" xmlns="http://www.w3.org/2000/svg">
<path fill-rule="evenodd" clip-rule="evenodd" d="M3.15717 4.20802C2.25 5.45663 2.25 7.23775 2.25 10.8V13.2C2.25 16.7622 2.25 18.5434 3.15717 19.792C3.45015 20.1952 3.80477 20.5499 4.20802 20.8428C5.45663 21.75 7.23775 21.75 10.8 21.75H13.2C16.7622 21.75 18.5434 21.75 19.792 20.8428C20.1952 20.5499 20.5499 20.1952 20.8428 19.792C21.75 18.5434 21.75 16.7622 21.75 13.2V10.8C21.75 7.23775 21.75 5.45663 20.8428 4.20802C20.5499 3.80477 20.1952 3.45015 19.792 3.15717C18.5434 2.25 16.7622 2.25 13.2 2.25H10.8C7.23775 2.25 5.45663 2.25 4.20802 3.15717C3.80477 3.45015 3.45015 3.80477 3.15717 4.20802ZM8.75 6C8.75 5.58579 8.41421 5.25 8 5.25C7.58579 5.25 7.25 5.58579 7.25 6V7.25004H6C5.58579 7.25004 5.25 7.58583 5.25 8.00004C5.25 8.41426 5.58579 8.75004 6 8.75004H7.25V10C7.25 10.4142 7.58579 10.75 8 10.75C8.41421 10.75 8.75 10.4142 8.75 10V8.75004H10C10.4142 8.75004 10.75 8.41426 10.75 8.00004C10.75 7.58583 10.4142 7.25004 10 7.25004H8.75V6ZM14 7.25C13.5858 7.25 13.25 7.58579 13.25 8C13.25 8.41421 13.5858 8.75 14 8.75H18C18.4142 8.75 18.75 8.41421 18.75 8C18.75 7.58579 18.4142 7.25 18 7.25H14ZM14 13.75C13.5858 13.75 13.25 14.0858 13.25 14.5C13.25 14.9142 13.5858 15.25 14 15.25H18C18.4142 15.25 18.75 14.9142 18.75 14.5C18.75 14.0858 18.4142 13.75 18 13.75H14ZM7.11612 14.0555C6.82322 13.7626 6.34835 13.7626 6.05546 14.0555C5.76256 14.3484 5.76256 14.8232 6.05546 15.1161L6.93937 16L6.05549 16.8839C5.76259 17.1768 5.76259 17.6517 6.05549 17.9446C6.34838 18.2375 6.82325 18.2375 7.11615 17.9446L8.00003 17.0607L8.88388 17.9445C9.17678 18.2374 9.65165 18.2374 9.94454 17.9445C10.2374 17.6517 10.2374 17.1768 9.94454 16.8839L9.06069 16L9.94457 15.1161C10.2375 14.8233 10.2375 14.3484 9.94457 14.0555C9.65168 13.7626 9.17681 13.7626 8.88391 14.0555L8.00003 14.9394L7.11612 14.0555ZM14 16.75C13.5858 16.75 13.25 17.0858 13.25 17.5C13.25 17.9142 13.5858 18.25 14 18.25H18C18.4142 18.25 18.75 17.9142 18.75 17.5C18.75 17.0858 18.4142 16.75 18 16.75H14Z" fill="#292556"/>
</svg>
