<svg width="24" height="24" viewBox="0 0 24 24" fill="none" xmlns="http://www.w3.org/2000/svg">
<path d="M9.75 3C9.75 2.58579 9.41421 2.25 9 2.25C8.58579 2.25 8.25 2.58579 8.25 3H9.75ZM15.75 3C15.75 2.58579 15.4142 2.25 15 2.25C14.5858 2.25 14.25 2.58579 14.25 3H15.75ZM9.75 5V3H8.25V5H9.75ZM15.75 5V3H14.25V5H15.75Z" fill="#292556"/>
<path fill-rule="evenodd" clip-rule="evenodd" d="M21.75 10.75V12.9167C21.75 16.3485 21.75 18.0644 20.9434 19.3065C20.5617 19.8942 20.0608 20.3951 19.4732 20.7767C18.2311 21.5833 16.5152 21.5833 13.0833 21.5833H10.9167C7.48484 21.5833 5.76893 21.5833 4.5268 20.7767C3.93915 20.3951 3.43827 19.8942 3.05665 19.3065C2.25 18.0644 2.25 16.3485 2.25 12.9167V10.75C2.25 9.35547 2.25 8.65821 2.38815 8.08277C2.82707 6.25453 4.25453 4.82707 6.08277 4.38815C6.65821 4.25 7.35547 4.25 8.75 4.25H15.25C16.6445 4.25 17.3418 4.25 17.9172 4.38815C19.7455 4.82707 21.1729 6.25453 21.6118 8.08277C21.75 8.65821 21.75 9.35547 21.75 10.75ZM11.2294 8.74968C11.1031 8.90242 10.9855 9.28288 10.7504 10.0438C10.6864 10.251 10.6544 10.3546 10.6077 10.4409C10.466 10.7032 10.2147 10.8885 9.92236 10.9465C9.82608 10.9656 9.7159 10.9656 9.49556 10.9656C8.65767 10.9656 8.23873 10.9656 8.04083 11.0559C7.51647 11.2955 7.30266 11.9275 7.57395 12.4362C7.67634 12.6281 8.00355 12.8781 8.65795 13.378L8.76429 13.4593C8.95475 13.6048 9.04998 13.6775 9.12058 13.7613C9.29063 13.9631 9.37401 14.224 9.35254 14.487C9.34362 14.5962 9.30824 14.7107 9.23748 14.9397L9.1824 15.1179L9.1824 15.118C8.96093 15.8346 8.85019 16.193 8.86488 16.3831C8.91351 17.0127 9.52633 17.4402 10.134 17.2683C10.3175 17.2165 10.6155 16.9888 11.2116 16.5334C11.3843 16.4015 11.4706 16.3355 11.5583 16.2924C11.8368 16.1552 12.1632 16.1552 12.4417 16.2924C12.5294 16.3355 12.6157 16.4015 12.7884 16.5334C13.3845 16.9888 13.6825 17.2165 13.866 17.2683C14.4737 17.4402 15.0865 17.0127 15.1351 16.3831C15.1498 16.193 15.0391 15.8346 14.8176 15.1179L14.7625 14.9397L14.7625 14.9397C14.6918 14.7107 14.6564 14.5962 14.6475 14.487C14.626 14.224 14.7094 13.9631 14.8794 13.7613C14.95 13.6775 15.0452 13.6048 15.2357 13.4593L15.3421 13.378L15.3421 13.378C15.9965 12.8781 16.3237 12.6281 16.426 12.4362C16.6973 11.9275 16.4835 11.2955 15.9592 11.0559C15.7613 10.9656 15.3423 10.9656 14.5044 10.9656C14.2841 10.9656 14.1739 10.9656 14.0776 10.9465C13.7853 10.8885 13.534 10.7032 13.3923 10.4409C13.3456 10.3546 13.3136 10.251 13.2496 10.0438C13.0145 9.28288 12.8969 8.90242 12.7706 8.74968C12.3706 8.26618 11.6294 8.26618 11.2294 8.74968Z" fill="#292556"/>
</svg>
