<svg width="24" height="24" viewBox="0 0 24 24" fill="none" xmlns="http://www.w3.org/2000/svg">
<path d="M9.75 3C9.75 2.58579 9.41421 2.25 9 2.25C8.58579 2.25 8.25 2.58579 8.25 3H9.75ZM15.75 3C15.75 2.58579 15.4142 2.25 15 2.25C14.5858 2.25 14.25 2.58579 14.25 3H15.75ZM9.75 5V3H8.25V5H9.75ZM15.75 5V3H14.25V5H15.75Z" fill="#292556"/>
<path fill-rule="evenodd" clip-rule="evenodd" d="M21.75 10.75V13C21.75 16.5112 21.75 18.2667 20.9073 19.5279C20.5426 20.0738 20.0738 20.5426 19.5279 20.9073C18.2667 21.75 16.5112 21.75 13 21.75H11C7.48884 21.75 5.73327 21.75 4.47215 20.9073C3.9262 20.5426 3.45744 20.0738 3.09265 19.5279C2.25 18.2667 2.25 16.5112 2.25 13V10.75C2.25 9.35547 2.25 8.65821 2.38815 8.08277C2.82707 6.25453 4.25453 4.82707 6.08277 4.38815C6.65821 4.25 7.35547 4.25 8.75 4.25H15.25C16.6445 4.25 17.3418 4.25 17.9172 4.38815C19.7455 4.82707 21.1729 6.25453 21.6118 8.08277C21.75 8.65821 21.75 9.35547 21.75 10.75ZM7 9.75C6.58579 9.75 6.25 10.0858 6.25 10.5C6.25 10.9142 6.58579 11.25 7 11.25H17C17.4142 11.25 17.75 10.9142 17.75 10.5C17.75 10.0858 17.4142 9.75 17 9.75H7ZM9 12.75C8.58579 12.75 8.25 13.0858 8.25 13.5C8.25 13.9142 8.58579 14.25 9 14.25H15C15.4142 14.25 15.75 13.9142 15.75 13.5C15.75 13.0858 15.4142 12.75 15 12.75H9ZM10.5 15.75C10.0858 15.75 9.75 16.0858 9.75 16.5C9.75 16.9142 10.0858 17.25 10.5 17.25H13.5C13.9142 17.25 14.25 16.9142 14.25 16.5C14.25 16.0858 13.9142 15.75 13.5 15.75H10.5Z" fill="#292556"/>
</svg>
