<svg width="24" height="24" viewBox="0 0 24 24" fill="none" xmlns="http://www.w3.org/2000/svg">
<path d="M9.75 3C9.75 2.58579 9.41421 2.25 9 2.25C8.58579 2.25 8.25 2.58579 8.25 3H9.75ZM15.75 3C15.75 2.58579 15.4142 2.25 15 2.25C14.5858 2.25 14.25 2.58579 14.25 3H15.75ZM9.75 5V3H8.25V5H9.75ZM15.75 5V3H14.25V5H15.75Z" fill="#292556"/>
<path fill-rule="evenodd" clip-rule="evenodd" d="M21.75 10.75V12.9167C21.75 16.3485 21.75 18.0644 20.9434 19.3065C20.5617 19.8942 20.0608 20.3951 19.4732 20.7767C18.2311 21.5833 16.5152 21.5833 13.0833 21.5833H10.9167C7.48484 21.5833 5.76893 21.5833 4.5268 20.7767C3.93915 20.3951 3.43827 19.8942 3.05665 19.3065C2.25 18.0644 2.25 16.3485 2.25 12.9167V10.75C2.25 9.35547 2.25 8.65821 2.38815 8.08277C2.82707 6.25453 4.25453 4.82707 6.08277 4.38815C6.65821 4.25 7.35547 4.25 8.75 4.25H15.25C16.6445 4.25 17.3418 4.25 17.9172 4.38815C19.7455 4.82707 21.1729 6.25453 21.6118 8.08277C21.75 8.65821 21.75 9.35547 21.75 10.75ZM8.25 9.41C8.25 8.99579 7.91421 8.66 7.5 8.66C7.08579 8.66 6.75 8.99579 6.75 9.41V16.41C6.75 16.8242 7.08579 17.16 7.5 17.16C7.91421 17.16 8.25 16.8242 8.25 16.41V9.41ZM12.75 9.41C12.75 8.99579 12.4142 8.66 12 8.66C11.5858 8.66 11.25 8.99579 11.25 9.41V16.41C11.25 16.8242 11.5858 17.16 12 17.16C12.4142 17.16 12.75 16.8242 12.75 16.41V9.41ZM17.25 9.41C17.25 8.99579 16.9142 8.66 16.5 8.66C16.0858 8.66 15.75 8.99579 15.75 9.41V16.41C15.75 16.8242 16.0858 17.16 16.5 17.16C16.9142 17.16 17.25 16.8242 17.25 16.41V9.41Z" fill="#292556"/>
</svg>
