<svg width="24" height="24" viewBox="0 0 24 24" fill="none" xmlns="http://www.w3.org/2000/svg">
<path d="M9.75 3C9.75 2.58579 9.41421 2.25 9 2.25C8.58579 2.25 8.25 2.58579 8.25 3H9.75ZM15.75 3C15.75 2.58579 15.4142 2.25 15 2.25C14.5858 2.25 14.25 2.58579 14.25 3H15.75ZM9.75 5V3H8.25V5H9.75ZM15.75 5V3H14.25V5H15.75Z" fill="#292556"/>
<path fill-rule="evenodd" clip-rule="evenodd" d="M21.75 10.75V12.9167C21.75 16.3485 21.75 18.0644 20.9434 19.3065C20.5617 19.8942 20.0608 20.3951 19.4732 20.7767C18.2311 21.5833 16.5152 21.5833 13.0833 21.5833H10.9167C7.48484 21.5833 5.76893 21.5833 4.5268 20.7767C3.93915 20.3951 3.43827 19.8942 3.05665 19.3065C2.25 18.0644 2.25 16.3485 2.25 12.9167V10.75C2.25 9.35547 2.25 8.65821 2.38815 8.08277C2.82707 6.25453 4.25453 4.82707 6.08277 4.38815C6.65821 4.25 7.35547 4.25 8.75 4.25H15.25C16.6445 4.25 17.3418 4.25 17.9172 4.38815C19.7455 4.82707 21.1729 6.25453 21.6118 8.08277C21.75 8.65821 21.75 9.35547 21.75 10.75ZM7 9.5C7 8.94772 7.44772 8.5 8 8.5C8.55228 8.5 9 8.94772 9 9.5C9 10.0523 8.55228 10.5 8 10.5C7.44772 10.5 7 10.0523 7 9.5ZM7 13C7 12.4477 7.44772 12 8 12C8.55228 12 9 12.4477 9 13C9 13.5523 8.55228 14 8 14C7.44772 14 7 13.5523 7 13ZM8 15.5C7.44772 15.5 7 15.9477 7 16.5C7 17.0523 7.44772 17.5 8 17.5C8.55228 17.5 9 17.0523 9 16.5C9 15.9477 8.55228 15.5 8 15.5ZM11 9.5C11 8.94772 11.4477 8.5 12 8.5C12.5523 8.5 13 8.94772 13 9.5C13 10.0523 12.5523 10.5 12 10.5C11.4477 10.5 11 10.0523 11 9.5ZM12 12C11.4477 12 11 12.4477 11 13C11 13.5523 11.4477 14 12 14C12.5523 14 13 13.5523 13 13C13 12.4477 12.5523 12 12 12ZM11 16.5C11 15.9477 11.4477 15.5 12 15.5C12.5523 15.5 13 15.9477 13 16.5C13 17.0523 12.5523 17.5 12 17.5C11.4477 17.5 11 17.0523 11 16.5ZM16 8.5C15.4477 8.5 15 8.94772 15 9.5C15 10.0523 15.4477 10.5 16 10.5C16.5523 10.5 17 10.0523 17 9.5C17 8.94772 16.5523 8.5 16 8.5ZM15 13C15 12.4477 15.4477 12 16 12C16.5523 12 17 12.4477 17 13C17 13.5523 16.5523 14 16 14C15.4477 14 15 13.5523 15 13ZM16 15.5C15.4477 15.5 15 15.9477 15 16.5C15 17.0523 15.4477 17.5 16 17.5C16.5523 17.5 17 17.0523 17 16.5C17 15.9477 16.5523 15.5 16 15.5Z" fill="#292556"/>
</svg>
