<svg width="24" height="24" viewBox="0 0 24 24" fill="none" xmlns="http://www.w3.org/2000/svg">
<path d="M9.75 3C9.75 2.58579 9.41421 2.25 9 2.25C8.58579 2.25 8.25 2.58579 8.25 3H9.75ZM15.75 3C15.75 2.58579 15.4142 2.25 15 2.25C14.5858 2.25 14.25 2.58579 14.25 3H15.75ZM9.75 5V3H8.25V5H9.75ZM15.75 5V3H14.25V5H15.75Z" fill="#292556"/>
<path fill-rule="evenodd" clip-rule="evenodd" d="M21.75 10.75V13C21.75 16.5112 21.75 18.2667 20.9073 19.5279C20.5426 20.0738 20.0738 20.5426 19.5279 20.9073C18.2667 21.75 16.5112 21.75 13 21.75H11C7.48884 21.75 5.73327 21.75 4.47215 20.9073C3.9262 20.5426 3.45744 20.0738 3.09265 19.5279C2.25 18.2667 2.25 16.5112 2.25 13V10.75C2.25 9.35547 2.25 8.65821 2.38815 8.08277C2.82707 6.25453 4.25453 4.82707 6.08277 4.38815C6.65821 4.25 7.35547 4.25 8.75 4.25H15.25C16.6445 4.25 17.3418 4.25 17.9172 4.38815C19.7455 4.82707 21.1729 6.25453 21.6118 8.08277C21.75 8.65821 21.75 9.35547 21.75 10.75ZM16.0357 11.0249C16.3256 10.7291 16.3208 10.2543 16.0249 9.96434C15.7291 9.67442 15.2543 9.67922 14.9643 9.97505L10.7584 14.2668C10.7146 14.3115 10.6767 14.3501 10.6428 14.3843C10.6115 14.3476 10.5767 14.3062 10.5364 14.2583L9.07428 12.5176C8.80786 12.2004 8.33477 12.1593 8.01761 12.4257C7.70044 12.6921 7.6593 13.1652 7.92572 13.4824L9.38789 15.2231L9.40662 15.2454L9.40663 15.2454C9.52167 15.3824 9.64448 15.5287 9.76267 15.6411C9.89699 15.7689 10.0943 15.9222 10.3739 15.9804C10.5103 16.0087 10.6505 16.0141 10.7886 15.9963C11.0719 15.9597 11.2804 15.8219 11.4241 15.7048C11.5505 15.6018 11.6842 15.4653 11.8094 15.3375L11.8298 15.3167L16.0357 11.0249Z" fill="#292556"/>
</svg>
