<svg width="24" height="24" viewBox="0 0 24 24" fill="none" xmlns="http://www.w3.org/2000/svg">
<path d="M9.75 3C9.75 2.58579 9.41421 2.25 9 2.25C8.58579 2.25 8.25 2.58579 8.25 3H9.75ZM15.75 3C15.75 2.58579 15.4142 2.25 15 2.25C14.5858 2.25 14.25 2.58579 14.25 3H15.75ZM9.75 5V3H8.25V5H9.75ZM15.75 5V3H14.25V5H15.75Z" fill="#292556"/>
<path fill-rule="evenodd" clip-rule="evenodd" d="M21.75 10.75V13C21.75 16.5112 21.75 18.2667 20.9073 19.5279C20.5426 20.0738 20.0738 20.5426 19.5279 20.9073C18.2667 21.75 16.5112 21.75 13 21.75H11C7.48884 21.75 5.73327 21.75 4.47215 20.9073C3.9262 20.5426 3.45744 20.0738 3.09265 19.5279C2.25 18.2667 2.25 16.5112 2.25 13V10.75C2.25 9.35547 2.25 8.65821 2.38815 8.08277C2.82707 6.25453 4.25453 4.82707 6.08277 4.38815C6.65821 4.25 7.35547 4.25 8.75 4.25H15.25C16.6445 4.25 17.3418 4.25 17.9172 4.38815C19.7455 4.82707 21.1729 6.25453 21.6118 8.08277C21.75 8.65821 21.75 9.35547 21.75 10.75ZM12.1565 7.36586C12.4774 7.41668 12.7426 7.68183 13.2728 8.21212L15.685 10.6243L15.685 10.6243C16.2254 11.1647 16.4957 11.435 16.5567 11.7264C16.6076 11.9689 16.5665 12.2216 16.4417 12.4356C16.2915 12.6928 15.9497 12.8637 15.2661 13.2055L15.7378 13.6772C16.8885 14.8278 17.4639 15.4032 17.3842 15.9064C17.3595 16.0623 17.2983 16.2101 17.2055 16.3378C16.906 16.75 16.0924 16.75 14.465 16.75H12.75L12.7499 18C12.7499 18.4143 12.4141 18.75 11.9999 18.75C11.5857 18.75 11.2499 18.4142 11.2499 17.9999L11.25 16.75H9.5349C7.90768 16.75 7.09407 16.75 6.79458 16.3378C6.70182 16.2101 6.64059 16.0623 6.6159 15.9064C6.53619 15.4032 7.11149 14.8279 8.26208 13.6772L8.73384 13.2054C8.05031 12.8637 7.70854 12.6928 7.55845 12.4356C7.43354 12.2216 7.39253 11.9689 7.44336 11.7264C7.50445 11.4349 7.77464 11.1647 8.31502 10.6244L10.7273 8.21212C11.2576 7.68183 11.5227 7.41668 11.8436 7.36586C11.9473 7.34944 12.0528 7.34944 12.1565 7.36586Z" fill="#292556"/>
</svg>
