<svg width="24" height="24" viewBox="0 0 24 24" fill="none" xmlns="http://www.w3.org/2000/svg">
<path d="M9.75 3C9.75 2.58579 9.41421 2.25 9 2.25C8.58579 2.25 8.25 2.58579 8.25 3H9.75ZM15.75 3C15.75 2.58579 15.4142 2.25 15 2.25C14.5858 2.25 14.25 2.58579 14.25 3H15.75ZM9.75 5V3H8.25V5H9.75ZM15.75 5V3H14.25V5H15.75Z" fill="#292556"/>
<path fill-rule="evenodd" clip-rule="evenodd" d="M21.75 10.75V13C21.75 16.5112 21.75 18.2667 20.9073 19.5279C20.5426 20.0738 20.0738 20.5426 19.5279 20.9073C18.2667 21.75 16.5112 21.75 13 21.75H11C7.48884 21.75 5.73327 21.75 4.47215 20.9073C3.9262 20.5426 3.45744 20.0738 3.09265 19.5279C2.25 18.2667 2.25 16.5112 2.25 13V10.75C2.25 9.35547 2.25 8.65821 2.38815 8.08277C2.82707 6.25453 4.25453 4.82707 6.08277 4.38815C6.65821 4.25 7.35547 4.25 8.75 4.25H15.25C16.6445 4.25 17.3418 4.25 17.9172 4.38815C19.7455 4.82707 21.1729 6.25453 21.6118 8.08277C21.75 8.65821 21.75 9.35547 21.75 10.75ZM10.0303 9.96967C9.73744 9.67678 9.26256 9.67678 8.96967 9.96967C8.67678 10.2626 8.67678 10.7374 8.96967 11.0303L10.9393 13L8.96967 14.9697C8.67678 15.2626 8.67678 15.7374 8.96967 16.0303C9.26256 16.3232 9.73744 16.3232 10.0303 16.0303L12 14.0607L13.9697 16.0303C14.2626 16.3232 14.7374 16.3232 15.0303 16.0303C15.3232 15.7374 15.3232 15.2626 15.0303 14.9697L13.0607 13L15.0303 11.0303C15.3232 10.7374 15.3232 10.2626 15.0303 9.96967C14.7374 9.67678 14.2626 9.67678 13.9697 9.96967L12 11.9393L10.0303 9.96967Z" fill="#292556"/>
</svg>
