<svg width="24" height="24" viewBox="0 0 24 24" fill="none" xmlns="http://www.w3.org/2000/svg">
<path fill-rule="evenodd" clip-rule="evenodd" d="M21.75 10.3465V13.2C21.75 16.7622 21.75 18.5434 20.8428 19.792C20.5499 20.1952 20.1952 20.5499 19.792 20.8428C18.5434 21.75 16.7622 21.75 13.2 21.75H10.8C7.23775 21.75 5.45663 21.75 4.20802 20.8428C3.80477 20.5499 3.45015 20.1952 3.15717 19.792C2.25 18.5434 2.25 16.7622 2.25 13.2V10.3465C2.25 9.79251 2.25 9.51552 2.27579 9.28246C2.49461 7.30542 4.05542 5.74461 6.03246 5.52579C6.26552 5.5 6.54251 5.5 7.09649 5.5H7.30556C7.50499 5.5 7.66667 5.33833 7.66667 5.13889C7.66667 3.5434 8.96007 2.25 10.5556 2.25H13.4444C15.0399 2.25 16.3333 3.5434 16.3333 5.13889C16.3333 5.33833 16.495 5.5 16.6944 5.5H16.9035C17.4575 5.5 17.7345 5.5 17.9675 5.52579C19.9446 5.74461 21.5054 7.30542 21.7242 9.28246C21.75 9.51552 21.75 9.79251 21.75 10.3465ZM12 9.5C10.067 9.5 8.5 11.067 8.5 13C8.5 14.933 10.067 16.5 12 16.5C13.933 16.5 15.5 14.933 15.5 13C15.5 11.067 13.933 9.5 12 9.5Z" fill="#292556"/>
</svg>
