<svg width="24" height="24" viewBox="0 0 24 24" fill="none" xmlns="http://www.w3.org/2000/svg">
<path fill-rule="evenodd" clip-rule="evenodd" d="M3.01393 3.89886C2.25 4.95032 2.25 6.45021 2.25 9.45V14.55C2.25 17.5498 2.25 19.0497 3.01393 20.1011C3.26065 20.4407 3.55928 20.7393 3.89886 20.9861C4.95032 21.75 6.45021 21.75 9.45 21.75H14.55C17.5498 21.75 19.0497 21.75 20.1011 20.9861C20.4407 20.7393 20.7393 20.4407 20.9861 20.1011C21.75 19.0497 21.75 17.5498 21.75 14.55V9.45C21.75 6.45021 21.75 4.95032 20.9861 3.89886C20.7393 3.55928 20.4407 3.26065 20.1011 3.01393C19.0497 2.25 17.5498 2.25 14.55 2.25H9.45C6.45021 2.25 4.95032 2.25 3.89886 3.01393C3.55928 3.26065 3.26065 3.55928 3.01393 3.89886ZM10.0554 8.99506C9.76255 8.70217 9.28768 8.70217 8.99479 8.99506C8.70189 9.28795 8.70189 9.76283 8.99479 10.0557L10.9393 12.0003L8.99479 13.9448C8.70189 14.2377 8.70189 14.7126 8.99479 15.0055C9.28768 15.2984 9.76255 15.2984 10.0554 15.0055L12 13.0609L13.9445 15.0055C14.2374 15.2984 14.7123 15.2984 15.0052 15.0055C15.2981 14.7126 15.2981 14.2377 15.0052 13.9448L13.0606 12.0003L15.0052 10.0557C15.2981 9.76283 15.2981 9.28795 15.0052 8.99506C14.7123 8.70217 14.2374 8.70217 13.9445 8.99506L12 10.9396L10.0554 8.99506Z" fill="#292556"/>
</svg>
