<svg width="24" height="24" viewBox="0 0 24 24" fill="none" xmlns="http://www.w3.org/2000/svg">
<path fill-rule="evenodd" clip-rule="evenodd" d="M21.1216 10.9501C20.8562 11.893 20.0502 12.6991 18.4382 14.3111L14.1533 18.596C13.7282 19.021 13.5157 19.2335 13.3131 19.3875C11.9721 20.4067 10.116 20.4067 8.77499 19.3875C8.57236 19.2335 8.35985 19.021 7.93482 18.596L4.99819 21.5326C4.29522 22.2356 3.15549 22.2356 2.45252 21.5326C1.74955 20.8297 1.74955 19.6899 2.45252 18.987L5.38915 16.0503L5.38913 16.0503C4.97354 15.6347 4.76575 15.4269 4.61458 15.2293C3.58629 13.8846 3.58629 12.0178 4.61458 10.6732C4.76575 10.4756 4.97355 10.2678 5.38915 9.85216L9.68422 5.55709L9.68422 5.55709C11.2962 3.94507 12.1022 3.13907 13.0452 2.87366C13.7096 2.68665 14.4128 2.68665 15.0772 2.87366C16.0202 3.13907 16.8262 3.94507 18.4382 5.55709C20.0502 7.1691 20.8562 7.97511 21.1216 8.91807C21.3086 9.5825 21.3086 10.2857 21.1216 10.9501ZM14.3752 7.51035C14.0823 7.80325 13.6075 7.80325 13.3146 7.51035C13.0217 7.21746 13.0217 6.74259 13.3146 6.44969C13.6075 6.1568 14.0823 6.1568 14.3752 6.44969C14.6681 6.74259 14.6681 7.21746 14.3752 7.51035ZM16.4963 11.0475C16.2034 11.3404 15.7286 11.3404 15.4357 11.0475C15.1428 10.7546 15.1428 10.2797 15.4357 9.9868C15.7286 9.69391 16.2034 9.69391 16.4963 9.9868C16.7892 10.2797 16.7892 10.7546 16.4963 11.0475ZM10.4865 10.3404C10.7793 10.6333 11.2542 10.6333 11.5471 10.3404C11.84 10.0475 11.84 9.57266 11.5471 9.27977C11.2542 8.98688 10.7793 8.98688 10.4865 9.27977C10.1936 9.57266 10.1936 10.0475 10.4865 10.3404ZM14.3752 14.5826C14.0823 14.8755 13.6075 14.8755 13.3146 14.5826C13.0217 14.2897 13.0217 13.8149 13.3146 13.522C13.6075 13.2291 14.0823 13.2291 14.3752 13.522C14.6681 13.8149 14.6681 14.2897 14.3752 14.5826ZM9.77942 13.8756C10.0723 14.1685 10.5472 14.1685 10.8401 13.8756C11.133 13.5827 11.133 13.1078 10.8401 12.8149C10.5472 12.522 10.0723 12.522 9.77942 12.8149C9.48653 13.1078 9.48653 13.5827 9.77942 13.8756Z" fill="#292556"/>
</svg>
