<svg width="24" height="24" viewBox="0 0 24 24" fill="none" xmlns="http://www.w3.org/2000/svg">
<path d="M12 7.25C13.1046 7.25 14 6.80721 14 5.29768C14 4.29195 13.1122 3.27351 12.5196 2.70574C12.3279 2.52203 12.232 2.43018 12.0761 2.40617C12.0328 2.39951 11.9672 2.39951 11.9239 2.40617C11.768 2.43018 11.6721 2.52203 11.4804 2.70574C10.8878 3.27351 10 4.29195 10 5.29768C10 6.80721 10.8954 7.25 12 7.25Z" fill="#292556"/>
<path d="M6.75 14C6.75 12.604 6.75 11.9061 6.93354 11.3412C7.30448 10.1995 8.19954 9.30448 9.34119 8.93354C9.90606 8.75 10.604 8.75 12 8.75V8.75C13.396 8.75 14.0939 8.75 14.6588 8.93354C15.8005 9.30448 16.6955 10.1995 17.0665 11.3412C17.25 11.9061 17.25 12.604 17.25 14V16.5C17.25 17.896 17.25 18.5939 17.0665 19.1588C16.6955 20.3005 15.8005 21.1955 14.6588 21.5665C14.0939 21.75 13.396 21.75 12 21.75V21.75C10.604 21.75 9.90606 21.75 9.34119 21.5665C8.19954 21.1955 7.30448 20.3005 6.93354 19.1588C6.75 18.5939 6.75 17.896 6.75 16.5V14Z" fill="#292556"/>
</svg>
