<svg width="24" height="24" viewBox="0 0 24 24" fill="none" xmlns="http://www.w3.org/2000/svg">
<path fill-rule="evenodd" clip-rule="evenodd" d="M2.25 7.5C2.25 5.15279 4.15279 3.25 6.5 3.25C8.84721 3.25 10.75 5.15279 10.75 7.5L10.75 11.25H10L3 11.25H2.25V7.5ZM2.25 12.75V16.5C2.25 18.8472 4.15279 20.75 6.5 20.75C8.84721 20.75 10.75 18.8472 10.75 16.5V12.75H10L3 12.75H2.25ZM20.8475 13.2132L20.3588 13.7019L14.7019 19.3588L14.2132 19.8475C16.0705 21.1962 18.6842 21.0333 20.3588 19.3588C22.0333 17.6842 22.1962 15.0705 20.8475 13.2132ZM13.1525 18.7868L13.6412 18.2981L19.2981 12.6412L19.7868 12.1525C17.9295 10.8038 15.3158 10.9667 13.6412 12.6412C11.9667 14.3158 11.8038 16.9295 13.1525 18.7868Z" fill="#292556"/>
</svg>
