<svg width="24" height="24" viewBox="0 0 24 24" fill="none" xmlns="http://www.w3.org/2000/svg">
<path d="M8.75 18.75C5.16015 18.75 2.25 15.7279 2.25 12C2.25 8.27208 5.16015 5.25 8.75 5.25H10.8C10.9875 5.25 11.0812 5.25 11.1469 5.29775C11.1682 5.31317 11.1868 5.33183 11.2023 5.35305C11.25 5.41877 11.25 5.51251 11.25 5.7V18.3C11.25 18.4875 11.25 18.5812 11.2023 18.6469C11.1868 18.6682 11.1682 18.6868 11.1469 18.7023C11.0812 18.75 10.9875 18.75 10.8 18.75H8.75Z" fill="#292556"/>
<path d="M15.25 18.75C18.8399 18.75 21.75 15.7279 21.75 12C21.75 8.27208 18.8399 5.25 15.25 5.25H13.2C13.0125 5.25 12.9188 5.25 12.8531 5.29775C12.8318 5.31317 12.8132 5.33183 12.7977 5.35305C12.75 5.41877 12.75 5.51251 12.75 5.7V18.3C12.75 18.4875 12.75 18.5812 12.7977 18.6469C12.8132 18.6682 12.8318 18.6868 12.8531 18.7023C12.9188 18.75 13.0125 18.75 13.2 18.75H15.25Z" fill="#292556"/>
</svg>
