<svg width="24" height="24" viewBox="0 0 24 24" fill="none" xmlns="http://www.w3.org/2000/svg">
<path fill-rule="evenodd" clip-rule="evenodd" d="M21.75 15.7841V14.25C21.75 12.1789 20.0711 10.5 18 10.5L17.2646 8.8086C16.5061 7.06407 16.1269 6.19181 15.4468 5.62317C15.224 5.43683 14.9802 5.27701 14.7205 5.14694C13.9278 4.75 12.9767 4.75 11.0744 4.75H10.25C8.1498 4.75 7.0997 4.75 6.29754 5.15873C5.59193 5.51825 5.01825 6.09193 4.65873 6.79754C4.25 7.5997 4.25 8.6498 4.25 10.75H3.6C3.03754 10.75 2.75631 10.75 2.55916 10.8932C2.49549 10.9395 2.4395 10.9955 2.39324 11.0592C2.25 11.2563 2.25 11.5375 2.25 12.1V15.1C2.25 16.4124 2.25 17.0686 2.58422 17.5286C2.69216 17.6772 2.82281 17.8078 2.97138 17.9158C3.29357 18.1499 3.712 18.22 4.38472 18.241C4.29662 17.9268 4.25 17.5942 4.25 17.25C4.25 15.317 5.72035 13.75 7.75 13.75C9.77965 13.75 11.25 15.317 11.25 17.25C11.25 17.5975 11.2025 17.9331 11.1127 18.25H12H12.8873C12.7975 17.9331 12.75 17.5975 12.75 17.25C12.75 15.317 14.2204 13.75 16.25 13.75C18.2796 13.75 19.75 15.317 19.75 17.25C19.75 17.5973 19.7025 17.9328 19.6129 18.2495C20.0682 18.2471 20.332 18.2339 20.5526 18.1604C21.0758 17.9863 21.4863 17.5758 21.6604 17.0526C21.75 16.7836 21.75 16.4504 21.75 15.7841ZM5.75 17.25C5.75 16.1454 6.5902 15.25 7.75 15.25C8.9098 15.25 9.75 16.1454 9.75 17.25C9.75 18.3546 8.9098 19.25 7.75 19.25C6.5902 19.25 5.75 18.3546 5.75 17.25ZM14.25 17.25C14.25 16.1454 15.0902 15.25 16.25 15.25C17.4098 15.25 18.25 16.1454 18.25 17.25C18.25 18.3546 17.4098 19.25 16.25 19.25C15.0902 19.25 14.25 18.3546 14.25 17.25ZM8.24748 6.29239C8.49695 6.25 8.79559 6.25 9.39286 6.25C9.4924 6.25 9.54217 6.25 9.58375 6.25706C9.79324 6.29266 9.95734 6.45676 9.99294 6.66625C10 6.70783 10 6.7576 10 6.85714V11.1C10 11.475 10 11.6625 9.90451 11.7939C9.87367 11.8363 9.83634 11.8737 9.79389 11.9045C9.66246 12 9.47497 12 9.1 12H6.57143C6.27116 12 6.12102 12 6.00814 11.9376C5.92577 11.8921 5.85791 11.8242 5.81239 11.7419C5.75 11.629 5.75 11.4788 5.75 11.1786V9.89286C5.75 9.29559 5.75 8.99695 5.79239 8.74748C6.00594 7.49058 6.99058 6.50594 8.24748 6.29239ZM16.5934 11.8511C16.4465 12 16.1735 12 15.6273 12H12.4C12.025 12 11.8375 12 11.7061 11.9045C11.6637 11.8737 11.6263 11.8363 11.5955 11.7939C11.5 11.6625 11.5 11.475 11.5 11.1V6.95122C11.5 6.76395 11.5 6.67031 11.5248 6.59458C11.5743 6.4431 11.6931 6.32431 11.8446 6.27477C11.9203 6.25 12.014 6.25 12.2012 6.25C12.8365 6.25 13.1542 6.25 13.4395 6.31788C14.0075 6.45299 14.5102 6.78264 14.8606 7.24964C15.0366 7.48423 15.1633 7.77553 15.4166 8.35814L16.4527 10.7411C16.6704 11.242 16.7793 11.4924 16.7013 11.6865C16.6766 11.748 16.6399 11.8039 16.5934 11.8511Z" fill="#292556"/>
</svg>
