<svg width="24" height="24" viewBox="0 0 24 24" fill="none" xmlns="http://www.w3.org/2000/svg">
<path d="M10 19C10 20.1046 9.10457 21 8 21C6.89543 21 6 20.1046 6 19C6 17.8954 6.89543 17 8 17C9.10457 17 10 17.8954 10 19Z" fill="#292556"/>
<path d="M18 19C18 20.1046 17.1046 21 16 21C14.8954 21 14 20.1046 14 19C14 17.8954 14.8954 17 16 17C17.1046 17 18 17.8954 18 19Z" fill="#292556"/>
<path d="M5.75 5.5C5.75 5.08579 5.41421 4.75 5 4.75C4.58579 4.75 4.25 5.08579 4.25 5.5H5.75ZM4.25 11.5C4.25 11.9142 4.58579 12.25 5 12.25C5.41421 12.25 5.75 11.9142 5.75 11.5H4.25ZM3 2.75C2.58579 2.75 2.25 3.08579 2.25 3.5C2.25 3.91421 2.58579 4.25 3 4.25V2.75ZM5.75 11.5V5.5H4.25V11.5H5.75ZM5.75 11.5V5.5H4.25V11.5H5.75ZM5.75 5.5C5.75 3.98122 4.51878 2.75 3 2.75V4.25C3.69036 4.25 4.25 4.80964 4.25 5.5H5.75Z" fill="#292556"/>
<path fill-rule="evenodd" clip-rule="evenodd" d="M4.49907 7.15612C4.25 7.80498 4.25 8.61999 4.25 10.25C4.25 11.88 4.25 12.695 4.49907 13.3439C4.87994 14.3361 5.66393 15.1201 6.65612 15.5009C7.30498 15.75 8.11999 15.75 9.75 15.75H14.6133C15.6334 15.75 16.1434 15.75 16.6049 15.6307C17.3093 15.4487 17.9456 15.0657 18.4361 14.5284C18.7575 14.1764 18.9963 13.7257 19.4737 12.8242C20.6672 10.5706 21.264 9.44387 21.2703 8.52587C21.28 7.1185 20.5009 5.82418 19.2527 5.17406C18.4384 4.75 17.1634 4.75 14.6133 4.75H9.75C8.11999 4.75 7.30498 4.75 6.65612 4.99907C5.66393 5.37994 4.87994 6.16393 4.49907 7.15612ZM9.75 10.25C9.75 10.8023 9.30228 11.25 8.75 11.25C8.19772 11.25 7.75 10.8023 7.75 10.25C7.75 9.69772 8.19772 9.25 8.75 9.25C9.30228 9.25 9.75 9.69772 9.75 10.25ZM13.25 10.25C13.25 10.8023 12.8023 11.25 12.25 11.25C11.6977 11.25 11.25 10.8023 11.25 10.25C11.25 9.69772 11.6977 9.25 12.25 9.25C12.8023 9.25 13.25 9.69772 13.25 10.25ZM15.75 11.25C16.3023 11.25 16.75 10.8023 16.75 10.25C16.75 9.69772 16.3023 9.25 15.75 9.25C15.1977 9.25 14.75 9.69772 14.75 10.25C14.75 10.8023 15.1977 11.25 15.75 11.25Z" fill="#292556"/>
</svg>
