<svg width="24" height="24" viewBox="0 0 24 24" fill="none" xmlns="http://www.w3.org/2000/svg">
<path d="M10 19C10 20.1046 9.10457 21 8 21C6.89543 21 6 20.1046 6 19C6 17.8954 6.89543 17 8 17C9.10457 17 10 17.8954 10 19Z" fill="#292556"/>
<path d="M18 19C18 20.1046 17.1046 21 16 21C14.8954 21 14 20.1046 14 19C14 17.8954 14.8954 17 16 17C17.1046 17 18 17.8954 18 19Z" fill="#292556"/>
<path d="M5.75 5.5C5.75 5.08579 5.41421 4.75 5 4.75C4.58579 4.75 4.25 5.08579 4.25 5.5H5.75ZM3 2.75C2.58579 2.75 2.25 3.08579 2.25 3.5C2.25 3.91421 2.58579 4.25 3 4.25V2.75ZM21.6672 8.764C21.8564 8.39552 21.711 7.94343 21.3426 7.75424C20.9741 7.56504 20.522 7.71038 20.3328 8.07886L21.6672 8.764ZM18.459 13.3703L17.7918 13.0277L18.459 13.3703ZM15.7903 14.25H8V15.75H15.7903V14.25ZM5.75 12V11.5H4.25V12H5.75ZM5.75 11.5V5.5H4.25V11.5H5.75ZM5.75 11.5V5.5H4.25V11.5H5.75ZM20.3328 8.07886L17.7918 13.0277L19.1262 13.7128L21.6672 8.764L20.3328 8.07886ZM5.75 5.5C5.75 3.98122 4.51878 2.75 3 2.75V4.25C3.69036 4.25 4.25 4.80964 4.25 5.5H5.75ZM8 14.25C6.75736 14.25 5.75 13.2426 5.75 12H4.25C4.25 14.0711 5.92893 15.75 8 15.75V14.25ZM15.7903 15.75C17.1962 15.75 18.484 14.9636 19.1262 13.7128L17.7918 13.0277C17.4065 13.7781 16.6338 14.25 15.7903 14.25V15.75Z" fill="#292556"/>
<path d="M10.75 3.25C10.3358 3.25 10 3.58579 10 4V6.5C10 6.91421 10.3358 7.25 10.75 7.25H13.25C13.6642 7.25 14 6.91421 14 6.5V4C14 3.58579 13.6642 3.25 13.25 3.25H10.75Z" fill="#292556"/>
<path d="M8 8.75C7.58579 8.75 7.25 9.08579 7.25 9.5V12C7.25 12.4142 7.58579 12.75 8 12.75H10.5C10.9142 12.75 11.25 12.4142 11.25 12V9.5C11.25 9.08579 10.9142 8.75 10.5 8.75H8Z" fill="#292556"/>
<path d="M13.5 8.75C13.0858 8.75 12.75 9.08579 12.75 9.5V12C12.75 12.4142 13.0858 12.75 13.5 12.75H16C16.4142 12.75 16.75 12.4142 16.75 12V9.5C16.75 9.08579 16.4142 8.75 16 8.75H13.5Z" fill="#292556"/>
</svg>
