<svg width="24" height="24" viewBox="0 0 24 24" fill="none" xmlns="http://www.w3.org/2000/svg">
<path fill-rule="evenodd" clip-rule="evenodd" d="M3 2.75C2.58579 2.75 2.25 3.08579 2.25 3.5C2.25 3.91421 2.58579 4.25 3 4.25C3.69036 4.25 4.25 4.80964 4.25 5.5V8.25H16C16.4142 8.25 16.75 8.58579 16.75 9C16.75 9.41421 16.4142 9.75 16 9.75H4.25V11.25H12C12.4142 11.25 12.75 11.5858 12.75 12C12.75 12.4142 12.4142 12.75 12 12.75H4.25V13.95C4.25 14.6999 4.25 15.0749 4.44098 15.3378C4.50266 15.4227 4.57732 15.4973 4.66221 15.559C4.92508 15.75 5.30005 15.75 6.05 15.75H14.6133C15.6334 15.75 16.1434 15.75 16.6049 15.6307C17.3093 15.4487 17.9456 15.0657 18.4361 14.5284C18.7575 14.1764 18.9963 13.7257 19.4737 12.8242C20.6672 10.5706 21.264 9.44387 21.2703 8.52587C21.28 7.1185 20.5009 5.82418 19.2527 5.17406C18.4384 4.75 17.1634 4.75 14.6133 4.75H11C8.1877 4.75 6.78155 4.75 5.79581 5.46619C5.78045 5.47734 5.76518 5.48862 5.75 5.5C5.75 3.98122 4.51878 2.75 3 2.75ZM10 19C10 20.1046 9.10457 21 8 21C6.89543 21 6 20.1046 6 19C6 17.8954 6.89543 17 8 17C9.10457 17 10 17.8954 10 19ZM18 19C18 20.1046 17.1046 21 16 21C14.8954 21 14 20.1046 14 19C14 17.8954 14.8954 17 16 17C17.1046 17 18 17.8954 18 19Z" fill="#292556"/>
</svg>
