<svg width="24" height="24" viewBox="0 0 24 24" fill="none" xmlns="http://www.w3.org/2000/svg">
<path d="M10 19C10 20.1046 9.10457 21 8 21C6.89543 21 6 20.1046 6 19C6 17.8954 6.89543 17 8 17C9.10457 17 10 17.8954 10 19Z" fill="#292556"/>
<path d="M18 19C18 20.1046 17.1046 21 16 21C14.8954 21 14 20.1046 14 19C14 17.8954 14.8954 17 16 17C17.1046 17 18 17.8954 18 19Z" fill="#292556"/>
<path d="M5.75 5.5C5.75 5.08579 5.41421 4.75 5 4.75C4.58579 4.75 4.25 5.08579 4.25 5.5H5.75ZM4.25 11.5C4.25 11.9142 4.58579 12.25 5 12.25C5.41421 12.25 5.75 11.9142 5.75 11.5H4.25ZM3 2.75C2.58579 2.75 2.25 3.08579 2.25 3.5C2.25 3.91421 2.58579 4.25 3 4.25V2.75ZM5.75 11.5V5.5H4.25V11.5H5.75ZM5.75 11.5V5.5H4.25V11.5H5.75ZM5.75 5.5C5.75 3.98122 4.51878 2.75 3 2.75V4.25C3.69036 4.25 4.25 4.80964 4.25 5.5H5.75Z" fill="#292556"/>
<path fill-rule="evenodd" clip-rule="evenodd" d="M4.49907 7.15612C4.25 7.80498 4.25 8.61999 4.25 10.25C4.25 11.88 4.25 12.695 4.49907 13.3439C4.87994 14.3361 5.66393 15.1201 6.65612 15.5009C7.30498 15.75 8.11999 15.75 9.75 15.75H14.6133C15.6334 15.75 16.1434 15.75 16.6049 15.6307C17.3093 15.4487 17.9456 15.0657 18.4361 14.5284C18.7575 14.1764 18.9963 13.7257 19.4737 12.8242C20.6672 10.5706 21.264 9.44387 21.2703 8.52587C21.28 7.1185 20.5009 5.82418 19.2527 5.17406C18.4384 4.75 17.1634 4.75 14.6133 4.75H9.75C8.11999 4.75 7.30498 4.75 6.65612 4.99907C5.66393 5.37994 4.87994 6.16393 4.49907 7.15612ZM15.4881 9.06944C15.8026 8.79988 15.839 8.3264 15.5694 8.01191C15.2999 7.69741 14.8264 7.66099 14.5119 7.93056L11.6447 10.3882C11.6046 10.4226 11.5701 10.4521 11.5392 10.4782C11.5105 10.4498 11.4784 10.4177 11.441 10.3803L10.5303 9.46967C10.2374 9.17678 9.76256 9.17678 9.46967 9.46967C9.17678 9.76256 9.17678 10.2374 9.46967 10.5303L10.3803 11.441L10.3985 11.4592C10.506 11.5667 10.6236 11.6844 10.7356 11.7751C10.8651 11.8801 11.0469 12.0003 11.2928 12.0471C11.4153 12.0704 11.5407 12.0752 11.6646 12.0613C11.9134 12.0336 12.1039 11.9276 12.2411 11.8329C12.3597 11.7511 12.486 11.6428 12.6013 11.5438L12.6013 11.5438L12.6209 11.5271L15.4881 9.06944Z" fill="#292556"/>
</svg>
