<svg width="24" height="24" viewBox="0 0 24 24" fill="none" xmlns="http://www.w3.org/2000/svg">
<path d="M8 20.2509C7.58579 20.2509 7.25 20.5867 7.25 21.0009C7.25 21.4151 7.58579 21.7509 8 21.7509V20.2509ZM16 21.7509C16.4142 21.7509 16.75 21.4151 16.75 21.0009C16.75 20.5867 16.4142 20.2509 16 20.2509V21.7509ZM8 21.7509H12V20.2509H8V21.7509ZM12 21.7509H16V20.2509H12V21.7509ZM12.75 21.0009V16.6523H11.25V21.0009H12.75Z" fill="#292556"/>
<path d="M6.16935 12.3031C6.78748 14.9855 9.24864 16.75 12.0021 16.75C14.7556 16.75 17.2167 14.9855 17.8348 12.3031C18.2438 10.5284 18.6846 6.71283 18.6846 6.71283L18.6846 6.71276C18.7124 6.49478 18.7263 6.38578 18.7334 6.29636C18.9007 4.18596 17.2891 2.35551 15.1745 2.25429C15.0849 2.25 14.975 2.25 14.7552 2.25H9.24903C9.02924 2.25 8.91934 2.25 8.82974 2.25429C6.71513 2.35551 5.10346 4.18596 5.27077 6.29636C5.27786 6.38579 5.29177 6.4948 5.3196 6.71283C5.3196 6.71283 5.76039 10.5284 6.16935 12.3031Z" fill="#292556"/>
</svg>
