<svg width="24" height="24" viewBox="0 0 24 24" fill="none" xmlns="http://www.w3.org/2000/svg">
<path d="M11.1836 10.8395C11.6512 11.072 11.9987 11.3902 12.2475 11.7579C12.4133 11.6189 12.6023 11.4944 12.8165 11.3879C13.2594 11.1677 13.6925 11.2103 13.9186 11.2325L13.9618 11.2367C14.2084 11.2594 14.2348 11.2442 14.26 11.2297L14.2612 11.229L14.2631 11.228C14.2868 11.2145 14.3124 11.1999 14.4145 10.9797L14.4325 10.9405C14.5263 10.7348 14.7069 10.3388 15.1223 10.0673C16.2051 9.35949 17.3751 9.55143 18.3164 10.0811C19.2416 10.6018 20.0365 11.4846 20.565 12.393C21.9373 14.7518 21.1884 17.7687 18.8386 19.1145C16.4925 20.4582 13.4929 19.5959 12.1217 17.2407C12.0271 17.0782 11.9374 16.9087 11.854 16.7339C10.4718 19.0576 7.49372 19.9019 5.16152 18.5661C2.81165 17.2203 2.06279 14.2034 3.43511 11.8446C3.96357 10.9362 4.75847 10.0534 5.68369 9.53274C6.625 9.00304 7.79496 8.8111 8.87781 9.51893C9.29318 9.79044 9.47377 10.1864 9.56762 10.3922L9.58555 10.4313C9.68767 10.6515 9.71332 10.6661 9.73703 10.6796L9.73886 10.6806C9.74397 10.6836 9.74826 10.6857 9.75183 10.6872C9.78171 10.7004 9.81364 10.709 10.0792 10.6845L10.0994 10.6826C10.3269 10.6614 10.7466 10.6223 11.1836 10.8395Z" fill="#292556"/>
<path d="M14.6339 11.8804L13.7338 10.8754C13.7338 10.8754 10.8961 7.2065 12.2764 5.23813M12.2764 5.23813C11.8048 5.3564 11.2933 5.53338 10.8221 5.7982C8.71912 6.98021 9.41959 10.8272 9.41959 10.8272L9.44992 11.3744M12.2764 5.23813C13.2079 5.0045 13.9834 5 13.9834 5" stroke="#292556" stroke-width="1.5" stroke-linecap="round" stroke-linejoin="round"/>
</svg>
