<svg width="24" height="24" viewBox="0 0 24 24" fill="none" xmlns="http://www.w3.org/2000/svg">
<path fill-rule="evenodd" clip-rule="evenodd" d="M21.75 12.2V11.8C21.75 8.23775 21.75 6.45663 20.8428 5.20802C20.5499 4.80477 20.1952 4.45015 19.792 4.15717C18.5434 3.25 16.7622 3.25 13.2 3.25H10.8C7.23775 3.25 5.45663 3.25 4.20802 4.15717C3.80477 4.45015 3.45015 4.80477 3.15717 5.20802C2.25 6.45663 2.25 8.23775 2.25 11.8V12.2C2.25 15.7622 2.25 17.5434 3.15717 18.792C3.45015 19.1952 3.80477 19.5499 4.20802 19.8428C5.45663 20.75 7.23775 20.75 10.8 20.75H13.2C16.7622 20.75 18.5434 20.75 19.792 19.8428C20.1952 19.5499 20.5499 19.1952 20.8428 18.792C21.75 17.5434 21.75 15.7622 21.75 12.2ZM10.5666 12.4334C9.04886 10.9157 6.92194 10.1892 4.5202 10.254C4.10614 10.2651 3.76143 9.93849 3.75027 9.52443C3.73912 9.11037 4.06574 8.76566 4.4798 8.7545C7.20727 8.68101 9.76262 9.50817 11.6272 11.3728C13.4918 13.2374 14.319 15.7927 14.2455 18.5202C14.2343 18.9343 13.8896 19.2609 13.4756 19.2497C13.0615 19.2386 12.7349 18.8939 12.746 18.4798C12.8108 16.0781 12.0843 13.9511 10.5666 12.4334ZM8.3676 14.6324C7.41361 13.6784 6.06707 13.2109 4.5202 13.2525C4.10614 13.2637 3.76143 12.9371 3.75027 12.523C3.73912 12.109 4.06574 11.7642 4.4798 11.7531C6.35241 11.7026 8.12738 12.2709 9.42826 13.5717C10.7291 14.8726 11.2974 16.6476 11.2469 18.5202C11.2358 18.9343 10.891 19.2609 10.477 19.2497C10.0629 19.2386 9.7363 18.8939 9.74745 18.4798C9.78913 16.9329 9.32159 15.5864 8.3676 14.6324ZM6.16864 16.8314C5.77837 16.4411 5.2122 16.2325 4.5202 16.2511C4.10614 16.2623 3.76143 15.9357 3.75027 15.5216C3.73912 15.1075 4.06574 14.7628 4.4798 14.7517C5.49754 14.7243 6.49213 15.0335 7.2293 15.7707C7.96646 16.5079 8.27574 17.5025 8.24832 18.5202C8.23716 18.9343 7.89245 19.2609 7.47839 19.2497C7.06433 19.2386 6.73771 18.8939 6.74886 18.4798C6.76751 17.7878 6.55891 17.2216 6.16864 16.8314ZM5.45711 18.9571C5.06658 19.3476 4.43342 19.3476 4.04289 18.9571C3.65237 18.5666 3.65237 17.9334 4.04289 17.5429C4.43342 17.1524 5.06658 17.1524 5.45711 17.5429C5.84763 17.9334 5.84763 18.5666 5.45711 18.9571Z" fill="#292556"/>
</svg>
