<svg width="24" height="24" viewBox="0 0 24 24" fill="none" xmlns="http://www.w3.org/2000/svg">
<path fill-rule="evenodd" clip-rule="evenodd" d="M3.15717 4.20802C2.25 5.45663 2.25 7.23775 2.25 10.8V13.2C2.25 13.9605 2.25 14.6397 2.25883 15.25H6.41841C6.69927 14.6588 7.3019 14.25 8 14.25C8.9665 14.25 9.75 15.0335 9.75 16C9.75 16.9665 8.9665 17.75 8 17.75C7.3019 17.75 6.69927 17.3412 6.41841 16.75H2.31125C2.40042 18.1245 2.61941 19.0518 3.15717 19.792C3.45015 20.1952 3.80477 20.5499 4.20802 20.8428C5.45663 21.75 7.23775 21.75 10.8 21.75H11.25V9.58159C10.6588 9.30073 10.25 8.6981 10.25 8C10.25 7.0335 11.0335 6.25 12 6.25C12.9665 6.25 13.75 7.0335 13.75 8C13.75 8.6981 13.3412 9.30073 12.75 9.58159V21.75H13.2C13.9605 21.75 14.6397 21.75 15.25 21.7412V15.8229L15.9583 14.4063C15.5285 14.0875 15.25 13.5763 15.25 13C15.25 12.0335 16.0335 11.25 17 11.25C17.9665 11.25 18.75 12.0335 18.75 13C18.75 13.7929 18.2227 14.4626 17.4997 14.6776L16.75 16.1771V21.6887C18.1245 21.5996 19.0518 21.3806 19.792 20.8428C20.1952 20.5499 20.5499 20.1952 20.8428 19.792C21.75 18.5434 21.75 16.7622 21.75 13.2V10.8C21.75 10.0395 21.75 9.36026 21.7412 8.75H18.5816C18.3007 9.34124 17.6981 9.75 17 9.75C16.0335 9.75 15.25 8.9665 15.25 8C15.25 7.0335 16.0335 6.25 17 6.25C17.6981 6.25 18.3007 6.65876 18.5816 7.25H21.6887C21.5996 5.87548 21.3806 4.94819 20.8428 4.20802C20.5499 3.80477 20.1952 3.45015 19.792 3.15717C18.5434 2.25 16.7622 2.25 13.2 2.25H10.8C10.0395 2.25 9.36026 2.25 8.75 2.25883V8.17705L8.04169 9.59367C8.47147 9.91254 8.75 10.4237 8.75 11C8.75 11.9665 7.9665 12.75 7 12.75C6.0335 12.75 5.25 11.9665 5.25 11C5.25 10.2071 5.77726 9.53743 6.50028 9.32239L7.25 7.82295V2.31125C5.87548 2.40042 4.94819 2.61941 4.20802 3.15717C3.80477 3.45015 3.45015 3.80477 3.15717 4.20802Z" fill="#292556"/>
</svg>
