<svg width="24" height="24" viewBox="0 0 24 24" fill="none" xmlns="http://www.w3.org/2000/svg">
<path fill-rule="evenodd" clip-rule="evenodd" d="M21.75 12C21.75 17.3848 17.3848 21.75 12 21.75C6.61522 21.75 2.25 17.3848 2.25 12C2.25 6.61522 6.61522 2.25 12 2.25C17.3848 2.25 21.75 6.61522 21.75 12ZM12.75 6.5C12.75 6.08579 12.4142 5.75 12 5.75C11.5858 5.75 11.25 6.08579 11.25 6.5V7.26121C9.84837 7.38752 8.75 8.56549 8.75 10C8.75 11.4345 9.84838 12.6125 11.25 12.7388V15.225C10.6794 15.1092 10.25 14.6047 10.25 14C10.25 13.5858 9.91421 13.25 9.5 13.25C9.08579 13.25 8.75 13.5858 8.75 14C8.75 15.4345 9.84837 16.6125 11.25 16.7388V17.5C11.25 17.9142 11.5858 18.25 12 18.25C12.4142 18.25 12.75 17.9142 12.75 17.5V16.7388C14.1516 16.6125 15.25 15.4345 15.25 14C15.25 12.5655 14.1516 11.3875 12.75 11.2612V8.775C13.3206 8.89082 13.75 9.39526 13.75 10C13.75 10.4142 14.0858 10.75 14.5 10.75C14.9142 10.75 15.25 10.4142 15.25 10C15.25 8.56549 14.1516 7.38752 12.75 7.26121V6.5ZM10.25 10C10.25 9.39526 10.6794 8.89082 11.25 8.775V11.225C10.6794 11.1092 10.25 10.6047 10.25 10ZM13.75 14C13.75 14.6047 13.3206 15.1092 12.75 15.225V12.775C13.3206 12.8908 13.75 13.3953 13.75 14Z" fill="#292556"/>
</svg>
