<svg width="24" height="24" viewBox="0 0 24 24" fill="none" xmlns="http://www.w3.org/2000/svg">
<path fill-rule="evenodd" clip-rule="evenodd" d="M12 21.75C17.3848 21.75 21.75 17.3848 21.75 12C21.75 6.61522 17.3848 2.25 12 2.25C6.61522 2.25 2.25 6.61522 2.25 12C2.25 17.3848 6.61522 21.75 12 21.75ZM16.0303 12.9697L12.5303 9.46967C12.2374 9.17678 11.7626 9.17678 11.4697 9.46967L7.96967 12.9697C7.67678 13.2626 7.67678 13.7374 7.96967 14.0303C8.26256 14.3232 8.73744 14.3232 9.03033 14.0303L12 11.0607L14.9697 14.0303C15.2626 14.3232 15.7374 14.3232 16.0303 14.0303C16.3232 13.7374 16.3232 13.2626 16.0303 12.9697Z" fill="#292556"/>
</svg>
