<svg width="24" height="24" viewBox="0 0 24 24" fill="none" xmlns="http://www.w3.org/2000/svg">
<path fill-rule="evenodd" clip-rule="evenodd" d="M12 21.75C17.3848 21.75 21.75 17.3848 21.75 12C21.75 6.61522 17.3848 2.25 12 2.25C6.61522 2.25 2.25 6.61522 2.25 12C2.25 17.3848 6.61522 21.75 12 21.75ZM12.9697 7.71967C13.2626 7.42678 13.7374 7.42678 14.0303 7.71967C14.3232 8.01256 14.3232 8.48744 14.0303 8.78033L11.0607 11.75L14.0303 14.7197C14.3232 15.0126 14.3232 15.4874 14.0303 15.7803C13.7374 16.0732 13.2626 16.0732 12.9697 15.7803L9.46967 12.2803C9.32902 12.1397 9.25 11.9489 9.25 11.75C9.25 11.5511 9.32902 11.3603 9.46967 11.2197L12.9697 7.71967Z" fill="#292556"/>
</svg>
