<svg width="24" height="24" viewBox="0 0 24 24" fill="none" xmlns="http://www.w3.org/2000/svg">
<path fill-rule="evenodd" clip-rule="evenodd" d="M12 21.75C17.3848 21.75 21.75 17.3848 21.75 12C21.75 6.61522 17.3848 2.25 12 2.25C6.61522 2.25 2.25 6.61522 2.25 12C2.25 17.3848 6.61522 21.75 12 21.75ZM11.0303 7.71967C10.7374 7.42678 10.2626 7.42678 9.96967 7.71967C9.67678 8.01256 9.67678 8.48744 9.96967 8.78033L12.9393 11.75L9.96967 14.7197C9.67678 15.0126 9.67678 15.4874 9.96967 15.7803C10.2626 16.0732 10.7374 16.0732 11.0303 15.7803L14.5303 12.2803C14.671 12.1397 14.75 11.9489 14.75 11.75C14.75 11.5511 14.671 11.3603 14.5303 11.2197L11.0303 7.71967Z" fill="#292556"/>
</svg>
