<svg width="24" height="24" viewBox="0 0 24 24" fill="none" xmlns="http://www.w3.org/2000/svg">
<path fill-rule="evenodd" clip-rule="evenodd" d="M13 2.24609H11C8.1877 2.24609 6.78155 2.24609 5.79581 2.96228C5.47745 3.19358 5.19748 3.47354 4.96619 3.7919C4.25 4.77764 4.25 6.18379 4.25 8.99609V14.9961C4.25 17.8084 4.25 19.2145 4.96619 20.2003C5.19748 20.5186 5.47745 20.7986 5.79581 21.0299C6.78155 21.7461 8.1877 21.7461 11 21.7461H13C15.8123 21.7461 17.2184 21.7461 18.2042 21.0299C18.5226 20.7986 18.8025 20.5186 19.0338 20.2003C19.75 19.2145 19.75 17.8084 19.75 14.9961V8.99609C19.75 6.18379 19.75 4.77764 19.0338 3.7919C18.8025 3.47354 18.5226 3.19358 18.2042 2.96228C17.2184 2.24609 15.8123 2.24609 13 2.24609ZM12 10.25C12.4142 10.25 12.75 10.5858 12.75 11V13.25H15C15.4142 13.25 15.75 13.5858 15.75 14C15.75 14.4142 15.4142 14.75 15 14.75H12.75V17C12.75 17.4142 12.4142 17.75 12 17.75C11.5858 17.75 11.25 17.4142 11.25 17V14.75H9C8.58579 14.75 8.25 14.4142 8.25 14C8.25 13.5858 8.58579 13.25 9 13.25H11.25V11C11.25 10.5858 11.5858 10.25 12 10.25ZM15.75 4.6V3.75H8.25V4.6C8.25 5.91241 8.25 6.56861 8.58422 7.02862C8.69216 7.17719 8.82281 7.30784 8.97138 7.41578C9.43139 7.75 10.0876 7.75 11.4 7.75H12.6C13.9124 7.75 14.5686 7.75 15.0286 7.41578C15.1772 7.30784 15.3078 7.17719 15.4158 7.02862C15.75 6.56861 15.75 5.91241 15.75 4.6Z" fill="#292556"/>
</svg>
