<svg width="24" height="24" viewBox="0 0 24 24" fill="none" xmlns="http://www.w3.org/2000/svg">
<path d="M8.5 9.25C5.04767 9.25 2.25 12.0488 2.25 15.5C2.25 18.9512 5.04767 21.75 8.5 21.75H19C20.5193 21.75 21.75 20.5184 21.75 19.0003C21.75 17.4823 20.5193 16.2507 19 16.2507C18.7787 16.2507 18.5631 16.2769 18.3564 16.3265C17.7416 15.0961 16.4704 14.2505 15 14.2505C14.8748 14.2505 14.7509 14.2566 14.6286 14.2687C14.0567 11.4067 11.5308 9.25 8.5 9.25Z" fill="#292556"/>
<path d="M14.1716 4.17157L14.4747 4.47468M19.8284 9.82842L19.5253 9.52532M17 11L17 10.5556M17 3L17 3.44444M21 7L20.5556 6.99999M13 7H13.4444M19.8284 4.17157L19.5253 4.47467M14.1716 9.82842L14.4747 9.52532" stroke="#292556" stroke-width="1.5" stroke-linecap="round" stroke-linejoin="round"/>
<path d="M19 7C19 8.10457 18.1046 9 17 9C15.8954 9 15 8.10457 15 7C15 5.89543 15.8954 5 17 5C18.1046 5 19 5.89543 19 7Z" fill="#292556"/>
</svg>
