<svg width="24" height="24" viewBox="0 0 24 24" fill="none" xmlns="http://www.w3.org/2000/svg">
<path d="M8.5 2.25C5.04767 2.25 2.25 5.0507 2.25 8.50431C2.25 11.9579 5.04767 14.7586 8.5 14.7586H19C20.5193 14.7586 21.75 13.5261 21.75 12.007C21.75 10.488 20.5193 9.25548 19 9.25548C18.7787 9.25548 18.5631 9.28177 18.3564 9.33142C17.7416 8.10009 16.4704 7.25392 15 7.25392C14.8748 7.25392 14.7509 7.26008 14.6286 7.27214C14.0567 4.40817 11.5308 2.25 8.5 2.25Z" fill="#292556"/>
<path d="M7.5 16.941V18.9708M12 18.4634V21.0005M16.5 16.4336V18.4634" stroke="#292556" stroke-width="1.5" stroke-linecap="round" stroke-linejoin="round"/>
</svg>
