<svg width="24" height="24" viewBox="0 0 24 24" fill="none" xmlns="http://www.w3.org/2000/svg">
<path d="M12.75 15.75H15.25V16.9379C15.25 17.1011 15.25 17.1827 15.2745 17.2581C15.2826 17.283 15.2926 17.3072 15.3045 17.3305C15.3404 17.4011 15.3982 17.4588 15.5136 17.5743L16.3514 18.4121C16.2858 18.5959 16.25 18.7939 16.25 19C16.25 19.9665 17.0335 20.75 18 20.75C18.9665 20.75 19.75 19.9665 19.75 19C19.75 18.0335 18.9665 17.25 18 17.25C17.7939 17.25 17.5959 17.2858 17.4121 17.3514L17.0136 16.9529C16.8982 16.8375 16.8404 16.7798 16.8045 16.7092C16.7926 16.6859 16.7826 16.6617 16.7745 16.6367C16.75 16.5614 16.75 16.4798 16.75 16.3165V15.75H17.5C18.5865 15.75 19.6755 15.3349 20.5052 14.5052C22.1649 12.8455 22.1649 10.1545 20.5052 8.4948C19.7068 7.69643 18.6695 7.28247 17.6247 7.25188C17.3889 6.08994 16.8202 4.98134 15.9194 4.08058C13.4786 1.63981 9.52136 1.63981 7.08058 4.08058C5.66684 5.49432 5.07269 7.41635 5.29578 9.2565C4.5339 9.30418 3.78488 9.61893 3.2019 10.2019C1.9327 11.4711 1.9327 13.5289 3.2019 14.7981C3.83636 15.4326 4.66941 15.75 5.5 15.75H7.25L7.25 16.3165C7.25 16.4798 7.25 16.5614 7.22553 16.6367C7.21743 16.6617 7.20739 16.6859 7.1955 16.7092C7.15955 16.7798 7.10183 16.8375 6.9864 16.9529L6.58793 17.3514C6.40411 17.2858 6.2061 17.25 6 17.25C5.0335 17.25 4.25 18.0335 4.25 19C4.25 19.9665 5.0335 20.75 6 20.75C6.9665 20.75 7.75 19.9665 7.75 19C7.75 18.7939 7.71419 18.5959 7.64859 18.4121L8.4864 17.5743C8.60183 17.4588 8.65955 17.4011 8.6955 17.3305C8.70739 17.3072 8.71743 17.283 8.72553 17.2581C8.75 17.1827 8.75 17.1011 8.75 16.9379L8.75 15.75H11.25V17.378C10.3761 17.6869 9.75 18.5203 9.75 19.5C9.75 20.7426 10.7574 21.75 12 21.75C13.2426 21.75 14.25 20.7426 14.25 19.5C14.25 18.5203 13.6239 17.6869 12.75 17.378V15.75Z" fill="#292556"/>
</svg>
