<svg width="24" height="24" viewBox="0 0 24 24" fill="none" xmlns="http://www.w3.org/2000/svg">
<path d="M8.5 9.25C5.04767 9.25 2.25 12.0488 2.25 15.5C2.25 18.9512 5.04767 21.75 8.5 21.75H19C20.5193 21.75 21.75 20.5184 21.75 19.0003C21.75 17.4823 20.5193 16.2507 19 16.2507C18.7787 16.2507 18.5631 16.2769 18.3564 16.3265C17.7416 15.0961 16.4704 14.2505 15 14.2505C14.8748 14.2505 14.7509 14.2566 14.6286 14.2687C14.0567 11.4067 11.5308 9.25 8.5 9.25Z" fill="#292556"/>
<path d="M16.5811 2.80288V2.80288C16.7699 2.53858 16.5189 2.18459 16.207 2.27517V2.27517C14.3545 2.81322 13 4.52274 13 6.54953C13 9.00745 14.9925 11 17.4505 11C19.4773 11 21.1868 9.64545 21.7248 7.79296V7.79296C21.8154 7.48109 21.4614 7.23014 21.1971 7.41888V7.41888C20.6556 7.80557 19.993 8.03302 19.2763 8.03302C17.4486 8.03302 15.967 6.55138 15.967 4.72369C15.967 4.00698 16.1944 3.3444 16.5811 2.80288Z" fill="#292556"/>
</svg>
