<svg width="24" height="24" viewBox="0 0 24 24" fill="none" xmlns="http://www.w3.org/2000/svg">
<path d="M19.4738 8.01432C17.5092 3.32856 6.48134 3.32856 4.51677 8.01432V8.01432C4.08521 9.04365 4.9453 10 6.06144 10H17.9347C19.0583 10 19.9082 9.05047 19.4738 8.01432V8.01432Z" fill="#292556"/>
<path d="M5.883 12.6084L7.1537 17.9463C7.53831 19.562 7.73061 20.3698 8.25433 20.9115C8.42497 21.088 8.61848 21.2408 8.82969 21.366C9.47793 21.75 10.3187 21.75 12.0001 21.75C13.6816 21.75 14.5223 21.75 15.1705 21.366C15.3818 21.2408 15.5753 21.088 15.7459 20.9115C16.2696 20.3698 16.4619 19.562 16.8465 17.9463L18.1172 12.6084C18.2245 12.1576 18.2782 11.9322 18.1897 11.7655C18.1614 11.7123 18.1237 11.6645 18.0785 11.6247C17.9368 11.5 17.7051 11.5 17.2417 11.5H6.75854C6.29513 11.5 6.06342 11.5 5.92177 11.6247C5.8765 11.6645 5.83881 11.7123 5.81053 11.7655C5.72203 11.9322 5.77569 12.1576 5.883 12.6084Z" fill="#292556"/>
<path d="M12 3.65039L11.8796 2.91011C11.5167 2.96913 11.25 3.28263 11.25 3.65039H12ZM16.1207 3.74028C16.5296 3.67381 16.8071 3.28849 16.7406 2.87964C16.6742 2.4708 16.2889 2.19325 15.88 2.25972L16.1207 3.74028ZM12.75 10V3.65039H11.25V10H12.75ZM12.1204 4.39067L16.1207 3.74028L15.88 2.25972L11.8796 2.91011L12.1204 4.39067Z" fill="#292556"/>
</svg>
