<svg width="24" height="24" viewBox="0 0 24 24" fill="none" xmlns="http://www.w3.org/2000/svg">
<path d="M5.16119 20.7482C8.48823 22.8172 13.7935 21.6227 17.7081 17.7081C21.9751 13.4412 23.0102 7.52185 20.1097 4.31328C18.498 4.59978 17.5011 5.3763 16.7275 6.45937C15.9983 7.48024 15.4814 8.74444 14.8856 10.2018C14.7498 10.5339 14.6099 10.876 14.4625 11.2275C13.6872 13.0762 12.7323 15.093 11.0929 16.8885C9.68818 18.427 7.80648 19.7764 5.16119 20.7482Z" fill="#292556"/>
<path d="M3.82914 19.618C1.00467 16.3942 2.0552 10.5286 6.29189 6.29189C10.1379 2.44582 15.3264 1.22547 18.6623 3.14616C17.2772 3.63771 16.2839 4.49967 15.5069 5.58751C14.6658 6.76507 14.0671 8.23332 13.4694 9.69943C13.3401 10.0165 13.2108 10.3335 13.0792 10.6475C12.3197 12.4585 11.4448 14.2785 9.9852 15.8771C8.61888 17.3736 6.70923 18.7084 3.82914 19.618Z" fill="#292556"/>
</svg>
