<svg width="24" height="24" viewBox="0 0 24 24" fill="none" xmlns="http://www.w3.org/2000/svg">
<path fill-rule="evenodd" clip-rule="evenodd" d="M9.28231 2.41642C14.4854 1.4706 21.4753 4.55256 21.748 9.45998C22 13.9961 18 14.3961 16 14.2459C15.8105 14.2221 15.6439 14.2115 15.5 14.2561C15.0127 14.407 14.7846 14.9174 14.8 15.3435C14.8139 15.4137 14.9079 15.6534 15.15 15.9959C15.5171 16.5152 15.8405 16.7965 16.0526 16.981C16.0585 16.9861 16.0643 16.9911 16.07 16.9961C16.1017 17.0237 16.1324 17.0503 16.1623 17.0762C16.5047 17.3726 16.7369 17.5738 16.98 17.9961C17.2846 18.5254 17.25 18.9959 17.25 18.9959C17.25 20.6058 15 21.7459 12.1134 21.7459C8.68956 21.7459 3.23924 18.2826 2.41245 13.4547C1.56208 8.48915 4.07925 3.36223 9.28231 2.41642ZM10.485 8.92718C10.485 9.94084 9.63664 10.7626 8.59015 10.7626C7.54366 10.7626 6.69531 9.94084 6.69531 8.92718C6.69531 7.91353 7.54366 7.0918 8.59015 7.0918C9.63664 7.0918 10.485 7.91353 10.485 8.92718ZM17.523 8.92718C17.523 9.94084 16.6746 10.7626 15.6281 10.7626C14.5816 10.7626 13.7333 9.94084 13.7333 8.92718C13.7333 7.91353 14.5816 7.0918 15.6281 7.0918C16.6746 7.0918 17.523 7.91353 17.523 8.92718ZM9.13154 17.0553C10.178 17.0553 11.0264 16.2336 11.0264 15.2199C11.0264 14.2063 10.178 13.3845 9.13154 13.3845C8.08504 13.3845 7.2367 14.2063 7.2367 15.2199C7.2367 16.2336 8.08504 17.0553 9.13154 17.0553Z" fill="#292556"/>
</svg>
