<svg width="24" height="24" viewBox="0 0 24 24" fill="none" xmlns="http://www.w3.org/2000/svg">
<path fill-rule="evenodd" clip-rule="evenodd" d="M2.25 9.25008V12.1075C2.25 13.8429 3.65682 15.2497 5.39223 15.2497L4.80364 16.7211C4.688 17.0103 4.76303 17.3408 4.99217 17.5516C5.22131 17.7624 5.5569 17.8098 5.83541 17.6705L10.0005 15.2497H11.5005H12.5013C14.8366 15.2497 16.0043 15.2497 16.8741 14.7478C17.4449 14.4185 17.9188 13.9446 18.2481 13.3738C18.75 12.504 18.75 11.3363 18.75 9.00098V7.50098C18.75 7.03569 18.75 6.80304 18.7294 6.6072C18.544 4.84683 17.1529 3.45583 15.3925 3.27056C15.1966 3.24995 14.964 3.24997 14.4987 3.25L8.24917 3.25046C6.14948 3.25061 5.09963 3.25069 4.29763 3.6593C3.59186 4.01888 3.01808 4.59271 2.65855 5.2985C2.25 6.10053 2.25 7.15038 2.25 9.25008ZM11.5 9.49969C11.5 10.052 11.0523 10.4997 10.5 10.4997C9.94772 10.4997 9.5 10.052 9.5 9.49969C9.5 8.94741 9.94772 8.49969 10.5 8.49969C11.0523 8.49969 11.5 8.94741 11.5 9.49969ZM7.5 9.49969C7.5 10.052 7.05228 10.4997 6.5 10.4997C5.94772 10.4997 5.5 10.052 5.5 9.49969C5.5 8.94741 5.94772 8.49969 6.5 8.49969C7.05228 8.49969 7.5 8.94741 7.5 9.49969ZM14.5 10.4997C15.0523 10.4997 15.5 10.052 15.5 9.49969C15.5 8.94741 15.0523 8.49969 14.5 8.49969C13.9477 8.49969 13.5 8.94741 13.5 9.49969C13.5 10.052 13.9477 10.4997 14.5 10.4997Z" fill="#292556"/>
<path d="M18 9.25C18 7.14331 18 6.08996 17.4944 5.33329C17.2755 5.00572 16.9943 4.72447 16.6667 4.50559C15.91 4 14.8567 4 12.75 4H8.25C6.14331 4 5.08996 4 4.33329 4.50559C4.00572 4.72447 3.72447 5.00572 3.50559 5.33329C3 6.08996 3 7.14331 3 9.25V11C3 11.4644 3 11.6966 3.02567 11.8916C3.2029 13.2378 4.26222 14.2971 5.60842 14.4743C5.80337 14.5 6.03558 14.5 6.5 14.5V14.5L5.5 17L10.5 14.5H12.75C14.8567 14.5 15.91 14.5 16.6667 13.9944C16.9943 13.7755 17.2755 13.4943 17.4944 13.1667C18 12.41 18 11.3567 18 9.25V9.25Z" stroke="#292556" stroke-width="1.5" stroke-linecap="round" stroke-linejoin="round"/>
<path d="M18.25 17.501C18.2495 17.9152 18.5848 18.2514 18.999 18.252C19.4132 18.2525 19.7495 17.9171 19.75 17.5029L18.25 17.501ZM19 20.002L18.5199 20.5781C18.7434 20.7644 19.0546 20.8046 19.3181 20.6811C19.5817 20.5577 19.75 20.293 19.75 20.002L19 20.002ZM16 17.502L16.4801 16.9258C16.3454 16.8135 16.1755 16.752 16 16.752V17.502ZM19 17.5005V16.7505C18.5862 16.7505 18.2505 17.0857 18.25 17.4995L19 17.5005ZM20.25 10.502V15.517H21.75V10.502H20.25ZM19.4801 19.4258L16.4801 16.9258L15.5199 18.0781L18.5199 20.5781L19.4801 19.4258ZM16 16.752H13V18.252H16V16.752ZM19.75 17.5029L19.75 17.5015L18.25 17.4995L18.25 17.501L19.75 17.5029ZM18.25 17.5005L18.25 20.002L19.75 20.002L19.75 17.5005L18.25 17.5005ZM19.015 16.7505H19V18.2505H19.015V16.7505ZM20.25 15.517C20.25 16.1986 19.6972 16.751 19.0156 16.7505L19.0144 18.2505C20.5249 18.2516 21.75 17.0274 21.75 15.517H20.25ZM13 16.752C12.1716 16.752 11.5 16.0804 11.5 15.252H10C10 16.9088 11.3431 18.252 13 18.252V16.752ZM21.75 10.502C21.75 8.8451 20.4069 7.50195 18.75 7.50195V9.00195C19.5784 9.00195 20.25 9.67353 20.25 10.502H21.75Z" fill="#292556"/>
</svg>
