<svg width="24" height="24" viewBox="0 0 24 24" fill="none" xmlns="http://www.w3.org/2000/svg">
<path fill-rule="evenodd" clip-rule="evenodd" d="M21.75 12C21.75 17.3848 17.3848 21.75 12 21.75C6.61522 21.75 2.25 17.3848 2.25 12C2.25 6.61522 6.61522 2.25 12 2.25C17.3848 2.25 21.75 6.61522 21.75 12ZM11.75 7C11.75 6.58579 12.0858 6.25 12.5 6.25C15.3995 6.25 17.75 8.6005 17.75 11.5C17.75 11.9142 17.4142 12.25 17 12.25C16.5858 12.25 16.25 11.9142 16.25 11.5C16.25 9.42893 14.5711 7.75 12.5 7.75C12.0858 7.75 11.75 7.41421 11.75 7ZM12 14.75C13.5188 14.75 14.75 13.5188 14.75 12C14.75 10.4812 13.5188 9.25 12 9.25C10.4812 9.25 9.25 10.4812 9.25 12C9.25 13.5188 10.4812 14.75 12 14.75Z" fill="#292556"/>
</svg>
