<svg width="24" height="24" viewBox="0 0 24 24" fill="none" xmlns="http://www.w3.org/2000/svg">
<path fill-rule="evenodd" clip-rule="evenodd" d="M12.8103 2.50248C12.9024 2.69012 12.8126 2.94772 12.6329 3.46292L12.2761 4.48607C11.7608 6.25512 11.9652 7.22195 12.3174 7.6355C12.6185 7.98905 13.3149 8.23131 14.6953 7.74615L15.5433 7.38038C15.9366 7.2107 16.1333 7.12585 16.3053 7.17529C16.3604 7.19116 16.4125 7.21641 16.4591 7.24993C16.6043 7.35441 16.6594 7.56142 16.7695 7.97544L17.0118 8.88623C17.3884 10.189 17.6867 10.6689 18.0126 10.9009C18.3508 11.1417 18.8722 11.2333 20.1042 11.2478H20.8424C21.2345 11.2478 21.4305 11.2478 21.5644 11.3491C21.6075 11.3818 21.6451 11.4212 21.6756 11.4659C21.7702 11.6046 21.7606 11.8004 21.7414 12.1919L21.7039 12.9552L21.702 12.9737C21.2134 17.9022 17.0566 21.751 12 21.751C6.61522 21.751 2.25 17.3858 2.25 12.001C2.25 7.10318 5.86067 3.05003 10.5656 2.35586L10.5927 2.35187L11.717 2.269C12.2611 2.22889 12.5332 2.20884 12.6906 2.34642C12.7404 2.39 12.7811 2.44304 12.8103 2.50248ZM9 8.00024C9 8.55252 8.55228 9.00024 8 9.00024C7.44772 9.00024 7 8.55252 7 8.00024C7 7.44795 7.44772 7.00024 8 7.00024C8.55228 7.00024 9 7.44795 9 8.00024ZM8 13.0002C8 13.5525 7.55228 14.0002 7 14.0002C6.44772 14.0002 6 13.5525 6 13.0002C6 12.448 6.44772 12.0002 7 12.0002C7.55228 12.0002 8 12.448 8 13.0002ZM12 13.0002C12.5523 13.0002 13 12.5525 13 12.0002C13 11.448 12.5523 11.0002 12 11.0002C11.4477 11.0002 11 11.448 11 12.0002C11 12.5525 11.4477 13.0002 12 13.0002ZM12 17.0002C12 17.5525 11.5523 18.0002 11 18.0002C10.4477 18.0002 10 17.5525 10 17.0002C10 16.448 10.4477 16.0002 11 16.0002C11.5523 16.0002 12 16.448 12 17.0002ZM16 17.0002C16.5523 17.0002 17 16.5525 17 16.0002C17 15.448 16.5523 15.0002 16 15.0002C15.4477 15.0002 15 15.448 15 16.0002C15 16.5525 15.4477 17.0002 16 17.0002Z" fill="#292556"/>
</svg>
