<svg width="24" height="24" viewBox="0 0 24 24" fill="none" xmlns="http://www.w3.org/2000/svg">
<path d="M20 10V15.6C20 17.8498 20 18.9748 19.4271 19.7634C19.242 20.018 19.018 20.242 18.7634 20.4271C17.9748 21 16.8498 21 14.6 21H9" stroke="#292556" stroke-width="1.5" stroke-linecap="round" stroke-linejoin="round"/>
<path d="M11 2.25H10C7.1877 2.25 5.78155 2.25 4.79581 2.96619C4.47745 3.19748 4.19748 3.47745 3.96619 3.79581C3.25 4.78155 3.25 6.1877 3.25 9V12C3.25 14.8123 3.25 16.2184 3.96619 17.2042C4.19748 17.5226 4.47745 17.8025 4.79581 18.0338C5.78155 18.75 7.1877 18.75 10 18.75H11C13.8123 18.75 15.2184 18.75 16.2042 18.0338C16.5225 17.8025 16.8025 17.5226 17.0338 17.2042C17.75 16.2184 17.75 14.8123 17.75 12V9C17.75 6.1877 17.75 4.78155 17.0338 3.79581C16.8025 3.47745 16.5225 3.19748 16.2042 2.96619C15.2184 2.25 13.8123 2.25 11 2.25Z" fill="#292556"/>
</svg>
