<svg width="24" height="24" viewBox="0 0 24 24" fill="none" xmlns="http://www.w3.org/2000/svg">
<path fill-rule="evenodd" clip-rule="evenodd" d="M12 21.75C17.3848 21.75 21.75 17.3848 21.75 12C21.75 6.61522 17.3848 2.25 12 2.25C6.61522 2.25 2.25 6.61522 2.25 12C2.25 17.3848 6.61522 21.75 12 21.75ZM7.75 12C7.75 9.65279 9.65279 7.75 12 7.75C13.39 7.75 14.624 8.41646 15.4007 9.45043C15.6495 9.78162 16.1196 9.84844 16.4508 9.59967C16.782 9.35091 16.8488 8.88076 16.6 8.54957C15.5523 7.15464 13.8817 6.25 12 6.25C8.82436 6.25 6.25 8.82436 6.25 12C6.25 15.1756 8.82436 17.75 12 17.75C13.8817 17.75 15.5523 16.8454 16.6 15.4504C16.8488 15.1192 16.782 14.6491 16.4508 14.4003C16.1196 14.1516 15.6495 14.2184 15.4007 14.5496C14.624 15.5835 13.39 16.25 12 16.25C9.65279 16.25 7.75 14.3472 7.75 12Z" fill="#292556"/>
</svg>
