<svg width="24" height="24" viewBox="0 0 24 24" fill="none" xmlns="http://www.w3.org/2000/svg">
<path fill-rule="evenodd" clip-rule="evenodd" d="M21.122 11.8115L20.2128 17.5705C19.9343 19.3348 19.795 20.2169 19.2667 20.8166C19.095 21.0114 18.8965 21.181 18.6773 21.3202C18.0026 21.7486 17.1095 21.7486 15.3234 21.7486H8.67777C6.89166 21.7486 5.99861 21.7486 5.32387 21.3202C5.10462 21.181 4.9062 21.0114 4.73451 20.8166C4.20614 20.2169 4.06687 19.3348 3.78833 17.5705L2.87925 11.8125C2.48329 9.30441 2.2853 8.05038 2.52198 7.5583C2.90667 6.75847 3.8292 6.37327 4.66845 6.66205C5.18477 6.83972 5.93733 7.86218 7.44244 9.9071C7.55218 10.0562 7.60705 10.1307 7.66382 10.1577C7.75563 10.2014 7.86472 10.1851 7.93977 10.1165C7.98617 10.0741 8.01685 9.98677 8.07822 9.81212L8.07822 9.81211L9.02873 7.10686L9.02873 7.10685C10.1171 4.00912 10.6613 2.46025 11.5734 2.23067C11.8538 2.16009 12.1474 2.16009 12.4278 2.23067C13.3399 2.46024 13.8841 4.00911 14.9725 7.10683L15.9222 9.80972C15.9836 9.98448 16.0143 10.0719 16.0608 10.1143C16.1358 10.1827 16.2447 10.199 16.3365 10.1555C16.3933 10.1286 16.4482 10.054 16.5581 9.90488L16.5581 9.90486L16.5581 9.90485C18.0643 7.86006 18.8174 6.83767 19.3343 6.66029C20.173 6.37252 21.0943 6.75743 21.479 7.55628C21.7161 8.04865 21.5181 9.30294 21.122 11.8115ZM12.0002 12.7501C10.4815 12.7501 9.25024 13.9813 9.25024 15.5001C9.25024 17.0189 10.4815 18.2501 12.0002 18.2501C13.519 18.2501 14.7502 17.0189 14.7502 15.5001C14.7502 13.9813 13.519 12.7501 12.0002 12.7501Z" fill="#292556"/>
</svg>
