<svg width="24" height="24" viewBox="0 0 24 24" fill="none" xmlns="http://www.w3.org/2000/svg">
<path fill-rule="evenodd" clip-rule="evenodd" d="M17.25 12.75C14.7647 12.75 12.75 14.7647 12.75 17.25C12.75 19.7353 14.7647 21.75 17.25 21.75C19.7353 21.75 21.75 19.7353 21.75 17.25C21.75 14.7647 19.7353 12.75 17.25 12.75ZM18 15.25C18 14.8358 17.6642 14.5 17.25 14.5C16.8358 14.5 16.5 14.8358 16.5 15.25V16.5H15.25C14.8358 16.5 14.5 16.8358 14.5 17.25C14.5 17.6642 14.8358 18 15.25 18H16.5V19.25C16.5 19.6642 16.8358 20 17.25 20C17.6642 20 18 19.6642 18 19.25V18H19.25C19.6642 18 20 17.6642 20 17.25C20 16.8358 19.6642 16.5 19.25 16.5H18V15.25Z" fill="#292556"/>
<path fill-rule="evenodd" clip-rule="evenodd" d="M12 2.25C9.99037 2.25 8.13539 2.59764 6.75481 3.18932C6.06586 3.48459 5.4604 3.85544 5.01628 4.30544C4.56899 4.75866 4.25 5.33216 4.25 6V6.93272C4.53126 7.08856 4.85072 7.23937 5.20747 7.38207C6.90837 8.06243 9.30957 8.5 12 8.5C14.6904 8.5 17.0916 8.06243 18.7925 7.38207C19.1493 7.23937 19.4687 7.08856 19.75 6.93272V6C19.75 5.33216 19.431 4.75866 18.9837 4.30544C18.5396 3.85544 17.9341 3.48459 17.2452 3.18932C15.8646 2.59764 14.0096 2.25 12 2.25ZM4.25 11.1827V8.60573C4.3806 8.66394 4.51416 8.72029 4.65039 8.77478C6.56878 9.54214 9.16759 10 12 10C14.8324 10 17.4312 9.54214 19.3496 8.77478C19.4858 8.72029 19.6194 8.66394 19.75 8.60573V11.1827C19.5383 11.3 19.3049 11.4145 19.0503 11.5248C18.482 11.3462 17.8772 11.25 17.25 11.25C15.7478 11.25 14.3746 11.802 13.3221 12.7143C12.8908 12.7378 12.4494 12.75 12 12.75C9.30957 12.75 6.90837 12.3124 5.20747 11.6321C4.85072 11.4894 4.53126 11.3386 4.25 11.1827ZM12.0527 14.2499C12.0352 14.25 12.0176 14.25 12 14.25C9.16759 14.25 6.56878 13.7921 4.65039 13.0248C4.51416 12.9703 4.3806 12.9139 4.25 12.8557V15.4327C4.53126 15.5886 4.85072 15.7394 5.20747 15.8821C6.74984 16.499 8.86804 16.9163 11.2556 16.9888C11.2982 15.9939 11.5831 15.0618 12.0527 14.2499ZM11.3788 18.4926C8.78889 18.431 6.42765 17.9857 4.65039 17.2748C4.51416 17.2203 4.3806 17.1639 4.25 17.1057V18C4.25 18.6678 4.56899 19.2413 5.01628 19.6946C5.4604 20.1446 6.06586 20.5154 6.75481 20.8107C8.13539 21.4024 9.99037 21.75 12 21.75C12.4182 21.75 12.8298 21.7349 13.2317 21.7058C12.308 20.8723 11.6448 19.7556 11.3788 18.4926Z" fill="#292556"/>
</svg>
