<svg width="24" height="24" viewBox="0 0 24 24" fill="none" xmlns="http://www.w3.org/2000/svg">
<path d="M6.75481 3.18932C8.13539 2.59764 9.99037 2.25 12 2.25C14.0096 2.25 15.8646 2.59764 17.2452 3.18932C17.9341 3.48459 18.5396 3.85544 18.9837 4.30544C19.431 4.75866 19.75 5.33216 19.75 6V6.93272C19.4687 7.08856 19.1493 7.23937 18.7925 7.38207C17.0916 8.06243 14.6904 8.5 12 8.5C9.30957 8.5 6.90837 8.06243 5.20747 7.38207C4.85072 7.23937 4.53126 7.08856 4.25 6.93272V6C4.25 5.33216 4.56899 4.75866 5.01628 4.30544C5.4604 3.85544 6.06586 3.48459 6.75481 3.18932Z" fill="#292556"/>
<path d="M4.25 8.60573V11.1827C4.53126 11.3386 4.85072 11.4894 5.20747 11.6321C6.90837 12.3124 9.30957 12.75 12 12.75C14.6904 12.75 17.0916 12.3124 18.7925 11.6321C19.1493 11.4894 19.4687 11.3386 19.75 11.1827V8.60573C19.6194 8.66394 19.4858 8.72029 19.3496 8.77478C17.4312 9.54214 14.8324 10 12 10C9.16759 10 6.56878 9.54214 4.65039 8.77478C4.51416 8.72029 4.3806 8.66394 4.25 8.60573Z" fill="#292556"/>
<path d="M4.25 15.4327V12.8557C4.3806 12.9139 4.51416 12.9703 4.65039 13.0248C6.56878 13.7921 9.16759 14.25 12 14.25C14.8324 14.25 17.4312 13.7921 19.3496 13.0248C19.4858 12.9703 19.6194 12.9139 19.75 12.8557V15.4327C19.4687 15.5886 19.1493 15.7394 18.7925 15.8821C17.0916 16.5624 14.6904 17 12 17C9.30957 17 6.90837 16.5624 5.20747 15.8821C4.85072 15.7394 4.53126 15.5886 4.25 15.4327Z" fill="#292556"/>
<path d="M4.25 17.1057V18C4.25 18.6678 4.56899 19.2413 5.01628 19.6946C5.4604 20.1446 6.06586 20.5154 6.75481 20.8107C8.13539 21.4024 9.99037 21.75 12 21.75C14.0096 21.75 15.8646 21.4024 17.2452 20.8107C17.9341 20.5154 18.5396 20.1446 18.9837 19.6946C19.431 19.2413 19.75 18.6678 19.75 18V17.1057C19.6194 17.1639 19.4858 17.2203 19.3496 17.2748C17.4312 18.0421 14.8324 18.5 12 18.5C9.16759 18.5 6.56878 18.0421 4.65039 17.2748C4.51416 17.2203 4.3806 17.1639 4.25 17.1057Z" fill="#292556"/>
</svg>
