<svg width="24" height="24" viewBox="0 0 24 24" fill="none" xmlns="http://www.w3.org/2000/svg">
<path fill-rule="evenodd" clip-rule="evenodd" d="M19.4513 12.7668L15.9305 17.3658C14.3376 19.4466 13.5411 20.487 12.5018 20.6799C12.1701 20.7414 11.83 20.7414 11.4983 20.6799C10.459 20.487 9.66252 19.4466 8.06958 17.3658L4.54879 12.7668C3.47181 11.36 2.93331 10.6566 2.86103 9.86579C2.83753 9.60876 2.85034 9.34969 2.89907 9.09622C3.04901 8.31642 3.65426 7.66956 4.86476 6.37584L6.08846 5.06801C6.7301 4.38226 7.05092 4.03938 7.45152 3.8251C7.58393 3.75428 7.72192 3.69441 7.8641 3.64612C8.29427 3.5 8.76383 3.5 9.70296 3.5H14.2971C15.2363 3.5 15.7058 3.5 16.136 3.64612C16.2782 3.69441 16.4162 3.75428 16.5486 3.8251C16.9492 4.03938 17.27 4.38226 17.9116 5.06801L19.1353 6.37584C20.3458 7.66956 20.9511 8.31642 21.101 9.09622C21.1497 9.34969 21.1626 9.60876 21.1391 9.86579C21.0668 10.6566 20.5283 11.36 19.4513 12.7668ZM10.6461 6.5L10.5394 6.49994C9.92538 6.49942 9.44087 6.49902 8.98944 6.66027C8.84126 6.71321 8.6979 6.77876 8.56094 6.85621C8.14366 7.09216 7.82703 7.4589 7.42576 7.92366L7.35597 8.00444L6.43277 9.07189C6.20166 9.33911 6.18838 9.73139 6.40089 10.0136L8.40089 12.6699C8.65004 13.0008 9.12027 13.0671 9.45117 12.8179C9.78207 12.5688 9.84835 12.0985 9.5992 11.7676L7.96343 9.59511L8.49051 8.98567C8.99571 8.40154 9.1372 8.25356 9.29927 8.16191C9.36153 8.12671 9.42669 8.09691 9.49404 8.07285C9.66938 8.01022 9.87387 8 10.6461 8H12C12.4143 8 12.75 7.66421 12.75 7.25C12.75 6.83579 12.4143 6.5 12 6.5H10.6461Z" fill="#292556"/>
</svg>
