<svg width="24" height="24" viewBox="0 0 24 24" fill="none" xmlns="http://www.w3.org/2000/svg">
<path fill-rule="evenodd" clip-rule="evenodd" d="M8.77099 3.78785C9.10364 3.68119 9.46588 3.8183 9.64452 4.1185L9.91156 4.56725C10.1988 5.04989 10.7455 5.30914 11.3062 5.27766C11.5445 5.26429 11.7788 5.25758 12 5.25758C12.2212 5.25758 12.4555 5.26429 12.6938 5.27766C13.2545 5.30914 13.8012 5.04989 14.0884 4.56725L14.3555 4.1185C14.5341 3.8183 14.8964 3.68119 15.229 3.78785C16.332 4.14153 18.2528 4.82083 19.3197 5.32358C19.4637 5.39143 19.5823 5.50332 19.6585 5.64306C21.0827 8.25571 21.75 11.376 21.75 14.5024C21.75 15.3194 21.6148 16.3768 21.5225 17.0973C21.5074 17.2153 21.4645 17.328 21.3972 17.4261C20.4046 18.8739 18.7546 19.7083 17.2369 20.2136C16.9309 20.3155 16.594 20.2103 16.4003 19.9524L15.9343 19.3319C15.8867 19.2685 15.8629 19.2369 15.85 19.2205C15.4383 18.6986 14.9201 18.4858 14.2605 18.5677C14.2398 18.5703 14.172 18.5804 14.0366 18.6005C13.3717 18.6992 12.6917 18.7503 12 18.7503C11.3083 18.7503 10.6283 18.6992 9.96343 18.6005L9.96302 18.6004C9.82783 18.5803 9.76022 18.5703 9.73953 18.5677C9.07991 18.4858 8.56169 18.6986 8.15 19.2205C8.13707 19.2369 8.11328 19.2685 8.0657 19.3319L7.59972 19.9524C7.40603 20.2103 7.06911 20.3155 6.76306 20.2136C5.24539 19.7083 3.59541 18.8739 2.6028 17.4261C2.53553 17.328 2.49256 17.2153 2.47745 17.0973C2.38522 16.3768 2.25 15.3194 2.25 14.5024C2.25 11.376 2.91727 8.25571 4.34149 5.64306C4.41767 5.50332 4.53632 5.39143 4.6803 5.32358C5.74721 4.82083 7.66801 4.14153 8.77099 3.78785ZM8.5 10.002C9.88071 10.002 11 11.1212 11 12.502C11 13.8827 9.88071 15.002 8.5 15.002C7.11929 15.002 6 13.8827 6 12.502C6 11.1212 7.11929 10.002 8.5 10.002ZM15.5 10.002C16.8807 10.002 18 11.1212 18 12.502C18 13.8827 16.8807 15.002 15.5 15.002C14.1193 15.002 13 13.8827 13 12.502C13 11.1212 14.1193 10.002 15.5 10.002Z" fill="#292556"/>
</svg>
