<svg width="24" height="24" viewBox="0 0 24 24" fill="none" xmlns="http://www.w3.org/2000/svg">
<path d="M4.31268 5.5C4.10909 4.70628 4 3.86747 4 3M4.31268 5.5H19.6873M4.31268 5.5C4.62222 6.70677 5.1502 7.80934 5.84534 8.75M20 3C20 3.86747 19.8909 4.70628 19.6873 5.5M19.6873 5.5C19.3778 6.70677 18.8498 7.80934 18.1547 8.75M18.1547 8.75C16.6872 10.7357 14.4748 12 12 12M18.1547 8.75H5.84534M12 12C9.52516 12 7.31279 10.7357 5.84534 8.75M12 12C14.4748 12 16.6872 13.2643 18.1547 15.25M12 12C9.52516 12 7.31279 13.2643 5.84534 15.25M4.31268 18.5C4.10909 19.2937 4 20.1325 4 21M4.31268 18.5H19.6873M4.31268 18.5C4.62222 17.2932 5.1502 16.1907 5.84534 15.25M20 21C20 20.1325 19.8909 19.2937 19.6873 18.5M19.6873 18.5C19.3778 17.2932 18.8498 16.1907 18.1547 15.25M18.1547 15.25H5.84534" stroke="#292556" stroke-width="1.5" stroke-linecap="round" stroke-linejoin="round"/>
</svg>
