<svg width="24" height="24" viewBox="0 0 24 24" fill="none" xmlns="http://www.w3.org/2000/svg">
<path d="M7.75 9C7.75 10.5188 6.51878 11.75 5 11.75C3.48122 11.75 2.25 10.5188 2.25 9C2.25 7.48122 3.48122 6.25 5 6.25C6.51878 6.25 7.75 7.48122 7.75 9Z" fill="#292556"/>
<path d="M21.75 9C21.75 10.5188 20.5188 11.75 19 11.75C17.4812 11.75 16.25 10.5188 16.25 9C16.25 7.48122 17.4812 6.25 19 6.25C20.5188 6.25 21.75 7.48122 21.75 9Z" fill="#292556"/>
<path d="M14.75 5C14.75 6.51878 13.5188 7.75 12 7.75C10.4812 7.75 9.25 6.51878 9.25 5C9.25 3.48122 10.4812 2.25 12 2.25C13.5188 2.25 14.75 3.48122 14.75 5Z" fill="#292556"/>
<path d="M8.69472 10.9688C9.4502 9.89145 10.6834 9.25 11.9993 9.25V9.25C13.3159 9.25 14.5498 9.89222 15.3051 10.9706L16.915 13.2692C19.4314 16.8619 16.8612 21.8 12.4749 21.8H11.5233C7.13498 21.8 4.56474 16.8585 7.08423 13.2655L8.69472 10.9688Z" fill="#292556"/>
</svg>
