<svg width="24" height="24" viewBox="0 0 24 24" fill="none" xmlns="http://www.w3.org/2000/svg">
<path fill-rule="evenodd" clip-rule="evenodd" d="M20.2939 17.1283C18.5751 19.9023 15.5033 21.75 12 21.75C8.305 21.75 5.09007 19.6946 3.4362 16.6647L4.4851 16.4055C5.25797 16.2144 5.57033 16.1392 5.87399 16.1109C6.54675 16.0482 7.22476 16.1467 7.8518 16.3985C8.13482 16.5121 8.41283 16.6731 9.09929 17.0764L9.15866 17.1113L9.15868 17.1113C9.83265 17.5072 10.2472 17.7508 10.6844 17.9197C11.6126 18.2783 12.618 18.3899 13.6022 18.2435C14.0659 18.1746 14.5237 18.0278 15.2681 17.7892L15.3337 17.7682L16.4362 17.415C17.4302 17.0965 17.8311 16.9716 18.2376 16.9266C18.3783 16.9111 18.5197 16.9025 18.6613 16.9011C19.0404 16.8972 19.4232 16.962 20.2939 17.1283ZM21.0078 15.7378L20.791 15.6962L20.7114 15.6809C19.7907 15.5042 19.2232 15.3952 18.6459 15.4011C18.4543 15.4031 18.263 15.4147 18.0726 15.4357C17.4988 15.4992 16.9485 15.6756 16.0557 15.9617L16.0557 15.9617L16.0557 15.9618L15.9785 15.9865L14.876 16.3398C14.0457 16.6058 13.7097 16.711 13.3816 16.7598C12.6541 16.868 11.911 16.7855 11.225 16.5205C10.9155 16.4009 10.6108 16.2246 9.85904 15.783L9.80504 15.7513C9.18928 15.3895 8.81044 15.1669 8.4106 15.0064C7.56226 14.6659 6.64495 14.5325 5.73475 14.6174C5.30576 14.6574 4.87922 14.7628 4.18594 14.9343L4.12514 14.9493L2.82002 15.2719L2.83631 15.3378C2.45695 14.2966 2.25 13.1725 2.25 12C2.25 6.61522 6.61522 2.25 12 2.25C17.3848 2.25 21.75 6.61522 21.75 12C21.75 13.3242 21.486 14.5867 21.0078 15.7378ZM10.75 6.75C10.75 7.16421 10.4142 7.5 10 7.5C9.58579 7.5 9.25 7.16421 9.25 6.75C9.25 6.33579 9.58579 6 10 6C10.4142 6 10.75 6.33579 10.75 6.75ZM6.75 11.75C6.75 12.1642 6.41421 12.5 6 12.5C5.58579 12.5 5.25 12.1642 5.25 11.75C5.25 11.3358 5.58579 11 6 11C6.41421 11 6.75 11.3358 6.75 11.75ZM16 8.5C16.4142 8.5 16.75 8.16421 16.75 7.75C16.75 7.33579 16.4142 7 16 7C15.5858 7 15.25 7.33579 15.25 7.75C15.25 8.16421 15.5858 8.5 16 8.5ZM18.75 13.75C18.75 14.1642 18.4142 14.5 18 14.5C17.5858 14.5 17.25 14.1642 17.25 13.75C17.25 13.3358 17.5858 13 18 13C18.4142 13 18.75 13.3358 18.75 13.75ZM12 14.5C13.3807 14.5 14.5 13.3807 14.5 12C14.5 10.6193 13.3807 9.5 12 9.5C10.6193 9.5 9.5 10.6193 9.5 12C9.5 13.3807 10.6193 14.5 12 14.5Z" fill="#292556"/>
</svg>
