<svg width="24" height="24" viewBox="0 0 24 24" fill="none" xmlns="http://www.w3.org/2000/svg">
<path fill-rule="evenodd" clip-rule="evenodd" d="M2.25 9.45C2.25 6.45021 2.25 4.95032 3.01393 3.89886C3.26065 3.55928 3.55928 3.26065 3.89886 3.01393C4.95032 2.25 6.45021 2.25 9.45 2.25H14.55C17.5498 2.25 19.0497 2.25 20.1011 3.01393C20.4407 3.26065 20.7393 3.55928 20.9861 3.89886C21.75 4.95032 21.75 6.45021 21.75 9.45V14.55C21.75 17.5498 21.75 19.0497 20.9861 20.1011C20.7393 20.4407 20.4407 20.7393 20.1011 20.9861C19.0497 21.75 17.5498 21.75 14.55 21.75H9.45C6.45021 21.75 4.95032 21.75 3.89886 20.9861C3.55928 20.7393 3.26065 20.4407 3.01393 20.1011C2.25 19.0497 2.25 17.5498 2.25 14.55V9.45ZM12.8738 9.18557C13.1855 9.45833 13.2171 9.93215 12.9443 10.2439L10.1901 13.3916L10.1693 13.4154L10.1693 13.4154C10.0356 13.5683 9.89614 13.7277 9.76375 13.8477C9.61581 13.9819 9.3953 14.1447 9.08653 14.1883C8.93815 14.2092 8.78722 14.2036 8.64084 14.1715C8.33623 14.1048 8.12859 13.9258 7.99117 13.7809C7.86819 13.6513 7.74117 13.4818 7.61935 13.3193L7.61935 13.3193L7.61934 13.3193L7.60038 13.294L6.77988 12.2C6.53135 11.8686 6.59851 11.3985 6.92988 11.15C7.26125 10.9015 7.73135 10.9686 7.97988 11.3L8.80038 12.394C8.8479 12.4574 8.88846 12.5114 8.92477 12.5589C8.96454 12.5143 9.00906 12.4634 9.06121 12.4038L11.8155 9.25612C12.0882 8.94439 12.562 8.91281 12.8738 9.18557ZM17.1943 10.9939C17.4671 10.6822 17.4355 10.2083 17.1238 9.93557C16.812 9.66281 16.3382 9.69439 16.0655 10.0061L13.3112 13.1538C13.2591 13.2134 13.2145 13.2643 13.1748 13.3089C13.1385 13.2614 13.0979 13.2074 13.0504 13.144L12.9799 13.05C12.7314 12.7186 12.2613 12.6515 11.9299 12.9C11.5985 13.1485 11.5314 13.6186 11.7799 13.95L11.8504 14.044L11.8693 14.0693L11.8694 14.0693C11.9912 14.2318 12.1182 14.4013 12.2412 14.5309C12.3786 14.6758 12.5862 14.8548 12.8908 14.9215C13.0372 14.9536 13.1881 14.9592 13.3365 14.9383C13.6453 14.8947 13.8658 14.7319 14.0138 14.5977C14.1461 14.4777 14.2855 14.3183 14.4192 14.1654L14.4193 14.1654L14.4401 14.1416L17.1943 10.9939Z" fill="#292556"/>
</svg>
