<svg width="24" height="24" viewBox="0 0 24 24" fill="none" xmlns="http://www.w3.org/2000/svg">
<path fill-rule="evenodd" clip-rule="evenodd" d="M12 21.75C17.3848 21.75 21.75 17.3848 21.75 12C21.75 6.61522 17.3848 2.25 12 2.25C6.61522 2.25 2.25 6.61522 2.25 12C2.25 17.3848 6.61522 21.75 12 21.75ZM13.1602 10.0303C13.4531 9.73744 13.4531 9.26256 13.1602 8.96967C12.8673 8.67678 12.3924 8.67678 12.0996 8.96967L8.62988 12.4393L7.41021 11.2197C7.11732 10.9268 6.64245 10.9268 6.34955 11.2197C6.05666 11.5126 6.05666 11.9874 6.34955 12.2803L8.09955 14.0303C8.39245 14.3232 8.86732 14.3232 9.16021 14.0303L13.1602 10.0303ZM17.6602 11.5303C17.9531 11.2374 17.9531 10.7626 17.6602 10.4697C17.3673 10.1768 16.8924 10.1768 16.5996 10.4697L13.1299 13.9393L12.6602 13.4697C12.3673 13.1768 11.8924 13.1768 11.5996 13.4697C11.3067 13.7626 11.3067 14.2374 11.5996 14.5303L12.5996 15.5303C12.8924 15.8232 13.3673 15.8232 13.6602 15.5303L17.6602 11.5303Z" fill="#292556"/>
</svg>
