<svg width="24" height="24" viewBox="0 0 24 24" fill="none" xmlns="http://www.w3.org/2000/svg">
<path fill-rule="evenodd" clip-rule="evenodd" d="M13.2 2.25H10.8C7.23775 2.25 5.45663 2.25 4.20802 3.15717C3.80477 3.45015 3.45015 3.80477 3.15717 4.20802C2.25 5.45663 2.25 7.23775 2.25 10.8V13.2C2.25 16.7622 2.25 18.5434 3.15717 19.792C3.45015 20.1952 3.80477 20.5499 4.20802 20.8428C5.45663 21.75 7.23775 21.75 10.8 21.75H13.2C16.7622 21.75 18.5434 21.75 19.792 20.8428C20.1952 20.5499 20.5499 20.1952 20.8428 19.792C21.75 18.5434 21.75 16.7622 21.75 13.2V10.8C21.75 7.23775 21.75 5.45663 20.8428 4.20802C20.5499 3.80477 20.1952 3.45015 19.792 3.15717C18.5434 2.25 16.7622 2.25 13.2 2.25ZM6.25 17.5C6.25 17.0858 6.58579 16.75 7 16.75H17C17.4142 16.75 17.75 17.0858 17.75 17.5C17.75 17.9142 17.4142 18.25 17 18.25H7C6.58579 18.25 6.25 17.9142 6.25 17.5ZM8.06529 10.9698C8.21504 10.7637 8.62186 10.7637 9.43549 10.7637H10.3329L10.8739 6.49207C10.9457 5.92508 11.428 5.5 11.9995 5.5C12.5711 5.5 13.0534 5.92508 13.1252 6.49207L13.6662 10.7637H14.5636C15.3772 10.7637 15.784 10.7637 15.9338 10.9698C15.9802 11.0336 16.0108 11.1075 16.0231 11.1854C16.063 11.4371 15.7753 11.7247 15.2 12.3L15.2 12.3L12.6359 14.8641C12.3708 15.1292 12.2382 15.2618 12.0778 15.2872C12.0259 15.2954 11.9731 15.2954 11.9213 15.2872C11.7609 15.2618 11.6283 15.1292 11.3631 14.8641L11.3631 14.8641L8.79909 12.3001C8.22377 11.7247 7.9361 11.4371 7.97596 11.1854C7.9883 11.1075 8.01891 11.0336 8.06529 10.9698Z" fill="#292556"/>
</svg>
