<svg width="24" height="24" viewBox="0 0 24 24" fill="none" xmlns="http://www.w3.org/2000/svg">
<path d="M12.9968 8.23926C11.6601 6.23488 9.96064 4.49339 7.99198 3.10844C9.21356 2.55699 10.5694 2.25 11.9983 2.25C13.8022 2.25 15.4902 2.73938 16.9385 3.5926C15.8965 5.35806 14.5601 6.92953 12.9968 8.23926Z" fill="#292556"/>
<path d="M13.7877 9.5318C15.5258 8.10924 17.0128 6.391 18.1718 4.45354C19.8899 5.86113 21.1175 7.84278 21.5627 10.1039C19.1756 10.217 16.9002 10.7615 14.8137 11.6615C14.5142 10.928 14.1711 10.2171 13.7877 9.5318Z" fill="#292556"/>
<path d="M15.3272 13.0738C17.3032 12.2099 19.4655 11.6921 21.7384 11.5975C21.7438 11.7304 21.7465 11.864 21.7465 11.9983C21.7465 15.891 19.4644 19.2522 16.1637 20.8145C16.2193 20.216 16.2477 19.6098 16.2477 18.9971C16.2477 16.9325 15.9251 14.942 15.3272 13.0738Z" fill="#292556"/>
<path d="M14.7477 18.9971C14.7477 19.8119 14.6933 20.6136 14.5881 21.3989C13.7641 21.6254 12.8959 21.7465 11.9983 21.7465C10.1943 21.7465 8.50632 21.2571 7.058 20.4039C8.71012 17.6047 11.1021 15.2937 13.9642 13.7403C14.4734 15.4018 14.7477 17.1668 14.7477 18.9971Z" fill="#292556"/>
<path d="M13.458 12.3099C10.2976 13.9754 7.653 16.4867 5.82475 19.543C4.10662 18.1354 2.87902 16.1537 2.43383 13.8926C6.19419 13.7145 9.67571 12.4659 12.5786 10.4453C12.9061 11.0469 13.2001 11.6692 13.458 12.3099Z" fill="#292556"/>
<path d="M11.8048 9.15594C9.08332 11.0733 5.80453 12.2514 2.25808 12.399C2.25271 12.2661 2.25 12.1325 2.25 11.9983C2.25 8.64365 3.94401 5.68411 6.52636 3.92935C8.62871 5.28459 10.4294 7.06796 11.8048 9.15594Z" fill="#292556"/>
</svg>
