<svg width="24" height="24" viewBox="0 0 24 24" fill="none" xmlns="http://www.w3.org/2000/svg">
<path fill-rule="evenodd" clip-rule="evenodd" d="M18.166 9.3281C17.5301 7.94207 16.689 6.6077 15.8593 5.45176L15.058 4.51451C13.8052 3.04922 13.1788 2.31657 12.3862 2.17546C12.1318 2.13018 11.8716 2.12903 11.6168 2.17208C10.823 2.30624 10.1902 3.03337 8.92463 4.48762L8.14264 5.38617C6.50782 7.64278 4.75 10.7151 4.75 13.6109C4.75 16.4404 5.7527 18.4926 7.19458 19.8337C8.61973 21.1592 10.4311 21.7498 12 21.7498C15.1605 21.7498 19.25 19.1735 19.25 13.6109C19.25 12.1838 18.7991 10.7077 18.166 9.3281ZM9 13.2495C8.58579 13.2495 8.25 13.5853 8.25 13.9995C8.25 14.4137 8.58579 14.7495 9 14.7495H15C15.4142 14.7495 15.75 14.4137 15.75 13.9995C15.75 13.5853 15.4142 13.2495 15 13.2495H9Z" fill="#292556"/>
</svg>
