<svg width="24" height="24" viewBox="0 0 24 24" fill="none" xmlns="http://www.w3.org/2000/svg">
<path d="M19.315 4.6656C16.7583 2.10891 11.9592 1.35466 8.96707 5.66926C7.68236 7.9118 6.72349 10.9135 7.17102 13.2779L6.22633 14.2226C5.28387 13.7306 4.0936 13.8804 3.30206 14.672C2.32575 15.6483 2.32575 17.2312 3.30206 18.2075C3.78385 18.6893 4.41338 18.9334 5.04482 18.9396C5.0511 19.5711 5.29513 20.2006 5.77693 20.6824C6.75324 21.6587 8.33615 21.6587 9.31247 20.6824C10.104 19.8908 10.2538 18.7006 9.76187 17.7581L10.7204 16.7996C13.0547 17.2068 15.994 16.2065 18.2257 14.9279C22.7945 12.3102 21.8717 7.22229 19.315 4.6656Z" fill="#292556"/>
</svg>
