<svg width="24" height="24" viewBox="0 0 24 24" fill="none" xmlns="http://www.w3.org/2000/svg">
<path fill-rule="evenodd" clip-rule="evenodd" d="M16.8798 11.4754C16.6233 11.3273 16.3767 11.0807 15.8835 10.5875L15.1818 9.88585L15.1817 9.88601L9.87852 15.1891L10.5802 15.8908C11.0734 16.384 11.32 16.6306 11.4681 16.8871C11.87 17.5833 11.87 18.441 11.4681 19.1371C11.32 19.3937 11.0734 19.6403 10.5802 20.1335L10.5802 20.1335C10.087 20.6267 9.8404 20.8732 9.58387 21.0214C8.88772 21.4233 8.03003 21.4233 7.33387 21.0214C7.07734 20.8732 6.83074 20.6267 6.33755 20.1335L5.63588 19.4318L5.63572 19.432L5.1047 19.963C4.8118 20.2559 4.33693 20.2559 4.04404 19.963C3.75114 19.6701 3.75114 19.1952 4.04404 18.9023L4.57506 18.3713L4.57522 18.3711L3.86268 17.6586L3.86267 17.6586L3.86266 17.6586C3.36948 17.1654 3.12289 16.9188 2.97478 16.6623C2.57286 15.9661 2.57286 15.1084 2.97478 14.4123C3.12289 14.1557 3.36948 13.9091 3.86267 13.416L3.86268 13.4159C4.35587 12.9228 4.60247 12.6762 4.859 12.528C5.55515 12.1261 6.41285 12.1261 7.109 12.528C7.36553 12.6762 7.61213 12.9228 8.10532 13.4159L8.81786 14.1285L14.121 8.82535L14.1212 8.82519L13.4086 8.11264L13.4086 8.11264C12.9154 7.61945 12.6688 7.37286 12.5207 7.11632C12.1188 6.42017 12.1188 5.56248 12.5207 4.86632C12.6688 4.60979 12.9154 4.3632 13.4086 3.87L13.4086 3.86999L13.4086 3.86997L13.4087 3.86996C13.9018 3.3768 14.1484 3.13021 14.4049 2.98211C15.1011 2.58018 15.9588 2.58018 16.6549 2.98211C16.9115 3.13021 17.1581 3.37681 17.6512 3.86999L17.6513 3.87L18.3638 4.58255L18.8933 4.05307C19.1862 3.76018 19.661 3.76018 19.9539 4.05307C20.2468 4.34596 20.2468 4.82084 19.9539 5.11373L19.4245 5.64321L20.1261 6.34488C20.6193 6.83807 20.8659 7.08466 21.014 7.3412C21.416 8.03735 21.416 8.89504 21.014 9.5912C20.8659 9.84773 20.6193 10.0943 20.1261 10.5875L20.1261 10.5875C19.6329 11.0807 19.3863 11.3273 19.1298 11.4754C18.4337 11.8773 17.576 11.8773 16.8798 11.4754Z" fill="#292556"/>
</svg>
