<svg width="24" height="24" viewBox="0 0 24 24" fill="none" xmlns="http://www.w3.org/2000/svg">
<path d="M5.65086 5.98136V5.98136C8.3482 3.88352 9.69687 2.8346 11.237 2.62832C11.7437 2.56045 12.2572 2.56046 12.764 2.62835C14.3041 2.83471 15.6526 3.88358 18.3495 5.98133V5.98133C19.5046 6.87976 20.0821 7.32897 20.515 7.87788C20.7268 8.14638 20.9135 8.43247 21.0736 8.73253L17.936 10.9289C15.3946 12.708 14.1239 13.5975 12.7013 13.7722C12.236 13.8293 11.7654 13.8293 11.3001 13.7722C9.8775 13.5976 8.60677 12.7081 6.06531 10.9292L2.92676 8.73231C3.08679 8.43231 3.27356 8.14627 3.48528 7.87782C3.91819 7.32892 4.49575 6.87973 5.65086 5.98136Z" fill="#292556"/>
<path d="M2.25 10.0898V11.9932C2.25 15.7339 2.25 17.6043 3.08709 18.9808C3.56546 19.7675 4.22574 20.4277 5.01239 20.9061C6.38893 21.7432 8.25928 21.7432 12 21.7432V21.7432C15.7407 21.7432 17.6111 21.7432 18.9876 20.9061C19.7743 20.4277 20.4345 19.7675 20.9129 18.9808C21.75 17.6043 21.75 15.7339 21.75 11.9932V10.0899L17.9357 12.76C15.3944 14.5391 14.1237 15.4286 12.701 15.6032C12.2357 15.6604 11.7652 15.6604 11.2999 15.6033C9.87725 15.4287 8.60652 14.5392 6.06506 12.7603L2.25 10.0898Z" fill="#292556"/>
</svg>
