<svg width="24" height="24" viewBox="0 0 24 24" fill="none" xmlns="http://www.w3.org/2000/svg">
<path fill-rule="evenodd" clip-rule="evenodd" d="M12 21.75C17.3848 21.75 21.75 17.3848 21.75 12C21.75 6.61522 17.3848 2.25 12 2.25C6.61522 2.25 2.25 6.61522 2.25 12C2.25 17.3848 6.61522 21.75 12 21.75ZM13 15C13 14.4477 12.5523 14 12 14C11.4477 14 11 14.4477 11 15C11 15.5523 11.4477 16 12 16C12.5523 16 13 15.5523 13 15ZM12 12.5C12.4142 12.5 12.75 12.1642 12.75 11.75V8.75C12.75 8.33579 12.4142 8 12 8C11.5858 8 11.25 8.33579 11.25 8.75V11.75C11.25 12.1642 11.5858 12.5 12 12.5Z" fill="#292556"/>
</svg>
