<svg width="24" height="24" viewBox="0 0 24 24" fill="none" xmlns="http://www.w3.org/2000/svg">
<path fill-rule="evenodd" clip-rule="evenodd" d="M19.4203 13.3258L16.3037 7.92021C14.6282 5.01421 13.7905 3.5612 12.5935 3.3057C12.2167 3.22528 11.8272 3.22492 11.4503 3.30465C10.2529 3.55794 9.41245 5.0094 7.73163 7.91231L4.60175 13.3179C2.91772 16.2263 2.07571 17.6805 2.45345 18.846C2.57233 19.2129 2.76704 19.5506 3.02492 19.8373C3.84429 20.7482 5.52469 20.7482 8.88548 20.7482H15.132C18.4865 20.7482 20.1638 20.7482 20.983 19.8388C21.2409 19.5525 21.4357 19.2153 21.5549 18.8489C21.9336 17.685 21.0958 16.2319 19.4203 13.3258ZM12.9999 16.5029C12.9999 15.9506 12.5522 15.5029 11.9999 15.5029C11.4477 15.5029 10.9999 15.9506 10.9999 16.5029C10.9999 17.0552 11.4477 17.5029 11.9999 17.5029C12.5522 17.5029 12.9999 17.0552 12.9999 16.5029ZM12.7499 13.2529C12.7499 13.6671 12.4142 14.0029 11.9999 14.0029C11.5857 14.0029 11.2499 13.6671 11.2499 13.2529V9.75293C11.2499 9.33872 11.5857 9.00293 11.9999 9.00293C12.4142 9.00293 12.7499 9.33872 12.7499 9.75293V13.2529Z" fill="#292556"/>
</svg>
