<svg width="24" height="24" viewBox="0 0 24 24" fill="none" xmlns="http://www.w3.org/2000/svg">
<path fill-rule="evenodd" clip-rule="evenodd" d="M12.75 6.62197V7.78797C13.6474 7.87834 14.4887 8.12275 15.25 8.44242C15.25 8.11092 15.25 7.94517 15.2989 7.79454C15.3151 7.74471 15.3352 7.69624 15.359 7.64956C15.4309 7.50844 15.5463 7.393 15.7772 7.16213L15.9084 7.03093C15.8065 6.79093 15.75 6.52689 15.75 6.25C15.75 5.14543 16.6454 4.25 17.75 4.25C18.8546 4.25 19.75 5.14543 19.75 6.25C19.75 7.35457 18.8546 8.25 17.75 8.25C17.4731 8.25 17.2091 8.19349 16.9691 8.09159C16.8288 8.23186 16.75 8.4221 16.75 8.62047V9.21356C16.9779 9.35243 17.1934 9.49374 17.3953 9.63385C18.0619 10.0965 18.5984 10.5585 18.9691 10.9056C19.1549 11.0795 19.3001 11.2256 19.4003 11.3298C19.4504 11.3819 19.4893 11.4236 19.5165 11.4532C19.7925 11.7655 19.7925 12.2345 19.5165 12.5468C19.4893 12.5764 19.4504 12.6181 19.4003 12.6702C19.3001 12.7744 19.1549 12.9205 18.9691 13.0944C18.5984 13.4415 18.0619 13.9035 17.3953 14.3661C17.1934 14.5063 16.9779 14.6476 16.75 14.7864V15.3795C16.75 15.5779 16.8288 15.7681 16.9691 15.9084C17.2091 15.8065 17.4731 15.75 17.75 15.75C18.8546 15.75 19.75 16.6454 19.75 17.75C19.75 18.8546 18.8546 19.75 17.75 19.75C16.6454 19.75 15.75 18.8546 15.75 17.75C15.75 17.4731 15.8065 17.2091 15.9084 16.9691L15.7772 16.8379C15.5463 16.607 15.4309 16.4916 15.359 16.3504C15.3352 16.3038 15.3151 16.2553 15.2989 16.2055C15.25 16.0548 15.25 15.8891 15.25 15.5576C14.4887 15.8772 13.6474 16.1217 12.75 16.212V17.378C13.6239 17.6869 14.25 18.5203 14.25 19.5C14.25 20.7426 13.2426 21.75 12 21.75C10.7574 21.75 9.75 20.7426 9.75 19.5C9.75 18.5203 10.3761 17.6869 11.25 17.378V16.2121C10.3526 16.1217 9.51135 15.8773 8.75 15.5577C8.75 15.8891 8.75 16.0548 8.70106 16.2055C8.68487 16.2553 8.66479 16.3038 8.64101 16.3504C8.5691 16.4916 8.45366 16.607 8.22279 16.8379L8.09159 16.9691C8.19348 17.2091 8.25 17.4731 8.25 17.75C8.25 18.8546 7.35457 19.75 6.25 19.75C5.14543 19.75 4.25 18.8546 4.25 17.75C4.25 16.6454 5.14543 15.75 6.25 15.75C6.52689 15.75 6.79093 15.8065 7.03093 15.9084C7.1712 15.7681 7.25 15.5779 7.25 15.3795V14.7866C7.02199 14.6477 6.80646 14.5063 6.60451 14.3661C5.93785 13.9035 5.40143 13.4415 5.03065 13.0944C4.84489 12.9205 4.69971 12.7744 4.59953 12.6702C4.54941 12.6181 4.51048 12.5764 4.48328 12.5468C4.20727 12.2345 4.20727 11.7655 4.48328 11.4532C4.51048 11.4236 4.54941 11.3819 4.59953 11.3298C4.69971 11.2256 4.84489 11.0795 5.03065 10.9056C5.40143 10.5585 5.93785 10.0965 6.60451 9.63385C6.80646 9.4937 7.02199 9.35234 7.25 9.21343V8.62047C7.25 8.4221 7.1712 8.23186 7.03093 8.09159C6.79093 8.19349 6.52689 8.25 6.25 8.25C5.14543 8.25 4.25 7.35457 4.25 6.25C4.25 5.14543 5.14543 4.25 6.25 4.25C7.35457 4.25 8.25 5.14543 8.25 6.25C8.25 6.52689 8.19348 6.79093 8.09159 7.03093L8.22279 7.16213L8.2228 7.16214C8.45367 7.39301 8.5691 7.50844 8.64101 7.64956C8.66479 7.69624 8.68487 7.74471 8.70106 7.79454C8.75 7.94517 8.75 8.11089 8.75 8.44233C9.51135 8.12268 10.3526 7.87829 11.25 7.78795V6.62197C10.3761 6.31309 9.75 5.47966 9.75 4.5C9.75 3.25736 10.7574 2.25 12 2.25C13.2426 2.25 14.25 3.25736 14.25 4.5C14.25 5.47966 13.6239 6.31309 12.75 6.62197ZM10.25 12C10.25 11.0335 11.0335 10.25 12 10.25C12.9665 10.25 13.75 11.0335 13.75 12C13.75 12.9665 12.9665 13.75 12 13.75C11.0335 13.75 10.25 12.9665 10.25 12Z" fill="#292556"/>
</svg>
