<svg width="24" height="24" viewBox="0 0 24 24" fill="none" xmlns="http://www.w3.org/2000/svg">
<path fill-rule="evenodd" clip-rule="evenodd" d="M15.9846 5.24716C14.794 4.64092 13.4603 4.25 12.0004 4.25C7.97663 4.25 4.91089 7.21991 3.15902 9.48272C2.5288 10.2968 2.21369 10.7038 2.09849 11.573C2.07134 11.7778 2.07134 12.2222 2.09849 12.427C2.21369 13.2962 2.5288 13.7032 3.15902 14.5173C3.62486 15.119 4.1836 15.7707 4.82855 16.4032L9.00819 12.2236C9.00275 12.1498 8.99998 12.0752 8.99998 12C8.99998 10.3431 10.3431 9 12 9C12.0752 9 12.1498 9.00277 12.2236 9.00821L15.9846 5.24716ZM18.1165 6.65088L14.4702 10.2971C14.8043 10.7809 15 11.3676 15 12C15 13.6569 13.6568 15 12 15C11.3676 15 10.7809 14.8043 10.2971 14.4702L6.76178 18.0056C8.24313 19.0188 10.0038 19.75 12.0004 19.75C16.0242 19.75 19.0899 16.7801 20.8418 14.5173C21.472 13.7032 21.7871 13.2962 21.9023 12.427C21.9295 12.2222 21.9295 11.7778 21.9023 11.573C21.7871 10.7038 21.472 10.2968 20.8418 9.48272C20.1378 8.57342 19.2217 7.54994 18.1165 6.65088Z" fill="#292556"/>
<path d="M3 21L21 3" stroke="#292556" stroke-width="1.5" stroke-linecap="round" stroke-linejoin="round"/>
</svg>
