<svg width="24" height="24" viewBox="0 0 24 24" fill="none" xmlns="http://www.w3.org/2000/svg">
<path fill-rule="evenodd" clip-rule="evenodd" d="M3.15717 4.20802C2.25 5.45663 2.25 7.23775 2.25 10.8V13.2C2.25 16.7622 2.25 18.5434 3.15717 19.792C3.45015 20.1952 3.80477 20.5499 4.20802 20.8428C5.45663 21.75 7.23775 21.75 10.8 21.75H13.2C16.7622 21.75 18.5434 21.75 19.792 20.8428C20.1952 20.5499 20.5499 20.1952 20.8428 19.792C21.75 18.5434 21.75 16.7622 21.75 13.2V10.8C21.75 7.23775 21.75 5.45663 20.8428 4.20802C20.5499 3.80477 20.1952 3.45015 19.792 3.15717C18.5434 2.25 16.7622 2.25 13.2 2.25H10.8C7.23775 2.25 5.45663 2.25 4.20802 3.15717C3.80477 3.45015 3.45015 3.80477 3.15717 4.20802ZM19.3272 12.3313C19.237 13.006 18.995 13.3149 18.5109 13.9328C17.2025 15.6029 14.947 17.75 11.9985 17.75C9.05004 17.75 6.79455 15.6029 5.48608 13.9328C5.002 13.3149 4.75996 13.006 4.66975 12.3313C4.64868 12.1737 4.64868 11.8263 4.66975 11.6687C4.75996 10.994 5.002 10.6851 5.48608 10.0672C6.79455 8.39706 9.05004 6.25 11.9985 6.25C14.947 6.25 17.2024 8.39706 18.5109 10.0672C18.995 10.6851 19.237 10.994 19.3272 11.6687C19.3483 11.8263 19.3483 12.1737 19.3272 12.3313Z" fill="#292556"/>
<path fill-rule="evenodd" clip-rule="evenodd" d="M12.0009 14.75C13.5205 14.75 14.7524 13.5188 14.7524 12C14.7524 10.4812 13.5205 9.25 12.0009 9.25C10.4814 9.25 9.24951 10.4812 9.24951 12C9.24951 13.5188 10.4814 14.75 12.0009 14.75Z" fill="#292556"/>
</svg>
