<svg width="24" height="24" viewBox="0 0 24 24" fill="none" xmlns="http://www.w3.org/2000/svg">
<path fill-rule="evenodd" clip-rule="evenodd" d="M20.538 3.58709C21.4276 4.47667 21.4276 5.91897 20.538 6.80855L17.467 9.87944L14.2456 6.65804L17.3166 3.58709C18.2062 2.69753 19.6484 2.69753 20.538 3.58709ZM19.4574 11.87L12.2548 4.6675C11.3652 3.77792 9.92293 3.77795 9.03337 4.66755C8.14383 5.55714 8.14385 6.9994 9.03342 7.88896L10.1591 9.01461L4.71183 14.4618C3.65609 15.5175 3.41556 17.0797 3.99023 18.3663L2.91109 19.4454C2.423 19.9335 2.42285 20.7248 2.91075 21.2131C3.39892 21.7016 4.19075 21.7018 4.6791 21.2134L5.75816 20.1344C7.04473 20.7092 8.60713 20.4688 9.66294 19.413L15.1103 13.9657L16.236 15.0914C17.1256 15.981 18.5679 15.981 19.4574 15.0914C20.347 14.2018 20.347 12.7595 19.4574 11.87Z" fill="#292556"/>
</svg>
