<svg width="24" height="24" viewBox="0 0 24 24" fill="none" xmlns="http://www.w3.org/2000/svg">
<path fill-rule="evenodd" clip-rule="evenodd" d="M20.8418 9.48272C19.0899 7.21991 16.0242 4.25 12.0004 4.25C7.97663 4.25 4.91089 7.21991 3.15902 9.48272C2.5288 10.2968 2.21369 10.7038 2.09848 11.573C2.07134 11.7778 2.07134 12.2222 2.09848 12.427C2.21369 13.2962 2.5288 13.7032 3.15902 14.5173C4.91089 16.7801 7.97663 19.75 12.0004 19.75C16.0242 19.75 19.0899 16.7801 20.8418 14.5173C21.472 13.7032 21.7871 13.2962 21.9023 12.427C21.9295 12.2222 21.9295 11.7778 21.9023 11.573C21.7871 10.7038 21.472 10.2968 20.8418 9.48272ZM12.0004 15.5C13.9334 15.5 15.5004 13.933 15.5004 12C15.5004 10.067 13.9334 8.5 12.0004 8.5C10.0674 8.5 8.5004 10.067 8.5004 12C8.5004 13.933 10.0674 15.5 12.0004 15.5Z" fill="#292556"/>
<path d="M12 5C15.2414 5 18.0852 7.35234 19.9031 9.32973C20.7101 10.2075 21.1136 10.6464 21.2498 11.5556C21.2831 11.7782 21.2831 12.2218 21.2498 12.4444C21.1136 13.3536 20.7101 13.7925 19.9031 14.6703C18.0852 16.6477 15.2414 19 12 19C8.75865 19 5.91481 16.6477 4.09687 14.6703C3.28988 13.7925 2.88639 13.3536 2.7502 12.4444C2.71686 12.2218 2.71686 11.7782 2.7502 11.5556C2.88639 10.6464 3.28988 10.2075 4.09687 9.32973C5.91482 7.35234 8.75865 5 12 5Z" stroke="#292556" stroke-width="1.5" stroke-linejoin="round"/>
</svg>
