<svg width="24" height="24" viewBox="0 0 24 24" fill="none" xmlns="http://www.w3.org/2000/svg">
<path fill-rule="evenodd" clip-rule="evenodd" d="M21.75 15.2839V8.75V8.71615C21.75 7.11972 21.75 6.32151 21.56 5.67016C21.1057 4.11236 19.8876 2.89425 18.3298 2.43995C17.6785 2.25 16.8803 2.25 15.2839 2.25H8.75H8.71615C7.11972 2.25 6.32151 2.25 5.67016 2.43995C4.11236 2.89425 2.89425 4.11236 2.43995 5.67016C2.25 6.32151 2.25 7.11972 2.25 8.71615V15.25V15.2839C2.25 16.8803 2.25 17.6785 2.43995 18.3298C2.89425 19.8876 4.11236 21.1057 5.67016 21.56C6.32151 21.75 7.11972 21.75 8.71615 21.75H15.25H15.2839C16.8803 21.75 17.6785 21.75 18.3298 21.56C19.8876 21.1057 21.1057 19.8876 21.56 18.3298C21.75 17.6785 21.75 16.8803 21.75 15.2839ZM7.25 8.5C7.25 7.67157 7.92157 7 8.75 7C9.57843 7 10.25 7.67157 10.25 8.5C10.25 9.32843 9.57843 10 8.75 10C7.92157 10 7.25 9.32843 7.25 8.5ZM13.75 8.5C13.75 7.67157 14.4216 7 15.25 7C16.0784 7 16.75 7.67157 16.75 8.5C16.75 9.32843 16.0784 10 15.25 10C14.4216 10 13.75 9.32843 13.75 8.5ZM12.75 11C12.75 10.5858 12.4143 10.25 12 10.25C11.5858 10.25 11.25 10.5858 11.25 11V13C11.25 13.4142 11.5858 13.75 12 13.75C12.4143 13.75 12.75 13.4142 12.75 13V11ZM16.083 14.4627C15.7863 14.1737 15.3114 14.18 15.0224 14.4767C14.8156 14.6891 14.76 14.9928 14.854 15.2542C13.1037 16.5821 10.8966 16.5819 9.14645 15.2538C9.23961 14.9927 9.18385 14.6898 8.97741 14.4779C8.68842 14.1811 8.21359 14.1748 7.91684 14.4638L7.5726 14.7991L7.22674 15.1359C6.92999 15.4249 6.92371 15.8997 7.21269 16.1964C7.44961 16.4397 7.81144 16.4878 8.09764 16.338C10.4496 18.2208 13.5518 18.2207 15.9037 16.3377C16.1897 16.4867 16.5508 16.4384 16.7873 16.1955C17.0763 15.8987 17.07 15.4239 16.7733 15.1349L16.4284 14.7991L15.9363 15.3044L16.4284 14.7991L16.083 14.4627Z" fill="#292556"/>
</svg>
