<svg width="24" height="24" viewBox="0 0 24 24" fill="none" xmlns="http://www.w3.org/2000/svg">
<path fill-rule="evenodd" clip-rule="evenodd" d="M21.75 12C21.75 17.3848 17.3848 21.75 12 21.75C6.61522 21.75 2.25 17.3848 2.25 12C2.25 6.61522 6.61522 2.25 12 2.25C17.3848 2.25 21.75 6.61522 21.75 12ZM8 16C8 15.5858 8.33579 15.25 8.75 15.25H15.25C15.6642 15.25 16 15.5858 16 16C16 16.4142 15.6642 16.75 15.25 16.75H8.75C8.33579 16.75 8 16.4142 8 16ZM11 9C11 9.82843 10.3284 10.5 9.5 10.5C8.67157 10.5 8 9.82843 8 9C8 8.17157 8.67157 7.5 9.5 7.5C10.3284 7.5 11 8.17157 11 9ZM16 9C16 9.82843 15.3284 10.5 14.5 10.5C13.6716 10.5 13 9.82843 13 9C13 8.17157 13.6716 7.5 14.5 7.5C15.3284 7.5 16 8.17157 16 9ZM15.5 13.25C15.5 13.8023 15.0523 14.25 14.5 14.25C13.9477 14.25 13.5 13.8023 13.5 13.25C13.5 12.9191 13.8589 12.2668 14.1467 11.797C14.2778 11.583 14.3433 11.4761 14.4493 11.4541C14.4809 11.4476 14.5191 11.4476 14.5507 11.4541C14.6567 11.4761 14.7222 11.583 14.8533 11.797C15.1411 12.2668 15.5 12.9191 15.5 13.25Z" fill="#292556"/>
</svg>
