<svg width="24" height="24" viewBox="0 0 24 24" fill="none" xmlns="http://www.w3.org/2000/svg">
<path fill-rule="evenodd" clip-rule="evenodd" d="M21.75 12C21.75 17.3848 17.3848 21.75 12 21.75C6.61522 21.75 2.25 17.3848 2.25 12C2.25 6.61522 6.61522 2.25 12 2.25C17.3848 2.25 21.75 6.61522 21.75 12ZM11 9C11 9.82843 10.3284 10.5 9.5 10.5C8.67157 10.5 8 9.82843 8 9C8 8.17157 8.67157 7.5 9.5 7.5C10.3284 7.5 11 8.17157 11 9ZM16 9C16 9.82843 15.3284 10.5 14.5 10.5C13.6716 10.5 13 9.82843 13 9C13 8.17157 13.6716 7.5 14.5 7.5C15.3284 7.5 16 8.17157 16 9ZM8.10328 16.8003C7.93744 17.1798 7.4953 17.3531 7.11574 17.1873C6.73617 17.0214 6.56291 16.5793 6.72875 16.1997C7.61536 14.1705 9.64094 12.75 12 12.75C14.359 12.75 16.3846 14.1705 17.2712 16.1997C17.437 16.5793 17.2638 17.0214 16.8842 17.1873C16.5046 17.3531 16.0625 17.1798 15.8967 16.8003C15.2402 15.2977 13.7416 14.25 12 14.25C10.2584 14.25 8.75979 15.2977 8.10328 16.8003Z" fill="#292556"/>
</svg>
