<svg width="24" height="24" viewBox="0 0 24 24" fill="none" xmlns="http://www.w3.org/2000/svg">
<path fill-rule="evenodd" clip-rule="evenodd" d="M21.75 12C21.75 17.3848 17.3848 21.75 12 21.75C6.61522 21.75 2.25 17.3848 2.25 12C2.25 6.61522 6.61522 2.25 12 2.25C17.3848 2.25 21.75 6.61522 21.75 12ZM11 9C11 9.82843 10.3284 10.5 9.5 10.5C8.67157 10.5 8 9.82843 8 9C8 8.17157 8.67157 7.5 9.5 7.5C10.3284 7.5 11 8.17157 11 9ZM16 9C16 9.82843 15.3284 10.5 14.5 10.5C13.6716 10.5 13 9.82843 13 9C13 8.17157 13.6716 7.5 14.5 7.5C15.3284 7.5 16 8.17157 16 9ZM9.82454 14.9479C9.93987 14.9201 10.0601 14.9201 10.1755 14.9479C10.2392 14.9632 10.3114 14.9942 10.6646 15.1708L10.7198 15.1984C10.9866 15.3322 11.2214 15.4498 11.4736 15.5105C11.8196 15.5938 12.1804 15.5938 12.5264 15.5105C12.7786 15.4498 13.0133 15.3322 13.2802 15.1985L13.2802 15.1984L13.3354 15.1708C13.6886 14.9942 13.7608 14.9632 13.8245 14.9479C13.9399 14.9201 14.0601 14.9201 14.1755 14.9479C14.2392 14.9632 14.3114 14.9942 14.6646 15.1708L15.6646 15.6708C16.0351 15.8561 16.4856 15.7059 16.6708 15.3354C16.8561 14.9649 16.7059 14.5144 16.3354 14.3292L15.3354 13.8292L15.2802 13.8016C15.0134 13.6678 14.7786 13.5502 14.5264 13.4895C14.1804 13.4062 13.8196 13.4062 13.4736 13.4895C13.2214 13.5502 12.9866 13.6678 12.7198 13.8016L12.6646 13.8292C12.3114 14.0058 12.2392 14.0368 12.1755 14.0521C12.0601 14.0799 11.9399 14.0799 11.8245 14.0521C11.7608 14.0368 11.6886 14.0058 11.3354 13.8292L11.2802 13.8016C11.0134 13.6678 10.7786 13.5502 10.5264 13.4895C10.1804 13.4062 9.81961 13.4062 9.47363 13.4895C9.22136 13.5502 8.98665 13.6678 8.71977 13.8015L8.71976 13.8016L8.66459 13.8292L7.66459 14.3292C7.29411 14.5144 7.14394 14.9649 7.32918 15.3354C7.51442 15.7059 7.96493 15.8561 8.33541 15.6708L9.33541 15.1708C9.68863 14.9942 9.76081 14.9632 9.82454 14.9479Z" fill="#292556"/>
</svg>
