<svg width="24" height="24" viewBox="0 0 24 24" fill="none" xmlns="http://www.w3.org/2000/svg">
<path fill-rule="evenodd" clip-rule="evenodd" d="M12 21.75C17.3848 21.75 21.75 17.3848 21.75 12C21.75 6.61522 17.3848 2.25 12 2.25C6.61522 2.25 2.25 6.61522 2.25 12C2.25 17.3848 6.61522 21.75 12 21.75ZM9.03033 7.96967C8.73744 7.67678 8.26256 7.67678 7.96967 7.96967C7.67678 8.26256 7.67678 8.73744 7.96967 9.03033L8.43934 9.5L7.96967 9.96967C7.67678 10.2626 7.67678 10.7374 7.96967 11.0303C8.26256 11.3232 8.73744 11.3232 9.03033 11.0303L9.5 10.5607L9.96967 11.0303C10.2626 11.3232 10.7374 11.3232 11.0303 11.0303C11.3232 10.7374 11.3232 10.2626 11.0303 9.96967L10.5607 9.5L11.0303 9.03033C11.3232 8.73744 11.3232 8.26256 11.0303 7.96967C10.7374 7.67678 10.2626 7.67678 9.96967 7.96967L9.5 8.43934L9.03033 7.96967ZM14.0303 7.96967C13.7374 7.67678 13.2626 7.67678 12.9697 7.96967C12.6768 8.26256 12.6768 8.73744 12.9697 9.03033L13.4393 9.5L12.9697 9.96967C12.6768 10.2626 12.6768 10.7374 12.9697 11.0303C13.2626 11.3232 13.7374 11.3232 14.0303 11.0303L14.5 10.5607L14.9697 11.0303C15.2626 11.3232 15.7374 11.3232 16.0303 11.0303C16.3232 10.7374 16.3232 10.2626 16.0303 9.96967L15.5607 9.5L16.0303 9.03033C16.3232 8.73744 16.3232 8.26256 16.0303 7.96967C15.7374 7.67678 15.2626 7.67678 14.9697 7.96967L14.5 8.43934L14.0303 7.96967ZM8 14.75C7.58579 14.75 7.25 15.0858 7.25 15.5C7.25 15.9142 7.58579 16.25 8 16.25H16C16.4142 16.25 16.75 15.9142 16.75 15.5C16.75 15.0858 16.4142 14.75 16 14.75H8Z" fill="#292556"/>
</svg>
