<svg width="24" height="24" viewBox="0 0 24 24" fill="none" xmlns="http://www.w3.org/2000/svg">
<path fill-rule="evenodd" clip-rule="evenodd" d="M12.6711 3.33504C12.8561 2.96463 12.7059 2.51436 12.3355 2.32918C12.233 2.27794 12.1244 2.25237 12.017 2.25001C17.394 2.25921 21.75 6.6209 21.75 12C21.75 17.3848 17.3848 21.75 12 21.75C6.61522 21.75 2.25 17.3848 2.25 12C2.25 6.62041 6.60682 2.25841 11.9845 2.25001C11.7152 2.25586 11.4581 2.40696 11.3293 2.66459L12.0001 3C11.3293 2.66459 11.3292 2.66479 11.3291 2.66501L11.3288 2.66547L11.3283 2.66654L11.327 2.66924L11.3232 2.67684L11.3118 2.70069C11.3024 2.72032 11.2898 2.74737 11.2747 2.7811C11.2445 2.84843 11.204 2.94306 11.1595 3.05889C11.0712 3.28838 10.9629 3.61182 10.8897 3.97791C10.754 4.6563 10.6882 5.7488 11.4698 6.53033C11.8126 6.87313 12.1922 7.07826 12.5874 7.15731C12.9771 7.23525 13.3304 7.18047 13.6123 7.08651C13.891 6.99359 14.1143 6.85799 14.2642 6.75093C14.3406 6.69634 14.402 6.64627 14.4464 6.60778C14.4687 6.58846 14.487 6.57182 14.501 6.55869L14.5189 6.54165L14.5255 6.53524L14.5282 6.5326L14.5294 6.53141L14.5299 6.53086C14.5302 6.53059 14.5304 6.53033 14.0002 6.00012L14.5304 6.53033C14.8233 6.23744 14.8233 5.76256 14.5304 5.46967C14.2395 5.17876 13.7691 5.17679 13.4758 5.46376C13.4741 5.46525 13.4702 5.46889 13.464 5.47425C13.4498 5.48655 13.4253 5.50678 13.3923 5.53032C13.3235 5.57951 13.2342 5.63141 13.1379 5.66349C13.0448 5.69453 12.9606 5.70225 12.8816 5.68644C12.8081 5.67174 12.6876 5.62687 12.5304 5.46967C12.312 5.2512 12.2462 4.8437 12.3605 4.27209C12.4123 4.01318 12.4915 3.77412 12.5595 3.59736C12.5931 3.51007 12.6229 3.44063 12.6435 3.39468C12.6537 3.37177 12.6616 3.35488 12.6665 3.34472L12.6711 3.33504ZM12.6711 3.33504C12.6711 3.33516 12.671 3.33529 12.6709 3.33541L12.0001 3C12.6709 3.33541 12.671 3.33522 12.6711 3.33504ZM11.9845 2.25001C11.9953 2.24978 12.0062 2.24978 12.017 2.25001C12.0114 2.25 12.0057 2.25 12 2.25C11.9948 2.25 11.9896 2.25 11.9845 2.25001ZM9.5 11C10.3284 11 11 10.3284 11 9.5C11 8.67157 10.3284 8 9.5 8C8.67157 8 8 8.67157 8 9.5C8 10.3284 8.67157 11 9.5 11ZM14.5 11C15.3284 11 16 10.3284 16 9.5C16 8.67157 15.3284 8 14.5 8C13.6716 8 13 8.67157 13 9.5C13 10.3284 13.6716 11 14.5 11ZM7.11574 12.8127C7.4953 12.6469 7.93744 12.8202 8.10328 13.1997C8.75979 14.7023 10.2584 15.75 12 15.75C13.7416 15.75 15.2402 14.7023 15.8967 13.1997C16.0625 12.8202 16.5046 12.6469 16.8842 12.8127C17.2638 12.9786 17.437 13.4207 17.2712 13.8003C16.3846 15.8295 14.359 17.25 12 17.25C9.64094 17.25 7.61536 15.8295 6.72875 13.8003C6.56291 13.4207 6.73617 12.9786 7.11574 12.8127Z" fill="#292556"/>
</svg>
