<svg width="24" height="24" viewBox="0 0 24 24" fill="none" xmlns="http://www.w3.org/2000/svg">
<path fill-rule="evenodd" clip-rule="evenodd" d="M12 21.75C17.3848 21.75 21.75 17.3848 21.75 12C21.75 6.61522 17.3848 2.25 12 2.25C6.61522 2.25 2.25 6.61522 2.25 12C2.25 17.3848 6.61522 21.75 12 21.75ZM7.4 6.55C7.64853 6.21863 8.11863 6.15147 8.45 6.4L10.0615 7.60864C10.6118 7.83091 11 8.37012 11 9C11 9.82843 10.3284 10.5 9.5 10.5C8.67157 10.5 8 9.82843 8 9C8 8.68024 8.10005 8.38385 8.27056 8.14042L7.55 7.6C7.21863 7.35147 7.15147 6.88137 7.4 6.55ZM16.6 6.55C16.8485 6.88137 16.7814 7.35147 16.45 7.6L15.7294 8.14042C15.8999 8.38385 16 8.68024 16 9C16 9.82843 15.3284 10.5 14.5 10.5C13.6716 10.5 13 9.82843 13 9C13 8.37012 13.3882 7.83091 13.9385 7.60864L15.55 6.4C15.8814 6.15147 16.3515 6.21863 16.6 6.55ZM6.72875 16.1997C7.61536 14.1705 9.64094 12.75 12 12.75C14.359 12.75 16.3846 14.1705 17.2712 16.1997C17.437 16.5793 17.2638 17.0214 16.8842 17.1873C16.5046 17.3531 16.0625 17.1798 15.8967 16.8003C15.2402 15.2977 13.7416 14.25 12 14.25C10.2584 14.25 8.75979 15.2977 8.10328 16.8003C7.93744 17.1798 7.4953 17.3531 7.11574 17.1873C6.73617 17.0214 6.56291 16.5793 6.72875 16.1997Z" fill="#292556"/>
</svg>
