<svg width="24" height="24" viewBox="0 0 24 24" fill="none" xmlns="http://www.w3.org/2000/svg">
<path fill-rule="evenodd" clip-rule="evenodd" d="M21.75 12C21.75 17.3848 17.3848 21.75 12 21.75C6.61522 21.75 2.25 17.3848 2.25 12C2.25 6.61522 6.61522 2.25 12 2.25C17.3848 2.25 21.75 6.61522 21.75 12ZM11 9C11 9.82843 10.3284 10.5 9.5 10.5C8.67157 10.5 8 9.82843 8 9C8 8.17157 8.67157 7.5 9.5 7.5C10.3284 7.5 11 8.17157 11 9ZM16 9C16 9.82843 15.3284 10.5 14.5 10.5C13.6716 10.5 13 9.82843 13 9C13 8.17157 13.6716 7.5 14.5 7.5C15.3284 7.5 16 8.17157 16 9ZM15.2372 14.7115C15.6301 14.5805 15.8425 14.1558 15.7115 13.7628C15.5805 13.3699 15.1558 13.1575 14.7628 13.2885L8.76283 15.2885C8.36987 15.4195 8.1575 15.8442 8.28849 16.2372C8.41947 16.6301 8.84421 16.8425 9.23717 16.7115L15.2372 14.7115Z" fill="#292556"/>
</svg>
