<svg width="24" height="24" viewBox="0 0 24 24" fill="none" xmlns="http://www.w3.org/2000/svg">
<path fill-rule="evenodd" clip-rule="evenodd" d="M21.75 12C21.75 17.3848 17.3848 21.75 12 21.75C6.61522 21.75 2.25 17.3848 2.25 12C2.25 6.61522 6.61522 2.25 12 2.25C17.3848 2.25 21.75 6.61522 21.75 12ZM11.2406 8.54063C11.1023 9.5915 9.50057 10.5 9.50057 10.5C9.50057 10.5 7.86806 9.5915 7.75889 8.54069C7.63316 7.508 8.87282 7.18942 9.50156 7.83312C10.1303 7.18909 11.3698 7.50765 11.2406 8.54063ZM16.2406 8.54063C16.1023 9.5915 14.5006 10.5 14.5006 10.5C14.5006 10.5 12.8681 9.5915 12.7589 8.54069C12.6332 7.508 13.8728 7.18942 14.5016 7.83312C15.1303 7.18909 16.3698 7.50765 16.2406 8.54063ZM8.10328 13.1997C7.93744 12.8202 7.4953 12.6469 7.11574 12.8127C6.73617 12.9786 6.56291 13.4207 6.72875 13.8003C7.61536 15.8295 9.64094 17.25 12 17.25C14.359 17.25 16.3846 15.8295 17.2712 13.8003C17.437 13.4207 17.2638 12.9786 16.8842 12.8127C16.5046 12.6469 16.0625 12.8202 15.8967 13.1997C15.2402 14.7023 13.7416 15.75 12 15.75C10.2584 15.75 8.75979 14.7023 8.10328 13.1997Z" fill="#292556"/>
</svg>
