<svg width="24" height="24" viewBox="0 0 24 24" fill="none" xmlns="http://www.w3.org/2000/svg">
<path fill-rule="evenodd" clip-rule="evenodd" d="M21.75 12C21.75 17.3848 17.3848 21.75 12 21.75C6.61522 21.75 2.25 17.3848 2.25 12C2.25 6.61522 6.61522 2.25 12 2.25C17.3848 2.25 21.75 6.61522 21.75 12ZM11 15C11 14.1716 10.3284 13.5 9.5 13.5C8.67157 13.5 8 14.1716 8 15C8 15.8284 8.67157 16.5 9.5 16.5C10.3284 16.5 11 15.8284 11 15ZM16 15C16 14.1716 15.3284 13.5 14.5 13.5C13.6716 13.5 13 14.1716 13 15C13 15.8284 13.6716 16.5 14.5 16.5C15.3284 16.5 16 15.8284 16 15ZM8.10328 10.8003C7.93744 11.1798 7.4953 11.3531 7.11574 11.1873C6.73617 11.0214 6.56291 10.5793 6.72875 10.1997C7.61536 8.1705 9.64094 6.75 12 6.75C14.359 6.75 16.3846 8.1705 17.2712 10.1997C17.437 10.5793 17.2638 11.0214 16.8842 11.1873C16.5046 11.3531 16.0625 11.1798 15.8967 10.8003C15.2402 9.29769 13.7416 8.25 12 8.25C10.2584 8.25 8.75979 9.29769 8.10328 10.8003Z" fill="#292556"/>
</svg>
