<svg width="24" height="24" viewBox="0 0 24 24" fill="none" xmlns="http://www.w3.org/2000/svg">
<path fill-rule="evenodd" clip-rule="evenodd" d="M21.75 12C21.75 17.3848 17.3848 21.75 12 21.75C6.61522 21.75 2.25 17.3848 2.25 12C2.25 6.61522 6.61522 2.25 12 2.25C17.3848 2.25 21.75 6.61522 21.75 12ZM11 9C11 9.82843 10.3284 10.5 9.5 10.5C8.67157 10.5 8 9.82843 8 9C8 8.17157 8.67157 7.5 9.5 7.5C10.3284 7.5 11 8.17157 11 9ZM16 9C16 9.82843 15.3284 10.5 14.5 10.5C13.6716 10.5 13 9.82843 13 9C13 8.17157 13.6716 7.5 14.5 7.5C15.3284 7.5 16 8.17157 16 9ZM10.25 14C10.25 13.5858 9.91421 13.25 9.5 13.25C9.08579 13.25 8.75 13.5858 8.75 14V14.25H8C7.58579 14.25 7.25 14.5858 7.25 15C7.25 15.4142 7.58579 15.75 8 15.75H8.75V16C8.75 16.4142 9.08579 16.75 9.5 16.75C9.91421 16.75 10.25 16.4142 10.25 16V15.75H11.25V16C11.25 16.4142 11.5858 16.75 12 16.75C12.4142 16.75 12.75 16.4142 12.75 16V15.75H13.75V16C13.75 16.4142 14.0858 16.75 14.5 16.75C14.9142 16.75 15.25 16.4142 15.25 16V15.75H16C16.4142 15.75 16.75 15.4142 16.75 15C16.75 14.5858 16.4142 14.25 16 14.25H15.25V14C15.25 13.5858 14.9142 13.25 14.5 13.25C14.0858 13.25 13.75 13.5858 13.75 14V14.25H12.75V14C12.75 13.5858 12.4142 13.25 12 13.25C11.5858 13.25 11.25 13.5858 11.25 14V14.25H10.25V14Z" fill="#292556"/>
</svg>
