<svg width="24" height="24" viewBox="0 0 24 24" fill="none" xmlns="http://www.w3.org/2000/svg">
<path fill-rule="evenodd" clip-rule="evenodd" d="M4.56744 2.25H7.43225C7.96699 2.25 8.23436 2.25 8.4271 2.3836C8.48949 2.42685 8.54495 2.47931 8.59159 2.5392C8.73568 2.72424 8.75051 2.9912 8.78017 3.52512L8.93156 6.25H3.06813L3.21951 3.52512C3.24918 2.9912 3.26401 2.72424 3.40809 2.5392C3.45473 2.47931 3.51019 2.42685 3.57258 2.3836C3.76532 2.25 4.03269 2.25 4.56744 2.25ZM9.20933 11.25H13.2498C13.2498 9.61038 13.2498 8.79058 13.6568 8.20945C13.8073 7.99445 13.9943 7.80745 14.2093 7.65691C14.7904 7.25 15.6102 7.25 17.2498 7.25H17.6998C19.3872 7.25 20.2309 7.25 20.8224 7.67971C21.0134 7.81849 21.1814 7.98647 21.3201 8.17748C21.7498 8.76893 21.7498 9.61262 21.7498 11.3V17.7C21.7498 19.3874 21.7498 20.2311 21.3201 20.8225C21.1814 21.0135 21.0134 21.1815 20.8224 21.3203C20.2309 21.75 19.3872 21.75 17.6998 21.75H6.48826C4.71389 21.75 3.82671 21.75 3.22289 21.2905C3.02834 21.1424 2.85922 20.9636 2.72218 20.7612C2.29686 20.1328 2.34608 19.247 2.4445 17.4753L2.9848 7.75H9.01489L9.20933 11.25ZM13.6495 17.375C13.75 17.201 13.75 16.9673 13.75 16.5C13.75 16.0327 13.75 15.799 13.6495 15.625C13.5837 15.511 13.489 15.4163 13.375 15.3505C13.201 15.25 12.9673 15.25 12.5 15.25C12.0327 15.25 11.799 15.25 11.625 15.3505C11.511 15.4163 11.4163 15.511 11.3505 15.625C11.25 15.799 11.25 16.0327 11.25 16.5C11.25 16.9673 11.25 17.201 11.3505 17.375C11.4163 17.489 11.511 17.5837 11.625 17.6495C11.799 17.75 12.0327 17.75 12.5 17.75C12.9673 17.75 13.201 17.75 13.375 17.6495C13.489 17.5837 13.5837 17.489 13.6495 17.375ZM18.1495 17.375C18.25 17.201 18.25 16.9673 18.25 16.5C18.25 16.0327 18.25 15.799 18.1495 15.625C18.0837 15.511 17.989 15.4163 17.875 15.3505C17.701 15.25 17.4673 15.25 17 15.25C16.5327 15.25 16.299 15.25 16.125 15.3505C16.011 15.4163 15.9163 15.511 15.8505 15.625C15.75 15.799 15.75 16.0327 15.75 16.5C15.75 16.9673 15.75 17.201 15.8505 17.375C15.9163 17.489 16.011 17.5837 16.125 17.6495C16.299 17.75 16.5327 17.75 17 17.75C17.4673 17.75 17.701 17.75 17.875 17.6495C17.989 17.5837 18.0837 17.489 18.1495 17.375Z" fill="#292556"/>
</svg>
