<svg width="24" height="24" viewBox="0 0 24 24" fill="none" xmlns="http://www.w3.org/2000/svg">
<path d="M18.2713 8.36164L14.9557 5.95005C14.3279 5.4934 14.014 5.26507 13.7813 5.1597C12.3216 4.49872 10.6257 5.36226 10.3017 6.9315C10.25 7.18165 10.25 7.56982 10.25 8.34616L9.39696 7.72571C6.64492 5.724 5.2689 4.72315 4.12905 5.01543C3.77249 5.10686 3.44052 5.27589 3.15685 5.51046C2.25 6.26035 2.25 7.96186 2.25 11.3649V12.6366C2.25 16.0392 2.25 17.7406 3.15677 18.4904C3.44041 18.725 3.77236 18.8941 4.12889 18.9855C5.26867 19.2778 6.64464 18.2772 9.39658 16.2761L9.39658 16.2761L10.25 15.6555C10.25 16.4313 10.25 16.8192 10.3016 17.0692C10.6255 18.6386 12.3215 19.5023 13.7813 18.8412C14.0139 18.7359 14.3276 18.5078 14.955 18.0516L14.955 18.0515L18.2709 15.6403C20.287 14.1741 21.2951 13.4411 21.4804 12.4693C21.5394 12.16 21.5394 11.8423 21.4805 11.5329C21.2952 10.5611 20.2873 9.82796 18.2713 8.36164Z" fill="#292556"/>
</svg>
