<svg width="24" height="24" viewBox="0 0 24 24" fill="none" xmlns="http://www.w3.org/2000/svg">
<path fill-rule="evenodd" clip-rule="evenodd" d="M2.25 10.8C2.25 7.23775 2.25 5.45663 3.15717 4.20802C3.45015 3.80477 3.80477 3.45015 4.20802 3.15717C5.45663 2.25 7.23775 2.25 10.8 2.25H13.2C16.7622 2.25 18.5434 2.25 19.792 3.15717C20.1952 3.45015 20.5499 3.80477 20.8428 4.20802C21.75 5.45663 21.75 7.23775 21.75 10.8V13.2C21.75 16.7622 21.75 18.5434 20.8428 19.792C20.5499 20.1952 20.1952 20.5499 19.792 20.8428C18.5434 21.75 16.7622 21.75 13.2 21.75H10.8C7.23775 21.75 5.45663 21.75 4.20802 20.8428C3.80477 20.5499 3.45015 20.1952 3.15717 19.792C2.25 18.5434 2.25 16.7622 2.25 13.2V10.8ZM17.2391 15.5409C16.998 10.2207 12.7976 6.52938 7.53286 6.76024C7.11904 6.77839 6.76887 6.45763 6.75072 6.04382C6.73257 5.63 7.05333 5.27983 7.46714 5.26168C13.5302 4.99581 18.4577 9.29787 18.7376 15.473C18.7517 15.7846 18.7537 16.0953 18.744 16.4048C18.748 16.436 18.75 16.4677 18.75 16.5C18.75 16.9142 18.4142 17.25 18 17.25H17.99C17.7857 17.25 17.5902 17.1666 17.4488 17.0192C17.3074 16.8717 17.2322 16.673 17.2407 16.4688C17.2535 16.1605 17.2532 15.851 17.2391 15.5409ZM6.75024 10.0937C6.76071 9.67966 7.10488 9.35247 7.51896 9.36294C11.3852 9.46069 14.4499 12.3211 14.6315 16.3291C14.6337 16.3794 14.6355 16.4296 14.6369 16.4798C14.6481 16.8939 14.3214 17.2386 13.9074 17.2497C13.4933 17.2609 13.1486 16.9343 13.1374 16.5202C13.1363 16.4791 13.1349 16.4381 13.133 16.397C12.988 13.1955 10.5802 10.9408 7.48104 10.8625C7.06696 10.852 6.73977 10.5078 6.75024 10.0937ZM5.68538 17.83C6.41993 18.8322 7.82783 19.0492 8.83002 18.3146C9.83221 17.5801 10.0492 16.1722 9.31462 15.17C8.58007 14.1678 7.17217 13.9508 6.16998 14.6854C5.16779 15.4199 4.95083 16.8278 5.68538 17.83Z" fill="#292556"/>
</svg>
