<svg width="24" height="24" viewBox="0 0 24 24" fill="none" xmlns="http://www.w3.org/2000/svg">
<path d="M11.25 21C11.25 21.4142 11.5858 21.75 12 21.75C12.4142 21.75 12.75 21.4142 12.75 21H11.25ZM14 19.75C14.4142 19.75 14.75 19.4142 14.75 19C14.75 18.5858 14.4142 18.25 14 18.25V19.75ZM10 18.25C9.58579 18.25 9.25 18.5858 9.25 19C9.25 19.4142 9.58579 19.75 10 19.75V18.25ZM11.25 16V19H12.75V16H11.25ZM11.25 19V21H12.75V19H11.25ZM12 19.75H14V18.25H12V19.75ZM12 18.25H10V19.75H12V18.25Z" fill="#292556"/>
<path d="M19.25 9.5C19.25 13.5041 16.0041 16.75 12 16.75C7.99594 16.75 4.75 13.5041 4.75 9.5C4.75 5.49594 7.99594 2.25 12 2.25C16.0041 2.25 19.25 5.49594 19.25 9.5Z" fill="#292556"/>
</svg>
