<svg width="24" height="24" viewBox="0 0 24 24" fill="none" xmlns="http://www.w3.org/2000/svg">
<path fill-rule="evenodd" clip-rule="evenodd" d="M12.25 3V2.25H11C8.1877 2.25 6.78155 2.25 5.79581 2.96619C5.47745 3.19748 5.19748 3.47745 4.96619 3.79581C4.25 4.78155 4.25 6.1877 4.25 9V15C4.25 17.8123 4.25 19.2184 4.96619 20.2042C5.19748 20.5226 5.47745 20.8025 5.79581 21.0338C6.78155 21.75 8.1877 21.75 11 21.75H13C15.8123 21.75 17.2184 21.75 18.2042 21.0338C18.5225 20.8025 18.8025 20.5226 19.0338 20.2042C19.75 19.2184 19.75 17.8123 19.75 15V9.75H19C16.1877 9.75 14.7816 9.75 13.7958 9.03381C13.4775 8.80252 13.1975 8.52255 12.9662 8.2042C12.25 7.21845 12.25 5.8123 12.25 3ZM13.75 4.2V2.25L19.75 8.25L17.8 8.25C16.1126 8.25 15.2689 8.25 14.6775 7.82029C14.4865 7.68151 14.3185 7.51353 14.1797 7.32252C13.75 6.73107 13.75 5.88738 13.75 4.2ZM8 11.75C7.58579 11.75 7.25 12.0858 7.25 12.5C7.25 12.9142 7.58579 13.25 8 13.25H13C13.4142 13.25 13.75 12.9142 13.75 12.5C13.75 12.0858 13.4142 11.75 13 11.75H8ZM8 14.75C7.58579 14.75 7.25 15.0858 7.25 15.5C7.25 15.9142 7.58579 16.25 8 16.25H16C16.4142 16.25 16.75 15.9142 16.75 15.5C16.75 15.0858 16.4142 14.75 16 14.75H8Z" fill="#292556"/>
</svg>
