<svg width="24" height="24" viewBox="0 0 24 24" fill="none" xmlns="http://www.w3.org/2000/svg">
<path fill-rule="evenodd" clip-rule="evenodd" d="M12.25 3V2.25H11C8.1877 2.25 6.78155 2.25 5.79581 2.96619C5.47745 3.19748 5.19748 3.47745 4.96619 3.79581C4.25 4.78155 4.25 6.1877 4.25 9V15C4.25 17.8123 4.25 19.2184 4.96619 20.2042C5.19748 20.5226 5.47745 20.8025 5.79581 21.0338C6.78155 21.75 8.1877 21.75 11 21.75H13C15.8123 21.75 17.2184 21.75 18.2042 21.0338C18.5225 20.8025 18.8025 20.5226 19.0338 20.2042C19.75 19.2184 19.75 17.8123 19.75 15V9.75H19C16.1877 9.75 14.7816 9.75 13.7958 9.03381C13.4775 8.80252 13.1975 8.52255 12.9662 8.2042C12.25 7.21845 12.25 5.8123 12.25 3ZM13.75 4.2V2.25L19.75 8.25L17.8 8.25C16.1126 8.25 15.2689 8.25 14.6775 7.82029C14.4865 7.68151 14.3185 7.51353 14.1797 7.32252C13.75 6.73107 13.75 5.88738 13.75 4.2ZM11.0303 12.5303C11.3232 12.2374 11.3232 11.7626 11.0303 11.4697C10.7374 11.1768 10.2626 11.1768 9.96967 11.4697L7.46967 13.9697C7.17678 14.2626 7.17678 14.7374 7.46967 15.0303L9.96967 17.5303C10.2626 17.8232 10.7374 17.8232 11.0303 17.5303C11.3232 17.2374 11.3232 16.7626 11.0303 16.4697L9.06066 14.5L11.0303 12.5303ZM14.0303 11.4697C13.7374 11.1768 13.2626 11.1768 12.9697 11.4697C12.6768 11.7626 12.6768 12.2374 12.9697 12.5303L14.9393 14.5L12.9697 16.4697C12.6768 16.7626 12.6768 17.2374 12.9697 17.5303C13.2626 17.8232 13.7374 17.8232 14.0303 17.5303L16.5303 15.0303C16.8232 14.7374 16.8232 14.2626 16.5303 13.9697L14.0303 11.4697Z" fill="#292556"/>
</svg>
