<svg width="24" height="24" viewBox="0 0 24 24" fill="none" xmlns="http://www.w3.org/2000/svg">
<path fill-rule="evenodd" clip-rule="evenodd" d="M12.25 3V2.25H11C8.1877 2.25 6.78155 2.25 5.79581 2.96619C5.47745 3.19748 5.19748 3.47745 4.96619 3.79581C4.25 4.78155 4.25 6.1877 4.25 9V15C4.25 17.8123 4.25 19.2184 4.96619 20.2042C5.19748 20.5226 5.47745 20.8025 5.79581 21.0338C6.78155 21.75 8.1877 21.75 11 21.75H13C15.8123 21.75 17.2184 21.75 18.2042 21.0338C18.5225 20.8025 18.8025 20.5226 19.0338 20.2042C19.75 19.2184 19.75 17.8123 19.75 15V9.75H19C16.1877 9.75 14.7816 9.75 13.7958 9.03381C13.4775 8.80252 13.1975 8.52255 12.9662 8.2042C12.25 7.21845 12.25 5.8123 12.25 3ZM13.75 4.2V2.25L19.75 8.25L17.8 8.25C16.1126 8.25 15.2689 8.25 14.6775 7.82029C14.4865 7.68151 14.3185 7.51353 14.1797 7.32252C13.75 6.73107 13.75 5.88738 13.75 4.2ZM11.0924 17.774C11.2383 17.885 11.3599 17.972 11.4463 18.0321L11.5905 18.1298C11.8392 18.2906 12.1598 18.2901 12.4079 18.1284L12.5511 18.0308C12.6369 17.9706 12.7577 17.8837 12.9027 17.7727C13.1919 17.5515 13.5825 17.2316 13.9874 16.8359C14.7712 16.0699 15.7207 14.9133 15.9511 13.562C16.197 12.1193 15.4827 11.008 14.3927 10.6323C13.6052 10.3609 12.7032 10.5062 11.9985 11.0756C11.2961 10.5067 10.3977 10.3605 9.61057 10.6328C8.52398 11.0087 7.81255 12.1175 8.04414 13.5553C8.26263 14.9118 9.2158 16.0711 10.002 16.8368C10.4086 17.2327 10.8014 17.5528 11.0924 17.774Z" fill="#292556"/>
</svg>
