<svg width="24" height="24" viewBox="0 0 24 24" fill="none" xmlns="http://www.w3.org/2000/svg">
<path fill-rule="evenodd" clip-rule="evenodd" d="M12.25 3V2.25H11C8.1877 2.25 6.78155 2.25 5.79581 2.96619C5.47745 3.19748 5.19748 3.47745 4.96619 3.79581C4.25 4.78155 4.25 6.1877 4.25 9V15C4.25 17.8123 4.25 19.2184 4.96619 20.2042C5.19748 20.5226 5.47745 20.8025 5.79581 21.0338C6.78155 21.75 8.1877 21.75 11 21.75H13C15.8123 21.75 17.2184 21.75 18.2042 21.0338C18.5225 20.8025 18.8025 20.5226 19.0338 20.2042C19.75 19.2184 19.75 17.8123 19.75 15V9.75H19C16.1877 9.75 14.7816 9.75 13.7958 9.03381C13.4775 8.80252 13.1975 8.52255 12.9662 8.2042C12.25 7.21845 12.25 5.8123 12.25 3ZM13.75 4.2V2.25L19.75 8.25L17.8 8.25C16.1126 8.25 15.2689 8.25 14.6775 7.82029C14.4865 7.68151 14.3185 7.51353 14.1797 7.32252C13.75 6.73107 13.75 5.88738 13.75 4.2ZM13.2425 12.1061C13.301 11.696 13.0161 11.3161 12.6061 11.2575C12.196 11.199 11.8161 11.4839 11.7575 11.8939L10.7575 18.8939C10.699 19.304 10.9839 19.6839 11.3939 19.7425C11.804 19.801 12.1839 19.5161 12.2425 19.1061L13.2425 12.1061ZM10.0303 14.0303C10.3232 13.7374 10.3232 13.2626 10.0303 12.9697C9.73744 12.6768 9.26256 12.6768 8.96967 12.9697L6.96967 14.9697C6.82902 15.1103 6.75 15.3011 6.75 15.5C6.75 15.6989 6.82902 15.8897 6.96967 16.0303L8.96967 18.0303C9.26256 18.3232 9.73744 18.3232 10.0303 18.0303C10.3232 17.7374 10.3232 17.2626 10.0303 16.9697L8.56066 15.5L10.0303 14.0303ZM15.0303 12.9697C14.7374 12.6768 14.2626 12.6768 13.9697 12.9697C13.6768 13.2626 13.6768 13.7374 13.9697 14.0303L15.4393 15.5L13.9697 16.9697C13.6768 17.2626 13.6768 17.7374 13.9697 18.0303C14.2626 18.3232 14.7374 18.3232 15.0303 18.0303L17.0303 16.0303C17.171 15.8897 17.25 15.6989 17.25 15.5C17.25 15.3011 17.171 15.1103 17.0303 14.9697L15.0303 12.9697Z" fill="#292556"/>
</svg>
