<svg width="24" height="24" viewBox="0 0 24 24" fill="none" xmlns="http://www.w3.org/2000/svg">
<path d="M17.7498 6.75V2.25V2.25C19.9589 2.25 21.7497 4.04079 21.7497 6.24984V6.75V8.25V11.25V12.75V15.75H17.7498V12.75H21.7497V11.25H17.7498V8.25H21.7497V6.75H17.7498Z" fill="#292556"/>
<path d="M17.7498 21.75V17.25H21.7497V17.7502C21.7497 19.9592 19.9589 21.75 17.7498 21.75V21.75Z" fill="#292556"/>
<path d="M6.24984 6.75V2.25V2.25C4.04079 2.25 2.25 4.04079 2.25 6.24984V6.75V8.25V11.25V12.75V15.75H6.24984V12.75H2.25V11.25H6.24984V8.25H2.25V6.75H6.24984Z" fill="#292556"/>
<path d="M6.24984 21.75V17.25H2.25V17.7502C2.25 19.9592 4.04079 21.75 6.24984 21.75V21.75Z" fill="#292556"/>
<path d="M7.74984 2.25H16.2498V21.75H7.74984V2.25Z" fill="#292556"/>
</svg>
