<svg width="24" height="24" viewBox="0 0 24 24" fill="none" xmlns="http://www.w3.org/2000/svg">
<path d="M10 19C13.866 19 17 15.866 17 12C17 8.13401 13.866 5 10 5C6.13401 5 3 8.13401 3 12C3 15.866 6.13401 19 10 19ZM10 19H16.2082C16.5263 19 16.6854 19 16.823 18.9431C16.8978 18.9122 16.9671 18.8693 17.0282 18.8163C17.1407 18.7186 17.2118 18.5763 17.3541 18.2918V18.2918C17.7633 17.4735 17.9679 17.0643 18.2619 16.9658C18.4164 16.9141 18.5836 16.9141 18.7381 16.9658C19.0321 17.0643 19.2367 17.4735 19.6459 18.2918V18.2918C19.7882 18.5763 19.8593 18.7186 19.9718 18.8163C20.0329 18.8693 20.1022 18.9122 20.177 18.9431C20.3146 19 20.4737 19 20.7918 19H21" stroke="#292556" stroke-width="1.5" stroke-linecap="round" stroke-linejoin="round"/>
<path fill-rule="evenodd" clip-rule="evenodd" d="M10 19.75C14.2802 19.75 17.75 16.2802 17.75 12C17.75 7.71979 14.2802 4.25 10 4.25C5.71979 4.25 2.25 7.71979 2.25 12C2.25 16.2802 5.71979 19.75 10 19.75ZM10 10C10.5523 10 11 9.55228 11 9C11 8.44772 10.5523 8 10 8C9.44772 8 9 8.44772 9 9C9 9.55228 9.44772 10 10 10ZM8 12C8 11.4477 7.55228 11 7 11C6.44772 11 6 11.4477 6 12C6 12.5523 6.44772 13 7 13C7.55228 13 8 12.5523 8 12ZM11 15C11 15.5523 10.5523 16 10 16C9.44772 16 9 15.5523 9 15C9 14.4477 9.44772 14 10 14C10.5523 14 11 14.4477 11 15ZM14 12C14 11.4477 13.5523 11 13 11C12.4477 11 12 11.4477 12 12C12 12.5523 12.4477 13 13 13C13.5523 13 14 12.5523 14 12Z" fill="#292556"/>
</svg>
