<svg width="24" height="24" viewBox="0 0 24 24" fill="none" xmlns="http://www.w3.org/2000/svg">
<path fill-rule="evenodd" clip-rule="evenodd" d="M18.5843 2.6479C17.5827 2.25 15.9452 2.25 13.3246 2.25H10.6403C7.12462 2.25 5.36677 2.25 4.54446 3.1974C4.28632 3.49482 4.09506 3.84421 3.98364 4.22194C3.6287 5.42518 4.57599 6.90596 6.47056 9.8675L8.37996 12.8522L18.5843 2.6479ZM10.7677 14H14.6394C14.747 14 14.8008 14 14.8478 13.98C14.8633 13.9734 14.878 13.9652 14.8919 13.9557C14.9339 13.9266 14.9626 13.8811 15.02 13.7901L17.5112 9.84101C19.1095 7.30734 20.0224 5.86018 20.0239 4.74385L10.7677 14ZM14.5247 20.557C14.7459 20.1266 14.7459 19.1706 14.7459 17.2586V15.8973C14.7459 15.7598 14.7459 15.6911 14.7196 15.6384C14.6954 15.5899 14.656 15.5505 14.6075 15.5263C14.5548 15.5 14.4861 15.5 14.3486 15.5H9.69589C9.50841 15.5 9.41466 15.5 9.34895 15.5477C9.32772 15.5632 9.30906 15.5818 9.29364 15.6031C9.24589 15.6688 9.24589 15.7625 9.24589 15.95V17.2586C9.24589 17.4922 9.24589 17.609 9.25894 17.7226C9.28799 17.9757 9.36513 18.2209 9.48621 18.4451C9.54059 18.5457 9.60744 18.6415 9.74116 18.833C10.8358 20.4007 11.3831 21.1845 11.8109 21.4107C12.7954 21.9314 14.0156 21.5475 14.5247 20.557Z" fill="#292556"/>
<path d="M3 21L21 3" stroke="#292556" stroke-width="1.5" stroke-linecap="round" stroke-linejoin="round"/>
</svg>
