<svg width="24" height="24" viewBox="0 0 24 24" fill="none" xmlns="http://www.w3.org/2000/svg">
<g clip-path="url(#clip0_630_1363)">
<path d="M9.24609 17.2586V15.95C9.24609 15.7625 9.24609 15.6688 9.29384 15.6031C9.30926 15.5818 9.32792 15.5632 9.34915 15.5477C9.41486 15.5 9.50861 15.5 9.69609 15.5H14.3488C14.4863 15.5 14.555 15.5 14.6077 15.5263C14.6562 15.5505 14.6956 15.5899 14.7198 15.6384C14.7461 15.6911 14.7461 15.7598 14.7461 15.8973V17.2586C14.7461 19.1706 14.7461 20.1266 14.5249 20.557C14.0158 21.5475 12.7956 21.9314 11.8111 21.4107C11.3833 21.1845 10.836 20.4007 9.74136 18.833L9.74136 18.833L9.74136 18.833C9.60764 18.6415 9.54079 18.5457 9.48641 18.4451C9.36533 18.2209 9.2882 17.9757 9.25914 17.7226C9.24609 17.609 9.24609 17.4922 9.24609 17.2586Z" fill="#292556"/>
<path d="M13.3248 2.25H10.6405C7.12482 2.25 5.36697 2.25 4.54466 3.1974C4.28652 3.49482 4.09526 3.84421 3.98384 4.22194C3.6289 5.42518 4.57619 6.90596 6.47076 9.8675L8.98168 13.7925C9.03925 13.8825 9.06804 13.9275 9.10991 13.9562C9.12369 13.9656 9.13838 13.9737 9.15377 13.9802C9.20051 14 9.25392 14 9.36075 14H14.6396C14.7472 14 14.801 14 14.848 13.98C14.8635 13.9734 14.8783 13.9652 14.8921 13.9557C14.9341 13.9266 14.9628 13.8811 15.0202 13.7901L17.5114 9.84101L17.5114 9.84099C19.375 6.88684 20.3067 5.40976 19.9484 4.21191C19.8359 3.83574 19.6441 3.48802 19.386 3.19214C18.5641 2.25 16.8176 2.25 13.3248 2.25Z" fill="#292556"/>
</g>
<defs>
<clipPath id="clip0_630_1363">
<rect width="24" height="24" fill="white"/>
</clipPath>
</defs>
</svg>
