<svg width="24" height="24" viewBox="0 0 24 24" fill="none" xmlns="http://www.w3.org/2000/svg">
<path fill-rule="evenodd" clip-rule="evenodd" d="M13.2 2.25H10.8C7.23775 2.25 5.45663 2.25 4.20802 3.15717C3.80477 3.45015 3.45015 3.80477 3.15717 4.20802C2.25 5.45663 2.25 7.23775 2.25 10.8V13.2C2.25 16.7622 2.25 18.5434 3.15717 19.792C3.45015 20.1952 3.80477 20.5499 4.20802 20.8428C5.45663 21.75 7.23775 21.75 10.8 21.75H13.2C16.7622 21.75 18.5434 21.75 19.792 20.8428C20.1952 20.5499 20.5499 20.1952 20.8428 19.792C21.75 18.5434 21.75 16.7622 21.75 13.2V10.8C21.75 7.23775 21.75 5.45663 20.8428 4.20802C20.5499 3.80477 20.1952 3.45015 19.792 3.15717C18.5434 2.25 16.7622 2.25 13.2 2.25ZM15.726 6.20406C14.4097 5.41132 12.4997 5.05916 10.7099 5.35275C8.90022 5.64958 7.10593 6.62992 6.20077 8.61624C5.70852 9.69647 5.45235 10.8451 5.33116 11.9156C5.28457 12.3272 5.58045 12.6986 5.99203 12.7452C6.40362 12.7918 6.77505 12.496 6.82164 12.0844C6.93051 11.1227 7.15627 10.1368 7.56573 9.23825C8.21048 7.82338 9.49597 7.07191 10.9527 6.83297C12.4292 6.59078 13.9722 6.89886 14.9521 7.48902C15.3069 7.70272 15.7678 7.58831 15.9815 7.23348C16.1952 6.87864 16.0808 6.41776 15.726 6.20406ZM17.4964 7.87065C17.2579 7.532 16.79 7.45082 16.4513 7.68934C16.1127 7.92786 16.0315 8.39574 16.27 8.73439C16.8788 9.59867 17.2549 10.7287 17.25 11.9971C17.2484 12.4113 17.5829 12.7484 17.9971 12.75C18.4113 12.7516 18.7484 12.4171 18.75 12.0029C18.7561 10.4348 18.2909 8.99864 17.4964 7.87065ZM11.3372 9.67027C11.7082 9.48604 11.8596 9.03594 11.6753 8.66495C11.4911 8.29397 11.041 8.14257 10.67 8.3268C9.95487 8.68194 9.29897 9.28429 8.77308 10.1713C8.38069 10.8331 8.13412 11.6636 7.97316 12.4834C7.81026 13.3131 7.72536 14.1841 7.68268 14.9587C7.65989 15.3723 7.97669 15.7261 8.39028 15.7489C8.80386 15.7717 9.15761 15.4548 9.1804 15.0413C9.2208 14.308 9.30001 13.5112 9.44506 12.7724C9.59204 12.0237 9.79727 11.385 10.0633 10.9363C10.459 10.269 10.91 9.8824 11.3372 9.67027ZM14.4529 8.62071C14.1226 8.37081 13.6522 8.43601 13.4023 8.76634C13.1524 9.09668 13.2176 9.56705 13.5479 9.81696C14.1973 10.3082 14.7488 11.5142 13.7726 13.1605C13.4207 13.7542 13.2349 14.3448 13.1599 14.8995C13.1043 15.31 13.3921 15.6877 13.8026 15.7432C14.213 15.7987 14.5908 15.511 14.6463 15.1005C14.6957 14.7358 14.8181 14.3384 15.0629 13.9255C16.3907 11.686 15.7681 9.61567 14.4529 8.62071ZM12.9484 12.0772C13.2413 11.7843 13.2413 11.3095 12.9484 11.0166C12.6555 10.7237 12.1806 10.7237 11.8877 11.0166C11.4928 11.4115 11.2344 11.9456 11.0569 12.4907C10.8765 13.0446 10.7606 13.6699 10.6867 14.3031C10.539 15.5696 10.5503 16.9517 10.5994 18.034C10.6182 18.4478 10.9688 18.768 11.3826 18.7492C11.7964 18.7304 12.1166 18.3798 12.0979 17.966C12.0503 16.918 12.0424 15.6274 12.1766 14.4769C12.2437 13.9016 12.3441 13.3822 12.4831 12.9552C12.6251 12.5194 12.7894 12.2362 12.9484 12.0772Z" fill="#292556"/>
</svg>
