<svg width="24" height="24" viewBox="0 0 24 24" fill="none" xmlns="http://www.w3.org/2000/svg">
<path fill-rule="evenodd" clip-rule="evenodd" d="M7.10931 9.08448C7.58953 7.07908 8.31647 5.57668 9.00157 4.50753C9.36142 3.94595 9.70849 3.50581 10 3.1763L10.0896 3.0956C10.5671 2.6657 10.8059 2.45075 11.0898 2.40146C11.1821 2.38544 11.2761 2.38246 11.3692 2.39261C11.6557 2.42384 11.9076 2.62325 12.4113 3.02208L12.6061 3.1763C12.8501 3.41872 13.1267 3.71912 13.4174 4.08161C14.0718 4.89773 14.7957 6.0264 15.3792 7.51174C15.4658 7.36444 15.5272 7.267 15.6337 7.11817C15.7748 6.92112 15.9769 6.7056 16.1698 6.51684C16.388 6.30343 16.4971 6.19673 16.6545 6.17178C16.7012 6.16438 16.7615 6.16421 16.8082 6.17134C16.9658 6.19538 17.0791 6.30494 17.3057 6.52407C17.4824 6.695 17.659 6.87453 17.7658 7.00636C18.043 7.3486 18.4085 7.84866 18.7735 8.49247C19.5033 9.77943 20.2392 11.655 20.2499 13.9946L20.25 13.9981C20.25 16.6698 19.0555 18.6312 17.4155 19.9057C15.7981 21.1626 13.757 21.7481 12 21.7481C10.2551 21.7481 8.21318 21.2091 6.58945 19.9691C4.93969 18.7093 3.75 16.7432 3.75 13.9981L3.75002 13.9929C3.76006 12.5272 4.21593 11.1697 4.64981 10.2002C4.86877 9.71098 5.08724 9.3093 5.25213 9.02812L5.41717 8.78235L5.41717 8.78234L5.41717 8.78234C5.7096 8.34685 5.85581 8.12911 6.05574 8.08773C6.11921 8.07459 6.18463 8.07392 6.24836 8.08575C6.4491 8.12302 6.59975 8.33771 6.90106 8.7671L7.08422 9.02812L7.10931 9.08448ZM11.25 12.7505C11.25 13.3028 10.8023 13.7505 10.25 13.7505C9.69772 13.7505 9.25 13.3028 9.25 12.7505C9.25 12.1982 9.69772 11.7505 10.25 11.7505C10.8023 11.7505 11.25 12.1982 11.25 12.7505ZM14.75 17.2505C14.75 17.8028 14.3023 18.2505 13.75 18.2505C13.1977 18.2505 12.75 17.8028 12.75 17.2505C12.75 16.6982 13.1977 16.2505 13.75 16.2505C14.3023 16.2505 14.75 16.6982 14.75 17.2505ZM15.0302 13.0308C15.3231 12.7379 15.3231 12.263 15.0302 11.9702C14.7373 11.6773 14.2624 11.6773 13.9695 11.9702L8.96954 16.9703C8.67665 17.2632 8.67666 17.7381 8.96955 18.0309C9.26245 18.3238 9.73732 18.3238 10.0302 18.0309L15.0302 13.0308Z" fill="#292556"/>
</svg>
