<svg width="24" height="24" viewBox="0 0 24 24" fill="none" xmlns="http://www.w3.org/2000/svg">
<path fill-rule="evenodd" clip-rule="evenodd" d="M9.00157 4.50753C8.31647 5.57668 7.58953 7.07908 7.10931 9.08448L7.08422 9.02812L6.90106 8.7671C6.59975 8.33771 6.4491 8.12302 6.24836 8.08575C6.18463 8.07392 6.11921 8.07459 6.05574 8.08773C5.85581 8.12911 5.7096 8.34685 5.41717 8.78234L5.41717 8.78234L5.41717 8.78235L5.25213 9.02812C5.08724 9.3093 4.86877 9.71098 4.64981 10.2002C4.21593 11.1697 3.76006 12.5272 3.75002 13.9929L3.75 13.9981C3.75 16.7432 4.93969 18.7093 6.58945 19.9691C8.21318 21.2091 10.2551 21.7481 12 21.7481C13.757 21.7481 15.7981 21.1626 17.4155 19.9057C19.0555 18.6312 20.25 16.6698 20.25 13.9981L20.2499 13.9946C20.2392 11.655 19.5033 9.77943 18.7735 8.49247C18.4085 7.84866 18.043 7.3486 17.7658 7.00636C17.659 6.87453 17.4824 6.695 17.3057 6.52407C17.0791 6.30494 16.9658 6.19538 16.8082 6.17134C16.7615 6.16421 16.7012 6.16438 16.6545 6.17178C16.4971 6.19673 16.388 6.30343 16.1698 6.51684C15.9769 6.7056 15.7748 6.92112 15.6337 7.11817C15.5272 7.267 15.4658 7.36444 15.3792 7.51174C14.7957 6.0264 14.0718 4.89773 13.4174 4.08161C13.1267 3.71912 12.8501 3.41872 12.6061 3.1763L12.4113 3.02208C11.9076 2.62325 11.6557 2.42384 11.3692 2.39261C11.2761 2.38246 11.1821 2.38544 11.0898 2.40146C10.8059 2.45075 10.5671 2.6657 10.0896 3.0956L10 3.1763C9.70849 3.50581 9.36142 3.94595 9.00157 4.50753ZM15.75 17.4981C15.75 16.0355 14.871 14.492 14.1146 13.4105L13.3657 12.5292C12.8081 11.8731 12.5293 11.5451 12.1759 11.4818C12.0625 11.4616 11.9465 11.461 11.8329 11.4802C11.4789 11.5402 11.1971 11.8656 10.6334 12.5165L9.88727 13.378C9.12662 14.4556 8.25 15.9974 8.25 17.4981C8.25 18.9323 8.74811 20.0104 9.50001 20.7281C10.2367 21.4312 11.1754 21.7481 12 21.7481C13.6793 21.7481 15.75 20.3532 15.75 17.4981Z" fill="#292556"/>
</svg>
