<svg width="24" height="24" viewBox="0 0 24 24" fill="none" xmlns="http://www.w3.org/2000/svg">
<path fill-rule="evenodd" clip-rule="evenodd" d="M8.14264 5.38741C6.50782 7.64402 4.75 10.7164 4.75 13.6121C4.75 16.4416 5.7527 18.4939 7.19458 19.8349C8.61973 21.1604 10.4311 21.751 12 21.751C15.1605 21.751 19.25 19.1747 19.25 13.6121C19.25 12.185 18.7991 10.7089 18.166 9.32934C17.5301 7.94331 16.689 6.60894 15.8593 5.453C15.2961 4.66826 14.7218 3.94622 14.2168 3.3436V3.3436C14.0009 3.11546 13.893 3.0014 13.7941 2.91511C12.7637 2.0157 11.229 2.0102 10.1922 2.90218C10.0927 2.98776 9.97886 3.10637 9.75113 3.3436V3.3436C9.25719 3.92473 8.70028 4.61767 8.14264 5.38741ZM15.75 17.6134C15.75 20.3029 13.6071 21.5023 12 21.5023C10.3929 21.5023 8.25 20.3912 8.25 17.6134C8.25 16.2496 9.15395 14.7519 10.0742 13.5805C10.7063 12.7759 11.0223 12.3736 11.6754 12.2549C11.844 12.2243 12.1378 12.2247 12.3063 12.2558C12.959 12.3764 13.2762 12.7826 13.9108 13.5949C14.8362 14.7797 15.75 16.2858 15.75 17.6134Z" fill="#292556"/>
</svg>
