<svg width="24" height="24" viewBox="0 0 24 24" fill="none" xmlns="http://www.w3.org/2000/svg">
<path d="M20.75 11.3045V9.22816C20.75 7.1198 20.75 6.06562 20.2682 5.45335C20.0944 5.23246 19.9521 5.10322 19.7156 4.95137C19.06 4.53044 17.84 4.64783 15.3998 4.88261C13.2913 5.08549 11.1259 4.9648 8.75 4.37928V15.0853C12.5639 15.7174 14.7656 15.6466 17.3468 15.2892C18.7593 15.0936 19.4655 14.9958 19.9681 14.5631C20.1286 14.4248 20.2754 14.2564 20.3903 14.0784C20.75 13.5212 20.75 12.7823 20.75 11.3045Z" fill="#292556"/>
<path d="M4.25 3.75C4.25 2.92157 4.92157 2.25 5.75 2.25V2.25C6.57843 2.25 7.25 2.92157 7.25 3.75V20.25C7.25 21.0784 6.57843 21.75 5.75 21.75V21.75C4.92157 21.75 4.25 21.0784 4.25 20.25V3.75Z" fill="#292556"/>
</svg>
