<svg width="24" height="24" viewBox="0 0 24 24" fill="none" xmlns="http://www.w3.org/2000/svg">
<path fill-rule="evenodd" clip-rule="evenodd" d="M21.2895 11.6501C20.775 12.4659 19.3507 12.6224 16.5021 12.9355L15.6492 13.0292C15.462 13.0498 15.3684 13.0601 15.2808 13.0378C15.2518 13.0305 15.2236 13.0206 15.1964 13.0082C15.1141 12.9707 15.0476 12.9041 14.9144 12.771L11.2826 9.1392C11.1495 9.00606 11.0829 8.93949 11.0454 8.85717C11.033 8.83001 11.0231 8.80179 11.0158 8.77285C10.9935 8.68517 11.0038 8.59159 11.0244 8.40444V8.40443L11.1182 7.55135C11.4314 4.70297 11.588 3.27878 12.4038 2.76434C12.6583 2.60388 12.9457 2.50289 13.2446 2.46889C14.2029 2.35988 15.216 3.373 17.2422 5.39925L18.6544 6.81145C20.6808 8.83782 21.694 9.851 21.5849 10.8093C21.5509 11.1082 21.4499 11.3956 21.2895 11.6501ZM14.0533 14.177C14.0406 14.2572 13.9743 14.3235 13.8418 14.4561L7.94374 20.3541L7.94373 20.3541C7.28479 21.013 6.95532 21.3425 6.58778 21.4947C6.09773 21.6977 5.54711 21.6977 5.05705 21.4947C4.68951 21.3425 4.36004 21.013 3.7011 20.3541C3.04216 19.6951 2.71268 19.3657 2.56044 18.9981C2.35746 18.5081 2.35746 17.9574 2.56044 17.4674C2.71269 17.0998 3.04216 16.7704 3.7011 16.1114L9.59911 10.2134C9.73169 10.0808 9.79797 10.0146 9.8782 10.0018C9.90411 9.99774 9.93051 9.99774 9.95642 10.0018C10.0367 10.0146 10.1029 10.0808 10.2355 10.2134L13.8418 13.8197C13.9743 13.9522 14.0406 14.0185 14.0533 14.0987C14.0574 14.1247 14.0574 14.1511 14.0533 14.177ZM11.1632 13.8969C11.4561 13.604 11.4562 13.1291 11.1633 12.8363C10.8705 12.5435 10.3957 12.5435 10.1029 12.8362C9.80988 13.1291 9.80975 13.604 10.1027 13.8969C10.3955 14.1898 10.8704 14.1897 11.1632 13.8969Z" fill="#292556"/>
</svg>
