<svg width="24" height="24" viewBox="0 0 24 24" fill="none" xmlns="http://www.w3.org/2000/svg">
<path fill-rule="evenodd" clip-rule="evenodd" d="M12 21.75C17.3848 21.75 21.75 17.3848 21.75 12C21.75 6.61522 17.3848 2.25 12 2.25C6.61522 2.25 2.25 6.61522 2.25 12C2.25 17.3848 6.61522 21.75 12 21.75ZM6 12C6 10.4812 7.23122 9.25 8.75 9.25C10.2688 9.25 11.5 10.4812 11.5 12C11.5 13.5188 10.2688 14.75 8.75 14.75C7.23122 14.75 6 13.5188 6 12ZM12.5 12C12.5 10.4812 13.7312 9.25 15.25 9.25C16.7688 9.25 18 10.4812 18 12C18 13.5188 16.7688 14.75 15.25 14.75C13.7312 14.75 12.5 13.5188 12.5 12Z" fill="#292556"/>
</svg>
