<svg width="24" height="24" viewBox="0 0 24 24" fill="none" xmlns="http://www.w3.org/2000/svg">
<path fill-rule="evenodd" clip-rule="evenodd" d="M2.8574 5.95389C2.25 6.88679 2.25 8.17641 2.25 10.7556V13C2.25 15.8123 2.25 17.2184 2.96619 18.2042C3.19748 18.5226 3.47745 18.8025 3.79581 19.0338C4.78155 19.75 6.1877 19.75 9 19.75H15C17.8123 19.75 19.2184 19.75 20.2042 19.0338C20.5226 18.8025 20.8025 18.5226 21.0338 18.2042C21.75 17.2184 21.75 15.8123 21.75 13V12.0251C21.75 10.1368 21.75 9.19262 21.4177 8.45677C21.042 7.62455 20.3754 6.95803 19.5432 6.58226C18.8074 6.25 17.8632 6.25 15.9749 6.25H14.8122C13.9438 6.25 13.1147 5.88753 12.525 5.25C11.9353 4.61247 11.1062 4.25 10.2378 4.25H8.75565C6.17641 4.25 4.88679 4.25 3.95389 4.8574C3.51599 5.14251 3.14251 5.51599 2.8574 5.95389ZM12 8.5C12.3442 8.5 12.6441 8.73422 12.7276 9.0681C12.9564 9.98333 13.2808 10.5951 13.7178 11.0322C14.1549 11.4692 14.7667 11.7936 15.6819 12.0224C16.0158 12.1059 16.25 12.4058 16.25 12.75C16.25 13.0942 16.0158 13.3941 15.6819 13.4776C14.7667 13.7064 14.1549 14.0308 13.7178 14.4678C13.2808 14.9049 12.9564 15.5167 12.7276 16.4319C12.6441 16.7658 12.3442 17 12 17C11.6558 17 11.3559 16.7658 11.2724 16.4319C11.0436 15.5167 10.7192 14.9049 10.2822 14.4678C9.84514 14.0308 9.23333 13.7064 8.3181 13.4776C7.98422 13.3941 7.75 13.0942 7.75 12.75C7.75 12.4058 7.98422 12.1059 8.3181 12.0224C9.23333 11.7936 9.84514 11.4692 10.2822 11.0322C10.7192 10.5951 11.0436 9.98333 11.2724 9.0681C11.3559 8.73422 11.6558 8.5 12 8.5Z" fill="#292556"/>
</svg>
