<svg width="24" height="24" viewBox="0 0 24 24" fill="none" xmlns="http://www.w3.org/2000/svg">
<path fill-rule="evenodd" clip-rule="evenodd" d="M2.8574 5.95389C2.25 6.88679 2.25 8.17641 2.25 10.7556V13C2.25 15.8123 2.25 17.2184 2.96619 18.2042C3.19748 18.5226 3.47745 18.8025 3.79581 19.0338C4.78155 19.75 6.1877 19.75 9 19.75H15C17.8123 19.75 19.2184 19.75 20.2042 19.0338C20.5226 18.8025 20.8025 18.5226 21.0338 18.2042C21.75 17.2184 21.75 15.8123 21.75 13V12.0251C21.75 10.1368 21.75 9.19262 21.4177 8.45677C21.042 7.62455 20.3754 6.95803 19.5432 6.58226C18.8074 6.25 17.8632 6.25 15.9749 6.25H14.8122C13.9438 6.25 13.1147 5.88753 12.525 5.25C11.9353 4.61247 11.1062 4.25 10.2378 4.25H8.75565C6.17641 4.25 4.88679 4.25 3.95389 4.8574C3.51599 5.14251 3.14251 5.51599 2.8574 5.95389ZM12.75 10C12.75 9.58579 12.4142 9.25 12 9.25C11.5858 9.25 11.25 9.58579 11.25 10V12.25H9C8.58579 12.25 8.25 12.5858 8.25 13C8.25 13.4142 8.58579 13.75 9 13.75H11.25V16C11.25 16.4142 11.5858 16.75 12 16.75C12.4142 16.75 12.75 16.4142 12.75 16V13.75H15C15.4142 13.75 15.75 13.4142 15.75 13C15.75 12.5858 15.4142 12.25 15 12.25H12.75V10Z" fill="#292556"/>
</svg>
