<svg width="24" height="24" viewBox="0 0 24 24" fill="none" xmlns="http://www.w3.org/2000/svg">
<path fill-rule="evenodd" clip-rule="evenodd" d="M2.8574 5.95389C2.25 6.88679 2.25 8.17641 2.25 10.7556V13C2.25 15.8123 2.25 17.2184 2.96619 18.2042C3.19748 18.5226 3.47745 18.8025 3.79581 19.0338C4.78155 19.75 6.1877 19.75 9 19.75H15C17.8123 19.75 19.2184 19.75 20.2042 19.0338C20.5226 18.8025 20.8025 18.5226 21.0338 18.2042C21.75 17.2184 21.75 15.8123 21.75 13V12.0251C21.75 10.1368 21.75 9.19262 21.4177 8.45677C21.042 7.62455 20.3754 6.95803 19.5432 6.58226C18.8074 6.25 17.8632 6.25 15.9749 6.25H14.8122C13.9438 6.25 13.1147 5.88753 12.525 5.25C11.9353 4.61247 11.1062 4.25 10.2378 4.25H8.75565C6.17641 4.25 4.88679 4.25 3.95389 4.8574C3.51599 5.14251 3.14251 5.51599 2.8574 5.95389ZM13.7217 9.70604C13.8355 9.30776 13.6048 8.89265 13.2066 8.77886C12.8083 8.66506 12.3932 8.89568 12.2794 9.29396L10.2794 16.294C10.1656 16.6922 10.3962 17.1073 10.7945 17.2211C11.1928 17.3349 11.6079 17.1043 11.7217 16.706L13.7217 9.70604ZM15.5313 10.471C15.2384 10.1781 14.7635 10.1781 14.4706 10.471C14.1778 10.7639 14.1778 11.2387 14.4706 11.5316L15.9403 13.0013L14.4706 14.471C14.1778 14.7639 14.1778 15.2387 14.4706 15.5316C14.7635 15.8245 15.2384 15.8245 15.5313 15.5316L17.1778 13.8852C17.6659 13.397 17.6659 12.6056 17.1778 12.1174L15.5313 10.471ZM9.53131 11.5316C9.8242 11.2387 9.8242 10.7639 9.53131 10.471C9.23841 10.1781 8.76354 10.1781 8.47065 10.471L6.8242 12.1174C6.33605 12.6056 6.33604 13.397 6.8242 13.8852L8.47065 15.5316C8.76354 15.8245 9.23841 15.8245 9.53131 15.5316C9.8242 15.2387 9.8242 14.7639 9.53131 14.471L8.06164 13.0013L9.53131 11.5316Z" fill="#292556"/>
</svg>
