<svg width="24" height="24" viewBox="0 0 24 24" fill="none" xmlns="http://www.w3.org/2000/svg">
<path fill-rule="evenodd" clip-rule="evenodd" d="M13 2.25H11C8.1877 2.25 6.78155 2.25 5.79581 2.96619C5.47745 3.19748 5.19748 3.47745 4.96619 3.79581C4.25 4.78155 4.25 6.1877 4.25 9V15C4.25 17.8123 4.25 19.2184 4.96619 20.2042C5.19748 20.5226 5.47745 20.8025 5.79581 21.0338C6.78155 21.75 8.1877 21.75 11 21.75H13C15.8123 21.75 17.2184 21.75 18.2042 21.0338C18.5226 20.8025 18.8025 20.5226 19.0338 20.2042C19.75 19.2184 19.75 17.8123 19.75 15V9C19.75 6.1877 19.75 4.78155 19.0338 3.79581C18.8025 3.47745 18.5226 3.19748 18.2042 2.96619C17.2184 2.25 15.8123 2.25 13 2.25ZM9.75 8C9.75 8.55228 9.30228 9 8.75 9C8.19772 9 7.75 8.55228 7.75 8C7.75 7.44772 8.19772 7 8.75 7C9.30228 7 9.75 7.44772 9.75 8ZM12 7.25C11.5858 7.25 11.25 7.58579 11.25 8C11.25 8.41421 11.5858 8.75 12 8.75H15.5C15.9142 8.75 16.25 8.41421 16.25 8C16.25 7.58579 15.9142 7.25 15.5 7.25H12ZM8.5 11.25C8.08579 11.25 7.75 11.5858 7.75 12C7.75 12.4142 8.08579 12.75 8.5 12.75H15.5C15.9142 12.75 16.25 12.4142 16.25 12C16.25 11.5858 15.9142 11.25 15.5 11.25H8.5ZM8.5 15.25C8.08579 15.25 7.75 15.5858 7.75 16C7.75 16.4142 8.08579 16.75 8.5 16.75H15.5C15.9142 16.75 16.25 16.4142 16.25 16C16.25 15.5858 15.9142 15.25 15.5 15.25H8.5Z" fill="#292556"/>
</svg>
