<svg width="24" height="24" viewBox="0 0 24 24" fill="none" xmlns="http://www.w3.org/2000/svg">
<path fill-rule="evenodd" clip-rule="evenodd" d="M21.75 12C21.75 17.3848 17.3848 21.75 12 21.75C6.61522 21.75 2.25 17.3848 2.25 12C2.25 6.61522 6.61522 2.25 12 2.25C17.3848 2.25 21.75 6.61522 21.75 12ZM8.75 7.75C9.16421 7.75 9.5 8.08579 9.5 8.5V15.5C9.5 15.9142 9.16421 16.25 8.75 16.25C8.33579 16.25 8 15.9142 8 15.5V8.5C8 8.08579 8.33579 7.75 8.75 7.75ZM17.2063 12.2255C17.1211 12.6911 16.6635 13.0506 15.7482 13.7697L14.64 14.6403C13.2471 15.7346 12.5506 16.2818 11.9665 16.1458C11.7842 16.1033 11.6138 16.0205 11.4678 15.9034C11 15.5281 11 14.6424 11 12.871V11.1296C11 9.35803 11 8.47224 11.4678 8.09696C11.6138 7.97983 11.7843 7.89699 11.9666 7.85455C12.5507 7.71858 13.2472 8.26587 14.6402 9.36047L15.7484 10.2313C16.6636 10.9505 17.1212 11.3101 17.2064 11.7756C17.2336 11.9243 17.2336 12.0768 17.2063 12.2255Z" fill="#292556"/>
</svg>
