<svg width="24" height="24" viewBox="0 0 24 24" fill="none" xmlns="http://www.w3.org/2000/svg">
<path fill-rule="evenodd" clip-rule="evenodd" d="M9.05764 8.08109L11.0574 8.36311C11.4756 8.42208 11.6846 8.45157 11.8949 8.45746C11.965 8.45943 12.035 8.45943 12.1051 8.45746C12.3154 8.45157 12.5244 8.42208 12.9426 8.36311L14.9424 8.08109C17.2733 7.75237 18.4388 7.58801 19.346 7.93687C20.1669 8.25254 20.8507 8.84669 21.2779 9.61544C21.75 10.465 21.75 11.642 21.75 13.996C21.75 16.35 21.75 17.5271 21.2779 18.3766C20.8507 19.1454 20.1669 19.7395 19.346 20.0552C18.4388 20.4041 17.2733 20.2397 14.9424 19.911L12.9426 19.629C12.5244 19.57 12.3154 19.5405 12.1051 19.5346C12.035 19.5327 11.965 19.5327 11.8949 19.5346C11.6846 19.5405 11.4756 19.57 11.0574 19.629L9.05764 19.911C6.7267 20.2397 5.56122 20.4041 4.65402 20.0552C3.83315 19.7395 3.14934 19.1454 2.72213 18.3766C2.25 17.5271 2.25 16.35 2.25 13.996C2.25 11.642 2.25 10.465 2.72213 9.61544C3.14934 8.84669 3.83315 8.25254 4.65402 7.93687C5.56122 7.58801 6.72669 7.75237 9.05764 8.08109ZM8 11.7499C8.41421 11.7499 8.75 12.0857 8.75 12.4999V13.2499H9.5C9.91421 13.2499 10.25 13.5857 10.25 13.9999C10.25 14.4142 9.91421 14.7499 9.5 14.7499H8.75V15.4999C8.75 15.9142 8.41421 16.2499 8 16.2499C7.58579 16.2499 7.25 15.9142 7.25 15.4999V14.7499H6.5C6.08579 14.7499 5.75 14.4142 5.75 13.9999C5.75 13.5857 6.08579 13.2499 6.5 13.2499H7.25V12.4999C7.25 12.0857 7.58579 11.7499 8 11.7499ZM15.25 12.4999C15.25 12.9142 15.5858 13.2499 16 13.2499C16.4142 13.2499 16.75 12.9142 16.75 12.4999C16.75 12.0857 16.4142 11.7499 16 11.7499C15.5858 11.7499 15.25 12.0857 15.25 12.4999ZM15.25 13.9999C15.25 14.4142 14.9142 14.7499 14.5 14.7499C14.0858 14.7499 13.75 14.4142 13.75 13.9999C13.75 13.5857 14.0858 13.2499 14.5 13.2499C14.9142 13.2499 15.25 13.5857 15.25 13.9999ZM18.25 13.9999C18.25 14.4142 17.9142 14.7499 17.5 14.7499C17.0858 14.7499 16.75 14.4142 16.75 13.9999C16.75 13.5857 17.0858 13.2499 17.5 13.2499C17.9142 13.2499 18.25 13.5857 18.25 13.9999ZM16 16.2499C15.5858 16.2499 15.25 15.9142 15.25 15.4999C15.25 15.0857 15.5858 14.7499 16 14.7499C16.4142 14.7499 16.75 15.0857 16.75 15.4999C16.75 15.9142 16.4142 16.2499 16 16.2499Z" fill="#292556"/>
<path d="M17.5 3.75C17.9142 3.75 18.25 3.41421 18.25 3C18.25 2.58579 17.9142 2.25 17.5 2.25V3.75ZM12.75 9.2V8.4H11.25V9.2H12.75ZM17.4 3.75H17.5V2.25H17.4V3.75ZM12.75 8.4C12.75 7.25837 12.751 6.4624 12.8173 5.85114C12.882 5.25392 13.0016 4.92262 13.1797 4.67748L11.9662 3.79581C11.5713 4.33926 11.4045 4.96472 11.326 5.68957C11.249 6.40038 11.25 7.29179 11.25 8.4H12.75ZM17.4 2.25C16.2918 2.25 15.4004 2.24897 14.6896 2.32598C13.9647 2.40451 13.3393 2.57134 12.7958 2.96619L13.6775 4.17971C13.9226 4.00161 14.2539 3.88196 14.8511 3.81726C15.4624 3.75103 16.2584 3.75 17.4 3.75V2.25ZM13.1797 4.67748C13.3185 4.48647 13.4865 4.31849 13.6775 4.17971L12.7958 2.96619C12.4775 3.19748 12.1975 3.47745 11.9662 3.79581L13.1797 4.67748Z" fill="#292556"/>
</svg>
