<svg width="24" height="24" viewBox="0 0 24 24" fill="none" xmlns="http://www.w3.org/2000/svg">
<path fill-rule="evenodd" clip-rule="evenodd" d="M11.2502 3.99704V2.27832C9.12233 2.44017 7.18535 3.28506 5.65806 4.59422L6.87263 5.80879C7.16552 6.10169 7.16552 6.57656 6.87263 6.86945C6.57973 7.16234 6.10486 7.16234 5.81197 6.86945L4.59717 5.65466C3.28705 7.18174 2.44128 9.11883 2.27876 11.247H4.00022C4.41443 11.247 4.75022 11.5828 4.75022 11.997C4.75022 12.4113 4.41443 12.747 4.00022 12.747H2.27832C2.43965 14.8761 3.28475 16.8141 4.59455 18.3421L5.81347 17.1238C6.10643 16.8309 6.58131 16.831 6.87413 17.124C7.16695 17.417 7.16684 17.8918 6.87388 18.1847L5.655 19.403C7.18276 20.7136 9.12087 21.5595 11.2502 21.7215L11.2498 19.9972C11.2498 19.583 11.5855 19.2471 11.9997 19.247C12.4139 19.247 12.7498 19.5827 12.7498 19.9969L12.7502 21.7215C14.8795 21.5595 16.8176 20.7136 18.3454 19.4029L17.1257 18.1832C16.8328 17.8903 16.8328 17.4154 17.1257 17.1225C17.4186 16.8296 17.8934 16.8296 18.1863 17.1225L19.4058 18.342C20.7155 16.814 21.5606 14.876 21.7219 12.747H20.0002C19.586 12.747 19.2502 12.4113 19.2502 11.997C19.2502 11.5828 19.586 11.247 20.0002 11.247H21.7215C21.559 9.1189 20.7132 7.18185 19.4032 5.65479L18.1878 6.87071C17.895 7.16367 17.4201 7.16378 17.1272 6.87096C16.8342 6.57813 16.8341 6.10326 17.1269 5.8103L18.3423 4.59434C16.8151 3.28515 14.8781 2.44023 12.7502 2.27834V3.99704C12.7502 4.41126 12.4144 4.74704 12.0002 4.74704C11.586 4.74704 11.2502 4.41126 11.2502 3.99704ZM11.9998 6.99704C12.414 6.99704 12.7498 7.33283 12.7498 7.74704V9.87802C13.6238 10.187 14.2501 11.0203 14.2501 11.9999C14.2501 13.2426 13.2428 14.2499 12.0001 14.2499C10.7575 14.2499 9.75012 13.2423 9.75012 11.9996C9.75012 11.0202 10.3761 10.1868 11.2498 9.87791V7.74704C11.2498 7.33283 11.5856 6.99704 11.9998 6.99704Z" fill="#292556"/>
</svg>
