<svg width="24" height="24" viewBox="0 0 24 24" fill="none" xmlns="http://www.w3.org/2000/svg">
<path fill-rule="evenodd" clip-rule="evenodd" d="M9.85336 2.83217C9.61195 3.02297 9.36265 3.30345 8.86406 3.86442C8.70548 4.04282 8.6262 4.13203 8.54311 4.21383C8.1185 4.63186 7.59419 4.93457 7.01986 5.09327C6.90748 5.12433 6.79058 5.14839 6.55679 5.19652C5.82168 5.34783 5.45413 5.42349 5.16819 5.53716C3.66142 6.13616 2.76336 7.69165 2.998 9.29605C3.04252 9.60051 3.16078 9.95665 3.39729 10.6689C3.47251 10.8955 3.51012 11.0087 3.53942 11.1216C3.68914 11.6983 3.68914 12.3037 3.53942 12.8805C3.51012 12.9933 3.47251 13.1066 3.39729 13.3331C3.16078 14.0454 3.04252 14.4015 2.99799 14.706C2.76336 16.3104 3.66142 17.8659 5.16819 18.4649C5.45413 18.5786 5.82168 18.6542 6.55679 18.8055C6.79058 18.8537 6.90748 18.8777 7.01986 18.9088C7.5942 19.0675 8.1185 19.3702 8.54311 19.7882C8.6262 19.87 8.70548 19.9592 8.86406 20.1376L8.86408 20.1377C9.36266 20.6986 9.61195 20.9791 9.85336 21.1699C11.1255 22.1753 12.9216 22.1753 14.1938 21.1699C14.4352 20.9791 14.6845 20.6986 15.183 20.1377L15.1831 20.1376C15.3416 19.9592 15.4209 19.87 15.504 19.7882C15.9286 19.3702 16.4529 19.0675 17.0272 18.9088C17.1396 18.8777 17.2565 18.8537 17.4903 18.8055C18.2254 18.6542 18.593 18.5786 18.8789 18.4649C20.3857 17.8659 21.2838 16.3104 21.0491 14.706C21.0046 14.4016 20.8863 14.0454 20.6498 13.3332L20.6498 13.3331L20.6498 13.333C20.5746 13.1066 20.537 12.9933 20.5077 12.8805C20.358 12.3037 20.358 11.6983 20.5077 11.1216C20.537 11.0087 20.5746 10.8955 20.6498 10.669L20.6498 10.6689C20.8863 9.95665 21.0046 9.60051 21.0491 9.29605C21.2838 7.69165 20.3857 6.13616 18.8789 5.53716C18.593 5.42349 18.2254 5.34783 17.4903 5.19652L17.4903 5.19652C17.2565 5.14839 17.1396 5.12433 17.0272 5.09327C16.4529 4.93457 15.9286 4.63186 15.504 4.21383C15.4209 4.13203 15.3416 4.04282 15.1831 3.86442L15.1831 3.86442C14.6845 3.30345 14.4352 3.02297 14.1938 2.83217C12.9216 1.82678 11.1255 1.82678 9.85336 2.83217ZM12.0001 14.2496C13.2428 14.2496 14.2501 13.2423 14.2501 11.9996C14.2501 10.757 13.2428 9.74963 12.0001 9.74963C10.7575 9.74963 9.75012 10.757 9.75012 11.9996C9.75012 13.2423 10.7575 14.2496 12.0001 14.2496Z" fill="#292556"/>
</svg>
