<svg width="24" height="24" viewBox="0 0 24 24" fill="none" xmlns="http://www.w3.org/2000/svg">
<path fill-rule="evenodd" clip-rule="evenodd" d="M12.25 3V2.25H11C8.1877 2.25 6.78155 2.25 5.79581 2.96619C5.47745 3.19748 5.19748 3.47745 4.96619 3.79581C4.25 4.78155 4.25 6.1877 4.25 9V15C4.25 17.8123 4.25 19.2184 4.96619 20.2042C5.19748 20.5226 5.47745 20.8025 5.79581 21.0338C6.78155 21.75 8.1877 21.75 11 21.75H13C15.8123 21.75 17.2184 21.75 18.2042 21.0338C18.5225 20.8025 18.8025 20.5226 19.0338 20.2042C19.75 19.2184 19.75 17.8123 19.75 15V9.75H19C16.1877 9.75 14.7816 9.75 13.7958 9.03381C13.4775 8.80252 13.1975 8.52255 12.9662 8.2042C12.25 7.21845 12.25 5.8123 12.25 3ZM13.75 4.2V2.25L19.75 8.25L17.8 8.25C16.1126 8.25 15.2689 8.25 14.6775 7.82029C14.4865 7.68151 14.3185 7.51353 14.1797 7.32252C13.75 6.73107 13.75 5.88738 13.75 4.2ZM9 8.5C9.34415 8.5 9.64414 8.73422 9.72761 9.0681C9.83142 9.48333 9.9683 9.72014 10.1241 9.87592C10.2799 10.0317 10.5167 10.1686 10.9319 10.2724C11.2658 10.3559 11.5 10.6558 11.5 11C11.5 11.3442 11.2658 11.6441 10.9319 11.7276C10.5167 11.8314 10.2799 11.9683 10.1241 12.1241C9.9683 12.2799 9.83142 12.5167 9.72761 12.9319C9.64414 13.2658 9.34415 13.5 9 13.5C8.65585 13.5 8.35586 13.2658 8.27239 12.9319C8.16858 12.5167 8.0317 12.2799 7.87592 12.1241C7.72014 11.9683 7.48333 11.8314 7.0681 11.7276C6.73422 11.6441 6.5 11.3442 6.5 11C6.5 10.6558 6.73422 10.3559 7.0681 10.2724C7.48333 10.1686 7.72014 10.0317 7.87592 9.87592C8.0317 9.72014 8.16858 9.48333 8.27239 9.0681C8.35586 8.73422 8.65585 8.5 9 8.5ZM13.25 11C13.5942 11 13.8941 11.2342 13.9776 11.5681C14.2064 12.4833 14.5308 13.0951 14.9678 13.5322C15.4049 13.9692 16.0167 14.2936 16.9319 14.5224C17.2658 14.6059 17.5 14.9058 17.5 15.25C17.5 15.5942 17.2658 15.8941 16.9319 15.9776C16.0167 16.2064 15.4049 16.5308 14.9678 16.9678C14.5308 17.4049 14.2064 18.0167 13.9776 18.9319C13.8941 19.2658 13.5942 19.5 13.25 19.5C12.9058 19.5 12.6059 19.2658 12.5224 18.9319C12.2936 18.0167 11.9692 17.4049 11.5322 16.9678C11.0951 16.5308 10.4833 16.2064 9.5681 15.9776C9.23422 15.8941 9 15.5942 9 15.25C9 14.9058 9.23422 14.6059 9.5681 14.5224C10.4833 14.2936 11.0951 13.9692 11.5322 13.5322C11.9692 13.0951 12.2936 12.4833 12.5224 11.5681C12.6059 11.2342 12.9058 11 13.25 11Z" fill="#292556"/>
</svg>
