<svg width="24" height="24" viewBox="0 0 24 24" fill="none" xmlns="http://www.w3.org/2000/svg">
<path fill-rule="evenodd" clip-rule="evenodd" d="M12 10H4.25V14C4.25 16.8019 4.25 18.2029 4.8225 19.2607C5.26168 20.0723 5.92772 20.7383 6.73925 21.1775C7.79714 21.75 9.19809 21.75 12 21.75C14.8019 21.75 16.2029 21.75 17.2607 21.1775C18.0723 20.7383 18.7383 20.0723 19.1775 19.2607C19.75 18.2029 19.75 16.8019 19.75 14V10H12ZM12.75 12C12.75 11.5858 12.4142 11.25 12 11.25C11.5858 11.25 11.25 11.5858 11.25 12V19C11.25 19.4143 11.5858 19.75 12 19.75C12.4142 19.75 12.75 19.4143 12.75 19V12Z" fill="#292556"/>
<path d="M9 3L11.25 6M15 3L12.75 6M11.25 6H5C3.89543 6 3 6.89543 3 8V8C3 9.10457 3.89543 10 5 10H19C20.1046 10 21 9.10457 21 8V8C21 6.89543 20.1046 6 19 6H12.75M11.25 6H12.75" stroke="#292556" stroke-width="1.5" stroke-linecap="round" stroke-linejoin="round"/>
</svg>
