<svg width="24" height="24" viewBox="0 0 24 24" fill="none" xmlns="http://www.w3.org/2000/svg">
<path fill-rule="evenodd" clip-rule="evenodd" d="M3 13.6V11.75H7.18934L5.96967 12.9697C5.67678 13.2626 5.67678 13.7374 5.96967 14.0303C6.26256 14.3232 6.73744 14.3232 7.03033 14.0303L8.25 12.8107V19C6.09977 18.9997 5.00752 18.9871 4.23664 18.4271C3.98196 18.242 3.75799 18.018 3.57295 17.7634C3 16.9748 3 15.8498 3 13.6ZM9.75 19H15.6C17.8498 19 18.9748 19 19.7634 18.4271C20.018 18.242 20.242 18.018 20.4271 17.7634C21 16.9748 21 15.8498 21 13.6V11.75H10.8107L12.0303 12.9697C12.3232 13.2626 12.3232 13.7374 12.0303 14.0303C11.7374 14.3232 11.2626 14.3232 10.9697 14.0303L9.75 12.8107V19ZM21 10.4C21 10.3494 21 10.2994 21 10.25C20.9997 8.09977 20.9871 7.00752 20.4271 6.23665C20.242 5.98196 20.018 5.75799 19.7634 5.57295C18.9748 5 17.8498 5 15.6 5H9.75V7.37803C9.98458 7.29512 10.237 7.25 10.5 7.25C11.7426 7.25 12.75 8.25736 12.75 9.5C12.75 9.76298 12.7049 10.0154 12.622 10.25H21M8.25 5.00001C6.09977 5.00029 5.00752 5.01288 4.23664 5.57295C3.98196 5.75799 3.75799 5.98196 3.57295 6.23665C3.01288 7.00752 3.00029 8.09977 3.00001 10.25H5.37803C5.29512 10.0154 5.25 9.76298 5.25 9.5C5.25 8.25736 6.25736 7.25 7.5 7.25C7.76298 7.25 8.01542 7.29512 8.25 7.37803V5.00001ZM10.5 8.75C10.0858 8.75 9.75 9.08579 9.75 9.5C9.75 9.91422 10.0858 10.25 10.5 10.25C10.9142 10.25 11.25 9.91422 11.25 9.5C11.25 9.08579 10.9142 8.75 10.5 8.75ZM8.25 9.5C8.25 9.91422 7.91421 10.25 7.5 10.25C7.08579 10.25 6.75 9.91422 6.75 9.5C6.75 9.08579 7.08579 8.75 7.5 8.75C7.91421 8.75 8.25 9.08579 8.25 9.5Z" fill="#292556"/>
</svg>
