<svg width="24" height="24" viewBox="0 0 24 24" fill="none" xmlns="http://www.w3.org/2000/svg">
<path d="M7 4.5L4.65625 12M17 4.5L19.3438 12M10.5 15.6771C10.8665 15.2619 11.4027 15 12 15C12.5973 15 13.1335 15.2619 13.5 15.6771" stroke="#292556" stroke-width="1.5" stroke-linecap="round" stroke-linejoin="round"/>
<path d="M6.75 11.25H4.5C4.26783 11.25 4.15175 11.25 4.05397 11.2596C3.10441 11.3532 2.35315 12.1044 2.25963 13.054C2.25 13.1517 2.25 13.2678 2.25 13.5V15.75C2.25 18.2353 4.26472 20.25 6.75 20.25C9.23528 20.25 11.25 18.2353 11.25 15.75C11.25 13.2647 9.23528 11.25 6.75 11.25Z" fill="#292556"/>
<path d="M19.5 11.25H17.25C14.7647 11.25 12.75 13.2647 12.75 15.75C12.75 18.2353 14.7647 20.25 17.25 20.25C19.7353 20.25 21.75 18.2353 21.75 15.75V13.5C21.75 13.2678 21.75 13.1517 21.7404 13.054C21.6468 12.1044 20.8956 11.3532 19.946 11.2596C19.8483 11.25 19.7322 11.25 19.5 11.25Z" fill="#292556"/>
</svg>
