<svg width="24" height="24" viewBox="0 0 24 24" fill="none" xmlns="http://www.w3.org/2000/svg">
<path d="M12 2.25C6.61522 2.25 2.25 6.61522 2.25 12C2.25 17.3848 6.61522 21.75 12 21.75C17.3848 21.75 21.75 17.3848 21.75 12C21.75 11.2978 21.75 10.9467 21.5815 10.6944C21.5085 10.5852 21.4148 10.4915 21.3056 10.4185C21.0533 10.25 20.7022 10.25 20 10.25H13.05C12.3001 10.25 11.9251 10.25 11.6622 10.441C11.5773 10.5027 11.5027 10.5773 11.441 10.6622C11.25 10.9251 11.25 11.3001 11.25 12.05V12.95C11.25 13.6999 11.25 14.0749 11.441 14.3378C11.5027 14.4227 11.5773 14.4973 11.6622 14.559C11.9251 14.75 12.3001 14.75 13.05 14.75H16.4732C15.5487 16.2506 13.8904 17.25 12 17.25C9.1005 17.25 6.75 14.8995 6.75 12C6.75 9.1005 9.1005 6.75 12 6.75C13.45 6.75 14.7614 7.33681 15.7123 8.28769C16.0052 8.58058 16.4801 8.58058 16.773 8.28769L18.8943 6.16637C19.1872 5.87348 19.1872 5.3986 18.8943 5.10571C17.1307 3.34213 14.6922 2.25 12 2.25Z" fill="#292556"/>
</svg>
