<svg width="24" height="24" viewBox="0 0 24 24" fill="none" xmlns="http://www.w3.org/2000/svg">
<path fill-rule="evenodd" clip-rule="evenodd" d="M11.8492 2.8571C11.9495 2.84842 12.0505 2.84842 12.1508 2.8571C12.4595 2.8838 12.7403 3.01392 13.0017 3.13503L13.0663 3.1649L21.3136 6.9613C21.5796 7.08373 21.75 7.34977 21.75 7.64258V17.3497L21.7501 17.427C21.751 17.7384 21.7519 18.0731 21.631 18.3841C21.5917 18.485 21.5432 18.582 21.4861 18.6739C21.3099 18.9572 21.0416 19.1573 20.7919 19.3435L20.7919 19.3435L20.73 19.3897L19.2 20.5372C18.8686 20.7858 18.3985 20.7186 18.15 20.3872C17.9015 20.0559 17.9686 19.5858 18.3 19.3372L19.83 18.1897C19.9949 18.066 20.0876 17.996 20.1536 17.9387C20.2026 17.8963 20.2135 17.8803 20.2133 17.8803C20.2133 17.8803 20.2129 17.8808 20.2123 17.8818C20.2205 17.8686 20.2274 17.8548 20.233 17.8403C20.2303 17.8472 20.238 17.8354 20.2434 17.7592C20.2496 17.672 20.25 17.5559 20.25 17.3497V8.83895L13.1112 12.2951L13.0439 12.3278C12.7723 12.4601 12.4805 12.6024 12.1576 12.6316C12.0528 12.6411 11.9473 12.6411 11.8424 12.6316C11.5195 12.6024 11.2277 12.4602 10.9562 12.3278L10.8889 12.2951L2.67319 8.31763C2.41202 8.19119 2.24721 7.92544 2.25004 7.63528C2.25286 7.34512 2.42281 7.08263 2.68639 6.9613L10.9337 3.1649L10.9983 3.13503C11.2597 3.01392 11.5405 2.8838 11.8492 2.8571ZM18.9081 15.6506V11.05L13.1827 13.8393L13.1827 13.8393C12.6675 14.0903 12.4099 14.2158 12.136 14.2407C12.0456 14.2489 11.9547 14.2489 11.8644 14.2407C11.5905 14.2158 11.3329 14.0903 10.8177 13.8393L5.09229 11.05V15.6506C5.09229 15.9903 5.09229 16.1602 5.15795 16.3066C5.17954 16.3547 5.20614 16.4005 5.23731 16.443C5.33217 16.5724 5.47984 16.6564 5.7752 16.8243L11.3331 19.9832C11.6219 20.1474 11.7663 20.2295 11.9228 20.2457C11.9743 20.251 12.0261 20.251 12.0776 20.2457C12.234 20.2295 12.3784 20.1474 12.6673 19.9832L18.2252 16.8243C18.5205 16.6564 18.6682 16.5724 18.763 16.443C18.7942 16.4005 18.8208 16.3547 18.8424 16.3066C18.9081 16.1602 18.9081 15.9903 18.9081 15.6506Z" fill="#292556"/>
</svg>
