<svg width="24" height="24" viewBox="0 0 24 24" fill="none" xmlns="http://www.w3.org/2000/svg">
<path d="M10.75 17.7C10.75 19.3874 10.75 20.2311 10.3203 20.8225C10.1815 21.0135 10.0135 21.1815 9.82252 21.3203C9.23107 21.75 8.38738 21.75 6.7 21.75L6.3 21.75C4.61262 21.75 3.76893 21.75 3.17748 21.3203C2.98647 21.1815 2.81849 21.0135 2.67971 20.8225C2.25 20.2311 2.25 19.3874 2.25 17.7V6.3C2.25 4.61262 2.25 3.76893 2.67971 3.17748C2.81849 2.98647 2.98647 2.81849 3.17748 2.67971C3.76893 2.25 4.61262 2.25 6.3 2.25H6.7C8.38738 2.25 9.23107 2.25 9.82252 2.67971C10.0135 2.81849 10.1815 2.98647 10.3203 3.17748C10.75 3.76893 10.75 4.61262 10.75 6.3V17.7Z" fill="#292556"/>
<path d="M21.75 6.7C21.75 8.38738 21.75 9.23107 21.3203 9.82252C21.1815 10.0135 21.0135 10.1815 20.8225 10.3203C20.2311 10.75 19.3874 10.75 17.7 10.75L17.3 10.75C15.6126 10.75 14.7689 10.75 14.1775 10.3203C13.9865 10.1815 13.8185 10.0135 13.6797 9.82252C13.25 9.23107 13.25 8.38738 13.25 6.7V6.3C13.25 4.61262 13.25 3.76893 13.6797 3.17748C13.8185 2.98647 13.9865 2.81849 14.1775 2.67971C14.7689 2.25 15.6126 2.25 17.3 2.25H17.7C19.3874 2.25 20.2311 2.25 20.8225 2.67971C21.0135 2.81849 21.1815 2.98647 21.3203 3.17748C21.75 3.76893 21.75 4.61262 21.75 6.3V6.7Z" fill="#292556"/>
<path d="M21.75 17.7C21.75 19.3874 21.75 20.2311 21.3203 20.8225C21.1815 21.0135 21.0135 21.1815 20.8225 21.3203C20.2311 21.75 19.3874 21.75 17.7 21.75H17.3C15.6126 21.75 14.7689 21.75 14.1775 21.3203C13.9865 21.1815 13.8185 21.0135 13.6797 20.8225C13.25 20.2311 13.25 19.3874 13.25 17.7V17.3C13.25 15.6126 13.25 14.7689 13.6797 14.1775C13.8185 13.9865 13.9865 13.8185 14.1775 13.6797C14.7689 13.25 15.6126 13.25 17.3 13.25H17.7C19.3874 13.25 20.2311 13.25 20.8225 13.6797C21.0135 13.8185 21.1815 13.9865 21.3203 14.1775C21.75 14.7689 21.75 15.6126 21.75 17.3V17.7Z" fill="#292556"/>
</svg>
