<svg width="24" height="24" viewBox="0 0 24 24" fill="none" xmlns="http://www.w3.org/2000/svg">
<path d="M19.725 9.06102C20.7798 10.1159 21.3072 10.6433 21.5358 11.2386C21.8014 11.9307 21.8014 12.6967 21.5358 13.3888C21.3072 13.9841 20.7798 14.5116 19.725 15.5664L19.3737 15.9177C18.648 16.6434 18.2851 17.0063 17.9015 17.2141C17.0099 17.6972 15.9346 17.6972 15.043 17.2141C14.6594 17.0063 14.2966 16.6434 13.5709 15.9177V15.9177C13.4997 15.8465 13.4641 15.8109 13.4027 15.7414C13.3043 15.63 13.1068 15.3518 13.0341 15.2221C12.9888 15.1412 12.9974 15.159 12.9939 15.1519C12.8669 14.8882 12.7948 14.6514 12.7814 14.4207L6.65733 20.5447C5.76319 21.4389 4.31351 21.4389 3.41938 20.5447V20.5447C2.52501 19.6504 2.52527 18.2002 3.41997 17.3062L9.54565 11.185C9.3145 11.1715 9.07723 11.0992 8.81295 10.9717C8.80481 10.9678 8.82516 10.9776 8.74537 10.9329C8.61474 10.8597 8.33519 10.6612 8.22307 10.562C8.15459 10.5014 8.11968 10.4665 8.04987 10.3967V10.3967C7.33359 9.68041 6.97544 9.32226 6.76891 8.94449C6.27863 8.04772 6.27863 6.96304 6.76891 6.06627C6.97544 5.6885 7.33359 5.33036 8.04987 4.61407L8.41125 4.25269C9.4661 3.19784 9.99352 2.67042 10.5888 2.4419C11.281 2.17622 12.0469 2.17622 12.739 2.4419C13.3344 2.67042 13.8618 3.19784 14.9166 4.25269L15.6945 5.03051L15.7711 4.95383C16.6654 4.05953 18.1154 4.05953 19.0097 4.95383V4.95383C19.904 5.84813 19.904 7.29808 19.0097 8.19238L18.933 8.26906L19.725 9.06102Z" fill="#292556"/>
</svg>
