<svg width="24" height="24" viewBox="0 0 24 24" fill="none" xmlns="http://www.w3.org/2000/svg">
<path fill-rule="evenodd" clip-rule="evenodd" d="M4.51597 9.45803C4.832 11.3671 5.16467 12.8188 6.50078 14.1473L6.50079 14.1473C7.31386 14.9557 7.72039 15.36 7.85986 15.5508C8.23334 16.062 8.3013 16.2255 8.40047 16.8507C8.41781 16.9601 8.42703 17.0852 8.43193 17.25H8C7.58579 17.25 7.25 17.5858 7.25 18C7.25 18.4142 7.58579 18.75 8 18.75H16.5C16.9142 18.75 17.25 18.4142 17.25 18C17.25 17.5858 16.9142 17.25 16.5 17.25H16.314C16.3176 16.8696 16.3302 16.627 16.3732 16.4163L16.3757 16.4044C16.3896 16.3362 16.3966 16.3021 16.4052 16.2685C16.4139 16.2348 16.4242 16.2016 16.445 16.1353L16.4486 16.1236C16.5389 15.834 16.9079 15.1649 17.6457 13.8268L17.6458 13.8268L17.6458 13.8267L17.6458 13.8266C18.3032 12.6344 18.5 11.4422 18.5 10.25V9.78472C18.5 9.05985 17.9124 8.47222 17.1875 8.47222C16.4626 8.47222 15.875 9.05985 15.875 9.78472V8.45139C15.875 7.72652 15.2874 7.13889 14.5625 7.13889C13.8376 7.13889 13.25 7.72652 13.25 8.45139V7.11806C13.25 6.39318 12.6624 5.80556 11.9375 5.80556C11.2126 5.80556 10.625 6.39318 10.625 7.11806V3.5625C10.625 2.83763 10.0374 2.25 9.3125 2.25C8.58763 2.25 8 2.83763 8 3.5625V10.25L6.63938 8.52223C5.93584 7.62884 4.5 8.12633 4.5 9.26348C4.5 9.32846 4.50536 9.39393 4.51597 9.45803ZM7.25 21C7.25 20.5858 7.58579 20.25 8 20.25H16.5C16.9142 20.25 17.25 20.5858 17.25 21C17.25 21.4142 16.9142 21.75 16.5 21.75H8C7.58579 21.75 7.25 21.4142 7.25 21Z" fill="#292556"/>
</svg>
