<svg width="24" height="24" viewBox="0 0 24 24" fill="none" xmlns="http://www.w3.org/2000/svg">
<path fill-rule="evenodd" clip-rule="evenodd" d="M11.9998 3.75C10.481 3.75 9.24977 4.98122 9.24977 6.5C9.24977 6.91421 9.58555 7.25 9.99977 7.25C10.414 7.25 10.7498 6.91421 10.7498 6.5C10.7498 5.80964 11.3094 5.25 11.9998 5.25C12.6901 5.25 13.2498 5.80964 13.2498 6.5V6.67832C13.2498 7.27019 12.77 7.75 12.1781 7.75C11.6633 7.75 11.2459 8.16735 11.2459 8.68217V10.1098L8.4432 12.0502C4.17228 15.0069 2.03683 16.4853 2.1051 17.8729C2.12599 18.2973 2.25472 18.7095 2.47915 19.0703C3.21283 20.25 5.8101 20.25 11.0046 20.25H12.9961C18.1917 20.25 20.7895 20.25 21.5232 19.0702C21.7476 18.7093 21.8763 18.2972 21.8972 17.8727C21.9653 16.485 19.8292 15.0066 15.557 12.0498L15.557 12.0498L12.7459 10.1042V9.1871C13.893 8.92858 14.7498 7.9035 14.7498 6.67832V6.5C14.7498 4.98122 13.5186 3.75 11.9998 3.75Z" fill="#292556"/>
</svg>
