<svg width="24" height="24" viewBox="0 0 24 24" fill="none" xmlns="http://www.w3.org/2000/svg">
<path fill-rule="evenodd" clip-rule="evenodd" d="M2.3049 11.2463V11C2.3049 10.9725 2.30642 10.945 2.30944 10.9176C2.84843 6.04185 6.98087 2.25 12 2.25C17.0191 2.25 21.1515 6.04185 21.6905 10.9176C21.6935 10.945 21.695 10.9725 21.695 11V11.2455C21.6968 11.2637 21.6981 11.282 21.6989 11.3004C21.7 11.3252 21.7 11.3545 21.7 11.4131V15.0941C21.7 16.5609 20.4926 17.75 19.0258 17.75C16.9548 17.75 15.25 16.0711 15.25 14C15.25 11.9289 16.9289 10.25 19 10.25H20.0641C19.2619 6.53451 15.9557 3.75 12 3.75C8.04429 3.75 4.73808 6.53451 3.93581 10.25H5.00001C7.07108 10.25 8.75001 11.9289 8.75001 14C8.75001 15.7623 7.51566 17.2407 5.87161 17.6423C6.1277 18.291 6.76024 18.75 7.49997 18.75H9.37804C9.68692 17.8761 10.5203 17.25 11.5 17.25H13C14.2427 17.25 15.25 18.2574 15.25 19.5C15.25 20.7426 14.2427 21.75 13 21.75H11.5C10.5203 21.75 9.68692 21.1239 9.37804 20.25H7.49997C5.93431 20.25 4.62723 19.1429 4.31887 17.6688C3.16436 17.3774 2.30002 16.3352 2.30002 15.0941V11.4131C2.30002 11.3545 2.30002 11.3252 2.30114 11.3004C2.30195 11.2823 2.30321 11.2642 2.3049 11.2463Z" fill="#292556"/>
</svg>
