<svg width="24" height="24" viewBox="0 0 24 24" fill="none" xmlns="http://www.w3.org/2000/svg">
<path fill-rule="evenodd" clip-rule="evenodd" d="M15.75 18.504C18.2893 16.2376 21.2598 12.8659 21.6898 9.21817C22.4088 2.79753 15.5095 0.817526 12.0095 4.82053C8.50977 0.819547 1.60939 2.7997 2.30923 9.21853C2.65074 12.8891 5.67031 16.2804 8.25 18.5469V13.7422L7.48523 12.6817C7.33109 12.7261 7.16824 12.75 7 12.75C6.0335 12.75 5.25 11.9665 5.25 11C5.25 10.0335 6.0335 9.25 7 9.25C7.9665 9.25 8.75 10.0335 8.75 11C8.75 11.2412 8.70097 11.4712 8.61257 11.6805L9.60833 13.0613C9.70043 13.189 9.75 13.3425 9.75 13.5V19.7847C9.3288 19.4522 8.72423 18.9634 8.25415 18.5506C9.45219 19.6028 10.555 20.4124 11.25 20.8944V12.122C10.3761 11.8131 9.75 10.9797 9.75 10C9.75 8.75736 10.7574 7.75 12 7.75C13.2426 7.75 14.25 8.75736 14.25 10C14.25 10.9797 13.6239 11.8131 12.75 12.122V20.8907C13.1391 20.616 13.6577 20.2359 14.25 19.7658V13.5C14.25 13.3425 14.2996 13.189 14.3917 13.0613L15.3874 11.6805C15.299 11.4712 15.25 11.2412 15.25 11C15.25 10.0335 16.0335 9.25 17 9.25C17.9665 9.25 18.75 10.0335 18.75 11C18.75 11.9665 17.9665 12.75 17 12.75C16.8318 12.75 16.6689 12.7261 16.5148 12.6817L15.75 13.7422V18.504ZM15.75 18.504C15.3694 18.8437 14.9012 19.2377 14.5124 19.5555C14.903 19.2393 15.3203 18.8875 15.75 18.504Z" fill="#292556"/>
</svg>
