<svg width="24" height="24" viewBox="0 0 24 24" fill="none" xmlns="http://www.w3.org/2000/svg">
<path fill-rule="evenodd" clip-rule="evenodd" d="M12.7007 20.9254C14.8149 19.4399 21.0514 14.6331 21.6898 9.21817C22.4088 2.79753 15.5095 0.817526 12.0095 4.82053C8.50977 0.819547 1.60939 2.7997 2.30923 9.21853C2.81367 14.6403 9.16106 19.4526 11.3033 20.9312C11.586 21.1264 11.7274 21.224 11.9123 21.2458C11.968 21.2524 12.0387 21.2521 12.0943 21.245C12.279 21.2217 12.4196 21.1229 12.7007 20.9254ZM12.75 9.5C12.75 9.08579 12.4142 8.75 12 8.75C11.5858 8.75 11.25 9.08579 11.25 9.5V11.25H9.5C9.08579 11.25 8.75 11.5858 8.75 12C8.75 12.4142 9.08579 12.75 9.5 12.75H11.25V14.5C11.25 14.9142 11.5858 15.25 12 15.25C12.4142 15.25 12.75 14.9142 12.75 14.5V12.75H14.5C14.9142 12.75 15.25 12.4142 15.25 12C15.25 11.5858 14.9142 11.25 14.5 11.25H12.75V9.5Z" fill="#292556"/>
</svg>
