<svg width="24" height="24" viewBox="0 0 24 24" fill="none" xmlns="http://www.w3.org/2000/svg">
<path d="M10.4023 3.04123L5.25233 5.5917C4.38911 6.0192 3.95749 6.23296 3.67812 6.58808C3.58643 6.70462 3.508 6.831 3.44425 6.96487C3.25 7.37284 3.25 7.85448 3.25 8.81776V15.1822C3.25 16.1455 3.25 16.6272 3.44425 17.0351C3.508 17.169 3.58643 17.2954 3.67812 17.4119C3.95749 17.767 4.38911 17.9808 5.25233 18.4083L10.4023 20.9588C11.098 21.3033 11.4458 21.4756 11.8163 21.5097C11.9385 21.521 12.0615 21.521 12.1837 21.5097C12.5542 21.4756 12.902 21.3033 13.5977 20.9588L18.7477 18.4083L18.7477 18.4083C19.6109 17.9808 20.0425 17.767 20.3219 17.4119C20.4136 17.2954 20.492 17.169 20.5557 17.0351C20.75 16.6272 20.75 16.1455 20.75 15.1822V8.81776C20.75 7.85448 20.75 7.37284 20.5557 6.96487C20.492 6.831 20.4136 6.70462 20.3219 6.58808C20.0425 6.23296 19.6109 6.0192 18.7477 5.5917L13.5977 3.04123C12.902 2.69671 12.5542 2.52445 12.1837 2.49028C12.0615 2.47901 11.9385 2.47901 11.8163 2.49028C11.4458 2.52445 11.098 2.69671 10.4023 3.04123Z" fill="#292556"/>
</svg>
