<svg width="24" height="24" viewBox="0 0 24 24" fill="none" xmlns="http://www.w3.org/2000/svg">
<path fill-rule="evenodd" clip-rule="evenodd" d="M2.25 14.9168V13.4014C2.25 11.8448 2.25 11.0664 2.47277 10.3453C2.56441 10.0487 2.68347 9.76128 2.82841 9.48674C3.18079 8.81932 3.73114 8.26896 4.83185 7.16826L4.83186 7.16825C7.73743 4.26268 9.19021 2.8099 10.9359 2.48116C11.6391 2.34873 12.3609 2.34873 13.0641 2.48116C14.8098 2.8099 16.2626 4.26268 19.1681 7.16825C20.2689 8.26896 20.8192 8.81932 21.1716 9.48674C21.3165 9.76128 21.4356 10.0487 21.5272 10.3453C21.75 11.0664 21.75 11.8448 21.75 13.4014V14.9168C21.75 17.7291 21.75 19.1352 21.0338 20.121C20.8025 20.4393 20.5226 20.7193 20.2042 20.9506C19.2184 21.6668 17.8123 21.6668 15 21.6668H9C6.1877 21.6668 4.78155 21.6668 3.79581 20.9506C3.47745 20.7193 3.19748 20.4393 2.96619 20.121C2.25 19.1352 2.25 17.7291 2.25 14.9168ZM8 16.2501C7.58579 16.2501 7.25 16.5859 7.25 17.0001C7.25 17.4143 7.58579 17.7501 8 17.7501H16C16.4142 17.7501 16.75 17.4143 16.75 17.0001C16.75 16.5859 16.4142 16.2501 16 16.2501H8Z" fill="#292556"/>
</svg>
