<svg width="24" height="24" viewBox="0 0 24 24" fill="none" xmlns="http://www.w3.org/2000/svg">
<path fill-rule="evenodd" clip-rule="evenodd" d="M13.3614 2.48478C14.9267 2.86622 16.2492 4.18877 18.8943 6.83385L18.8943 6.83387C20.0479 7.98747 20.6247 8.56427 21.012 9.25315C21.2369 9.65298 21.413 10.0783 21.5368 10.52C21.75 11.281 21.75 12.0967 21.75 13.7281V16.8002C21.75 18.8626 21.75 19.8937 21.2248 20.6166C21.0552 20.8501 20.8499 21.0554 20.6164 21.225C19.8935 21.7502 18.8624 21.7502 16.8 21.7502H7.2C5.13765 21.7502 4.10647 21.7502 3.38359 21.225C3.15013 21.0554 2.94482 20.8501 2.7752 20.6166C2.25 19.8937 2.25 18.8626 2.25 16.8002V13.7281C2.25 12.0967 2.25 11.281 2.46323 10.52C2.58698 10.0783 2.76314 9.65298 2.98795 9.25315C3.3753 8.56426 3.9521 7.98746 5.10571 6.83385C7.75079 4.18877 9.07334 2.86622 10.6386 2.48478C11.5331 2.26679 12.4669 2.26679 13.3614 2.48478ZM12.75 10.0002C12.75 9.58598 12.4143 9.25015 12.0001 9.25011C11.5859 9.25006 11.25 9.58581 11.25 10L11.2497 12.2501H9C8.58579 12.2501 8.25 12.5859 8.25 13.0001C8.25 13.4143 8.58579 13.7501 9 13.7501H11.2497L11.25 16.0002C11.25 16.4144 11.5859 16.7502 12.0001 16.7501C12.4143 16.7501 12.75 16.4142 12.75 16L12.7497 13.7501H15C15.4142 13.7501 15.75 13.4143 15.75 13.0001C15.75 12.5859 15.4142 12.2501 15 12.2501H12.7497L12.75 10.0002Z" fill="#292556"/>
</svg>
