<svg width="24" height="24" viewBox="0 0 24 24" fill="none" xmlns="http://www.w3.org/2000/svg">
<path d="M3 13.2L5 11.6L5.33333 11.3333L9.7511 7.79912C10.7055 7.03562 11.1827 6.65387 11.7309 6.57943C11.9095 6.55519 12.0905 6.55519 12.2691 6.57943C12.8173 6.65387 13.2945 7.03562 14.2489 7.79912L18.6667 11.3333L19 11.6L21 13.2M3 9.7L9.7511 4.29912C10.7055 3.53562 11.1827 3.15387 11.7309 3.07943C11.9095 3.05519 12.0905 3.05519 12.2691 3.07943C12.8173 3.15387 13.2945 3.53562 14.2489 4.29912L21 9.7" stroke="#292556" stroke-width="1.5" stroke-linecap="round" stroke-linejoin="round"/>
<path d="M10 18.5V17.2857C10 16.1811 10.8954 15.2857 12 15.2857C13.1046 15.2857 14 16.1811 14 17.2857V18.5C14 19.8807 15.1193 21 16.5 21C17.8807 21 19 19.8807 19 18.5V11.6L18.6667 11.3333L14.2489 7.79912C13.2945 7.03562 12.8173 6.65387 12.2691 6.57943C12.0905 6.55519 11.9095 6.55519 11.7309 6.57943C11.1827 6.65387 10.7055 7.03562 9.7511 7.79912L5.33333 11.3333L5 11.6V18.5C5 19.8807 6.11929 21 7.5 21C8.88071 21 10 19.8807 10 18.5Z" fill="#292556"/>
</svg>
