<svg width="24" height="24" viewBox="0 0 24 24" fill="none" xmlns="http://www.w3.org/2000/svg">
<path fill-rule="evenodd" clip-rule="evenodd" d="M11.8319 3.82289C11.9435 3.80774 12.0566 3.80774 12.1682 3.82289C12.2903 3.83946 12.4396 3.8916 12.6972 4.05947C12.9667 4.2351 13.2918 4.49414 13.7804 4.88505L20.5315 10.2859C20.855 10.5447 21.3269 10.4922 21.5857 10.1688C21.8444 9.84535 21.792 9.37338 21.4685 9.11462L14.7175 3.71374L14.6897 3.69153C14.2362 3.32868 13.8542 3.02308 13.5163 2.80283C13.1596 2.57035 12.7962 2.39439 12.37 2.33653C12.1245 2.30319 11.8756 2.30319 11.63 2.33653C11.2039 2.39439 10.8405 2.57035 10.4838 2.80283C10.1459 3.02308 9.7639 3.32869 9.31036 3.69154L9.28261 3.71374L2.53151 9.11462C2.20806 9.37338 2.15562 9.84535 2.41438 10.1688C2.67313 10.4922 3.1451 10.5447 3.46855 10.2859L10.2196 4.88505C10.7083 4.49414 11.0334 4.2351 11.3029 4.05947C11.5604 3.8916 11.7098 3.83946 11.8319 3.82289ZM20.5315 13.786L19.0001 12.5608V15.6003C19.0001 17.8501 19.0001 18.9751 18.4271 19.7637C18.2421 20.0183 18.0181 20.2423 17.7634 20.4274C16.9748 21.0003 15.8499 21.0003 13.6001 21.0003H10.4001C8.15022 21.0003 7.0253 21.0003 6.2367 20.4274C5.98202 20.2423 5.75804 20.0183 5.573 19.7637C5.00006 18.9751 5.00006 17.8501 5.00006 15.6003V12.5608L3.46858 13.786C3.14513 14.0447 2.67316 13.9923 2.4144 13.6688C2.15565 13.3454 2.20809 12.8734 2.53153 12.6147L4.53153 11.0147L4.86487 10.748L9.28263 7.21377L9.31037 7.19158L9.31038 7.19157C9.76392 6.82872 10.1459 6.52311 10.4838 6.30286C10.8405 6.07038 11.2039 5.89442 11.6301 5.83656C11.8756 5.80322 12.1245 5.80322 12.37 5.83656C12.7962 5.89442 13.1596 6.07038 13.5163 6.30286C13.8542 6.52311 14.2362 6.82871 14.6897 7.19155L14.6897 7.19156L14.7175 7.21377L19.1352 10.748L19.4686 11.0147L21.4686 12.6147C21.792 12.8734 21.8445 13.3454 21.5857 13.6688C21.327 13.9923 20.855 14.0447 20.5315 13.786ZM9 16.2503C8.58579 16.2503 8.25 16.5861 8.25 17.0003C8.25 17.4145 8.58579 17.7503 9 17.7503H15C15.4142 17.7503 15.75 17.4145 15.75 17.0003C15.75 16.5861 15.4142 16.2503 15 16.2503H9Z" fill="#292556"/>
</svg>
