<svg width="24" height="24" viewBox="0 0 24 24" fill="none" xmlns="http://www.w3.org/2000/svg">
<path fill-rule="evenodd" clip-rule="evenodd" d="M5.625 2.25C4.86561 2.25 4.25 2.86561 4.25 3.625C4.25 4.38439 4.86561 5 5.625 5H18.375C19.1344 5 19.75 4.38439 19.75 3.625C19.75 2.86561 19.1344 2.25 18.375 2.25H5.625ZM19.75 16.8V8.3C19.75 7.55005 19.75 7.17508 19.559 6.91221C19.4973 6.82732 19.4227 6.75266 19.3378 6.69098C19.0749 6.5 18.6999 6.5 17.95 6.5H6.05C5.30005 6.5 4.92508 6.5 4.66221 6.69098C4.57732 6.75266 4.50266 6.82732 4.44098 6.91221C4.25 7.17508 4.25 7.55005 4.25 8.3V16.8C4.25 18.8624 4.25 19.8935 4.7752 20.6164C4.94482 20.8499 5.15013 21.0552 5.38359 21.2248C6.10647 21.75 7.13765 21.75 9.2 21.75H14.8C16.8624 21.75 17.8935 21.75 18.6164 21.2248C18.8499 21.0552 19.0552 20.8499 19.2248 20.6164C19.75 19.8935 19.75 18.8624 19.75 16.8ZM11.6077 9.59904C11.8484 9.45136 12.1516 9.45136 12.3923 9.59904L14.3923 10.8263C14.6145 10.9627 14.75 11.2048 14.75 11.4656V13.0907L16.3915 14.0954C16.6142 14.2317 16.75 14.474 16.75 14.7351V16.7805C16.75 17.0413 16.6145 17.2834 16.3923 17.4198L14.3923 18.6471C14.1516 18.7947 13.8484 18.7947 13.6077 18.6471L12 17.6605L10.3923 18.6471C10.1516 18.7947 9.8484 18.7947 9.60774 18.6471L7.60774 17.4198C7.38547 17.2834 7.25 17.0413 7.25 16.7805V14.7351C7.25 14.474 7.38579 14.2317 7.60848 14.0954L9.25 13.0907V11.4656C9.25 11.2048 9.38547 10.9627 9.60774 10.8263L11.6077 9.59904ZM9.99949 14.3906L8.75 15.1554V16.3608L10 17.1279L11.25 16.3608V15.158L9.99949 14.3906ZM12.75 15.158V16.3608L14 17.1279L15.25 16.3608V15.1554L14.0005 14.3906L12.75 15.158ZM13.25 13.0913V11.8853L12 11.1182L10.75 11.8853V13.0913L12 13.8583L13.25 13.0913Z" fill="#292556"/>
</svg>
