<svg width="24" height="24" viewBox="0 0 24 24" fill="none" xmlns="http://www.w3.org/2000/svg">
<path fill-rule="evenodd" clip-rule="evenodd" d="M13.3 17.25H10.7C10.5125 17.25 10.4188 17.25 10.3531 17.2977C10.3318 17.3132 10.3132 17.3318 10.2977 17.3531C10.25 17.4188 10.25 17.5125 10.25 17.7V19.5C10.25 20.4374 10.25 20.9061 10.0113 21.2347C9.93417 21.3408 9.84085 21.4342 9.73473 21.5113C9.40615 21.75 8.93743 21.75 8 21.75H7.2C5.13765 21.75 4.10647 21.75 3.38359 21.2248C3.15013 21.0552 2.94482 20.8499 2.7752 20.6164C2.25 19.8935 2.25 18.8624 2.25 16.8V13.2793C2.25 11.6363 2.25 10.8148 2.62774 10.1706C2.75086 9.96057 2.90133 9.76786 3.07518 9.59748C3.60854 9.07478 4.40551 8.87554 5.99944 8.47706L5.99945 8.47706L6.25 8.41442V7.2C6.25 5.13765 6.25 4.10647 6.7752 3.38359C6.94482 3.15013 7.15013 2.94482 7.38359 2.7752C8.10647 2.25 9.13765 2.25 11.2 2.25H12.8C14.8624 2.25 15.8935 2.25 16.6164 2.7752C16.8499 2.94482 17.0552 3.15013 17.2248 3.38359C17.75 4.10647 17.75 5.13765 17.75 7.2V8.41442L18.0006 8.47706C19.5945 8.87554 20.3915 9.07478 20.9248 9.59748C21.0987 9.76786 21.2491 9.96057 21.3723 10.1706C21.75 10.8148 21.75 11.6363 21.75 13.2793V16.8C21.75 18.8624 21.75 19.8935 21.2248 20.6164C21.0552 20.8499 20.8499 21.0552 20.6164 21.2248C19.8935 21.75 18.8624 21.75 16.8 21.75H16.8H16C15.0626 21.75 14.5939 21.75 14.2653 21.5113C14.1592 21.4342 14.0658 21.3408 13.9887 21.2347C13.75 20.9061 13.75 20.4374 13.75 19.5V17.7C13.75 17.5125 13.75 17.4188 13.7023 17.3531C13.6868 17.3318 13.6682 17.3132 13.6469 17.2977C13.5812 17.25 13.4875 17.25 13.3 17.25ZM12.7023 10.1469C12.75 10.0812 12.75 9.98749 12.75 9.8V8.5H14.05C14.2375 8.5 14.3312 8.5 14.3969 8.45225C14.4182 8.43683 14.4368 8.41817 14.4523 8.39695C14.5 8.33123 14.5 8.23749 14.5 8.05V7.45C14.5 7.26251 14.5 7.16877 14.4523 7.10305C14.4368 7.08183 14.4182 7.06317 14.3969 7.04775C14.3312 7 14.2375 7 14.05 7H12.75V5.7C12.75 5.51251 12.75 5.41877 12.7023 5.35305C12.6868 5.33183 12.6682 5.31317 12.6469 5.29775C12.5812 5.25 12.4875 5.25 12.3 5.25H11.7C11.5125 5.25 11.4188 5.25 11.3531 5.29775C11.3318 5.31317 11.3132 5.33183 11.2977 5.35305C11.25 5.41877 11.25 5.51251 11.25 5.7V7H9.95C9.76251 7 9.66877 7 9.60305 7.04775C9.58183 7.06317 9.56317 7.08183 9.54775 7.10305C9.5 7.16877 9.5 7.26251 9.5 7.45V8.05C9.5 8.23749 9.5 8.33123 9.54775 8.39695C9.56317 8.41817 9.58183 8.43683 9.60305 8.45225C9.66877 8.5 9.76251 8.5 9.95 8.5H11.25V9.8C11.25 9.98749 11.25 10.0812 11.2977 10.1469C11.3132 10.1682 11.3318 10.1868 11.3531 10.2023C11.4188 10.25 11.5125 10.25 11.7 10.25H12.3C12.4875 10.25 12.5812 10.25 12.6469 10.2023C12.6682 10.1868 12.6868 10.1682 12.7023 10.1469ZM7.90451 14.0439C8 13.9125 8 13.725 8 13.35V13.15C8 12.775 8 12.5875 7.90451 12.4561C7.87367 12.4137 7.83634 12.3763 7.79389 12.3455C7.66246 12.25 7.47497 12.25 7.1 12.25H6.9C6.52503 12.25 6.33754 12.25 6.20611 12.3455C6.16366 12.3763 6.12633 12.4137 6.09549 12.4561C6 12.5875 6 12.775 6 13.15V13.35C6 13.725 6 13.9125 6.09549 14.0439C6.12633 14.0863 6.16366 14.1237 6.20611 14.1545C6.33754 14.25 6.52503 14.25 6.9 14.25H7.1C7.47497 14.25 7.66246 14.25 7.79389 14.1545C7.83634 14.1237 7.87367 14.0863 7.90451 14.0439ZM13 13.35C13 13.725 13 13.9125 12.9045 14.0439C12.8737 14.0863 12.8363 14.1237 12.7939 14.1545C12.6625 14.25 12.475 14.25 12.1 14.25H11.9C11.525 14.25 11.3375 14.25 11.2061 14.1545C11.1637 14.1237 11.1263 14.0863 11.0955 14.0439C11 13.9125 11 13.725 11 13.35V13.15C11 12.775 11 12.5875 11.0955 12.4561C11.1263 12.4137 11.1637 12.3763 11.2061 12.3455C11.3375 12.25 11.525 12.25 11.9 12.25H12.1C12.475 12.25 12.6625 12.25 12.7939 12.3455C12.8363 12.3763 12.8737 12.4137 12.9045 12.4561C13 12.5875 13 12.775 13 13.15V13.35ZM17.9045 14.0439C18 13.9125 18 13.725 18 13.35V13.15C18 12.775 18 12.5875 17.9045 12.4561C17.8737 12.4137 17.8363 12.3763 17.7939 12.3455C17.6625 12.25 17.475 12.25 17.1 12.25H16.9C16.525 12.25 16.3375 12.25 16.2061 12.3455C16.1637 12.3763 16.1263 12.4137 16.0955 12.4561C16 12.5875 16 12.775 16 13.15V13.35C16 13.725 16 13.9125 16.0955 14.0439C16.1263 14.0863 16.1637 14.1237 16.2061 14.1545C16.3375 14.25 16.525 14.25 16.9 14.25H17.1C17.475 14.25 17.6625 14.25 17.7939 14.1545C17.8363 14.1237 17.8737 14.0863 17.9045 14.0439Z" fill="#292556"/>
</svg>
