<svg width="24" height="24" viewBox="0 0 24 24" fill="none" xmlns="http://www.w3.org/2000/svg">
<path fill-rule="evenodd" clip-rule="evenodd" d="M2.25 10.5C2.25 5.94365 5.94365 2.25 10.5 2.25C15.0563 2.25 18.75 5.94365 18.75 10.5C18.75 10.5887 18.7486 10.6771 18.7458 10.7651L20.2441 12.752C20.6263 13.2588 20.8174 13.5122 20.8926 13.7052C21.2145 14.5307 20.7544 15.4538 19.9015 15.6939C19.7022 15.75 19.3848 15.75 18.75 15.75V16.55C18.75 17.6749 18.75 18.2374 18.4635 18.6317C18.371 18.759 18.259 18.871 18.1317 18.9635C17.7374 19.25 17.1749 19.25 16.05 19.25H14.75C14.75 20.1846 14.75 20.6519 14.549 21C14.4174 21.228 14.228 21.4174 14 21.549C13.6519 21.75 13.1846 21.75 12.25 21.75H8.95C7.82508 21.75 7.26262 21.75 6.86832 21.4635C6.74098 21.371 6.62899 21.259 6.53647 21.1317C6.25 20.7374 6.25 20.1749 6.25 19.05V17.5724C3.85453 16.1299 2.25 13.5029 2.25 10.5ZM11.6869 6.02563C11.2858 5.92238 10.8769 6.16387 10.7737 6.56501C10.6704 6.96615 10.9119 7.37503 11.3131 7.47828C12.715 7.83911 13.75 9.11259 13.75 10.6259C13.75 11.3441 13.5171 12.0083 13.1221 12.5467C13.0235 12.2475 12.7418 12.0315 12.4096 12.0315C11.9953 12.0315 11.6596 12.3673 11.6596 12.7815L11.6596 14.1416V14.3528C11.6596 14.7671 11.9953 15.1028 12.4096 15.1028H13.9809C14.3951 15.1028 14.7309 14.7671 14.7309 14.3528C14.7309 14.0075 14.4975 13.7167 14.1798 13.6295C14.8484 12.8114 15.25 11.7658 15.25 10.6259C15.25 8.4116 13.7355 6.55289 11.6869 6.02563ZM7.0191 6.14903C6.60488 6.14903 6.2691 6.48482 6.2691 6.89903C6.2691 7.24437 6.50249 7.53519 6.82015 7.62236C6.15161 8.44046 5.75 9.48608 5.75 10.6259C5.75 12.8403 7.26451 14.699 9.31306 15.2262C9.7142 15.3295 10.1231 15.088 10.2263 14.6869C10.3296 14.2857 10.0881 13.8768 9.68694 13.7736C8.28504 13.4128 7.25 12.1393 7.25 10.6259C7.25 9.90773 7.48287 9.24355 7.87792 8.70515C7.97646 9.00438 8.25823 9.22038 8.59045 9.22038C9.00466 9.22038 9.34045 8.88459 9.34045 8.47038V7.1103V6.89903C9.34045 6.48482 9.00466 6.14903 8.59045 6.14903L7.0191 6.14903Z" fill="#292556"/>
</svg>
