<svg width="24" height="24" viewBox="0 0 24 24" fill="none" xmlns="http://www.w3.org/2000/svg">
<path fill-rule="evenodd" clip-rule="evenodd" d="M2.25 10.5C2.25 5.94365 5.94365 2.25 10.5 2.25C15.0563 2.25 18.75 5.94365 18.75 10.5C18.75 10.5887 18.7486 10.6771 18.7458 10.7651L20.2441 12.752C20.6263 13.2588 20.8174 13.5122 20.8926 13.7052C21.2145 14.5307 20.7544 15.4538 19.9015 15.6939C19.7022 15.75 19.3848 15.75 18.75 15.75V16.55C18.75 17.6749 18.75 18.2374 18.4635 18.6317C18.371 18.759 18.259 18.871 18.1317 18.9635C17.7374 19.25 17.1749 19.25 16.05 19.25H14.75C14.75 20.1846 14.75 20.6519 14.549 21C14.4174 21.228 14.228 21.4174 14 21.549C13.6519 21.75 13.1846 21.75 12.25 21.75H8.95C7.82508 21.75 7.26262 21.75 6.86832 21.4635C6.74098 21.371 6.62899 21.259 6.53647 21.1317C6.25 20.7374 6.25 20.1749 6.25 19.05V17.5724C3.85453 16.1299 2.25 13.5029 2.25 10.5ZM7.08334 8.2719C7.08651 6.87855 8.21702 5.75 9.61111 5.75V15.25C8.21702 15.25 7.08651 14.1214 7.08334 12.7281C6.28973 12.3019 5.75 11.4645 5.75 10.5C5.75 9.53549 6.28973 8.69814 7.08334 8.2719ZM13.9167 12.7281C13.9135 14.1214 12.783 15.25 11.3889 15.25V5.75C12.783 5.75 13.9135 6.87855 13.9167 8.27191C14.7103 8.69814 15.25 9.53549 15.25 10.5C15.25 11.4645 14.7103 12.3019 13.9167 12.7281Z" fill="#292556"/>
</svg>
