<svg width="24" height="24" viewBox="0 0 24 24" fill="none" xmlns="http://www.w3.org/2000/svg">
<path fill-rule="evenodd" clip-rule="evenodd" d="M2.25 10.5C2.25 5.94365 5.94365 2.25 10.5 2.25C15.0563 2.25 18.75 5.94365 18.75 10.5C18.75 10.5887 18.7486 10.6771 18.7458 10.7651L20.2441 12.752C20.6263 13.2588 20.8174 13.5122 20.8926 13.7052C21.2145 14.5307 20.7544 15.4538 19.9015 15.6939C19.7022 15.75 19.3848 15.75 18.75 15.75V16.55C18.75 17.6749 18.75 18.2374 18.4635 18.6317C18.371 18.759 18.259 18.871 18.1317 18.9635C17.7374 19.25 17.1749 19.25 16.05 19.25H14.75C14.75 20.1846 14.75 20.6519 14.549 21C14.4174 21.228 14.228 21.4174 14 21.549C13.6519 21.75 13.1846 21.75 12.25 21.75H8.95C7.82508 21.75 7.26262 21.75 6.86832 21.4635C6.74098 21.371 6.62899 21.259 6.53647 21.1317C6.25 20.7374 6.25 20.1749 6.25 19.05V17.5724C3.85453 16.1299 2.25 13.5029 2.25 10.5ZM10.2516 5.63353C9.7408 5.71925 9.32548 6.1745 8.49484 7.08502L8.43244 7.09753C7.28499 7.32764 6.71126 7.4427 6.38062 7.80283C6.23086 7.96594 6.11908 8.16018 6.05329 8.37161C5.90803 8.83843 6.0968 9.39229 6.47433 10.5C6.0968 11.6078 5.90803 12.1616 6.05329 12.6284C6.11908 12.8399 6.23086 13.0341 6.38062 13.1972C6.71126 13.5574 7.28498 13.6724 8.43244 13.9025L8.49484 13.915C9.32548 14.8256 9.7408 15.2808 10.2516 15.3665C10.416 15.3941 10.5837 15.3941 10.7481 15.3665C11.2589 15.2808 11.6742 14.8256 12.5049 13.915L12.5673 13.9025L12.5673 13.9025C13.7147 13.6724 14.2885 13.5574 14.6191 13.1972C14.7688 13.0341 14.8806 12.8399 14.9464 12.6284C15.0917 12.1616 14.9029 11.6078 14.5254 10.5C14.9029 9.39229 15.0917 8.83843 14.9464 8.37161C14.8806 8.16018 14.7688 7.96594 14.6191 7.80283C14.2885 7.4427 13.7147 7.32764 12.5673 7.09753L12.5049 7.08502C11.6742 6.1745 11.2589 5.71925 10.7481 5.63353C10.5837 5.60596 10.416 5.60596 10.2516 5.63353ZM11.5 10.5C11.5 11.0523 11.0523 11.5 10.5 11.5C9.94772 11.5 9.5 11.0523 9.5 10.5C9.5 9.94772 9.94772 9.5 10.5 9.5C11.0523 9.5 11.5 9.94772 11.5 10.5Z" fill="#292556"/>
</svg>
