<svg width="24" height="24" viewBox="0 0 24 24" fill="none" xmlns="http://www.w3.org/2000/svg">
<path fill-rule="evenodd" clip-rule="evenodd" d="M2.25 10.5C2.25 5.94365 5.94365 2.25 10.5 2.25C15.0563 2.25 18.75 5.94365 18.75 10.5C18.75 10.5887 18.7486 10.6771 18.7458 10.7651L20.2441 12.752C20.6263 13.2588 20.8174 13.5122 20.8926 13.7052C21.2145 14.5307 20.7544 15.4538 19.9015 15.6939C19.7022 15.75 19.3848 15.75 18.75 15.75V16.55C18.75 17.6749 18.75 18.2374 18.4635 18.6317C18.371 18.759 18.259 18.871 18.1317 18.9635C17.7374 19.25 17.1749 19.25 16.05 19.25H14.75C14.75 20.1846 14.75 20.6519 14.549 21C14.4174 21.228 14.228 21.4174 14 21.549C13.6519 21.75 13.1846 21.75 12.25 21.75H8.95C7.82508 21.75 7.26262 21.75 6.86832 21.4635C6.74098 21.371 6.62899 21.259 6.53647 21.1317C6.25 20.7374 6.25 20.1749 6.25 19.05V17.5724C3.85453 16.1299 2.25 13.5029 2.25 10.5ZM10.25 9.5C10.25 8.25736 11.2574 7.25 12.5 7.25C13.7426 7.25 14.75 8.25736 14.75 9.5C14.75 10.7426 13.7426 11.75 12.5 11.75C11.2574 11.75 10.25 10.7426 10.25 9.5Z" fill="#292556"/>
</svg>
