<svg width="24" height="24" viewBox="0 0 24 24" fill="none" xmlns="http://www.w3.org/2000/svg">
<path fill-rule="evenodd" clip-rule="evenodd" d="M9.8508 2.41502C10.3843 2.30672 10.9359 2.25 11.5 2.25C16.0563 2.25 19.75 5.94365 19.75 10.5C19.75 10.5887 19.7486 10.6771 19.7458 10.7651L21.2441 12.752C21.6263 13.2588 21.8174 13.5122 21.8926 13.7052C22.2145 14.5307 21.7544 15.4538 20.9015 15.6939C20.7022 15.75 20.3848 15.75 19.75 15.75V16.55C19.75 17.6749 19.75 18.2374 19.4635 18.6317C19.371 18.759 19.259 18.871 19.1317 18.9635C18.7374 19.25 18.1749 19.25 17.05 19.25H15.75C15.75 20.1846 15.75 20.6519 15.549 21C15.4174 21.228 15.228 21.4174 15 21.549C14.6519 21.75 14.1846 21.75 13.25 21.75H11.95C10.8251 21.75 10.2626 21.75 9.86832 21.4635C9.74098 21.371 9.62899 21.259 9.53647 21.1317C9.25 20.7374 9.25 20.1749 9.25 19.05V16.75H6.31066L5.64859 17.4121C5.71419 17.5959 5.75 17.7939 5.75 18C5.75 18.9665 4.9665 19.75 4 19.75C3.0335 19.75 2.25 18.9665 2.25 18C2.25 17.0335 3.0335 16.25 4 16.25C4.2061 16.25 4.40411 16.2858 4.58793 16.3514L5.29393 15.6454L5.29394 15.6454C5.46709 15.4722 5.55367 15.3857 5.65951 15.3317C5.69451 15.3139 5.73087 15.2988 5.76824 15.2867C5.88121 15.25 6.00365 15.25 6.24853 15.25H9.25V12.75H6.62197C6.31309 13.6239 5.47966 14.25 4.5 14.25C3.25736 14.25 2.25 13.2426 2.25 12C2.25 10.7574 3.25736 9.75 4.5 9.75C5.47966 9.75 6.31309 10.3761 6.62197 11.25H9.25V8.75H6.24853C6.00365 8.75 5.88121 8.75 5.76824 8.71329C5.73087 8.70115 5.69451 8.68609 5.65951 8.66825C5.55367 8.61433 5.46709 8.52775 5.29393 8.35459L4.58793 7.64859C4.40411 7.71419 4.2061 7.75 4 7.75C3.0335 7.75 2.25 6.9665 2.25 6C2.25 5.0335 3.0335 4.25 4 4.25C4.9665 4.25 5.75 5.0335 5.75 6C5.75 6.2061 5.71419 6.40411 5.64859 6.58793L6.31066 7.25H9.25V3.15003C9.25 2.79333 9.50123 2.48598 9.8508 2.41502ZM11.25 9.5C11.25 8.25736 12.2574 7.25 13.5 7.25C14.7426 7.25 15.75 8.25736 15.75 9.5C15.75 10.7426 14.7426 11.75 13.5 11.75C12.2574 11.75 11.25 10.7426 11.25 9.5Z" fill="#292556"/>
</svg>
