<svg width="24" height="24" viewBox="0 0 24 24" fill="none" xmlns="http://www.w3.org/2000/svg">
<path d="M5.94347 9.7959C6.12403 10.8596 6.61701 11.8686 7.42565 12.6773C8.13402 13.3856 8.99616 13.8518 9.91414 14.0779C10.1402 14.9959 10.6064 15.858 11.3147 16.5664C12.1236 17.3752 13.1329 17.8682 14.1969 18.0487L11.1426 19.3275C6.97617 21.0719 4.89297 21.944 3.69321 21.2101C3.3218 20.9829 3.00965 20.6708 2.78244 20.2994C2.04846 19.0996 2.9206 17.0164 4.66488 12.85L5.94347 9.7959Z" fill="#292556"/>
<path fill-rule="evenodd" clip-rule="evenodd" d="M8.66171 4.0206C10.712 1.97034 14.0625 1.99673 16.1453 4.07952C16.8322 4.76643 17.2954 5.59122 17.5342 6.46178C18.4048 6.70062 19.2296 7.16385 19.9165 7.85076C21.9993 9.93355 22.0257 13.2841 19.9754 15.3343C18.7167 16.593 16.9679 17.069 15.3233 16.767C14.289 16.5771 13.296 16.0795 12.4919 15.2754C11.805 14.5885 11.3417 13.7637 11.1029 12.8931C10.2323 12.6543 9.40754 12.191 8.72063 11.5041C7.91653 10.7 7.41894 9.70699 7.22901 8.67275C6.92699 7.0281 7.40299 5.27931 8.66171 4.0206ZM11.4908 8.96783C11.1979 9.26072 10.723 9.26072 10.4301 8.96783C10.1372 8.67494 10.1372 8.20006 10.4301 7.90717C10.723 7.61428 11.1979 7.61428 11.4908 7.90717C11.7837 8.20006 11.7837 8.67494 11.4908 8.96783ZM15.9091 9.14571C15.6162 9.4386 15.1413 9.4386 14.8484 9.14571C14.5555 8.85282 14.5555 8.37794 14.8484 8.08505C15.1413 7.79216 15.6162 7.79216 15.9091 8.08505C16.202 8.37794 16.202 8.85282 15.9091 9.14571ZM15.0263 13.564C15.3192 13.8569 15.7941 13.8569 16.087 13.564C16.3799 13.2711 16.3799 12.7963 16.087 12.5034C15.7941 12.2105 15.3192 12.2105 15.0263 12.5034C14.7334 12.7963 14.7334 13.2711 15.0263 13.564Z" fill="#292556"/>
</svg>
