<svg width="24" height="24" viewBox="0 0 24 24" fill="none" xmlns="http://www.w3.org/2000/svg">
<path d="M12 5.26379C10.5477 3.67537 9.82159 2.88116 9.06857 2.74808C8.47047 2.64238 7.85503 2.78298 7.36215 3.13791C6.74163 3.58478 6.43241 4.61552 5.81396 6.67701L4.44198 11.2503H3C2.58579 11.2503 2.25 11.5861 2.25 12.0003C2.25 12.4145 2.58579 12.7503 3 12.7503H21C21.4142 12.7503 21.75 12.4145 21.75 12.0003C21.75 11.5861 21.4142 11.2503 21 11.2503H19.558L18.186 6.67701C17.5676 4.61552 17.2584 3.58478 16.6378 3.13791C16.145 2.78297 15.5295 2.64238 14.9314 2.74808C14.1784 2.88116 13.4523 3.67537 12 5.26379V5.26379V5.26379Z" fill="#292556"/>
<path d="M7 13.7503C4.92893 13.7503 3.25 15.4292 3.25 17.5003C3.25 19.5714 4.92893 21.2503 7 21.2503C9.07107 21.2503 10.75 19.5714 10.75 17.5003C10.75 15.4292 9.07107 13.7503 7 13.7503Z" fill="#292556"/>
<path d="M17 13.7503C14.9289 13.7503 13.25 15.4292 13.25 17.5003C13.25 19.5714 14.9289 21.2503 17 21.2503C19.0711 21.2503 20.75 19.5714 20.75 17.5003C20.75 15.4292 19.0711 13.7503 17 13.7503Z" fill="#292556"/>
</svg>
