<svg width="24" height="24" viewBox="0 0 24 24" fill="none" xmlns="http://www.w3.org/2000/svg">
<path fill-rule="evenodd" clip-rule="evenodd" d="M19.4203 13.3297L16.3037 7.92412C14.6282 5.01811 13.7905 3.56511 12.5935 3.30961C12.2167 3.22919 11.8272 3.22883 11.4503 3.30855C10.2529 3.56185 9.41245 5.0133 7.73163 7.91622L4.60175 13.3218C2.91772 16.2302 2.07571 17.6844 2.45345 18.8499C2.57233 19.2168 2.76704 19.5545 3.02492 19.8412C3.84429 20.7521 5.52469 20.7521 8.88548 20.7521H15.132C18.4865 20.7521 20.1638 20.7521 20.983 19.8427C21.2409 19.5565 21.4357 19.2192 21.5549 18.8528C21.9336 17.6889 21.0958 16.2358 19.4203 13.3297ZM12.9997 10.0021C12.9997 10.5544 12.552 11.0021 11.9997 11.0021C11.4474 11.0021 10.9997 10.5544 10.9997 10.0021C10.9997 9.44982 11.4474 9.00211 11.9997 9.00211C12.552 9.00211 12.9997 9.44982 12.9997 10.0021ZM12.7497 13.2521C12.7497 12.8379 12.4139 12.5021 11.9997 12.5021C11.5855 12.5021 11.2497 12.8379 11.2497 13.2521V16.7521C11.2497 17.1663 11.5855 17.5021 11.9997 17.5021C12.4139 17.5021 12.7497 17.1663 12.7497 16.7521V13.2521Z" fill="#292556"/>
</svg>
