<svg width="24" height="24" viewBox="0 0 24 24" fill="none" xmlns="http://www.w3.org/2000/svg">
<path fill-rule="evenodd" clip-rule="evenodd" d="M2.25 9.45C2.25 6.45021 2.25 4.95032 3.01393 3.89886C3.26065 3.55928 3.55928 3.26065 3.89886 3.01393C4.95032 2.25 6.45021 2.25 9.45 2.25H14.55C17.5498 2.25 19.0497 2.25 20.1011 3.01393C20.4407 3.26065 20.7393 3.55928 20.9861 3.89886C21.75 4.95032 21.75 6.45021 21.75 9.45V14.55C21.75 17.5498 21.75 19.0497 20.9861 20.1011C20.7393 20.4407 20.4407 20.7393 20.1011 20.9861C19.0497 21.75 17.5498 21.75 14.55 21.75H9.45C6.45021 21.75 4.95032 21.75 3.89886 20.9861C3.55928 20.7393 3.26065 20.4407 3.01393 20.1011C2.25 19.0497 2.25 17.5498 2.25 14.55V9.45ZM13 8.75C13 9.30228 12.5523 9.75 12 9.75C11.4477 9.75 11 9.30228 11 8.75C11 8.19772 11.4477 7.75 12 7.75C12.5523 7.75 13 8.19772 13 8.75ZM12.75 12C12.75 11.5858 12.4142 11.25 12 11.25C11.5858 11.25 11.25 11.5858 11.25 12V15.5C11.25 15.9142 11.5858 16.25 12 16.25C12.4142 16.25 12.75 15.9142 12.75 15.5V12Z" fill="#292556"/>
</svg>
