<svg width="24" height="24" viewBox="0 0 24 24" fill="none" xmlns="http://www.w3.org/2000/svg">
<path fill-rule="evenodd" clip-rule="evenodd" d="M13.4705 18.5296L12.0008 17.0599L10.5311 18.5296C9.13365 19.9271 6.86792 19.9271 5.47046 18.5296C4.073 17.1322 4.073 14.8664 5.47046 13.469L6.94014 11.9993L5.4705 10.5297C4.07304 9.13219 4.07304 6.86646 5.4705 5.469C6.86796 4.07154 9.1337 4.07155 10.5312 5.46901L12.0008 6.93864L13.4704 5.46899C14.8679 4.07153 17.1336 4.07153 18.5311 5.46899C19.9285 6.86645 19.9285 9.13218 18.5311 10.5296L17.0614 11.9993L18.5311 13.469C19.9286 14.8664 19.9286 17.1322 18.5311 18.5296C17.1337 19.9271 14.8679 19.9271 13.4705 18.5296ZM14.9401 11.9993L12.0008 14.9386L9.06146 11.9993L12.0008 9.05996L14.9401 11.9993Z" fill="#292556"/>
<path d="M3.5 5C3.5 4.17157 4.17157 3.5 5 3.5C5.82843 3.5 6.5 4.17157 6.5 5C6.5 5.82843 5.82843 6.5 5 6.5C4.17157 6.5 3.5 5.82843 3.5 5Z" fill="#292556"/>
<path d="M17.5 5C17.5 4.17157 18.1716 3.5 19 3.5C19.8284 3.5 20.5 4.17157 20.5 5C20.5 5.82843 19.8284 6.5 19 6.5C18.1716 6.5 17.5 5.82843 17.5 5Z" fill="#292556"/>
<path d="M3.5 19C3.5 18.1716 4.17157 17.5 5 17.5C5.82843 17.5 6.5 18.1716 6.5 19C6.5 19.8284 5.82843 20.5 5 20.5C4.17157 20.5 3.5 19.8284 3.5 19Z" fill="#292556"/>
<path d="M17.5 19C17.5 18.1716 18.1716 17.5 19 17.5C19.8284 17.5 20.5 18.1716 20.5 19C20.5 19.8284 19.8284 20.5 19 20.5C18.1716 20.5 17.5 19.8284 17.5 19Z" fill="#292556"/>
</svg>
