<svg width="24" height="24" viewBox="0 0 24 24" fill="none" xmlns="http://www.w3.org/2000/svg">
<path fill-rule="evenodd" clip-rule="evenodd" d="M12.0003 2.25C10.4815 2.25 9.25032 3.48122 9.25032 5C9.25032 6.25866 10.0959 7.31982 11.25 7.64639V8.48071C11.1895 8.50304 11.124 8.52762 11.0523 8.55451L11.0523 8.55451L3.49609 11.3881L11.0217 14.3147L11.0217 14.3147C11.451 14.4816 11.6656 14.5651 11.8892 14.5817C11.9632 14.5872 12.0375 14.5872 12.1115 14.5817C12.335 14.5651 12.5497 14.4816 12.9789 14.3147L12.9789 14.3147L20.5045 11.3881L12.9484 8.55451C12.8764 8.52752 12.8106 8.50287 12.75 8.48047V7.64657C13.9044 7.32022 14.7503 6.25889 14.7503 5C14.7503 3.48122 13.5191 2.25 12.0003 2.25ZM3.25 12.9019V16.6486C3.25 17.4502 3.25 17.8511 3.42285 18.1792C3.47941 18.2866 3.54878 18.3867 3.62946 18.4774C3.87603 18.7544 4.25134 18.8952 5.00197 19.1767L11.052 21.4454C11.4682 21.6015 11.6763 21.6795 11.8925 21.6951C11.9641 21.7002 12.0359 21.7002 12.1075 21.6951C12.3237 21.6795 12.5318 21.6015 12.948 21.4454L18.998 19.1767L18.998 19.1766C19.7487 18.8952 20.124 18.7544 20.3705 18.4774C20.4512 18.3867 20.5206 18.2866 20.5771 18.1792C20.75 17.8511 20.75 17.4502 20.75 16.6486V12.9019L12.1631 16.2412C12.0916 16.269 12.0558 16.2829 12.0185 16.2857C12.0062 16.2866 11.9938 16.2866 11.9815 16.2857C11.9442 16.2829 11.9084 16.269 11.8369 16.2412L3.25 12.9019Z" fill="#292556"/>
</svg>
