<svg width="24" height="24" viewBox="0 0 24 24" fill="none" xmlns="http://www.w3.org/2000/svg">
<path fill-rule="evenodd" clip-rule="evenodd" d="M9.06918 7.90483C10.145 6.02121 12.1733 4.75 14.5 4.75C17.9518 4.75 20.75 7.54822 20.75 11C20.75 11.3896 20.7143 11.7714 20.6457 12.1422C21.3311 12.8964 21.75 13.8997 21.75 15C21.75 17.3472 19.8472 19.25 17.5 19.25H6.5C4.15279 19.25 2.25 17.3472 2.25 15C2.25 13.4775 3.05062 12.1431 4.2515 11.393C4.30813 9.37142 5.96472 7.75 8 7.75C8.37091 7.75 8.72993 7.80406 9.06918 7.90483ZM8.25 13.75C8.25 12.9332 8.9266 12.25 9.7873 12.25C10.2469 12.25 10.6563 12.4457 10.9374 12.7547C11.0911 12.9236 11.2995 13.2399 11.4886 13.5568C11.5781 13.7069 11.6556 13.844 11.7107 13.9435C11.7381 13.9931 11.7598 14.0331 11.7744 14.0602L11.7909 14.0908L11.7947 14.0981L11.7956 14.0997L11.7956 14.0997L11.7956 14.0998L11.7956 14.0998L11.7957 14.0999C11.8096 14.1262 11.825 14.1517 11.8419 14.1762L12.0515 14.4797L12.053 14.4822C12.0641 14.5011 12.0799 14.5278 12.1 14.5611C12.1401 14.6275 12.1976 14.7207 12.2689 14.8307C12.4103 15.0489 12.6116 15.3424 12.8441 15.6282C13.4013 16.313 14.2571 16.75 15.2127 16.75C16.8785 16.75 18.25 15.4184 18.25 13.75C18.25 12.0816 16.8785 10.75 15.2127 10.75C14.6631 10.75 14.1451 10.8948 13.6981 11.1492C13.3381 11.354 13.2123 11.8119 13.4172 12.1719C13.6221 12.5319 14.08 12.6577 14.44 12.4529C14.6659 12.3243 14.929 12.25 15.2127 12.25C16.0734 12.25 16.75 12.9332 16.75 13.75C16.75 14.5668 16.0734 15.25 15.2127 15.25C14.7223 15.25 14.2889 15.0271 14.0077 14.6815C13.8211 14.4521 13.6521 14.2069 13.5278 14.0151C13.4663 13.9202 13.4172 13.8406 13.384 13.7856C13.3674 13.7581 13.3548 13.7368 13.3467 13.723L13.3379 13.708L13.3362 13.705L13.3362 13.7049L13.3362 13.7049L13.3361 13.7049L13.3361 13.7048L13.336 13.7047C13.3255 13.6864 13.3143 13.6685 13.3023 13.6512L13.1004 13.3589L13.0949 13.3486C13.0779 13.3171 13.0535 13.2722 13.0231 13.2172C12.9623 13.1074 12.8766 12.9558 12.7768 12.7884C12.5871 12.4704 12.3121 12.0367 12.0469 11.7453C11.4905 11.1337 10.6825 10.75 9.7873 10.75C8.12152 10.75 6.75 12.0816 6.75 13.75C6.75 15.4184 8.12152 16.75 9.7873 16.75C10.3369 16.75 10.8549 16.6052 11.3019 16.3508C11.6619 16.146 11.7877 15.6881 11.5828 15.3281C11.3779 14.9681 10.92 14.8423 10.56 15.0471C10.3341 15.1757 10.071 15.25 9.7873 15.25C8.9266 15.25 8.25 14.5668 8.25 13.75Z" fill="#292556"/>
</svg>
