<svg width="24" height="24" viewBox="0 0 24 24" fill="none" xmlns="http://www.w3.org/2000/svg">
<path fill-rule="evenodd" clip-rule="evenodd" d="M8.99118 7.26562H15.0088C17.8127 7.26562 19.2146 7.26562 20.1986 7.97774C20.5211 8.21118 20.8044 8.49449 21.0379 8.81704C21.75 9.801 21.75 11.2029 21.75 14.0068C21.75 16.8107 21.75 18.2126 21.0379 19.1966C20.8044 19.5191 20.5211 19.8024 20.1986 20.0359C19.2146 20.748 17.8127 20.748 15.0088 20.748H8.99118C6.18731 20.748 4.78538 20.748 3.80141 20.0359C3.47887 19.8024 3.19555 19.5191 2.96212 19.1966C2.25 18.2126 2.25 16.8107 2.25 14.0068C2.25 11.2029 2.25 9.801 2.96212 8.81704C3.19555 8.49449 3.47887 8.21118 3.80141 7.97774C4.78538 7.26562 6.18731 7.26562 8.99118 7.26562ZM7.99999 11.9995C7.99999 11.5854 7.66424 11.2495 7.25008 11.2495C6.836 11.2495 6.50028 11.5852 6.50018 11.9993C6.50008 12.4136 6.83585 12.7495 7.25008 12.7495C7.66424 12.7495 7.99999 12.4137 7.99999 11.9995ZM11.0002 16.7495C10.5859 16.7495 10.2501 16.4136 10.2502 15.9993C10.2503 15.5852 10.586 15.2495 11.0002 15.2495H13C13.4142 15.2495 13.75 15.5853 13.75 15.9995C13.75 16.4137 13.4142 16.7495 13 16.7495H11.0002ZM7.25008 15.2495C7.66424 15.2495 7.99999 15.5854 7.99999 15.9995C7.99999 16.4137 7.66424 16.7495 7.25008 16.7495C6.83585 16.7495 6.50008 16.4136 6.50018 15.9993C6.50028 15.5852 6.836 15.2495 7.25008 15.2495ZM12.75 11.9995C12.75 11.5854 12.4142 11.2495 12.0001 11.2495C11.586 11.2495 11.2503 11.5852 11.2502 11.9993C11.2501 12.4136 11.5859 12.7495 12.0001 12.7495C12.4142 12.7495 12.75 12.4137 12.75 11.9995ZM16.7501 11.2495C17.1642 11.2495 17.5 11.5854 17.5 11.9995C17.5 12.4137 17.1642 12.7495 16.7501 12.7495C16.3359 12.7495 16.0001 12.4136 16.0002 11.9993C16.0003 11.5852 16.336 11.2495 16.7501 11.2495ZM17.5 15.9995C17.5 15.5854 17.1642 15.2495 16.7501 15.2495C16.336 15.2495 16.0003 15.5852 16.0002 15.9993C16.0001 16.4136 16.3359 16.7495 16.7501 16.7495C17.1642 16.7495 17.5 16.4137 17.5 15.9995Z" fill="#292556"/>
<path d="M17.5 3.75C17.9142 3.75 18.25 3.41421 18.25 3C18.25 2.58579 17.9142 2.25 17.5 2.25V3.75ZM16.27 3.75H17.5V2.25H16.27V3.75ZM12.75 7.27C12.75 6.02579 12.7604 5.59249 12.8732 5.26562L11.4554 4.77603C11.2396 5.40077 11.25 6.14971 11.25 7.27H12.75ZM16.27 2.25C15.1497 2.25 14.4008 2.23965 13.776 2.45537L14.2656 3.87322C14.5925 3.76035 15.0258 3.75 16.27 3.75V2.25ZM12.8732 5.26562C13.0988 4.61225 13.6122 4.09883 14.2656 3.87322L13.776 2.45537C12.6871 2.83139 11.8314 3.68708 11.4554 4.77603L12.8732 5.26562Z" fill="#292556"/>
</svg>
