<svg width="24" height="24" viewBox="0 0 24 24" fill="none" xmlns="http://www.w3.org/2000/svg">
<path fill-rule="evenodd" clip-rule="evenodd" d="M13.4553 18.75H9C6.1877 18.75 4.78155 18.75 3.79581 18.0338C3.47745 17.8025 3.19748 17.5225 2.96619 17.2042C2.25 16.2184 2.25 14.8123 2.25 12C2.25 9.1877 2.25 7.78155 2.96619 6.79581C3.19748 6.47745 3.47745 6.19748 3.79581 5.96619C4.78155 5.25 6.1877 5.25 9 5.25H13.4553C14.7767 5.25 15.4374 5.25 16.0394 5.46092C16.2383 5.53061 16.431 5.61693 16.6154 5.71898C17.1735 6.02788 17.6133 6.52095 18.4928 7.5071L19.8285 9.00473L19.8286 9.00475C20.9527 10.2652 21.5148 10.8954 21.6236 11.6371C21.6589 11.8778 21.6589 12.1222 21.6236 12.3629C21.5148 13.1046 20.9527 13.7348 19.8285 14.9953L18.4928 16.4929C17.6133 17.479 17.1735 17.9721 16.6154 18.281C16.431 18.3831 16.2383 18.4694 16.0394 18.5391C15.4374 18.75 14.7767 18.75 13.4553 18.75ZM7 9.75C6.58579 9.75 6.25 10.0858 6.25 10.5C6.25 10.9142 6.58579 11.25 7 11.25H12C12.4142 11.25 12.75 10.9142 12.75 10.5C12.75 10.0858 12.4142 9.75 12 9.75H7ZM7 12.75C6.58579 12.75 6.25 13.0858 6.25 13.5C6.25 13.9142 6.58579 14.25 7 14.25H15C15.4142 14.25 15.75 13.9142 15.75 13.5C15.75 13.0858 15.4142 12.75 15 12.75H7Z" fill="#292556"/>
</svg>
