<svg width="24" height="24" viewBox="0 0 24 24" fill="none" xmlns="http://www.w3.org/2000/svg">
<path fill-rule="evenodd" clip-rule="evenodd" d="M15.8486 5.38382C15.3126 5.24902 14.6781 5.24902 13.5508 5.24902H9C6.1877 5.24902 4.78155 5.24902 3.79581 5.96521C3.47745 6.19651 3.19748 6.47647 2.96619 6.79483C2.25 7.78057 2.25 9.18672 2.25 11.999C2.25 14.8113 2.25 16.2175 2.96619 17.2032C3.11428 17.4071 3.28232 17.5951 3.46762 17.7648L15.8486 5.38382ZM6.07573 18.6922C6.84305 18.749 7.79175 18.749 9 18.749H13.5508C14.8403 18.749 15.4851 18.749 16.0751 18.5472C16.2701 18.4806 16.4592 18.3979 16.6406 18.3001C17.1895 18.0043 17.6276 17.5312 18.5037 16.585L19.353 15.6678C20.778 14.1288 21.4905 13.3592 21.6281 12.4455C21.6726 12.1495 21.6726 11.8485 21.6281 11.5525C21.4905 10.6388 20.778 9.86927 19.353 8.33022L18.5037 7.41302C18.297 7.18978 18.1147 6.99288 17.9495 6.81842L6.07573 18.6922Z" fill="#292556"/>
<path d="M3 21L21 3" stroke="#292556" stroke-width="1.5" stroke-linecap="round" stroke-linejoin="round"/>
</svg>
