<svg width="24" height="24" viewBox="0 0 24 24" fill="none" xmlns="http://www.w3.org/2000/svg">
<path d="M7.8138 18.75H13.7414C14.8668 18.75 15.4295 18.75 15.9438 18.5729C16.1137 18.5144 16.2785 18.4419 16.4365 18.3561C16.9145 18.0965 17.2946 17.6816 18.0548 16.8518L19.7149 15.0399C20.8843 13.7635 21.469 13.1253 21.5819 12.3695C21.6186 12.1245 21.6186 11.8755 21.5819 11.6305C21.469 10.8747 20.8843 10.2365 19.7149 8.96012L18.0548 7.14815C17.2946 6.31837 16.9145 5.90348 16.4365 5.64392C16.2785 5.55815 16.1137 5.48562 15.9438 5.4271C15.4295 5.25 14.8668 5.25 13.7414 5.25H7.8138C5.03778 5.25 3.64977 5.25 3.20441 5.91739C3.0674 6.1227 2.98318 6.35865 2.9592 6.60431C2.88128 7.40286 3.95554 8.2818 6.10406 10.0397L6.37162 10.2586C7.24063 10.9696 7.67513 11.3251 7.75649 11.7799C7.78253 11.9255 7.78253 12.0745 7.75649 12.2201C7.67513 12.6749 7.24063 13.0304 6.37162 13.7414L6.10406 13.9603C3.95554 15.7182 2.88128 16.5971 2.9592 17.3957C2.98318 17.6413 3.0674 17.8773 3.20441 18.0826C3.64977 18.75 5.03778 18.75 7.8138 18.75Z" fill="#292556"/>
</svg>
