<svg width="24" height="24" viewBox="0 0 24 24" fill="none" xmlns="http://www.w3.org/2000/svg">
<path d="M15.5 21.25H8.5C7.80964 21.25 7.25 20.6904 7.25 20C7.25 19.3096 7.80964 18.75 8.5 18.75H10.75V14.4C10.75 14.025 10.75 13.8375 10.8455 13.7061C10.8763 13.6637 10.9137 13.6263 10.9561 13.5955C11.0875 13.5 11.275 13.5 11.65 13.5H12.35C12.725 13.5 12.9125 13.5 13.0439 13.5955C13.0863 13.6263 13.1237 13.6637 13.1545 13.7061C13.25 13.8375 13.25 14.025 13.25 14.4V18.75H15.5C16.1904 18.75 16.75 19.3096 16.75 20C16.75 20.6904 16.1904 21.25 15.5 21.25Z" fill="#292556"/>
<path d="M14.9618 2.5H9.03823C7.52519 2.5 6.76867 2.5 6.1558 2.83201C5.95546 2.94053 5.76939 3.07354 5.60186 3.22795C5.08935 3.70036 4.84448 4.41616 4.35472 5.84774L3.47267 8.42604C2.98108 9.863 2.73529 10.5815 2.9854 11.126C3.06496 11.2993 3.1768 11.4557 3.31494 11.5871C3.74924 12 4.5086 12 6.02732 12H16.875V15.875C16.875 16.2202 17.1548 16.5 17.5 16.5C17.8452 16.5 18.125 16.2202 18.125 15.875V12C19.5027 12 20.1916 12 20.6077 11.6557C20.8084 11.4897 20.9624 11.2742 21.0545 11.0306C21.2456 10.5255 21.0226 9.8737 20.5766 8.57016L19.6453 5.84775C19.1555 4.41616 18.9107 3.70036 18.3981 3.22795C18.2306 3.07354 18.0445 2.94053 17.8442 2.83201C17.2313 2.5 16.4748 2.5 14.9618 2.5Z" fill="#292556"/>
</svg>
