<svg width="24" height="24" viewBox="0 0 24 24" fill="none" xmlns="http://www.w3.org/2000/svg">
<path fill-rule="evenodd" clip-rule="evenodd" d="M14.6871 21.7393H9.31255C6.71534 21.7393 5.41673 21.7393 4.56435 20.9819C4.31794 20.763 4.05013 20.4199 3.89758 20.1277C3.36987 19.1169 3.63245 18.0679 4.15761 15.9697C4.18107 15.8759 4.20546 15.7854 4.23089 15.698L4.23089 15.698C4.32611 15.3707 4.37372 15.207 4.56233 15.0232C4.61234 14.9744 4.70697 14.9034 4.76774 14.869C4.99696 14.7393 5.2181 14.7393 5.66038 14.7393H18.3392C18.7815 14.7393 19.0026 14.7393 19.2319 14.869C19.2926 14.9034 19.3873 14.9744 19.4373 15.0232C19.6259 15.207 19.6735 15.3707 19.7687 15.698C19.7941 15.7854 19.8185 15.8759 19.842 15.9697C20.3671 18.0679 20.6297 19.1169 20.102 20.1277C19.9495 20.4199 19.6817 20.763 19.4352 20.9819C18.5829 21.7393 17.2843 21.7393 14.6871 21.7393ZM8 16.9902C8 16.5761 7.66425 16.2402 7.25009 16.2402C6.836 16.2402 6.50028 16.576 6.50018 16.9901C6.50008 17.4043 6.83586 17.7402 7.25009 17.7402C7.66425 17.7402 8 17.4044 8 16.9902ZM8 19.5C8 19.0858 7.66425 18.75 7.25009 18.75C6.836 18.75 6.50028 19.0857 6.50018 19.4998C6.50008 19.9141 6.83586 20.25 7.25009 20.25C7.66425 20.25 8 19.9142 8 19.5ZM13 18.75C13.4142 18.75 13.75 19.0858 13.75 19.5C13.75 19.9142 13.4142 20.25 13 20.25H11.0004C10.586 20.25 10.2502 19.914 10.2504 19.4996C10.2507 19.0855 10.5864 18.75 11.0004 18.75H13ZM12.75 16.9902C12.75 16.5761 12.4143 16.2402 12.0001 16.2402C11.586 16.2402 11.2503 16.576 11.2502 16.9901C11.2501 17.4043 11.5859 17.7402 12.0001 17.7402C12.4143 17.7402 12.75 17.4044 12.75 16.9902ZM16.7501 16.2402C17.1643 16.2402 17.5 16.5761 17.5 16.9902C17.5 17.4044 17.1643 17.7402 16.7501 17.7402C16.3359 17.7402 16.0001 17.4043 16.0002 16.9901C16.0003 16.576 16.336 16.2402 16.7501 16.2402ZM17.5 19.5C17.5 19.0858 17.1643 18.75 16.7501 18.75C16.336 18.75 16.0003 19.0857 16.0002 19.4998C16.0001 19.9141 16.3359 20.25 16.7501 20.25C17.1643 20.25 17.5 19.9142 17.5 19.5Z" fill="#292556"/>
<path d="M15.25 2.25H8.75C7.11999 2.25 6.30498 2.25 5.65612 2.49907C4.66393 2.87994 3.87994 3.66393 3.49907 4.65612C3.25 5.30498 3.25 6.11999 3.25 7.75C3.25 9.38001 3.25 10.195 3.49907 10.8439C3.87994 11.8361 4.66393 12.6201 5.65612 13.0009C6.30498 13.25 7.11999 13.25 8.75 13.25H15.25C16.88 13.25 17.695 13.25 18.3439 13.0009C19.3361 12.6201 20.1201 11.8361 20.5009 10.8439C20.75 10.195 20.75 9.38001 20.75 7.75C20.75 6.11999 20.75 5.30498 20.5009 4.65612C20.1201 3.66393 19.3361 2.87994 18.3439 2.49907C17.695 2.25 16.88 2.25 15.25 2.25Z" fill="#292556"/>
</svg>
