<svg width="24" height="24" viewBox="0 0 24 24" fill="none" xmlns="http://www.w3.org/2000/svg">
<path fill-rule="evenodd" clip-rule="evenodd" d="M8.25 21.75C7.08825 21.75 6.50737 21.75 6.02523 21.6489C4.17984 21.262 2.73803 19.8202 2.35109 17.9748C2.25 17.4926 2.25 16.9118 2.25 15.75V8.25C2.25 7.08825 2.25 6.50737 2.35109 6.02523C2.73803 4.17984 4.17984 2.73803 6.02523 2.35109C6.50737 2.25 7.08825 2.25 8.25 2.25V2.25V21.75V21.75ZM6 7.5C6.55228 7.5 7 7.05228 7 6.5C7 5.94772 6.55228 5.5 6 5.5C5.44772 5.5 5 5.94772 5 6.5C5 7.05228 5.44772 7.5 6 7.5ZM6 10.5C6.55228 10.5 7 10.0523 7 9.5C7 8.94772 6.55228 8.5 6 8.5C5.44772 8.5 5 8.94772 5 9.5C5 10.0523 5.44772 10.5 6 10.5Z" fill="#292556"/>
<path d="M13.2 2.25C16.7622 2.25 18.5434 2.25 19.792 3.15717C20.1952 3.45015 20.5499 3.80477 20.8428 4.20802C21.75 5.45663 21.75 7.23775 21.75 10.8V13.2C21.75 16.7622 21.75 18.5434 20.8428 19.792C20.5499 20.1952 20.1952 20.5499 19.792 20.8428C18.5434 21.75 16.7622 21.75 13.2 21.75H9.75V2.25H13.2Z" fill="#292556"/>
</svg>
