<svg width="24" height="24" viewBox="0 0 24 24" fill="none" xmlns="http://www.w3.org/2000/svg">
<path d="M13.2 21.75C16.7622 21.75 18.5434 21.75 19.792 20.8428C20.1952 20.5499 20.5499 20.1952 20.8428 19.792C21.75 18.5434 21.75 16.7622 21.75 13.2V10.8C21.75 7.23775 21.75 5.45663 20.8428 4.20802C20.5499 3.80477 20.1952 3.45015 19.792 3.15717C18.5434 2.25 16.7622 2.25 13.2 2.25H9.75V21.75H13.2Z" fill="#292556"/>
<path d="M8.25 2.25C7.08825 2.25 6.50737 2.25 6.02523 2.35109C4.17984 2.73803 2.73803 4.17984 2.35109 6.02523C2.25 6.50737 2.25 7.08825 2.25 8.25V15.75C2.25 16.9118 2.25 17.4926 2.35109 17.9748C2.73803 19.8202 4.17984 21.262 6.02523 21.6489C6.50737 21.75 7.08825 21.75 8.25 21.75V21.75V2.25V2.25Z" fill="#292556"/>
</svg>
