<svg width="24" height="24" viewBox="0 0 24 24" fill="none" xmlns="http://www.w3.org/2000/svg">
<path fill-rule="evenodd" clip-rule="evenodd" d="M19.9606 2.75304C20.3898 2.73018 20.7504 3.07209 20.7505 3.50196C20.7505 6.63092 20.4692 9.07194 19.9413 10.9383C19.4133 12.8048 18.6237 14.147 17.5712 15.0064C15.6084 16.6088 13.0565 16.3022 10.551 15.3871C11.2403 13.6011 12.3886 12.0426 14.0696 11.4134C14.4575 11.2682 14.6543 10.836 14.5091 10.4481C14.3639 10.0602 13.9317 9.86338 13.5438 10.0086C11.4335 10.7984 10.0892 12.619 9.29612 14.4902C8.38299 13.0207 7.89907 11.5947 7.87678 10.2485C7.85242 8.77702 8.3816 7.4655 9.38283 6.37757C11.3434 4.24718 15.0644 3.01369 19.9606 2.75304ZM9.29612 14.4902C9.20149 14.7135 9.11471 14.9375 9.03541 15.1605C8.80234 15.8161 8.62841 16.4775 8.50734 17.1118C8.41188 16.9221 8.31242 16.7302 8.20931 16.5381C7.71379 15.6149 7.11654 14.654 6.45419 13.9136C5.82044 13.2052 4.98391 12.5367 4 12.5367C3.58579 12.5367 3.25 12.8725 3.25 13.2867C3.25 13.701 3.58579 14.0367 4 14.0367C4.30645 14.0367 4.76027 14.2698 5.33623 14.9137C5.88359 15.5255 6.4154 16.3676 6.88765 17.2475C7.35632 18.1207 7.74922 18.9985 8.02575 19.6609C8.16367 19.9913 8.27183 20.2661 8.3452 20.4575C8.38186 20.5531 8.40979 20.6278 8.42836 20.678L8.44909 20.7345L8.45403 20.7481L8.45512 20.7511L8.45527 20.7515L8.45531 20.7517L8.45532 20.7517C8.5901 21.1281 8.99651 21.3326 9.37914 21.2166C9.76183 21.1005 9.98611 20.7046 9.88895 20.3166C9.78918 19.9183 9.75079 19.2415 9.83517 18.3916C9.91825 17.5549 10.1154 16.6005 10.4488 15.663C10.4816 15.5705 10.5157 15.4785 10.551 15.3871C10.3214 15.3033 10.0921 15.2143 9.86378 15.1212C9.72452 15.0644 9.60554 14.9671 9.52229 14.8419C9.44419 14.7244 9.3688 14.6072 9.29612 14.4902Z" fill="#292556"/>
</svg>
