<svg width="24" height="24" viewBox="0 0 24 24" fill="none" xmlns="http://www.w3.org/2000/svg">
<path fill-rule="evenodd" clip-rule="evenodd" d="M9.56022 4.26769C12.3681 1.45982 16.9206 1.45982 19.7284 4.26769V4.26769C22.5363 7.07556 22.5363 11.628 19.7284 14.4359L15.3824 18.7819C12.8816 21.2827 8.82689 21.2827 6.32603 18.7819V18.7819C6.48614 18.6183 6.66159 18.442 6.85362 18.25L10.0477 15.0559H14.2888C14.703 15.0559 15.0388 14.7201 15.0388 14.3059C15.0388 13.8917 14.703 13.5559 14.2888 13.5559H11.5477L13.6512 11.4525H16.375C16.7892 11.4525 17.125 11.1167 17.125 10.7025C17.125 10.2882 16.7892 9.95245 16.375 9.95245H14.0905V7.66797C14.0905 7.25376 13.7547 6.91797 13.3405 6.91797C12.9263 6.91797 12.5905 7.25376 12.5905 7.66797V10.3918L10.4871 12.4952V9.75417C10.4871 9.33996 10.1513 9.00417 9.73708 9.00417C9.32287 9.00417 8.98708 9.33996 8.98708 9.75417V13.9952L5.67485 17.3074C5.53361 17.4485 5.39643 17.5855 5.26395 17.7198V17.7198C2.73564 15.1915 2.73564 11.0923 5.26395 8.56396L9.56022 4.26769ZM5.26395 17.7198C4.24753 18.75 3.5076 19.6173 3.33646 20.9C3.28168 21.3106 3.5701 21.6878 3.98068 21.7426C4.39125 21.7974 4.7685 21.509 4.82328 21.0984C4.9262 20.3271 5.32818 19.8012 6.32603 18.7819L5.26395 17.7198Z" fill="#292556"/>
</svg>
