<svg width="24" height="24" viewBox="0 0 24 24" fill="none" xmlns="http://www.w3.org/2000/svg">
<path fill-rule="evenodd" clip-rule="evenodd" d="M18.8727 17.8111C20.1998 16.2432 21 14.215 21 12C21 9.78443 20.1994 7.75585 18.8718 6.18775L18.8942 6.16531C19.1871 5.87241 19.1871 5.39754 18.8942 5.10465C18.6013 4.81175 18.1264 4.81175 17.8335 5.10465L17.811 5.12718C16.2431 3.80016 14.215 3 12 3C9.78497 3 7.75684 3.80019 6.1889 5.12726L6.16628 5.10465C5.87339 4.81175 5.39852 4.81175 5.10562 5.10465C4.81273 5.39754 4.81273 5.87241 5.10562 6.16531L5.12816 6.18784C3.80055 7.75593 3 9.78447 3 12C3 14.215 3.80016 16.2431 5.12718 17.811L5.10562 17.8326C4.81273 18.1255 4.81273 18.6003 5.10562 18.8932C5.39852 19.1861 5.87339 19.1861 6.16628 18.8932L6.18775 18.8718C7.75584 20.1994 9.78443 21 12 21C14.2155 21 16.2441 20.1995 17.8122 18.8718L17.8335 18.8932C18.1264 19.1861 18.6013 19.1861 18.8942 18.8932C19.1871 18.6003 19.1871 18.1255 18.8942 17.8326L18.8727 17.8111ZM18.8727 17.8111L15.1285 14.0669C15.5209 13.4742 15.7499 12.7629 15.7499 11.9989C15.7499 11.235 15.5209 10.5237 15.1285 9.93098L18.8718 6.18775C18.5482 5.80555 18.1933 5.45071 17.811 5.12718L14.0679 8.87032C13.4752 8.47794 12.7639 8.24894 11.9999 8.24894C11.2359 8.24894 10.5247 8.47794 9.93196 8.87032L6.1889 5.12726C5.80665 5.45079 5.45175 5.80564 5.12816 6.18784L8.8713 9.93098C8.47892 10.5237 8.24991 11.235 8.24991 11.9989C8.24991 12.7629 8.47892 13.4742 8.8713 14.0669L5.12718 17.811C5.45071 18.1933 5.80555 18.5482 6.18775 18.8718L9.93196 15.1276C10.5247 15.5199 11.2359 15.7489 11.9999 15.7489C12.7639 15.7489 13.4752 15.5199 14.0679 15.1276L17.8122 18.8718C18.1944 18.5483 18.5492 18.1934 18.8727 17.8111Z" fill="#292556"/>
<path d="M21 12C21 16.9706 16.9706 21 12 21C7.02944 21 3 16.9706 3 12C3 7.02944 7.02944 3 12 3C16.9706 3 21 7.02944 21 12Z" stroke="#292556" stroke-width="1.5"/>
</svg>
