<svg width="24" height="24" viewBox="0 0 24 24" fill="none" xmlns="http://www.w3.org/2000/svg">
<path d="M8.5 18.75C8.5 18.517 8.5 18.4005 8.53806 18.3087C8.58881 18.1861 8.68614 18.0888 8.80866 18.0381C8.90054 18 9.01703 18 9.25 18H14.75C14.983 18 15.0995 18 15.1913 18.0381C15.3139 18.0888 15.4112 18.1861 15.4619 18.3087C15.5 18.4005 15.5 18.517 15.5 18.75V18.75C15.5 19.6819 15.5 20.1478 15.3478 20.5154C15.1448 21.0054 14.7554 21.3948 14.2654 21.5978C13.8978 21.75 13.4319 21.75 12.5 21.75H11.5C10.5681 21.75 10.1022 21.75 9.73463 21.5978C9.24458 21.3948 8.85523 21.0054 8.65224 20.5154C8.5 20.1478 8.5 19.6819 8.5 18.75V18.75Z" fill="#292556"/>
<path fill-rule="evenodd" clip-rule="evenodd" d="M15.0509 16.4984C15.0307 16.5 15.0068 16.5 14.959 16.5H9.04195C8.99416 16.5 8.97027 16.5 8.95012 16.4984C8.70584 16.4786 8.51191 16.2846 8.49212 16.0404C8.49049 16.0202 8.49049 15.9963 8.49049 15.9485V15.7267C8.49049 15.3829 8.37657 15.0488 8.16654 14.7766L6.74776 12.938C3.38207 8.57623 6.49118 2.25 12.0005 2.25C17.5098 2.25 20.6189 8.57623 17.2532 12.938L15.8344 14.7766C15.6244 15.0488 15.5105 15.3829 15.5105 15.7267V15.9485C15.5105 15.9963 15.5105 16.0202 15.5089 16.0404C15.4891 16.2846 15.2951 16.4786 15.0509 16.4984ZM11.1436 11.1141C10.9305 10.7589 10.4698 10.6438 10.1146 10.8569C9.75943 11.07 9.64426 11.5307 9.85737 11.8859L11.3574 14.3859C11.4929 14.6118 11.737 14.75 12.0005 14.75C12.2639 14.75 12.5081 14.6118 12.6436 14.3859L14.1436 11.8859C14.3567 11.5307 14.2415 11.07 13.8864 10.8569C13.5312 10.6438 13.0705 10.7589 12.8574 11.1141L12.0005 12.5423L11.1436 11.1141Z" fill="#292556"/>
<path d="M3 3L4.22727 4.5M21 3L19.7727 4.5M21 15L19.7727 13.5M3 15L4.22727 13.5M3 9H3.5M21 9H20.5" stroke="#292556" stroke-width="1.5" stroke-linecap="round" stroke-linejoin="round"/>
</svg>
