<svg width="24" height="24" viewBox="0 0 24 24" fill="none" xmlns="http://www.w3.org/2000/svg">
<path fill-rule="evenodd" clip-rule="evenodd" d="M11.9995 2.25C17.5088 2.25 20.6179 8.57623 17.2522 12.938L15.8335 14.7766C15.6234 15.0488 15.5095 15.3829 15.5095 15.7267V15.9485C15.5095 15.9963 15.5095 16.0202 15.5079 16.0404C15.4881 16.2846 15.2942 16.4786 15.0499 16.4984C15.0297 16.5 15.0058 16.5 14.9581 16.5H9.04097C8.99319 16.5 8.9693 16.5 8.94914 16.4984C8.70486 16.4786 8.51094 16.2846 8.49115 16.0404C8.48951 16.0202 8.48951 15.9963 8.48951 15.9485V15.7267C8.48951 15.3829 8.37559 15.0488 8.16556 14.7766L6.74678 12.938C3.3811 8.57623 6.49021 2.25 11.9995 2.25ZM8.53757 18.3087C8.49951 18.4005 8.49951 18.517 8.49951 18.75C8.49951 19.6819 8.49951 20.1478 8.65175 20.5154C8.85474 21.0054 9.24409 21.3948 9.73414 21.5978C10.1017 21.75 10.5676 21.75 11.4995 21.75H12.4995C13.4314 21.75 13.8973 21.75 14.2649 21.5978C14.7549 21.3948 15.1443 21.0054 15.3473 20.5154C15.4995 20.1478 15.4995 19.6819 15.4995 18.75C15.4995 18.517 15.4995 18.4005 15.4615 18.3087C15.4107 18.1861 15.3134 18.0888 15.1909 18.0381C15.099 18 14.9825 18 14.7495 18H9.24951C9.01654 18 8.90006 18 8.80817 18.0381C8.68566 18.0888 8.58832 18.1861 8.53757 18.3087ZM11.5281 5.19839C11.1497 5.32362 10.8306 5.67896 10.1924 6.38962C9.26568 6.57842 8.80232 6.67282 8.50817 6.92311C8.24455 7.14741 8.06662 7.45597 8.00454 7.79649C7.93527 8.17645 8.08328 8.61761 8.37929 9.49994C8.08328 10.3823 7.93527 10.8234 8.00454 11.2034C8.06662 11.5439 8.24455 11.8525 8.50817 12.0768C8.80232 12.3271 9.26568 12.4215 10.1924 12.6103L10.1924 12.6103C10.8306 13.3209 11.1497 13.6763 11.5281 13.8015C11.8341 13.9028 12.1646 13.9028 12.4707 13.8015C12.8491 13.6763 13.1682 13.3209 13.8064 12.6103C14.7331 12.4215 15.1965 12.3271 15.4906 12.0768C15.7542 11.8525 15.9322 11.5439 15.9942 11.2034C16.0635 10.8234 15.9155 10.3823 15.6195 9.49994C15.9155 8.61761 16.0635 8.17645 15.9942 7.79648C15.9322 7.45597 15.7542 7.14741 15.4906 6.92311C15.1965 6.67282 14.7331 6.57842 13.8064 6.38962C13.1682 5.67896 12.8491 5.32362 12.4707 5.19839C12.1646 5.09712 11.8341 5.09712 11.5281 5.19839ZM12.9995 9.5C12.9995 10.0523 12.5518 10.5 11.9995 10.5C11.4472 10.5 10.9995 10.0523 10.9995 9.5C10.9995 8.94772 11.4472 8.5 11.9995 8.5C12.5518 8.5 12.9995 8.94772 12.9995 9.5Z" fill="#292556"/>
</svg>
