<svg width="24" height="24" viewBox="0 0 24 24" fill="none" xmlns="http://www.w3.org/2000/svg">
<path fill-rule="evenodd" clip-rule="evenodd" d="M12.0005 2.25C17.5098 2.25 20.6189 8.57623 17.2532 12.938L15.8344 14.7766C15.6244 15.0488 15.5105 15.3829 15.5105 15.7267V15.9485C15.5105 15.9963 15.5105 16.0202 15.5089 16.0404C15.4891 16.2846 15.2951 16.4786 15.0509 16.4984C15.0307 16.5 15.0068 16.5 14.959 16.5H9.04195C8.99416 16.5 8.97027 16.5 8.95012 16.4984C8.70584 16.4786 8.51191 16.2846 8.49212 16.0404C8.49049 16.0202 8.49049 15.9963 8.49049 15.9485V15.7267C8.49049 15.3829 8.37657 15.0488 8.16654 14.7766L6.74776 12.938C3.38207 8.57623 6.49118 2.25 12.0005 2.25ZM8.53855 18.3087C8.50049 18.4005 8.50049 18.517 8.50049 18.75C8.50049 19.6819 8.50049 20.1478 8.65273 20.5154C8.85572 21.0054 9.24507 21.3948 9.73512 21.5978C10.1027 21.75 10.5686 21.75 11.5005 21.75H12.5005C13.4324 21.75 13.8983 21.75 14.2659 21.5978C14.7559 21.3948 15.1453 21.0054 15.3482 20.5154C15.5005 20.1478 15.5005 19.6819 15.5005 18.75C15.5005 18.517 15.5005 18.4005 15.4624 18.3087C15.4117 18.1861 15.3143 18.0888 15.1918 18.0381C15.0999 18 14.9835 18 14.7505 18H9.25049C9.01752 18 8.90103 18 8.80915 18.0381C8.68663 18.0888 8.5893 18.1861 8.53855 18.3087ZM8.91794 7.4947C8.95021 6.24951 9.96973 5.25 11.2227 5.25V13.75C9.96973 13.75 8.95021 12.7505 8.91794 11.5053C8.2208 11.1089 7.75049 10.3599 7.75049 9.5C7.75049 8.6401 8.2208 7.8911 8.91794 7.4947ZM15.083 11.5053C15.0508 12.7505 14.0312 13.75 12.7783 13.75V5.25C14.0312 5.25 15.0508 6.24951 15.083 7.4947C15.7802 7.8911 16.2505 8.6401 16.2505 9.5C16.2505 10.3599 15.7802 11.1089 15.083 11.5053Z" fill="#292556"/>
</svg>
