<svg width="24" height="24" viewBox="0 0 24 24" fill="none" xmlns="http://www.w3.org/2000/svg">
<path d="M8.5 18.75C8.5 18.517 8.5 18.4005 8.53806 18.3087C8.58881 18.1861 8.68614 18.0888 8.80866 18.0381C8.90054 18 9.01703 18 9.25 18H14.75C14.983 18 15.0995 18 15.1913 18.0381C15.3139 18.0888 15.4112 18.1861 15.4619 18.3087C15.5 18.4005 15.5 18.517 15.5 18.75V18.75C15.5 19.6819 15.5 20.1478 15.3478 20.5154C15.1448 21.0054 14.7554 21.3948 14.2654 21.5978C13.8978 21.75 13.4319 21.75 12.5 21.75H11.5C10.5681 21.75 10.1022 21.75 9.73463 21.5978C9.24458 21.3948 8.85523 21.0054 8.65224 20.5154C8.5 20.1478 8.5 19.6819 8.5 18.75V18.75Z" fill="#292556"/>
<path fill-rule="evenodd" clip-rule="evenodd" d="M15.0499 16.4984C15.0297 16.5 15.0058 16.5 14.9581 16.5H9.04097C8.99319 16.5 8.9693 16.5 8.94914 16.4984C8.70486 16.4786 8.51093 16.2846 8.49115 16.0404C8.48951 16.0202 8.48951 15.9963 8.48951 15.9485V15.7267C8.48951 15.3829 8.37559 15.0488 8.16556 14.7766L6.74678 12.938C3.3811 8.57623 6.49021 2.25 11.9995 2.25C17.5088 2.25 20.6179 8.57623 17.2522 12.938L15.8335 14.7766C15.6234 15.0488 15.5095 15.3829 15.5095 15.7267V15.9485C15.5095 15.9963 15.5095 16.0202 15.5079 16.0404C15.4881 16.2846 15.2942 16.4786 15.0499 16.4984ZM11.1426 11.1141C10.9295 10.7589 10.4688 10.6438 10.1136 10.8569C9.75846 11.07 9.64328 11.5307 9.85639 11.8859L11.3564 14.3859C11.4919 14.6118 11.7361 14.75 11.9995 14.75C12.263 14.75 12.5071 14.6118 12.6426 14.3859L14.1426 11.8859C14.3557 11.5307 14.2406 11.07 13.8854 10.8569C13.5302 10.6438 13.0695 10.7589 12.8564 11.1141L11.9995 12.5423L11.1426 11.1141Z" fill="#292556"/>
</svg>
