<svg width="24" height="24" viewBox="0 0 24 24" fill="none" xmlns="http://www.w3.org/2000/svg">
<path fill-rule="evenodd" clip-rule="evenodd" d="M16.1369 19.1733C15.174 20.072 14.2451 20.8085 13.5573 21.3204C13.5441 21.3302 13.5442 21.3301 13.5506 21.3254C13.5665 21.3136 13.6211 21.2728 13.6095 21.2812C12.7253 21.9193 11.275 21.9193 10.3908 21.2812C10.3745 21.2694 10.4887 21.3544 10.443 21.3204C9.75517 20.8085 8.8263 20.072 7.86344 19.1733C5.97011 17.4062 3.81397 14.8931 3.26469 12.1471C2.15361 6.5926 6.65311 2.25 12.0001 2.25C17.3472 2.25 21.8463 6.59263 20.7356 12.1471C20.1864 14.8931 18.0303 17.4062 16.1369 19.1733ZM12 14.65C13.933 14.65 15.5 13.083 15.5 11.15C15.5 9.21703 13.933 7.65002 12 7.65002C10.067 7.65002 8.5 9.21703 8.5 11.15C8.5 13.083 10.067 14.65 12 14.65Z" fill="#292556"/>
</svg>
