<svg width="24" height="24" viewBox="0 0 24 24" fill="none" xmlns="http://www.w3.org/2000/svg">
<path d="M14 3.75C14.4142 3.75 14.75 3.41421 14.75 3C14.75 2.58579 14.4142 2.25 14 2.25V3.75ZM12 3.75H14V2.25H12V3.75ZM7.75 8C7.75 5.65279 9.65279 3.75 12 3.75V2.25C8.82436 2.25 6.25 4.82436 6.25 8H7.75Z" fill="#292556"/>
<path fill-rule="evenodd" clip-rule="evenodd" d="M9.5 7.25H14.5C16.8306 7.25 17.996 7.25 18.9081 7.65008C19.9995 8.12885 20.8712 9.00046 21.3499 10.0919C21.75 11.004 21.75 12.1694 21.75 14.5C21.75 16.8306 21.75 17.996 21.3499 18.9081C20.8712 19.9995 19.9995 20.8712 18.9081 21.3499C17.996 21.75 16.8306 21.75 14.5 21.75H9.5C7.16935 21.75 6.00403 21.75 5.09195 21.3499C4.00046 20.8712 3.12885 19.9995 2.65008 18.9081C2.25 17.996 2.25 16.8306 2.25 14.5C2.25 12.1694 2.25 11.004 2.65008 10.0919C3.12885 9.00046 4.00046 8.12885 5.09195 7.65008C6.00403 7.25 7.16935 7.25 9.5 7.25ZM12.75 12.5C12.75 12.0858 12.4142 11.75 12 11.75C11.5858 11.75 11.25 12.0858 11.25 12.5V16.5C11.25 16.9142 11.5858 17.25 12 17.25C12.4142 17.25 12.75 16.9142 12.75 16.5V12.5Z" fill="#292556"/>
</svg>
