<svg width="24" height="24" viewBox="0 0 24 24" fill="none" xmlns="http://www.w3.org/2000/svg">
<path d="M17 8V8C17 5.23858 14.7614 3 12 3V3C9.23858 3 7 5.23858 7 8V8" stroke="#292556" stroke-width="1.5" stroke-linejoin="round"/>
<path fill-rule="evenodd" clip-rule="evenodd" d="M9.47461 7.25H14.4746C16.8053 7.25 17.9706 7.25 18.8827 7.65008C19.9742 8.12885 20.8458 9.00046 21.3245 10.0919C21.7246 11.004 21.7246 12.1694 21.7246 14.5C21.7246 16.8306 21.7246 17.996 21.3245 18.9081C20.8458 19.9995 19.9742 20.8712 18.8827 21.3499C17.9706 21.75 16.8053 21.75 14.4746 21.75H9.47461C7.14396 21.75 5.97864 21.75 5.06656 21.3499C3.97507 20.8712 3.10346 19.9995 2.62469 18.9081C2.22461 17.996 2.22461 16.8306 2.22461 14.5C2.22461 12.1694 2.22461 11.004 2.62469 10.0919C3.10346 9.00046 3.97507 8.12885 5.06656 7.65008C5.97864 7.25 7.14396 7.25 9.47461 7.25ZM14.75 13.5C14.75 14.7588 13.9043 15.82 12.75 16.1465V18C12.75 18.4142 12.4142 18.75 12 18.75C11.5858 18.75 11.25 18.4142 11.25 18V16.1465C10.0957 15.82 9.25 14.7588 9.25 13.5C9.25 11.9812 10.4812 10.75 12 10.75C13.5188 10.75 14.75 11.9812 14.75 13.5Z" fill="#292556"/>
</svg>
