<svg width="24" height="24" viewBox="0 0 24 24" fill="none" xmlns="http://www.w3.org/2000/svg">
<path fill-rule="evenodd" clip-rule="evenodd" d="M17.3224 14.45C15.4157 15.8799 12.8317 16.2303 10.564 15.2352L7.00297 21.4039C6.79588 21.7626 6.33719 21.8856 5.97846 21.6785C5.61973 21.4714 5.4968 21.0127 5.70389 20.654L9.26501 14.4851C7.26967 13.0189 6.28134 10.6061 6.56618 8.24013L17.3224 14.45ZM20.0202 9.07971L9.86794 3.21848C11.8913 2.04097 14.4714 1.95021 16.6441 3.20461C18.8168 4.45898 20.0283 6.73877 20.0202 9.07971Z" fill="#292556"/>
<path d="M8.56507 4.19861C7.84787 3.78454 6.9308 4.03007 6.51643 4.7471V4.7471C6.10182 5.46455 6.34753 6.38228 7.06515 6.79659L18.3226 13.296C19.0398 13.71 19.9569 13.4645 20.3712 12.7475V12.7475C20.7858 12.03 20.5401 11.1123 19.8225 10.698L8.56507 4.19861Z" fill="#292556"/>
</svg>
