<svg width="24" height="24" viewBox="0 0 24 24" fill="none" xmlns="http://www.w3.org/2000/svg">
<path fill-rule="evenodd" clip-rule="evenodd" d="M12.2796 10.6509L3.47944 19.4511C3.18654 19.744 3.18654 20.2189 3.47944 20.5118C3.77233 20.8047 4.2472 20.8047 4.5401 20.5118L13.3405 11.7114C13.3079 11.5558 13.2741 11.3941 13.239 11.2259L13.1573 10.8343L12.7656 10.7525C12.5973 10.7174 12.4353 10.6836 12.2796 10.6509Z" fill="#292556"/>
<path d="M15.8506 4.71687C14.2024 3.06865 13.3783 2.24454 12.7874 2.30487C12.4567 2.33863 12.153 2.50277 11.9436 2.76097C11.5694 3.22224 11.8074 4.36315 12.2834 6.64496V6.64496V6.64496C10.2259 7.61204 9.19717 8.09558 9.07127 8.70915C9.01733 8.972 9.04941 9.24522 9.16275 9.48842C9.42733 10.0562 10.5401 10.2883 12.7656 10.7525L13.1573 10.8343L13.239 11.2259C13.7033 13.4515 13.9354 14.5642 14.5032 14.8288C14.7464 14.9422 15.0196 14.9742 15.2824 14.9203C15.896 14.7944 16.3795 13.7657 17.3466 11.7082V11.7082V11.7082C19.6284 12.1842 20.7693 12.4222 21.2306 12.048C21.4888 11.8386 21.6529 11.5349 21.6867 11.2042C21.747 10.6133 20.9229 9.7892 19.2747 8.14099L19.1037 7.96995L19.1823 7.80266C20.158 5.72694 20.6458 4.68908 20.3028 4.11749C20.1972 3.94157 20.05 3.79433 19.8741 3.68878C19.3025 3.34581 18.2646 3.83363 16.1889 4.80927L16.0216 4.8879L15.8506 4.71687Z" fill="#292556"/>
</svg>
