<svg width="24" height="24" viewBox="0 0 24 24" fill="none" xmlns="http://www.w3.org/2000/svg">
<path fill-rule="evenodd" clip-rule="evenodd" d="M10.875 3.25H15C17.8123 3.25 19.2184 3.25 20.2042 3.96619C20.5226 4.19748 20.8025 4.47745 21.0338 4.79581C21.75 5.78155 21.75 7.1877 21.75 10V11.6C21.75 12.9124 21.75 13.5686 21.4158 14.0286C21.3078 14.1772 21.1772 14.3078 21.0286 14.4158C20.5686 14.75 19.9124 14.75 18.6 14.75H15V19.875C15 20.9105 14.1605 21.75 13.125 21.75C12.0895 21.75 11.25 20.9105 11.25 19.875V14.75H5.125C4.07406 14.75 3.54858 14.75 3.15349 14.5316C2.86518 14.3723 2.6277 14.1348 2.46836 13.8465C2.25 13.4514 2.25 12.9259 2.25 11.875C2.25 8.72217 2.25 7.14575 2.90508 5.96048C3.38311 5.09555 4.09555 4.38311 4.96048 3.90508C6.14575 3.25 7.72217 3.25 10.875 3.25ZM11.25 8.625V13.25H4.91667C4.52882 13.25 4.3349 13.25 4.17856 13.1969C3.88417 13.097 3.653 12.8658 3.55307 12.5714C3.5 12.4151 3.5 12.2212 3.5 11.8333V8.625C3.5 6.4849 5.2349 4.75 7.375 4.75C9.5151 4.75 11.25 6.4849 11.25 8.625Z" fill="#292556"/>
<path d="M6 8L8.75 8" stroke="#292556" stroke-width="1.5" stroke-linecap="round" stroke-linejoin="round"/>
</svg>
