<svg width="24" height="24" viewBox="0 0 24 24" fill="none" xmlns="http://www.w3.org/2000/svg">
<path d="M12 21L11.4697 21.5303C11.7626 21.8232 12.2374 21.8232 12.5303 21.5303L12 21ZM15.0303 19.0303C15.3232 18.7374 15.3232 18.2626 15.0303 17.9697C14.7374 17.6768 14.2626 17.6768 13.9697 17.9697L15.0303 19.0303ZM10.0303 17.9697C9.73744 17.6768 9.26256 17.6768 8.96967 17.9697C8.67678 18.2626 8.67678 18.7374 8.96967 19.0303L10.0303 17.9697ZM11.25 16V21H12.75V16H11.25ZM12.5303 21.5303L15.0303 19.0303L13.9697 17.9697L11.4697 20.4697L12.5303 21.5303ZM12.5303 20.4697L10.0303 17.9697L8.96967 19.0303L11.4697 21.5303L12.5303 20.4697Z" fill="#292556"/>
<path d="M19.25 9.5C19.25 13.5041 16.0041 16.75 12 16.75C7.99594 16.75 4.75 13.5041 4.75 9.5C4.75 5.49594 7.99594 2.25 12 2.25C16.0041 2.25 19.25 5.49594 19.25 9.5Z" fill="#292556"/>
</svg>
