<svg width="24" height="24" viewBox="0 0 24 24" fill="none" xmlns="http://www.w3.org/2000/svg">
<path fill-rule="evenodd" clip-rule="evenodd" d="M12 4.25C10.8289 4.25 10.2434 4.25 9.75753 4.35271C8.3312 4.65425 7.14685 5.58612 6.50566 6.84713C6.0966 6.48414 5.59021 6.25 5 6.25C4.11893 6.25 3.41307 6.78567 2.96175 7.46265C2.50693 8.14488 2.25 9.04416 2.25 10C2.25 12.9618 3.88418 15.5501 6.33117 17.121C6.39563 17.1624 6.46497 17.193 6.53667 17.2128C7.1846 18.4434 8.3539 19.3506 9.75753 19.6473C10.2434 19.75 10.8289 19.75 12 19.75C13.1711 19.75 13.7566 19.75 14.2425 19.6473C15.6461 19.3506 16.8154 18.4434 17.4633 17.2128C17.535 17.193 17.6044 17.1624 17.6688 17.121C20.1158 15.5501 21.75 12.9618 21.75 10C21.75 9.04416 21.4931 8.14488 21.0383 7.46265C20.5869 6.78567 19.8811 6.25 19 6.25C18.4098 6.25 17.9034 6.48414 17.4943 6.84714C16.8531 5.58612 15.6688 4.65425 14.2425 4.35271C13.7566 4.25 13.1711 4.25 12 4.25ZM4.20982 8.2947C3.94078 8.69827 3.75 9.29899 3.75 10C3.75 11.903 4.58799 13.6538 5.98633 14.9617V8.65661C5.69513 7.9858 5.27994 7.75 5 7.75C4.7765 7.75 4.48236 7.8859 4.20982 8.2947ZM18.0137 8.65661V14.9617C19.412 13.6538 20.25 11.903 20.25 10C20.25 9.29899 20.0592 8.69827 19.7902 8.2947C19.5176 7.8859 19.2235 7.75 19 7.75C18.7201 7.75 18.3049 7.9858 18.0137 8.65661ZM10 9.25C9.58579 9.25 9.25 9.58579 9.25 10C9.25 10.4142 9.58579 10.75 10 10.75H14C14.4142 10.75 14.75 10.4142 14.75 10C14.75 9.58579 14.4142 9.25 14 9.25H10ZM10 13.25C9.58579 13.25 9.25 13.5858 9.25 14C9.25 14.4142 9.58579 14.75 10 14.75H14C14.4142 14.75 14.75 14.4142 14.75 14C14.75 13.5858 14.4142 13.25 14 13.25H10Z" fill="#292556"/>
</svg>
