<svg width="24" height="24" viewBox="0 0 24 24" fill="none" xmlns="http://www.w3.org/2000/svg">
<path fill-rule="evenodd" clip-rule="evenodd" d="M12 21.75C17.3848 21.75 21.75 17.3848 21.75 12C21.75 6.61522 17.3848 2.25 12 2.25C6.61522 2.25 2.25 6.61522 2.25 12C2.25 17.3848 6.61522 21.75 12 21.75ZM10.672 5.3482C10.9527 5.25 11.3018 5.25 12 5.25C12.6982 5.25 13.0473 5.25 13.328 5.3482C13.8307 5.5241 14.2259 5.91933 14.4018 6.42201C14.5 6.70266 14.5 7.05178 14.5 7.75V9.5H16.25C16.9482 9.5 17.2973 9.5 17.578 9.5982C18.0807 9.7741 18.4759 10.1693 18.6518 10.672C18.75 10.9527 18.75 11.3018 18.75 12C18.75 12.6982 18.75 13.0473 18.6518 13.328C18.4759 13.8307 18.0807 14.2259 17.578 14.4018C17.2973 14.5 16.9482 14.5 16.25 14.5H14.5V16.25C14.5 16.9482 14.5 17.2973 14.4018 17.578C14.2259 18.0807 13.8307 18.4759 13.328 18.6518C13.0473 18.75 12.6982 18.75 12 18.75C11.3018 18.75 10.9527 18.75 10.672 18.6518C10.1693 18.4759 9.7741 18.0807 9.5982 17.578C9.5 17.2973 9.5 16.9482 9.5 16.25V14.5H7.75C7.05178 14.5 6.70266 14.5 6.42201 14.4018C5.91933 14.2259 5.5241 13.8307 5.3482 13.328C5.25 13.0473 5.25 12.6982 5.25 12C5.25 11.3018 5.25 10.9527 5.3482 10.672C5.5241 10.1693 5.91933 9.7741 6.42201 9.5982C6.70266 9.5 7.05178 9.5 7.75 9.5H9.5V7.75C9.5 7.05178 9.5 6.70266 9.5982 6.42201C9.7741 5.91933 10.1693 5.5241 10.672 5.3482Z" fill="#292556"/>
</svg>
