<svg width="24" height="24" viewBox="0 0 24 24" fill="none" xmlns="http://www.w3.org/2000/svg">
<path d="M20.2402 6.75391C21.2543 9.81065 21.2543 11.8485 20.2402 14.9052" stroke="#292556" stroke-width="1.5" stroke-linecap="round" stroke-linejoin="round"/>
<path d="M2.25047 12.9738C2.25055 14.0922 3.15715 14.9987 4.27547 14.9987V14.9987L4.25651 19.491C4.25125 20.7361 5.25945 21.748 6.50452 21.7474V21.7474C7.74497 21.7467 8.75021 20.741 8.75021 19.5005V15.1104H10V6.55976H6.46978C5.09959 6.55976 4.41449 6.55976 3.87962 6.79842C3.26038 7.07474 2.76505 7.57009 2.48879 8.18936C2.25016 8.72425 2.25021 9.40934 2.25031 10.7795L2.25047 12.9738Z" fill="#292556"/>
<path d="M11.5002 5.38126C13.958 3.22779 15.1869 2.15105 16.234 2.15961C17.0106 2.16596 17.7484 2.50043 18.265 3.0804C18.9615 3.86235 18.9615 5.49622 18.9615 8.76396V12.804C18.9615 16.0738 18.9615 17.7087 18.2534 18.4936C17.7488 19.053 17.0369 19.3808 16.2838 19.4006C15.227 19.4284 13.9848 18.3656 11.5002 16.2399V16.2399V5.38126V5.38126Z" fill="#292556"/>
</svg>
