<svg width="24" height="24" viewBox="0 0 24 24" fill="none" xmlns="http://www.w3.org/2000/svg">
<path d="M21.75 10.5147V11.8055C21.75 12.943 21.75 13.5117 21.6531 13.9841C21.2711 15.8457 19.8163 17.3005 17.9547 17.6825C17.4823 17.7794 16.9135 17.7794 15.7761 17.7794C15.6809 17.7794 15.6334 17.7794 15.5885 17.7848C15.4145 17.8059 15.2533 17.8872 15.1331 18.0147C15.102 18.0476 15.0738 18.0859 15.0172 18.1625L14.9354 18.2733C13.9189 19.6504 13.4107 20.3389 12.7796 20.572C12.2765 20.7578 11.7235 20.7578 11.2204 20.572C10.5893 20.3389 10.0811 19.6504 9.06459 18.2733L9.06458 18.2733L8.98276 18.1625C8.92624 18.0859 8.89798 18.0476 8.86694 18.0147C8.74666 17.8872 8.58554 17.8059 8.41154 17.7848C8.36664 17.7794 8.31905 17.7794 8.22388 17.7794C7.08645 17.7794 6.51774 17.7794 6.04532 17.6825C4.18368 17.3005 2.72888 15.8457 2.34693 13.9841C2.25 13.5117 2.25 12.943 2.25 11.8055V10.5147C2.25 8.17023 2.25 6.998 2.65473 6.08137C3.13293 4.99835 3.99835 4.13293 5.08137 3.65473C5.998 3.25 7.17024 3.25 9.51471 3.25H14.4853C16.8298 3.25 18.002 3.25 18.9186 3.65473C20.0017 4.13293 20.8671 4.99835 21.3453 6.08137C21.75 6.998 21.75 8.17023 21.75 10.5147Z" fill="#292556"/>
</svg>
