<svg width="24" height="24" viewBox="0 0 24 24" fill="none" xmlns="http://www.w3.org/2000/svg">
<path fill-rule="evenodd" clip-rule="evenodd" d="M14.5 17.75H12.177L7.63093 20.023C6.53933 20.5688 5.99352 20.8417 5.65436 20.6657C5.54931 20.6111 5.45866 20.5325 5.38982 20.4362C5.16756 20.1254 5.36053 19.5465 5.74647 18.3886L6.00513 17.6127C5.66159 17.5538 5.36539 17.4699 5.09195 17.3499C4.00046 16.8712 3.12885 15.9995 2.65008 14.9081C2.25 13.996 2.25 12.8306 2.25 10.5C2.25 8.16935 2.25 7.00403 2.65008 6.09195C3.12885 5.00046 4.00046 4.12885 5.09195 3.65008C6.00403 3.25 7.16935 3.25 9.5 3.25H14.5C16.8306 3.25 17.996 3.25 18.9081 3.65008C19.9995 4.12885 20.8712 5.00046 21.3499 6.09195C21.75 7.00403 21.75 8.16935 21.75 10.5C21.75 12.8306 21.75 13.996 21.3499 14.9081C20.8712 15.9995 19.9995 16.8712 18.9081 17.3499C17.996 17.75 16.8306 17.75 14.5 17.75ZM6 10.5C6 9.80964 6.55964 9.25 7.25 9.25C7.94036 9.25 8.5 9.80964 8.5 10.5C8.5 11.1904 7.94036 11.75 7.25 11.75C6.55964 11.75 6 11.1904 6 10.5ZM10.75 10.5C10.75 9.80964 11.3096 9.25 12 9.25C12.6904 9.25 13.25 9.80964 13.25 10.5C13.25 11.1904 12.6904 11.75 12 11.75C11.3096 11.75 10.75 11.1904 10.75 10.5ZM16.75 9.25C16.0596 9.25 15.5 9.80964 15.5 10.5C15.5 11.1904 16.0596 11.75 16.75 11.75C17.4404 11.75 18 11.1904 18 10.5C18 9.80964 17.4404 9.25 16.75 9.25Z" fill="#292556"/>
</svg>
