<svg width="24" height="24" viewBox="0 0 24 24" fill="none" xmlns="http://www.w3.org/2000/svg">
<path fill-rule="evenodd" clip-rule="evenodd" d="M12.177 17.75H14.5C16.8306 17.75 17.996 17.75 18.9081 17.3499C19.9995 16.8712 20.8712 15.9995 21.3499 14.9081C21.75 13.996 21.75 12.8306 21.75 10.5C21.75 8.16935 21.75 7.00403 21.3499 6.09195C20.8712 5.00046 19.9995 4.12885 18.9081 3.65008C17.996 3.25 16.8306 3.25 14.5 3.25H9.5C7.16935 3.25 6.00403 3.25 5.09195 3.65008C4.00046 4.12885 3.12885 5.00046 2.65008 6.09195C2.25 7.00403 2.25 8.16935 2.25 10.5C2.25 12.8306 2.25 13.996 2.65008 14.9081C3.12885 15.9995 4.00046 16.8712 5.09195 17.3499C5.36539 17.4699 5.66159 17.5538 6.00513 17.6127L5.74647 18.3886C5.36053 19.5465 5.16756 20.1254 5.38982 20.4362C5.45866 20.5325 5.54931 20.6111 5.65436 20.6657C5.99352 20.8417 6.53933 20.5688 7.63093 20.023L12.177 17.75ZM15.0303 8.46967C15.3232 8.76256 15.3232 9.23744 15.0303 9.53033L12.2176 12.3431C12.2108 12.3498 12.204 12.3566 12.1973 12.3634C12.0731 12.4876 11.9402 12.6206 11.8146 12.7211C11.6714 12.8355 11.465 12.9692 11.1858 13.0047C11.0493 13.022 10.9108 13.0167 10.7761 12.9889C10.5004 12.9322 10.3048 12.783 10.1709 12.6579C10.0533 12.5481 9.93097 12.4053 9.81675 12.272C9.81049 12.2647 9.80426 12.2574 9.79806 12.2502L8.93056 11.2381C8.66099 10.9236 8.69741 10.4501 9.01191 10.1806C9.3264 9.91099 9.79988 9.94741 10.0694 10.2619L10.9369 11.274C10.9769 11.3206 11.0114 11.3609 11.0424 11.3965C11.076 11.3633 11.1135 11.3259 11.1569 11.2824L13.9697 8.46967C14.2626 8.17678 14.7374 8.17678 15.0303 8.46967Z" fill="#292556"/>
</svg>
