<svg width="24" height="24" viewBox="0 0 24 24" fill="none" xmlns="http://www.w3.org/2000/svg">
<path fill-rule="evenodd" clip-rule="evenodd" d="M10.5 2.25C10.9142 2.25 11.25 2.58579 11.25 3V4.25H12.75V3C12.75 2.58579 13.0858 2.25 13.5 2.25C13.9142 2.25 14.25 2.58579 14.25 3V4.25C14.9466 4.25 15.2949 4.25 15.5875 4.28648C17.7451 4.55541 19.4446 6.25492 19.7135 8.41246C19.75 8.7051 19.75 9.0534 19.75 9.75H21C21.4142 9.75 21.75 10.0858 21.75 10.5C21.75 10.9142 21.4142 11.25 21 11.25H19.75V12.75H21C21.4142 12.75 21.75 13.0858 21.75 13.5C21.75 13.9142 21.4142 14.25 21 14.25H19.75C19.75 14.9466 19.75 15.2949 19.7135 15.5875C19.4446 17.7451 17.7451 19.4446 15.5875 19.7135C15.2949 19.75 14.9466 19.75 14.25 19.75V21C14.25 21.4142 13.9142 21.75 13.5 21.75C13.0858 21.75 12.75 21.4142 12.75 21V19.75H11.25V21C11.25 21.4142 10.9142 21.75 10.5 21.75C10.0858 21.75 9.75 21.4142 9.75 21V19.75C9.0534 19.75 8.7051 19.75 8.41246 19.7135C6.25492 19.4446 4.55541 17.7451 4.28648 15.5875C4.25 15.2949 4.25 14.9466 4.25 14.25H3C2.58579 14.25 2.25 13.9142 2.25 13.5C2.25 13.0858 2.58579 12.75 3 12.75H4.25V11.25H3C2.58579 11.25 2.25 10.9142 2.25 10.5C2.25 10.0858 2.58579 9.75 3 9.75H4.25C4.25 9.0534 4.25 8.7051 4.28648 8.41246C4.55541 6.25492 6.25492 4.55541 8.41246 4.28648C8.7051 4.25 9.0534 4.25 9.75 4.25V3C9.75 2.58579 10.0858 2.25 10.5 2.25ZM11.4423 8.71154C11.3259 8.43205 11.0528 8.25 10.75 8.25C10.4472 8.25 10.1741 8.43205 10.0577 8.71154L8.18269 13.2115L7.55769 14.7115C7.39838 15.0939 7.57919 15.533 7.96154 15.6923C8.34389 15.8516 8.78299 15.6708 8.94231 15.2885L9.375 14.25H12.125L12.5577 15.2885C12.717 15.6708 13.1561 15.8516 13.5385 15.6923C13.9208 15.533 14.1016 15.0939 13.9423 14.7115L13.3173 13.2115L11.4423 8.71154ZM10.75 10.95L11.5 12.75H10L10.75 10.95ZM16.5 9C16.5 8.58579 16.1642 8.25 15.75 8.25C15.3358 8.25 15 8.58579 15 9V15C15 15.4142 15.3358 15.75 15.75 15.75C16.1642 15.75 16.5 15.4142 16.5 15V9Z" fill="#292556"/>
</svg>
