<svg width="24" height="24" viewBox="0 0 24 24" fill="none" xmlns="http://www.w3.org/2000/svg">
<path d="M19 10V11C19 14.866 15.866 18 12 18V18M5 10V11C5 14.866 8.13401 18 12 18V18M12 18V21" stroke="#292556" stroke-width="1.5" stroke-linecap="round" stroke-linejoin="round"/>
<path fill-rule="evenodd" clip-rule="evenodd" d="M16.75 7C16.75 4.37665 14.6234 2.25 12 2.25V2.25C9.37665 2.25 7.25 4.37665 7.25 7V11C7.25 13.6234 9.37665 15.75 12 15.75V15.75C14.6234 15.75 16.75 13.6234 16.75 11V7ZM12 6.25C12.3442 6.25 12.6441 6.48422 12.7276 6.8181C12.8314 7.23333 12.9683 7.47014 13.1241 7.62592C13.2799 7.7817 13.5167 7.91858 13.9319 8.02239C14.2658 8.10586 14.5 8.40585 14.5 8.75C14.5 9.09415 14.2658 9.39414 13.9319 9.47761C13.5167 9.58142 13.2799 9.7183 13.1241 9.87408C12.9683 10.0299 12.8314 10.2667 12.7276 10.6819C12.6441 11.0158 12.3442 11.25 12 11.25C11.6558 11.25 11.3559 11.0158 11.2724 10.6819C11.1686 10.2667 11.0317 10.0299 10.8759 9.87408C10.7201 9.7183 10.4833 9.58142 10.0681 9.47761C9.73422 9.39414 9.5 9.09415 9.5 8.75C9.5 8.40585 9.73422 8.10586 10.0681 8.02239C10.4833 7.91858 10.7201 7.7817 10.8759 7.62592C11.0317 7.47014 11.1686 7.23333 11.2724 6.8181C11.3559 6.48422 11.6558 6.25 12 6.25Z" fill="#292556"/>
</svg>
