<svg width="24" height="24" viewBox="0 0 24 24" fill="none" xmlns="http://www.w3.org/2000/svg">
<path fill-rule="evenodd" clip-rule="evenodd" d="M18.75 9V15C18.75 17.8123 18.75 19.2184 18.0338 20.2042C17.8025 20.5226 17.5225 20.8025 17.2042 21.0338C16.2184 21.75 14.8123 21.75 12 21.75C9.1877 21.75 7.78155 21.75 6.79581 21.0338C6.47745 20.8025 6.19748 20.5226 5.96619 20.2042C5.25 19.2184 5.25 17.8123 5.25 15V9C5.25 6.1877 5.25 4.78155 5.96619 3.79581C6.19748 3.47745 6.47745 3.19748 6.79581 2.96619C7.78155 2.25 9.1877 2.25 12 2.25C14.8123 2.25 16.2184 2.25 17.2042 2.96619C17.5225 3.19748 17.8025 3.47745 18.0338 3.79581C18.75 4.78155 18.75 6.1877 18.75 9ZM12.75 4.75C12.75 5.16421 12.4142 5.5 12 5.5C11.5858 5.5 11.25 5.16421 11.25 4.75C11.25 4.33579 11.5858 4 12 4C12.4142 4 12.75 4.33579 12.75 4.75ZM9.25 19C9.25 18.5858 9.58579 18.25 10 18.25H14C14.4142 18.25 14.75 18.5858 14.75 19C14.75 19.4142 14.4142 19.75 14 19.75H10C9.58579 19.75 9.25 19.4142 9.25 19Z" fill="#292556"/>
</svg>
