<svg width="24" height="24" viewBox="0 0 24 24" fill="none" xmlns="http://www.w3.org/2000/svg">
<path d="M12 2.25C10.7574 2.25 9.75 3.25736 9.75 4.5C9.75 5.47966 10.3761 6.31309 11.25 6.62197V8.32512C10.5152 8.47444 9.85803 8.83866 9.34835 9.34835C8.83866 9.85803 8.47444 10.5152 8.32512 11.25H5.58159C5.30073 10.6588 4.6981 10.25 4 10.25C3.0335 10.25 2.25 11.0335 2.25 12C2.25 12.9665 3.0335 13.75 4 13.75C4.6981 13.75 5.30073 13.3412 5.58159 12.75H8.3251C8.44219 13.3263 8.69144 13.8546 9.03934 14.3017L7.15271 16.5027C6.80195 16.3406 6.41121 16.25 6 16.25C4.48122 16.25 3.25 17.4812 3.25 19C3.25 20.5188 4.48122 21.75 6 21.75C7.51878 21.75 8.75 20.5188 8.75 19C8.75 18.4377 8.58082 17.9146 8.29139 17.4792L10.1779 15.2782C10.7175 15.5786 11.3392 15.75 12 15.75C12.661 15.75 13.2826 15.5786 13.822 15.2782L15.7086 17.4792C15.4192 17.9146 15.25 18.4377 15.25 19C15.25 20.5188 16.4812 21.75 18 21.75C19.5188 21.75 20.75 20.5188 20.75 19C20.75 17.4812 19.5188 16.25 18 16.25C17.5888 16.25 17.1981 16.3406 16.8473 16.5028L14.9607 14.3017C15.4549 13.6666 15.75 12.8673 15.75 12C15.75 11.236 15.521 10.5247 15.1286 9.93204L18.9691 6.09159C19.2091 6.19348 19.4731 6.25 19.75 6.25C20.8546 6.25 21.75 5.35457 21.75 4.25C21.75 3.14543 20.8546 2.25 19.75 2.25C18.6454 2.25 17.75 3.14543 17.75 4.25C17.75 4.52689 17.8065 4.79093 17.9084 5.03093L14.068 8.87137C13.6745 8.61086 13.2286 8.42241 12.75 8.32514V6.62197C13.6239 6.31309 14.25 5.47966 14.25 4.5C14.25 3.25736 13.2426 2.25 12 2.25Z" fill="#292556"/>
</svg>
