<svg width="24" height="24" viewBox="0 0 24 24" fill="none" xmlns="http://www.w3.org/2000/svg">
<path fill-rule="evenodd" clip-rule="evenodd" d="M2.25 5.125C2.25 4.54406 2.25 4.25358 2.30333 4.01301C2.49259 3.15932 3.15932 2.49259 4.01301 2.30333C4.25358 2.25 4.54406 2.25 5.125 2.25H18.875C19.4559 2.25 19.7464 2.25 19.987 2.30333C20.8407 2.49259 21.5074 3.15932 21.6967 4.01301C21.75 4.25358 21.75 4.54406 21.75 5.125C21.75 5.70594 21.75 5.99642 21.6967 6.23699C21.5074 7.09068 20.8407 7.75741 19.987 7.94667C19.7464 8 19.4559 8 18.875 8H5.125C4.54406 8 4.25358 8 4.01301 7.94667C3.15932 7.75741 2.49259 7.09068 2.30333 6.23699C2.25 5.99642 2.25 5.70594 2.25 5.125ZM6.25 9.5V17.25H7.3L7.33896 17.25H7.33898C7.86813 17.25 8.3244 17.25 8.69561 17.2902C9.08994 17.3329 9.47621 17.4281 9.82252 17.6797C10.0135 17.8185 10.1815 17.9865 10.3203 18.1775C10.5719 18.5238 10.6671 18.9101 10.7098 19.3044C10.75 19.6756 10.75 20.1319 10.75 20.661V20.661L10.75 20.7V21.75H13.25V20.7L13.25 20.661V20.661C13.25 20.1319 13.25 19.6756 13.2902 19.3044C13.3329 18.9101 13.4281 18.5238 13.6797 18.1775C13.8185 17.9865 13.9865 17.8185 14.1775 17.6797C14.5238 17.4281 14.9101 17.3329 15.3044 17.2902C15.6756 17.25 16.1319 17.25 16.661 17.25H16.661L16.7 17.25H17.75V9.5H6.25ZM17.7446 18.75H16.7C16.1208 18.75 15.7467 18.751 15.466 18.7814C15.1993 18.8103 15.1072 18.8584 15.0592 18.8932C14.9955 18.9395 14.9395 18.9955 14.8932 19.0592C14.8584 19.1072 14.8103 19.1993 14.7814 19.466C14.751 19.7467 14.75 20.1208 14.75 20.7V21.7446C15.767 21.7266 16.3689 21.6498 16.8225 21.3203C17.0135 21.1815 17.1815 21.0135 17.3203 20.8225C17.6498 20.3689 17.7266 19.767 17.7446 18.75ZM9.25 21.7446V20.7C9.25 20.1208 9.24897 19.7467 9.21855 19.466C9.18966 19.1993 9.14163 19.1072 9.10676 19.0592C9.0605 18.9955 9.00451 18.9395 8.94084 18.8932C8.89285 18.8584 8.80074 18.8103 8.53404 18.7814C8.2533 18.751 7.87917 18.75 7.3 18.75H6.25544C6.27335 19.767 6.35017 20.3689 6.67971 20.8225C6.81849 21.0135 6.98647 21.1815 7.17748 21.3203C7.63106 21.6498 8.23298 21.7266 9.25 21.7446ZM12 11.5C10.7574 11.5 9.75 12.5074 9.75 13.75C9.75 14.9926 10.7574 16 12 16C13.2426 16 14.25 14.9926 14.25 13.75C14.25 12.5074 13.2426 11.5 12 11.5Z" fill="#292556"/>
</svg>
