<svg width="24" height="24" viewBox="0 0 24 24" fill="none" xmlns="http://www.w3.org/2000/svg">
<path fill-rule="evenodd" clip-rule="evenodd" d="M3.0002 8.75H3.4C4.16665 8.75 4.6814 8.74897 5.07231 8.70662C5.44919 8.66579 5.62103 8.59388 5.73473 8.51127C5.84085 8.43417 5.93417 8.34085 6.01127 8.23473C6.09388 8.12103 6.16579 7.94919 6.20662 7.57231C6.24897 7.1814 6.25 6.66665 6.25 5.9V5.5002C4.98008 5.50251 4.30758 5.53094 3.82443 5.88197C3.65464 6.00533 3.50533 6.15464 3.38197 6.32443C3.03094 6.80758 3.00251 7.48008 3.0002 8.75ZM7.75 5.5V5.9L7.75 5.94103V5.94104C7.75002 6.65604 7.75004 7.25259 7.69789 7.73388C7.64323 8.23838 7.52415 8.70438 7.2248 9.11641C7.05518 9.34987 6.84987 9.55518 6.61641 9.7248C6.20438 10.0242 5.73838 10.1432 5.23388 10.1979C4.75259 10.25 4.15604 10.25 3.44104 10.25H3.44103L3.4 10.25H3V13.75H3.4H3.44101H3.44102C4.15603 13.75 4.75259 13.75 5.23388 13.8021C5.73838 13.8568 6.20438 13.9758 6.61641 14.2752C6.84987 14.4448 7.05518 14.6501 7.2248 14.8836C7.52415 15.2956 7.64323 15.7616 7.69789 16.2661C7.75004 16.7474 7.75002 17.344 7.75 18.059V18.059L7.75 18.1V18.5H16.25V18.1V18.059V18.059C16.25 17.344 16.25 16.7474 16.3021 16.2661C16.3568 15.7616 16.4758 15.2956 16.7752 14.8836C16.9448 14.6501 17.1501 14.4448 17.3836 14.2752C17.7956 13.9758 18.2616 13.8568 18.7661 13.8021C19.2474 13.75 19.844 13.75 20.559 13.75H20.6H21V10.25H20.6L20.559 10.25C19.844 10.25 19.2474 10.25 18.7661 10.1979C18.2616 10.1432 17.7956 10.0242 17.3836 9.7248C17.1501 9.55518 16.9448 9.34987 16.7752 9.11641C16.4758 8.70438 16.3568 8.23838 16.3021 7.73388C16.25 7.25259 16.25 6.65603 16.25 5.94102V5.94101V5.9V5.5H7.75ZM17.75 5.5002V5.9C17.75 6.66665 17.751 7.1814 17.7934 7.57231C17.8342 7.94919 17.9061 8.12103 17.9887 8.23473C18.0658 8.34085 18.1592 8.43417 18.2653 8.51127C18.379 8.59388 18.5508 8.66579 18.9277 8.70662C19.3186 8.74897 19.8333 8.75 20.6 8.75H20.9998C20.9975 7.48008 20.9691 6.80758 20.618 6.32443C20.4947 6.15464 20.3454 6.00533 20.1756 5.88197C19.6924 5.53094 19.0199 5.50251 17.75 5.5002ZM20.9998 15.25H20.6C19.8333 15.25 19.3186 15.251 18.9277 15.2934C18.5508 15.3342 18.379 15.4061 18.2653 15.4887C18.1592 15.5658 18.0658 15.6592 17.9887 15.7653C17.9061 15.879 17.8342 16.0508 17.7934 16.4277C17.751 16.8186 17.75 17.3333 17.75 18.1V18.4998C19.0199 18.4975 19.6924 18.4691 20.1756 18.118C20.3454 17.9947 20.4947 17.8454 20.618 17.6756C20.9691 17.1924 20.9975 16.5199 20.9998 15.25ZM6.25 18.4998V18.1C6.25 17.3333 6.24897 16.8186 6.20662 16.4277C6.16579 16.0508 6.09388 15.879 6.01127 15.7653C5.93417 15.6592 5.84085 15.5658 5.73473 15.4887C5.62103 15.4061 5.44919 15.3342 5.07231 15.2934C4.6814 15.251 4.16665 15.25 3.4 15.25H3.0002C3.00251 16.5199 3.03094 17.1924 3.38197 17.6756C3.50533 17.8454 3.65464 17.9947 3.82443 18.118C4.30758 18.4691 4.98008 18.4975 6.25 18.4998ZM12.75 8.5C12.75 8.08579 12.4142 7.75 12 7.75C11.5858 7.75 11.25 8.08579 11.25 8.5V8.69678C10.3779 8.93635 9.75 9.74669 9.75 10.6875C9.75 11.8119 10.6469 12.75 11.7857 12.75H12.2143C12.4956 12.75 12.75 12.9872 12.75 13.3125C12.75 13.6378 12.4956 13.875 12.2143 13.875H12H11.7857C11.5634 13.875 11.3598 13.7296 11.2819 13.5046C11.1464 13.1132 10.7192 12.9058 10.3278 13.0413C9.93636 13.1768 9.72892 13.604 9.86444 13.9954C10.0826 14.6253 10.5984 15.1236 11.25 15.303V15.5C11.25 15.9142 11.5858 16.25 12 16.25C12.4142 16.25 12.75 15.9142 12.75 15.5V15.3032C13.6221 15.0636 14.25 14.2533 14.25 13.3125C14.25 12.1881 13.3531 11.25 12.2143 11.25H11.7857C11.5044 11.25 11.25 11.0128 11.25 10.6875C11.25 10.3622 11.5044 10.125 11.7857 10.125H12H12.2143C12.4366 10.125 12.6402 10.2704 12.7181 10.4954C12.8536 10.8868 13.2808 11.0942 13.6722 10.9587C14.0636 10.8232 14.2711 10.396 14.1356 10.0046C13.9174 9.37465 13.4016 8.87641 12.75 8.697V8.5Z" fill="#292556"/>
</svg>
