<svg width="24" height="24" viewBox="0 0 24 24" fill="none" xmlns="http://www.w3.org/2000/svg">
<path fill-rule="evenodd" clip-rule="evenodd" d="M3.4 8.75H3.0002C3.00251 7.48008 3.03094 6.80758 3.38197 6.32443C3.50533 6.15464 3.65464 6.00533 3.82443 5.88197C4.30758 5.53094 4.98008 5.50251 6.25 5.5002V5.9C6.25 6.66665 6.24897 7.1814 6.20662 7.57231C6.16579 7.94919 6.09388 8.12103 6.01127 8.23473C5.93417 8.34085 5.84085 8.43417 5.73473 8.51127C5.62103 8.59388 5.44919 8.66579 5.07231 8.70662C4.6814 8.74897 4.16665 8.75 3.4 8.75ZM7.75 5.9V5.5H16.25V5.9V5.94101V5.94102V5.94103C16.25 6.65603 16.25 7.25259 16.3021 7.73388C16.3568 8.23838 16.4758 8.70438 16.7752 9.11641C16.9448 9.34987 17.1501 9.55518 17.3836 9.7248C17.7956 10.0242 18.2616 10.1432 18.7661 10.1979C19.2474 10.25 19.844 10.25 20.559 10.25L20.6 10.25H21V13.75H20.6H20.559C19.844 13.75 19.2474 13.75 18.7661 13.8021C18.2616 13.8568 17.7956 13.9758 17.3836 14.2752C17.1501 14.4448 16.9448 14.6501 16.7752 14.8836C16.4758 15.2956 16.3568 15.7616 16.3021 16.2661C16.25 16.7474 16.25 17.344 16.25 18.059V18.059V18.059V18.1V18.5H7.75V18.1L7.75 18.059V18.059V18.059C7.75002 17.344 7.75004 16.7474 7.69789 16.2661C7.64323 15.7616 7.52415 15.2956 7.2248 14.8836C7.05518 14.6501 6.84987 14.4448 6.61641 14.2752C6.20438 13.9758 5.73838 13.8568 5.23388 13.8021C4.75259 13.75 4.15603 13.75 3.44103 13.75H3.44102H3.44101H3.4H3V10.25H3.4L3.44103 10.25H3.44104H3.44105C4.15604 10.25 4.7526 10.25 5.23388 10.1979C5.73838 10.1432 6.20438 10.0242 6.61641 9.7248C6.84987 9.55518 7.05518 9.34987 7.2248 9.11641C7.52415 8.70438 7.64323 8.23838 7.69789 7.73388C7.75004 7.2526 7.75002 6.65604 7.75 5.94105V5.94104V5.94103L7.75 5.9ZM17.75 5.9V5.5002C19.0199 5.50251 19.6924 5.53094 20.1756 5.88197C20.3454 6.00533 20.4947 6.15464 20.618 6.32443C20.9691 6.80758 20.9975 7.48008 20.9998 8.75H20.6C19.8333 8.75 19.3186 8.74897 18.9277 8.70662C18.5508 8.66579 18.379 8.59388 18.2653 8.51127C18.1592 8.43417 18.0658 8.34085 17.9887 8.23473C17.9061 8.12103 17.8342 7.94919 17.7934 7.57231C17.751 7.1814 17.75 6.66665 17.75 5.9ZM20.6 15.25H20.9998C20.9975 16.5199 20.9691 17.1924 20.618 17.6756C20.4947 17.8454 20.3454 17.9947 20.1756 18.118C19.6924 18.4691 19.0199 18.4975 17.75 18.4998V18.1C17.75 17.3333 17.751 16.8186 17.7934 16.4277C17.8342 16.0508 17.9061 15.879 17.9887 15.7653C18.0658 15.6592 18.1592 15.5658 18.2653 15.4887C18.379 15.4061 18.5508 15.3342 18.9277 15.2934C19.3186 15.251 19.8333 15.25 20.6 15.25ZM6.25 18.1V18.4998C4.98008 18.4975 4.30758 18.4691 3.82443 18.118C3.65464 17.9947 3.50533 17.8454 3.38197 17.6756C3.03094 17.1924 3.00251 16.5199 3.0002 15.25H3.4C4.16665 15.25 4.6814 15.251 5.07231 15.2934C5.44919 15.3342 5.62103 15.4061 5.73473 15.4887C5.84085 15.5658 5.93417 15.6592 6.01127 15.7653C6.09388 15.879 6.16579 16.0508 6.20662 16.4277C6.24897 16.8186 6.25 17.3333 6.25 18.1ZM9.25 12C9.25 10.4812 10.4812 9.25 12 9.25C13.5188 9.25 14.75 10.4812 14.75 12C14.75 13.5188 13.5188 14.75 12 14.75C10.4812 14.75 9.25 13.5188 9.25 12Z" fill="#292556"/>
</svg>
