<svg width="24" height="24" viewBox="0 0 24 24" fill="none" xmlns="http://www.w3.org/2000/svg">
<path d="M11.837 10.5371C10.7665 8.12852 10.2313 6.92421 9.39216 6.72224C9.13116 6.65942 8.85921 6.65748 8.59735 6.71659C7.75544 6.90661 7.20312 8.10318 6.09849 10.4963L3.89097 15.2788C3.07252 17.052 2.66329 17.9386 2.93054 18.6299C3.01509 18.8486 3.14273 19.0481 3.30588 19.2166C3.82161 19.749 4.79807 19.749 6.751 19.749H17.0244C19.0789 19.749 20.1062 19.749 20.6254 19.1901C20.7892 19.0138 20.9149 18.8057 20.9946 18.5786C21.2473 17.8588 20.7688 16.9498 19.8118 15.1317L18.7496 13.1139C17.6881 11.0973 17.1574 10.089 16.3715 9.91068C16.1251 9.85475 15.8694 9.85286 15.6222 9.90513C14.8338 10.0718 14.2881 11.0722 13.1969 13.0728L13.0685 13.3081L11.837 10.5371Z" fill="#292556"/>
<path d="M18.9999 4.2502C17.4811 4.2502 16.2499 5.48142 16.2499 7.0002C16.2499 8.51898 17.4811 9.7502 18.9999 9.7502C20.5186 9.7502 21.7499 8.51898 21.7499 7.0002C21.7499 5.48142 20.5186 4.2502 18.9999 4.2502Z" fill="#292556"/>
</svg>
