<svg width="24" height="24" viewBox="0 0 24 24" fill="none" xmlns="http://www.w3.org/2000/svg">
<path d="M15.9025 12.1687C17.1733 11.8892 17.8087 11.7495 18.0802 11.6239C20.0832 10.6977 20.2342 7.90815 18.3429 6.77108C18.0865 6.61694 17.4699 6.40945 16.2367 5.99446L10.2529 3.98087C6.62957 2.76157 4.81788 2.15192 3.71284 2.84806C3.36443 3.06754 3.06976 3.36247 2.85058 3.71106C2.1554 4.81671 2.76661 6.62787 3.98905 10.2502L6.01654 16.2581C6.41856 17.4493 6.61957 18.045 6.76654 18.2932C7.90131 20.21 10.725 20.053 11.6401 18.0221C11.7587 17.7591 11.8924 17.1448 12.1598 15.9163V15.9163L16.4506 20.2072C17.4848 21.2414 19.1616 21.2414 20.1958 20.2072V20.2072C21.23 19.173 21.23 17.4962 20.1958 16.462L15.9025 12.1687V12.1687Z" fill="#292556"/>
</svg>
