<svg width="24" height="24" viewBox="0 0 24 24" fill="none" xmlns="http://www.w3.org/2000/svg">
<path fill-rule="evenodd" clip-rule="evenodd" d="M13.059 2.25H13.1H19H21C21.4142 2.25 21.75 2.58579 21.75 3C21.75 3.41421 21.4142 3.75 21 3.75H19.75V8V18.125C19.75 18.1383 19.7497 18.1514 19.749 18.1645C19.7497 18.1929 19.75 18.2214 19.75 18.25C19.75 20.183 18.183 21.75 16.25 21.75C14.317 21.75 12.75 20.183 12.75 18.25C12.75 16.317 14.317 14.75 16.25 14.75C16.9936 14.75 17.6831 14.9819 18.25 15.3773V8.75H10.25V18.125C10.25 18.1383 10.2497 18.1514 10.249 18.1645C10.2497 18.1929 10.25 18.2214 10.25 18.25C10.25 20.183 8.683 21.75 6.75 21.75C4.817 21.75 3.25 20.183 3.25 18.25C3.25 16.317 4.817 14.75 6.75 14.75C7.49362 14.75 8.18308 14.9819 8.75 15.3773V8V6.6L8.75 6.55898V6.55897V6.55896C8.74998 5.84396 8.74996 5.24741 8.80211 4.76612C8.85677 4.26162 8.97585 3.79562 9.2752 3.38359C9.44482 3.15013 9.65013 2.94482 9.88359 2.7752C10.2956 2.47585 10.7616 2.35677 11.2661 2.30211C11.7474 2.24997 12.344 2.24998 13.059 2.25ZM10.25 7.25H18.25V3.75H13.1C12.3333 3.75 11.8186 3.75103 11.4277 3.79338C11.0508 3.83422 10.879 3.90612 10.7653 3.98873C10.6592 4.06583 10.5658 4.15915 10.4887 4.26527C10.4061 4.37897 10.3342 4.55081 10.2934 4.92769C10.251 5.3186 10.25 5.83335 10.25 6.6V7.25ZM5.47761 5.8181C5.39414 5.48422 5.09415 5.25 4.75 5.25C4.40585 5.25 4.10586 5.48422 4.02239 5.8181C3.91858 6.23334 3.7817 6.47014 3.62592 6.62592C3.47014 6.78171 3.23333 6.91858 2.8181 7.02239C2.48422 7.10586 2.25 7.40585 2.25 7.75C2.25 8.09415 2.48422 8.39414 2.8181 8.47761C3.23333 8.58142 3.47014 8.7183 3.62592 8.87408C3.7817 9.02987 3.91858 9.26667 4.02239 9.6819C4.10586 10.0158 4.40585 10.25 4.75 10.25C5.09415 10.25 5.39414 10.0158 5.47761 9.6819C5.58142 9.26667 5.7183 9.02987 5.87408 8.87408C6.02986 8.7183 6.26667 8.58142 6.6819 8.47761C7.01578 8.39414 7.25 8.09415 7.25 7.75C7.25 7.40585 7.01578 7.10586 6.6819 7.02239C6.26667 6.91858 6.02986 6.78171 5.87408 6.62592C5.7183 6.47014 5.58142 6.23334 5.47761 5.8181Z" fill="#292556"/>
</svg>
