<svg width="24" height="24" viewBox="0 0 24 24" fill="none" xmlns="http://www.w3.org/2000/svg">
<path fill-rule="evenodd" clip-rule="evenodd" d="M15.0296 4.23722L14.994 4.20431L14.994 4.20431C14.4545 3.70631 14.0004 3.28714 13.6182 3.00931C13.2465 2.73908 12.7559 2.45785 12.1849 2.56239C11.9179 2.61127 11.6659 2.72159 11.4489 2.88463C10.9847 3.23332 10.8586 3.78458 10.805 4.24102C10.75 4.7103 10.75 5.32827 10.75 6.06245L10.75 6.11097V15.3771C10.1831 14.9817 9.49362 14.7498 8.75 14.7498C6.817 14.7498 5.25 16.3168 5.25 18.2498C5.25 20.1828 6.817 21.7498 8.75 21.7498C10.683 21.7498 12.25 20.1828 12.25 18.2498C12.25 18.2498 12.25 18.2498 12.25 18.2498V15.4998V6.11097C12.25 5.31535 12.2513 4.78688 12.2948 4.41589C12.3211 4.19154 12.3563 4.09927 12.3698 4.07037C12.389 4.05862 12.4098 4.04953 12.4315 4.04335C12.4619 4.05305 12.5535 4.08979 12.7363 4.22261C13.0384 4.44225 13.4276 4.79977 14.0122 5.33943L17.4913 8.5509C17.7957 8.83185 18.2701 8.81287 18.5511 8.50851C18.8321 8.20414 18.8131 7.72965 18.5087 7.4487L15.0296 4.23722Z" fill="#292556"/>
</svg>
