<svg width="24" height="24" viewBox="0 0 24 24" fill="none" xmlns="http://www.w3.org/2000/svg">
<path fill-rule="evenodd" clip-rule="evenodd" d="M12.1 2.25H12.059C11.344 2.24998 10.7474 2.24996 10.2661 2.30211C9.76162 2.35677 9.29562 2.47585 8.88359 2.7752C8.65013 2.94482 8.44482 3.15013 8.2752 3.38359C7.97585 3.79562 7.85677 4.26162 7.80211 4.76612C7.74996 5.24741 7.74998 5.84397 7.75 6.55897V6.55898L7.75 6.6V8V15.3773C7.18308 14.9819 6.49362 14.75 5.75 14.75C3.817 14.75 2.25 16.317 2.25 18.25C2.25 20.183 3.817 21.75 5.75 21.75C7.683 21.75 9.25 20.183 9.25 18.25C9.25 18.2214 9.24966 18.1929 9.24898 18.1645C9.24966 18.1514 9.25 18.1383 9.25 18.125V8.75H17.25V15.3773C16.6831 14.9819 15.9936 14.75 15.25 14.75C13.317 14.75 11.75 16.317 11.75 18.25C11.75 20.183 13.317 21.75 15.25 21.75C17.183 21.75 18.75 20.183 18.75 18.25C18.75 18.2214 18.7497 18.1929 18.749 18.1645C18.7497 18.1514 18.75 18.1383 18.75 18.125V8V3.75H21C21.4142 3.75 21.75 3.41421 21.75 3C21.75 2.58579 21.4142 2.25 21 2.25H18H12.1ZM17.25 7.25H9.25V6.6C9.25 5.83335 9.25103 5.3186 9.29338 4.92769C9.33421 4.55081 9.40612 4.37897 9.48873 4.26527C9.56583 4.15915 9.65915 4.06583 9.76527 3.98873C9.87897 3.90612 10.0508 3.83421 10.4277 3.79338C10.8186 3.75103 11.3333 3.75 12.1 3.75H17.25V7.25Z" fill="#292556"/>
</svg>
