<svg width="24" height="24" viewBox="0 0 24 24" fill="none" xmlns="http://www.w3.org/2000/svg">
<path fill-rule="evenodd" clip-rule="evenodd" d="M6.75 2.25C7.09415 2.25 7.39414 2.48422 7.47761 2.8181C7.58142 3.23333 7.7183 3.47014 7.87408 3.62592C8.02986 3.7817 8.26667 3.91858 8.6819 4.02239C9.01578 4.10586 9.25 4.40585 9.25 4.75C9.25 5.09415 9.01578 5.39414 8.6819 5.47761C8.26667 5.58142 8.02986 5.7183 7.87408 5.87408C7.7183 6.02986 7.58142 6.26667 7.47761 6.6819C7.39414 7.01578 7.09415 7.25 6.75 7.25C6.40585 7.25 6.10586 7.01578 6.02239 6.6819C5.91858 6.26667 5.7817 6.02986 5.62592 5.87408C5.47014 5.7183 5.23333 5.58142 4.8181 5.47761C4.48422 5.39414 4.25 5.09415 4.25 4.75C4.25 4.40585 4.48422 4.10586 4.8181 4.02239C5.23333 3.91858 5.47014 3.7817 5.62592 3.62592C5.7817 3.47014 5.91858 3.23333 6.02239 2.8181C6.10586 2.48422 6.40585 2.25 6.75 2.25ZM17.25 16.75C17.5942 16.75 17.8941 16.9842 17.9776 17.3181C18.0814 17.7333 18.2183 17.9701 18.3741 18.1259C18.5299 18.2817 18.7667 18.4186 19.1819 18.5224C19.5158 18.6059 19.75 18.9058 19.75 19.25C19.75 19.5942 19.5158 19.8941 19.1819 19.9776C18.7667 20.0814 18.5299 20.2183 18.3741 20.3741C18.2183 20.5299 18.0814 20.7667 17.9776 21.1819C17.8941 21.5158 17.5942 21.75 17.25 21.75C16.9058 21.75 16.6059 21.5158 16.5224 21.1819C16.4186 20.7667 16.2817 20.5299 16.1259 20.3741C15.9701 20.2183 15.7333 20.0814 15.3181 19.9776C14.9842 19.8941 14.75 19.5942 14.75 19.25C14.75 18.9058 14.9842 18.6059 15.3181 18.5224C15.7333 18.4186 15.9701 18.2817 16.1259 18.1259C16.2817 17.9701 16.4186 17.7333 16.5224 17.3181C16.6059 16.9842 16.9058 16.75 17.25 16.75ZM14.994 4.20431L15.0296 4.23722L18.5087 7.4487C18.8131 7.72965 18.8321 8.20414 18.5511 8.50851C18.2701 8.81287 17.7957 8.83185 17.4913 8.5509L14.0122 5.33943C13.4276 4.79977 13.0384 4.44225 12.7363 4.22261C12.5535 4.08979 12.4619 4.05305 12.4315 4.04335C12.4098 4.04953 12.389 4.05862 12.3698 4.07037C12.3563 4.09927 12.3211 4.19154 12.2948 4.41589C12.2513 4.78688 12.25 5.31535 12.25 6.11097V15.4998V18.2498V18.2498C12.25 20.1828 10.683 21.7498 8.75 21.7498C6.817 21.7498 5.25 20.1828 5.25 18.2498C5.25 16.3168 6.817 14.7498 8.75 14.7498C9.49362 14.7498 10.1831 14.9817 10.75 15.3771V6.11097L10.75 6.06245C10.75 5.32827 10.75 4.7103 10.805 4.24102C10.8586 3.78458 10.9847 3.23332 11.4489 2.88463C11.6659 2.72159 11.9179 2.61127 12.1849 2.56239C12.7559 2.45785 13.2465 2.73908 13.6182 3.00931C14.0004 3.28713 14.4545 3.70629 14.9939 4.20428L14.994 4.20431L14.994 4.20431Z" fill="#292556"/>
</svg>
