<svg width="24" height="24" viewBox="0 0 24 24" fill="none" xmlns="http://www.w3.org/2000/svg">
<path d="M3 11.25C2.58579 11.25 2.25 11.5858 2.25 12C2.25 12.4142 2.58579 12.75 3 12.75L3 11.25ZM21 12.75C21.4142 12.75 21.75 12.4142 21.75 12C21.75 11.5858 21.4142 11.25 21 11.25V12.75ZM6 12.75L12 12.75L12 11.25L6 11.25L6 12.75ZM5.25 12L5.25 15.25H6.75L6.75 12H5.25ZM12.75 12V8.75H11.25V12H12.75ZM12 12.75L18 12.75V11.25L12 11.25L12 12.75ZM17.25 12V15.25H18.75V12H17.25ZM6 11.25H3L3 12.75H6L6 11.25ZM18 12.75H21V11.25H18V12.75Z" fill="#292556"/>
<path d="M13.05 8.75C14.1749 8.75 14.7374 8.75 15.1317 8.46353C15.259 8.37101 15.371 8.25902 15.4635 8.13168C15.75 7.73738 15.75 7.17492 15.75 6.05V5.95C15.75 4.82508 15.75 4.26262 15.4635 3.86832C15.371 3.74098 15.259 3.62899 15.1317 3.53647C14.7374 3.25 14.1749 3.25 13.05 3.25H10.95C9.82508 3.25 9.26262 3.25 8.86832 3.53647C8.74098 3.62899 8.62899 3.74098 8.53647 3.86832C8.25 4.26262 8.25 4.82508 8.25 5.95V6.05C8.25 7.17492 8.25 7.73738 8.53647 8.13168C8.62899 8.25902 8.74098 8.37101 8.86832 8.46353C9.26262 8.75 9.82508 8.75 10.95 8.75H13.05Z" fill="#292556"/>
<path d="M7.05 20.75C8.17492 20.75 8.73738 20.75 9.13168 20.4635C9.25902 20.371 9.37101 20.259 9.46353 20.1317C9.75 19.7374 9.75 19.1749 9.75 18.05V17.95C9.75 16.8251 9.75 16.2626 9.46353 15.8683C9.37101 15.741 9.25902 15.629 9.13168 15.5365C8.73738 15.25 8.17492 15.25 7.05 15.25H4.95C3.82508 15.25 3.26262 15.25 2.86832 15.5365C2.74098 15.629 2.62899 15.741 2.53647 15.8683C2.25 16.2626 2.25 16.8251 2.25 17.95V18.05C2.25 19.1749 2.25 19.7374 2.53647 20.1317C2.62899 20.259 2.74098 20.371 2.86832 20.4635C3.26262 20.75 3.82508 20.75 4.95 20.75H7.05Z" fill="#292556"/>
<path d="M19.05 20.75C20.1749 20.75 20.7374 20.75 21.1317 20.4635C21.259 20.371 21.371 20.259 21.4635 20.1317C21.75 19.7374 21.75 19.1749 21.75 18.05V17.95C21.75 16.8251 21.75 16.2626 21.4635 15.8683C21.371 15.741 21.259 15.629 21.1317 15.5365C20.7374 15.25 20.1749 15.25 19.05 15.25H16.95C15.8251 15.25 15.2626 15.25 14.8683 15.5365C14.741 15.629 14.629 15.741 14.5365 15.8683C14.25 16.2626 14.25 16.8251 14.25 17.95V18.05C14.25 19.1749 14.25 19.7374 14.5365 20.1317C14.629 20.259 14.741 20.371 14.8683 20.4635C15.2626 20.75 15.8251 20.75 16.95 20.75H19.05Z" fill="#292556"/>
</svg>
