<svg width="24" height="24" viewBox="0 0 24 24" fill="none" xmlns="http://www.w3.org/2000/svg">
<path d="M21 6.75C21.4142 6.75 21.75 6.41421 21.75 6C21.75 5.58579 21.4142 5.25 21 5.25V6.75ZM8.76537 12.1522L9.05238 11.4593L8.76537 12.1522ZM9.84776 13.2346L10.5407 12.9476L9.84776 13.2346ZM4.23463 11.8478L4.52165 11.1548L4.23463 11.8478ZM2.25 8.25V9H3.75V8.25H2.25ZM6 12.75H7V11.25H6V12.75ZM7.75 16.5V19.5H9.25V16.5H7.75ZM12.25 19.5V16.5H10.75V19.5H12.25ZM20.75 6.75H21V5.25H20.75V6.75ZM12.25 16.5C12.25 15.2574 11.2426 14.25 10 14.25V15.75C10.4142 15.75 10.75 16.0858 10.75 16.5H12.25ZM10 21.75C11.2426 21.75 12.25 20.7426 12.25 19.5H10.75C10.75 19.9142 10.4142 20.25 10 20.25V21.75ZM10 14.25C8.75736 14.25 7.75 15.2574 7.75 16.5H9.25C9.25 16.0858 9.58579 15.75 10 15.75V14.25ZM7 12.75C7.4762 12.75 7.79579 12.7504 8.04326 12.7673C8.28398 12.7837 8.4012 12.8132 8.47835 12.8452L9.05238 11.4593C8.76199 11.339 8.46246 11.2924 8.14536 11.2708C7.835 11.2496 7.45568 11.25 7 11.25V12.75ZM10.75 15C10.75 14.5443 10.7504 14.165 10.7292 13.8546C10.7076 13.5375 10.661 13.238 10.5407 12.9476L9.15485 13.5216C9.18681 13.5988 9.21628 13.716 9.23271 13.9567C9.24959 14.2042 9.25 14.5238 9.25 15H10.75ZM8.47835 12.8452C8.78464 12.972 9.02798 13.2154 9.15485 13.5216L10.5407 12.9476C10.2616 12.2738 9.72621 11.7384 9.05238 11.4593L8.47835 12.8452ZM2.25 9C2.25 9.45568 2.24959 9.835 2.27077 10.1454C2.29241 10.4625 2.33905 10.762 2.45933 11.0524L3.84515 10.4784C3.81319 10.4012 3.78372 10.284 3.76729 10.0433C3.75041 9.79579 3.75 9.4762 3.75 9H2.25ZM6 11.25C5.5238 11.25 5.20421 11.2496 4.95674 11.2327C4.71602 11.2163 4.5988 11.1868 4.52165 11.1548L3.94762 12.5407C4.23801 12.661 4.53754 12.7076 4.85464 12.7292C5.165 12.7504 5.54432 12.75 6 12.75V11.25ZM2.45933 11.0524C2.73844 11.7262 3.27379 12.2616 3.94762 12.5407L4.52165 11.1548C4.21536 11.028 3.97202 10.7846 3.84515 10.4784L2.45933 11.0524ZM7.75 19.5C7.75 20.7426 8.75736 21.75 10 21.75V20.25C9.58579 20.25 9.25 19.9142 9.25 19.5H7.75ZM3.75 8.25C3.75 7.99998 3.75091 7.92935 3.75602 7.87748L2.26324 7.73045C2.24909 7.87414 2.25 8.03568 2.25 8.25H3.75ZM5.25 5.25C5.03568 5.25 4.87414 5.24909 4.73045 5.26324L4.87748 6.75602C4.92935 6.75091 4.99998 6.75 5.25 6.75V5.25ZM3.75602 7.87748C3.81447 7.28401 4.28401 6.81447 4.87748 6.75602L4.73045 5.26324C3.42482 5.39184 2.39184 6.42482 2.26324 7.73045L3.75602 7.87748Z" fill="#292556"/>
<path d="M5.25 6C5.25 5.06974 5.25 4.60461 5.36139 4.22524C5.62506 3.32728 6.32728 2.62506 7.22524 2.36139C7.60461 2.25 8.06974 2.25 9 2.25H16.9933C17.9236 2.25 18.3887 2.25 18.7681 2.36139C19.6661 2.62506 20.3683 3.32728 20.6319 4.22524C20.7433 4.60461 20.7433 5.06974 20.7433 6V6V6C20.7433 6.93026 20.7433 7.39539 20.6319 7.77476C20.3683 8.67272 19.6661 9.37494 18.7681 9.63861C18.3887 9.75 17.9236 9.75 16.9933 9.75H9C8.06974 9.75 7.60461 9.75 7.22524 9.63861C6.32728 9.37494 5.62506 8.67272 5.36139 7.77476C5.25 7.39539 5.25 6.93026 5.25 6V6V6Z" fill="#292556"/>
</svg>
