<svg width="24" height="24" viewBox="0 0 24 24" fill="none" xmlns="http://www.w3.org/2000/svg">
<path fill-rule="evenodd" clip-rule="evenodd" d="M3.01393 3.89886C2.25 4.95032 2.25 6.45021 2.25 9.45V14.55C2.25 17.5498 2.25 19.0497 3.01393 20.1011C3.26065 20.4407 3.55928 20.7393 3.89886 20.9861C4.95032 21.75 6.45021 21.75 9.45 21.75H14.55C17.5498 21.75 19.0497 21.75 20.1011 20.9861C20.4407 20.7393 20.7393 20.4407 20.9861 20.1011C21.75 19.0497 21.75 17.5498 21.75 14.55V9.45C21.75 6.45021 21.75 4.95032 20.9861 3.89886C20.7393 3.55928 20.4407 3.26065 20.1011 3.01393C19.0497 2.25 17.5498 2.25 14.55 2.25H9.45C6.45021 2.25 4.95032 2.25 3.89886 3.01393C3.55928 3.26065 3.26065 3.55928 3.01393 3.89886ZM10.25 8.5C10.25 8.08579 9.91421 7.75 9.5 7.75C9.08579 7.75 8.75 8.08579 8.75 8.5V15.5C8.75 15.9142 9.08579 16.25 9.5 16.25C9.91421 16.25 10.25 15.9142 10.25 15.5V8.5ZM15.25 8.5C15.25 8.08579 14.9142 7.75 14.5 7.75C14.0858 7.75 13.75 8.08579 13.75 8.5V15.5C13.75 15.9142 14.0858 16.25 14.5 16.25C14.9142 16.25 15.25 15.9142 15.25 15.5V8.5Z" fill="#292556"/>
</svg>
