<svg width="24" height="24" viewBox="0 0 24 24" fill="none" xmlns="http://www.w3.org/2000/svg">
<path fill-rule="evenodd" clip-rule="evenodd" d="M12 21.75C17.3848 21.75 21.75 17.3848 21.75 12C21.75 6.61522 17.3848 2.25 12 2.25C6.61522 2.25 2.25 6.61522 2.25 12C2.25 17.3848 6.61522 21.75 12 21.75ZM10.25 8.5C10.25 8.08579 9.91421 7.75 9.5 7.75C9.08579 7.75 8.75 8.08579 8.75 8.5V15.5C8.75 15.9142 9.08579 16.25 9.5 16.25C9.91421 16.25 10.25 15.9142 10.25 15.5V8.5ZM15.25 8.5C15.25 8.08579 14.9142 7.75 14.5 7.75C14.0858 7.75 13.75 8.08579 13.75 8.5V15.5C13.75 15.9142 14.0858 16.25 14.5 16.25C14.9142 16.25 15.25 15.9142 15.25 15.5V8.5Z" fill="#292556"/>
</svg>
