<svg width="24" height="24" viewBox="0 0 24 24" fill="none" xmlns="http://www.w3.org/2000/svg">
<path fill-rule="evenodd" clip-rule="evenodd" d="M3.01393 3.89886C2.25 4.95032 2.25 6.45021 2.25 9.45V14.55C2.25 17.5498 2.25 19.0497 3.01393 20.1011C3.26065 20.4407 3.55928 20.7393 3.89886 20.9861C4.95032 21.75 6.45021 21.75 9.45 21.75H14.55C17.5498 21.75 19.0497 21.75 20.1011 20.9861C20.4407 20.7393 20.7393 20.4407 20.9861 20.1011C21.75 19.0497 21.75 17.5498 21.75 14.55V9.45C21.75 6.45021 21.75 4.95032 20.9861 3.89886C20.7393 3.55928 20.4407 3.26065 20.1011 3.01393C19.0497 2.25 17.5498 2.25 14.55 2.25H9.45C6.45021 2.25 4.95032 2.25 3.89886 3.01393C3.55928 3.26065 3.26065 3.55928 3.01393 3.89886ZM15.3487 5.61731L14.1216 6.84438L16.9478 9.67511L18.1771 8.44573C18.9582 7.66467 18.9582 6.39832 18.1771 5.61727C17.396 4.83626 16.1297 4.83627 15.3487 5.61731ZM7.873 13.093L13.061 7.90504L15.8917 10.7312L10.6472 15.9756C10.2497 16.3732 10.0509 16.572 9.82633 16.738C9.75161 16.7933 9.67485 16.8457 9.59623 16.8953C9.35997 17.0442 9.10259 17.1572 8.58784 17.3832L8.58779 17.3832L8.58777 17.3832L8.58776 17.3832L7.9383 17.6684L7.93829 17.6684C6.79275 18.1713 6.21997 18.4228 5.88831 18.2254C5.78573 18.1644 5.6992 18.0797 5.63591 17.9785C5.43132 17.6512 5.67018 17.0731 6.14789 15.9168L6.40742 15.2886C6.63499 14.7377 6.74877 14.4623 6.9032 14.21C6.95458 14.1261 7.00924 14.0442 7.06706 13.9645C7.24085 13.7252 7.45156 13.5144 7.87298 13.093L7.873 13.093Z" fill="#292556"/>
</svg>
