<svg width="24" height="24" viewBox="0 0 24 24" fill="none" xmlns="http://www.w3.org/2000/svg">
<path fill-rule="evenodd" clip-rule="evenodd" d="M9.94951 10.7178L4.90536 15.762L3.28987 18.7323C2.50637 20.1729 2.11462 20.8932 2.3283 21.2585C2.39351 21.3699 2.48639 21.4627 2.59796 21.5277C2.96356 21.7408 3.68324 21.348 5.12261 20.5623L5.12262 20.5623L8.08734 18.944L13.1315 13.8997L9.94951 10.7178ZM14.8992 12.1319L17.7876 9.2435L14.6056 6.06152L11.7173 8.94996L14.8992 12.1319Z" fill="#292556"/>
<path d="M21 21L3 3" stroke="#292556" stroke-width="1.5" stroke-linecap="round" stroke-linejoin="round"/>
<path d="M20.3597 6.66262C21.2384 5.78393 21.2384 4.35935 20.3597 3.48069V3.48069C19.481 2.60199 18.0563 2.60201 17.1777 3.48073L15.6592 4.99931L18.8412 8.18129L20.3597 6.66262Z" fill="#292556"/>
</svg>
