<svg width="24" height="24" viewBox="0 0 24 24" fill="none" xmlns="http://www.w3.org/2000/svg">
<path d="M9.60829 4.37596L4.13991 9.23675C3.33085 9.95591 2.92632 10.3155 2.75289 10.7843C2.69617 10.9377 2.65847 11.0974 2.64062 11.2599C2.58607 11.7568 2.78708 12.2594 3.1891 13.2644L5.67814 19.487C6.0665 20.4579 6.26069 20.9434 6.62741 21.2613C6.74748 21.3653 6.87952 21.4547 7.02074 21.5276C7.45208 21.75 7.97494 21.75 9.02065 21.75H14.9794C16.0251 21.75 16.5479 21.75 16.9793 21.5276C17.1205 21.4547 17.2525 21.3653 17.3726 21.2613C17.7393 20.9434 17.9335 20.4579 18.3219 19.487L20.8109 13.2644C21.2129 12.2594 21.4139 11.7568 21.3594 11.2599C21.3415 11.0974 21.3038 10.9377 21.2471 10.7843C21.0737 10.3155 20.6692 9.95591 19.8601 9.23675L14.3917 4.37596C13.385 3.48108 12.8816 3.03363 12.2896 2.94699C12.0976 2.91888 11.9024 2.91888 11.7104 2.94699C11.1184 3.03363 10.615 3.48107 9.6083 4.37596L9.60829 4.37596Z" fill="#292556"/>
</svg>
