<svg width="24" height="24" viewBox="0 0 24 24" fill="none" xmlns="http://www.w3.org/2000/svg">
<path fill-rule="evenodd" clip-rule="evenodd" d="M2.25 9.45C2.25 6.45021 2.25 4.95032 3.01393 3.89886C3.26065 3.55928 3.55928 3.26065 3.89886 3.01393C4.95032 2.25 6.45021 2.25 9.45 2.25H14.55C17.5498 2.25 19.0497 2.25 20.1011 3.01393C20.4407 3.26065 20.7393 3.55928 20.9861 3.89886C21.75 4.95032 21.75 6.45021 21.75 9.45V14.55C21.75 17.5498 21.75 19.0497 20.9861 20.1011C20.7393 20.4407 20.4407 20.7393 20.1011 20.9861C19.0497 21.75 17.5498 21.75 14.55 21.75H9.45C6.45021 21.75 4.95032 21.75 3.89886 20.9861C3.55928 20.7393 3.26065 20.4407 3.01393 20.1011C2.25 19.0497 2.25 17.5498 2.25 14.55V9.45ZM16.5303 7.46967C16.8232 7.76256 16.8232 8.23744 16.5303 8.53033L8.53033 16.5303C8.23744 16.8232 7.76256 16.8232 7.46967 16.5303C7.17678 16.2374 7.17678 15.7626 7.46967 15.4697L15.4697 7.46967C15.7626 7.17678 16.2374 7.17678 16.5303 7.46967ZM9.25 11.25C10.3546 11.25 11.25 10.3546 11.25 9.25C11.25 8.14543 10.3546 7.25 9.25 7.25C8.14543 7.25 7.25 8.14543 7.25 9.25C7.25 10.3546 8.14543 11.25 9.25 11.25ZM14.75 16.75C15.8546 16.75 16.75 15.8546 16.75 14.75C16.75 13.6454 15.8546 12.75 14.75 12.75C13.6454 12.75 12.75 13.6454 12.75 14.75C12.75 15.8546 13.6454 16.75 14.75 16.75Z" fill="#292556"/>
</svg>
