<svg width="24" height="24" viewBox="0 0 24 24" fill="none" xmlns="http://www.w3.org/2000/svg">
<path fill-rule="evenodd" clip-rule="evenodd" d="M21.75 12C21.75 17.3848 17.3848 21.75 12 21.75C6.61522 21.75 2.25 17.3848 2.25 12C2.25 6.61522 6.61522 2.25 12 2.25C17.3848 2.25 21.75 6.61522 21.75 12ZM16.5303 7.46967C16.8232 7.76256 16.8232 8.23744 16.5303 8.53033L8.53033 16.5303C8.23744 16.8232 7.76256 16.8232 7.46967 16.5303C7.17678 16.2374 7.17678 15.7626 7.46967 15.4697L15.4697 7.46967C15.7626 7.17678 16.2374 7.17678 16.5303 7.46967ZM9.25 11.25C10.3546 11.25 11.25 10.3546 11.25 9.25C11.25 8.14543 10.3546 7.25 9.25 7.25C8.14543 7.25 7.25 8.14543 7.25 9.25C7.25 10.3546 8.14543 11.25 9.25 11.25ZM14.75 16.75C15.8546 16.75 16.75 15.8546 16.75 14.75C16.75 13.6454 15.8546 12.75 14.75 12.75C13.6454 12.75 12.75 13.6454 12.75 14.75C12.75 15.8546 13.6454 16.75 14.75 16.75Z" fill="#292556"/>
</svg>
