<svg width="24" height="24" viewBox="0 0 24 24" fill="none" xmlns="http://www.w3.org/2000/svg">
<path fill-rule="evenodd" clip-rule="evenodd" d="M7.41937 17.3495C10.3734 20.1385 13.9346 21.7019 17.0597 21.7312C18.2749 21.8456 19.5331 21.4375 20.4652 20.5057C22.1251 18.8465 22.1251 16.1563 20.4652 14.497C18.8055 12.838 16.1147 12.838 14.455 14.497C14.0629 14.889 13.7631 15.3392 13.5561 15.8199C12.6625 15.2651 11.7859 14.5949 10.9549 13.814L7.41937 17.3495ZM8.18207 10.4482C8.5025 10.9638 8.86142 11.4738 9.25791 11.9727L5.71656 15.514C3.51453 12.796 2.29464 9.70138 2.26879 6.9458C2.15435 5.73087 2.5627 4.47298 3.49487 3.54117C5.15458 1.88211 7.84537 1.88211 9.50507 3.54117C11.1649 5.20039 11.1649 7.89063 9.50507 9.54985C9.11305 9.94172 8.66278 10.2413 8.18207 10.4482Z" fill="#292556"/>
<path d="M3 21L21 3" stroke="#292556" stroke-width="1.5" stroke-linecap="round" stroke-linejoin="round"/>
</svg>
