<svg width="24" height="24" viewBox="0 0 24 24" fill="none" xmlns="http://www.w3.org/2000/svg">
<path d="M5 14.5C5 14.035 5 13.8025 5.05111 13.6118C5.18981 13.0941 5.59413 12.6898 6.11177 12.5511C6.30252 12.5 6.53501 12.5 7 12.5V12.5C7.46499 12.5 7.69748 12.5 7.88823 12.5511C8.40587 12.6898 8.81019 13.0941 8.94889 13.6118C9 13.8025 9 14.035 9 14.5V14.5C9 14.965 9 15.1975 8.94889 15.3882C8.81019 15.9059 8.40587 16.3102 7.88823 16.4489C7.69748 16.5 7.46499 16.5 7 16.5V16.5C6.53501 16.5 6.30252 16.5 6.11177 16.4489C5.59413 16.3102 5.18981 15.9059 5.05111 15.3882C5 15.1975 5 14.965 5 14.5V14.5Z" fill="#292556"/>
<path d="M10 14.5C10 14.035 10 13.8025 10.0511 13.6118C10.1898 13.0941 10.5941 12.6898 11.1118 12.5511C11.3025 12.5 11.535 12.5 12 12.5V12.5C12.465 12.5 12.6975 12.5 12.8882 12.5511C13.4059 12.6898 13.8102 13.0941 13.9489 13.6118C14 13.8025 14 14.035 14 14.5V14.5C14 14.965 14 15.1975 13.9489 15.3882C13.8102 15.9059 13.4059 16.3102 12.8882 16.4489C12.6975 16.5 12.465 16.5 12 16.5V16.5C11.535 16.5 11.3025 16.5 11.1118 16.4489C10.5941 16.3102 10.1898 15.9059 10.0511 15.3882C10 15.1975 10 14.965 10 14.5V14.5Z" fill="#292556"/>
<path d="M15 9.5C15 9.03501 15 8.80252 15.0511 8.61177C15.1898 8.09413 15.5941 7.68981 16.1118 7.55111C16.3025 7.5 16.535 7.5 17 7.5V7.5C17.465 7.5 17.6975 7.5 17.8882 7.55111C18.4059 7.68981 18.8102 8.09413 18.9489 8.61177C19 8.80252 19 9.03501 19 9.5V9.5C19 9.96499 19 10.1975 18.9489 10.3882C18.8102 10.9059 18.4059 11.3102 17.8882 11.4489C17.6975 11.5 17.465 11.5 17 11.5V11.5C16.535 11.5 16.3025 11.5 16.1118 11.4489C15.5941 11.3102 15.1898 10.9059 15.0511 10.3882C15 10.1975 15 9.96499 15 9.5V9.5Z" fill="#292556"/>
<path d="M10 19.5C10 19.035 10 18.8025 10.0511 18.6118C10.1898 18.0941 10.5941 17.6898 11.1118 17.5511C11.3025 17.5 11.535 17.5 12 17.5V17.5C12.465 17.5 12.6975 17.5 12.8882 17.5511C13.4059 17.6898 13.8102 18.0941 13.9489 18.6118C14 18.8025 14 19.035 14 19.5V19.5C14 19.965 14 20.1975 13.9489 20.3882C13.8102 20.9059 13.4059 21.3102 12.8882 21.4489C12.6975 21.5 12.465 21.5 12 21.5V21.5C11.535 21.5 11.3025 21.5 11.1118 21.4489C10.5941 21.3102 10.1898 20.9059 10.0511 20.3882C10 20.1975 10 19.965 10 19.5V19.5Z" fill="#292556"/>
<path d="M5 9.5C5 9.03501 5 8.80252 5.05111 8.61177C5.18981 8.09413 5.59413 7.68981 6.11177 7.55111C6.30252 7.5 6.53501 7.5 7 7.5V7.5C7.46499 7.5 7.69748 7.5 7.88823 7.55111C8.40587 7.68981 8.81019 8.09413 8.94889 8.61177C9 8.80252 9 9.03501 9 9.5V9.5C9 9.96499 9 10.1975 8.94889 10.3882C8.81019 10.9059 8.40587 11.3102 7.88823 11.4489C7.69748 11.5 7.46499 11.5 7 11.5V11.5C6.53501 11.5 6.30252 11.5 6.11177 11.4489C5.59413 11.3102 5.18981 10.9059 5.05111 10.3882C5 10.1975 5 9.96499 5 9.5V9.5Z" fill="#292556"/>
<path d="M5 4.5C5 4.03501 5 3.80252 5.05111 3.61177C5.18981 3.09413 5.59413 2.68981 6.11177 2.55111C6.30252 2.5 6.53501 2.5 7 2.5V2.5C7.46499 2.5 7.69748 2.5 7.88823 2.55111C8.40587 2.68981 8.81019 3.09413 8.94889 3.61177C9 3.80252 9 4.03501 9 4.5V4.5C9 4.96499 9 5.19748 8.94889 5.38823C8.81019 5.90587 8.40587 6.31019 7.88823 6.44889C7.69748 6.5 7.46499 6.5 7 6.5V6.5C6.53501 6.5 6.30252 6.5 6.11177 6.44889C5.59413 6.31019 5.18981 5.90587 5.05111 5.38823C5 5.19748 5 4.96499 5 4.5V4.5Z" fill="#292556"/>
<path d="M10 9.5C10 9.03501 10 8.80252 10.0511 8.61177C10.1898 8.09413 10.5941 7.68981 11.1118 7.55111C11.3025 7.5 11.535 7.5 12 7.5V7.5C12.465 7.5 12.6975 7.5 12.8882 7.55111C13.4059 7.68981 13.8102 8.09413 13.9489 8.61177C14 8.80252 14 9.03501 14 9.5V9.5C14 9.96499 14 10.1975 13.9489 10.3882C13.8102 10.9059 13.4059 11.3102 12.8882 11.4489C12.6975 11.5 12.465 11.5 12 11.5V11.5C11.535 11.5 11.3025 11.5 11.1118 11.4489C10.5941 11.3102 10.1898 10.9059 10.0511 10.3882C10 10.1975 10 9.96499 10 9.5V9.5Z" fill="#292556"/>
<path d="M10 4.5C10 4.03501 10 3.80252 10.0511 3.61177C10.1898 3.09413 10.5941 2.68981 11.1118 2.55111C11.3025 2.5 11.535 2.5 12 2.5V2.5C12.465 2.5 12.6975 2.5 12.8882 2.55111C13.4059 2.68981 13.8102 3.09413 13.9489 3.61177C14 3.80252 14 4.03501 14 4.5V4.5C14 4.96499 14 5.19748 13.9489 5.38823C13.8102 5.90587 13.4059 6.31019 12.8882 6.44889C12.6975 6.5 12.465 6.5 12 6.5V6.5C11.535 6.5 11.3025 6.5 11.1118 6.44889C10.5941 6.31019 10.1898 5.90587 10.0511 5.38823C10 5.19748 10 4.96499 10 4.5V4.5Z" fill="#292556"/>
<path d="M15 14.5C15 14.035 15 13.8025 15.0511 13.6118C15.1898 13.0941 15.5941 12.6898 16.1118 12.5511C16.3025 12.5 16.535 12.5 17 12.5V12.5C17.465 12.5 17.6975 12.5 17.8882 12.5511C18.4059 12.6898 18.8102 13.0941 18.9489 13.6118C19 13.8025 19 14.035 19 14.5V14.5C19 14.965 19 15.1975 18.9489 15.3882C18.8102 15.9059 18.4059 16.3102 17.8882 16.4489C17.6975 16.5 17.465 16.5 17 16.5V16.5C16.535 16.5 16.3025 16.5 16.1118 16.4489C15.5941 16.3102 15.1898 15.9059 15.0511 15.3882C15 15.1975 15 14.965 15 14.5V14.5Z" fill="#292556"/>
<path d="M15 4.5C15 4.03501 15 3.80252 15.0511 3.61177C15.1898 3.09413 15.5941 2.68981 16.1118 2.55111C16.3025 2.5 16.535 2.5 17 2.5V2.5C17.465 2.5 17.6975 2.5 17.8882 2.55111C18.4059 2.68981 18.8102 3.09413 18.9489 3.61177C19 3.80252 19 4.03501 19 4.5V4.5C19 4.96499 19 5.19748 18.9489 5.38823C18.8102 5.90587 18.4059 6.31019 17.8882 6.44889C17.6975 6.5 17.465 6.5 17 6.5V6.5C16.535 6.5 16.3025 6.5 16.1118 6.44889C15.5941 6.31019 15.1898 5.90587 15.0511 5.38823C15 5.19748 15 4.96499 15 4.5V4.5Z" fill="#292556"/>
</svg>
