<svg width="24" height="24" viewBox="0 0 24 24" fill="none" xmlns="http://www.w3.org/2000/svg">
<path d="M12.0008 7.25C15.4576 7.24931 18.5781 8.43913 20.4749 10.3452C21.2562 11.0108 21.7502 12.0119 21.75 13.1258C21.7496 15.1078 20.1778 16.7471 18.1996 16.7475C16.2212 16.7479 14.6496 15.1088 14.65 13.1266C14.6501 12.7088 14.7197 12.3067 14.8481 11.9321C13.9559 11.7308 12.9986 11.6212 12.0006 11.6214C11.0023 11.6216 10.0447 11.7316 9.15224 11.9334C9.28053 12.3081 9.35008 12.7104 9.35 13.1282C9.34962 15.1102 7.77777 16.7496 5.7996 16.75C3.82119 16.7504 2.24962 15.1113 2.25 13.1291C2.25021 12.0152 2.74463 11.0141 3.52592 10.3484C5.42326 8.44178 8.54405 7.25069 12.0008 7.25Z" fill="#292556"/>
</svg>
