<svg width="24" height="24" viewBox="0 0 24 24" fill="none" xmlns="http://www.w3.org/2000/svg">
<path d="M14.4551 3.54117C16.1148 1.88211 18.8055 1.88211 20.4653 3.54117C21.3974 4.47298 21.8058 5.73087 21.6913 6.9458C21.6607 10.2084 19.9563 13.9462 16.9297 16.9716C13.9031 19.997 10.1639 21.7006 6.90039 21.7312C5.68527 21.8456 4.42706 21.4375 3.4949 20.5057C1.83503 18.8465 1.83503 16.1563 3.4949 14.497C5.1546 12.838 7.8454 12.838 9.5051 14.497C9.89721 14.889 10.197 15.3392 10.404 15.8199C11.4383 15.1777 12.45 14.3809 13.3944 13.4368C14.3386 12.4929 15.1357 11.4819 15.7781 10.4482C15.2974 10.2413 14.8471 9.94172 14.4551 9.54985C12.7952 7.89063 12.7952 5.20039 14.4551 3.54117Z" fill="#292556"/>
</svg>
