<svg width="24" height="24" viewBox="0 0 24 24" fill="none" xmlns="http://www.w3.org/2000/svg">
<path d="M2.25 11.9991C2.25 17.3839 6.61522 21.7491 12 21.7491C16.567 21.7491 20.4006 18.6091 21.4597 14.3701C21.6257 13.7059 21.7086 13.3737 21.5327 13.037C21.4825 12.9409 21.3914 12.8243 21.3104 12.7523C21.0263 12.5 20.6322 12.5 19.844 12.5H13.3C12.5501 12.5 12.1751 12.5 11.9122 12.309C11.8273 12.2473 11.7527 12.1727 11.691 12.0878C11.5 11.8249 11.5 11.4499 11.5 10.7V4.15494C11.5 3.36676 11.5 2.97267 11.2477 2.68859C11.1758 2.60759 11.0591 2.51648 10.9631 2.46632C10.6263 2.29036 10.2942 2.3733 9.63002 2.53917C5.39056 3.59786 2.25 7.43173 2.25 11.9991Z" fill="#292556"/>
<path d="M13 9.2003V4.32492C13 3.48052 13 3.05832 13.2763 2.76857C13.3548 2.68632 13.4813 2.59622 13.5847 2.54902C13.9489 2.38274 14.2968 2.50322 14.9926 2.74418C17.9219 3.75863 20.2417 6.07838 21.2562 9.00768C21.4971 9.70349 21.6176 10.0514 21.4513 10.4156C21.4041 10.519 21.314 10.6455 21.2318 10.724C20.942 11.0003 20.5198 11.0003 19.6754 11.0003H14.8C14.0501 11.0003 13.6751 11.0003 13.4122 10.8093C13.3273 10.7476 13.2527 10.673 13.191 10.5881C13 10.3252 13 9.95025 13 9.2003Z" fill="#292556"/>
</svg>
