<svg width="24" height="24" viewBox="0 0 24 24" fill="none" xmlns="http://www.w3.org/2000/svg">
<path fill-rule="evenodd" clip-rule="evenodd" d="M21.6799 10.4639C21.5239 10.9997 20.8683 11.4248 19.5569 12.275C16.8766 14.0128 15.0153 15.8741 13.2776 18.5544C12.4273 19.8657 12.0022 20.5214 11.4664 20.6774C11.2855 20.73 11.1256 20.7468 10.9378 20.7331C10.3812 20.6924 9.86526 20.1764 8.83335 19.1445L8.05096 18.3622L7.17266 18.9891C4.5174 20.8845 3.18977 21.8322 2.6933 21.5579C2.54465 21.4758 2.42227 21.3533 2.3403 21.2046C2.06653 20.7078 3.01567 19.3812 4.91393 16.728L5.54071 15.8519L4.8564 15.1676C3.82449 14.1357 3.30853 13.6197 3.26782 13.0631C3.25409 12.8753 3.27096 12.7154 3.32358 12.5346C3.47952 11.9987 4.1352 11.5736 5.44656 10.7234C8.12687 8.9856 9.98812 7.12435 11.7259 4.44404L11.7259 4.44403C12.5761 3.13268 13.0012 2.47701 13.5371 2.32106C13.7179 2.26844 13.8778 2.25157 14.0656 2.26531C14.6222 2.30602 15.1382 2.82197 16.1701 3.85388L20.1471 7.83083C21.179 8.86274 21.6949 9.3787 21.7356 9.93531C21.7494 10.1231 21.7325 10.283 21.6799 10.4639Z" fill="#292556"/>
</svg>
