<svg width="24" height="24" viewBox="0 0 24 24" fill="none" xmlns="http://www.w3.org/2000/svg">
<path fill-rule="evenodd" clip-rule="evenodd" d="M3.15717 4.20802C2.25 5.45663 2.25 7.23775 2.25 10.8V13.2C2.25 16.7622 2.25 18.5434 3.15717 19.792C3.45015 20.1952 3.80477 20.5499 4.20802 20.8428C5.45663 21.75 7.23775 21.75 10.8 21.75H13.2C16.7622 21.75 18.5434 21.75 19.792 20.8428C20.1952 20.5499 20.5499 20.1952 20.8428 19.792C21.75 18.5434 21.75 16.7622 21.75 13.2V10.8C21.75 7.23775 21.75 5.45663 20.8428 4.20802C20.5499 3.80477 20.1952 3.45015 19.792 3.15717C18.5434 2.25 16.7622 2.25 13.2 2.25H10.8C7.23775 2.25 5.45663 2.25 4.20802 3.15717C3.80477 3.45015 3.45015 3.80477 3.15717 4.20802ZM8.75 10.5C8.75 8.70507 10.2051 7.25 12 7.25C13.7949 7.25 15.25 8.70507 15.25 10.5C15.25 12.2949 13.7949 13.75 12 13.75C11.6014 13.75 11.2205 13.6786 10.8688 13.5479L11.7321 9.6627C11.822 9.25835 11.567 8.85772 11.1627 8.76786C10.7583 8.678 10.3577 8.93295 10.2679 9.3373L9.27478 13.8062L8.49008 17.3373C8.40023 17.7417 8.65517 18.1423 9.05952 18.2321C9.46387 18.322 9.86451 18.067 9.95436 17.6627L10.5413 15.0216C11.0013 15.1699 11.4917 15.25 12 15.25C14.6234 15.25 16.75 13.1234 16.75 10.5C16.75 7.87665 14.6234 5.75 12 5.75C9.37665 5.75 7.25 7.87665 7.25 10.5C7.25 10.9142 7.58579 11.25 8 11.25C8.41421 11.25 8.75 10.9142 8.75 10.5Z" fill="#292556"/>
</svg>
