<svg width="24" height="24" viewBox="0 0 24 24" fill="none" xmlns="http://www.w3.org/2000/svg">
<path fill-rule="evenodd" clip-rule="evenodd" d="M18.9684 4.32578C16.4971 3.06359 14.2615 2.25001 12.0001 2.25C9.73863 2.24999 7.50306 3.06355 5.0317 4.32578C4.03139 4.83667 3.53123 5.09212 3.2723 5.55453C3.17159 5.73437 3.09823 5.94944 3.06805 6.15334C2.99046 6.6776 3.24189 7.21004 3.74475 8.27492C6.89021 6.31215 9.41211 5.25 12 5.25C14.588 5.25 17.1099 6.31216 20.2554 8.27493C20.7582 7.21005 21.0097 6.67761 20.9321 6.15336C20.9019 5.94945 20.8285 5.73437 20.7278 5.55452C20.4689 5.09212 19.9687 4.83667 18.9684 4.32578ZM4.39958 9.63469L7.55142 16.0937L7.55142 16.0937C9.25466 19.5841 10.1063 21.3294 11.3909 21.6212C11.7919 21.7122 12.2082 21.7122 12.6092 21.6212C13.8938 21.3294 14.7454 19.5841 16.4486 16.0937L19.6005 9.63471C16.4528 7.65523 14.1923 6.75 12 6.75C9.80767 6.75 7.54727 7.65523 4.39958 9.63469ZM12.75 9.75C12.75 10.1642 12.4143 10.5 12 10.5C11.5858 10.5 11.25 10.1642 11.25 9.75C11.25 9.33579 11.5858 9 12 9C12.4143 9 12.75 9.33579 12.75 9.75ZM11.25 13.75C11.25 14.1642 10.9143 14.5 10.5 14.5C10.0858 14.5 9.75005 14.1642 9.75005 13.75C9.75005 13.3358 10.0858 13 10.5 13C10.9143 13 11.25 13.3358 11.25 13.75ZM12.75 16.75C12.75 17.1642 12.4143 17.5 12 17.5C11.5858 17.5 11.25 17.1642 11.25 16.75C11.25 16.3358 11.5858 16 12 16C12.4143 16 12.75 16.3358 12.75 16.75ZM13.5 14.5C13.9143 14.5 14.25 14.1642 14.25 13.75C14.25 13.3358 13.9143 13 13.5 13C13.0858 13 12.75 13.3358 12.75 13.75C12.75 14.1642 13.0858 14.5 13.5 14.5ZM8.75005 11.5C9.16426 11.5 9.50005 11.1642 9.50005 10.75C9.50005 10.3358 9.16426 10 8.75005 10C8.33583 10 8.00005 10.3358 8.00005 10.75C8.00005 11.1642 8.33583 11.5 8.75005 11.5ZM16 10.75C16 11.1642 15.6643 11.5 15.25 11.5C14.8358 11.5 14.5 11.1642 14.5 10.75C14.5 10.3358 14.8358 10 15.25 10C15.6643 10 16 10.3358 16 10.75Z" fill="#292556"/>
</svg>
