<svg width="24" height="24" viewBox="0 0 24 24" fill="none" xmlns="http://www.w3.org/2000/svg">
<path d="M8.74228 5.4892L8.7491 7.95034C8.74936 8.04406 8.70359 8.13194 8.62664 8.18544L3.2663 11.9129C2.62931 12.3559 2.24951 13.0826 2.24951 13.8585C2.24951 15.4328 3.75639 16.5695 5.27018 16.137L9.24951 15V16.3272C9.24951 16.4905 9.24951 16.5721 9.22504 16.6474C9.21695 16.6723 9.20691 16.6965 9.19501 16.7199C9.15906 16.7904 9.10134 16.8482 8.98591 16.9636L7.79891 18.1506C7.61861 18.3309 7.52847 18.421 7.46001 18.5236C7.36895 18.6599 7.30561 18.8128 7.27359 18.9736C7.24951 19.0945 7.24951 19.222 7.24951 19.477C7.24951 20.4543 7.24951 20.943 7.42245 21.2366C7.65245 21.6271 8.07578 21.8625 8.52884 21.8519C8.86951 21.8439 9.28464 21.5861 10.1149 21.0704L11.9995 19.9L13.8841 21.0704C14.7144 21.5861 15.1295 21.8439 15.4702 21.8519C15.9232 21.8625 16.3466 21.6271 16.5766 21.2366C16.7495 20.943 16.7495 20.4543 16.7495 19.477C16.7495 19.222 16.7495 19.0945 16.7254 18.9736C16.6934 18.8128 16.6301 18.6599 16.539 18.5236C16.4706 18.421 16.3804 18.3309 16.2001 18.1506L16.2001 18.1506L15.0131 16.9636C14.8977 16.8482 14.84 16.7904 14.804 16.7199C14.7921 16.6965 14.7821 16.6723 14.774 16.6474C14.7495 16.5721 14.7495 16.4905 14.7495 16.3272V15L18.7288 16.137C20.2426 16.5695 21.7495 15.4328 21.7495 13.8585C21.7495 13.0826 21.3697 12.3559 20.7327 11.9129L15.3723 8.18539C15.2954 8.1319 15.2495 8.04413 15.2495 7.95043V5.48019C15.2495 3.68326 13.7928 2.22656 11.9959 2.22656C10.1954 2.22656 8.73729 3.68876 8.74228 5.4892Z" fill="#292556"/>
</svg>
