<svg width="24" height="24" viewBox="0 0 24 24" fill="none" xmlns="http://www.w3.org/2000/svg">
<path d="M3.47426 3.72196C2.84834 4.45459 2.56214 5.42716 2.41619 6.60166C2.24998 7.93918 2.24999 9.69747 2.25 11.9445V12.0556C2.24999 14.3026 2.24998 16.0609 2.41619 17.3985C2.56214 18.5729 2.84832 19.5455 3.4742 20.2781L13.8809 12L3.47426 3.72196Z" fill="#292556"/>
<path d="M4.68472 21.2319C4.92798 21.3644 5.1832 21.4761 5.44752 21.5653C6.52164 21.9279 7.65861 21.7248 8.95943 21.2349C10.249 20.7491 11.8431 19.9229 13.8862 18.864L13.9907 18.8099C16.0928 17.7204 17.7629 16.8548 18.9855 16.0605L15.0857 12.9583L4.68472 21.2319Z" fill="#292556"/>
<path d="M20.2337 15.1366C20.9507 14.5102 21.4511 13.8284 21.6385 12.9991C21.7872 12.341 21.7872 11.6591 21.6385 11.001C21.4511 10.1717 20.9506 9.48983 20.2336 8.86341L16.2905 12L20.2337 15.1366Z" fill="#292556"/>
<path d="M18.9854 7.9396C17.7629 7.14528 16.0927 6.27971 13.9907 5.19029L13.8863 5.13614C11.8432 4.07723 10.249 3.25099 8.95943 2.76526C7.65861 2.27528 6.52165 2.07219 5.44752 2.4348C5.18323 2.52402 4.92805 2.63567 4.68481 2.76821L15.0857 11.0417L18.9854 7.9396Z" fill="#292556"/>
</svg>
