<svg width="24" height="24" viewBox="0 0 24 24" fill="none" xmlns="http://www.w3.org/2000/svg">
<path fill-rule="evenodd" clip-rule="evenodd" d="M3.01393 3.89886C2.25 4.95032 2.25 6.45021 2.25 9.45V14.55C2.25 17.5498 2.25 19.0497 3.01393 20.1011C3.26065 20.4407 3.55928 20.7393 3.89886 20.9861C4.95032 21.75 6.45021 21.75 9.45 21.75H14.55C17.5498 21.75 19.0497 21.75 20.1011 20.9861C20.4407 20.7393 20.7393 20.4407 20.9861 20.1011C21.75 19.0497 21.75 17.5498 21.75 14.55V9.45C21.75 6.45021 21.75 4.95032 20.9861 3.89886C20.7393 3.55928 20.4407 3.26065 20.1011 3.01393C19.0497 2.25 17.5498 2.25 14.55 2.25H9.45C6.45021 2.25 4.95032 2.25 3.89886 3.01393C3.55928 3.26065 3.26065 3.55928 3.01393 3.89886ZM16.0202 12.2412C15.922 12.7417 15.3823 13.1126 14.303 13.8546L12.5246 15.0771L12.5246 15.0771C11.1615 16.0141 10.4799 16.4827 9.92023 16.3296C9.74487 16.2816 9.58208 16.196 9.44322 16.0786C9 15.7041 9 14.8771 9 13.2229L9 10.7776C9 9.12329 9 8.29614 9.44325 7.92163C9.58213 7.80429 9.74493 7.71865 9.9203 7.6707C10.48 7.51764 11.1616 7.98628 12.5248 8.92356L14.3032 10.1464C15.3825 10.8884 15.9221 11.2594 16.0202 11.7599C16.0514 11.9188 16.0514 12.0823 16.0202 12.2412Z" fill="#292556"/>
</svg>
