<svg width="24" height="24" viewBox="0 0 24 24" fill="none" xmlns="http://www.w3.org/2000/svg">
<path fill-rule="evenodd" clip-rule="evenodd" d="M21.75 12C21.75 17.3848 17.3848 21.75 12 21.75C6.61522 21.75 2.25 17.3848 2.25 12C2.25 6.61522 6.61522 2.25 12 2.25C17.3848 2.25 21.75 6.61522 21.75 12ZM16.0202 12.2412C15.922 12.7417 15.3823 13.1126 14.303 13.8546L12.5246 15.0771L12.5246 15.0771C11.1615 16.0141 10.4799 16.4827 9.92023 16.3296C9.74487 16.2816 9.58208 16.196 9.44322 16.0786C9 15.7041 9 14.8771 9 13.2229L9 10.7776C9 9.12329 9 8.29614 9.44325 7.92163C9.58213 7.80429 9.74493 7.71865 9.9203 7.6707C10.48 7.51764 11.1616 7.98628 12.5248 8.92356L14.3032 10.1464C15.3825 10.8884 15.9221 11.2594 16.0202 11.7599C16.0514 11.9188 16.0514 12.0823 16.0202 12.2412Z" fill="#292556"/>
</svg>
