<svg width="24" height="24" viewBox="0 0 24 24" fill="none" xmlns="http://www.w3.org/2000/svg">
<path fill-rule="evenodd" clip-rule="evenodd" d="M12 21.75C17.3848 21.75 21.75 17.3848 21.75 12C21.75 6.61522 17.3848 2.25 12 2.25C6.61522 2.25 2.25 6.61522 2.25 12C2.25 17.3848 6.61522 21.75 12 21.75ZM12.75 6C12.75 5.58579 12.4142 5.25 12 5.25C11.5858 5.25 11.25 5.58579 11.25 6V10C11.25 10.4142 11.5858 10.75 12 10.75C12.4142 10.75 12.75 10.4142 12.75 10V6ZM9.45046 8.59966C9.78164 8.35087 9.84844 7.88072 9.59966 7.54954C9.35087 7.21836 8.88072 7.15156 8.54954 7.40034C7.15481 8.44806 6.25 10.1183 6.25 12C6.25 15.1756 8.82436 17.75 12 17.75C15.1756 17.75 17.75 15.1756 17.75 12C17.75 10.1186 16.8456 8.44817 15.451 7.40038C15.1198 7.15157 14.6497 7.21833 14.4009 7.54949C14.1521 7.88065 14.2188 8.35081 14.55 8.59962C15.5837 9.37629 16.25 10.6102 16.25 12C16.25 14.3472 14.3472 16.25 12 16.25C9.65279 16.25 7.75 14.3472 7.75 12C7.75 10.6102 8.4165 9.37637 9.45046 8.59966Z" fill="#292556"/>
</svg>
