<svg width="24" height="24" viewBox="0 0 24 24" fill="none" xmlns="http://www.w3.org/2000/svg">
<path fill-rule="evenodd" clip-rule="evenodd" d="M4.95611 6.90451C5.08754 7 5.27503 7 5.65 7H18.35C18.725 7 18.9125 7 19.0439 6.90451C19.0863 6.87367 19.1237 6.83634 19.1545 6.79389C19.25 6.66246 19.25 6.47497 19.25 6.1V5.4C19.25 4.08759 19.25 3.43139 18.9158 2.97138C18.8078 2.82281 18.6772 2.69216 18.5286 2.58422C18.0686 2.25 17.4124 2.25 16.1 2.25H7.9C6.58759 2.25 5.93139 2.25 5.47138 2.58422C5.32281 2.69216 5.19216 2.82281 5.08422 2.97138C4.75 3.43139 4.75 4.08759 4.75 5.4V6.1C4.75 6.47497 4.75 6.66246 4.84549 6.79389C4.87633 6.83634 4.91366 6.87367 4.95611 6.90451ZM6.75 10.25V8.5H16.75V16.8C16.75 18.8624 16.75 19.8935 16.2248 20.6164C16.0552 20.8499 15.8499 21.0552 15.6164 21.2248C14.8935 21.75 13.8457 21.75 11.75 21.75C9.65431 21.75 8.60647 21.75 7.88359 21.2248C7.65013 21.0552 7.44482 20.8499 7.2752 20.6164C6.83768 20.0142 6.76464 19.198 6.75244 17.75H11C11.4142 17.75 11.75 17.4142 11.75 17C11.75 16.5858 11.4142 16.25 11 16.25H6.75V14.75H11C11.4142 14.75 11.75 14.4142 11.75 14C11.75 13.5858 11.4142 13.25 11 13.25H6.75V11.75H11C11.4142 11.75 11.75 11.4142 11.75 11C11.75 10.5858 11.4142 10.25 11 10.25H6.75Z" fill="#292556"/>
</svg>
