<svg width="24" height="24" viewBox="0 0 24 24" fill="none" xmlns="http://www.w3.org/2000/svg">
<path fill-rule="evenodd" clip-rule="evenodd" d="M6.25 4.5C6.25 4.03521 6.25 3.80282 6.29388 3.61059C6.44346 2.95522 6.95522 2.44346 7.61059 2.29388C7.80282 2.25 8.03521 2.25 8.5 2.25H15.5C15.9648 2.25 16.1972 2.25 16.3894 2.29388C17.0448 2.44346 17.5565 2.95522 17.7061 3.61059C17.75 3.80282 17.75 4.03521 17.75 4.5H6.25ZM17.75 9.75H6.25V16.8C6.25 18.8624 6.25 19.8935 6.7752 20.6164C6.94482 20.8499 7.15013 21.0552 7.38359 21.2248C8.10647 21.75 9.13765 21.75 11.2 21.75H12.8C14.8624 21.75 15.8935 21.75 16.6164 21.2248C16.8499 21.0552 17.0552 20.8499 17.2248 20.6164C17.75 19.8935 17.75 18.8624 17.75 16.8V9.75ZM3.89324 8.19084C3.75 7.99369 3.75 7.71246 3.75 7.15V7.1C3.75 6.53754 3.75 6.25631 3.89324 6.05916C3.9395 5.99549 3.99549 5.9395 4.05916 5.89324C4.25631 5.75 4.53754 5.75 5.1 5.75H18.9C19.4625 5.75 19.7437 5.75 19.9408 5.89324C20.0045 5.9395 20.0605 5.99549 20.1068 6.05916C20.25 6.25631 20.25 6.53754 20.25 7.1V7.15C20.25 7.71246 20.25 7.99369 20.1068 8.19084C20.0605 8.25451 20.0045 8.3105 19.9408 8.35676C19.7437 8.5 19.4625 8.5 18.9 8.5H5.1C4.53754 8.5 4.25631 8.5 4.05916 8.35676C3.99549 8.3105 3.9395 8.25451 3.89324 8.19084ZM12.75 13C12.75 12.5858 12.4142 12.25 12 12.25C11.5858 12.25 11.25 12.5858 11.25 13V14.25H10C9.58579 14.25 9.25 14.5858 9.25 15C9.25 15.4142 9.58579 15.75 10 15.75H11.25V17C11.25 17.4142 11.5858 17.75 12 17.75C12.4142 17.75 12.75 17.4142 12.75 17V15.75H14C14.4142 15.75 14.75 15.4142 14.75 15C14.75 14.5858 14.4142 14.25 14 14.25H12.75V13Z" fill="#292556"/>
</svg>
