<svg width="24" height="24" viewBox="0 0 24 24" fill="none" xmlns="http://www.w3.org/2000/svg">
<path fill-rule="evenodd" clip-rule="evenodd" d="M14.9609 2.42352C14.4959 2.2501 13.9137 2.25013 12.7494 2.25019L11.2502 2.25026C10.0859 2.25031 9.50382 2.25034 9.03889 2.42381C8.29181 2.70254 7.7025 3.29183 7.42373 4.03889C7.25024 4.50381 7.25018 5.08594 7.25007 6.2502L16.7497 6.25066C16.7498 5.08632 16.7499 4.50415 16.5765 4.03919C16.2977 3.29182 15.7082 2.70229 14.9609 2.42352ZM8.18913 7.75024L15.8112 7.75061L17.1684 9.10775C17.861 9.80036 18.2073 10.1467 18.423 10.57C18.4944 10.7101 18.5546 10.8555 18.6032 11.005C18.75 11.4569 18.75 11.9466 18.75 12.9261V16.8C18.75 18.8624 18.75 19.8936 18.2248 20.6164C18.0552 20.8499 17.8499 21.0552 17.6164 21.2248C16.8935 21.75 15.8624 21.75 13.8 21.75H10.2C8.13765 21.75 7.10647 21.75 6.38359 21.2248C6.15013 21.0552 5.94482 20.8499 5.7752 20.6164C5.25 19.8936 5.25 18.8624 5.25 16.8V12.9261C5.25 11.9466 5.25 11.4569 5.39683 11.005C5.4454 10.8555 5.50563 10.7101 5.57698 10.57C5.7927 10.1467 6.139 9.80037 6.83162 9.10775L6.83162 9.10775L8.18913 7.75024ZM12.75 12.5C12.75 12.0858 12.4142 11.75 12 11.75C11.5858 11.75 11.25 12.0858 11.25 12.5V14.25H9.5C9.08579 14.25 8.75 14.5858 8.75 15C8.75 15.4142 9.08579 15.75 9.5 15.75H11.25V17.5C11.25 17.9142 11.5858 18.25 12 18.25C12.4142 18.25 12.75 17.9142 12.75 17.5V15.75H14.5C14.9142 15.75 15.25 15.4142 15.25 15C15.25 14.5858 14.9142 14.25 14.5 14.25H12.75V12.5Z" fill="#292556"/>
</svg>
