<svg width="24" height="24" viewBox="0 0 24 24" fill="none" xmlns="http://www.w3.org/2000/svg">
<path fill-rule="evenodd" clip-rule="evenodd" d="M8.25031 2.25C8.01795 2.25 7.90177 2.25 7.80372 2.25702C6.43984 2.35466 5.35487 3.43954 5.25712 4.80341C5.25009 4.90147 5.25008 5.01764 5.25006 5.25V5.25V5.25C5.25 5.25 5.24998 5.25 5.24995 5.25C3.59314 5.25003 2.25003 6.59314 2.25 8.24995C2.25 8.24998 2.25 8.25 2.25 8.25006V15.75C2.25 17.4069 3.59315 18.75 5.25 18.75V18.75V18.75C5.25 18.9821 5.25 19.0982 5.25701 19.1962C5.35457 20.5603 6.43971 21.6454 7.80382 21.743C7.90178 21.75 8.01786 21.75 8.25 21.75H15.75C15.9821 21.75 16.0982 21.75 16.1962 21.743C17.5603 21.6454 18.6454 20.5603 18.743 19.1962C18.75 19.0982 18.75 18.9821 18.75 18.75V18.75V18.75C20.4069 18.75 21.75 17.4069 21.75 15.75V8.24976C21.75 6.59304 20.407 5.25 18.7502 5.25V5.25V5.25C18.7502 5.01786 18.7502 4.90178 18.7432 4.80382C18.6457 3.43971 17.5605 2.35457 16.1964 2.25701C16.0985 2.25 15.9824 2.25 15.7502 2.25H8.25031ZM17.2502 5.25V5.25C17.2502 5.01775 17.2502 4.90162 17.2349 4.80446C17.1501 4.26959 16.7307 3.8501 16.1958 3.76539C16.0986 3.75 15.9825 3.75 15.7502 3.75H8.25018C8.01784 3.75 7.90166 3.75 7.80445 3.7654C7.26969 3.85014 6.85028 4.26952 6.7655 4.80427C6.75009 4.90148 6.75008 5.01765 6.75006 5.25V5.25H17.2502ZM17.25 17C17.25 16.0626 17.25 15.5939 17.0113 15.2653C16.9342 15.1592 16.8408 15.0658 16.7347 14.9887C16.4061 14.75 15.9374 14.75 15 14.75H9C8.06257 14.75 7.59385 14.75 7.26527 14.9887C7.15915 15.0658 7.06583 15.1592 6.98873 15.2653C6.75 15.5939 6.75 16.0626 6.75 17V18C6.75 18.9374 6.75 19.4061 6.98873 19.7347C7.06583 19.8408 7.15915 19.9342 7.26527 20.0113C7.59385 20.25 8.06257 20.25 9 20.25H15C15.9374 20.25 16.4061 20.25 16.7347 20.0113C16.8408 19.9342 16.9342 19.8408 17.0113 19.7347C17.25 19.4061 17.25 18.9374 17.25 18V17ZM5.25 10.5C5.25 10.0858 5.58579 9.75 6 9.75H18C18.4142 9.75 18.75 10.0858 18.75 10.5C18.75 10.9142 18.4142 11.25 18 11.25H6C5.58579 11.25 5.25 10.9142 5.25 10.5Z" fill="#292556"/>
</svg>
