<svg width="24" height="24" viewBox="0 0 24 24" fill="none" xmlns="http://www.w3.org/2000/svg">
<path d="M12.0003 6.20092C12.0273 6.20092 12.0542 6.20133 12.081 6.20216C11.934 5.47092 11.8502 4.09271 13.0993 3.5" stroke="#292556" stroke-width="1.5" stroke-linecap="round" stroke-linejoin="round"/>
<path fill-rule="evenodd" clip-rule="evenodd" d="M7.17263 5.45856C7.20755 5.4536 7.24278 5.45111 7.27806 5.45111C8.17861 5.45111 9.00396 5.8115 9.57956 6.40438H9.69879C10.2744 5.8115 11.0997 5.45111 12.0003 5.45111C12.035 5.45111 12.0696 5.45165 12.1041 5.45271C12.9639 5.4792 13.7483 5.83431 14.3018 6.40438H14.421C14.9966 5.8115 15.822 5.45111 16.7225 5.45111C16.7579 5.45111 16.7932 5.45361 16.8282 5.45859C18.5431 5.70262 19.6358 6.93478 20.2862 8.36885C20.9348 9.79917 21.205 11.5448 21.2453 13.1147C21.2881 14.7785 21.0395 16.635 20.3818 18.1565C19.725 19.6756 18.5928 20.991 16.8221 21.2427C16.7871 21.2477 16.7518 21.2502 16.7165 21.2502C15.8167 21.2502 14.9921 20.8897 14.4172 20.2969H14.2994C13.7244 20.8897 12.8999 21.2502 12 21.2502C11.1001 21.2502 10.2756 20.8897 9.70062 20.2969H9.58283C9.00785 20.8897 8.18332 21.2502 7.28346 21.2502C7.24807 21.2502 7.21272 21.2477 7.17768 21.2427C5.40749 20.9905 4.27538 19.6753 3.61851 18.1563C2.96063 16.6349 2.71189 14.7786 2.75467 13.1147C2.79507 11.5433 3.06962 9.79708 3.72026 8.36688C4.37199 6.93426 5.46437 5.70111 7.17263 5.45856ZM10.5418 10.8663C10.7492 10.5077 10.6266 10.049 10.268 9.84163C9.90938 9.63429 9.45061 9.75689 9.24327 10.1155C8.14123 12.0214 8.14123 14.6141 9.24327 16.52C9.45061 16.8786 9.90938 17.0012 10.268 16.7938C10.6266 16.5865 10.7492 16.1277 10.5418 15.7691C9.70838 14.3278 9.70838 12.3077 10.5418 10.8663ZM14.7569 10.1155C14.5495 9.75689 14.0908 9.63429 13.7322 9.84163C13.3736 10.049 13.251 10.5077 13.4583 10.8663C14.2918 12.3077 14.2918 14.3937 13.4583 15.8351C13.251 16.1937 13.3736 16.6525 13.7322 16.8598C14.0908 17.0671 14.5495 16.9445 14.7569 16.586C15.8589 14.6801 15.8589 12.0214 14.7569 10.1155Z" fill="#292556"/>
</svg>
