<svg width="24" height="24" viewBox="0 0 24 24" fill="none" xmlns="http://www.w3.org/2000/svg">
<path d="M10 2.25C8.20508 2.25 6.75 3.70507 6.75 5.5V6.25V6.25C5.1154 6.25 4.2981 6.25 3.68206 6.58638C3.21936 6.83904 2.83904 7.21936 2.58638 7.68206C2.25 8.2981 2.25 9.1154 2.25 10.75V10.9643C2.25 11.4655 2.25 11.7161 2.36496 11.899C2.4249 11.9944 2.50557 12.0751 2.60098 12.135C2.78393 12.25 3.03452 12.25 3.53572 12.25H4.5C5.4665 12.25 6.25 13.0335 6.25 14C6.25 14.9665 5.4665 15.75 4.5 15.75H3.53571C3.03452 15.75 2.78393 15.75 2.60098 15.865C2.50557 15.9249 2.4249 16.0056 2.36496 16.101C2.25 16.2839 2.25 16.5345 2.25 17.0357V17.0357C2.25 18.8734 2.25 19.7923 2.67151 20.4631C2.89131 20.8129 3.1871 21.1087 3.53691 21.3285C4.20774 21.75 5.12659 21.75 6.96429 21.75V21.75C7.46548 21.75 7.71607 21.75 7.89903 21.635C7.99443 21.5751 8.0751 21.4944 8.13505 21.399C8.25 21.2161 8.25 20.9655 8.25 20.4643L8.25 19.5C8.25 18.5335 9.0335 17.75 10 17.75C10.9665 17.75 11.75 18.5335 11.75 19.5V20.4643C11.75 20.9655 11.75 21.2161 11.865 21.399C11.9249 21.4944 12.0056 21.5751 12.101 21.635C12.2839 21.75 12.5345 21.75 13.0357 21.75H13.25C14.8846 21.75 15.7019 21.75 16.3179 21.4136C16.7806 21.161 17.161 20.7806 17.4136 20.3179C17.75 19.7019 17.75 18.8846 17.75 17.25V17.25H18.5C20.2949 17.25 21.75 15.7949 21.75 14C21.75 12.2051 20.2949 10.75 18.5 10.75H17.75V10.75C17.75 9.1154 17.75 8.2981 17.4136 7.68207C17.161 7.21936 16.7806 6.83904 16.3179 6.58638C15.7019 6.25 14.8846 6.25 13.25 6.25V6.25V5.5C13.25 3.70507 11.7949 2.25 10 2.25Z" fill="#292556"/>
</svg>
