<svg width="24" height="24" viewBox="0 0 24 24" fill="none" xmlns="http://www.w3.org/2000/svg">
<path fill-rule="evenodd" clip-rule="evenodd" d="M2.25 9.45C2.25 6.45021 2.25 4.95032 3.01393 3.89886C3.26065 3.55928 3.55928 3.26065 3.89886 3.01393C4.95032 2.25 6.45021 2.25 9.45 2.25H14.55C17.5498 2.25 19.0497 2.25 20.1011 3.01393C20.4407 3.26065 20.7393 3.55928 20.9861 3.89886C21.75 4.95032 21.75 6.45021 21.75 9.45V14.55C21.75 17.5498 21.75 19.0497 20.9861 20.1011C20.7393 20.4407 20.4407 20.7393 20.1011 20.9861C19.0497 21.75 17.5498 21.75 14.55 21.75H9.45C6.45021 21.75 4.95032 21.75 3.89886 20.9861C3.55928 20.7393 3.26065 20.4407 3.01393 20.1011C2.25 19.0497 2.25 17.5498 2.25 14.55V9.45ZM13 16C13 15.4477 12.5523 15 12 15C11.4477 15 11 15.4477 11 16C11 16.5523 11.4477 17 12 17C12.5523 17 13 16.5523 13 16ZM10.5 9.91274C10.5 9.16019 11.1433 8.5 12 8.5C12.8567 8.5 13.5 9.16019 13.5 9.91274C13.5 10.3705 13.2681 10.7868 12.8897 11.0501C12.8075 11.1073 12.7295 11.1501 12.6196 11.2106L12.6195 11.2106C12.5715 11.237 12.5173 11.2667 12.454 11.3025C12.2741 11.4042 12.035 11.5487 11.8241 11.7678C11.2808 12.3323 11.2426 13.0266 11.2501 13.5116C11.2565 13.9257 11.5974 14.2563 12.0116 14.2499C12.4257 14.2435 12.7563 13.9026 12.7499 13.4884C12.7436 13.0764 12.7992 12.9177 12.9049 12.808C12.9585 12.7522 13.0396 12.6946 13.1922 12.6083C13.2187 12.5934 13.2502 12.5761 13.2853 12.5568C13.4149 12.4858 13.5932 12.388 13.7465 12.2813C14.4974 11.7587 15 10.8974 15 9.91274C15 8.27639 13.6286 7 12 7C10.3714 7 9 8.27639 9 9.91274C9 10.327 9.33579 10.6627 9.75 10.6627C10.1642 10.6627 10.5 10.327 10.5 9.91274Z" fill="#292556"/>
</svg>
