<svg width="24" height="24" viewBox="0 0 24 24" fill="none" xmlns="http://www.w3.org/2000/svg">
<path fill-rule="evenodd" clip-rule="evenodd" d="M3.43622 6.48045L6.48045 3.43622C6.99991 2.91675 7.25965 2.65702 7.57717 2.49524C7.68219 2.44172 7.79126 2.39655 7.90336 2.36012C8.24228 2.25 8.6096 2.25 9.34423 2.25H14.6558C15.3904 2.25 15.7577 2.25 16.0966 2.36012C16.2087 2.39655 16.3178 2.44172 16.4228 2.49524C16.7404 2.65702 17.0001 2.91675 17.5196 3.43622L20.5638 6.48045L20.5638 6.48047L20.5638 6.4805C21.0833 6.99993 21.343 7.25965 21.5048 7.57717C21.5583 7.68219 21.6035 7.79126 21.6399 7.90336C21.75 8.24228 21.75 8.6096 21.75 9.34423V14.6558C21.75 15.3904 21.75 15.7577 21.6399 16.0966C21.6035 16.2087 21.5583 16.3178 21.5048 16.4228C21.343 16.7403 21.0833 17.0001 20.5638 17.5195L20.5638 17.5195L20.5638 17.5196L17.5196 20.5638L17.5195 20.5638L17.5195 20.5638C17.0001 21.0833 16.7403 21.343 16.4228 21.5048C16.3178 21.5583 16.2087 21.6035 16.0966 21.6399C15.7577 21.75 15.3904 21.75 14.6558 21.75H9.34423C8.6096 21.75 8.24228 21.75 7.90336 21.6399C7.79126 21.6035 7.68219 21.5583 7.57717 21.5048C7.25965 21.343 6.99993 21.0833 6.4805 20.5638L6.48047 20.5638L6.48045 20.5638L3.43622 17.5196C2.91675 17.0001 2.65702 16.7404 2.49524 16.4228C2.44172 16.3178 2.39655 16.2087 2.36012 16.0966C2.25 15.7577 2.25 15.3904 2.25 14.6558V9.34423C2.25 8.6096 2.25 8.24228 2.36012 7.90336C2.39655 7.79126 2.44172 7.68219 2.49524 7.57717C2.65702 7.25965 2.91675 6.99991 3.43622 6.48045ZM12 8.25C11.1433 8.25 10.5 8.91019 10.5 9.66274C10.5 10.0769 10.1642 10.4127 9.75 10.4127C9.33579 10.4127 9 10.0769 9 9.66274C9 8.02639 10.3714 6.75 12 6.75C13.6286 6.75 15 8.02639 15 9.66274C15 10.6474 14.4974 11.5087 13.7465 12.0313C13.5932 12.138 13.4149 12.2358 13.2853 12.3068L13.2853 12.3068L13.2853 12.3068C13.2502 12.3261 13.2187 12.3434 13.1922 12.3583C13.0396 12.4446 12.9585 12.5022 12.9049 12.558C12.4951 12.9838 12.3925 13.6134 12.6782 14.1448C12.8744 14.5097 12.7377 14.9644 12.3728 15.1606C12.008 15.3567 11.5532 15.22 11.3571 14.8552C10.7487 13.7236 10.9837 12.3911 11.8241 11.5178C12.035 11.2987 12.2741 11.1542 12.454 11.0525C12.5173 11.0167 12.5715 10.987 12.6195 10.9606L12.6195 10.9606L12.6196 10.9606C12.7295 10.9001 12.8075 10.8573 12.8897 10.8001C13.2681 10.5368 13.5 10.1205 13.5 9.66274C13.5 8.91019 12.8567 8.25 12 8.25ZM12.75 16.75C12.75 17.1642 12.4142 17.5 12 17.5C11.5858 17.5 11.25 17.1642 11.25 16.75C11.25 16.3358 11.5858 16 12 16C12.4142 16 12.75 16.3358 12.75 16.75Z" fill="#292556"/>
</svg>
