<svg width="24" height="24" viewBox="0 0 24 24" fill="none" xmlns="http://www.w3.org/2000/svg">
<path d="M13.9998 16.3807C13.5856 16.3807 13.2498 16.7165 13.2498 17.1307C13.2498 17.5449 13.5856 17.8807 13.9998 17.8807V16.3807ZM19.3482 8.39027C19.2293 7.99349 18.8113 7.76824 18.4145 7.88716C18.0177 8.00608 17.7925 8.42413 17.9114 8.82091L19.3482 8.39027ZM5.2998 16.3806C4.88559 16.3806 4.5498 16.7163 4.5498 17.1306C4.5498 17.5448 4.88559 17.8806 5.2998 17.8806V16.3806ZM10.6482 8.39015C10.5293 7.99337 10.1113 7.76812 9.71449 7.88704C9.31771 8.00596 9.09246 8.42401 9.21138 8.82079L10.6482 8.39015ZM13.9998 17.8807C15.6543 17.8807 17.096 17.0005 18.0998 15.6809C19.1028 14.3624 19.6998 12.5743 19.6998 10.6307H18.1998C18.1998 12.2769 17.6926 13.7388 16.906 14.7728C16.1201 15.8058 15.0869 16.3807 13.9998 16.3807V17.8807ZM19.6998 10.6307C19.6998 9.83284 19.5544 9.078 19.3482 8.39027L17.9114 8.82091C18.0873 9.40776 18.1998 10.0143 18.1998 10.6307H19.6998ZM5.2998 17.8806C6.95429 17.8806 8.39604 17.0003 9.39981 15.6808C10.4028 14.3623 10.9998 12.5741 10.9998 10.6306H9.4998C9.4998 12.2768 8.99255 13.7387 8.20597 14.7727C7.42013 15.8057 6.38688 16.3806 5.2998 16.3806V17.8806ZM10.9998 10.6306C10.9998 9.83273 10.8544 9.07789 10.6482 8.39015L9.21138 8.82079C9.38726 9.40764 9.4998 10.0142 9.4998 10.6306H10.9998Z" fill="#292556"/>
<path d="M4.2998 9.34961C4.2998 11.1445 5.76779 12.5996 7.5498 12.5996C9.33182 12.5996 10.7998 11.1445 10.7998 9.34961C10.7998 7.55468 9.33182 6.09961 7.5498 6.09961C5.76779 6.09961 4.2998 7.55468 4.2998 9.34961Z" fill="#292556"/>
<path d="M13 9.34971C13 11.1446 14.468 12.5997 16.25 12.5997C18.032 12.5997 19.5 11.1446 19.5 9.34971C19.5 7.55478 18.032 6.09971 16.25 6.09971C14.468 6.09971 13 7.55478 13 9.34971Z" fill="#292556"/>
</svg>
