<svg width="24" height="24" viewBox="0 0 24 24" fill="none" xmlns="http://www.w3.org/2000/svg">
<path fill-rule="evenodd" clip-rule="evenodd" d="M15.3721 3.65131C15.7317 3.4458 15.8567 2.98766 15.6512 2.62802C15.4457 2.26839 14.9875 2.14344 14.6279 2.34895L7.80081 6.25014C6.97159 6.25032 6.29483 6.25336 5.7424 6.30343C5.13605 6.35839 4.60625 6.47468 4.125 6.75253C3.55493 7.08166 3.08154 7.55506 2.75241 8.12513C2.47456 8.60638 2.35826 9.13618 2.3033 9.74253C2.24998 10.3308 2.24999 11.0601 2.25 11.9643V11.9643V12.0001V15.6001V15.6434V15.6434C2.24999 16.7316 2.24998 17.609 2.32598 18.3106C2.40452 19.0354 2.57134 19.6609 2.96619 20.2043C3.19749 20.5227 3.47745 20.8026 3.79581 21.0339C4.33926 21.4288 4.96472 21.5956 5.68957 21.6741C6.39108 21.7502 7.26849 21.7501 8.35661 21.7501H8.35664H8.35667H8.35669H8.4H15.6H15.6433H15.6433H15.6434H15.6434C16.7315 21.7501 17.6089 21.7502 18.3104 21.6741C19.0353 21.5956 19.6607 21.4288 20.2042 21.0339C20.5226 20.8026 20.8025 20.5227 21.0338 20.2043C21.4287 19.6609 21.5955 19.0354 21.674 18.3106C21.75 17.609 21.75 16.7316 21.75 15.6435V15.6435V15.6435V15.6434V15.6001V12.4001V12.3568V12.3568V12.3568V12.3567C21.75 11.2686 21.75 10.3912 21.674 9.6897C21.5955 8.96485 21.4287 8.33939 21.0338 7.79593C20.8025 7.47758 20.5226 7.19761 20.2042 6.96631C19.6607 6.57147 19.0353 6.40464 18.3104 6.32611C17.6089 6.2501 16.7315 6.25011 15.6433 6.25013H15.6433L15.6 6.25013H10.8242L15.3721 3.65131ZM9.66104 10.0002L9.7 10.0002H10H10.3L10.339 10.0002H10.339C10.8681 10.0001 11.3244 10.0001 11.6956 10.0403C12.0899 10.0831 12.4762 10.1783 12.8225 10.4299C13.0135 10.5687 13.1815 10.7366 13.3203 10.9277C13.5719 11.274 13.6671 11.6602 13.7098 12.0546C13.75 12.4258 13.75 12.882 13.75 13.4112V13.4502V13.7502V14.0502V14.0891C13.75 14.6183 13.75 15.0746 13.7098 15.4458C13.6671 15.8401 13.5719 16.2264 13.3203 16.5727C13.1815 16.7637 13.0135 16.9317 12.8225 17.0705C12.4762 17.3221 12.0899 17.4173 11.6956 17.46C11.3244 17.5002 10.8681 17.5002 10.339 17.5002L10.3 17.5002H10H9.7L9.66104 17.5002C9.13188 17.5002 8.67561 17.5002 8.3044 17.46C7.91007 17.4173 7.5238 17.3221 7.17749 17.0705C6.98647 16.9317 6.81849 16.7637 6.67972 16.5727C6.42811 16.2264 6.3329 15.8401 6.29018 15.4458C6.24996 15.0746 6.24998 14.6183 6.25 14.0891V14.0891L6.25 14.0502V13.7502V13.4502L6.25 13.4112V13.4112C6.24998 12.882 6.24996 12.4258 6.29018 12.0546C6.3329 11.6602 6.42811 11.274 6.67972 10.9277C6.81849 10.7366 6.98647 10.5687 7.17749 10.4299C7.5238 10.1783 7.91007 10.0831 8.3044 10.0403C8.67561 10.0001 9.13187 10.0001 9.66103 10.0002H9.66104ZM8.46597 11.5316C8.19926 11.5605 8.10715 11.6085 8.05916 11.6434C7.99549 11.6897 7.9395 11.7457 7.89324 11.8093C7.85837 11.8573 7.81034 11.9494 7.78145 12.2161C7.75975 12.4164 7.75301 12.6643 7.75092 13.0002H9.25V11.5011C8.91409 11.5032 8.66626 11.5099 8.46597 11.5316ZM10.75 11.5011V13.0002H12.2491C12.247 12.6643 12.2403 12.4164 12.2186 12.2161C12.1897 11.9494 12.1416 11.8573 12.1068 11.8093C12.0605 11.7457 12.0045 11.6897 11.9408 11.6434C11.8929 11.6085 11.8007 11.5605 11.534 11.5316C11.3337 11.5099 11.0859 11.5032 10.75 11.5011ZM12.2491 14.5002H10.75V15.9992C11.0859 15.9972 11.3337 15.9904 11.534 15.9687C11.8007 15.9398 11.8929 15.8918 11.9408 15.8569C12.0045 15.8107 12.0605 15.7547 12.1068 15.691C12.1416 15.643 12.1897 15.5509 12.2186 15.2842C12.2403 15.0839 12.247 14.8361 12.2491 14.5002ZM9.25 15.9992V14.5002H7.75092C7.75301 14.8361 7.75975 15.0839 7.78145 15.2842C7.81034 15.5509 7.85837 15.643 7.89324 15.691C7.9395 15.7547 7.99549 15.8107 8.05916 15.8569C8.10715 15.8918 8.19926 15.9398 8.46597 15.9687C8.66626 15.9904 8.91409 15.9972 9.25 15.9992ZM17.0001 10.5C17.4142 10.5 17.75 10.8358 17.75 11.25C17.75 11.6642 17.4142 12 17.0001 12C16.5859 12 16.2501 11.664 16.2502 11.2498C16.2503 10.8357 16.586 10.5 17.0001 10.5ZM17.0001 13.25C17.4142 13.25 17.75 13.5858 17.75 14C17.75 14.4142 17.4142 14.75 17.0001 14.75C16.5859 14.75 16.2501 14.414 16.2502 13.9998C16.2503 13.5857 16.586 13.25 17.0001 13.25ZM17.75 16.75C17.75 16.3358 17.4142 16 17.0001 16C16.586 16 16.2503 16.3357 16.2502 16.7498C16.2501 17.164 16.5859 17.5 17.0001 17.5C17.4142 17.5 17.75 17.1642 17.75 16.75Z" fill="#292556"/>
</svg>
