<svg width="24" height="24" viewBox="0 0 24 24" fill="none" xmlns="http://www.w3.org/2000/svg">
<path fill-rule="evenodd" clip-rule="evenodd" d="M6.33906 2.6973C6.86114 2.8004 7.48564 3.4249 8.73463 4.67389C8.81719 4.75646 8.85847 4.79774 8.90454 4.81677C8.96567 4.84203 9.03433 4.84203 9.09546 4.81677C9.14153 4.79774 9.18281 4.75646 9.26537 4.67389L9.77261 4.16665C10.7006 3.23864 11.1646 2.77463 11.7262 2.68568C11.9076 2.65696 12.0924 2.65696 12.2738 2.68568C12.8354 2.77463 13.2994 3.23864 14.2274 4.16665L14.7346 4.67389L14.7346 4.6739C14.8172 4.75646 14.8585 4.79774 14.9045 4.81677C14.9657 4.84203 15.0343 4.84203 15.0955 4.81677C15.1415 4.79774 15.1828 4.75646 15.2654 4.6739L15.2654 4.67389C16.5144 3.4249 17.1389 2.8004 17.6609 2.6973C18.3536 2.5605 19.0607 2.85337 19.4537 3.4399C19.75 3.88197 19.75 4.76514 19.75 6.53149L19.75 17.4684C19.75 19.2347 19.75 20.1179 19.4537 20.56C19.0607 21.1465 18.3536 21.4393 17.6609 21.3026C17.1389 21.1994 16.5144 20.5749 15.2654 19.326L15.2654 19.3259C15.1828 19.2434 15.1415 19.2021 15.0955 19.1831C15.0343 19.1578 14.9657 19.1578 14.9045 19.1831C14.8585 19.2021 14.8172 19.2434 14.7346 19.3259L14.7346 19.326L14.2274 19.8332C13.2994 20.7612 12.8354 21.2252 12.2738 21.3142C12.0924 21.3429 11.9076 21.3429 11.7262 21.3142C11.1646 21.2252 10.7006 20.7612 9.77261 19.8332L9.26537 19.326C9.18281 19.2434 9.14153 19.2021 9.09546 19.1831C9.03433 19.1578 8.96567 19.1578 8.90454 19.1831C8.85847 19.2021 8.81719 19.2434 8.73463 19.326L8.73461 19.326C7.48563 20.575 6.86114 21.1994 6.33906 21.3026C5.64637 21.4393 4.93933 21.1465 4.54626 20.56C4.25 20.1179 4.25 19.2347 4.25 17.4684V6.53148C4.25 4.76514 4.25 3.88197 4.54626 3.4399C4.93933 2.85337 5.64637 2.5605 6.33906 2.6973ZM8 8.24981C7.58579 8.24981 7.25 8.5856 7.25 8.99981C7.25 9.41403 7.58579 9.74981 8 9.74981H16C16.4142 9.74981 16.75 9.41403 16.75 8.99981C16.75 8.5856 16.4142 8.24981 16 8.24981H8ZM8 11.2498C7.58579 11.2498 7.25 11.5856 7.25 11.9998C7.25 12.414 7.58579 12.7498 8 12.7498H16C16.4142 12.7498 16.75 12.414 16.75 11.9998C16.75 11.5856 16.4142 11.2498 16 11.2498H8ZM8 14.2498C7.58579 14.2498 7.25 14.5856 7.25 14.9998C7.25 15.414 7.58579 15.7498 8 15.7498H16C16.4142 15.7498 16.75 15.414 16.75 14.9998C16.75 14.5856 16.4142 14.2498 16 14.2498H8Z" fill="#292556"/>
</svg>
