<svg width="24" height="24" viewBox="0 0 24 24" fill="none" xmlns="http://www.w3.org/2000/svg">
<path fill-rule="evenodd" clip-rule="evenodd" d="M5.21233 5.25C4.15752 5.25 3.63012 5.25 3.36429 5.33723C2.26204 5.69891 1.81035 7.01345 2.4575 7.97624C2.61357 8.20843 3.02958 8.5326 3.86161 9.18093L3.86161 9.18094L3.86162 9.18094C3.92011 9.22652 3.94936 9.24931 3.96763 9.27207C4.04102 9.3635 4.04102 9.49365 3.96763 9.58508C3.94936 9.60783 3.92011 9.63062 3.86162 9.6762L3.76691 9.75C2.75203 10.5408 2.24459 10.9362 2.0746 11.4225C1.94388 11.7964 1.94388 12.2036 2.0746 12.5775C2.24459 13.0638 2.75203 13.4592 3.76691 14.25L3.86162 14.3238L3.86163 14.3238C3.92012 14.3694 3.94936 14.3922 3.96763 14.4149C4.04102 14.5064 4.04102 14.6365 3.96763 14.7279C3.94936 14.7507 3.92012 14.7735 3.86163 14.819L3.86162 14.8191C3.02959 15.4674 2.61357 15.7916 2.4575 16.0238C1.81035 16.9866 2.26204 18.3011 3.36429 18.6628C3.63012 18.75 4.15752 18.75 5.21233 18.75H18.7869C19.8417 18.75 20.3691 18.75 20.635 18.6628C21.7372 18.3011 22.1889 16.9866 21.5417 16.0238C21.3857 15.7916 20.9697 15.4674 20.1377 14.8191L20.1376 14.8191L20.1376 14.819C20.0791 14.7735 20.0499 14.7507 20.0316 14.7279C19.9582 14.6365 19.9582 14.5064 20.0316 14.4149C20.0499 14.3922 20.0791 14.3694 20.1376 14.3238L20.1376 14.3238L20.2323 14.25C21.2472 13.4592 21.7546 13.0638 21.9246 12.5775C22.0554 12.2036 22.0554 11.7964 21.9246 11.4225C21.7546 10.9362 21.2472 10.5408 20.2323 9.75L20.1376 9.6762L20.1376 9.67619L20.1376 9.67615C20.0791 9.63061 20.0499 9.60783 20.0316 9.58508C19.9582 9.49365 19.9582 9.3635 20.0316 9.27207C20.0499 9.24931 20.0791 9.22652 20.1376 9.18095L20.1376 9.18094C20.9697 8.5326 21.3857 8.20844 21.5417 7.97624C22.1889 7.01345 21.7372 5.69891 20.635 5.33723C20.3691 5.25 19.8417 5.25 18.7869 5.25H5.21233ZM9.54251 9.04289C9.93304 8.65237 10.5662 8.65237 10.9567 9.04289C11.3473 9.43342 11.3473 10.0666 10.9567 10.4571C10.5662 10.8476 9.93304 10.8476 9.54251 10.4571C9.15199 10.0666 9.15199 9.43342 9.54251 9.04289ZM13.0425 13.5429C13.433 13.1524 14.0662 13.1524 14.4567 13.5429C14.8473 13.9334 14.8473 14.5666 14.4567 14.9571C14.0662 15.3476 13.433 15.3476 13.0425 14.9571C12.652 14.5666 12.652 13.9334 13.0425 13.5429ZM14.5853 9.96852C14.844 9.64507 14.7916 9.17311 14.4681 8.91435C14.1447 8.65559 13.6727 8.70803 13.414 9.03148L9.41397 14.0315C9.15521 14.3549 9.20765 14.8269 9.5311 15.0857C9.85455 15.3444 10.3265 15.292 10.5853 14.9685L14.5853 9.96852Z" fill="#292556"/>
</svg>
