<svg width="24" height="24" viewBox="0 0 24 24" fill="none" xmlns="http://www.w3.org/2000/svg">
<path fill-rule="evenodd" clip-rule="evenodd" d="M5.79581 2.96619C6.78155 2.25 8.1877 2.25 11 2.25H13C15.8123 2.25 17.2184 2.25 18.2042 2.96619C18.5225 3.19748 18.8025 3.47745 19.0338 3.79581C19.75 4.78155 19.75 6.1877 19.75 9L19.75 17.0931C19.75 19.1775 19.75 20.2197 19.344 20.7066C18.9759 21.148 18.4145 21.3805 17.8421 21.3287C17.2108 21.2715 16.4739 20.5345 15 19.0607L14.2274 19.8333C13.2994 20.7613 12.8354 21.2253 12.2738 21.3142C12.0924 21.343 11.9076 21.343 11.7262 21.3142C11.1646 21.2253 10.7006 20.7613 9.77261 19.8333L9 19.0607C7.52613 20.5345 6.78919 21.2715 6.15786 21.3287C5.58545 21.3805 5.02408 21.148 4.65598 20.7066C4.25 20.2197 4.25 19.1775 4.25 17.0931V9C4.25 6.1877 4.25 4.78155 4.96619 3.79581C5.19748 3.47745 5.47745 3.19748 5.79581 2.96619ZM12.75 6C12.75 5.58579 12.4142 5.25 12 5.25C11.5858 5.25 11.25 5.58579 11.25 6V6.19678C10.3779 6.43636 9.75 7.24669 9.75 8.1875C9.75 9.31193 10.6469 10.25 11.7857 10.25H12.2143C12.4956 10.25 12.75 10.4872 12.75 10.8125C12.75 11.1378 12.4956 11.375 12.2143 11.375H12H11.7857C11.5634 11.375 11.3598 11.2296 11.2819 11.0046C11.1464 10.6132 10.7192 10.4058 10.3278 10.5413C9.93636 10.6768 9.72892 11.104 9.86444 11.4954C10.0826 12.1253 10.5984 12.6236 11.25 12.803V13C11.25 13.4142 11.5858 13.75 12 13.75C12.4142 13.75 12.75 13.4142 12.75 13V12.8032C13.6221 12.5636 14.25 11.7533 14.25 10.8125C14.25 9.68807 13.3531 8.75 12.2143 8.75H11.7857C11.5044 8.75 11.25 8.51281 11.25 8.1875C11.25 7.86219 11.5044 7.625 11.7857 7.625H12H12.2143C12.4366 7.625 12.6402 7.77043 12.7181 7.99538C12.8536 8.3868 13.2808 8.59424 13.6722 8.45872C14.0636 8.3232 14.2711 7.89603 14.1356 7.50462C13.9174 6.87465 13.4016 6.37641 12.75 6.197V6ZM8 14.75C7.58579 14.75 7.25 15.0858 7.25 15.5C7.25 15.9142 7.58579 16.25 8 16.25H16C16.4142 16.25 16.75 15.9142 16.75 15.5C16.75 15.0858 16.4142 14.75 16 14.75H8Z" fill="#292556"/>
</svg>
