<svg width="24" height="24" viewBox="0 0 24 24" fill="none" xmlns="http://www.w3.org/2000/svg">
<path d="M16 18.5H17.1243C17.1572 18.5 17.1737 18.5 17.1848 18.4999C20.1251 18.4824 21.9023 15.2419 20.3366 12.7532C20.3307 12.7437 20.3218 12.7298 20.3042 12.7021V12.7021M16.1575 6.08089L16.1603 6.07912L15.3126 4.73851C15.1849 4.53658 15.1211 4.43562 15.0715 4.36466C13.5795 2.2299 10.4192 2.22874 8.92567 4.3624C8.87602 4.43332 8.81211 4.53424 8.68429 4.73608V4.73608M8 18.5V18.5C6.97153 18.5 6.45729 18.5 6.11216 18.4348C3.79748 17.9973 2.45458 15.5592 3.32206 13.3691C3.4514 13.0425 3.72626 12.6079 4.27598 11.7386L4.42269 11.5067" stroke="#292556" stroke-width="1.5" stroke-linecap="round" stroke-linejoin="round"/>
<path d="M19.2757 7.56166C19.4906 5.77068 19.5981 4.87519 19.172 4.44601C19.0391 4.3122 18.8777 4.21018 18.6999 4.14759C18.1294 3.94683 17.3666 4.42811 15.8411 5.39066L15.6744 5.49583C14.1488 6.45838 13.3861 6.93965 13.3217 7.54099C13.3016 7.72848 13.3242 7.91808 13.3878 8.09559C13.5917 8.66495 14.4462 8.95346 16.1553 9.53049L16.3033 9.58048C17.3738 9.94189 17.909 10.1226 18.3389 9.94828C18.4765 9.8925 18.6031 9.81265 18.7127 9.71248C19.0551 9.39946 19.1224 8.83858 19.257 7.71682L19.2757 7.56166Z" fill="#292556"/>
<path d="M7.52095 9.84948C7.3819 8.73116 7.31238 8.17199 6.96956 7.86058C6.85983 7.76091 6.73326 7.68155 6.59574 7.62621C6.16608 7.4533 5.63248 7.63432 4.56529 7.99637L4.41296 8.04805C2.71577 8.62382 1.86717 8.91171 1.66335 9.4792C1.59978 9.6562 1.57697 9.84526 1.59661 10.0323C1.65959 10.632 2.41536 11.1135 3.92688 12.0764L4.0993 12.1862C5.63536 13.1648 6.4034 13.6541 6.97658 13.453C7.15519 13.3903 7.31723 13.2879 7.45048 13.1535C7.87811 12.7221 7.76575 11.8184 7.54103 10.011L7.52095 9.84948Z" fill="#292556"/>
<path d="M16.7505 18.3981C16.7505 16.5943 16.7505 15.6924 16.2763 15.317C16.1284 15.2 15.956 15.1179 15.7719 15.077C15.1816 14.9456 14.4816 15.5144 13.0816 16.6518L12.9604 16.7504C12.0835 17.4628 11.6451 17.8191 11.5631 18.2757C11.5368 18.4218 11.5368 18.5715 11.5631 18.7176C11.6451 19.1742 12.0835 19.5305 12.9603 20.2429L13.0816 20.3414C14.4816 21.4789 15.1816 22.0477 15.7719 21.9163C15.956 21.8754 16.1284 21.7933 16.2763 21.6763C16.7505 21.3009 16.7505 20.399 16.7505 18.5952V18.3981Z" fill="#292556"/>
</svg>
