<svg width="24" height="24" viewBox="0 0 24 24" fill="none" xmlns="http://www.w3.org/2000/svg">
<path d="M13.25 4.76172C13.25 3.38101 14.3693 2.26172 15.75 2.26172C17.1307 2.26172 18.25 3.38101 18.25 4.76172C18.25 6.14243 17.1307 7.26172 15.75 7.26172C14.3693 7.26172 13.25 6.14243 13.25 4.76172Z" fill="#292556"/>
<path d="M15.6853 8.88784C17.9241 9.69096 19.6489 11.2031 20.3749 13.0503C20.4033 13.1226 20.4302 13.1954 20.4555 13.2688C20.5071 13.4182 20.5523 13.5696 20.5907 13.7229C21.3042 13.0408 21.75 12.0784 21.75 11.0117C21.75 8.94065 20.0711 7.26172 18 7.26172C16.8078 7.26172 15.7463 7.81829 15.0601 8.68366C15.2643 8.743 15.4887 8.8173 15.6853 8.88784Z" fill="#292556"/>
<path d="M6 7.26172C7.19222 7.26172 8.2537 7.81829 8.9399 8.68366C8.71766 8.74699 8.528 8.81131 8.31467 8.88784C6.07595 9.69096 4.35115 11.2031 3.62514 13.0503C3.59672 13.1226 3.56983 13.1954 3.54449 13.2688C3.49287 13.4182 3.44773 13.5696 3.40932 13.7229C2.69583 13.0408 2.25 12.0784 2.25 11.0117C2.25 8.94065 3.92893 7.26172 6 7.26172Z" fill="#292556"/>
<path fill-rule="evenodd" clip-rule="evenodd" d="M20.75 15C20.75 18.7279 16.8325 21.75 12 21.75C7.16751 21.75 3.25 18.7279 3.25 15C3.25 14.3973 3.35239 13.8131 3.54449 13.257C3.56983 13.1837 3.59672 13.1109 3.62514 13.0386C4.35115 11.1914 6.07595 9.67924 8.31467 8.87612C8.71301 8.73323 9.12762 8.61277 9.55577 8.51688C10.3315 8.34314 11.1516 8.25 12 8.25C12.8484 8.25 13.6685 8.34314 14.4442 8.51688C14.8724 8.61277 15.287 8.73323 15.6853 8.87612C17.9241 9.67924 19.6489 11.1914 20.3749 13.0386C20.4033 13.1109 20.4302 13.1837 20.4555 13.257C20.6476 13.8131 20.75 14.3973 20.75 15ZM10 13.5C10 14.1904 9.44036 14.75 8.75 14.75C8.05964 14.75 7.5 14.1904 7.5 13.5C7.5 12.8096 8.05964 12.25 8.75 12.25C9.44036 12.25 10 12.8096 10 13.5ZM16.5 13.5C16.5 14.1904 15.9404 14.75 15.25 14.75C14.5596 14.75 14 14.1904 14 13.5C14 12.8096 14.5596 12.25 15.25 12.25C15.9404 12.25 16.5 12.8096 16.5 13.5ZM8.40038 16.5495C8.64919 16.2183 9.11935 16.1516 9.45051 16.4004C10.1608 16.9341 11.0427 17.25 12.0005 17.25C12.9583 17.25 13.8402 16.9341 14.5505 16.4004C14.8816 16.1516 15.3518 16.2183 15.6006 16.5495C15.8494 16.8807 15.7826 17.3508 15.4515 17.5996C14.4903 18.3218 13.2943 18.75 12.0005 18.75C10.7067 18.75 9.51067 18.3218 8.54949 17.5996C8.21833 17.3508 8.15157 16.8807 8.40038 16.5495Z" fill="#292556"/>
<path d="M12 9.00006V8.72492C12 7.76555 12 7.28586 12.1929 6.87906C12.2563 6.74555 12.3342 6.61946 12.4253 6.50312C12.7028 6.14862 13.1352 5.93241 14 5.5V5.5" stroke="#292556" stroke-width="1.5" stroke-linecap="round" stroke-linejoin="round"/>
</svg>
