<svg width="24" height="24" viewBox="0 0 24 24" fill="none" xmlns="http://www.w3.org/2000/svg">
<path d="M5.03963 15.107C4.87891 15.2206 4.73629 15.3358 4.6239 15.4482C3.71639 16.3557 3.40233 17.5453 3.29849 18.4346C3.24559 18.8877 3.24425 19.2876 3.25603 19.575C3.26194 19.7194 3.36743 20.538 3.37555 20.6218C3.45931 20.6299 4.27795 20.7354 4.42229 20.7413C4.70978 20.7531 5.1096 20.7518 5.56271 20.6988C6.45199 20.595 7.64165 20.2809 8.54916 19.3734C8.66155 19.261 8.77672 19.1184 8.89038 18.9577L8.89038 18.9577C8.96521 18.8519 9.00263 18.799 9.11052 18.5356C9.35428 17.9405 9.25786 16.8081 8.91699 16.2628C8.76611 16.0215 8.63441 15.8897 8.371 15.6263C8.10759 15.3629 7.97588 15.2312 7.73452 15.0803C7.1892 14.7395 6.05688 14.6431 5.46177 14.8868C5.19837 14.9947 5.14546 15.0321 5.03963 15.107Z" fill="#292556"/>
<path fill-rule="evenodd" clip-rule="evenodd" d="M16.8504 3.50051C17.7526 3.33471 18.5413 3.27438 19.1065 3.25546C19.4783 3.24302 19.6642 3.2368 19.8569 3.29329C20.2252 3.40125 20.5968 3.77291 20.7048 4.14121C20.7613 4.33392 20.7551 4.5198 20.7426 4.89155C20.7237 5.45682 20.6634 6.24552 20.4976 7.14765C20.1799 8.87619 19.4646 11.077 17.8562 12.9042L17.6455 16.9534C17.5521 18.7483 16.0694 20.1558 14.272 20.1558C12.4624 20.1558 10.9742 18.7298 10.8971 16.9218L10.8573 15.9892L8.00888 13.1408L7.07626 13.101C5.2683 13.0239 3.84229 11.5357 3.84229 9.72607C3.84229 7.92868 5.24976 6.44604 7.04473 6.35261L11.0939 6.14187C12.9211 4.5335 15.1219 3.81818 16.8504 3.50051ZM15 11C15 12.1046 14.1046 13 13 13C11.8954 13 11 12.1046 11 11C11 9.89543 11.8954 9 13 9C14.1046 9 15 9.89543 15 11Z" fill="#292556"/>
</svg>
