<svg width="24" height="24" viewBox="0 0 24 24" fill="none" xmlns="http://www.w3.org/2000/svg">
<path d="M2.25 19C2.25 17.4812 3.48122 16.25 5 16.25V16.25C6.51878 16.25 7.75 17.4812 7.75 19V19C7.75 20.5188 6.51878 21.75 5 21.75V21.75C3.48122 21.75 2.25 20.5188 2.25 19V19Z" fill="#292556"/>
<path d="M15.6667 12.75C16.0809 12.75 16.4167 12.4142 16.4167 12C16.4167 11.5858 16.0809 11.25 15.6667 11.25V12.75ZM7 18.25C6.58579 18.25 6.25 18.5858 6.25 19C6.25 19.4142 6.58579 19.75 7 19.75V18.25ZM8.75 12.75H15.6667V11.25H8.75V12.75ZM18.25 18.25H7V19.75H18.25V18.25ZM8.75 16.25H18.25V14.75H8.75V16.25ZM18.25 19.75C19.6307 19.75 20.75 18.6307 20.75 17.25H19.25C19.25 17.8023 18.8023 18.25 18.25 18.25V19.75ZM18.25 16.25C18.8023 16.25 19.25 16.6977 19.25 17.25H20.75C20.75 15.8693 19.6307 14.75 18.25 14.75V16.25ZM6.25 13.75C6.25 15.1307 7.36929 16.25 8.75 16.25V14.75C8.19772 14.75 7.75 14.3023 7.75 13.75H6.25ZM8.75 11.25C7.36929 11.25 6.25 12.3693 6.25 13.75H7.75C7.75 13.1977 8.19772 12.75 8.75 12.75V11.25Z" fill="#292556"/>
<path fill-rule="evenodd" clip-rule="evenodd" d="M18.5957 10.9768C18.2418 11.2394 17.7577 11.2394 17.4038 10.9768L17.1161 10.7632C16.853 10.5475 16.1283 9.85732 16.1283 9.85732C15.4153 9.12403 14.544 8.02574 14.3183 6.78262C13.8659 4.29072 15.7077 2.25 17.9998 2.25C20.2919 2.25 22.1336 4.29075 21.6813 6.78258C21.4557 8.02573 20.5844 9.12403 19.8713 9.85733C19.502 10.2371 19.1466 10.5475 18.8835 10.7632L18.5957 10.9768ZM18 7C18.5523 7 19 6.55228 19 6C19 5.44772 18.5523 5 18 5C17.4477 5 17 5.44772 17 6C17 6.55228 17.4477 7 18 7Z" fill="#292556"/>
</svg>
