<svg width="24" height="24" viewBox="0 0 24 24" fill="none" xmlns="http://www.w3.org/2000/svg">
<path fill-rule="evenodd" clip-rule="evenodd" d="M21.75 4.41667C21.75 6.42894 21.75 7.43507 21.6546 8.28146C21.0837 15.3832 15.5243 20.9776 8.28146 21.6546C7.43507 21.75 6.42894 21.75 4.41667 21.75C3.22005 21.75 2.25 20.7799 2.25 19.5833C2.25 17.5711 2.25 16.5649 2.34536 15.7185C3.00346 8.55328 8.52491 2.95014 15.7185 2.34536C16.5649 2.25 17.5711 2.25 19.5833 2.25C20.7799 2.25 21.75 3.22005 21.75 4.41667ZM13.5303 7.46967C13.2374 7.17678 12.7626 7.17678 12.4697 7.46967C12.1768 7.76256 12.1768 8.23744 12.4697 8.53033L13.4393 9.5L12 10.9393L11.0303 9.96967C10.7374 9.67678 10.2626 9.67678 9.96967 9.96967C9.67678 10.2626 9.67678 10.7374 9.96967 11.0303L10.9393 12L9.5 13.4393L8.53033 12.4697C8.23744 12.1768 7.76256 12.1768 7.46967 12.4697C7.17678 12.7626 7.17678 13.2374 7.46967 13.5303L8.43934 14.5L7.46967 15.4697C7.17678 15.7626 7.17678 16.2374 7.46967 16.5303C7.76256 16.8232 8.23744 16.8232 8.53033 16.5303L9.5 15.5607L10.4697 16.5303C10.7626 16.8232 11.2374 16.8232 11.5303 16.5303C11.8232 16.2374 11.8232 15.7626 11.5303 15.4697L10.5607 14.5L12 13.0607L12.9697 14.0303C13.2626 14.3232 13.7374 14.3232 14.0303 14.0303C14.3232 13.7374 14.3232 13.2626 14.0303 12.9697L13.0607 12L14.5 10.5607L15.4697 11.5303C15.7626 11.8232 16.2374 11.8232 16.5303 11.5303C16.8232 11.2374 16.8232 10.7626 16.5303 10.4697L15.5607 9.5L16.5303 8.53033C16.8232 8.23744 16.8232 7.76256 16.5303 7.46967C16.2374 7.17678 15.7626 7.17678 15.4697 7.46967L14.5 8.43934L13.5303 7.46967Z" fill="#292556"/>
</svg>
