<svg width="24" height="24" viewBox="0 0 24 24" fill="none" xmlns="http://www.w3.org/2000/svg">
<path fill-rule="evenodd" clip-rule="evenodd" d="M2.49028 16.5235C2.77593 17.2677 3.43521 17.9269 4.75377 19.2455L4.75379 19.2455C6.07234 20.5641 6.73162 21.2233 7.47576 21.509C8.3409 21.8411 9.29837 21.8411 10.1635 21.509C10.2554 21.4737 10.346 21.4327 10.4368 21.3855L6.47008 17.4188C6.17719 17.1259 6.17719 16.651 6.47008 16.3582C6.76297 16.0653 7.23785 16.0653 7.53074 16.3582L11.6397 20.4671C11.9882 20.1428 12.3904 19.7406 12.8855 19.2455L12.8855 19.2455L13.0607 19.0703L10.3545 16.3592C10.0619 16.0661 10.0623 15.5912 10.3555 15.2986C10.6487 15.006 11.1235 15.0064 11.4162 15.2996L14.1213 18.0097L15.5352 16.5958L11.4128 12.4735C11.1199 12.1806 11.1199 11.7057 11.4128 11.4128C11.7057 11.1199 12.1806 11.1199 12.4735 11.4128L16.5958 15.5352L18.0072 14.1238L15.2991 11.4157C15.0062 11.1228 15.0062 10.6479 15.2991 10.355C15.5919 10.0621 16.0668 10.0621 16.3597 10.355L19.0678 13.0632L19.248 12.883L19.248 12.883C19.7418 12.3892 20.1432 11.9878 20.4672 11.6398L16.3575 7.52973C16.0646 7.23682 16.0647 6.76195 16.3576 6.46907C16.6505 6.17619 17.1254 6.17622 17.4182 6.46912L21.3864 10.4377C21.4346 10.3456 21.4763 10.2535 21.5121 10.1602C21.8442 9.2948 21.844 8.33709 21.5116 7.47183C21.2257 6.72758 20.566 6.06833 19.2465 4.74983L19.2465 4.74981C17.9279 3.43217 17.2686 2.77335 16.5245 2.48797C15.6595 2.15618 14.7023 2.15636 13.8374 2.48846C13.0934 2.77412 12.4344 3.43318 11.1162 4.7513L4.75377 11.1138C3.43521 12.4323 2.77593 13.0916 2.49028 13.8358C2.15819 14.7009 2.15819 15.6584 2.49028 16.5235Z" fill="#292556"/>
</svg>
