<svg width="24" height="24" viewBox="0 0 24 24" fill="none" xmlns="http://www.w3.org/2000/svg">
<path fill-rule="evenodd" clip-rule="evenodd" d="M9.21967 5.78033C8.52941 5.09007 8.25 4.11561 8.25 3C8.25 2.58579 8.58579 2.25 9 2.25H15C15.4142 2.25 15.75 2.58579 15.75 3C15.75 4.11561 15.4706 5.09007 14.7803 5.78033C14.7468 5.81381 14.7127 5.84633 14.6779 5.87789C15.9393 6.48582 17.0402 7.49108 17.9112 8.69683C19.3604 10.7027 20.25 13.3563 20.25 16C20.25 19.0418 18.171 21.75 15.3333 21.75H8.66667C5.82904 21.75 3.75 19.0418 3.75 16C3.75 13.3563 4.63962 10.7027 6.08875 8.69683C6.95984 7.49108 8.06074 6.48582 9.32211 5.87789C9.2873 5.84633 9.25315 5.81381 9.21967 5.78033ZM12.75 9.5C12.75 9.08579 12.4142 8.75 12 8.75C11.5858 8.75 11.25 9.08579 11.25 9.5V9.75H10.75C9.36929 9.75 8.25 10.8693 8.25 12.25C8.25 13.6307 9.36929 14.75 10.75 14.75H11.25V16.75H10.75C10.1977 16.75 9.75 16.3023 9.75 15.75C9.75 15.3358 9.41421 15 9 15C8.58579 15 8.25 15.3358 8.25 15.75C8.25 17.1307 9.36929 18.25 10.75 18.25H11.25V18.5C11.25 18.9142 11.5858 19.25 12 19.25C12.4142 19.25 12.75 18.9142 12.75 18.5V18.25H13.25C14.6307 18.25 15.75 17.1307 15.75 15.75C15.75 14.3693 14.6307 13.25 13.25 13.25H12.75V11.25H13.255C13.8045 11.25 14.25 11.6955 14.25 12.245V12.25C14.25 12.6642 14.5858 13 15 13C15.4142 13 15.75 12.6642 15.75 12.25V12.245C15.75 10.8671 14.633 9.75 13.255 9.75H12.75V9.5ZM10.75 11.25H11.25V13.25H10.75C10.1977 13.25 9.75 12.8023 9.75 12.25C9.75 11.6977 10.1977 11.25 10.75 11.25ZM13.25 16.75H12.75V14.75H13.25C13.8023 14.75 14.25 15.1977 14.25 15.75C14.25 16.3023 13.8023 16.75 13.25 16.75Z" fill="#292556"/>
</svg>
