<svg width="24" height="24" viewBox="0 0 24 24" fill="none" xmlns="http://www.w3.org/2000/svg">
<path fill-rule="evenodd" clip-rule="evenodd" d="M9.21967 5.78033C8.52941 5.09007 8.25 4.11561 8.25 3C8.25 2.58579 8.58579 2.25 9 2.25H15C15.4142 2.25 15.75 2.58579 15.75 3C15.75 4.11561 15.4706 5.09007 14.7803 5.78033C14.7468 5.81381 14.7127 5.84633 14.6779 5.87789C15.9393 6.48582 17.0402 7.49108 17.9112 8.69683C19.3604 10.7027 20.25 13.3563 20.25 16C20.25 19.0418 18.171 21.75 15.3333 21.75H8.66667C5.82904 21.75 3.75 19.0418 3.75 16C3.75 13.3563 4.63962 10.7027 6.08875 8.69683C6.95984 7.49108 8.06074 6.48582 9.32211 5.87789C9.2873 5.84633 9.25315 5.81381 9.21967 5.78033ZM11.2294 9.74968C11.1031 9.90242 10.9855 10.2829 10.7504 11.0438L10.7504 11.0438C10.6864 11.251 10.6544 11.3546 10.6077 11.4409C10.466 11.7032 10.2147 11.8885 9.92236 11.9465C9.82608 11.9656 9.7159 11.9656 9.49556 11.9656C8.65767 11.9656 8.23873 11.9656 8.04083 12.0559C7.51647 12.2955 7.30266 12.9275 7.57395 13.4362C7.67634 13.6281 8.00355 13.8781 8.65795 14.378L8.76429 14.4593C8.95475 14.6048 9.04998 14.6775 9.12058 14.7613C9.29063 14.9631 9.37401 15.224 9.35254 15.487C9.34362 15.5962 9.30824 15.7107 9.23748 15.9397L9.1824 16.1179C8.96093 16.8346 8.8502 17.193 8.86488 17.3831C8.91351 18.0127 9.52633 18.4402 10.134 18.2683C10.3175 18.2165 10.6155 17.9888 11.2116 17.5334C11.3843 17.4015 11.4706 17.3355 11.5583 17.2924C11.8368 17.1552 12.1632 17.1552 12.4417 17.2924C12.5294 17.3355 12.6157 17.4015 12.7884 17.5334L12.7884 17.5334C13.3845 17.9888 13.6825 18.2165 13.866 18.2683C14.4737 18.4402 15.0865 18.0127 15.1351 17.3831C15.1498 17.193 15.0391 16.8346 14.8176 16.1179L14.7625 15.9397L14.7625 15.9397C14.6918 15.7107 14.6564 15.5962 14.6475 15.487C14.626 15.224 14.7094 14.9631 14.8794 14.7613C14.95 14.6775 15.0452 14.6048 15.2357 14.4593L15.3421 14.378C15.9965 13.8781 16.3237 13.6281 16.426 13.4362C16.6973 12.9275 16.4835 12.2955 15.9592 12.0559C15.7613 11.9656 15.3423 11.9656 14.5044 11.9656C14.2841 11.9656 14.1739 11.9656 14.0776 11.9465C13.7853 11.8885 13.534 11.7032 13.3923 11.4409C13.3456 11.3546 13.3136 11.251 13.2496 11.0438L13.2496 11.0438C13.0145 10.2829 12.8969 9.90242 12.7706 9.74968C12.3706 9.26618 11.6294 9.26618 11.2294 9.74968Z" fill="#292556"/>
</svg>
