<svg width="24" height="24" viewBox="0 0 24 24" fill="none" xmlns="http://www.w3.org/2000/svg">
<path fill-rule="evenodd" clip-rule="evenodd" d="M13.4213 2.30374C12.184 1.91368 10.7047 3.68903 10.1171 6.26908C10.01 6.73944 9.93988 7.20406 9.90438 7.65178C9.59674 6.84412 9.03269 6.23553 8.19986 6.28598C8.09781 6.29216 8.01093 6.3224 7.93143 6.36425C7.97831 6.14121 8.04652 6.00805 8.11109 5.94325C8.23773 5.81615 8.31363 5.77644 8.35661 5.76078C8.39455 5.74695 8.45887 5.73248 8.59793 5.75079C9.0086 5.80487 9.38535 5.51579 9.43943 5.10512C9.4935 4.69445 9.20443 4.3177 8.79376 4.26363C8.4805 4.22238 8.16231 4.2351 7.84306 4.35143C7.52885 4.46592 7.27289 4.65932 7.04852 4.8845C6.61892 5.31565 6.47413 5.90157 6.4162 6.33238C6.35536 6.30748 6.28953 6.29044 6.21578 6.28598C5.2215 6.22575 4.61031 7.10484 4.36116 8.14058C4.11202 9.17633 4.3595 9.25 4.3595 9.25H13.9375C14.2665 8.91043 14.4003 8.54056 14.4882 8.18071L13.1846 8.18071C12.7704 8.18071 12.4346 7.84492 12.4346 7.43071C12.4346 7.01649 12.7704 6.68071 13.1846 6.68071L14.7721 6.68071C14.8153 6.3241 14.8368 5.9759 14.838 5.64143H13.4111C12.9968 5.64143 12.6611 5.30564 12.6611 4.89143C12.6611 4.47722 12.9968 4.14143 13.4111 4.14143H14.6872C14.4718 3.18386 14.0336 2.49675 13.4213 2.30374ZM14.6481 8.24482C14.6481 6.58725 15.7902 5.24352 17.199 5.24352C18.6079 5.24352 19.75 6.58725 19.75 8.24482C19.75 8.59738 19.6983 8.93574 19.6034 9.25H15C14.6481 9.25 14.6476 8.89381 14.6481 8.24482ZM15.8892 19.9847C19.0916 19.2072 21.5423 16.7807 21.75 13.25C21.75 11.8693 20.6307 10.75 19.25 10.75H4.75C3.36929 10.75 2.25 11.8693 2.25 13.25C2.41621 16.7819 4.89598 19.2088 8.11046 19.9855C8.0395 20.1424 8 20.3166 8 20.5C8 21.1904 8.55964 21.75 9.25 21.75H14.75C15.4404 21.75 16 21.1904 16 20.5C16 20.3163 15.9604 20.1418 15.8892 19.9847Z" fill="#292556"/>
</svg>
