<svg width="24" height="24" viewBox="0 0 24 24" fill="none" xmlns="http://www.w3.org/2000/svg">
<path fill-rule="evenodd" clip-rule="evenodd" d="M12.7502 3C12.7502 2.58579 12.4144 2.25 12.0002 2.25C11.586 2.25 11.2502 2.58579 11.2502 3V4.25H6.0002C5.68757 4.25 5.40773 4.44393 5.29796 4.73666L2.30402 12.7205C2.28536 12.7669 2.27121 12.8157 2.26211 12.8662C2.25278 12.9173 2.24893 12.9686 2.25025 13.0192C2.26061 15.0815 3.93555 16.75 6.0002 16.75C8.06486 16.75 9.7398 15.0815 9.75015 13.0192C9.75147 12.9686 9.74763 12.9173 9.7383 12.8662C9.7292 12.8157 9.71505 12.7669 9.69638 12.7205L7.08245 5.75H11.2502V20.25H5.0002C4.58599 20.25 4.2502 20.5858 4.2502 21C4.2502 21.4142 4.58599 21.75 5.0002 21.75H12.0002H19.0002C19.4144 21.75 19.7502 21.4142 19.7502 21C19.7502 20.5858 19.4144 20.25 19.0002 20.25H12.7502V5.75H16.918L14.304 12.7205C14.2854 12.7669 14.2712 12.8157 14.2621 12.8662C14.2528 12.9173 14.2489 12.9686 14.2503 13.0192C14.2606 15.0815 15.9356 16.75 18.0002 16.75C20.0649 16.75 21.7398 15.0815 21.7502 13.0192C21.7515 12.9686 21.7476 12.9173 21.7383 12.8662C21.7292 12.8157 21.7151 12.7669 21.6964 12.7205L18.7024 4.73666C18.5927 4.44393 18.3128 4.25 18.0002 4.25H12.7502V3ZM19.918 12.25L18.0002 7.136L16.0825 12.25H19.918ZM7.91795 12.25L6.0002 7.136L4.08245 12.25H7.91795Z" fill="#292556"/>
</svg>
