<svg width="24" height="24" viewBox="0 0 24 24" fill="none" xmlns="http://www.w3.org/2000/svg">
<path d="M20.4579 2.1404C20.0708 1.75328 19.4432 1.75328 19.0561 2.1404L13.9899 7.20654C13.8371 7.35934 13.7607 7.43575 13.7088 7.5112C13.4738 7.85261 13.4738 8.30358 13.7088 8.64499C13.7607 8.72044 13.8371 8.79685 13.9899 8.94966V8.94966L12.9588 9.98074L12.8371 9.85903C12.3068 9.32874 12.0417 9.0636 11.7208 9.01277C11.6171 8.99635 11.5115 8.99635 11.4079 9.01277C11.087 9.0636 10.8218 9.32874 10.2915 9.85903L3.36428 16.7863C2.30123 17.8493 2.30123 19.5729 3.36428 20.6359V20.6359C4.42733 21.699 6.15088 21.699 7.21393 20.6359L14.1412 13.7087C14.6715 13.1784 14.9366 12.9132 14.9875 12.5923C15.0039 12.4887 15.0039 12.3831 14.9875 12.2795C14.9366 11.9585 14.6715 11.6934 14.1412 11.1631L14.0195 11.0414L15.0506 10.0103V10.0103C15.2034 10.1631 15.2798 10.2395 15.3552 10.2914C15.6967 10.5264 16.1476 10.5264 16.489 10.2914C16.5645 10.2395 16.6409 10.1631 16.7937 10.0103L20.4579 6.34607C21.6193 5.1847 21.6193 3.30176 20.4579 2.1404V2.1404Z" fill="#292556"/>
</svg>
