<svg width="24" height="24" viewBox="0 0 24 24" fill="none" xmlns="http://www.w3.org/2000/svg">
<path fill-rule="evenodd" clip-rule="evenodd" d="M12.8 16.7499C12.9875 16.7499 13.0812 16.7499 13.1469 16.7976C13.1682 16.813 13.1868 16.8317 13.2023 16.8529C13.25 16.9186 13.25 17.0124 13.25 17.1999V19.4999C13.25 20.4373 13.25 20.906 13.4887 21.2346C13.5658 21.3407 13.6592 21.434 13.7653 21.5111C14.0939 21.7498 14.5626 21.7498 15.5 21.7499H16.8H16.8C18.8624 21.7499 19.8935 21.7499 20.6164 21.2246C20.8499 21.055 21.0552 20.8497 21.2248 20.6163C21.75 19.8934 21.75 18.8622 21.75 16.7999V11.1999C21.75 9.1375 21.75 8.10632 21.2248 7.38344C21.0552 7.14998 20.8499 6.94467 20.6164 6.77505C19.8935 6.24985 18.8624 6.24985 16.8 6.24985H16.3107L14.2274 4.16658C13.2994 3.23856 12.8354 2.77456 12.2738 2.68561C12.0924 2.65688 11.9076 2.65688 11.7262 2.68561C11.1646 2.77456 10.7006 3.23856 9.77261 4.16658L7.68934 6.24985H7.2C5.13765 6.24985 4.10647 6.24985 3.38359 6.77505C3.15013 6.94467 2.94482 7.14998 2.7752 7.38344C2.25 8.10632 2.25 9.1375 2.25 11.1998V16.7998C2.25 18.8622 2.25 19.8934 2.7752 20.6163C2.94482 20.8497 3.15013 21.055 3.38359 21.2246C4.10647 21.7498 5.13765 21.7498 7.2 21.7498H8.5C9.43743 21.7498 9.90615 21.7498 10.2347 21.5111C10.3408 21.434 10.4342 21.3407 10.5113 21.2346C10.75 20.906 10.75 20.4373 10.75 19.4998V17.1999C10.75 17.0124 10.75 16.9186 10.7977 16.8529C10.8132 16.8317 10.8318 16.813 10.8531 16.7976C10.9188 16.7499 11.0125 16.7499 11.2 16.7499H12.8ZM12 12.9997C13.6569 12.9997 15 11.6566 15 9.99974C15 8.34288 13.6569 6.99974 12 6.99974C10.3431 6.99974 9 8.34288 9 9.99974C9 11.6566 10.3431 12.9997 12 12.9997ZM12.5 8.99974C12.5 8.58552 12.1642 8.24974 11.75 8.24974C11.3358 8.24974 11 8.58552 11 8.99974V10.4997C11 10.9139 11.3358 11.2497 11.75 11.2497H13C13.4142 11.2497 13.75 10.9139 13.75 10.4997C13.75 10.0855 13.4142 9.74974 13 9.74974H12.5V8.99974ZM7.5 10.5997C7.5 10.9747 7.5 11.1622 7.40451 11.2936C7.37367 11.3361 7.33634 11.3734 7.29389 11.4042C7.16246 11.4997 6.97497 11.4997 6.6 11.4997H6.4C6.02503 11.4997 5.83754 11.4997 5.70611 11.4042C5.66366 11.3734 5.62633 11.3361 5.59549 11.2936C5.5 11.1622 5.5 10.9747 5.5 10.5997V10.3997C5.5 10.0248 5.5 9.83728 5.59549 9.70584C5.62633 9.6634 5.66366 9.62607 5.70611 9.59523C5.83754 9.49974 6.02503 9.49974 6.4 9.49974H6.6C6.97497 9.49974 7.16246 9.49974 7.29389 9.59523C7.33634 9.62607 7.37367 9.6634 7.40451 9.70584C7.5 9.83728 7.5 10.0248 7.5 10.3997V10.5997ZM7.5 14.0997C7.5 14.4747 7.5 14.6622 7.40451 14.7936C7.37367 14.8361 7.33634 14.8734 7.29389 14.9042C7.16246 14.9997 6.97497 14.9997 6.6 14.9997H6.4C6.02503 14.9997 5.83754 14.9997 5.70611 14.9042C5.66366 14.8734 5.62633 14.8361 5.59549 14.7936C5.5 14.6622 5.5 14.4747 5.5 14.0997V13.8997C5.5 13.5248 5.5 13.3373 5.59549 13.2058C5.62633 13.1634 5.66366 13.1261 5.70611 13.0952C5.83754 12.9997 6.02503 12.9997 6.4 12.9997H6.6C6.97497 12.9997 7.16246 12.9997 7.29389 13.0952C7.33634 13.1261 7.37367 13.1634 7.40451 13.2058C7.5 13.3373 7.5 13.5248 7.5 13.8997V14.0997ZM7.40451 18.3436C7.5 18.2122 7.5 18.0247 7.5 17.6497V17.4497C7.5 17.0748 7.5 16.8873 7.40451 16.7558C7.37367 16.7134 7.33634 16.6761 7.29389 16.6452C7.16246 16.5497 6.97497 16.5497 6.6 16.5497H6.4C6.02503 16.5497 5.83754 16.5497 5.70611 16.6452C5.66366 16.6761 5.62633 16.7134 5.59549 16.7558C5.5 16.8873 5.5 17.0748 5.5 17.4497V17.6497C5.5 18.0247 5.5 18.2122 5.59549 18.3436C5.62633 18.3861 5.66366 18.4234 5.70611 18.4542C5.83754 18.5497 6.02503 18.5497 6.4 18.5497H6.6C6.97497 18.5497 7.16246 18.5497 7.29389 18.4542C7.33634 18.4234 7.37367 18.3861 7.40451 18.3436ZM18.4045 18.3436C18.5 18.2122 18.5 18.0247 18.5 17.6497V17.4497C18.5 17.0748 18.5 16.8873 18.4045 16.7558C18.3737 16.7134 18.3363 16.6761 18.2939 16.6452C18.1625 16.5497 17.975 16.5497 17.6 16.5497H17.4C17.025 16.5497 16.8375 16.5497 16.7061 16.6452C16.6637 16.6761 16.6263 16.7134 16.5955 16.7558C16.5 16.8873 16.5 17.0748 16.5 17.4497V17.6497C16.5 18.0247 16.5 18.2122 16.5955 18.3436C16.6263 18.3861 16.6637 18.4234 16.7061 18.4542C16.8375 18.5497 17.025 18.5497 17.4 18.5497H17.6C17.975 18.5497 18.1625 18.5497 18.2939 18.4542C18.3363 18.4234 18.3737 18.3861 18.4045 18.3436ZM18.4045 14.7936C18.5 14.6622 18.5 14.4747 18.5 14.0997V13.8997C18.5 13.5248 18.5 13.3373 18.4045 13.2058C18.3737 13.1634 18.3363 13.1261 18.2939 13.0952C18.1625 12.9997 17.975 12.9997 17.6 12.9997H17.4C17.025 12.9997 16.8375 12.9997 16.7061 13.0952C16.6637 13.1261 16.6263 13.1634 16.5955 13.2058C16.5 13.3373 16.5 13.5248 16.5 13.8997V14.0997C16.5 14.4747 16.5 14.6622 16.5955 14.7936C16.6263 14.8361 16.6637 14.8734 16.7061 14.9042C16.8375 14.9997 17.025 14.9997 17.4 14.9997H17.6C17.975 14.9997 18.1625 14.9997 18.2939 14.9042C18.3363 14.8734 18.3737 14.8361 18.4045 14.7936ZM18.4045 11.2936C18.5 11.1622 18.5 10.9747 18.5 10.5997V10.3997C18.5 10.0248 18.5 9.83728 18.4045 9.70584C18.3737 9.6634 18.3363 9.62607 18.2939 9.59523C18.1625 9.49974 17.975 9.49974 17.6 9.49974H17.4C17.025 9.49974 16.8375 9.49974 16.7061 9.59523C16.6637 9.62607 16.6263 9.6634 16.5955 9.70584C16.5 9.83728 16.5 10.0248 16.5 10.3997V10.5997C16.5 10.9747 16.5 11.1622 16.5955 11.2936C16.6263 11.3361 16.6637 11.3734 16.7061 11.4042C16.8375 11.4997 17.025 11.4997 17.4 11.4997H17.6C17.975 11.4997 18.1625 11.4997 18.2939 11.4042C18.3363 11.3734 18.3737 11.3361 18.4045 11.2936Z" fill="#292556"/>
</svg>
