<svg width="24" height="24" viewBox="0 0 24 24" fill="none" xmlns="http://www.w3.org/2000/svg">
<path fill-rule="evenodd" clip-rule="evenodd" d="M2.19824 6.96387C2.19824 5.03087 3.76525 3.46387 5.69824 3.46387C7.63124 3.46387 9.19824 5.03087 9.19824 6.96387C9.19824 8.07537 8.68012 9.06586 7.87223 9.707L10.7654 10.76C11.0818 10.445 11.5182 10.2502 12 10.2502C12.4488 10.2502 12.8582 10.4192 13.1679 10.697L20.7508 7.93707C21.14 7.7954 21.5704 7.99609 21.7121 8.38532C21.8537 8.77455 21.653 9.20494 21.2638 9.3466L14.0729 11.9639L21.2823 14.5879C21.6716 14.7296 21.8723 15.1599 21.7306 15.5492C21.5889 15.9384 21.1586 16.1391 20.7693 15.9974L13.2239 13.2511C12.9083 13.5599 12.4764 13.7502 12 13.7502C11.4913 13.7502 11.0332 13.5332 10.7135 13.1866L7.87223 14.2207C8.68012 14.8619 9.19824 15.8524 9.19824 16.9639C9.19824 18.8969 7.63124 20.4639 5.69824 20.4639C3.76525 20.4639 2.19824 18.8969 2.19824 16.9639C2.19824 15.0777 3.69027 13.54 5.55847 13.4666L9.68722 11.9639L5.55847 10.4611C3.69027 10.3878 2.19824 8.85005 2.19824 6.96387Z" fill="#292556"/>
</svg>
