<svg width="24" height="24" viewBox="0 0 24 24" fill="none" xmlns="http://www.w3.org/2000/svg">
<path d="M21.001 21.0013L17.5977 17.5977" stroke="#292556" stroke-width="1.5" stroke-linecap="round"/>
<path fill-rule="evenodd" clip-rule="evenodd" d="M11.4989 20.75C16.607 20.75 20.7479 16.6086 20.7479 11.5C20.7479 6.39137 16.607 2.25 11.4989 2.25C6.39089 2.25 2.25 6.39137 2.25 11.5C2.25 16.6086 6.39089 20.75 11.4989 20.75ZM10.8236 8.68751C10.7014 8.42092 10.435 8.25 10.1418 8.25C9.84851 8.25 9.58215 8.42092 9.45997 8.68751L7.8558 12.1875L7.1683 13.6875C6.99572 14.0641 7.16106 14.5092 7.53761 14.6818C7.91415 14.8544 8.35931 14.689 8.5319 14.3125L9.01887 13.25L11.2647 13.25L11.7516 14.3125C11.9242 14.689 12.3694 14.8544 12.7459 14.6818C13.1225 14.5092 13.2878 14.0641 13.1152 13.6875L12.4277 12.1875L10.8236 8.68751ZM10.1418 10.8001L10.5772 11.75H9.70637L10.1418 10.8001ZM15.8918 9C15.8918 8.58579 15.556 8.25 15.1418 8.25C14.7276 8.25 14.3918 8.58579 14.3918 9L14.3918 14C14.3918 14.4142 14.7276 14.75 15.1418 14.75C15.556 14.75 15.8918 14.4142 15.8918 14L15.8918 9Z" fill="#292556"/>
</svg>
