<svg width="24" height="24" viewBox="0 0 24 24" fill="none" xmlns="http://www.w3.org/2000/svg">
<path d="M21.001 21.0013L17.5977 17.5977" stroke="#292556" stroke-width="1.5" stroke-linecap="round"/>
<path fill-rule="evenodd" clip-rule="evenodd" d="M11.4989 20.75C16.607 20.75 20.7479 16.6086 20.7479 11.5C20.7479 6.39137 16.607 2.25 11.4989 2.25C6.39089 2.25 2.25 6.39137 2.25 11.5C2.25 16.6086 6.39089 20.75 11.4989 20.75ZM9 10.75C8.58579 10.75 8.25 11.0858 8.25 11.5C8.25 11.9142 8.58579 12.25 9 12.25L14 12.25C14.4142 12.25 14.75 11.9142 14.75 11.5C14.75 11.0858 14.4142 10.75 14 10.75L9 10.75Z" fill="#292556"/>
</svg>
