<svg width="24" height="24" viewBox="0 0 24 24" fill="none" xmlns="http://www.w3.org/2000/svg">
<path d="M21.001 21.0013L17.5977 17.5977" stroke="#292556" stroke-width="1.5" stroke-linecap="round"/>
<path fill-rule="evenodd" clip-rule="evenodd" d="M11.4989 20.75C16.607 20.75 20.7479 16.6086 20.7479 11.5C20.7479 6.39137 16.607 2.25 11.4989 2.25C6.39089 2.25 2.25 6.39137 2.25 11.5C2.25 16.6086 6.39089 20.75 11.4989 20.75ZM9.78033 8.71967C9.48744 8.42678 9.01256 8.42678 8.71967 8.71967C8.42678 9.01256 8.42678 9.48744 8.71967 9.78033L10.4393 11.5L8.71967 13.2197C8.42678 13.5126 8.42678 13.9874 8.71967 14.2803C9.01256 14.5732 9.48744 14.5732 9.78033 14.2803L11.5 12.5607L13.2197 14.2803C13.5126 14.5732 13.9874 14.5732 14.2803 14.2803C14.5732 13.9874 14.5732 13.5126 14.2803 13.2197L12.5607 11.5L14.2803 9.78033C14.5732 9.48744 14.5732 9.01256 14.2803 8.71967C13.9874 8.42678 13.5126 8.42678 13.2197 8.71967L11.5 10.4393L9.78033 8.71967Z" fill="#292556"/>
</svg>
