<svg width="24" height="24" viewBox="0 0 24 24" fill="none" xmlns="http://www.w3.org/2000/svg">
<path d="M21.001 21.0013L17.5977 17.5977" stroke="#292556" stroke-width="1.5" stroke-linecap="round"/>
<path fill-rule="evenodd" clip-rule="evenodd" d="M11.4989 20.75C16.607 20.75 20.7479 16.6086 20.7479 11.5C20.7479 6.39137 16.607 2.25 11.4989 2.25C6.39089 2.25 2.25 6.39137 2.25 11.5C2.25 16.6086 6.39089 20.75 11.4989 20.75ZM15.0504 10.0503C15.3432 9.75746 15.3432 9.28258 15.0504 8.98969C14.7575 8.6968 14.2826 8.6968 13.9897 8.98969L10.52 12.4594L9.05035 10.9897C8.75746 10.6968 8.28258 10.6968 7.98969 10.9897C7.6968 11.2826 7.6968 11.7575 7.98969 12.0504L9.98969 14.0504C10.2826 14.3432 10.7575 14.3432 11.0504 14.0504L15.0504 10.0503Z" fill="#292556"/>
</svg>
