<svg width="24" height="24" viewBox="0 0 24 24" fill="none" xmlns="http://www.w3.org/2000/svg">
<path fill-rule="evenodd" clip-rule="evenodd" d="M12 2.25C10.7574 2.25 9.75 3.25736 9.75 4.5C9.75 5.47963 10.3761 6.31303 11.2499 6.62194V8.25H8.74991V7C8.74991 6.80109 8.67089 6.61032 8.53024 6.46967L8.09156 6.03099C8.19347 5.79098 8.25 5.52691 8.25 5.25C8.25 4.14543 7.35457 3.25 6.25 3.25C5.14543 3.25 4.25 4.14543 4.25 5.25C4.25 6.35457 5.14543 7.25 6.25 7.25C6.52686 7.25 6.79088 7.19349 7.03086 7.09162L7.24991 7.31066V8.25H4.25C3.54993 8.25 3.1999 8.25 2.93251 8.38624C2.69731 8.50608 2.50608 8.69731 2.38624 8.93251C2.25 9.1999 2.25 9.54993 2.25 10.25C2.25 10.9501 2.25 11.3001 2.38624 11.5675C2.50608 11.8027 2.69731 11.9939 2.93251 12.1138C3.1999 12.25 3.54993 12.25 4.25 12.25H19.75C20.4501 12.25 20.8001 12.25 21.0675 12.1138C21.3027 11.9939 21.4939 11.8027 21.6138 11.5675C21.75 11.3001 21.75 10.9501 21.75 10.25C21.75 9.54993 21.75 9.1999 21.6138 8.93251C21.4939 8.69731 21.3027 8.50608 21.0675 8.38624C20.8001 8.25 20.4501 8.25 19.75 8.25H16.7499V7.31066L16.969 7.09156C17.209 7.19347 17.4731 7.25 17.75 7.25C18.8546 7.25 19.75 6.35457 19.75 5.25C19.75 4.14543 18.8546 3.25 17.75 3.25C16.6454 3.25 15.75 4.14543 15.75 5.25C15.75 5.52686 15.8065 5.79088 15.9084 6.03086L15.4696 6.46967C15.3289 6.61032 15.2499 6.80109 15.2499 7V8.25H12.7499V6.622C13.6238 6.31315 14.25 5.4797 14.25 4.5C14.25 3.25736 13.2426 2.25 12 2.25ZM12 21.7499C7.29117 21.7499 3.58516 18.0848 3.29055 13.75H20.7095C20.4148 18.0848 16.7089 21.7499 12 21.7499ZM9.75 17.75C9.75 16.5074 10.7574 15.5 12 15.5C13.2426 15.5 14.25 16.5074 14.25 17.75C14.25 18.9926 13.2426 20 12 20C10.7574 20 9.75 18.9926 9.75 17.75Z" fill="#292556"/>
</svg>
