<svg width="24" height="24" viewBox="0 0 24 24" fill="none" xmlns="http://www.w3.org/2000/svg">
<path fill-rule="evenodd" clip-rule="evenodd" d="M4.25 5.25H19.75C20.215 5.25 20.4475 5.25 20.6382 5.30111C21.1559 5.43981 21.5602 5.84413 21.6989 6.36177C21.75 6.55252 21.75 6.78501 21.75 7.25C21.75 7.71499 21.75 7.94748 21.6989 8.13823C21.5602 8.65587 21.1559 9.06019 20.6382 9.19889C20.4475 9.25 20.215 9.25 19.75 9.25H4.25C3.78501 9.25 3.55252 9.25 3.36177 9.19889C2.84413 9.06019 2.43981 8.65587 2.30111 8.13823C2.25 7.94748 2.25 7.71499 2.25 7.25C2.25 6.78501 2.25 6.55252 2.30111 6.36177C2.43981 5.84413 2.84413 5.43981 3.36177 5.30111C3.55252 5.25 3.78501 5.25 4.25 5.25ZM12 18.7499C7.29117 18.7499 3.58516 15.0848 3.29055 10.75H20.7095C20.4148 15.0848 16.7089 18.7499 12 18.7499ZM9.75 14.75C9.75 13.5074 10.7574 12.5 12 12.5C13.2426 12.5 14.25 13.5074 14.25 14.75C14.25 15.9926 13.2426 17 12 17C10.7574 17 9.75 15.9926 9.75 14.75Z" fill="#292556"/>
</svg>
