<svg width="24" height="24" viewBox="0 0 24 24" fill="none" xmlns="http://www.w3.org/2000/svg">
<path d="M12.74 9.50263C12.7384 9.52803 12.7368 9.54938 12.7354 9.56642V10.1115C13.2855 9.51847 14.0273 9.00398 15.0163 8.66725C16.3934 8.19833 18.2041 8.08896 20.5804 8.52355C21.3278 8.66024 21.7794 9.44216 21.523 10.1581C20.7119 12.4236 19.7103 13.93 18.6128 14.8825C17.5038 15.845 16.3344 16.2088 15.2685 16.2466C14.262 16.2824 13.375 16.0274 12.7354 15.7627V20C12.7354 20.4142 12.3996 20.75 11.9854 20.75C11.5712 20.75 11.2354 20.4142 11.2354 20V10.7745C10.5981 11.035 9.7226 11.2818 8.7311 11.2466C7.66517 11.2088 6.49583 10.845 5.38687 9.88254C4.28935 8.92998 3.28772 7.42364 2.47658 5.15811C2.22024 4.44216 2.67179 3.66024 3.41922 3.52355C5.79551 3.08896 7.60625 3.19833 8.98337 3.66725C10.3751 4.14114 11.2775 4.96708 11.8447 5.86855C12.4033 6.75639 12.6209 7.69045 12.7029 8.38542C12.7442 8.73567 12.752 9.03362 12.7493 9.2471C12.748 9.35409 12.7439 9.44058 12.74 9.50263Z" fill="#292556"/>
</svg>
