<svg width="24" height="24" viewBox="0 0 24 24" fill="none" xmlns="http://www.w3.org/2000/svg">
<path fill-rule="evenodd" clip-rule="evenodd" d="M9.4181 13.5264C9.43414 13.5067 9.45133 13.4876 9.46967 13.4693L16.4697 6.4693C16.7626 6.17641 17.2374 6.17641 17.5303 6.4693C17.8232 6.7622 17.8232 7.23707 17.5303 7.52996L10.5303 14.53C10.5158 14.5445 10.5009 14.5582 10.4856 14.5713C11.2701 18.3023 11.673 20.1773 12.3347 20.7689C13.2973 21.6295 14.7289 21.7045 15.7761 20.9493C16.5079 20.4216 17.1125 18.5468 18.3218 14.7973L19.7019 10.5179C20.8429 6.97972 21.4135 5.21063 20.7224 4.12126C20.5061 3.78036 20.2175 3.49126 19.8769 3.27448C18.7886 2.58174 17.0187 3.14955 13.4787 4.28516L9.24705 5.6427L9.24704 5.6427C5.42996 6.86723 3.52142 7.4795 2.99062 8.23447C2.26567 9.26557 2.33451 10.6575 3.15765 11.6121C3.74891 12.2977 5.64605 12.7158 9.4181 13.5264Z" fill="#292556"/>
</svg>
