<svg width="24" height="24" viewBox="0 0 24 24" fill="none" xmlns="http://www.w3.org/2000/svg">
<path d="M2.25 19.25C2.25 18.2835 3.0335 17.5 4 17.5H20C20.9665 17.5 21.75 18.2835 21.75 19.25V19.25C21.75 20.2165 20.9665 21 20 21H4C3.0335 21 2.25 20.2165 2.25 19.25V19.25Z" fill="#292556"/>
<path fill-rule="evenodd" clip-rule="evenodd" d="M3.25 15.1V14.4773C3.25 10.3521 6.11953 6.8954 9.97629 5.98459C9.83134 5.6872 9.75 5.3531 9.75 5C9.75 3.75736 10.7574 2.75 12 2.75C13.2426 2.75 14.25 3.75736 14.25 5C14.25 5.3531 14.1687 5.6872 14.0237 5.98459C17.8805 6.8954 20.75 10.3521 20.75 14.4773V15.1C20.75 15.475 20.75 15.6625 20.6545 15.7939C20.6237 15.8363 20.5863 15.8737 20.5439 15.9045C20.4125 16 20.225 16 19.85 16H4.15C3.77503 16 3.58754 16 3.45611 15.9045C3.41366 15.8737 3.37633 15.8363 3.34549 15.7939C3.25 15.6625 3.25 15.475 3.25 15.1ZM9.88911 10.3328C10.2433 10.118 10.3563 9.65675 10.1415 9.30258C9.92665 8.94842 9.46541 8.83544 9.11125 9.05024C7.56377 9.98879 6.40975 11.5133 5.95814 13.3189C5.85763 13.7207 6.10191 14.128 6.50374 14.2285C6.90558 14.329 7.31281 14.0847 7.41331 13.6829C7.76695 12.2689 8.67229 11.0708 9.88911 10.3328Z" fill="#292556"/>
</svg>
