<svg width="24" height="24" viewBox="0 0 24 24" fill="none" xmlns="http://www.w3.org/2000/svg">
<path fill-rule="evenodd" clip-rule="evenodd" d="M13.2 21.75H10.8C7.23775 21.75 5.45663 21.75 4.20802 20.8428C3.80477 20.5499 3.45015 20.1952 3.15717 19.792C2.25 18.5434 2.25 16.7622 2.25 13.2V10.8C2.25 7.23775 2.25 5.45663 3.15717 4.20802C3.45015 3.80477 3.80477 3.45015 4.20802 3.15717C5.45663 2.25 7.23775 2.25 10.8 2.25H13.2C16.7622 2.25 18.5434 2.25 19.792 3.15717C20.1952 3.45015 20.5499 3.80477 20.8428 4.20802C21.75 5.45663 21.75 7.23775 21.75 10.8V13.2C21.75 16.7622 21.75 18.5434 20.8428 19.792C20.5499 20.1952 20.1952 20.5499 19.792 20.8428C18.5434 21.75 16.7622 21.75 13.2 21.75ZM18.5115 10.439C18.436 10.8314 18.0238 11.1259 17.1994 11.7147L13.6731 14.2335C13.1243 14.6255 12.85 14.8215 12.6233 14.7621C12.5524 14.7435 12.4864 14.7096 12.43 14.6626C12.25 14.5127 12.25 14.1755 12.25 13.5011V12.268C9.44682 12.4711 7.25066 14.381 7.25 17.25V17.3551C7.25 18.077 6.47191 18.3646 6.14057 17.7232C5.64665 16.7671 5.24997 15.7027 5.25 14.75C5.25012 10.7875 8.35723 8.48431 12.25 8.25V6.99887C12.25 6.32449 12.25 5.9873 12.43 5.83737C12.4864 5.79045 12.5524 5.75649 12.6233 5.73791C12.85 5.67855 13.1243 5.87453 13.6731 6.26651L17.1994 8.78528C18.0238 9.37414 18.436 9.66857 18.5115 10.061C18.5355 10.1859 18.5355 10.3141 18.5115 10.439Z" fill="#292556"/>
</svg>
