<svg width="24" height="24" viewBox="0 0 24 24" fill="none" xmlns="http://www.w3.org/2000/svg">
<path d="M14.2873 6.53418C14.3611 7.05152 14.5405 7.53483 14.8029 7.96159L10.4187 10.353C10.2212 9.88369 9.9419 9.45729 9.59863 9.09165L14.2873 6.53418Z" fill="#292556"/>
<path d="M9.59863 14.9083L14.2873 17.4658C14.3611 16.9485 14.5405 16.4652 14.8029 16.0384L10.4187 13.647C10.2212 14.1163 9.9419 14.5427 9.59863 14.9083Z" fill="#292556"/>
<path d="M2.25 12C2.25 9.65279 4.15279 7.75 6.5 7.75V7.75C8.84721 7.75 10.75 9.65279 10.75 12V12C10.75 14.3472 8.84721 16.25 6.5 16.25V16.25C4.15279 16.25 2.25 14.3472 2.25 12V12Z" fill="#292556"/>
<path d="M14.25 6C14.25 3.92893 15.9289 2.25 18 2.25V2.25C20.0711 2.25 21.75 3.92893 21.75 6V6C21.75 8.07107 20.0711 9.75 18 9.75V9.75C15.9289 9.75 14.25 8.07107 14.25 6V6Z" fill="#292556"/>
<path d="M14.25 18C14.25 15.9289 15.9289 14.25 18 14.25V14.25C20.0711 14.25 21.75 15.9289 21.75 18V18C21.75 20.0711 20.0711 21.75 18 21.75V21.75C15.9289 21.75 14.25 20.0711 14.25 18V18Z" fill="#292556"/>
</svg>
