<svg width="24" height="24" viewBox="0 0 24 24" fill="none" xmlns="http://www.w3.org/2000/svg">
<path fill-rule="evenodd" clip-rule="evenodd" d="M21.2291 11.3821C20.0178 17.1392 16.8388 22.2513 12.0001 22.2513C7.16142 22.2513 3.98243 17.1392 2.77111 11.3821C2.46693 9.93639 2.31484 9.21353 2.5889 8.29907C2.66705 8.0383 2.82545 7.67958 2.96552 7.44615C3.45671 6.62756 4.22733 6.17419 5.76858 5.26745L8.57738 3.61498C10.0569 2.74454 10.7967 2.30932 11.602 2.22334C11.8667 2.19509 12.1336 2.19509 12.3982 2.22334C13.2036 2.30932 13.9433 2.74454 15.4229 3.61498L18.2317 5.26745C19.7729 6.17419 20.5435 6.62756 21.0347 7.44615C21.1748 7.67958 21.3332 8.0383 21.4113 8.29907C21.6854 9.21353 21.5333 9.93639 21.2291 11.3821ZM12 7.24976C10.5119 7.24976 9.30556 8.4561 9.30556 9.9442V10.0227C8.61865 10.3538 8.09347 10.9596 7.86841 11.7015C7.74917 12.0946 7.74951 12.5504 7.74995 13.1398L7.75 13.2498L7.74995 13.3597C7.74951 13.9491 7.74917 14.4049 7.86841 14.798C8.13503 15.6769 8.82281 16.3647 9.70172 16.6313C10.0948 16.7506 10.5506 16.7502 11.1401 16.7498L11.25 16.7498H12.75L12.8599 16.7498C13.4494 16.7502 13.9052 16.7506 14.2983 16.6313C15.1772 16.3647 15.865 15.6769 16.1316 14.798C16.2508 14.4049 16.2505 13.9491 16.2501 13.3597L16.25 13.2498L16.2501 13.1398C16.2505 12.5504 16.2508 12.0946 16.1316 11.7015C15.9065 10.9596 15.3814 10.3538 14.6944 10.0227V9.9442C14.6944 8.4561 13.4881 7.24976 12 7.24976ZM11.1401 9.7497C11.0292 9.74962 10.9231 9.74954 10.8212 9.75026C10.9139 9.18282 11.4064 8.74976 12 8.74976C12.5936 8.74976 13.0861 9.18282 13.1788 9.75026C13.0769 9.74954 12.9708 9.74962 12.8599 9.7497L12.75 9.74976H11.25L11.1401 9.7497ZM10.1371 11.3036C10.2877 11.2579 10.4977 11.2498 11.25 11.2498H12.75C13.5023 11.2498 13.7123 11.2579 13.8629 11.3036C14.2624 11.4248 14.575 11.7374 14.6962 12.1369C14.7419 12.2875 14.75 12.4974 14.75 13.2498C14.75 14.0021 14.7419 14.212 14.6962 14.3626C14.575 14.7621 14.2624 15.0747 13.8629 15.1959C13.7123 15.2416 13.5023 15.2498 12.75 15.2498H11.25C10.4977 15.2498 10.2877 15.2416 10.1371 15.1959C9.73764 15.0747 9.42501 14.7621 9.30382 14.3626C9.25814 14.212 9.25 14.0021 9.25 13.2498C9.25 12.4974 9.25814 12.2875 9.30382 12.1369C9.42501 11.7374 9.73764 11.4248 10.1371 11.3036Z" fill="#292556"/>
</svg>
