<svg width="24" height="24" viewBox="0 0 24 24" fill="none" xmlns="http://www.w3.org/2000/svg">
<path fill-rule="evenodd" clip-rule="evenodd" d="M21.2291 11.3821C20.0178 17.1392 16.8388 22.2513 12.0001 22.2513C7.16142 22.2513 3.98243 17.1392 2.77111 11.3821C2.46693 9.93639 2.31484 9.21353 2.5889 8.29907C2.66705 8.0383 2.82545 7.67958 2.96552 7.44615C3.45671 6.62756 4.22733 6.17419 5.76858 5.26745L8.57738 3.61498C10.0569 2.74454 10.7967 2.30932 11.602 2.22334C11.8667 2.19509 12.1336 2.19509 12.3982 2.22334C13.2036 2.30932 13.9433 2.74454 15.4229 3.61498L18.2317 5.26745C19.7729 6.17419 20.5435 6.62756 21.0347 7.44615C21.1748 7.67958 21.3332 8.0383 21.4113 8.29907C21.6854 9.21353 21.5333 9.93639 21.2291 11.3821ZM15.0646 10.9936C15.3373 10.6819 15.3057 10.2081 14.994 9.93531C14.6823 9.66255 14.2085 9.69414 13.9357 10.0059L11.1668 13.1703C11.1208 13.2229 11.0809 13.2685 11.045 13.3089C11.0123 13.2659 10.9759 13.2174 10.9339 13.1615L10.1001 12.0497C9.8516 11.7184 9.3815 11.6512 9.05013 11.8997C8.71875 12.1483 8.6516 12.6184 8.90013 12.9497L9.73395 14.0615L9.75274 14.0866C9.87198 14.2457 9.99698 14.4124 10.1182 14.5402C10.2538 14.6832 10.4598 14.861 10.7626 14.9273C10.9078 14.9591 11.0576 14.9648 11.2048 14.944C11.5117 14.9007 11.7306 14.7388 11.8765 14.6064C12.007 14.4882 12.1442 14.3313 12.2751 14.1816L12.2957 14.158L15.0646 10.9936Z" fill="#292556"/>
</svg>
