<svg width="24" height="24" viewBox="0 0 24 24" fill="none" xmlns="http://www.w3.org/2000/svg">
<path d="M7.34516 3.75C6.83781 3.75 6.58413 3.75 6.34283 3.79337C5.95319 3.8634 5.58327 4.01673 5.25834 4.24288C5.05712 4.38293 4.87782 4.56239 4.51923 4.92132L3.01945 6.42251C2.51481 6.92762 2.26249 7.18018 2.13273 7.4553C1.90964 7.92828 1.90977 8.47625 2.13308 8.94912C2.26297 9.22418 2.51541 9.47662 3.02029 9.9815L3.35078 10.312C3.54784 10.5091 3.64637 10.6076 3.74025 10.6791C4.36673 11.1561 5.23465 11.1559 5.86097 10.6787C5.95483 10.6072 6.05332 10.5086 6.25032 10.3115V10.3115V15.3C6.25032 17.3624 6.25032 18.3935 6.77552 19.1164C6.94514 19.3499 7.15045 19.5552 7.38391 19.7248C8.10679 20.25 9.13796 20.25 11.2003 20.25H12.8003C14.8627 20.25 15.8938 20.25 16.6167 19.7248C16.8502 19.5552 17.0555 19.3499 17.2251 19.1164C17.7503 18.3935 17.7503 17.3624 17.7503 15.3V10.3115V10.3115C17.9473 10.5086 18.0458 10.6072 18.1397 10.6787C18.766 11.1559 19.6339 11.1561 20.2604 10.6791C20.3543 10.6076 20.4528 10.5091 20.6498 10.312L20.9803 9.9815C21.4852 9.47662 21.7377 9.22418 21.8676 8.94912C22.0909 8.47625 22.091 7.92828 21.8679 7.4553C21.7381 7.18018 21.4858 6.92762 20.9812 6.42251L19.4814 4.92132C19.1228 4.56239 18.9435 4.38293 18.7423 4.24288C18.4174 4.01673 18.0474 3.8634 17.6578 3.79337C17.4165 3.75 17.1628 3.75 16.6555 3.75H14.5003C14.0861 3.75 13.7503 4.08579 13.7503 4.5V4.5C13.7503 5.4665 12.9668 6.25 12.0003 6.25C11.0338 6.25 10.2503 5.4665 10.2503 4.5V4.5C10.2503 4.08579 9.91453 3.75 9.50032 3.75H7.34516Z" fill="#292556"/>
</svg>
