<svg width="24" height="24" viewBox="0 0 24 24" fill="none" xmlns="http://www.w3.org/2000/svg">
<path d="M2.25 6.84431C2.25 8.86329 3.88671 10.5 5.90569 10.5C7.17476 10.5 8.32899 9.84506 8.98918 8.80849C9.61887 9.84293 10.7518 10.5 12 10.5C13.2482 10.5 14.3811 9.84293 15.0108 8.80849C15.671 9.84506 16.8252 10.5 18.0943 10.5C20.1133 10.5 21.75 8.86329 21.75 6.84431V6.83418C21.75 6.46524 21.75 6.28077 21.7169 6.10113C21.7059 6.0414 21.6922 5.98221 21.6758 5.92373C21.6265 5.74785 21.5454 5.58218 21.3831 5.25083L20.9011 4.26666C20.4755 3.39748 20.2626 2.96289 19.9068 2.68141C19.79 2.58905 19.6633 2.51002 19.529 2.44578C19.1197 2.25 18.6358 2.25 17.668 2.25H6.33198C5.36417 2.25 4.88027 2.25 4.47097 2.44578C4.33667 2.51002 4.20996 2.58905 4.0932 2.68141C3.73735 2.96289 3.52452 3.39748 3.09886 4.26666L2.61689 5.25084C2.45462 5.58218 2.37349 5.74785 2.3242 5.92373C2.30781 5.98221 2.29409 6.0414 2.28309 6.10113C2.25 6.28077 2.25 6.46524 2.25 6.83418V6.84431Z" fill="#292556"/>
<path d="M3.25 11.15V18.6242C3.25 20.3498 4.64863 21.7488 6.37421 21.7492L6.85796 21.7493C8.31701 21.7497 9.5 20.567 9.5 19.108V18.9666C9.5 17.5859 10.6193 16.4666 12 16.4666V16.4666C13.3807 16.4666 14.5 17.5859 14.5 18.9666V19.1075C14.5 20.566 15.6824 21.7484 17.1409 21.7484H17.625C19.3509 21.7484 20.75 20.3493 20.75 18.6234V11.15C20.0837 11.8586 19.1403 12.2023 18.0943 12.2023C16.8252 12.2023 15.671 11.7932 15.0108 10.75C14.3811 11.791 13.2482 12.2023 12 12.2023C10.7518 12.2023 9.61887 11.791 8.98918 10.75C8.32899 11.7932 7.17476 12.2023 5.90569 12.2023C4.85972 12.2023 3.91635 11.8586 3.25 11.15Z" fill="#292556"/>
</svg>
