<svg width="24" height="24" viewBox="0 0 24 24" fill="none" xmlns="http://www.w3.org/2000/svg">
<path d="M7.75 18C7.75 17.5858 7.41421 17.25 7 17.25C6.58579 17.25 6.25 17.5858 6.25 18H7.75ZM6.25 20C6.25 20.4142 6.58579 20.75 7 20.75C7.41421 20.75 7.75 20.4142 7.75 20H6.25ZM11.25 16C11.25 15.5858 10.9142 15.25 10.5 15.25C10.0858 15.25 9.75 15.5858 9.75 16H11.25ZM9.75 17C9.75 17.4142 10.0858 17.75 10.5 17.75C10.9142 17.75 11.25 17.4142 11.25 17H9.75ZM13.7505 19.5C13.7505 19.0858 13.4147 18.75 13.0005 18.75C12.5862 18.75 12.2505 19.0858 12.2505 19.5H13.7505ZM12.2505 21C12.2505 21.4142 12.5862 21.75 13.0005 21.75C13.4147 21.75 13.7505 21.4142 13.7505 21H12.2505ZM17.25 17C17.25 16.5858 16.9142 16.25 16.5 16.25C16.0858 16.25 15.75 16.5858 15.75 17H17.25ZM15.75 18C15.75 18.4142 16.0858 18.75 16.5 18.75C16.9142 18.75 17.25 18.4142 17.25 18H15.75ZM12.7505 3.00027C12.7506 2.58606 12.4149 2.25015 12.0007 2.25C11.5865 2.24985 11.2506 2.58551 11.2505 2.99973L12.7505 3.00027ZM6.25 18V20H7.75V18H6.25ZM9.75 16V17H11.25V16H9.75ZM12.2505 19.5V21H13.7505V19.5H12.2505ZM15.75 17V18H17.25V17H15.75ZM12.75 4.25027L12.7505 3.00027L11.2505 2.99973L11.25 4.24973L12.75 4.25027Z" fill="#292556"/>
<path d="M6.86146 6.4188C7.35253 5.48256 7.59806 5.01445 7.9932 4.71241C8.12296 4.61323 8.26312 4.52847 8.41123 4.45963C8.86224 4.25 9.39084 4.25 10.448 4.25H11.999H13.5511C14.6078 4.25 15.1362 4.25 15.5871 4.45949C15.7352 4.52828 15.8753 4.61298 16.005 4.7121C16.4001 5.01393 16.6457 5.48176 17.1369 6.41742L18.1344 8.31742C19.361 10.6538 19.9743 11.822 19.6491 12.7466C19.5464 13.0383 19.3848 13.3058 19.1742 13.5322C18.5067 14.25 17.1873 14.25 14.5486 14.25H9.45147C6.81369 14.25 5.49479 14.25 4.82733 13.5325C4.61676 13.3061 4.4551 13.0387 4.35244 12.7471C4.02703 11.8227 4.63965 10.6548 5.86489 8.3188L6.86146 6.4188Z" fill="#292556"/>
</svg>
