<svg width="24" height="24" viewBox="0 0 24 24" fill="none" xmlns="http://www.w3.org/2000/svg">
<path d="M12.75 3C12.75 2.58579 12.4142 2.25 12 2.25C11.5858 2.25 11.25 2.58579 11.25 3H12.75ZM8 20.25C7.58579 20.25 7.25 20.5858 7.25 21C7.25 21.4142 7.58579 21.75 8 21.75V20.25ZM16 21.75C16.4142 21.75 16.75 21.4142 16.75 21C16.75 20.5858 16.4142 20.25 16 20.25V21.75ZM12 20.25H8V21.75H12V20.25ZM12 21.75H16V20.25H12V21.75ZM12.75 4.25V3H11.25V4.25H12.75ZM12.75 11.25V9.75H11.25V11.25H12.75ZM12.75 21V16.75H11.25V21H12.75Z" fill="#292556"/>
<path d="M11.0004 4.25C10.0674 4.25 9.60096 4.25 9.24109 4.4233C8.88391 4.59532 8.59571 4.88351 8.4237 5.2407C8.25039 5.60057 8.25039 6.06705 8.25039 7V7C8.25039 7.93295 8.25039 8.39943 8.4237 8.7593C8.59571 9.11649 8.88391 9.40468 9.24109 9.5767C9.60096 9.75 10.0674 9.75 11.0004 9.75H18.2899C18.4981 9.75 18.6022 9.75 18.7004 9.72285C18.7329 9.71385 18.7648 9.70267 18.7958 9.68937C18.8894 9.64926 18.9707 9.58423 19.1333 9.45417L20.8833 8.05417C21.42 7.62482 21.6883 7.41014 21.7384 7.13369C21.7544 7.04528 21.7544 6.95472 21.7384 6.86631C21.6883 6.58986 21.42 6.37518 20.8833 5.94583L19.1333 4.54583C18.9707 4.41577 18.8894 4.35074 18.7958 4.31063C18.7648 4.29733 18.7329 4.28615 18.7004 4.27715C18.6022 4.25 18.4981 4.25 18.2899 4.25H11.0004Z" fill="#292556"/>
<path d="M5.55301 11.25C5.41421 11.25 5.34481 11.25 5.27938 11.2681C5.25769 11.2741 5.23644 11.2816 5.21576 11.2904C5.15336 11.3172 5.09917 11.3605 4.99078 11.4472L3.11752 12.9458C2.58083 13.3752 2.31248 13.5899 2.2624 13.8663C2.24639 13.9547 2.24639 14.0453 2.2624 14.1337C2.31248 14.4101 2.58083 14.6248 3.11752 15.0542L4.99078 16.5528C5.09917 16.6395 5.15336 16.6828 5.21576 16.7096C5.23644 16.7184 5.25769 16.7259 5.27938 16.7319C5.34481 16.75 5.41421 16.75 5.55301 16.75H13.0004C13.9333 16.75 14.3998 16.75 14.7597 16.5767C15.1169 16.4047 15.4051 16.1165 15.5771 15.7593C15.7504 15.3994 15.7504 14.933 15.7504 14V14C15.7504 13.067 15.7504 12.6006 15.5771 12.2407C15.4051 11.8835 15.1169 11.5953 14.7597 11.4233C14.3998 11.25 13.9333 11.25 13.0004 11.25H5.55301Z" fill="#292556"/>
</svg>
