<svg width="24" height="24" viewBox="0 0 24 24" fill="none" xmlns="http://www.w3.org/2000/svg">
<path fill-rule="evenodd" clip-rule="evenodd" d="M13 21.75H11C8.1877 21.75 6.78155 21.75 5.79581 21.0338C5.47745 20.8025 5.19748 20.5226 4.96619 20.2042C4.25 19.2184 4.25 17.8123 4.25 15V9C4.25 6.1877 4.25 4.78155 4.96619 3.79581C5.19748 3.47745 5.47745 3.19748 5.79581 2.96619C6.78155 2.25 8.20976 2.25 11.0662 2.25C12.4473 2.25 13.1379 2.25 13.7546 2.47241C13.9582 2.54585 14.1551 2.63679 14.343 2.7442C14.9122 3.06949 15.3533 3.58748 16.2356 4.62345L16.2356 4.62346L18.1389 6.85827C18.8465 7.68911 19.2003 8.10454 19.4191 8.59016C19.4915 8.75102 19.5526 8.9168 19.6017 9.08626C19.75 9.59782 19.75 10.1435 19.75 11.2348V15C19.75 17.8123 19.75 19.2184 19.0338 20.2042C18.8025 20.5226 18.5225 20.8025 18.2042 21.0338C17.2184 21.75 15.8123 21.75 13 21.75ZM9.75 7C9.75 6.58579 9.41421 6.25 9 6.25C8.58579 6.25 8.25 6.58579 8.25 7V10C8.25 10.4142 8.58579 10.75 9 10.75C9.41421 10.75 9.75 10.4142 9.75 10V7ZM13.75 7C13.75 6.58579 13.4142 6.25 13 6.25C12.5858 6.25 12.25 6.58579 12.25 7V10C12.25 10.4142 12.5858 10.75 13 10.75C13.4142 10.75 13.75 10.4142 13.75 10V7Z" fill="#292556"/>
</svg>
