<svg width="24" height="24" viewBox="0 0 24 24" fill="none" xmlns="http://www.w3.org/2000/svg">
<path fill-rule="evenodd" clip-rule="evenodd" d="M2.25 7.66667C2.25 4.67512 4.67512 2.25 7.66667 2.25C8.85439 2.25 9.95283 2.63227 10.8457 3.2805C10.914 3.33013 10.9482 3.35495 10.9825 3.36705C10.9947 3.37136 11.0046 3.37406 11.0173 3.37656C11.053 3.3836 11.094 3.37973 11.1761 3.37199C11.4473 3.34641 11.7221 3.33333 12 3.33333C16.7865 3.33333 20.6667 7.21353 20.6667 12C20.6667 12.2779 20.6536 12.5527 20.628 12.8239C20.6203 12.906 20.6164 12.947 20.6234 12.9827C20.6259 12.9954 20.6286 13.0053 20.633 13.0175C20.6451 13.0518 20.6699 13.086 20.7195 13.1543C21.3677 14.0472 21.75 15.1456 21.75 16.3333C21.75 19.3249 19.3249 21.75 16.3333 21.75C15.1456 21.75 14.0472 21.3677 13.1543 20.7195C13.086 20.6699 13.0518 20.6451 13.0175 20.633C13.0053 20.6286 12.9954 20.6259 12.9827 20.6234C12.947 20.6164 12.906 20.6203 12.8239 20.628C12.5527 20.6536 12.2779 20.6667 12 20.6667C7.21353 20.6667 3.33333 16.7865 3.33333 12C3.33333 11.7221 3.34641 11.4473 3.37199 11.1761C3.37973 11.094 3.3836 11.053 3.37656 11.0173C3.37406 11.0046 3.37136 10.9947 3.36705 10.9825C3.35495 10.9482 3.33013 10.914 3.2805 10.8457C2.63227 9.95283 2.25 8.85439 2.25 7.66667ZM9.75 9.5C9.75 8.65573 10.6235 7.75 12 7.75C13.3765 7.75 14.25 8.65573 14.25 9.5C14.25 9.91421 14.5858 10.25 15 10.25C15.4142 10.25 15.75 9.91421 15.75 9.5C15.75 7.58285 13.9372 6.25 12 6.25C10.0628 6.25 8.25 7.58285 8.25 9.5C8.25 11.4172 10.0628 12.75 12 12.75C13.3765 12.75 14.25 13.6557 14.25 14.5C14.25 15.3443 13.3765 16.25 12 16.25C10.6235 16.25 9.75 15.3443 9.75 14.5C9.75 14.0858 9.41421 13.75 9 13.75C8.58579 13.75 8.25 14.0858 8.25 14.5C8.25 16.4172 10.0628 17.75 12 17.75C13.9372 17.75 15.75 16.4172 15.75 14.5C15.75 12.5828 13.9372 11.25 12 11.25C10.6235 11.25 9.75 10.3443 9.75 9.5Z" fill="#292556"/>
</svg>
