<svg width="24" height="24" viewBox="0 0 24 24" fill="none" xmlns="http://www.w3.org/2000/svg">
<path fill-rule="evenodd" clip-rule="evenodd" d="M3.01393 3.89886C2.25 4.95032 2.25 6.45021 2.25 9.45V14.55C2.25 17.5498 2.25 19.0497 3.01393 20.1011C3.26065 20.4407 3.55928 20.7393 3.89886 20.9861C4.95032 21.75 6.45021 21.75 9.45 21.75H14.55C17.5498 21.75 19.0497 21.75 20.1011 20.9861C20.4407 20.7393 20.7393 20.4407 20.9861 20.1011C21.75 19.0497 21.75 17.5498 21.75 14.55V9.45C21.75 6.45021 21.75 4.95032 20.9861 3.89886C20.7393 3.55928 20.4407 3.26065 20.1011 3.01393C19.0497 2.25 17.5498 2.25 14.55 2.25H9.45C6.45021 2.25 4.95032 2.25 3.89886 3.01393C3.55928 3.26065 3.26065 3.55928 3.01393 3.89886ZM14.6708 8.33541C14.8561 7.96493 14.7059 7.51442 14.3354 7.32918C13.9649 7.14394 13.5144 7.29411 13.3292 7.66459L9.32918 15.6646C9.14394 16.0351 9.29411 16.4856 9.66459 16.6708C10.0351 16.8561 10.4856 16.7059 10.6708 16.3354L14.6708 8.33541Z" fill="#292556"/>
</svg>
