<svg width="24" height="24" viewBox="0 0 24 24" fill="none" xmlns="http://www.w3.org/2000/svg">
<path d="M18.25 3V5M18.25 10.5V21M5.75 3L5.75 5M5.75 10.5L5.75 21M12 21V19M12 13.5L12 3" stroke="#292556" stroke-width="1.5" stroke-linecap="round" stroke-linejoin="round"/>
<path d="M18.25 4.25C20.183 4.25 21.75 5.817 21.75 7.75V7.75C21.75 9.683 20.183 11.25 18.25 11.25V11.25C16.317 11.25 14.75 9.683 14.75 7.75V7.75C14.75 5.817 16.317 4.25 18.25 4.25V4.25Z" fill="#292556"/>
<path d="M5.75 4.25C7.683 4.25 9.25 5.817 9.25 7.75V7.75C9.25 9.683 7.683 11.25 5.75 11.25V11.25C3.817 11.25 2.25 9.683 2.25 7.75V7.75C2.25 5.817 3.817 4.25 5.75 4.25V4.25Z" fill="#292556"/>
<path d="M12 12.75C13.933 12.75 15.5 14.317 15.5 16.25V16.25C15.5 18.183 13.933 19.75 12 19.75V19.75C10.067 19.75 8.5 18.183 8.5 16.25V16.25C8.5 14.317 10.067 12.75 12 12.75V12.75Z" fill="#292556"/>
</svg>
