<svg width="24" height="24" viewBox="0 0 24 24" fill="none" xmlns="http://www.w3.org/2000/svg">
<path fill-rule="evenodd" clip-rule="evenodd" d="M3.15717 4.20802C2.25 5.45663 2.25 7.23775 2.25 10.8V13.2C2.25 16.7622 2.25 18.5434 3.15717 19.792C3.45015 20.1952 3.80477 20.5499 4.20802 20.8428C5.45663 21.75 7.23775 21.75 10.8 21.75H13.2C16.7622 21.75 18.5434 21.75 19.792 20.8428C20.1952 20.5499 20.5499 20.1952 20.8428 19.792C21.75 18.5434 21.75 16.7622 21.75 13.2V10.8C21.75 7.23775 21.75 5.45663 20.8428 4.20802C20.5499 3.80477 20.1952 3.45015 19.792 3.15717C18.5434 2.25 16.7622 2.25 13.2 2.25H10.8C7.23775 2.25 5.45663 2.25 4.20802 3.15717C3.80477 3.45015 3.45015 3.80477 3.15717 4.20802ZM8.61539 10.4557L7.40409 10.2627C6.89134 10.181 6.40042 10.5022 6.26995 11.0047C6.12373 11.568 6.48349 12.1377 7.05489 12.2477L8.5 12.526C8.52797 14.9639 7.03631 15.5 5.5 15.5C6.48932 17.4176 8.34864 17.5712 9.5 17.5C11 18.8392 13 18.8384 14.5 17.5C15.6403 17.5688 17.4782 17.4105 18.5 15.5C16.9637 15.5 15.472 14.9639 15.5 12.526L16.9451 12.2477C17.5165 12.1377 17.8763 11.568 17.73 11.0047C17.5996 10.5022 17.1087 10.181 16.5959 10.2627L15.3846 10.4557L15.3845 8.67292C15.3845 6.92057 13.8691 5.5 11.9998 5.5C10.1306 5.5 8.61523 6.92057 8.61523 8.67292L8.61539 10.4557Z" fill="#292556"/>
</svg>
