<svg width="24" height="24" viewBox="0 0 24 24" fill="none" xmlns="http://www.w3.org/2000/svg">
<path fill-rule="evenodd" clip-rule="evenodd" d="M12.7507 3C12.7507 2.58579 12.4149 2.25 12.0007 2.25C11.5865 2.25 11.2507 2.58579 11.2507 3L11.2507 4.18935L10.531 3.46967C10.2381 3.17678 9.76324 3.17678 9.47035 3.46967C9.17745 3.76256 9.17745 4.23744 9.47035 4.53033L11.2507 6.31066L11.2507 7.56699L8.53658 9.13397L7.44854 8.5058L6.79691 6.07379C6.68971 5.67369 6.27846 5.43625 5.87836 5.54345C5.47826 5.65066 5.24082 6.06191 5.34802 6.46201L5.61144 7.44515L4.58145 6.85048C4.22273 6.64337 3.76404 6.76628 3.55693 7.125C3.34983 7.48372 3.47273 7.94241 3.83145 8.14952L4.8614 8.74416L3.87836 9.00756C3.47826 9.11476 3.24082 9.52601 3.34802 9.92611C3.45522 10.3262 3.86647 10.5637 4.26658 10.4564L6.69854 9.80483L7.78658 10.433V13.567L6.69856 14.1952L4.26655 13.5435C3.86645 13.4363 3.4552 13.6738 3.348 14.0739C3.2408 14.474 3.47825 14.8852 3.87835 14.9924L4.86142 15.2558L3.83145 15.8505C3.47273 16.0576 3.34983 16.5163 3.55693 16.875C3.76404 17.2337 4.22273 17.3566 4.58145 17.1495L5.61142 16.5549L5.34798 17.538C5.24077 17.9381 5.4782 18.3493 5.8783 18.4565C6.2784 18.5638 6.68965 18.3263 6.79686 17.9262L7.44856 15.4942L8.53658 14.866L11.2507 16.433V17.6893L9.47035 19.4697C9.17745 19.7626 9.17745 20.2374 9.47035 20.5303C9.76324 20.8232 10.2381 20.8232 10.531 20.5303L11.2507 19.8107V21C11.2507 21.4142 11.5865 21.75 12.0007 21.75C12.4149 21.75 12.7507 21.4142 12.7507 21V19.8107L13.4703 20.5303C13.7632 20.8232 14.2381 20.8232 14.531 20.5303C14.8239 20.2374 14.8239 19.7626 14.531 19.4697L12.7507 17.6893V16.433L15.4648 14.866L16.5528 15.4942L17.2044 17.9261C17.3116 18.3262 17.7229 18.5637 18.123 18.4565C18.5231 18.3493 18.7605 17.938 18.6533 17.5379L18.3899 16.5548L19.4199 17.1495C19.7786 17.3566 20.2373 17.2337 20.4444 16.875C20.6515 16.5163 20.5286 16.0576 20.1699 15.8505L19.1399 15.2558L20.123 14.9923C20.5231 14.8851 20.7605 14.4739 20.6533 14.0738C20.5461 13.6737 20.1349 13.4362 19.7348 13.5435L17.3028 14.1951L16.2148 13.567V10.433L17.3028 9.80486L19.7347 10.4565C20.1348 10.5637 20.5461 10.3263 20.6533 9.92621C20.7605 9.52611 20.5231 9.11485 20.123 9.00764L19.1399 8.74421L20.1699 8.14952C20.5286 7.94241 20.6515 7.48372 20.4444 7.125C20.2373 6.76628 19.7786 6.64337 19.4199 6.85048L18.3899 7.44516L18.6533 6.4621C18.7605 6.062 18.5231 5.65074 18.123 5.54354C17.7229 5.43633 17.3116 5.67377 17.2044 6.07387L16.5528 8.50582L15.4648 9.13397L12.7507 7.56699L12.7507 6.31066L14.531 4.53033C14.8239 4.23743 14.8239 3.76256 14.531 3.46967C14.2381 3.17678 13.7632 3.17678 13.4703 3.46967L12.7507 4.18933L12.7507 3Z" fill="#292556"/>
</svg>
