<svg width="24" height="24" viewBox="0 0 24 24" fill="none" xmlns="http://www.w3.org/2000/svg">
<path d="M7 7L4 4M17 7L20 4M17 17L20 20M7 17L4 20" stroke="#292556" stroke-width="1.5" stroke-linecap="round" stroke-linejoin="round"/>
<path d="M12.7276 5.3181C12.6441 4.98422 12.3442 4.75 12 4.75C11.6558 4.75 11.3559 4.98422 11.2724 5.3181C10.8293 7.09048 10.1835 8.34513 9.26431 9.26431C8.34514 10.1835 7.09048 10.8293 5.3181 11.2724C4.98422 11.3559 4.75 11.6558 4.75 12C4.75 12.3442 4.98422 12.6441 5.3181 12.7276C7.09048 13.1707 8.34513 13.8165 9.26431 14.7357C10.1835 15.6549 10.8293 16.9095 11.2724 18.6819C11.3559 19.0158 11.6558 19.25 12 19.25C12.3442 19.25 12.6441 19.0158 12.7276 18.6819C13.1707 16.9095 13.8165 15.6549 14.7357 14.7357C15.6549 13.8165 16.9095 13.1707 18.6819 12.7276C19.0158 12.6441 19.25 12.3442 19.25 12C19.25 11.6558 19.0158 11.3559 18.6819 11.2724C16.9095 10.8293 15.6549 10.1835 14.7357 9.26431C13.8165 8.34513 13.1707 7.09048 12.7276 5.3181Z" fill="#292556"/>
</svg>
