<svg width="24" height="24" viewBox="0 0 24 24" fill="none" xmlns="http://www.w3.org/2000/svg">
<path d="M10.7276 6.8181C10.6441 6.48422 10.3442 6.25 10 6.25C9.65585 6.25 9.35586 6.48422 9.27239 6.8181C8.8293 8.59048 8.18349 9.84514 7.26431 10.7643C6.34514 11.6835 5.09048 12.3293 3.3181 12.7724C2.98422 12.8559 2.75 13.1558 2.75 13.5C2.75 13.8442 2.98422 14.1441 3.3181 14.2276C5.09048 14.6707 6.34513 15.3165 7.26431 16.2357C8.18349 17.1549 8.8293 18.4095 9.27239 20.1819C9.35586 20.5158 9.65585 20.75 10 20.75C10.3442 20.75 10.6441 20.5158 10.7276 20.1819C11.1707 18.4095 11.8165 17.1549 12.7357 16.2357C13.6549 15.3165 14.9095 14.6707 16.6819 14.2276C17.0158 14.1441 17.25 13.8442 17.25 13.5C17.25 13.1558 17.0158 12.8559 16.6819 12.7724C14.9095 12.3293 13.6549 11.6835 12.7357 10.7643C11.8165 9.84513 11.1707 8.59048 10.7276 6.8181Z" fill="#292556"/>
<path d="M16.4776 17.3181C16.3941 16.9842 16.0942 16.75 15.75 16.75C15.4058 16.75 15.1059 16.9842 15.0224 17.3181C14.9186 17.7333 14.7817 17.9701 14.6259 18.1259C14.4701 18.2817 14.2333 18.4186 13.8181 18.5224C13.4842 18.6059 13.25 18.9058 13.25 19.25C13.25 19.5942 13.4842 19.8941 13.8181 19.9776C14.2333 20.0814 14.4701 20.2183 14.6259 20.3741C14.7817 20.5299 14.9186 20.7667 15.0224 21.1819C15.1059 21.5158 15.4058 21.75 15.75 21.75C16.0942 21.75 16.3941 21.5158 16.4776 21.1819C16.5814 20.7667 16.7183 20.5299 16.8741 20.3741C17.0299 20.2183 17.2667 20.0814 17.6819 19.9776C18.0158 19.8941 18.25 19.5942 18.25 19.25C18.25 18.9058 18.0158 18.6059 17.6819 18.5224C17.2667 18.4186 17.0299 18.2817 16.8741 18.1259C16.7183 17.9701 16.5814 17.7333 16.4776 17.3181Z" fill="#292556"/>
</svg>
