<svg width="24" height="24" viewBox="0 0 24 24" fill="none" xmlns="http://www.w3.org/2000/svg">
<path d="M11.2724 5.3181C11.3559 4.98422 11.6558 4.75 12 4.75C12.3442 4.75 12.6441 4.98422 12.7276 5.3181C13.1707 7.09048 13.8165 8.34513 14.7357 9.26431C15.6549 10.1835 16.9095 10.8293 18.6819 11.2724C19.0158 11.3559 19.25 11.6558 19.25 12C19.25 12.3441 19.0158 12.6441 18.6819 12.7276C16.9095 13.1707 15.6549 13.8165 14.7357 14.7357C13.8165 15.6549 13.1707 16.9095 12.7276 18.6819C12.6441 19.0158 12.3442 19.25 12 19.25C11.6558 19.25 11.3559 19.0158 11.2724 18.6819C10.8293 16.9095 10.1835 15.6549 9.26431 14.7357C8.34514 13.8165 7.09048 13.1707 5.3181 12.7276C4.98422 12.6441 4.75 12.3441 4.75 12C4.75 11.6558 4.98422 11.3559 5.3181 11.2724C7.09048 10.8293 8.34513 10.1835 9.26431 9.26431C10.1835 8.34513 10.8293 7.09048 11.2724 5.3181Z" fill="#292556"/>
<path d="M5.52239 15.8181C5.60586 15.4842 5.90585 15.25 6.25 15.25C6.59415 15.25 6.89414 15.4842 6.97761 15.8181C7.08142 16.2333 7.2183 16.4701 7.37408 16.6259C7.52986 16.7817 7.76667 16.9186 8.1819 17.0224C8.51578 17.1059 8.75 17.4058 8.75 17.75C8.75 18.0942 8.51578 18.3941 8.1819 18.4776C7.76667 18.5814 7.52986 18.7183 7.37408 18.8741C7.2183 19.0299 7.08142 19.2667 6.97761 19.6819C6.89414 20.0158 6.59415 20.25 6.25 20.25C5.90585 20.25 5.60586 20.0158 5.52239 19.6819C5.41858 19.2667 5.2817 19.0299 5.12592 18.8741C4.97014 18.7183 4.73333 18.5814 4.3181 18.4776C3.98422 18.3941 3.75 18.0942 3.75 17.75C3.75 17.4058 3.98422 17.1059 4.3181 17.0224C4.73333 16.9186 4.97014 16.7817 5.12592 16.6259C5.2817 16.4701 5.41858 16.2333 5.52239 15.8181Z" fill="#292556"/>
<path d="M18.4776 8.1819C18.3941 8.51578 18.0942 8.75 17.75 8.75C17.4058 8.75 17.1059 8.51578 17.0224 8.1819C16.9186 7.76666 16.7817 7.52986 16.6259 7.37408C16.4701 7.2183 16.2333 7.08142 15.8181 6.97761C15.4842 6.89414 15.25 6.59415 15.25 6.25C15.25 5.90585 15.4842 5.60586 15.8181 5.52239C16.2333 5.41858 16.4701 5.2817 16.6259 5.12592C16.7817 4.97013 16.9186 4.73334 17.0224 4.3181C17.1059 3.98422 17.4058 3.75 17.75 3.75C18.0942 3.75 18.3941 3.98422 18.4776 4.3181C18.5814 4.73334 18.7183 4.97013 18.8741 5.12592C19.0299 5.2817 19.2667 5.41858 19.6819 5.52239C20.0158 5.60586 20.25 5.90585 20.25 6.25C20.25 6.59415 20.0158 6.89414 19.6819 6.97761C19.2667 7.08142 19.0299 7.2183 18.8741 7.37408C18.7183 7.52986 18.5814 7.76666 18.4776 8.1819Z" fill="#292556"/>
</svg>
