<svg width="24" height="24" viewBox="0 0 24 24" fill="none" xmlns="http://www.w3.org/2000/svg">
<path d="M12.7276 2.8181C12.6441 2.48422 12.3442 2.25 12 2.25C11.6558 2.25 11.3559 2.48422 11.2724 2.8181C10.6507 5.30476 9.73706 7.09514 8.4161 8.4161C7.09514 9.73706 5.30476 10.6507 2.8181 11.2724C2.48422 11.3559 2.25 11.6558 2.25 12C2.25 12.3442 2.48422 12.6441 2.8181 12.7276C5.30476 13.3493 7.09513 14.2629 8.4161 15.5839C9.73706 16.9049 10.6507 18.6952 11.2724 21.1819C11.3559 21.5158 11.6558 21.75 12 21.75C12.3442 21.75 12.6441 21.5158 12.7276 21.1819C13.3493 18.6952 14.2629 16.9049 15.5839 15.5839C16.9049 14.2629 18.6952 13.3493 21.1819 12.7276C21.5158 12.6441 21.75 12.3442 21.75 12C21.75 11.6558 21.5158 11.3559 21.1819 11.2724C18.6952 10.6507 16.9049 9.73706 15.5839 8.4161C14.2629 7.09513 13.3493 5.30476 12.7276 2.8181Z" fill="#292556"/>
</svg>
