<svg width="24" height="24" viewBox="0 0 24 24" fill="none" xmlns="http://www.w3.org/2000/svg">
<path d="M17.7276 2.8181C17.6441 2.48422 17.3442 2.25 17 2.25C16.6558 2.25 16.3559 2.48422 16.2724 2.8181C16.0436 3.73333 15.7192 4.34514 15.2822 4.78217C14.8451 5.2192 14.2333 5.54358 13.3181 5.77239C12.9842 5.85586 12.75 6.15585 12.75 6.5C12.75 6.84415 12.9842 7.14414 13.3181 7.22761C14.2333 7.45642 14.8451 7.7808 15.2822 8.21783C15.7192 8.65486 16.0436 9.26667 16.2724 10.1819C16.3559 10.5158 16.6558 10.75 17 10.75C17.3442 10.75 17.6441 10.5158 17.7276 10.1819C17.9564 9.26667 18.2808 8.65486 18.7178 8.21783C19.1549 7.7808 19.7667 7.45642 20.6819 7.22761C21.0158 7.14414 21.25 6.84415 21.25 6.5C21.25 6.15585 21.0158 5.85586 20.6819 5.77239C19.7667 5.54358 19.1549 5.2192 18.7178 4.78217C18.2808 4.34514 17.9564 3.73333 17.7276 2.8181Z" fill="#292556"/>
<path d="M10.7276 6.8181C10.6441 6.48422 10.3442 6.25 10 6.25C9.65585 6.25 9.35586 6.48422 9.27239 6.8181C8.8293 8.59048 8.18349 9.84514 7.26431 10.7643C6.34514 11.6835 5.09048 12.3293 3.3181 12.7724C2.98422 12.8559 2.75 13.1558 2.75 13.5C2.75 13.8442 2.98422 14.1441 3.3181 14.2276C5.09048 14.6707 6.34513 15.3165 7.26431 16.2357C8.18349 17.1549 8.8293 18.4095 9.27239 20.1819C9.35586 20.5158 9.65585 20.75 10 20.75C10.3442 20.75 10.6441 20.5158 10.7276 20.1819C11.1707 18.4095 11.8165 17.1549 12.7357 16.2357C13.6549 15.3165 14.9095 14.6707 16.6819 14.2276C17.0158 14.1441 17.25 13.8442 17.25 13.5C17.25 13.1558 17.0158 12.8559 16.6819 12.7724C14.9095 12.3293 13.6549 11.6835 12.7357 10.7643C11.8165 9.84514 11.1707 8.59048 10.7276 6.8181Z" fill="#292556"/>
</svg>
