<svg width="24" height="24" viewBox="0 0 24 24" fill="none" xmlns="http://www.w3.org/2000/svg">
<path d="M12 2.25C10.7574 2.25 9.75 3.25736 9.75 4.5V4.5C9.75 5.74264 10.7574 6.75 12 6.75V6.75C13.2426 6.75 14.25 5.74264 14.25 4.5V4.5C14.25 3.25736 13.2426 2.25 12 2.25V2.25Z" fill="#292556"/>
<path d="M12 17.25C10.7574 17.25 9.75 18.2574 9.75 19.5V19.5C9.75 20.7426 10.7574 21.75 12 21.75V21.75C13.2426 21.75 14.25 20.7426 14.25 19.5V19.5C14.25 18.2574 13.2426 17.25 12 17.25V17.25Z" fill="#292556"/>
<path d="M2.25 12C2.25 13.2426 3.25736 14.25 4.5 14.25V14.25C5.74264 14.25 6.75 13.2426 6.75 12V12C6.75 10.7574 5.74264 9.75 4.5 9.75V9.75C3.25736 9.75 2.25 10.7574 2.25 12V12Z" fill="#292556"/>
<path d="M17.25 12C17.25 13.2426 18.2574 14.25 19.5 14.25V14.25C20.7426 14.25 21.75 13.2426 21.75 12V12C21.75 10.7574 20.7426 9.75 19.5 9.75V9.75C18.2574 9.75 17.25 10.7574 17.25 12V12Z" fill="#292556"/>
<path d="M5.10571 18.8943C5.98439 19.773 7.40901 19.773 8.28769 18.8943V18.8943C9.16637 18.0156 9.16637 16.591 8.28769 15.7123V15.7123C7.40901 14.8336 5.98439 14.8336 5.10571 15.7123V15.7123C4.22703 16.591 4.22703 18.0156 5.10571 18.8943V18.8943Z" fill="#292556"/>
<path d="M15.7123 8.28769C16.591 9.16637 18.0156 9.16637 18.8943 8.28769V8.28769C19.773 7.40901 19.773 5.98439 18.8943 5.10571V5.10571C18.0156 4.22703 16.591 4.22703 15.7123 5.10571V5.10571C14.8336 5.98439 14.8336 7.40901 15.7123 8.28769V8.28769Z" fill="#292556"/>
<path d="M18.8944 18.8952C18.0157 19.7739 16.5911 19.7739 15.7124 18.8952V18.8952C14.8337 18.0165 14.8337 16.5919 15.7124 15.7132V15.7132C16.5911 14.8345 18.0157 14.8345 18.8944 15.7132V15.7132C19.773 16.5919 19.773 18.0165 18.8944 18.8952V18.8952Z" fill="#292556"/>
<path d="M8.28776 8.2886C7.40908 9.16728 5.98446 9.16728 5.10578 8.2886V8.2886C4.2271 7.40992 4.2271 5.98529 5.10578 5.10662V5.10662C5.98446 4.22794 7.40908 4.22794 8.28776 5.10661V5.10661C9.16644 5.98529 9.16644 7.40992 8.28776 8.2886V8.2886Z" fill="#292556"/>
</svg>
