<svg width="24" height="24" viewBox="0 0 24 24" fill="none" xmlns="http://www.w3.org/2000/svg">
<path fill-rule="evenodd" clip-rule="evenodd" d="M21.4154 9.47714C22.8088 14.6771 19.7229 20.0221 14.5229 21.4154C9.32286 22.8088 3.9779 19.7229 2.58456 14.5229C1.19122 9.32286 4.27714 3.9779 9.47714 2.58456C14.6771 1.19122 20.0221 4.27714 21.4154 9.47714ZM7.25663 15.5963C8.9519 15.2857 10.2645 15.1498 11.4815 15.2611C12.6887 15.3714 13.8292 15.7278 15.1696 16.4413C15.4134 16.571 15.7162 16.4786 15.8459 16.2348C15.9757 15.9911 15.8833 15.6883 15.6395 15.5585C14.2041 14.7945 12.9355 14.3898 11.5725 14.2652C10.2194 14.1415 8.80079 14.2967 7.07637 14.6127C6.80476 14.6625 6.62492 14.923 6.67469 15.1947C6.72447 15.4663 6.98501 15.6461 7.25663 15.5963ZM16.0441 14.1783C13.5198 12.642 9.97875 12.2967 7.15642 13.1371C6.75944 13.2553 6.34178 13.0293 6.22357 12.6323C6.10536 12.2353 6.33136 11.8177 6.72834 11.6994C9.91956 10.7492 13.9049 11.1204 16.824 12.897C17.1778 13.1123 17.2901 13.5738 17.0747 13.9276C16.8594 14.2814 16.398 14.3937 16.0441 14.1783ZM6.69501 10.3661C8.14121 9.9446 10.0458 9.77398 11.9623 9.9346C13.8831 10.0956 15.7326 10.5822 17.1033 11.4046C17.5176 11.6533 18.0551 11.5189 18.3038 11.1045C18.5524 10.6902 18.418 10.1527 18.0036 9.90405C16.3299 8.89977 14.1947 8.36557 12.1085 8.19072C10.018 8.01551 7.89317 8.19408 6.20538 8.68596C5.74143 8.82116 5.47493 9.30688 5.61014 9.77083C5.74535 10.2348 6.23106 10.5013 6.69501 10.3661Z" fill="#292556"/>
</svg>
