<svg width="24" height="24" viewBox="0 0 24 24" fill="none" xmlns="http://www.w3.org/2000/svg">
<path d="M6.25 9.5V10H17.7495L17.7496 9.5V9.49998C17.7496 9.03587 17.7497 8.80381 17.7218 8.60927C17.5483 7.40092 16.5991 6.45155 15.3907 6.27795C15.1962 6.25 14.9641 6.25 14.5 6.25V4.75C14.5 4.51784 14.5 4.40176 14.4914 4.3039C14.3963 3.21614 13.5339 2.35373 12.4461 2.25856C12.3482 2.25 12.2322 2.25 12 2.25C11.7678 2.25 11.6518 2.25 11.5539 2.25856C10.4661 2.35373 9.60373 3.21614 9.50856 4.3039C9.5 4.40176 9.5 4.51784 9.5 4.75V6.25C9.03554 6.25 8.80332 6.25 8.60863 6.27799C7.40067 6.45167 6.45167 7.40067 6.27799 8.60863C6.25 8.80332 6.25 9.03554 6.25 9.5Z" fill="#292556"/>
<path d="M11.2 21.75H12.8C14.8624 21.75 15.8935 21.75 16.6164 21.2248C16.8499 21.0552 17.0552 20.8499 17.2248 20.6164C17.75 19.8935 17.75 18.8624 17.75 16.8V11.5H6.25V16.8C6.25 18.8624 6.25 19.8935 6.7752 20.6164C6.94482 20.8499 7.15013 21.0552 7.38359 21.2248C8.10647 21.75 9.13765 21.75 11.2 21.75Z" fill="#292556"/>
<path d="M18 3.5L19 3M20 6.5L18 5.5" stroke="#292556" stroke-width="1.5" stroke-linecap="round" stroke-linejoin="round"/>
</svg>
