<svg width="24" height="24" viewBox="0 0 24 24" fill="none" xmlns="http://www.w3.org/2000/svg">
<path fill-rule="evenodd" clip-rule="evenodd" d="M3.15717 4.20802C2.25 5.45663 2.25 7.23775 2.25 10.8V13.2C2.25 16.7622 2.25 18.5434 3.15717 19.792C3.45015 20.1952 3.80477 20.5499 4.20802 20.8428C5.45663 21.75 7.23775 21.75 10.8 21.75H13.2C16.7622 21.75 18.5434 21.75 19.792 20.8428C20.1952 20.5499 20.5499 20.1952 20.8428 19.792C21.75 18.5434 21.75 16.7622 21.75 13.2V10.8C21.75 7.23775 21.75 5.45663 20.8428 4.20802C20.5499 3.80477 20.1952 3.45015 19.792 3.15717C18.5434 2.25 16.7622 2.25 13.2 2.25H10.8C7.23775 2.25 5.45663 2.25 4.20802 3.15717C3.80477 3.45015 3.45015 3.80477 3.15717 4.20802ZM10.5 6.25C10.8442 6.25 11.1441 6.48422 11.2276 6.8181C11.4564 7.73333 11.7808 8.34514 12.2178 8.78217C12.6549 9.2192 13.2667 9.54358 14.1819 9.77239C14.5158 9.85586 14.75 10.1558 14.75 10.5C14.75 10.8442 14.5158 11.1441 14.1819 11.2276C13.2667 11.4564 12.6549 11.7808 12.2178 12.2178C11.7808 12.6549 11.4564 13.2667 11.2276 14.1819C11.1441 14.5158 10.8442 14.75 10.5 14.75C10.1558 14.75 9.85586 14.5158 9.77239 14.1819C9.54358 13.2667 9.2192 12.6549 8.78217 12.2178C8.34514 11.7808 7.73333 11.4564 6.8181 11.2276C6.48422 11.1441 6.25 10.8442 6.25 10.5C6.25 10.1558 6.48422 9.85586 6.8181 9.77239C7.73333 9.54358 8.34514 9.2192 8.78217 8.78217C9.2192 8.34514 9.54358 7.73333 9.77239 6.8181C9.85586 6.48422 10.1558 6.25 10.5 6.25ZM15.25 12.75C15.5942 12.75 15.8941 12.9842 15.9776 13.3181C16.0814 13.7333 16.2183 13.9701 16.3741 14.1259C16.5299 14.2817 16.7667 14.4186 17.1819 14.5224C17.5158 14.6059 17.75 14.9058 17.75 15.25C17.75 15.5942 17.5158 15.8941 17.1819 15.9776C16.7667 16.0814 16.5299 16.2183 16.3741 16.3741C16.2183 16.5299 16.0814 16.7667 15.9776 17.1819C15.8941 17.5158 15.5942 17.75 15.25 17.75C14.9058 17.75 14.6059 17.5158 14.5224 17.1819C14.4186 16.7667 14.2817 16.5299 14.1259 16.3741C13.9701 16.2183 13.7333 16.0814 13.3181 15.9776C12.9842 15.8941 12.75 15.5942 12.75 15.25C12.75 14.9058 12.9842 14.6059 13.3181 14.5224C13.7333 14.4186 13.9701 14.2817 14.1259 14.1259C14.2817 13.9701 14.4186 13.7333 14.5224 13.3181C14.6059 12.9842 14.9058 12.75 15.25 12.75Z" fill="#292556"/>
</svg>
