<svg width="24" height="24" viewBox="0 0 24 24" fill="none" xmlns="http://www.w3.org/2000/svg">
<path d="M8.38395 6.00345C8.84584 4.73955 9.07679 4.1076 9.27817 3.798C10.5599 1.82739 13.4452 1.82739 14.727 3.798C14.9283 4.1076 15.1593 4.73955 15.6212 6.00346L15.6684 6.13263C15.7084 6.24218 15.7284 6.29696 15.7493 6.34585C16.0487 7.04718 16.7209 7.51721 17.4824 7.55772C17.5355 7.56054 17.5938 7.56054 17.7105 7.56054H18.2085C18.5423 7.56054 18.7092 7.56054 18.7913 7.56469C21.8183 7.71786 23.0065 11.5651 20.593 13.3985C20.5275 13.4482 20.3897 13.5423 20.114 13.7305V13.7305C20.0655 13.7637 20.0412 13.7803 20.0199 13.7956C19.3098 14.3084 19.0159 15.2237 19.2948 16.054C19.3032 16.0789 19.3144 16.1094 19.3367 16.1704V16.1704C19.5768 16.8276 19.6969 17.1562 19.7384 17.3223C20.414 20.023 17.6029 22.2676 15.1187 21.011C14.9659 20.9338 14.6889 20.7548 14.1349 20.3969L13.2917 19.8523C13.0953 19.7254 12.9972 19.662 12.9008 19.6136C12.3357 19.3295 11.6695 19.3295 11.1044 19.6136C11.008 19.662 10.9098 19.7254 10.7134 19.8523L9.88727 20.3859C9.31952 20.7527 9.03565 20.9361 8.87888 21.0148C6.39851 22.2613 3.59805 20.0252 4.26465 17.3305C4.30678 17.1602 4.42942 16.8246 4.67471 16.1533V16.1533C4.69819 16.0891 4.70993 16.057 4.71881 16.0304C4.99231 15.2115 4.70944 14.3095 4.01727 13.7934C3.99479 13.7767 3.96921 13.7587 3.91806 13.7227V13.7227C3.62981 13.5202 3.48568 13.4189 3.41646 13.3644C1.06109 11.5105 2.25746 7.72767 5.25051 7.56531C5.33846 7.56054 5.51463 7.56054 5.86695 7.56054H6.29787C6.41142 7.56054 6.4682 7.56054 6.51988 7.55787C7.28347 7.51832 7.95769 7.04688 8.25692 6.34326C8.27718 6.29564 8.29666 6.24231 8.33564 6.13566L8.38395 6.00345Z" fill="#292556"/>
</svg>
