<svg width="24" height="24" viewBox="0 0 24 24" fill="none" xmlns="http://www.w3.org/2000/svg">
<path d="M6 4V4C4.00641 4 2.57654 5.92179 3.14939 7.8313L3.99428 10.6476C4.13782 11.1261 4.2096 11.3653 4.29823 11.5726C4.86397 12.8957 6.0968 13.813 7.52668 13.9747C7.75069 14 8.00046 14 8.5 14V14M8.5 14V14C8.99957 14 9.24936 14 9.47339 13.9747C10.9032 13.813 12.136 12.8957 12.7018 11.5727C12.7904 11.3654 12.8622 11.1261 13.0058 10.6476L13.9144 7.6189C14.4555 5.81538 13.1051 4.0002 11.2221 4.00002V4.00002L11 4M8.5 14V16C8.5 16.9293 8.5 17.394 8.57686 17.7804C8.89249 19.3671 10.1329 20.6075 11.7196 20.9231C12.106 21 12.5707 21 13.5 21V21C14.4293 21 14.894 21 15.2804 20.9231C16.8671 20.6075 18.1075 19.3671 18.4231 17.7804C18.5 17.394 18.5 16.9293 18.5 16V15" stroke="#292556" stroke-width="1.5" stroke-linecap="round" stroke-linejoin="round"/>
<path d="M20.9224 14.6667C21.4371 14.0917 21.75 13.3324 21.75 12.5C21.75 10.7051 20.2949 9.25 18.5 9.25C16.7051 9.25 15.25 10.7051 15.25 12.5C15.25 13.3324 15.5629 14.0917 16.0776 14.6667C16.6726 15.3316 17.5375 15.75 18.5 15.75C19.4625 15.75 20.3274 15.3316 20.9224 14.6667Z" fill="#292556"/>
</svg>
