<svg width="24" height="24" viewBox="0 0 24 24" fill="none" xmlns="http://www.w3.org/2000/svg">
<path fill-rule="evenodd" clip-rule="evenodd" d="M20.25 13.5C20.25 18.0563 16.5563 21.75 12 21.75C7.44365 21.75 3.75 18.0563 3.75 13.5C3.75 8.94365 7.44365 5.25 12 5.25C16.5563 5.25 20.25 8.94365 20.25 13.5ZM12 8.25084C12.4142 8.25084 12.75 8.58662 12.75 9.00084V12.4475C13.1984 12.7072 13.5 13.1925 13.5 13.7483C13.5 14.5777 12.8284 15.25 12 15.25C11.1716 15.25 10.5 14.5777 10.5 13.7483C10.5 13.1925 10.8016 12.7072 11.25 12.4475V9.00084C11.25 8.58662 11.5858 8.25084 12 8.25084Z" fill="#292556"/>
<path d="M12 6.00781L12 3.00781M10 3.00781H12M12 3.00781H14M19 6.00781L20.4142 7.42202" stroke="#292556" stroke-width="1.5" stroke-linecap="round" stroke-linejoin="round"/>
</svg>
