<svg width="24" height="24" viewBox="0 0 24 24" fill="none" xmlns="http://www.w3.org/2000/svg">
<path d="M11.9999 6C11.4999 5 11.9999 3 14.4999 3" stroke="#292556" stroke-width="1.5" stroke-linecap="round" stroke-linejoin="round"/>
<path d="M7.48146 8.70968L6 7.24686C7.35126 5.59534 9.88814 5.25 11.9991 5.25C14.111 5.25 16.6492 5.59564 18 7.24906L16.5167 8.71162C15.9562 9.26427 15.6759 9.54059 15.3272 9.64877C15.213 9.68418 15.095 9.70582 14.9757 9.71323C14.6113 9.73587 14.2512 9.577 13.5311 9.25926L13.089 9.06421C12.6126 8.85401 12.3744 8.74891 12.1236 8.72802C12.0407 8.72112 11.9575 8.72112 11.8746 8.72802C11.6238 8.74891 11.3856 8.85401 10.9092 9.0642L10.9092 9.06421L10.4684 9.25869C9.74774 9.57666 9.3874 9.73564 9.02276 9.71289C8.90339 9.70544 8.78534 9.68374 8.67112 9.64826C8.32222 9.53986 8.04197 9.26313 7.48146 8.70968Z" fill="#292556"/>
<path fill-rule="evenodd" clip-rule="evenodd" d="M19.25 10.3827C19.25 14.5681 15.625 21.7501 12 21.7501C8.375 21.7501 4.75 14.5681 4.75 10.3827C4.75 9.65446 4.87364 9.03172 5.09458 8.5L7.12654 10.4392C7.71447 11.0003 8.00844 11.2809 8.36992 11.3816C8.48814 11.4145 8.60996 11.4329 8.73264 11.4361C9.10776 11.4461 9.47121 11.2644 10.1981 10.9009L10.7925 10.6037C11.3181 10.3409 11.5809 10.2096 11.8611 10.1835C11.9535 10.1749 12.0465 10.1749 12.1389 10.1835C12.4191 10.2096 12.6819 10.3409 13.2075 10.6037L13.8019 10.9009C14.5288 11.2644 14.8922 11.4461 15.2674 11.4361C15.39 11.4329 15.5119 11.4145 15.6301 11.3816C15.9916 11.2809 16.2855 11.0003 16.8735 10.4392L18.9054 8.5C19.1263 9.03175 19.25 9.6544 19.25 10.3827ZM14.5 12.7501C14.5 13.1643 14.1642 13.5001 13.75 13.5001C13.3358 13.5001 13 13.1643 13 12.7501C13 12.3359 13.3358 12.0001 13.75 12.0001C14.1642 12.0001 14.5 12.3359 14.5 12.7501ZM10.75 13.5001C10.75 13.9143 10.4142 14.2501 10 14.2501C9.58579 14.2501 9.25 13.9143 9.25 13.5001C9.25 13.0859 9.58579 12.7501 10 12.7501C10.4142 12.7501 10.75 13.0859 10.75 13.5001ZM11.75 17.5001C12.1642 17.5001 12.5 17.1643 12.5 16.7501C12.5 16.3359 12.1642 16.0001 11.75 16.0001C11.3358 16.0001 11 16.3359 11 16.7501C11 17.1643 11.3358 17.5001 11.75 17.5001Z" fill="#292556"/>
</svg>
