<svg width="24" height="24" viewBox="0 0 24 24" fill="none" xmlns="http://www.w3.org/2000/svg">
<path fill-rule="evenodd" clip-rule="evenodd" d="M2.25 3.67639C2.25 2.88862 2.88862 2.25 3.67639 2.25C4.79843 2.25 5.77649 3.01364 6.04863 4.10218L6.08559 4.25006C6.47204 3.93732 6.96414 3.75 7.5 3.75H10.5C11.7426 3.75 12.75 4.75736 12.75 6V6.25H20C20.9665 6.25 21.75 7.0335 21.75 8V9C21.75 9.9665 20.9665 10.75 20 10.75H16.3107L13.0607 14L16.5301 17.4694C16.8238 17.3289 17.1529 17.25 17.5 17.25C18.7426 17.25 19.75 18.2574 19.75 19.5C19.75 20.7426 18.7426 21.75 17.5 21.75C16.2574 21.75 15.25 20.7426 15.25 19.5C15.25 19.1529 15.3289 18.8238 15.4694 18.5301L12 15.0607L8.53058 18.5301C8.6711 18.8238 8.75 19.1529 8.75 19.5C8.75 20.7426 7.74264 21.75 6.5 21.75C5.25736 21.75 4.25 20.7426 4.25 19.5C4.25 18.2574 5.25736 17.25 6.5 17.25C6.84708 17.25 7.17618 17.3289 7.46992 17.4694L10.9393 14L9.46967 12.5303L7.68934 10.75H4C3.0335 10.75 2.25 9.9665 2.25 9V3.67639ZM9.81066 10.75L10.5303 11.4697L12 12.9393L14.1893 10.75H9.81066ZM11.25 6.25V6C11.25 5.58579 10.9142 5.25 10.5 5.25H7.5C7.08579 5.25 6.75 5.58579 6.75 6L6.75 6.25H11.25Z" fill="#292556"/>
</svg>
