<svg width="24" height="24" viewBox="0 0 24 24" fill="none" xmlns="http://www.w3.org/2000/svg">
<path fill-rule="evenodd" clip-rule="evenodd" d="M18.3999 2.46967C18.107 2.17678 17.6321 2.17678 17.3392 2.46967C17.0463 2.76256 17.0463 3.23744 17.3392 3.53033L18.3741 4.56522L15.5187 7.42063L13.9313 5.82787L13.9305 5.8271L12.1391 4.035C11.8463 3.74205 11.3714 3.74195 11.0785 4.03478C10.7855 4.32761 10.7854 4.80248 11.0782 5.09544L12.3395 6.35721L7.22599 11.4707C6.35862 12.3381 6.00517 13.5248 6.16565 14.6524L5.45926 15.3588C4.76653 16.0515 4.61993 17.0835 5.01946 17.9199L2.46967 20.4697C2.17678 20.7626 2.17678 21.2374 2.46967 21.5303C2.76256 21.8232 3.23744 21.8232 3.53033 21.5303L6.08012 18.9805C6.91647 19.3801 7.94851 19.2335 8.64124 18.5407L9.34835 17.8336L9.34919 17.8328C10.4757 17.992 11.6608 17.6384 12.5272 16.7719L17.6407 11.6584L18.9046 12.9217C19.1975 13.2146 19.6724 13.2145 19.9652 12.9215C20.2581 12.6286 20.258 12.1537 19.965 11.8609L18.1708 10.0674L18.1701 10.0667L16.5794 8.48129L19.4348 5.62588L20.4697 6.66076C20.7626 6.95366 21.2374 6.95366 21.5303 6.66076C21.8232 6.36787 21.8232 5.893 21.5303 5.6001L19.9651 4.03489L18.3999 2.46967Z" fill="#292556"/>
</svg>
