<svg width="24" height="24" viewBox="0 0 24 24" fill="none" xmlns="http://www.w3.org/2000/svg">
<path fill-rule="evenodd" clip-rule="evenodd" d="M13.2877 18.9642L18.9379 13.3148C19.26 12.9928 19.4211 12.8317 19.5406 12.6418C19.5803 12.5788 19.6165 12.5136 19.6489 12.4465C19.7466 12.2445 19.7978 12.0226 19.9002 11.5788L19.9002 11.5788L19.9002 11.5787L19.9002 11.5787L20.2976 9.8569C21.0021 6.80478 21.3543 5.27872 20.7055 4.29482C20.5005 3.98392 20.2345 3.71788 19.9236 3.51286C18.9397 2.86406 17.4137 3.21618 14.3615 3.92043L12.6383 4.31804C12.1945 4.42045 11.9726 4.47165 11.7706 4.56927C11.7035 4.60169 11.6383 4.63783 11.5753 4.67752C11.3854 4.79705 11.2244 4.95807 10.9023 5.2801L10.9023 5.28011L5.25305 10.9285C3.79455 12.3868 3.0653 13.116 2.92548 13.9985C2.88032 14.2836 2.88031 14.5739 2.92545 14.859C3.06521 15.7415 3.7944 16.4707 5.2528 17.9291L6.2876 18.9639L6.2876 18.9639C7.74581 20.4221 8.47491 21.1513 9.3574 21.2911C9.6424 21.3362 9.93274 21.3362 10.2177 21.2911C11.1002 21.1513 11.8294 20.4223 13.2877 18.9642ZM8.81065 11.2756C9.21075 11.1683 9.622 11.4058 9.7292 11.8059L11.0233 16.6355C11.1305 17.0356 10.8931 17.4469 10.493 17.5541C10.0929 17.6613 9.68162 17.4238 9.57441 17.0237L8.28032 12.1941C8.17311 11.794 8.41055 11.3828 8.81065 11.2756ZM13.9726 10.2375C14.656 10.9209 15.764 10.9209 16.4474 10.2375C17.1308 9.55408 17.1308 8.44604 16.4474 7.76262C15.764 7.0792 14.656 7.0792 13.9726 7.76262C13.2891 8.44604 13.2891 9.55408 13.9726 10.2375ZM6.29293 13.5307C6.68345 13.1402 7.31662 13.1402 7.70714 13.5307C8.09767 13.9213 8.09767 14.5544 7.70714 14.945C7.31662 15.3355 6.68345 15.3355 6.29293 14.945C5.9024 14.5544 5.9024 13.9213 6.29293 13.5307ZM11.5962 13.8843C11.9868 13.4938 12.6199 13.4938 13.0104 13.8843C13.401 14.2748 13.401 14.908 13.0104 15.2985C12.6199 15.689 11.9868 15.689 11.5962 15.2985C11.2057 14.908 11.2057 14.2748 11.5962 13.8843Z" fill="#292556"/>
</svg>
