<svg width="24" height="24" viewBox="0 0 24 24" fill="none" xmlns="http://www.w3.org/2000/svg">
<path fill-rule="evenodd" clip-rule="evenodd" d="M20.1862 9.75528L20.1862 9.75526L20.1863 9.75524C20.8906 6.70313 21.2427 5.17707 20.594 4.1932C20.389 3.8823 20.1229 3.61627 19.812 3.41126C18.8282 2.76248 17.3021 3.11465 14.2499 3.81899L12.7792 4.1584C12.1689 4.29924 11.8638 4.36965 11.586 4.50391C11.4938 4.54849 11.4041 4.59819 11.3174 4.65277C11.0563 4.81716 10.8349 5.03859 10.392 5.48146L5.02125 10.8523C3.56294 12.3106 2.83379 13.0397 2.69401 13.9222C2.64887 14.2073 2.64887 14.4976 2.69401 14.7826C2.83379 15.6652 3.56294 16.3943 5.02125 17.8526L6.15262 18.984C7.61092 20.4423 8.34007 21.1714 9.2226 21.3112C9.50762 21.3564 9.79797 21.3564 10.083 21.3112C10.9655 21.1714 11.6947 20.4423 13.153 18.984L13.153 18.984L18.5238 13.6132L18.5238 13.6132C18.9666 13.1703 19.1881 12.9489 19.3525 12.6878C19.407 12.6011 19.4567 12.5115 19.5013 12.4192C19.6356 12.1415 19.706 11.8363 19.8468 11.2261L20.1862 9.75528ZM8.41913 11.6921C8.71202 11.3992 9.18689 11.3992 9.47979 11.6921L12.3082 14.5205C12.6011 14.8134 12.6011 15.2883 12.3082 15.5812C12.0153 15.8741 11.5404 15.8741 11.2476 15.5812L8.41913 12.7528C8.12623 12.4599 8.12623 11.985 8.41913 11.6921ZM6.29781 13.8134C6.5907 13.5205 7.06557 13.5205 7.35847 13.8134L10.1869 16.6418C10.4798 16.9347 10.4798 17.4096 10.1869 17.7025C9.894 17.9954 9.41913 17.9954 9.12623 17.7025L6.29781 14.8741C6.00491 14.5812 6.00491 14.1063 6.29781 13.8134ZM13.4243 7.39292C14.303 6.51424 15.7276 6.51424 16.6063 7.39292C17.485 8.2716 17.485 9.69622 16.6063 10.5749C15.7276 11.4536 14.303 11.4536 13.4243 10.5749C12.5457 9.69622 12.5457 8.2716 13.4243 7.39292Z" fill="#292556"/>
</svg>
