<svg width="24" height="24" viewBox="0 0 24 24" fill="none" xmlns="http://www.w3.org/2000/svg">
<path fill-rule="evenodd" clip-rule="evenodd" d="M18.9379 13.3148L13.2877 18.9642C11.8294 20.4223 11.1002 21.1513 10.2177 21.2911C9.93274 21.3362 9.6424 21.3362 9.3574 21.2911C8.47491 21.1513 7.74581 20.4221 6.2876 18.9639L5.2528 17.9291C3.7944 16.4707 3.06521 15.7415 2.92545 14.859C2.88031 14.5739 2.88032 14.2836 2.92548 13.9985C3.0653 13.116 3.79455 12.3868 5.25305 10.9285L10.9023 5.28011L10.9023 5.2801C11.2244 4.95807 11.3854 4.79705 11.5753 4.67752C11.6383 4.63783 11.7035 4.60169 11.7706 4.56927C11.9726 4.47165 12.1945 4.42045 12.6383 4.31804L14.3615 3.92043C17.4137 3.21618 18.9397 2.86406 19.9236 3.51286C20.2345 3.71788 20.5005 3.98392 20.7055 4.29482C21.3543 5.27872 21.0021 6.80478 20.2976 9.8569L19.9002 11.5787L19.9002 11.5787L19.9002 11.5788C19.7978 12.0226 19.7466 12.2445 19.6489 12.4465C19.6165 12.5136 19.5803 12.5788 19.5406 12.6418C19.4211 12.8317 19.26 12.9928 18.9379 13.3148ZM13.9725 10.2374C14.6559 10.9209 15.764 10.9209 16.4474 10.2374C17.1308 9.55402 17.1308 8.44598 16.4474 7.76256C15.764 7.07915 14.6559 7.07915 13.9725 7.76256C13.2891 8.44598 13.2891 9.55402 13.9725 10.2374Z" fill="#292556"/>
</svg>
