<svg width="24" height="24" viewBox="0 0 24 24" fill="none" xmlns="http://www.w3.org/2000/svg">
<path fill-rule="evenodd" clip-rule="evenodd" d="M4.54677 10.3686C3.07705 9.95356 2 8.60256 2 7C2 5.067 3.567 3.5 5.5 3.5C6.8972 3.5 8.10319 4.31871 8.6644 5.50256C9.67467 5.02011 10.8058 4.75 12 4.75C13.1942 4.75 14.3253 5.02011 15.3356 5.50256C15.8968 4.3187 17.1028 3.5 18.5 3.5C20.433 3.5 22 5.067 22 7C22 8.60256 20.923 9.95355 19.4532 10.3686C19.6465 11.0458 19.75 11.7608 19.75 12.5C19.75 16.7802 16.2802 20.25 12 20.25C7.71979 20.25 4.25 16.7802 4.25 12.5C4.25 11.7608 4.35349 11.0458 4.54677 10.3686ZM9.25 12C9.80228 12 10.25 11.5523 10.25 11C10.25 10.4477 9.80228 10 9.25 10C8.69772 10 8.25 10.4477 8.25 11C8.25 11.5523 8.69772 12 9.25 12ZM14.75 12C15.3023 12 15.75 11.5523 15.75 11C15.75 10.4477 15.3023 10 14.75 10C14.1977 10 13.75 10.4477 13.75 11C13.75 11.5523 14.1977 12 14.75 12ZM14.5 15C14.5 16.3807 13.3807 17.5 12 17.5C10.6193 17.5 9.5 16.3807 9.5 15C9.5 13.6193 10.6193 12.5 12 12.5C13.3807 12.5 14.5 13.6193 14.5 15Z" fill="#292556"/>
</svg>
