<svg width="24" height="24" viewBox="0 0 24 24" fill="none" xmlns="http://www.w3.org/2000/svg">
<path fill-rule="evenodd" clip-rule="evenodd" d="M11.8035 2.33882C11.3942 2.42084 11.0949 2.87552 10.4964 3.78488L4.16055 13.4113C2.78689 15.4984 2.10006 16.542 2.27011 17.518C2.32423 17.8286 2.43665 18.1263 2.60142 18.3951C3.11907 19.2398 4.32428 19.5688 6.73471 20.2266L8.84994 20.8038L11.0927 21.4783C11.4927 21.5986 11.6927 21.6588 11.8978 21.6708C11.9658 21.6748 12.0341 21.6748 12.1021 21.6708C12.3072 21.6588 12.5072 21.5986 12.9072 21.4783L12.9194 21.4747V21.479L16.4694 20.409V20.407L16.7249 20.3301L17.2154 20.1996C19.644 19.5531 20.8583 19.2299 21.381 18.3841C21.5473 18.1149 21.6611 17.8167 21.7162 17.5051C21.8893 16.5259 21.1984 15.4763 19.8168 13.377L13.5035 3.78488C12.905 2.87552 12.6057 2.42084 12.1964 2.33882C12.0667 2.31284 11.9332 2.31284 11.8035 2.33882ZM16.4694 20.407V15.024C16.4694 14.0437 15.6747 13.249 14.6944 13.249C13.7141 13.249 12.9194 14.0437 12.9194 15.024V21.4747L13.7499 21.2249L16.4694 20.407Z" fill="#292556"/>
</svg>
