<svg width="24" height="24" viewBox="0 0 24 24" fill="none" xmlns="http://www.w3.org/2000/svg">
<path fill-rule="evenodd" clip-rule="evenodd" d="M16.75 16.9719C16.75 19.6106 14.6234 21.7497 12 21.7497C9.37665 21.7497 7.25 19.6106 7.25 16.9719C7.25 15.6899 7.90929 14.5259 8.79025 13.6677L8.79026 13.6677C9.13885 13.3282 9.31314 13.1584 9.3874 13.0155C9.41663 12.9592 9.42951 12.9287 9.44942 12.8685C9.5 12.7156 9.5 12.5264 9.5 12.1481V9.75H11.5C11.9142 9.75 12.25 9.41421 12.25 9C12.25 8.58579 11.9142 8.25 11.5 8.25H9.5V6.75H11.5C11.9142 6.75 12.25 6.41421 12.25 6C12.25 5.58579 11.9142 5.25 11.5 5.25H9.5V4.75C9.5 3.36929 10.6193 2.25 12 2.25C13.3807 2.25 14.5 3.36929 14.5 4.75V12.1481C14.5 12.5264 14.5 12.7156 14.5506 12.8685C14.5705 12.9287 14.5834 12.9592 14.6126 13.0155C14.6869 13.1584 14.8611 13.3282 15.2097 13.6677L15.2097 13.6677C16.0907 14.5259 16.75 15.6899 16.75 16.9719Z" fill="#292556"/>
</svg>
