<svg width="24" height="24" viewBox="0 0 24 24" fill="none" xmlns="http://www.w3.org/2000/svg">
<path fill-rule="evenodd" clip-rule="evenodd" d="M15.2198 3.71997C16.6173 2.32251 18.883 2.32251 20.2805 3.71997C21.6779 5.11743 21.6779 7.38317 20.2805 8.78063L20.1413 8.91982L15.0835 3.8563L15.2198 3.71997ZM13.0835 5.85628L14.0228 4.91696L19.0863 9.97475L12.857 16.2041L9.17883 17.9751C9.12277 18.0021 9.09475 18.0155 9.06706 18.0293C8.6005 18.2611 8.17303 18.5644 7.80013 18.9282C7.778 18.9498 7.75601 18.9717 7.71201 19.0157L5.28046 21.4473C4.52732 22.2004 3.30626 22.2004 2.55313 21.4473C1.8 20.6942 1.8 19.4731 2.55313 18.72L4.98469 16.2884L4.98477 16.2883C5.02871 16.2444 5.05069 16.2224 5.07226 16.2003C5.43606 15.8274 5.73934 15.3999 5.97113 14.9334C5.98488 14.9057 5.99836 14.8777 6.02532 14.8217L6.02537 14.8216L7.79633 11.1434L8.68949 10.2503L10.5532 12.1136C10.8461 12.4065 11.3209 12.4065 11.6138 12.1135C11.9067 11.8206 11.9066 11.3457 11.6137 11.0529L9.75015 9.18962L10.3562 8.58361L12.2198 10.447C12.5127 10.7398 12.9876 10.7398 13.2805 10.4469C13.5734 10.154 13.5733 9.67908 13.2804 9.38621L11.4168 7.52295L12.0228 6.91694L13.8865 8.78029C14.1794 9.07316 14.6543 9.07312 14.9472 8.7802C15.24 8.48728 15.24 8.01241 14.9471 7.71954L13.0835 5.85628Z" fill="#292556"/>
</svg>
