<svg width="24" height="24" viewBox="0 0 24 24" fill="none" xmlns="http://www.w3.org/2000/svg">
<path d="M11.25 21C11.25 21.4143 11.5858 21.75 12 21.75C12.4142 21.75 12.75 21.4143 12.75 21L11.25 21ZM11.25 16.75L11.25 21L12.75 21L12.75 16.75L11.25 16.75Z" fill="#292556"/>
<path d="M8.6394 16.75L15.36 16.75C17.262 16.75 18.213 16.75 18.7266 16.2314C18.8893 16.0671 19.0179 15.8721 19.1048 15.6579C19.3792 14.9815 19.0046 14.1074 18.2553 12.3592L16.7497 8.84606V5.4C16.7497 4.08759 16.7497 3.43139 16.4155 2.97138C16.3075 2.82281 16.1769 2.69216 16.0283 2.58422C15.5683 2.25 14.9121 2.25 13.5997 2.25H10.3997C9.0873 2.25 8.4311 2.25 7.97109 2.58422C7.82252 2.69216 7.69187 2.82281 7.58393 2.97138C7.24971 3.43139 7.24971 4.08759 7.24971 5.4L7.24971 8.84606L5.7441 12.3592C4.99485 14.1074 4.62023 14.9815 4.8946 15.6579C4.98153 15.8721 5.11007 16.0671 5.27279 16.2314C5.78637 16.75 6.73738 16.75 8.6394 16.75Z" fill="#292556"/>
</svg>
