<svg width="24" height="24" viewBox="0 0 24 24" fill="none" xmlns="http://www.w3.org/2000/svg">
<path d="M2.25 10.625V18.875C2.25 19.6344 2.86561 20.25 3.625 20.25C4.38439 20.25 5 19.6344 5 18.875V10.625C5 9.86561 4.38439 9.25 3.625 9.25C2.86561 9.25 2.25 9.86561 2.25 10.625Z" fill="#292556"/>
<path d="M15.2494 8.25681C15.627 6.93685 15.6261 5.80164 15.2466 4.61039C15.0231 3.90895 14.3391 3.5 13.6178 3.5C13.1127 3.5 12.6322 3.71626 12.4283 4.18885C12.0289 5.11465 11.3546 7.01836 10.3717 8.0236C8.91091 9.51762 7.83793 10.386 6 11.0217V18.1244L6.74938 18.8306C7.30255 19.3518 7.57914 19.6125 7.91804 19.7975C8.02624 19.8565 8.15107 19.9147 8.26593 19.9594C8.62567 20.0997 8.98516 20.1415 9.70412 20.225H9.70414C10.7568 20.3474 12.0779 20.4796 13 20.4976C13.6935 20.5112 14.51 20.4655 15.2986 20.3972C16.5835 20.2859 17.226 20.2303 17.8253 19.8665C18.0096 19.7547 18.2141 19.5959 18.3681 19.445C18.8689 18.9544 19.101 18.291 19.565 16.9644L20.7594 13.5502C21.3845 11.7632 20.1405 9.87067 18.2522 9.73572L16.268 9.59391C15.5951 9.54582 15.1171 8.91828 15.2494 8.25681Z" fill="#292556"/>
</svg>
