<svg width="24" height="24" viewBox="0 0 24 24" fill="none" xmlns="http://www.w3.org/2000/svg">
<path d="M2.25 13.375V5.125C2.25 4.36561 2.86561 3.75 3.625 3.75C4.38439 3.75 5 4.36561 5 5.125V13.375C5 14.1344 4.38439 14.75 3.625 14.75C2.86561 14.75 2.25 14.1344 2.25 13.375Z" fill="#292556"/>
<path d="M15.2494 15.7432C15.627 17.0631 15.6261 18.1984 15.2466 19.3896C15.0231 20.0911 14.3391 20.5 13.6178 20.5C13.1127 20.5 12.6322 20.2837 12.4283 19.8111C12.0289 18.8853 11.3546 16.9816 10.3717 15.9764C8.91091 14.4824 7.83793 13.614 6 12.9783V5.87559L6.74938 5.16943C7.30255 4.64817 7.57914 4.38754 7.91804 4.20252C8.02624 4.14345 8.15107 4.08533 8.26593 4.04056C8.62567 3.90032 8.98516 3.85854 9.70412 3.77498H9.70414C10.7568 3.65264 12.0779 3.52041 13 3.50238C13.6935 3.48882 14.51 3.53455 15.2986 3.60281C16.5835 3.71405 17.226 3.76967 17.8253 4.13346C18.0096 4.24533 18.2141 4.40413 18.3681 4.555C18.8689 5.04565 19.101 5.70897 19.565 7.0356L20.7594 10.4498C21.3845 12.2368 20.1405 14.1293 18.2522 14.2643L16.268 14.4061C15.5951 14.4542 15.1171 15.0817 15.2494 15.7432Z" fill="#292556"/>
</svg>
