<svg width="24" height="24" viewBox="0 0 24 24" fill="none" xmlns="http://www.w3.org/2000/svg">
<path fill-rule="evenodd" clip-rule="evenodd" d="M7.81723 4.25H8.24976V7.5C8.24976 7.91421 8.58554 8.25 8.99976 8.25C9.41397 8.25 9.74976 7.91421 9.74976 7.5V4.25H16.1822C18.6511 4.25 19.8855 4.25 20.5458 4.65361C21.5152 5.24613 22.0204 6.37379 21.8173 7.49163C21.679 8.25305 20.8573 9.17425 19.2139 11.0166L19.2138 11.0167C18.947 11.3158 18.8136 11.4654 18.7483 11.6284C18.6528 11.8669 18.6528 12.1331 18.7483 12.3716C18.8136 12.5346 18.947 12.6842 19.2138 12.9833C20.8573 14.8257 21.679 15.7469 21.8173 16.5084C22.0204 17.6262 21.5152 18.7539 20.5458 19.3464C19.8855 19.75 18.6511 19.75 16.1822 19.75H9.74976V15C9.74976 14.5858 9.41397 14.25 8.99976 14.25C8.58554 14.25 8.24976 14.5858 8.24976 15V19.75H7.81723C5.34836 19.75 4.11393 19.75 3.45362 19.3464C2.48423 18.7539 1.97901 17.6262 2.18212 16.5084C2.32047 15.7469 3.14219 14.8257 4.78562 12.9833C5.05246 12.6842 5.18588 12.5346 5.25113 12.3716C5.34662 12.1331 5.34662 11.8669 5.25113 11.6284C5.18588 11.4654 5.05246 11.3158 4.78562 11.0167L4.78562 11.0166C3.14219 9.17425 2.32047 8.25305 2.18212 7.49162C1.97901 6.37379 2.48423 5.24613 3.45362 4.65361C4.11393 4.25 5.34836 4.25 7.81723 4.25ZM9.74976 10.5C9.74976 10.0858 9.41397 9.75 8.99976 9.75C8.58554 9.75 8.24976 10.0858 8.24976 10.5V12C8.24976 12.4142 8.58554 12.75 8.99976 12.75C9.41397 12.75 9.74976 12.4142 9.74976 12V10.5Z" fill="#292556"/>
</svg>
