<svg width="24" height="24" viewBox="0 0 24 24" fill="none" xmlns="http://www.w3.org/2000/svg">
<path fill-rule="evenodd" clip-rule="evenodd" d="M15.5368 3.11329L13.6359 6.74699C14.4601 7.00302 15.2359 7.45735 15.8886 8.10999C16.3226 8.54401 16.6689 9.03253 16.9275 9.55351C16.0272 7.74352 14.1589 6.49979 12.0001 6.49979C8.96258 6.49979 6.50014 8.96223 6.50014 11.9998C6.50014 13.4782 7.08347 14.8204 8.03253 15.8087C7.42135 15.1728 6.99291 14.4261 6.74721 13.6349L3.11521 15.5349L3.06354 15.5621C1.58538 16.3537 1.95922 18.5702 3.61524 18.8331L3.67295 18.8418L3.69134 18.8446C4.44621 18.9607 5.03854 19.5531 5.15475 20.3079L5.15751 20.3263L5.16619 20.3841C5.42922 22.0401 7.64565 22.4139 8.43723 20.9358L8.46439 20.884L10.3642 17.2524C10.881 17.4132 11.4304 17.4998 12.0001 17.4998C15.0377 17.4998 17.5001 15.0374 17.5001 11.9998C17.5001 11.4298 17.4134 10.8801 17.2525 10.3631L20.8859 8.46238L20.9376 8.43526C22.4158 7.64366 22.0419 5.42718 20.3859 5.1642L20.3282 5.15553L20.3098 5.15277C19.5549 5.03658 18.9626 4.44426 18.8464 3.68939L18.8437 3.671L18.835 3.61323C18.5719 1.95725 16.3555 1.58345 15.5639 3.06158L15.5368 3.11329ZM9.48057 16.89C9.05584 16.6708 8.66335 16.3978 8.31207 16.0801C8.67254 16.4063 9.06581 16.6763 9.48057 16.89Z" fill="#292556"/>
</svg>
