<svg width="24" height="24" viewBox="0 0 24 24" fill="none" xmlns="http://www.w3.org/2000/svg">
<path d="M2.85012 11.3324L4.41402 18.0299C4.67637 19.1534 4.80754 19.7152 4.97994 20.048C5.82663 21.6824 7.93194 22.1759 9.41676 21.088C9.7191 20.8665 10.0865 20.4213 10.8212 19.5309L10.8212 19.5308L10.8213 19.5308C11.0168 19.2938 11.1146 19.1753 11.2099 19.0975C11.67 18.722 12.3308 18.722 12.7908 19.0975C12.8862 19.1753 12.9839 19.2938 13.1794 19.5306C13.9113 20.4177 14.2773 20.8612 14.5783 21.0822C16.0647 22.1732 18.1741 21.6779 19.0196 20.0394C19.1908 19.7076 19.3212 19.1475 19.5819 18.0274L19.5819 18.0274L21.1401 11.3324L21.4594 9.99218L21.4594 9.99214C21.8463 8.3678 22.0398 7.55562 22.0432 7.0126C22.0617 4.02282 19.3465 1.75958 16.409 2.31619C15.8754 2.41728 15.1114 2.75385 13.5832 3.42697C13.3197 3.54304 13.188 3.60107 13.0571 3.64588C12.3751 3.87935 11.6348 3.87946 10.9528 3.6462C10.8219 3.60143 10.69 3.54338 10.4262 3.42728C8.88151 2.74742 8.10916 2.40749 7.56984 2.30677C4.64167 1.75993 1.93857 4.0121 1.94787 6.99088C1.94958 7.53952 2.1443 8.35965 2.53375 9.99991L2.85012 11.3324Z" fill="#292556"/>
</svg>
