<svg width="24" height="24" viewBox="0 0 24 24" fill="none" xmlns="http://www.w3.org/2000/svg">
<path d="M12.6893 18.3749L18.6995 11.1626C19.1415 10.6322 19.3625 10.367 19.3938 10.0636C19.4039 9.96531 19.3994 9.86601 19.3804 9.769C19.3218 9.46969 19.0777 9.22561 18.5895 8.73744L15.2573 5.40525C14.7692 4.91708 14.5251 4.673 14.2258 4.6144C14.1288 4.5954 14.0295 4.5909 13.9311 4.60103C13.6278 4.63229 13.3626 4.85328 12.8322 5.29524L5.61991 11.3055C5.46357 11.4358 5.38539 11.5009 5.36729 11.5853C5.36146 11.6124 5.36019 11.6403 5.36354 11.6679C5.37394 11.7535 5.44589 11.8255 5.5898 11.9694L12.0254 18.405C12.1693 18.5489 12.2413 18.6208 12.3269 18.6312C12.3544 18.6346 12.3824 18.6333 12.4095 18.6275C12.4939 18.6094 12.559 18.5312 12.6893 18.3749Z" fill="#292556"/>
<path d="M16.9725 4.28354L18.5641 3.04658C19.0234 2.68963 19.253 2.51115 19.5075 2.47104C19.6508 2.44847 19.7973 2.45733 19.9368 2.497C20.1846 2.5675 20.3911 2.77234 20.804 3.18204L20.804 3.18205C21.22 3.59485 21.4281 3.80126 21.5002 4.05022C21.5408 4.19032 21.5503 4.3376 21.5279 4.48174C21.4882 4.73789 21.3083 4.9692 20.9485 5.43183L19.7113 7.02252C19.5825 7.18814 19.5181 7.27095 19.4322 7.29119C19.4047 7.29769 19.3762 7.29947 19.3481 7.29643C19.2604 7.28699 19.1862 7.21281 19.0379 7.06445L16.9305 4.95705C16.7821 4.80864 16.7079 4.73444 16.6984 4.64676C16.6954 4.6186 16.6972 4.59012 16.7037 4.56256C16.7239 4.47673 16.8068 4.41234 16.9725 4.28354Z" fill="#292556"/>
<path d="M3.64558 12.9508L3.75125 12.8627C3.88384 12.7522 3.95014 12.697 4.02598 12.6892C4.05057 12.6866 4.07539 12.6878 4.09964 12.6925C4.17447 12.7072 4.23549 12.7682 4.35753 12.8902L11.1046 19.6372C11.2266 19.7593 11.2876 19.8203 11.3023 19.8951C11.307 19.9194 11.3082 19.9442 11.3056 19.9688C11.2978 20.0446 11.2426 20.1109 11.1321 20.2435L11.0483 20.344C10.5276 20.9689 10.2673 21.2813 9.93012 21.3538C9.82164 21.3771 9.71004 21.3822 9.59989 21.3689C9.25751 21.3276 8.96967 21.0403 8.39397 20.4657L3.52636 15.6076C2.94965 15.032 2.6613 14.7442 2.61948 14.4015C2.60603 14.2912 2.61104 14.1795 2.63432 14.0708C2.70666 13.7332 3.01964 13.4724 3.64558 12.9508Z" fill="#292556"/>
</svg>
