<svg width="24" height="24" viewBox="0 0 24 24" fill="none" xmlns="http://www.w3.org/2000/svg">
<path d="M4.28767 11.2041C4.69593 13.0997 6.78795 16.3093 8.69015 18.9392C9.93943 20.6664 10.5641 21.53 11.538 21.7166C11.8266 21.7719 12.1877 21.7721 12.4764 21.7171C13.4505 21.5316 14.0745 20.671 15.3223 18.9499C17.1941 16.3681 19.247 13.2105 19.7038 11.2267C19.7191 11.1603 19.7267 11.1271 19.7361 11.0553C19.7383 11.0382 19.7423 11.0007 19.7437 10.9834C19.7448 10.9703 19.7457 10.958 19.7463 10.946C17.0369 12.1387 14.5311 12.7513 12.0005 12.75C9.46949 12.7487 6.96281 12.1332 4.25195 10.9377C4.25261 10.953 4.25355 10.9687 4.25489 10.9862C4.25607 11.0017 4.2597 11.0383 4.26159 11.0538C4.26984 11.1213 4.27578 11.1489 4.28767 11.2041Z" fill="#292556"/>
<path d="M4.42983 9.37254C7.1734 10.6363 9.60115 11.2488 12.0013 11.25C14.4022 11.2512 16.8301 10.6408 19.5736 9.37887C18.974 7.14133 16.8988 5.35472 14.214 4.70758C13.5123 4.53847 12.7691 4.40234 11.9997 4.40234C11.2302 4.40234 10.487 4.53847 9.78538 4.70758C7.10657 5.35326 5.03475 7.14038 4.42983 9.37254Z" fill="#292556"/>
<path d="M9.25 4.85417C9.4255 4.80022 9.60405 4.75128 9.78538 4.70758C10.487 4.53847 11.2302 4.40234 11.9997 4.40234C12.7691 4.40234 13.5123 4.53847 14.214 4.70758C14.3955 4.75134 14.5743 4.80031 14.75 4.85428V4.85428C14.75 4.05833 14.75 3.66035 14.6229 3.34536C14.4451 2.90447 14.0955 2.5549 13.6546 2.37705C13.3396 2.25 12.9417 2.25 12.1457 2.25H11.8542C11.0583 2.25 10.6604 2.25 10.3454 2.37702C9.90448 2.55486 9.55486 2.90448 9.37702 3.34545C9.25 3.6604 9.25 4.05832 9.25 4.85417V4.85417Z" fill="#292556"/>
</svg>
