<svg width="24" height="24" viewBox="0 0 24 24" fill="none" xmlns="http://www.w3.org/2000/svg">
<path fill-rule="evenodd" clip-rule="evenodd" d="M10.2 2.25H13.8C15.8624 2.25 16.8935 2.25 17.6164 2.7752C17.8499 2.94482 18.0552 3.15013 18.2248 3.38359C18.75 4.10647 18.75 5.13765 18.75 7.2V11.8C18.75 13.8624 18.75 14.8935 18.2248 15.6164C18.0552 15.8499 17.8499 16.0552 17.6164 16.2248C17.2308 16.505 16.7574 16.6357 16.0864 16.6967L16.6964 18.2215L17.6964 20.7215C17.8502 21.106 17.6631 21.5425 17.2785 21.6964C16.894 21.8502 16.4575 21.6631 16.3036 21.2785L15.4922 19.25H8.50777L7.69636 21.2785C7.54252 21.6631 7.10604 21.8502 6.72146 21.6964C6.33687 21.5425 6.14981 21.106 6.30364 20.7215L7.30364 18.2215L7.91355 16.6967C7.24264 16.6357 6.76924 16.505 6.38359 16.2248C6.15013 16.0552 5.94482 15.8499 5.7752 15.6164C5.25 14.8935 5.25 13.8624 5.25 11.8V7.2C5.25 5.13765 5.25 4.10647 5.7752 3.38359C5.94482 3.15013 6.15013 2.94482 6.38359 2.7752C7.10647 2.25 8.13765 2.25 10.2 2.25ZM9.50813 16.7491L9.10777 17.75H14.8922L14.4919 16.7491C14.275 16.75 14.0447 16.75 13.8 16.75H10.2C9.95526 16.75 9.72503 16.75 9.50813 16.7491ZM9 14C9.55228 14 10 13.5523 10 13C10 12.4477 9.55228 12 9 12C8.44772 12 8 12.4477 8 13C8 13.5523 8.44772 14 9 14ZM15 14C15.5523 14 16 13.5523 16 13C16 12.4477 15.5523 12 15 12C14.4477 12 14 12.4477 14 13C14 13.5523 14.4477 14 15 14ZM10.25 5C9.31257 5 8.84385 5 8.51527 5.23873C8.40915 5.31583 8.31583 5.40915 8.23873 5.51527C8 5.84385 8 6.31257 8 7.25V8.5C8 9.43743 8 9.90615 8.23873 10.2347C8.31583 10.3408 8.40915 10.4342 8.51527 10.5113C8.84385 10.75 9.31257 10.75 10.25 10.75H13.75C14.6874 10.75 15.1561 10.75 15.4847 10.5113C15.5908 10.4342 15.6842 10.3408 15.7613 10.2347C16 9.90615 16 9.43743 16 8.5V7.25C16 6.31257 16 5.84385 15.7613 5.51527C15.6842 5.40915 15.5908 5.31583 15.4847 5.23873C15.1561 5 14.6874 5 13.75 5H10.25Z" fill="#292556"/>
</svg>
