<svg width="24" height="24" viewBox="0 0 24 24" fill="none" xmlns="http://www.w3.org/2000/svg">
<path fill-rule="evenodd" clip-rule="evenodd" d="M19.75 6L4.25 6L4.25 14C4.25 15.8602 4.25 16.7903 4.46323 17.5513C5.00486 19.4845 6.51553 20.9951 8.44867 21.5368C9.20968 21.75 10.1398 21.75 12 21.75C13.8602 21.75 14.7903 21.75 15.5513 21.5368C17.4845 20.9951 18.9951 19.4845 19.5368 17.5513C19.75 16.7903 19.75 15.8602 19.75 14V6ZM10.25 9.5C10.25 9.08579 9.91421 8.75 9.5 8.75C9.08579 8.75 8.75 9.08579 8.75 9.5V16.5C8.75 16.9142 9.08579 17.25 9.5 17.25C9.91421 17.25 10.25 16.9142 10.25 16.5V9.5ZM15.25 9.5C15.25 9.08579 14.9142 8.75 14.5 8.75C14.0858 8.75 13.75 9.08579 13.75 9.5L13.75 16.5C13.75 16.9142 14.0858 17.25 14.5 17.25C14.9142 17.25 15.25 16.9142 15.25 16.5L15.25 9.5Z" fill="#292556"/>
<path d="M3 6L5 6L9 6M21 6L19 6L15 6M9 6V6C9 5.06812 9 4.60218 9.15224 4.23463C9.35523 3.74458 9.74458 3.35523 10.2346 3.15224C10.6022 3 11.0681 3 12 3V3C12.9319 3 13.3978 3 13.7654 3.15224C14.2554 3.35523 14.6448 3.74458 14.8478 4.23463C15 4.60218 15 5.06812 15 6V6M9 6L15 6" stroke="#292556" stroke-width="1.5" stroke-linecap="round" stroke-linejoin="round"/>
</svg>
