<svg width="24" height="24" viewBox="0 0 24 24" fill="none" xmlns="http://www.w3.org/2000/svg">
<path fill-rule="evenodd" clip-rule="evenodd" d="M19.75 6L4.25 6L4.25 14C4.25 15.8602 4.25 16.7903 4.46323 17.5513C5.00486 19.4845 6.51553 20.9951 8.44867 21.5368C9.20968 21.75 10.1398 21.75 12 21.75C13.8602 21.75 14.7903 21.75 15.5513 21.5368C17.4845 20.9951 18.9951 19.4845 19.5368 17.5513C19.75 16.7903 19.75 15.8602 19.75 14V6ZM10.2803 10.7197C9.98744 10.4268 9.51256 10.4268 9.21967 10.7197C8.92678 11.0126 8.92678 11.4874 9.21967 11.7803L10.9393 13.5L9.21967 15.2197C8.92678 15.5126 8.92678 15.9874 9.21967 16.2803C9.51256 16.5732 9.98744 16.5732 10.2803 16.2803L12 14.5607L13.7197 16.2803C14.0126 16.5732 14.4874 16.5732 14.7803 16.2803C15.0732 15.9874 15.0732 15.5126 14.7803 15.2197L13.0607 13.5L14.7803 11.7803C15.0732 11.4874 15.0732 11.0126 14.7803 10.7197C14.4874 10.4268 14.0126 10.4268 13.7197 10.7197L12 12.4393L10.2803 10.7197Z" fill="#292556"/>
<path d="M3 6L5 6L9 6M21 6L19 6L15 6M9 6V6C9 5.06812 9 4.60218 9.15224 4.23463C9.35523 3.74458 9.74458 3.35523 10.2346 3.15224C10.6022 3 11.0681 3 12 3V3C12.9319 3 13.3978 3 13.7654 3.15224C14.2554 3.35523 14.6448 3.74458 14.8478 4.23463C15 4.60218 15 5.06812 15 6V6M9 6L15 6" stroke="#292556" stroke-width="1.5" stroke-linecap="round" stroke-linejoin="round"/>
</svg>
