<svg width="24" height="24" viewBox="0 0 24 24" fill="none" xmlns="http://www.w3.org/2000/svg">
<path fill-rule="evenodd" clip-rule="evenodd" d="M20.25 13.3125C20.25 16.3155 17.8155 18.75 14.8125 18.75C14.6226 18.75 14.4349 18.7402 14.25 18.7212V19.4985C14.25 20.436 14.25 20.9047 14.0113 21.2333C13.9342 21.3394 13.8408 21.4327 13.7347 21.5098C13.4061 21.7485 12.9374 21.7485 12 21.7485C11.0626 21.7485 10.5939 21.7485 10.2653 21.5098C10.1592 21.4327 10.0658 21.3394 9.98873 21.2333C9.75 20.9047 9.75 20.436 9.75 19.4985V18.7212C9.56495 18.7402 9.37728 18.75 9.1875 18.75C6.18445 18.75 3.75 16.3155 3.75 13.3125C3.75 11.0318 5.15357 9.08041 7.14338 8.27254C7.06989 7.93249 7.03125 7.57984 7.03125 7.21875C7.03125 4.47459 9.25584 2.25 12 2.25C14.7442 2.25 16.9688 4.47459 16.9688 7.21875C16.9688 7.57984 16.9301 7.93249 16.8566 8.27254C18.8464 9.08041 20.25 11.0318 20.25 13.3125ZM12.75 10C12.75 9.58578 12.4142 9.25 12 9.25C11.5858 9.25 11.25 9.58578 11.25 10V12V13.7865L10.3354 13.3292C9.96493 13.1439 9.51442 13.2941 9.32918 13.6646C9.14394 14.0351 9.29411 14.4856 9.66459 14.6708L11.25 15.4635V18.5H12.75V15V12.4635L14.3354 11.6708C14.7059 11.4856 14.8561 11.0351 14.6708 10.6646C14.4856 10.2941 14.0351 10.1439 13.6646 10.3292L12.75 10.7865V10Z" fill="#292556"/>
</svg>
