<svg width="24" height="24" viewBox="0 0 24 24" fill="none" xmlns="http://www.w3.org/2000/svg">
<path fill-rule="evenodd" clip-rule="evenodd" d="M2.90717 3.95802C2 5.20663 2 6.98775 2 10.55V12.95C2 16.5122 2 18.2934 2.90717 19.542C3.20015 19.9452 3.55477 20.2999 3.95802 20.5928C5.20663 21.5 6.98775 21.5 10.55 21.5H12.95C16.5122 21.5 18.2934 21.5 19.542 20.5928C19.9452 20.2999 20.2999 19.9452 20.5928 19.542C21.5 18.2934 21.5 16.5122 21.5 12.95V10.55C21.5 6.98775 21.5 5.20663 20.5928 3.95802C20.2999 3.55477 19.9452 3.20015 19.542 2.90717C18.2934 2 16.5122 2 12.95 2H10.55C6.98775 2 5.20663 2 3.95802 2.90717C3.55477 3.20015 3.20015 3.55477 2.90717 3.95802ZM13.0982 7.17201C13 7.45266 13 7.80178 13 8.5V10.5004C13 11.1987 13 11.5479 13.0982 11.8286C13.2742 12.3313 13.6695 12.7265 14.1722 12.9024C14.4529 13.0006 14.8021 13.0005 15.5004 13.0004H15.5004H15.5004C16.1985 13.0003 16.5476 13.0002 16.8282 12.902C17.3308 12.7261 17.726 12.3308 17.9018 11.8282C18 11.5476 18 11.1985 18 10.5004V8.5C18 7.80178 18 7.45266 17.9018 7.17201C17.7259 6.66933 17.3307 6.2741 16.828 6.0982C16.5473 6 16.1982 6 15.5 6C14.8018 6 14.4527 6 14.172 6.0982C13.6693 6.2741 13.2741 6.66933 13.0982 7.17201ZM6.09822 7.17283C6.00002 7.45348 6.00002 7.80259 6.00003 8.50081L6.00011 15.5009C6.00012 16.199 6.00012 16.5481 6.09831 16.8288C6.27421 17.3315 6.66946 17.7267 7.17217 17.9026C7.4528 18.0008 7.80189 18.0008 8.50005 18.0008C9.19823 18.0008 9.54732 18.0008 9.82795 17.9026C10.3307 17.7267 10.7259 17.3315 10.9018 16.8287C11 16.5481 11 16.199 11 15.5008V8.50078C11 7.80257 11 7.45347 10.9018 7.17282C10.7259 6.67013 10.3307 6.27489 9.82798 6.099C9.54733 6.0008 9.19823 6.0008 8.50001 6.0008C7.8018 6.0008 7.45269 6.0008 7.17204 6.099C6.66934 6.2749 6.27411 6.67014 6.09822 7.17283Z" fill="#292556"/>
</svg>
