<svg width="24" height="24" viewBox="0 0 24 24" fill="none" xmlns="http://www.w3.org/2000/svg">
<path d="M7.15973 8.28576C9.01631 4.53225 9.94459 2.6555 11.3386 2.34041C11.774 2.24199 12.226 2.24199 12.6614 2.34041C14.0554 2.6555 14.9837 4.53225 16.8403 8.28577L19.9661 14.6054C21.3626 17.4288 22.0609 18.8405 21.6525 19.95C21.5235 20.3005 21.3244 20.621 21.0675 20.892C20.254 21.75 18.6791 21.75 15.5292 21.75H8.4708C5.32091 21.75 3.74596 21.75 2.93255 20.892C2.67559 20.621 2.47654 20.3005 2.34752 19.95C1.93911 18.8405 2.63737 17.4288 4.03389 14.6054L7.15973 8.28576Z" fill="#292556"/>
</svg>
