<svg width="24" height="24" viewBox="0 0 24 24" fill="none" xmlns="http://www.w3.org/2000/svg">
<path fill-rule="evenodd" clip-rule="evenodd" d="M2.66475 4.32983C4.12224 3.60109 5.8816 4.39242 6.30335 5.96641L9.05748 16.245C10.0093 16.2581 10.8932 16.7685 11.3804 17.5862L19.8062 15.3308C20.2064 15.2237 20.6176 15.4613 20.7247 15.8614C20.8318 16.2615 20.5942 16.6727 20.1941 16.7798L11.7684 19.0352C11.7517 20.2345 10.9456 21.3259 9.72978 21.6517C8.26275 22.0448 6.75482 21.1742 6.36173 19.7071C6.03594 18.4913 6.57819 17.2473 7.60859 16.6332L4.85446 6.35464C4.6784 5.6976 3.94398 5.36727 3.33557 5.67147C2.96509 5.85671 2.51459 5.70654 2.32934 5.33606C2.1441 4.96557 2.29427 4.51507 2.66475 4.32983ZM14.5745 6.89092C15.5081 6.64077 16.4677 7.19479 16.7178 8.12836L17.7531 11.9921C18.0032 12.9256 17.4492 13.8852 16.5157 14.1354L12.652 15.1706C11.7184 15.4208 10.7588 14.8668 10.5087 13.9332L9.47338 10.0695C9.22323 9.13594 9.77725 8.17635 10.7108 7.9262L14.5745 6.89092Z" fill="#292556"/>
</svg>
