<svg width="24" height="24" viewBox="0 0 24 24" fill="none" xmlns="http://www.w3.org/2000/svg">
<path d="M9 7V6C9 5.06812 9 4.60218 9.15224 4.23463C9.35523 3.74458 9.74458 3.35523 10.2346 3.15224C10.6022 3 11.0681 3 12 3V3C12.9319 3 13.3978 3 13.7654 3.15224C14.2554 3.35523 14.6448 3.74458 14.8478 4.23463C15 4.60218 15 5.06812 15 6V7" stroke="#292556" stroke-width="1.5" stroke-linejoin="round"/>
<path d="M5.25 13C5.25 10.6669 5.25 9.50041 5.69556 8.60561C6.10758 7.77815 6.77815 7.10758 7.60561 6.69556C8.50041 6.25 9.66694 6.25 12 6.25V6.25C14.3331 6.25 15.4996 6.25 16.3944 6.69556C17.2218 7.10758 17.8924 7.77815 18.3044 8.60561C18.75 9.50041 18.75 10.6669 18.75 13V14C18.75 16.3331 18.75 17.4996 18.3044 18.3944C17.8924 19.2218 17.2218 19.8924 16.3944 20.3044C15.4996 20.75 14.3331 20.75 12 20.75V20.75C9.66694 20.75 8.50041 20.75 7.60561 20.3044C6.77815 19.8924 6.10758 19.2218 5.69556 18.3944C5.25 17.4996 5.25 16.3331 5.25 14V13Z" fill="#292556"/>
<path d="M8.75 20.25C8.75 20.9404 8.19036 21.5 7.5 21.5C6.80964 21.5 6.25 20.9404 6.25 20.25C6.25 19.5596 6.80964 19 7.5 19C8.19036 19 8.75 19.5596 8.75 20.25Z" fill="#292556"/>
<path d="M17.75 20.25C17.75 20.9404 17.1904 21.5 16.5 21.5C15.8096 21.5 15.25 20.9404 15.25 20.25C15.25 19.5596 15.8096 19 16.5 19C17.1904 19 17.75 19.5596 17.75 20.25Z" fill="#292556"/>
</svg>
