<svg width="24" height="24" viewBox="0 0 24 24" fill="none" xmlns="http://www.w3.org/2000/svg">
<path d="M14.25 17.5C14.25 16.3954 15.0902 15.5 16.25 15.5C17.4098 15.5 18.25 16.3954 18.25 17.5C18.25 18.6046 17.4098 19.5 16.25 19.5C15.0902 19.5 14.25 18.6046 14.25 17.5Z" fill="#292556"/>
<path d="M5.75 17.5C5.75 16.3954 6.5902 15.5 7.75 15.5C8.9098 15.5 9.75 16.3954 9.75 17.5C9.75 18.6046 8.9098 19.5 7.75 19.5C6.5902 19.5 5.75 18.6046 5.75 17.5Z" fill="#292556"/>
<path fill-rule="evenodd" clip-rule="evenodd" d="M3.38359 5.0252C4.10647 4.5 5.13765 4.5 7.2 4.5H8.05C10.1124 4.5 11.1435 4.5 11.8664 5.0252C12.0999 5.19482 12.3052 5.40013 12.4748 5.63359C13 6.35647 13 7.38765 13 9.45V9.65C13 8.33759 13 7.68139 13.3342 7.22138C13.4422 7.07281 13.5728 6.94216 13.7214 6.83422C14.1814 6.5 14.8376 6.5 16.15 6.5H17.0256C17.8827 6.5 18.3113 6.5 18.6724 6.6748C18.7909 6.73213 18.9025 6.80265 19.0052 6.88501C19.3181 7.1361 19.5022 7.52314 19.8703 8.29721L21.6192 11.9749L21.6192 11.9749L21.6192 11.975L21.6192 11.975L21.6193 11.9751L21.6193 11.9751C21.6771 12.0967 21.706 12.1575 21.7236 12.2218C21.7294 12.2433 21.7343 12.2649 21.7382 12.2868C21.75 12.3525 21.75 12.4199 21.75 12.5546V14.85C21.75 16.1624 21.75 16.8186 21.4158 17.2786C21.3078 17.4272 21.1772 17.5578 21.0286 17.6658C20.7232 17.8877 20.3313 17.9623 19.7183 17.9873C19.7392 17.8281 19.75 17.6654 19.75 17.5C19.75 15.567 18.2796 14 16.25 14C14.2204 14 12.75 15.567 12.75 17.5C12.75 17.6698 12.7613 17.8367 12.7834 18H11.2166C11.2387 17.8367 11.25 17.6698 11.25 17.5C11.25 15.567 9.77965 14 7.75 14C5.72035 14 4.25 15.567 4.25 17.5C4.25 17.6654 4.26076 17.8281 4.28172 17.9873C3.6687 17.9623 3.2768 17.8877 2.97138 17.6658C2.82281 17.5578 2.69216 17.4272 2.58422 17.2786C2.25 16.8186 2.25 16.1624 2.25 14.85V12.25H8C8.41421 12.25 8.75 11.9142 8.75 11.5C8.75 11.0858 8.41421 10.75 8 10.75H2.25V9.45C2.25 9.2022 2.25 8.96928 2.25091 8.75H10C10.4142 8.75 10.75 8.41421 10.75 8C10.75 7.58579 10.4142 7.25 10 7.25H2.29593C2.35348 6.53296 2.48313 6.0356 2.7752 5.63359C2.94482 5.40013 3.15013 5.19482 3.38359 5.0252ZM14.6432 8.30916C14.5 8.50631 14.5 8.78754 14.5 9.35V10.65C14.5 11.2125 14.5 11.4937 14.6432 11.6908C14.6895 11.7545 14.7455 11.8105 14.8092 11.8568C15.0063 12 15.2875 12 15.85 12H17.8157C18.6783 12 19.1097 12 19.3316 11.7651C19.4017 11.6909 19.456 11.6031 19.491 11.5073C19.6018 11.2037 19.4089 10.8179 19.0231 10.0463L18.3731 8.74626C18.2122 8.42447 18.1318 8.26357 17.9988 8.15948C17.9552 8.12532 17.9079 8.0961 17.8579 8.07235C17.7053 8 17.5254 8 17.1657 8H15.85C15.2875 8 15.0063 8 14.8092 8.14324C14.7455 8.1895 14.6895 8.24549 14.6432 8.30916Z" fill="#292556"/>
</svg>
