<svg width="24" height="24" viewBox="0 0 24 24" fill="none" xmlns="http://www.w3.org/2000/svg">
<path d="M2.70339 6.96499C2.70339 6.23821 2.88503 5.55272 3.19534 4.96634C4.82854 7.15292 7.18971 8.66055 9.87831 9.04598C9.86823 8.92403 9.86309 8.80068 9.86309 8.67614C9.86309 6.22588 11.853 4.23955 14.3076 4.23955C15.0683 4.23955 15.7843 4.4303 16.4104 4.76649C16.5033 4.8164 16.5942 4.86951 16.683 4.92567L16.683 4.92568C17.1423 5.21616 17.372 5.3614 17.5359 5.38284C17.6014 5.39141 17.6324 5.39208 17.6982 5.38636C17.8629 5.37203 18.0427 5.26894 18.4023 5.06274L19.1275 4.64693C20.145 4.06355 20.6538 3.77185 20.9029 3.91574C20.9787 3.95951 21.0417 4.02241 21.0856 4.09815C21.2297 4.34713 20.9387 4.85623 20.3565 5.87443L19.0462 8.16598L19.0462 8.16599C18.981 8.28012 18.9484 8.33719 18.9316 8.39792C18.9259 8.41869 18.9219 8.43791 18.9188 8.45923C18.9098 8.52158 18.9173 8.59083 18.9322 8.72932C19.7539 16.3581 14.543 21 8.87541 21C6.2028 21 3.77811 19.9404 2 18.219C2.27484 18.2564 2.54999 18.2715 2.83206 18.2715C4.54251 18.2715 6.11674 17.6355 7.36552 16.5701C5.76859 16.5371 4.42142 15.3891 3.95975 13.8034C4.1868 13.8529 4.41385 13.8777 4.64847 13.8777C4.98148 13.8777 5.30692 13.8282 5.60965 13.7373C3.93704 13.3657 2.68069 11.7634 2.68069 9.83084V9.78129C3.17263 10.0786 3.73269 10.2603 4.3306 10.2768C3.34671 9.56656 2.70339 8.34423 2.70339 6.96499Z" fill="#292556"/>
</svg>
