<svg width="24" height="24" viewBox="0 0 24 24" fill="none" xmlns="http://www.w3.org/2000/svg">
<path fill-rule="evenodd" clip-rule="evenodd" d="M8 6.78571C8 4.41878 9.79086 2.5 12 2.5C14.2091 2.5 16 4.41878 16 6.78571C16 6.80052 15.9999 6.81531 15.9998 6.83008C15.9997 6.83843 15.9996 6.84678 15.9995 6.85512C15.9983 6.93667 15.9949 7.01767 15.9895 7.09805C15.9842 7.177 15.9769 7.25535 15.9677 7.33306C15.7168 9.44152 13 10 12 10C11 10 8.28317 9.44152 8.03232 7.33306C8.01632 7.19864 8.00614 7.06227 8.00205 6.92426C8.00112 6.89295 8.00051 6.86156 8.00021 6.83008C8.00007 6.81531 8 6.80052 8 6.78571ZM6.51677 7.24008C3.94119 8.2961 2.25 10.1518 2.25 12.1033C2.25 14.0747 3.97604 15.8115 6.59627 16.8292L4.46793 18.9715C4.176 19.2654 4.17756 19.7402 4.47141 20.0322C4.76526 20.3241 5.24013 20.3225 5.53207 20.0287L8.20833 17.3348C9.15517 17.5677 10.1784 17.7161 11.25 17.7635V20.9999C11.25 21.4141 11.5858 21.7499 12 21.7499C12.4142 21.7499 12.75 21.4141 12.75 20.9999V17.7635C13.8164 17.7163 14.8348 17.5692 15.7777 17.3383L18.4697 20.0302C18.7626 20.3231 19.2374 20.3231 19.5303 20.0302C19.8232 19.7373 19.8232 19.2625 19.5303 18.9696L17.3938 16.833C20.0196 15.8159 21.75 14.0772 21.75 12.1033C21.75 10.1518 20.0588 8.2961 17.4832 7.24008C17.4765 7.33062 17.4678 7.42067 17.4572 7.51016C17.2469 9.27767 15.9907 10.2898 14.9166 10.808C13.8522 11.3217 12.6955 11.4999 12 11.4999C11.3045 11.4999 10.1478 11.3217 9.08337 10.808C8.00928 10.2898 6.75311 9.27767 6.54282 7.51016C6.53217 7.42067 6.52348 7.33062 6.51677 7.24008Z" fill="#292556"/>
</svg>
