<svg width="24" height="24" viewBox="0 0 24 24" fill="none" xmlns="http://www.w3.org/2000/svg">
<path fill-rule="evenodd" clip-rule="evenodd" d="M13.2 2.25H10.8C7.23775 2.25 5.45663 2.25 4.20802 3.15717C3.80477 3.45015 3.45015 3.80477 3.15717 4.20802C2.25 5.45663 2.25 7.23775 2.25 10.8V13.2C2.25 16.7622 2.25 18.5434 3.15717 19.792C3.45015 20.1952 3.80477 20.5499 4.20802 20.8428C5.45663 21.75 7.23775 21.75 10.8 21.75H13.2C16.7622 21.75 18.5434 21.75 19.792 20.8428C20.1952 20.5499 20.5499 20.1952 20.8428 19.792C21.75 18.5434 21.75 16.7622 21.75 13.2V10.8C21.75 7.23775 21.75 5.45663 20.8428 4.20802C20.5499 3.80477 20.1952 3.45015 19.792 3.15717C18.5434 2.25 16.7622 2.25 13.2 2.25ZM6.25 6.5C6.25 6.08579 6.58579 5.75 7 5.75H17C17.4142 5.75 17.75 6.08579 17.75 6.5C17.75 6.91421 17.4142 7.25 17 7.25H7C6.58579 7.25 6.25 6.91421 6.25 6.5ZM8.06622 13.0302C8.21597 13.2363 8.62279 13.2363 9.43642 13.2363H10.3338L10.8748 17.5079C10.9466 18.0749 11.4289 18.5 12.0005 18.5C12.572 18.5 13.0543 18.0749 13.1261 17.5079L13.6671 13.2363H14.5645C15.3781 13.2363 15.785 13.2363 15.9347 13.0302C15.9811 12.9664 16.0117 12.8925 16.024 12.8146C16.0639 12.5629 15.7762 12.2753 15.2009 11.7L15.2009 11.7L12.6369 9.1359C12.3717 8.87075 12.2391 8.73818 12.0787 8.71277C12.0269 8.70456 11.9741 8.70456 11.9223 8.71277C11.7618 8.73818 11.6292 8.87075 11.3641 9.1359L8.80002 11.6999C8.2247 12.2753 7.93704 12.5629 7.97689 12.8146C7.98923 12.8925 8.01985 12.9664 8.06622 13.0302Z" fill="#292556"/>
</svg>
