<svg width="24" height="24" viewBox="0 0 24 24" fill="none" xmlns="http://www.w3.org/2000/svg">
<path d="M16 5.33695L17.1032 4.23373C17.6335 3.70344 17.8987 3.43829 18.2196 3.38746C18.3232 3.37105 18.4288 3.37105 18.5324 3.38746C18.8534 3.43829 19.1185 3.70344 19.6488 4.23373L19.7969 4.38185C20.3272 4.91214 20.5924 5.17729 20.6432 5.4982C20.6596 5.60185 20.6596 5.70743 20.6432 5.81107C20.5924 6.13199 20.3273 6.3971 19.7971 6.9273C19.414 7.3104 19.0064 7.71796 18.6702 8.05412" stroke="#292556" stroke-width="1.5" stroke-linejoin="round"/>
<path fill-rule="evenodd" clip-rule="evenodd" d="M18.7969 13.003C20.1637 11.6362 20.1637 9.42013 18.7969 8.0533L15.9685 5.22487C14.6016 3.85804 12.3856 3.85804 11.0187 5.22487L3.65067 12.5929C2.18621 14.0574 2.18621 16.4318 3.65067 17.8962L6.12554 20.3711C7.59001 21.8356 9.96438 21.8356 11.4288 20.3711L18.7969 13.003ZM7.69184 17.4609C8.31316 17.4609 8.81684 16.9573 8.81684 16.3359C8.81684 15.7146 8.31316 15.2109 7.69184 15.2109C7.07052 15.2109 6.56684 15.7146 6.56684 16.3359C6.56684 16.9573 7.07052 17.4609 7.69184 17.4609Z" fill="#292556"/>
</svg>
