<svg width="24" height="24" viewBox="0 0 24 24" fill="none" xmlns="http://www.w3.org/2000/svg">
<path d="M2.53206 15.9281C3.70522 13.0963 6.4686 11.25 9.53375 11.25H12.4565C15.5216 11.25 18.285 13.0963 19.4582 15.9281V15.9281C20.6067 18.7004 18.5692 21.75 15.5683 21.75H6.42189C3.42108 21.75 1.38353 18.7004 2.53206 15.9281V15.9281Z" fill="#292556"/>
<path d="M7.25 6C7.25 3.92893 8.92893 2.25 11 2.25C13.0711 2.25 14.75 3.92893 14.75 6C14.75 8.07107 13.0711 9.75 11 9.75C8.92893 9.75 7.25 8.07107 7.25 6Z" fill="#292556"/>
<path d="M17 4.50352C17.4705 4.91964 17.75 5.4395 17.7501 6.00337C17.7503 6.56725 17.4709 7.08699 17.0006 7.50293M19.7086 3C20.3748 3.90386 20.75 4.92428 20.7502 6.00422C20.7504 7.08097 20.3779 8.09839 19.7156 9" stroke="#292556" stroke-width="1.5" stroke-linecap="round" stroke-linejoin="round"/>
</svg>
