<svg width="24" height="24" viewBox="0 0 24 24" fill="none" xmlns="http://www.w3.org/2000/svg">
<path d="M21 15V15C21 16.8553 21 17.7829 20.7048 18.508C20.2985 19.5064 19.5064 20.2985 18.508 20.7048C17.7829 21 16.8657 21 15.0312 21V21H15M15 3V3C16.8553 3 17.7829 3 18.508 3.29516C19.5064 3.70153 20.2985 4.49362 20.7048 5.49197C21 6.2171 21 7.13432 21 8.96875V8.96875V9M3 9V9C3 7.14473 3 6.2171 3.29516 5.49197C3.70153 4.49362 4.49362 3.70153 5.49197 3.29516C6.2171 3 7.13432 3 8.96875 3V3H9M9 21V21C7.14473 21 6.2171 21 5.49197 20.7048C4.49362 20.2985 3.70153 19.5064 3.29516 18.508C3 17.7829 3 16.8657 3 15.0312V15.0312V15" stroke="#292556" stroke-width="1.5" stroke-linecap="round" stroke-linejoin="round"/>
<path d="M7.57967 13.7092C8.14652 12.6565 9.24559 12 10.4412 12H13.5588C14.7544 12 15.8535 12.6565 16.4203 13.7092V13.7092C17.5862 15.8744 16.018 18.5 13.5588 18.5H10.4412C7.98201 18.5 6.41377 15.8744 7.57967 13.7092V13.7092Z" fill="#292556"/>
<path d="M9.25 8.25C9.25 6.73122 10.4053 5.5 12 5.5C13.5947 5.5 14.75 6.73122 14.75 8.25C14.75 9.76878 13.5947 11 12 11C10.4053 11 9.25 9.76878 9.25 8.25Z" fill="#292556"/>
</svg>
