<svg width="24" height="24" viewBox="0 0 24 24" fill="none" xmlns="http://www.w3.org/2000/svg">
<path fill-rule="evenodd" clip-rule="evenodd" d="M11.9999 2.25C9.92885 2.25 8.24992 3.92893 8.24992 6C8.24992 8.07107 9.92885 9.75 11.9999 9.75C14.071 9.75 15.7499 8.07107 15.7499 6C15.7499 3.92893 14.071 2.25 11.9999 2.25ZM10.5337 11.25C7.46851 11.25 4.70513 13.0963 3.53198 15.9281C2.38345 18.7004 4.421 21.75 7.42181 21.75H16.5683C19.5691 21.75 21.6066 18.7004 20.4581 15.9281C19.2849 13.0963 16.5215 11.25 13.4564 11.25H10.5337ZM10 15.75C9.58579 15.75 9.25 16.0858 9.25 16.5C9.25 16.9142 9.58579 17.25 10 17.25H14C14.4142 17.25 14.75 16.9142 14.75 16.5C14.75 16.0858 14.4142 15.75 14 15.75H10Z" fill="#292556"/>
</svg>
