<svg width="24" height="24" viewBox="0 0 24 24" fill="none" xmlns="http://www.w3.org/2000/svg">
<path fill-rule="evenodd" clip-rule="evenodd" d="M11.9999 2.25C9.92885 2.25 8.24992 3.92893 8.24992 6C8.24992 8.07107 9.92885 9.75 11.9999 9.75C14.071 9.75 15.7499 8.07107 15.7499 6C15.7499 3.92893 14.071 2.25 11.9999 2.25ZM10.5337 11.25C7.46851 11.25 4.70513 13.0963 3.53198 15.9281C2.38345 18.7004 4.421 21.75 7.42181 21.75H16.5683C19.5691 21.75 21.6066 18.7004 20.4581 15.9281C19.2849 13.0963 16.5215 11.25 13.4564 11.25H10.5337ZM14.9881 15.5694C15.3026 15.2999 15.339 14.8264 15.0694 14.5119C14.7999 14.1974 14.3264 14.161 14.0119 14.4306L11.0392 16.9786L10.0303 15.9697C9.73744 15.6768 9.26256 15.6768 8.96967 15.9697C8.67678 16.2626 8.67678 16.7374 8.96967 17.0303L10.4697 18.5303C10.7468 18.8074 11.1905 18.8245 11.4881 18.5694L14.9881 15.5694Z" fill="#292556"/>
</svg>
