<svg width="24" height="24" viewBox="0 0 24 24" fill="none" xmlns="http://www.w3.org/2000/svg">
<path fill-rule="evenodd" clip-rule="evenodd" d="M17.25 12C14.7647 12 12.75 14.0147 12.75 16.5C12.75 18.9853 14.7647 21 17.25 21C19.7353 21 21.75 18.9853 21.75 16.5C21.75 14.0147 19.7353 12 17.25 12ZM19.7483 15.7172L17.7483 13.9394C17.4641 13.6869 17.0359 13.6869 16.7517 13.9394L14.7517 15.7172C14.4421 15.9924 14.4143 16.4665 14.6894 16.7761C14.9646 17.0856 15.4387 17.1135 15.7483 16.8383L16.5 16.1701V18.5C16.5 18.9142 16.8358 19.25 17.25 19.25C17.6642 19.25 18 18.9142 18 18.5V16.1701L18.7517 16.8383C19.0613 17.1135 19.5354 17.0856 19.8106 16.7761C20.0857 16.4665 20.0579 15.9924 19.7483 15.7172Z" fill="#292556"/>
<path fill-rule="evenodd" clip-rule="evenodd" d="M11.0429 2.25C8.97182 2.25 7.29288 3.92893 7.29288 6C7.29288 8.07107 8.97182 9.75 11.0429 9.75C13.114 9.75 14.7929 8.07107 14.7929 6C14.7929 3.92893 13.114 2.25 11.0429 2.25ZM9.57664 11.25C6.51148 11.25 3.7481 13.0963 2.57494 15.9281C1.42641 18.7004 3.46397 21.75 6.46478 21.75H14.343C12.4984 20.7265 11.25 18.759 11.25 16.5C11.25 14.3559 12.3747 12.4744 14.0663 11.4134C13.5577 11.306 13.0331 11.25 12.4994 11.25H9.57664Z" fill="#292556"/>
</svg>
