<svg width="24" height="24" viewBox="0 0 24 24" fill="none" xmlns="http://www.w3.org/2000/svg">
<path fill-rule="evenodd" clip-rule="evenodd" d="M21.75 12C21.75 17.3848 17.3848 21.75 12 21.75C6.61522 21.75 2.25 17.3848 2.25 12C2.25 6.61522 6.61522 2.25 12 2.25C17.3848 2.25 21.75 6.61522 21.75 12ZM14.5 7.75C14.5 9.13071 13.3807 10.25 12 10.25C10.6193 10.25 9.5 9.13071 9.5 7.75C9.5 6.36929 10.6193 5.25 12 5.25C13.3807 5.25 14.5 6.36929 14.5 7.75ZM13.4697 11.75C15.2987 11.75 16.9145 12.9409 17.456 14.6879C17.8502 15.96 16.8994 17.25 15.5677 17.25H8.43228C7.10056 17.25 6.1498 15.96 6.54403 14.6879C7.08546 12.9409 8.70135 11.75 10.5303 11.75H13.4697Z" fill="#292556"/>
</svg>
