<svg width="24" height="24" viewBox="0 0 24 24" fill="none" xmlns="http://www.w3.org/2000/svg">
<path fill-rule="evenodd" clip-rule="evenodd" d="M21.75 12C21.75 14.4972 20.8112 16.775 19.2673 18.5C17.4821 20.4947 14.8876 21.75 12 21.75C9.11238 21.75 6.51795 20.4947 4.73265 18.5C3.18877 16.775 2.25 14.4972 2.25 12C2.25 6.61522 6.61522 2.25 12 2.25C17.3848 2.25 21.75 6.61522 21.75 12ZM12 4.5C10.2051 4.5 8.75 5.95507 8.75 7.75C8.75 9.54493 10.2051 11 12 11C13.7949 11 15.25 9.54493 15.25 7.75C15.25 5.95507 13.7949 4.5 12 4.5ZM12 12.25C9.60285 12.25 7.38901 13.5329 6.19709 15.6127L6.1129 15.7596C5.89484 16.1401 5.93327 16.6201 6.23685 16.9366C7.76062 18.5251 9.67227 19.5 12 19.5C14.3277 19.5 16.2394 18.5251 17.7632 16.9366C18.0667 16.6201 18.1052 16.1401 17.8871 15.7596L17.8029 15.6127C16.611 13.5329 14.3972 12.25 12 12.25Z" fill="#292556"/>
</svg>
