<svg width="24" height="24" viewBox="0 0 24 24" fill="none" xmlns="http://www.w3.org/2000/svg">
<path fill-rule="evenodd" clip-rule="evenodd" d="M17.25 12C14.7647 12 12.75 14.0147 12.75 16.5C12.75 18.9853 14.7647 21 17.25 21C19.7353 21 21.75 18.9853 21.75 16.5C21.75 14.0147 19.7353 12 17.25 12ZM18.0328 14.0017C17.7576 13.6921 17.2835 13.6643 16.9739 13.9394C16.6644 14.2146 16.6365 14.6887 16.9117 14.9983L17.5799 15.75L15.25 15.75C14.8358 15.75 14.5 16.0858 14.5 16.5C14.5 16.9142 14.8358 17.25 15.25 17.25H17.5799L16.9117 18.0017C16.6365 18.3113 16.6644 18.7854 16.9739 19.0606C17.2835 19.3357 17.7576 19.3079 18.0328 18.9983L19.8106 16.9983C20.0631 16.7141 20.0631 16.2859 19.8106 16.0017L18.0328 14.0017Z" fill="#292556"/>
<path fill-rule="evenodd" clip-rule="evenodd" d="M11.0429 2.25C8.97182 2.25 7.29288 3.92893 7.29288 6C7.29288 8.07107 8.97182 9.75 11.0429 9.75C13.114 9.75 14.7929 8.07107 14.7929 6C14.7929 3.92893 13.114 2.25 11.0429 2.25ZM9.57664 11.25C6.51148 11.25 3.7481 13.0963 2.57494 15.9281C1.42641 18.7004 3.46397 21.75 6.46478 21.75H14.343C12.4984 20.7265 11.25 18.759 11.25 16.5C11.25 14.3559 12.3747 12.4744 14.0663 11.4134C13.5577 11.306 13.0331 11.25 12.4994 11.25H9.57664Z" fill="#292556"/>
</svg>
