<svg width="24" height="24" viewBox="0 0 24 24" fill="none" xmlns="http://www.w3.org/2000/svg">
<path fill-rule="evenodd" clip-rule="evenodd" d="M3.01393 3.89886C2.25 4.95032 2.25 6.45021 2.25 9.45V14.55C2.25 17.5498 2.25 19.0497 3.01393 20.1011C3.26065 20.4407 3.55928 20.7393 3.89886 20.9861C4.95032 21.75 6.45021 21.75 9.45 21.75H14.55C17.5498 21.75 19.0497 21.75 20.1011 20.9861C20.4407 20.7393 20.7393 20.4407 20.9861 20.1011C21.75 19.0497 21.75 17.5498 21.75 14.55V9.45C21.75 6.45021 21.75 4.95032 20.9861 3.89886C20.7393 3.55928 20.4407 3.26065 20.1011 3.01393C19.0497 2.25 17.5498 2.25 14.55 2.25H9.45C6.45021 2.25 4.95032 2.25 3.89886 3.01393C3.55928 3.26065 3.26065 3.55928 3.01393 3.89886ZM14.5 8.5C14.5 9.88071 13.3807 11 12 11C10.6193 11 9.5 9.88071 9.5 8.5C9.5 7.11929 10.6193 6 12 6C13.3807 6 14.5 7.11929 14.5 8.5ZM13.4697 12.5C15.2987 12.5 16.9145 13.6909 17.456 15.4379C17.8502 16.71 16.8994 18 15.5677 18H8.43228C7.10056 18 6.1498 16.71 6.54403 15.4379C7.08546 13.6909 8.70135 12.5 10.5303 12.5H13.4697Z" fill="#292556"/>
</svg>
