<svg width="24" height="24" viewBox="0 0 24 24" fill="none" xmlns="http://www.w3.org/2000/svg">
<path fill-rule="evenodd" clip-rule="evenodd" d="M17.25 12C14.7647 12 12.75 14.0147 12.75 16.5C12.75 17.4719 13.0581 18.3718 13.5819 19.1074L13.7197 18.9697L14.1758 19.4258C13.7197 18.9697 13.7197 18.9697 13.7197 18.9696L13.7198 18.9695L13.7203 18.969L13.7224 18.967L13.7304 18.9589L13.7621 18.9273L13.8842 18.8051L14.3373 18.352L15.8668 16.8225L19.7197 12.9697L19.8574 12.8319C19.1218 12.3081 18.2219 12 17.25 12ZM20.9181 13.8926L20.7803 14.0303L16.9275 17.8832L15.398 19.4127L14.9449 19.8658L14.8227 19.9879L14.7911 20.0196L14.783 20.0276L14.781 20.0296L14.7805 20.0302L14.7804 20.0303L14.2515 19.5015L14.7803 20.0303L14.6426 20.1681C15.3782 20.6919 16.2781 21 17.25 21C19.7353 21 21.75 18.9853 21.75 16.5C21.75 15.5281 21.4419 14.6282 20.9181 13.8926Z" fill="#292556"/>
<path fill-rule="evenodd" clip-rule="evenodd" d="M11.0429 2.25C8.97182 2.25 7.29288 3.92893 7.29288 6C7.29288 8.07107 8.97182 9.75 11.0429 9.75C13.114 9.75 14.7929 8.07107 14.7929 6C14.7929 3.92893 13.114 2.25 11.0429 2.25ZM9.57664 11.25C6.51148 11.25 3.7481 13.0963 2.57494 15.9281C1.42641 18.7004 3.46397 21.75 6.46478 21.75H14.343C12.4984 20.7265 11.25 18.759 11.25 16.5C11.25 14.3559 12.3747 12.4744 14.0663 11.4134C13.5577 11.306 13.0331 11.25 12.4994 11.25H9.57664Z" fill="#292556"/>
</svg>
