<svg width="24" height="24" viewBox="0 0 24 24" fill="none" xmlns="http://www.w3.org/2000/svg">
<path d="M19.4745 18.9745C20.1076 18.3412 20.4992 17.4663 20.4992 16.5C20.4992 14.567 18.9323 13 16.9996 13C15.0668 13 13.5 14.567 13.5 16.5C13.5 18.433 15.0668 20 16.9996 20C17.9661 20 18.8412 19.6081 19.4745 18.9745ZM19.4745 18.9745L21 20.5" stroke="#292556" stroke-width="1.5" stroke-linecap="round"/>
<path fill-rule="evenodd" clip-rule="evenodd" d="M11.0429 2.25C8.97182 2.25 7.29288 3.92893 7.29288 6C7.29288 8.07107 8.97182 9.75 11.0429 9.75C13.114 9.75 14.7929 8.07107 14.7929 6C14.7929 3.92893 13.114 2.25 11.0429 2.25ZM9.57664 11.25C6.51148 11.25 3.7481 13.0963 2.57494 15.9281C1.42641 18.7004 3.46397 21.75 6.46478 21.75H14.343C12.4984 20.7265 11.25 18.759 11.25 16.5C11.25 14.3559 12.3747 12.4744 14.0663 11.4134C13.5577 11.306 13.0331 11.25 12.4994 11.25H9.57664Z" fill="#292556"/>
</svg>
