<svg width="24" height="24" viewBox="0 0 24 24" fill="none" xmlns="http://www.w3.org/2000/svg">
<path fill-rule="evenodd" clip-rule="evenodd" d="M11.9999 2.25C9.92885 2.25 8.24992 3.92893 8.24992 6C8.24992 8.07107 9.92885 9.75 11.9999 9.75C14.071 9.75 15.7499 8.07107 15.7499 6C15.7499 3.92893 14.071 2.25 11.9999 2.25ZM10.5337 11.25C7.46851 11.25 4.70513 13.0963 3.53198 15.9281C2.38345 18.7004 4.421 21.75 7.42181 21.75H16.5683C19.5691 21.75 21.6066 18.7004 20.4581 15.9281C19.2849 13.0963 16.5215 11.25 13.4564 11.25H10.5337ZM12.7499 14.5C12.7499 14.0858 12.4141 13.75 11.9999 13.75C11.5857 13.75 11.2499 14.0858 11.2499 14.5V15.75H9.99992C9.5857 15.75 9.24992 16.0858 9.24992 16.5C9.24992 16.9142 9.5857 17.25 9.99992 17.25H11.2499V18.5C11.2499 18.9142 11.5857 19.25 11.9999 19.25C12.4141 19.25 12.7499 18.9142 12.7499 18.5V17.25H13.9999C14.4141 17.25 14.7499 16.9142 14.7499 16.5C14.7499 16.0858 14.4141 15.75 13.9999 15.75H12.7499V14.5Z" fill="#292556"/>
</svg>
