<svg width="24" height="24" viewBox="0 0 24 24" fill="none" xmlns="http://www.w3.org/2000/svg">
<path fill-rule="evenodd" clip-rule="evenodd" d="M8.24992 6C8.24992 3.92893 9.92885 2.25 11.9999 2.25C14.071 2.25 15.7499 3.92893 15.7499 6C15.7499 8.07107 14.071 9.75 11.9999 9.75C9.92885 9.75 8.24992 8.07107 8.24992 6ZM3.53198 15.9281C4.70513 13.0963 7.46851 11.25 10.5337 11.25H13.4564C16.5215 11.25 19.2849 13.0963 20.4581 15.9281C21.6066 18.7004 19.5691 21.75 16.5683 21.75H7.42181C4.421 21.75 2.38345 18.7004 3.53198 15.9281ZM12.75 18.5C12.75 18.0858 12.4142 17.75 12 17.75C11.5858 17.75 11.25 18.0858 11.25 18.5C11.25 18.9142 11.5858 19.25 12 19.25C12.4142 19.25 12.75 18.9142 12.75 18.5ZM11.25 16.25C11.25 16.6642 11.5858 17 12 17C12.4142 17 12.75 16.6642 12.75 16.25V14.5C12.75 14.0858 12.4142 13.75 12 13.75C11.5858 13.75 11.25 14.0858 11.25 14.5V16.25Z" fill="#292556"/>
</svg>
