<svg width="24" height="24" viewBox="0 0 24 24" fill="none" xmlns="http://www.w3.org/2000/svg">
<path fill-rule="evenodd" clip-rule="evenodd" d="M11.9999 2.25C9.92885 2.25 8.24992 3.92893 8.24992 6C8.24992 8.07107 9.92885 9.75 11.9999 9.75C14.071 9.75 15.7499 8.07107 15.7499 6C15.7499 3.92893 14.071 2.25 11.9999 2.25ZM10.5337 11.25C7.46851 11.25 4.70513 13.0963 3.53198 15.9281C2.38345 18.7004 4.421 21.75 7.42181 21.75H16.5683C19.5691 21.75 21.6066 18.7004 20.4581 15.9281C19.2849 13.0963 16.5215 11.25 13.4564 11.25H10.5337ZM10.7803 14.2197C10.4874 13.9268 10.0126 13.9268 9.71967 14.2197C9.42678 14.5126 9.42678 14.9874 9.71967 15.2803L10.9393 16.5L9.71967 17.7197C9.42678 18.0126 9.42678 18.4874 9.71967 18.7803C10.0126 19.0732 10.4874 19.0732 10.7803 18.7803L12 17.5607L13.2197 18.7803C13.5126 19.0732 13.9874 19.0732 14.2803 18.7803C14.5732 18.4874 14.5732 18.0126 14.2803 17.7197L13.0607 16.5L14.2803 15.2803C14.5732 14.9874 14.5732 14.5126 14.2803 14.2197C13.9874 13.9268 13.5126 13.9268 13.2197 14.2197L12 15.4393L10.7803 14.2197Z" fill="#292556"/>
</svg>
