<svg width="24" height="24" viewBox="0 0 24 24" fill="none" xmlns="http://www.w3.org/2000/svg">
<path fill-rule="evenodd" clip-rule="evenodd" d="M11.9995 2.25C9.92844 2.25 8.24951 3.92893 8.24951 6C8.24951 8.07107 9.92844 9.75 11.9995 9.75C14.0706 9.75 15.7495 8.07107 15.7495 6C15.7495 3.92893 14.0706 2.25 11.9995 2.25ZM10.8305 11.25C7.58542 11.25 4.65983 13.2047 3.4178 16.2027C2.32345 18.8442 4.26489 21.75 7.12416 21.75H16.8651C19.7244 21.75 21.6658 18.8442 20.5715 16.2027C19.3294 13.2047 16.4038 11.25 13.1587 11.25H10.8305ZM11.9997 14C12.3439 14 12.6439 14.2342 12.7273 14.5681C12.8311 14.9833 12.968 15.2201 13.1238 15.3759C13.2796 15.5317 13.5164 15.6686 13.9316 15.7724C14.2655 15.8559 14.4997 16.1558 14.4997 16.5C14.4997 16.8442 14.2655 17.1441 13.9316 17.2276C13.5164 17.3314 13.2796 17.4683 13.1238 17.6241C12.968 17.7799 12.8311 18.0167 12.7273 18.4319C12.6439 18.7658 12.3439 19 11.9997 19C11.6556 19 11.3556 18.7658 11.2721 18.4319C11.1683 18.0167 11.0314 17.7799 10.8756 17.6241C10.7199 17.4683 10.4831 17.3314 10.0678 17.2276C9.73395 17.1441 9.49972 16.8442 9.49972 16.5C9.49972 16.1558 9.73395 15.8559 10.0678 15.7724C10.4831 15.6686 10.7199 15.5317 10.8756 15.3759C11.0314 15.2201 11.1683 14.9833 11.2721 14.5681C11.3556 14.2342 11.6556 14 11.9997 14Z" fill="#292556"/>
</svg>
