<svg width="24" height="24" viewBox="0 0 24 24" fill="none" xmlns="http://www.w3.org/2000/svg">
<path fill-rule="evenodd" clip-rule="evenodd" d="M12.011 3.96345L11.9167 4.05767L19.9774 12.1183L20.0716 12.0241C20.9996 11.0961 21.4636 10.6321 21.5526 10.0705C21.5813 9.88911 21.5813 9.70434 21.5526 9.52296C21.4636 8.96135 20.9996 8.49735 20.0716 7.56934L16.4657 3.96345C15.5377 3.03544 15.0737 2.57143 14.5121 2.48248C14.3307 2.45376 14.146 2.45376 13.9646 2.48248C13.403 2.57143 12.939 3.03544 12.011 3.96345ZM10.8514 5.12302L10.8561 5.11833L18.9167 13.179L18.9121 13.1837L18.0699 16.3837L18.0699 16.3837L18.0699 16.3837C17.8677 17.1522 17.7666 17.5364 17.5307 17.8282C17.4532 17.9241 17.3657 18.0116 17.2698 18.0891C16.978 18.325 16.5938 18.4261 15.8253 18.6283L15.8253 18.6283L9.14613 20.386L9.14611 20.386L9.14608 20.386C6.2215 21.1556 4.7592 21.5404 3.83074 20.9363C3.53835 20.7461 3.28901 20.4967 3.09875 20.2043C2.49462 19.2759 2.87944 17.8136 3.64907 14.8889L5.40675 8.20976C5.60897 7.44131 5.71009 7.05709 5.94598 6.76525C6.02351 6.66934 6.11096 6.58188 6.20688 6.50435C6.49871 6.26846 6.88293 6.16735 7.65138 5.96513L10.8514 5.12302ZM9.34594 11.0228C10.3637 10.0051 12.0138 10.0051 13.0316 11.0228C14.0494 12.0406 14.0494 13.6907 13.0316 14.7085C12.1982 15.5419 10.9407 15.6929 9.95372 15.1614L7.7816 17.3335C7.48871 17.6264 7.01383 17.6264 6.72094 17.3335C6.42805 17.0406 6.42805 16.5657 6.72094 16.2728L8.89306 14.1007C8.36156 13.1137 8.51252 11.8562 9.34594 11.0228Z" fill="#292556"/>
</svg>
