<svg width="24" height="24" viewBox="0 0 24 24" fill="none" xmlns="http://www.w3.org/2000/svg">
<path d="M4.5 14.7496C4.5 11.3631 7.07664 8.53823 10.5 7.88965H3M19.5 14.7496C19.5 11.3631 16.9234 8.53823 13.5 7.88965H21" stroke="#292556" stroke-width="1.5" stroke-linecap="round" stroke-linejoin="round"/>
<path d="M9.75 7.75C9.75 6.50736 10.7574 5.5 12 5.5V5.5C13.2426 5.5 14.25 6.50736 14.25 7.75V7.75C14.25 8.99264 13.2426 10 12 10V10C10.7574 10 9.75 8.99264 9.75 7.75V7.75Z" fill="#292556"/>
<path d="M2.25 16.25C2.25 15.0074 3.25736 14 4.5 14V14C5.74264 14 6.75 15.0074 6.75 16.25V16.25C6.75 17.4926 5.74264 18.5 4.5 18.5V18.5C3.25736 18.5 2.25 17.4926 2.25 16.25V16.25Z" fill="#292556"/>
<path d="M17.25 16.25C17.25 15.0074 18.2574 14 19.5 14V14C20.7426 14 21.75 15.0074 21.75 16.25V16.25C21.75 17.4926 20.7426 18.5 19.5 18.5V18.5C18.2574 18.5 17.25 17.4926 17.25 16.25V16.25Z" fill="#292556"/>
<path d="M22 7.75C22 8.57843 21.3284 9.25 20.5 9.25C19.6716 9.25 19 8.57843 19 7.75C19 6.92157 19.6716 6.25 20.5 6.25C21.3284 6.25 22 6.92157 22 7.75Z" fill="#292556"/>
<path d="M5 7.75C5 8.57843 4.32843 9.25 3.5 9.25C2.67157 9.25 2 8.57843 2 7.75C2 6.92157 2.67157 6.25 3.5 6.25C4.32843 6.25 5 6.92157 5 7.75Z" fill="#292556"/>
</svg>
