<svg width="24" height="24" viewBox="0 0 24 24" fill="none" xmlns="http://www.w3.org/2000/svg">
<path fill-rule="evenodd" clip-rule="evenodd" d="M9.75 4.75C9.75 4.64424 9.82898 4.40983 10.2566 4.1604C10.6658 3.9217 11.2805 3.75 12 3.75C12.7195 3.75 13.3342 3.9217 13.7434 4.1604C14.171 4.40983 14.25 4.64424 14.25 4.75C14.25 4.83141 14.2108 4.97371 14.0054 5.15391C13.6427 5.47214 12.9192 5.75 12 5.75C11.0808 5.75 10.3573 5.47214 9.99463 5.15391C9.78923 4.97371 9.75 4.83141 9.75 4.75ZM12 2.25C11.0627 2.25 10.1774 2.47005 9.50078 2.86473C8.8426 3.24867 8.25 3.88926 8.25 4.75C8.25 5.38419 8.57892 5.90732 9.00537 6.28147C9.71758 6.90631 10.8322 7.25 12 7.25C13.1678 7.25 14.2824 6.90631 14.9946 6.28147C15.4211 5.90732 15.75 5.38419 15.75 4.75C15.75 3.88926 15.1574 3.24867 14.4992 2.86473C13.8226 2.47005 12.9373 2.25 12 2.25ZM12 8.75C11.0533 8.75 10.1853 8.50873 9.5098 8.1914C9.17666 8.03491 9.01009 7.95667 8.9108 7.99459C8.87647 8.0077 8.85301 8.0226 8.82654 8.0481C8.75 8.12185 8.75 8.29128 8.75 8.63013V12.1181V18.5003C8.75 20.2952 10.2051 21.7503 12 21.7503C13.7949 21.7503 15.25 20.2952 15.25 18.5003V12.1181V8.63013C15.25 8.29128 15.25 8.12185 15.1735 8.0481C15.147 8.0226 15.1235 8.0077 15.0892 7.99459C14.9899 7.95667 14.8233 8.03491 14.4902 8.1914C13.8147 8.50873 12.9467 8.75 12 8.75Z" fill="#292556"/>
</svg>
