<svg width="24" height="24" viewBox="0 0 24 24" fill="none" xmlns="http://www.w3.org/2000/svg">
<path fill-rule="evenodd" clip-rule="evenodd" d="M10.4844 6.00623C9.40365 4.92549 7.99348 4.21067 6.35088 3.90795C7.65327 2.99647 9.12662 2.43606 10.6392 2.22673C14.4663 4.67504 16.7514 8.96752 16.6057 13.6235C15.2904 13.4586 13.9644 12.826 12.7426 11.6778C12.6827 9.60827 12.0429 7.81463 10.8924 6.45044C10.7626 6.2965 10.6265 6.14836 10.4844 6.00623ZM18.1068 13.6099C18.228 9.1594 16.3521 5.00103 13.0996 2.19434C15.246 2.4339 17.3289 3.37666 18.9749 5.02263C20.8222 6.86994 21.7836 9.26616 21.8595 11.6871C20.6715 12.8 19.3855 13.4264 18.1068 13.6099ZM17.3086 15.1673C18.836 15.1667 20.3377 14.6754 21.7123 13.7293C21.4467 15.2284 20.833 16.677 19.8718 17.9458C15.4309 18.9216 10.7761 17.4992 7.58658 14.0981C8.62589 13.2641 10.0047 12.77 11.6917 12.7485C13.371 14.3356 15.3181 15.1681 17.3086 15.1673ZM6.55168 15.187C9.61233 18.4132 13.8751 20.0235 18.1553 19.7085C14.3632 22.744 8.85062 22.5733 5.25214 19.1962C5.33428 17.582 5.79719 16.2267 6.55168 15.187ZM5.99634 13.5214C4.9386 14.6125 4.23833 16.0322 3.92586 17.6714C3.00421 16.3631 2.43803 14.8809 2.22732 13.3589C4.02604 10.546 6.82003 8.5668 10.0212 7.77174C10.6849 8.69832 11.1089 9.87262 11.2188 11.2646C9.09117 11.3871 7.29918 12.1775 5.99634 13.5214ZM4.80426 5.24846C6.43694 5.30152 7.79252 5.77051 8.82733 6.54911C6.25726 7.35204 3.95879 8.85337 2.19482 10.8981C2.42353 8.8486 3.29335 6.85705 4.80426 5.24846Z" fill="#292556"/>
</svg>
