<svg width="24" height="24" viewBox="0 0 24 24" fill="none" xmlns="http://www.w3.org/2000/svg">
<path d="M15.25 12.8499V11.1501C15.25 7.53439 15.25 5.72652 14.3231 4.90576C13.9663 4.58978 13.5335 4.37196 13.0671 4.27367C11.8557 4.01836 10.4038 5.09557 7.5 7.25V16.75C10.4038 18.9044 11.8557 19.9816 13.0671 19.7263C13.5335 19.628 13.9663 19.4102 14.3231 19.0942C15.25 18.2735 15.25 16.4656 15.25 12.8499Z" fill="#292556"/>
<path d="M2.25 11.5V12.4581C2.25 13.4181 2.25 13.8981 2.36922 14.2896C2.63299 15.1561 3.30646 15.8371 4.1699 16.1104C4.56014 16.234 5.04009 16.2393 6 16.25V7.75008C5.0698 7.75006 4.6047 7.75005 4.22534 7.86142C3.32732 8.12506 2.62504 8.82733 2.36138 9.72534C2.25 10.1047 2.25 10.5698 2.25 11.5Z" fill="#292556"/>
<path d="M19 14V12M19 12V10M19 12H21M19 12H17" stroke="#292556" stroke-width="1.5" stroke-linecap="round" stroke-linejoin="round"/>
</svg>
