<svg width="24" height="24" viewBox="0 0 24 24" fill="none" xmlns="http://www.w3.org/2000/svg">
<path fill-rule="evenodd" clip-rule="evenodd" d="M15.0091 6.22271C14.8725 5.62845 14.6585 5.20228 14.3231 4.90533C13.9663 4.58935 13.5335 4.37153 13.0671 4.27324C11.8557 4.01793 10.4038 5.09514 7.5 7.24957V13.7318L15.0091 6.22271ZM6 15.2318L5.00258 16.2292C4.6466 16.2128 4.39352 16.1808 4.1699 16.11C3.30646 15.8366 2.63299 15.1556 2.36922 14.2892C2.25 13.8976 2.25 13.4176 2.25 12.4577V11.4996C2.25 10.5694 2.25 10.1043 2.36138 9.72492C2.62504 8.8269 3.32732 8.12464 4.22534 7.86099C4.6047 7.74962 5.0698 7.74963 6 7.74965V15.2318ZM7.79726 16.9701L15.246 9.52134C15.25 10.0184 15.25 10.56 15.25 11.1497V12.8494C15.25 16.4652 15.25 18.273 14.3231 19.0938C13.9663 19.4098 13.5335 19.6276 13.0671 19.7259C11.8977 19.9723 10.5043 18.9772 7.79726 16.9701Z" fill="#292556"/>
<path d="M3 21L21 3" stroke="#292556" stroke-width="1.5" stroke-linecap="round" stroke-linejoin="round"/>
</svg>
