<svg width="24" height="24" viewBox="0 0 24 24" fill="none" xmlns="http://www.w3.org/2000/svg">
<path fill-rule="evenodd" clip-rule="evenodd" d="M8.25 4.75C6.86929 4.75 5.75 5.86929 5.75 7.25H6.04167C6.00298 7.25 5.98364 7.25 5.96728 7.25014C3.9218 7.26799 2.26799 8.9218 2.25014 10.9673C2.25 10.9836 2.25 11.003 2.25 11.0417V12.6948C2.25 14.479 2.25 15.3711 2.4169 15.949C3.08195 18.2516 5.51838 19.5491 7.80019 18.8159C8.37282 18.6319 9.11308 18.134 10.5936 17.1382C10.8724 16.9507 11.0118 16.857 11.1515 16.7915C11.6891 16.5396 12.3109 16.5396 12.8485 16.7915C12.9882 16.857 13.1276 16.9507 13.4064 17.1382C14.8869 18.134 15.6272 18.6319 16.1998 18.8159C18.4816 19.5491 20.918 18.2516 21.5831 15.949C21.75 15.3711 21.75 14.479 21.75 12.6948V11.0417C21.75 11.003 21.75 10.9836 21.7499 10.9673C21.732 8.9218 20.0782 7.26799 18.0327 7.25014C18.0164 7.25 17.997 7.25 17.9583 7.25H18.25C18.25 5.86929 17.1307 4.75 15.75 4.75H8.25ZM16.75 7.25C16.75 6.69772 16.3023 6.25 15.75 6.25H8.25C7.69772 6.25 7.25 6.69772 7.25 7.25H16.75ZM10.25 10.5C10.25 10.0858 10.5858 9.75 11 9.75H13C13.4142 9.75 13.75 10.0858 13.75 10.5C13.75 10.9142 13.4142 11.25 13 11.25H11C10.5858 11.25 10.25 10.9142 10.25 10.5Z" fill="#292556"/>
</svg>
