<svg width="24" height="24" viewBox="0 0 24 24" fill="none" xmlns="http://www.w3.org/2000/svg">
<path fill-rule="evenodd" clip-rule="evenodd" d="M2.25008 13.4284V15.0002C2.25008 17.8125 2.25008 19.2186 2.96627 20.2044C3.19757 20.5227 3.47753 20.8027 3.79589 21.034C4.38963 21.4654 5.13589 21.6369 6.25008 21.7051V21V18V15V13.8L6.25008 13.7647V13.7647C6.25005 13.4201 6.25002 13.1039 6.27832 12.8427C6.3091 12.5585 6.38044 12.252 6.5843 11.9714C6.69224 11.8228 6.82289 11.6922 6.97146 11.5842C7.25205 11.3804 7.55859 11.309 7.84275 11.2783C8.10397 11.25 8.4202 11.25 8.76476 11.25L8.80008 11.25H15.2001L15.2354 11.25C15.58 11.25 15.8962 11.25 16.1574 11.2783C16.4416 11.309 16.7481 11.3804 17.0287 11.5842C17.1773 11.6922 17.3079 11.8228 17.4159 11.9714C17.6197 12.252 17.6911 12.5585 17.7218 12.8427C17.7501 13.1039 17.7501 13.4201 17.7501 13.7647V13.7647L17.7501 13.8V15V18V21V21.7051C18.8643 21.6369 19.6105 21.4654 20.2043 21.034C20.5226 20.8027 20.8026 20.5227 21.0339 20.2044C21.7501 19.2186 21.7501 17.8125 21.7501 15.0002V13.4284C21.7501 11.8765 21.7501 11.1006 21.5286 10.3814C21.4373 10.085 21.3186 9.79778 21.1741 9.52339C20.8235 8.85753 20.2759 8.30781 19.1806 7.20836C16.2718 4.28834 14.8174 2.82833 13.0682 2.49764C12.3624 2.3642 11.6378 2.3642 10.932 2.49764C9.18277 2.82833 7.72835 4.28834 4.81952 7.20836C3.72428 8.30781 3.17667 8.85753 2.82602 9.52339C2.68153 9.79778 2.56287 10.085 2.47159 10.3814C2.25008 11.1006 2.25008 11.8765 2.25008 13.4284ZM15.5007 21.75H8.49945C8.66121 21.7502 8.82802 21.7502 9.00008 21.7502H15.0001C15.1721 21.7502 15.339 21.7502 15.5007 21.75ZM12.0001 5.50018C10.7574 5.50018 9.75008 6.50754 9.75008 7.75018C9.75008 8.99282 10.7574 10.0002 12.0001 10.0002C13.2427 10.0002 14.2501 8.99282 14.2501 7.75018C14.2501 6.50754 13.2427 5.50018 12.0001 5.50018ZM16.2501 18.75V20.25H7.75008V18.75H16.2501ZM16.2501 15.75V17.25H7.75008V15.75H16.2501ZM16.2501 13.8V14.25H7.75008V13.8C7.75008 13.4083 7.75111 13.1748 7.76959 13.0043C7.78046 12.9039 7.79429 12.8628 7.79942 12.8509C7.81399 12.8313 7.83136 12.8139 7.85096 12.7994C7.86288 12.7942 7.90398 12.7804 8.00432 12.7695C8.17489 12.751 8.4084 12.75 8.80008 12.75H15.2001C15.5918 12.75 15.8253 12.751 15.9958 12.7695C16.0962 12.7804 16.1373 12.7942 16.1492 12.7994C16.1688 12.8139 16.1862 12.8313 16.2007 12.8509C16.2059 12.8628 16.2197 12.9039 16.2306 13.0043C16.2491 13.1748 16.2501 13.4083 16.2501 13.8ZM7.80146 12.847C7.80151 12.8471 7.80095 12.8484 7.79963 12.8504C7.80076 12.8479 7.80141 12.8468 7.80146 12.847ZM7.84702 12.8014C7.84689 12.8014 7.84793 12.8007 7.8505 12.7996C7.84842 12.8009 7.84714 12.8014 7.84702 12.8014ZM16.1519 12.8009C16.1526 12.8013 16.1531 12.8014 16.1531 12.8014C16.1533 12.8014 16.1522 12.8007 16.1497 12.7996C16.1506 12.8001 16.1513 12.8006 16.1519 12.8009ZM16.1987 12.847C16.1987 12.8468 16.1994 12.8479 16.2005 12.8504C16.1992 12.8484 16.1987 12.8471 16.1987 12.847Z" fill="#292556"/>
</svg>
