<svg width="24" height="24" viewBox="0 0 24 24" fill="none" xmlns="http://www.w3.org/2000/svg">
<path fill-rule="evenodd" clip-rule="evenodd" d="M16.2501 3.98323C14.9722 3.52525 13.5532 3.25 12 3.25C7.78458 3.25 4.55814 5.27737 2.45701 7.48265C2.17128 7.78253 2.18276 8.25727 2.48265 8.543C2.78253 8.82872 3.25727 8.81724 3.543 8.51735C5.44186 6.52438 8.29902 4.75 12 4.75C13.0942 4.75 14.1146 4.90509 15.0583 5.17506L16.2501 3.98323ZM12.7532 7.48011C12.5049 7.4591 12.2537 7.44825 12 7.44825C9.20726 7.44825 6.72171 8.76327 4.97673 10.4627C4.67999 10.7517 4.67371 11.2265 4.96271 11.5233C5.2517 11.82 5.72653 11.8263 6.02327 11.5373C7.38722 10.2089 9.22386 9.19313 11.2466 8.98674L12.7532 7.48011ZM14.4226 9.34622L15.5883 8.18056C16.9059 8.72771 18.0741 9.53834 19.0233 10.4627C19.32 10.7517 19.3263 11.2265 19.0373 11.5233C18.7483 11.82 18.2735 11.8263 17.9767 11.5373C16.9995 10.5856 15.7797 9.79433 14.4226 9.34622ZM10.3391 13.4297L12.1213 11.6476C13.8129 11.6787 15.3496 12.36 16.5135 13.4534C16.8154 13.737 16.8302 14.2116 16.5466 14.5135C16.263 14.8154 15.7884 14.8302 15.4865 14.5466C14.5551 13.6717 13.334 13.1465 12 13.1465C11.4202 13.1465 10.8618 13.2457 10.3391 13.4297ZM17.5441 6.22477L18.6392 5.12971C19.7673 5.81849 20.7378 6.63751 21.543 7.48265C21.8287 7.78253 21.8172 8.25727 21.5174 8.543C21.2175 8.82872 20.7427 8.81724 20.457 8.51735C19.6544 7.67494 18.6805 6.87158 17.5441 6.22477Z" fill="#292556"/>
<path d="M5 18L21 2" stroke="#292556" stroke-width="1.5" stroke-linecap="round" stroke-linejoin="round"/>
<path d="M14.5 18C14.5 19.3807 13.3807 20.5 12 20.5C10.6193 20.5 9.5 19.3807 9.5 18C9.5 16.6193 10.6193 15.5 12 15.5C13.3807 15.5 14.5 16.6193 14.5 18Z" fill="#292556"/>
</svg>
