<svg width="24" height="24" viewBox="0 0 24 24" fill="none" xmlns="http://www.w3.org/2000/svg">
<path d="M3 8C5 5.90088 8.0418 4 12 4C15.9582 4 19 5.90088 21 8M5.5 11C7.13825 9.40451 9.44477 8.19825 12 8.19825C14.5552 8.19825 16.8618 9.40451 18.5 11M8 14C9.06151 13.0028 10.4633 12.3965 12 12.3965C13.5367 12.3965 14.9385 13.0028 16 14" stroke="#292556" stroke-width="1.5" stroke-linecap="round" stroke-linejoin="round"/>
<path d="M14.5 18C14.5 19.3807 13.3807 20.5 12 20.5C10.6193 20.5 9.5 19.3807 9.5 18C9.5 16.6193 10.6193 15.5 12 15.5C13.3807 15.5 14.5 16.6193 14.5 18Z" fill="#292556"/>
</svg>
