<svg width="24" height="24" viewBox="0 0 24 24" fill="none" xmlns="http://www.w3.org/2000/svg">
<path fill-rule="evenodd" clip-rule="evenodd" d="M2.25 9.45C2.25 6.45021 2.25 4.95032 3.01393 3.89886C3.26065 3.55928 3.55928 3.26065 3.89886 3.01393C4.95032 2.25 6.45021 2.25 9.45 2.25H14.55C17.5498 2.25 19.0497 2.25 20.1011 3.01393C20.4407 3.26065 20.7393 3.55928 20.9861 3.89886C21.75 4.95032 21.75 6.45021 21.75 9.45V14.55C21.75 17.5498 21.75 19.0497 20.9861 20.1011C20.7393 20.4407 20.4407 20.7393 20.1011 20.9861C19.0497 21.75 17.5498 21.75 14.55 21.75H9.45C6.45021 21.75 4.95032 21.75 3.89886 20.9861C3.55928 20.7393 3.26065 20.4407 3.01393 20.1011C2.25 19.0497 2.25 17.5498 2.25 14.55V9.45ZM12 7.75C10.3262 7.75 8.76861 8.48236 7.53705 9.74575C7.24792 10.0424 6.77308 10.0484 6.47648 9.75927C6.17987 9.47014 6.17382 8.9953 6.46295 8.6987C7.93531 7.1883 9.86594 6.25 12 6.25C14.1341 6.25 16.0647 7.1883 17.537 8.6987C17.8262 8.9953 17.8201 9.47014 17.5235 9.75927C17.2269 10.0484 16.7521 10.0424 16.463 9.74575C15.2314 8.48236 13.6738 7.75 12 7.75ZM12.0048 10.3889C10.9248 10.3889 9.86796 10.8828 8.92042 11.8347C8.62819 12.1282 8.15331 12.1293 7.85976 11.8371C7.5662 11.5449 7.56513 11.07 7.85736 10.7764C9.01455 9.614 10.4343 8.88889 12.0048 8.88889C13.5705 8.88889 14.9864 9.60961 16.1417 10.7659C16.4344 11.0589 16.4342 11.5338 16.1412 11.8265C15.8482 12.1193 15.3733 12.1191 15.0805 11.8261C14.1352 10.8799 13.0816 10.3889 12.0048 10.3889ZM12 13.0278C11.462 13.0278 10.927 13.2742 10.4611 13.7659C10.1762 14.0665 9.70149 14.0793 9.40081 13.7944C9.10014 13.5095 9.08735 13.0348 9.37224 12.7341C10.0622 12.0059 10.9714 11.5278 12 11.5278C13.0286 11.5278 13.9378 12.0059 14.6278 12.7341C14.9127 13.0348 14.8999 13.5095 14.5992 13.7944C14.2985 14.0793 13.8238 14.0665 13.5389 13.7659C13.073 13.2742 12.538 13.0278 12 13.0278ZM12.0004 17.7312C13.0221 17.7312 13.8504 16.903 13.8504 15.8813C13.8504 14.8595 13.0221 14.0312 12.0004 14.0312C10.9787 14.0312 10.1504 14.8595 10.1504 15.8813C10.1504 16.903 10.9787 17.7312 12.0004 17.7312Z" fill="#292556"/>
</svg>
