<svg width="24" height="24" viewBox="0 0 24 24" fill="none" xmlns="http://www.w3.org/2000/svg">
<path d="M21.75 3.66846C21.75 3.04677 21.75 2.73593 21.5867 2.53085C21.5342 2.46493 21.4709 2.40833 21.3996 2.36343C21.1777 2.22374 20.8688 2.25807 20.2509 2.32672L13.9509 3.02672C13.4457 3.08286 13.1931 3.11092 13.0199 3.25526C12.9637 3.30208 12.9147 3.35687 12.8743 3.41788C12.75 3.60597 12.75 3.86014 12.75 4.36846V9.89811C12.75 10.4606 12.75 10.7418 12.8932 10.9389C12.9395 11.0026 12.9955 11.0586 13.0592 11.1049C13.2563 11.2481 13.5375 11.2481 14.1 11.2481H20.4C20.9625 11.2481 21.2437 11.2481 21.4408 11.1049C21.5045 11.0586 21.5605 11.0026 21.6068 10.9389C21.75 10.7418 21.75 10.4606 21.75 9.89811V3.66846Z" fill="#292556"/>
<path d="M11.25 4.83513C11.25 4.21344 11.25 3.9026 11.0867 3.69752C11.0342 3.6316 10.9709 3.575 10.8996 3.5301C10.6777 3.39041 10.3688 3.42473 9.75092 3.49339L3.45092 4.19339C2.9457 4.24952 2.69309 4.27759 2.51988 4.42193C2.46369 4.46875 2.41465 4.52353 2.37433 4.58455C2.25 4.77264 2.25 5.0268 2.25 5.53513V9.89811C2.25 10.4606 2.25 10.7418 2.39324 10.9389C2.4395 11.0026 2.49549 11.0586 2.55916 11.1049C2.75631 11.2481 3.03754 11.2481 3.6 11.2481H9.9C10.4625 11.2481 10.7437 11.2481 10.9408 11.1049C11.0045 11.0586 11.0605 11.0026 11.1068 10.9389C11.25 10.7418 11.25 10.4606 11.25 9.8981V4.83513Z" fill="#292556"/>
<path d="M3.6 12.7481C3.03754 12.7481 2.75631 12.7481 2.55916 12.8913C2.49549 12.9376 2.4395 12.9936 2.39324 13.0573C2.25 13.2544 2.25 13.5356 2.25 14.0981V18.4611C2.25 18.9694 2.25 19.2236 2.37433 19.4117C2.41465 19.4727 2.46369 19.5275 2.51988 19.5743C2.69309 19.7186 2.9457 19.7467 3.45092 19.8028L9.75092 20.5028C10.3688 20.5715 10.6777 20.6058 10.8996 20.4661C10.9709 20.4212 11.0342 20.3646 11.0867 20.2987C11.25 20.0936 11.25 19.7828 11.25 19.1611V14.0981C11.25 13.5356 11.25 13.2544 11.1068 13.0573C11.0605 12.9936 11.0045 12.9376 10.9408 12.8913C10.7437 12.7481 10.4625 12.7481 9.9 12.7481H3.6Z" fill="#292556"/>
<path d="M14.1 12.7481C13.5375 12.7481 13.2563 12.7481 13.0592 12.8913C12.9955 12.9376 12.9395 12.9936 12.8932 13.0573C12.75 13.2544 12.75 13.5356 12.75 14.0981V19.6277C12.75 20.1361 12.75 20.3902 12.8743 20.5783C12.9147 20.6393 12.9637 20.6941 13.0199 20.7409C13.1931 20.8853 13.4457 20.9134 13.9509 20.9695L20.2509 21.6695C20.8688 21.7381 21.1777 21.7725 21.3996 21.6328C21.4709 21.5879 21.5342 21.5313 21.5867 21.4654C21.75 21.2603 21.75 20.9494 21.75 20.3277V14.0981C21.75 13.5356 21.75 13.2544 21.6068 13.0573C21.5605 12.9936 21.5045 12.9376 21.4408 12.8913C21.2437 12.7481 20.9625 12.7481 20.4 12.7481H14.1Z" fill="#292556"/>
</svg>
