<svg width="24" height="24" viewBox="0 0 24 24" fill="none" xmlns="http://www.w3.org/2000/svg">
<path d="M6.5 2.25C6.0793 2.25 5.67161 2.31135 5.28606 2.4261C4.866 2.55112 4.70351 3.05974 4.97328 3.40514L7 6L6 7L3.40514 4.97328C3.05974 4.70351 2.55112 4.866 2.4261 5.28606C2.31135 5.67161 2.25 6.0793 2.25 6.5C2.25 8.84721 4.15279 10.75 6.5 10.75C6.82917 10.75 7.15028 10.7124 7.45898 10.6412L13.3588 16.541C13.2876 16.8497 13.25 17.1708 13.25 17.5C13.25 19.8472 15.1528 21.75 17.5 21.75C17.9207 21.75 18.3284 21.6886 18.7139 21.5739C19.134 21.4489 19.2965 20.9403 19.0267 20.5949L17 18L18 17L20.5949 19.0267C20.9403 19.2965 21.4489 19.134 21.5739 18.7139C21.6886 18.3284 21.75 17.9207 21.75 17.5C21.75 15.1528 19.8472 13.25 17.5 13.25C17.1707 13.25 16.8495 13.2876 16.5406 13.3589L10.6411 7.45935C10.7124 7.15054 10.75 6.8293 10.75 6.5C10.75 4.15279 8.84721 2.25 6.5 2.25Z" fill="#292556"/>
</svg>
