<svg width="24" height="24" viewBox="0 0 24 24" fill="none" xmlns="http://www.w3.org/2000/svg">
<path fill-rule="evenodd" clip-rule="evenodd" d="M15.1775 3.86711L15.1775 3.86711C16.0019 3.04271 16.4141 2.63051 16.8828 2.45991C17.3799 2.27899 17.9248 2.27899 18.4219 2.45991C18.8906 2.63051 19.3028 3.04271 20.1272 3.86711C20.9516 4.69151 21.3638 5.10371 21.5344 5.57244C21.7153 6.06952 21.7153 6.61445 21.5344 7.11153C21.3638 7.58026 20.9516 7.99246 20.1272 8.81686L17.9111 11.033C18.1468 12.4805 17.8508 13.9978 17.0231 15.2701C17.4313 15.7612 17.4052 16.4915 16.9447 16.9519C16.4847 17.4119 15.7553 17.4385 15.2642 17.0314C13.9913 17.8622 12.4722 18.1599 11.0228 17.9245L8.81491 20.1324C7.99051 20.9568 7.57831 21.369 7.10958 21.5396C6.6125 21.7205 6.06757 21.7205 5.57049 21.5396C5.10175 21.369 4.68956 20.9568 3.86516 20.1324C3.04076 19.308 2.62856 18.8958 2.45796 18.427C2.27704 17.93 2.27704 17.385 2.45796 16.888C2.62856 16.4192 3.04076 16.007 3.86516 15.1826L6.06898 12.9788C5.76677 11.1366 6.32606 9.18059 7.74683 7.75982C9.16689 6.33975 11.1217 5.78032 12.9631 6.08152L15.1775 3.86711ZM16.204 16.273L16.2321 16.2451L16.266 16.2109C16.2577 16.2228 16.2482 16.2342 16.2376 16.2448C16.2271 16.2554 16.2158 16.2648 16.204 16.273ZM13.3266 11.5488L14.5 11.5488C14.9142 11.5488 15.25 11.8846 15.25 12.2988C15.25 12.713 14.9142 13.0488 14.5 13.0488L13.2695 13.0488C13.0039 13.4698 12.5346 13.7495 12 13.7495C11.1716 13.7495 10.5 13.0779 10.5 12.2495C10.5 11.6943 10.8016 11.2095 11.25 10.9502L11.25 8.74951C11.25 8.3353 11.5858 7.99951 12 7.99951C12.4142 7.99951 12.75 8.3353 12.75 8.74951L12.75 10.9502C12.994 11.0913 13.1945 11.2992 13.3266 11.5488Z" fill="#292556"/>
</svg>
