<svg width="24" height="24" viewBox="0 0 24 24" fill="none" xmlns="http://www.w3.org/2000/svg">
<path d="M10.5 17V20.1C10.5 20.475 10.5 20.6625 10.5955 20.7939C10.6263 20.8363 10.6637 20.8737 10.7061 20.9045C10.8375 21 11.025 21 11.4 21H12.6C12.975 21 13.1625 21 13.2939 20.9045C13.3363 20.8737 13.3737 20.8363 13.4045 20.7939C13.5 20.6625 13.5 20.475 13.5 20.1V17M17.5556 12.9615V12.9615C18.0444 12.8769 18.2888 12.8346 18.4029 12.7144C18.5121 12.5993 18.5602 12.4394 18.5326 12.2833C18.5038 12.12 18.3232 11.9499 17.9622 11.6096L15.8168 9.58802C15.7496 9.52476 15.7161 9.49313 15.6957 9.46823C15.487 9.21362 15.5771 8.83036 15.8773 8.69533C15.9067 8.68212 15.9508 8.66875 16.0391 8.64201V8.64201C16.1209 8.61723 16.1618 8.60484 16.1901 8.59227C16.4781 8.46437 16.5774 8.10517 16.396 7.84748C16.3782 7.82214 16.3495 7.7905 16.292 7.72721L12.6663 3.73389C12.3913 3.43096 12.2538 3.2795 12.083 3.25075C12.028 3.24151 11.972 3.24151 11.917 3.25075C11.7462 3.2795 11.6087 3.43096 11.3337 3.73389L7.84476 7.57658C7.69861 7.73755 7.62553 7.81803 7.59331 7.88808C7.48698 8.11921 7.57116 8.39333 7.78888 8.52494C7.85486 8.56483 7.96051 8.59043 8.17182 8.64163V8.64163C8.40037 8.69701 8.51465 8.7247 8.58267 8.7669C8.80782 8.90657 8.88492 9.19761 8.75847 9.43043C8.72026 9.50078 8.63468 9.58142 8.46353 9.7427L6.3233 11.7595C6.07723 11.9913 5.95419 12.1073 5.91328 12.2129C5.83247 12.4216 5.90016 12.6585 6.07899 12.7931C6.16953 12.8612 6.33524 12.8946 6.66667 12.9615V12.9615C6.99809 13.0285 7.1638 13.0619 7.25434 13.13C7.43318 13.2645 7.50086 13.5015 7.42005 13.7102C7.37914 13.8158 7.2561 13.9317 7.01003 14.1636L5.65021 15.445C5.03583 16.0239 4.72864 16.3134 4.76453 16.5694C4.77562 16.6485 4.80552 16.7239 4.85172 16.7891C5.00117 17 5.42326 17 6.26744 17H17.7326C18.5767 17 18.9988 17 19.1483 16.7891C19.1945 16.7239 19.2244 16.6485 19.2355 16.5694C19.2714 16.3134 18.9642 16.0239 18.3498 15.445L17.1489 14.3134C16.7879 13.9732 16.6073 13.8031 16.5785 13.6398C16.5509 13.4837 16.599 13.3237 16.7082 13.2087C16.8223 13.0885 17.0667 13.0461 17.5556 12.9615Z" stroke="#292556" stroke-width="1.5" stroke-linecap="round" stroke-linejoin="round"/>
<path d="M13.6656 3.71984C12.9781 2.96161 12.6343 2.5825 12.2072 2.51045C12.0698 2.48727 11.9295 2.48723 11.7922 2.51031C11.365 2.58208 11.021 2.96097 10.333 3.71875L7.16264 7.21055C7.12719 7.24958 7.10947 7.2691 7.09739 7.28323C6.50187 7.97967 6.8333 9.05897 7.71707 9.30115C7.73499 9.30606 7.76062 9.31227 7.81186 9.32469V9.32469L5.74384 11.2734C5.5542 11.4521 5.45937 11.5415 5.4053 11.6087C4.86456 12.2812 5.15166 13.2863 5.966 13.5717C6.04743 13.6002 6.17514 13.626 6.43057 13.6776V13.6776L6.23589 13.861C4.69993 15.3084 3.93196 16.032 4.02167 16.6721C4.0494 16.8699 4.12415 17.0582 4.23964 17.2212C4.61328 17.7485 5.6685 17.7485 7.77894 17.7485H9.74988V19.4985C9.74988 20.436 9.74988 20.9047 9.98861 21.2333C10.0657 21.3394 10.159 21.4327 10.2651 21.5098C10.5937 21.7485 11.0624 21.7485 11.9999 21.7485V21.7485C12.9373 21.7485 13.406 21.7485 13.7346 21.5098C13.8407 21.4327 13.9341 21.3394 14.0112 21.2333C14.2499 20.9047 14.2499 20.436 14.2499 19.4985V17.7485H16.2208C18.3313 17.7485 19.3865 17.7485 19.7601 17.2212C19.8756 17.0582 19.9504 16.8699 19.9781 16.6721C20.0678 16.032 19.2998 15.3084 17.7639 13.861L17.6062 13.7124V13.7124C18.1578 13.617 18.4336 13.5692 18.5975 13.4876C19.2427 13.1662 19.4831 12.367 19.1222 11.743C19.0306 11.5845 18.8269 11.3926 18.4194 11.0087L16.5679 9.26399V9.26399C16.5836 9.25561 16.5915 9.25143 16.5976 9.24807C17.3014 8.86247 17.4646 7.92304 16.9323 7.32258C16.9276 7.31736 16.9217 7.31077 16.9097 7.29759L13.6656 3.71984Z" fill="#292556"/>
</svg>
