<svg width="24" height="24" viewBox="0 0 24 24" fill="none" xmlns="http://www.w3.org/2000/svg">
<path fill-rule="evenodd" clip-rule="evenodd" d="M3.08053 6.80561C2.45829 7.68462 2.40471 8.62898 2.29755 10.5177C2.26812 11.0364 2.25 11.5418 2.25 12C2.25 12.4582 2.26812 12.9636 2.29755 13.4823C2.40471 15.371 2.45829 16.3154 3.08053 17.1944C3.25806 17.4452 3.55764 17.763 3.79751 17.9551C4.63821 18.6282 5.57835 18.7375 7.45865 18.9563C8.88454 19.1221 10.4775 19.25 12 19.25C13.5225 19.25 15.1155 19.1221 16.5414 18.9563C18.4216 18.7375 19.3618 18.6282 20.2025 17.9551C20.4424 17.763 20.7419 17.4452 20.9195 17.1944C21.5417 16.3154 21.5953 15.371 21.7025 13.4823C21.7319 12.9636 21.75 12.4582 21.75 12C21.75 11.5418 21.7319 11.0364 21.7025 10.5177V10.5177C21.5953 8.62897 21.5417 7.68461 20.9195 6.80561C20.7419 6.55481 20.4424 6.23697 20.2025 6.04492C19.3618 5.37182 18.4216 5.26246 16.5414 5.04373C15.1155 4.87786 13.5225 4.75 12 4.75C10.4775 4.75 8.88454 4.87786 7.45865 5.04373C5.57835 5.26246 4.63821 5.37182 3.79751 6.04492C3.55764 6.23697 3.25806 6.55481 3.08053 6.80561ZM15.0335 11.4303C14.8198 10.9099 14.0725 10.5362 12.5777 9.78885C11.3338 9.1669 10.7118 8.85592 10.2085 8.95566C9.85352 9.02598 9.53596 9.22224 9.31432 9.50826C9 9.91389 9 10.6093 9 12V12C9 13.3907 9 14.0861 9.31432 14.4917C9.53596 14.7778 9.85352 14.974 10.2085 15.0443C10.7118 15.1441 11.3338 14.8331 12.5777 14.2111C14.0725 13.4638 14.8198 13.0901 15.0335 12.5697C15.1834 12.2047 15.1834 11.7953 15.0335 11.4303Z" fill="#292556"/>
</svg>
