<svg width="24" height="24" viewBox="0 0 24 24" fill="none" xmlns="http://www.w3.org/2000/svg">
<path d="M12 4.25C6.61522 4.25 2.25 8.7186 2.25 14.2309C2.25 14.9702 2.32852 15.6907 2.47749 16.3842C2.68161 17.3344 2.78367 17.8095 3.50019 18.5706C3.67081 18.7518 4.07766 19.0805 4.29067 19.2093C5.18522 19.75 5.97003 19.75 7.53965 19.75H16.4604C18.03 19.75 18.8148 19.75 19.7093 19.2093C19.9223 19.0805 20.3292 18.7518 20.4998 18.5706C21.2163 17.8095 21.3184 17.3344 21.5225 16.3842C21.6715 15.6907 21.75 14.9702 21.75 14.2309C21.75 8.7186 17.3848 4.25 12 4.25Z" fill="#292556" fill-opacity="0.18"/>
<path fill-rule="evenodd" clip-rule="evenodd" d="M12 16.25C13.1046 16.25 14 15.3546 14 14.25C14 13.4107 13.483 12.6921 12.75 12.3954L12.75 9C12.75 8.58579 12.4142 8.25 12 8.25C11.5858 8.25 11.25 8.58579 11.25 9L11.25 12.3954C10.517 12.6921 10 13.4107 10 14.25C10 15.3546 10.8954 16.25 12 16.25Z" fill="#292556"/>
</svg>
