<svg width="24" height="24" viewBox="0 0 24 24" fill="none" xmlns="http://www.w3.org/2000/svg">
<path d="M21.75 12C21.75 17.3848 17.3848 21.75 12 21.75C6.61522 21.75 2.25 17.3848 2.25 12C2.25 6.61522 6.61522 2.25 12 2.25C17.3848 2.25 21.75 6.61522 21.75 12Z" fill="#292556" fill-opacity="0.18"/>
<path d="M12.8867 8.20975C12.2186 8.69945 11.28 8.55481 10.7903 7.88668C10.3006 7.21855 10.4452 6.27995 11.1133 5.79025C11.7814 5.30055 12.72 5.44519 13.2097 6.11332C13.6995 6.78145 13.5548 7.72005 12.8867 8.20975Z" fill="#292556"/>
<path d="M8 9.5C9.58865 10.1677 10.7945 10.4999 12 10.5M12 10.5C13.2057 10.5001 14.4111 10.1678 16 9.5M12 10.5V12.5M12 12.5C12 14.5 10.9995 16 9.5 17M12 12.5C12 14.5 13.0005 16 14.5 17" stroke="#292556" stroke-width="1.5" stroke-linecap="round" stroke-linejoin="round"/>
</svg>
