<svg width="24" height="24" viewBox="0 0 24 24" fill="none" xmlns="http://www.w3.org/2000/svg">
<path d="M6.59961 10L7.27552 7.74696C7.89395 5.68552 8.20317 4.6548 8.74652 4.51266C8.91246 4.46925 9.08676 4.46925 9.25269 4.51266C9.79605 4.6548 10.1053 5.68552 10.7237 7.74696L13.2755 16.253C13.894 18.3145 14.2032 19.3452 14.7465 19.4873C14.9125 19.5307 15.0868 19.5307 15.2527 19.4873C15.796 19.3452 16.1053 18.3145 16.7237 16.253L17.3996 14" stroke="#292556" stroke-opacity="0.18" stroke-width="1.5" stroke-linecap="round" stroke-linejoin="round"/>
<path d="M3 12H4.66074C5.23196 12 5.51757 12 5.74566 11.8719C5.82013 11.8301 5.88893 11.7789 5.95038 11.7196C6.13862 11.5379 6.22069 11.2644 6.38483 10.7172L6.6 10M21 12H19.3393C18.768 12 18.4824 12 18.2543 12.1281C18.1799 12.1699 18.1111 12.2211 18.0496 12.2804C17.8614 12.4621 17.7793 12.7356 17.6152 13.2828L17.4 14" stroke="#292556" stroke-width="1.5" stroke-linecap="round" stroke-linejoin="round"/>
</svg>
