<svg width="24" height="24" viewBox="0 0 24 24" fill="none" xmlns="http://www.w3.org/2000/svg">
<path d="M19.5 10.5L21 9M19.5 10.5L14.5 9.5M19.5 10.5L20.5 15.5M19.5 10.5L16 14M16 14H14M16 14V16" stroke="#292556" stroke-width="1.5" stroke-linecap="round" stroke-linejoin="round"/>
<path d="M9.00049 20.25V9.75H9.4923C9.97554 9.75 10.2172 9.75 10.4004 9.63454C10.46 9.59701 10.5139 9.55128 10.5608 9.4987C10.7048 9.33694 10.7445 9.0986 10.8239 8.62194L11.2746 5.91786C11.5251 4.41467 11.6504 3.66308 11.3307 3.11648C11.2282 2.94122 11.096 2.78513 10.94 2.65521C10.4534 2.25 9.69139 2.25 8.16747 2.25H5.83368C4.30977 2.25 3.54781 2.25 3.0612 2.65521C2.90518 2.78513 2.77295 2.94122 2.67045 3.11648C2.35075 3.66308 2.47601 4.41467 2.72654 5.91786L3.17722 8.62194C3.25667 9.0986 3.29639 9.33694 3.4404 9.4987C3.48721 9.55128 3.54119 9.59701 3.60076 9.63454C3.784 9.75 4.02562 9.75 4.50886 9.75H5.00049V20.4C5.00049 20.9625 5.00049 21.2437 5.14373 21.4408C5.18999 21.5045 5.24598 21.5605 5.30965 21.6068C5.5068 21.75 5.78803 21.75 6.35049 21.75H21.0006C21.4148 21.75 21.7506 21.4142 21.7506 21C21.7506 20.5858 21.4148 20.25 21.0006 20.25H9.00049Z" fill="#292556" fill-opacity="0.18"/>
</svg>
