<svg width="24" height="24" viewBox="0 0 24 24" fill="none" xmlns="http://www.w3.org/2000/svg">
<path fill-rule="evenodd" clip-rule="evenodd" d="M5.77692 5.1716C6.07104 5.34223 6.21357 5.68939 6.12419 6.01747C5.39262 8.70281 5.90293 11.4192 7.30419 13.5617L12.9464 8.78755L11.9358 7.77693C11.6429 7.48404 11.6429 7.00916 11.9358 6.71627C12.2287 6.42338 12.7036 6.42338 12.9965 6.71627L14.0955 7.81527L15.928 6.2647L17.6841 8.02085L16.1335 9.85334L17.2396 10.9594C17.5325 11.2523 17.5325 11.7272 17.2396 12.0201C16.9467 12.313 16.4719 12.313 16.179 12.0201L15.1613 11.0024L10.3871 16.6446C12.5296 18.0459 15.246 18.5562 17.9313 17.8246C18.2594 17.7352 18.6066 17.8778 18.7772 18.1719C18.9479 18.466 18.8993 18.8381 18.6588 19.0786L18.292 19.4454C18.2796 19.4578 18.2668 19.4697 18.2536 19.4812C15.9805 21.4565 12.7461 22.2327 9.54182 21.2935C4.45826 19.8034 1.29841 14.5322 2.52367 9.47751C2.8781 8.01536 3.56242 6.73016 4.48292 5.67962C4.49377 5.66723 4.50503 5.6552 4.51668 5.64355L4.87023 5.29C5.11067 5.04956 5.48279 5.00096 5.77692 5.1716Z" fill="#292556" fill-opacity="0.18"/>
<path d="M16.7145 4.40152C17.4956 3.62047 18.7619 3.62047 19.5429 4.40152V4.40152C20.324 5.18257 20.324 6.4489 19.5429 7.22995V7.22995V7.22995C18.7619 8.01099 17.4956 8.01099 16.7145 7.22995V7.22995C15.9335 6.4489 15.9335 5.18257 16.7145 4.40152V4.40152Z" stroke="#292556" stroke-width="1.5" stroke-linecap="round" stroke-linejoin="round"/>
</svg>
