<svg width="24" height="24" viewBox="0 0 24 24" fill="none" xmlns="http://www.w3.org/2000/svg">
<path fill-rule="evenodd" clip-rule="evenodd" d="M4.58565 5.53151C4.32689 5.20806 3.85493 5.15562 3.53148 5.41438C3.20803 5.67313 3.15559 6.1451 3.41435 6.46855L5.34161 8.87762C3.44008 10.6561 2.25 13.1893 2.25 16C2.25 17.6998 3.76064 18.75 5.23959 18.75H18.7604C20.2394 18.75 21.75 17.6998 21.75 16C21.75 13.1893 20.5599 10.6561 18.6584 8.87762L20.5857 6.46855C20.8444 6.1451 20.792 5.67313 20.4685 5.41438C20.1451 5.15562 19.6731 5.20806 19.4143 5.53151L17.4876 7.93992C15.9244 6.87373 14.0342 6.25003 12 6.25003C9.96578 6.25003 8.07563 6.87373 6.51238 7.93992L4.58565 5.53151Z" fill="#292556" fill-opacity="0.18"/>
<path d="M8.5 11.25C7.25736 11.25 6.25 12.2574 6.25 13.5C6.25 14.7426 7.25736 15.75 8.5 15.75C9.74264 15.75 10.75 14.7426 10.75 13.5C10.75 12.2574 9.74264 11.25 8.5 11.25Z" fill="#292556"/>
<path d="M15.5 11.25C14.2574 11.25 13.25 12.2574 13.25 13.5C13.25 14.7426 14.2574 15.75 15.5 15.75C16.7426 15.75 17.75 14.7426 17.75 13.5C17.75 12.2574 16.7426 11.25 15.5 11.25Z" fill="#292556"/>
</svg>
