<svg width="24" height="24" viewBox="0 0 24 24" fill="none" xmlns="http://www.w3.org/2000/svg">
<path d="M12.0017 12.0002L7.00048 7M12.0017 12.0002L7 17M12.0017 12.0002L16.9995 17M12.0017 12.0002L16.9995 7.00048" stroke="#292556" stroke-width="1.5" stroke-linejoin="round"/>
<path d="M4.6 3.25C4.03754 3.25 3.75631 3.25 3.55916 3.39324C3.49549 3.4395 3.4395 3.49549 3.39324 3.55916C3.25 3.75631 3.25 4.03754 3.25 4.6V7.55147C3.25 8.77192 3.25 9.38214 3.55916 9.60676C3.65491 9.67633 3.76577 9.72225 3.88267 9.74077C4.26011 9.80055 4.69161 9.36905 5.55459 8.50607L8.50607 5.55459C9.36905 4.69161 9.80055 4.26011 9.74077 3.88267C9.72225 3.76577 9.67633 3.65491 9.60676 3.55916C9.38214 3.25 8.77192 3.25 7.55147 3.25H4.6Z" fill="#292556" fill-opacity="0.18"/>
<path d="M16.4485 3.25C15.2281 3.25 14.6179 3.25 14.3932 3.55916C14.3237 3.65491 14.2777 3.76577 14.2592 3.88267C14.1995 4.26011 14.6309 4.69161 15.4939 5.55459L18.4454 8.50607C19.3084 9.36905 19.7399 9.80055 20.1173 9.74077C20.2342 9.72225 20.3451 9.67633 20.4408 9.60676C20.75 9.38214 20.75 8.77192 20.75 7.55147V4.6C20.75 4.03754 20.75 3.75631 20.6068 3.55916C20.5605 3.49549 20.5045 3.4395 20.4408 3.39324C20.2437 3.25 19.9625 3.25 19.4 3.25H16.4485Z" fill="#292556" fill-opacity="0.18"/>
<path d="M5.55459 15.4939C4.69161 14.6309 4.26011 14.1995 3.88267 14.2592C3.76577 14.2777 3.65491 14.3237 3.55916 14.3932C3.25 14.6179 3.25 15.2281 3.25 16.4485V19.4C3.25 19.9625 3.25 20.2437 3.39324 20.4408C3.4395 20.5045 3.49549 20.5605 3.55916 20.6068C3.75631 20.75 4.03754 20.75 4.6 20.75H7.55147C8.77192 20.75 9.38214 20.75 9.60676 20.4408C9.67633 20.3451 9.72225 20.2342 9.74077 20.1173C9.80055 19.7399 9.36905 19.3084 8.50607 18.4454L5.55459 15.4939Z" fill="#292556" fill-opacity="0.18"/>
<path d="M20.75 16.4485C20.75 15.2281 20.75 14.6179 20.4408 14.3932C20.3451 14.3237 20.2342 14.2777 20.1173 14.2592C19.7399 14.1995 19.3084 14.6309 18.4454 15.4939L15.4939 18.4454C14.6309 19.3084 14.1995 19.7399 14.2592 20.1173C14.2777 20.2342 14.3237 20.3451 14.3932 20.4408C14.6179 20.75 15.2281 20.75 16.4485 20.75H19.4C19.9625 20.75 20.2437 20.75 20.4408 20.6068C20.5045 20.5605 20.5605 20.5045 20.6068 20.4408C20.75 20.2437 20.75 19.9625 20.75 19.4V16.4485Z" fill="#292556" fill-opacity="0.18"/>
</svg>
