<svg width="24" height="24" viewBox="0 0 24 24" fill="none" xmlns="http://www.w3.org/2000/svg">
<path d="M4.53026 3.4696C4.23733 3.17675 3.76246 3.17681 3.4696 3.46974C3.17675 3.76267 3.17681 4.23754 3.46974 4.5304L4.53026 3.4696ZM20.5322 4.5304C20.8251 4.23754 20.8252 3.76267 20.5324 3.46974C20.2395 3.17681 19.7646 3.17675 19.4717 3.4696L20.5322 4.5304ZM3.46974 19.4696C3.17681 19.7625 3.17675 20.2373 3.4696 20.5303C3.76246 20.8232 4.23733 20.8233 4.53026 20.5304L3.46974 19.4696ZM19.4717 20.5304C19.7646 20.8233 20.2395 20.8232 20.5324 20.5303C20.8252 20.2373 20.8251 19.7625 20.5322 19.4696L19.4717 20.5304ZM3.46974 4.5304L6.44278 7.50267L7.5033 6.44187L4.53026 3.4696L3.46974 4.5304ZM19.4717 3.4696L16.4987 6.44187L17.5592 7.50267L20.5322 4.5304L19.4717 3.4696ZM4.53026 20.5304L7.5033 17.5581L6.44278 16.4973L3.46974 19.4696L4.53026 20.5304ZM20.5322 19.4696L17.5592 16.4973L16.4987 17.5581L19.4717 20.5304L20.5322 19.4696Z" fill="#292556"/>
<path d="M10.7521 6.44864C10.7521 5.22819 10.7521 4.61797 10.4429 4.39335C10.3472 4.32378 10.2363 4.27786 10.1194 4.25935C9.74195 4.19957 9.31046 4.63106 8.44747 5.49405L5.496 8.44552C4.63301 9.30851 4.20152 9.74 4.2613 10.1174C4.27982 10.2343 4.32573 10.3452 4.3953 10.441C4.61992 10.7501 5.23015 10.7501 6.4506 10.7501L9.40207 10.7501C9.96453 10.7501 10.2458 10.7501 10.4429 10.6069C10.5066 10.5606 10.5626 10.5046 10.6088 10.441C10.7521 10.2438 10.7521 9.96257 10.7521 9.40011L10.7521 6.44864Z" fill="#292556" fill-opacity="0.18"/>
<path d="M15.5547 5.49405C14.6917 4.63106 14.2602 4.19957 13.8828 4.25935C13.7659 4.27786 13.655 4.32378 13.5593 4.39335C13.2501 4.61797 13.2501 5.22819 13.2501 6.44864L13.2501 9.40011C13.2501 9.96257 13.2501 10.2438 13.3934 10.441C13.4396 10.5046 13.4956 10.5606 13.5593 10.6069C13.7564 10.7501 14.0377 10.7501 14.6001 10.7501L17.5516 10.7501C18.772 10.7501 19.3823 10.7501 19.6069 10.441C19.6764 10.3452 19.7224 10.2343 19.7409 10.1174C19.8007 9.74 19.3692 9.30851 18.5062 8.44552L15.5547 5.49405Z" fill="#292556" fill-opacity="0.18"/>
<path d="M6.45059 13.2501C5.23015 13.2501 4.61992 13.2501 4.3953 13.5593C4.32573 13.655 4.27982 13.7659 4.2613 13.8828C4.20152 14.2602 4.63301 14.6917 5.496 15.5547L8.44747 18.5062C9.31046 19.3692 9.74195 19.8007 10.1194 19.7409C10.2363 19.7224 10.3472 19.6764 10.4429 19.6069C10.7521 19.3823 10.7521 18.772 10.7521 17.5516L10.7521 14.6001C10.7521 14.0377 10.7521 13.7564 10.6088 13.5593C10.5626 13.4956 10.5066 13.4396 10.4429 13.3934C10.2458 13.2501 9.96453 13.2501 9.40207 13.2501L6.45059 13.2501Z" fill="#292556" fill-opacity="0.18"/>
<path d="M14.6001 13.2501C14.0377 13.2501 13.7564 13.2501 13.5593 13.3934C13.4956 13.4396 13.4396 13.4956 13.3934 13.5593C13.2501 13.7564 13.2501 14.0377 13.2501 14.6001L13.2501 17.5516C13.2501 18.772 13.2501 19.3823 13.5593 19.6069C13.655 19.6764 13.7659 19.7224 13.8828 19.7409C14.2602 19.8007 14.6917 19.3692 15.5547 18.5062L18.5062 15.5547C19.3692 14.6917 19.8007 14.2602 19.7409 13.8828C19.7224 13.7659 19.6764 13.655 19.6069 13.5593C19.3823 13.2501 18.772 13.2501 17.5516 13.2501L14.6001 13.2501Z" fill="#292556" fill-opacity="0.18"/>
</svg>
