<svg width="24" height="24" viewBox="0 0 24 24" fill="none" xmlns="http://www.w3.org/2000/svg">
<path d="M11.2916 2.25C8.15266 2.25 6.5832 2.25 5.40718 3.00898C5.0253 3.25543 4.68078 3.55541 4.38414 3.89975C3.47059 4.96018 3.25468 6.51472 2.82287 9.62379L2.48953 12.0238C1.93432 16.0214 1.65671 18.0202 2.5334 19.4646C2.81485 19.9283 3.17365 20.3404 3.59424 20.6829C4.90432 21.75 6.9223 21.75 10.9582 21.75H13.0418C17.0778 21.75 19.0958 21.75 20.4058 20.6829C20.8264 20.3404 21.1852 19.9283 21.4667 19.4646C22.3434 18.0201 22.0658 16.0214 21.5105 12.0238L21.1772 9.62379C20.7454 6.51472 20.5295 4.96018 19.6159 3.89975C19.3193 3.55541 18.9748 3.25543 18.5929 3.00898C17.4169 2.25 15.8474 2.25 12.7085 2.25H11.2916Z" fill="#292556" fill-opacity="0.18"/>
<path d="M8 7V8C8 10.2091 9.79086 12 12 12C14.2091 12 16 10.2091 16 8V7" stroke="#292556" stroke-width="1.5" stroke-linecap="round" stroke-linejoin="round"/>
</svg>
