<svg width="24" height="24" viewBox="0 0 24 24" fill="none" xmlns="http://www.w3.org/2000/svg">
<path d="M2.73337 15.8527C2.32251 13.6893 2.11708 12.6076 2.24732 11.7296C2.53397 9.79729 3.86979 8.1839 5.71471 7.54175C6.55294 7.25 7.65398 7.25 9.85606 7.25H14.1158C16.3241 7.25 17.4282 7.25 18.2678 7.54278C20.1157 8.18721 21.4518 9.80604 21.7341 11.7427C21.8624 12.6225 21.653 13.7066 21.2343 15.8748V15.8748C20.9379 17.4096 20.7897 18.177 20.4855 18.8008C19.8202 20.1654 18.5967 21.1752 17.1307 21.5697C16.4605 21.75 15.679 21.75 14.1158 21.75H9.85606C8.28839 21.75 7.50455 21.75 6.83297 21.5689C5.36378 21.1726 4.1388 20.1584 3.47537 18.7889C3.17211 18.1629 3.02586 17.3928 2.73337 15.8527V15.8527Z" fill="#292556" fill-opacity="0.18"/>
<path d="M17 7.4V7.4C17 4.96995 15.0301 3 12.6 3H11.4C8.96995 3 7 4.96995 7 7.4V7.4" stroke="#292556" stroke-width="1.5" stroke-linejoin="round"/>
</svg>
