<svg width="24" height="24" viewBox="0 0 24 24" fill="none" xmlns="http://www.w3.org/2000/svg">
<path d="M20.3098 10.7628L10.7638 20.3088C8.8112 22.2614 5.64538 22.2614 3.69276 20.3088C1.74014 18.3562 1.74014 15.1903 3.69276 13.2377L13.2387 3.69178C15.1913 1.73916 18.3571 1.73916 20.3098 3.69178C22.2624 5.6444 22.2624 8.81022 20.3098 10.7628Z" fill="#292556" fill-opacity="0.18"/>
<path d="M7.58109 15.712C7.38583 15.9073 7.06925 15.9073 6.87399 15.712C6.67872 15.5167 6.67872 15.2001 6.87399 15.0049C7.06925 14.8096 7.38583 14.8096 7.58109 15.0049C7.77635 15.2001 7.77635 15.5167 7.58109 15.712Z" fill="#292556"/>
<path d="M8.99515 17.1261C8.79989 17.3213 8.48331 17.3213 8.28805 17.1261C8.09279 16.9308 8.09279 16.6142 8.28805 16.4189C8.48331 16.2237 8.79989 16.2237 8.99515 16.4189C9.19042 16.6142 9.19042 16.9308 8.99515 17.1261Z" fill="#292556"/>
<path d="M6.16703 17.1261C5.97177 17.3213 5.65519 17.3213 5.45992 17.1261C5.26466 16.9308 5.26466 16.6142 5.45992 16.4189C5.65519 16.2237 5.97177 16.2237 6.16703 16.4189C6.36229 16.6142 6.36229 16.9308 6.16703 17.1261Z" fill="#292556"/>
<path d="M7.58109 18.5401C7.38583 18.7354 7.06925 18.7354 6.87399 18.5401C6.67872 18.3449 6.67872 18.0283 6.87399 17.833C7.06925 17.6377 7.38583 17.6377 7.58109 17.833C7.77635 18.0283 7.77635 18.3449 7.58109 18.5401Z" fill="#292556"/>
<path d="M17.127 6.16605C16.9318 6.36132 16.6152 6.36132 16.4199 6.16605C16.2247 5.97079 16.2247 5.65421 16.4199 5.45895C16.6152 5.26368 16.9318 5.26368 17.127 5.45895C17.3223 5.65421 17.3223 5.97079 17.127 6.16605Z" fill="#292556"/>
<path d="M18.5411 7.58012C18.3458 7.77538 18.0293 7.77538 17.834 7.58012C17.6387 7.38485 17.6387 7.06827 17.834 6.87301C18.0293 6.67775 18.3458 6.67775 18.5411 6.87301C18.7364 7.06827 18.7364 7.38485 18.5411 7.58012Z" fill="#292556"/>
<path d="M15.713 7.58012C15.5177 7.77538 15.2011 7.77538 15.0059 7.58012C14.8106 7.38485 14.8106 7.06827 15.0059 6.87301C15.2011 6.67775 15.5177 6.67775 15.713 6.87301C15.9082 7.06827 15.9082 7.38485 15.713 7.58012Z" fill="#292556"/>
<path d="M17.127 8.99418C16.9318 9.18944 16.6152 9.18944 16.4199 8.99418C16.2247 8.79892 16.2247 8.48233 16.4199 8.28707C16.6152 8.09181 16.9318 8.09181 17.127 8.28707C17.3223 8.48233 17.3223 8.79892 17.127 8.99418Z" fill="#292556"/>
<path d="M12.0024 9.52736C12.6858 8.84394 13.7938 8.84394 14.4773 9.52736V9.52736C15.1607 10.2108 15.1607 11.3188 14.4773 12.0022L12.0024 14.4771C11.319 15.1605 10.2109 15.1605 9.52752 14.4771V14.4771C8.8441 13.7937 8.8441 12.6857 9.52752 12.0022L12.0024 9.52736Z" fill="#292556"/>
</svg>
