<svg width="24" height="24" viewBox="0 0 24 24" fill="none" xmlns="http://www.w3.org/2000/svg">
<path d="M2.25 12C2.25 9.66694 2.25 8.50041 2.69556 7.60561C3.10758 6.77815 3.77815 6.10758 4.60561 5.69556C5.50041 5.25 6.66694 5.25 9 5.25H12.5C14.8331 5.25 15.9996 5.25 16.8944 5.69556C17.7218 6.10758 18.3924 6.77815 18.8044 7.60561C19.25 8.50041 19.25 9.66694 19.25 12V12C19.25 14.3331 19.25 15.4996 18.8044 16.3944C18.3924 17.2218 17.7218 17.8924 16.8944 18.3044C15.9996 18.75 14.8331 18.75 12.5 18.75H9C6.66694 18.75 5.50041 18.75 4.60561 18.3044C3.77815 17.8924 3.10758 17.2218 2.69556 16.3944C2.25 15.4996 2.25 14.3331 2.25 12V12Z" fill="#292556" fill-opacity="0.18"/>
<path d="M21 13V11M10.75 14V10M7 10V14" stroke="#292556" stroke-width="1.5" stroke-linecap="round" stroke-linejoin="round"/>
</svg>
