<svg width="24" height="24" viewBox="0 0 24 24" fill="none" xmlns="http://www.w3.org/2000/svg">
<path d="M9 18.75H10.75V5.25H9C6.66694 5.25 5.50041 5.25 4.60561 5.69556C3.77815 6.10758 3.10758 6.77815 2.69556 7.60561C2.25 8.50041 2.25 9.66694 2.25 12C2.25 14.3331 2.25 15.4996 2.69556 16.3944C3.10758 17.2218 3.77815 17.8924 4.60561 18.3044C5.50041 18.75 6.66694 18.75 9 18.75Z" fill="#292556" fill-opacity="0.18"/>
<path d="M10.75 18.75H12.5C14.8331 18.75 15.9996 18.75 16.8944 18.3044C17.7218 17.8924 18.3924 17.2218 18.8044 16.3944C19.25 15.4996 19.25 14.3331 19.25 12C19.25 9.66694 19.25 8.50041 18.8044 7.60561C18.3924 6.77815 17.7218 6.10758 16.8944 5.69556C15.9996 5.25 14.8331 5.25 12.5 5.25H10.75V18.75Z" fill="#292556"/>
<path d="M21 11V13" stroke="#292556" stroke-width="1.5" stroke-linecap="round"/>
</svg>
