<svg width="24" height="24" viewBox="0 0 24 24" fill="none" xmlns="http://www.w3.org/2000/svg">
<path d="M19.2498 11.099C19.2498 14.2863 19.2498 15.8799 18.4381 16.9971C18.176 17.3579 17.8587 17.6752 17.4979 17.9373C16.3807 18.749 14.7871 18.749 11.5998 18.749H6.01876L18.1361 6.63168C18.8278 7.38761 19.2498 8.39444 19.2498 9.49984V11.099Z" fill="#292556"/>
<path d="M3 21L21 3" stroke="#292556" stroke-width="1.5" stroke-linecap="round" stroke-linejoin="round"/>
<path d="M21 11V13" stroke="#292556" stroke-width="1.5" stroke-linecap="round"/>
<path fill-rule="evenodd" clip-rule="evenodd" d="M15.8547 5.37751C15.0736 5.24899 14.0413 5.24899 12.4998 5.24899H8.99983C6.66676 5.24899 5.50023 5.24899 4.60544 5.69455C3.77798 6.10658 3.10741 6.77714 2.69538 7.6046C2.24982 8.4994 2.24982 9.66593 2.24982 11.999C2.24982 14.3321 2.24982 15.4986 2.69538 16.3934C2.92624 16.857 3.23827 17.2714 3.61359 17.6186L15.8547 5.37751ZM6.08989 18.6779C6.8118 18.749 7.73416 18.749 8.99983 18.749H12.4998C14.8329 18.749 15.9994 18.749 16.8942 18.3034C17.7217 17.8914 18.3922 17.2208 18.8043 16.3934C19.2498 15.4986 19.2498 14.3321 19.2498 11.999C19.2498 9.66593 19.2498 8.4994 18.8043 7.6046C18.6269 7.24838 18.4016 6.92123 18.1365 6.63127L6.08989 18.6779Z" fill="#292556" fill-opacity="0.18"/>
</svg>
