<svg width="24" height="24" viewBox="0 0 24 24" fill="none" xmlns="http://www.w3.org/2000/svg">
<path d="M3 21L21 3" stroke="#292556" stroke-width="1.5" stroke-linecap="round" stroke-linejoin="round"/>
<path fill-rule="evenodd" clip-rule="evenodd" d="M15.8585 5.3737C15.3226 4.90054 14.6931 4.52949 13.9995 4.29294V4.25C13.9995 3.14543 13.104 2.25 11.9995 2.25C10.8949 2.25 9.99948 3.14543 9.99948 4.25V4.2936C7.67766 5.08645 6.07384 7.38656 6.30123 9.9788C6.42878 11.4329 5.97289 12.8781 5.03403 13.9957L4.54295 14.5804C3.90957 15.3344 3.84438 16.281 4.17722 17.055L15.8585 5.3737ZM6.26969 18.4981C6.30269 18.4994 6.33594 18.5 6.36944 18.5H9.73662H14.2629H17.6315C19.6583 18.5 20.7616 16.1323 19.458 14.5804L18.9669 13.9957C18.028 12.8781 17.5721 11.4329 17.6997 9.9788C17.7784 9.08197 17.6378 8.22011 17.3242 7.44353L6.26969 18.4981ZM12 22C10.8954 22 10 21.1046 10 20H14C14 21.1046 13.1046 22 12 22Z" fill="#292556" fill-opacity="0.18"/>
<path d="M5.75 18.4619H17.5024C19.5733 18.4619 20.7006 16.0427 19.3686 14.457V14.457C18.1561 13.0135 17.5317 11.1662 17.6198 9.28302L17.75 6.5L5.75 18.4619Z" fill="#292556"/>
<path d="M11.9823 21.9619C10.8777 21.9619 9.98231 21.0665 9.98231 19.9619H13.9823C13.9823 21.0665 13.0869 21.9619 11.9823 21.9619Z" fill="#292556"/>
</svg>
