<svg width="24" height="24" viewBox="0 0 24 24" fill="none" xmlns="http://www.w3.org/2000/svg">
<path fill-rule="evenodd" clip-rule="evenodd" d="M9.99948 4.2936V4.25C9.99948 3.14543 10.8949 2.25 11.9995 2.25C13.104 2.25 13.9995 3.14543 13.9995 4.25V4.29294C16.3224 5.08517 17.9271 7.38584 17.6997 9.9788C17.5721 11.4329 18.028 12.8781 18.9669 13.9957L19.458 14.5804C20.7616 16.1323 19.6583 18.5 17.6315 18.5H14.2629H9.73662H6.36944C4.34265 18.5 3.23933 16.1323 4.54295 14.5804L5.03403 13.9957C5.97289 12.8781 6.42878 11.4329 6.30123 9.9788C6.07384 7.38656 7.67766 5.08645 9.99948 4.2936Z" fill="#292556" fill-opacity="0.18"/>
<path d="M10.5 10H13.5L10.5 13H13.5" stroke="#292556" stroke-width="1.5" stroke-linecap="round" stroke-linejoin="round"/>
<path d="M14 20H10C10 21.1046 10.8954 22 12 22C13.1046 22 14 21.1046 14 20Z" fill="#292556"/>
</svg>
