<svg width="24" height="24" viewBox="0 0 24 24" fill="none" xmlns="http://www.w3.org/2000/svg">
<path d="M10.3313 5.33865C10.2719 3.6159 8.85813 2.25001 7.13436 2.25003V2.25003C5.53666 2.25004 4.18397 3.42893 3.96562 5.01164L2.85645 13.0514C3.84832 12.2381 5.11708 11.75 6.49985 11.75C8.11124 11.75 9.56782 12.4129 10.6118 13.4808L10.544 11.5131C11.5913 10.9123 12.4087 10.9123 13.456 11.5131L13.3881 13.4806C14.4321 12.4128 15.8886 11.75 17.4998 11.75C18.8827 11.75 20.1516 12.2382 21.1435 13.0516L20.0348 5.01187C19.8165 3.42908 18.4638 2.25009 16.866 2.25007V2.25007C15.1423 2.25006 13.7285 3.61585 13.6691 5.33853L13.5556 8.62689C12.4244 8.1244 11.5757 8.12437 10.4446 8.6268L10.3313 5.33865Z" fill="#292556" fill-opacity="0.18"/>
<path d="M21.75 17.5C21.75 19.8472 19.8472 21.75 17.5 21.75C15.1528 21.75 13.25 19.8472 13.25 17.5C13.25 15.1528 15.1528 13.25 17.5 13.25C19.8472 13.25 21.75 15.1528 21.75 17.5Z" fill="#292556"/>
<path d="M10.75 17.5C10.75 19.8472 8.84721 21.75 6.5 21.75C4.15279 21.75 2.25 19.8472 2.25 17.5C2.25 15.1528 4.15279 13.25 6.5 13.25C8.84721 13.25 10.75 15.1528 10.75 17.5Z" fill="#292556"/>
</svg>
