<svg width="24" height="24" viewBox="0 0 24 24" fill="none" xmlns="http://www.w3.org/2000/svg">
<path d="M8.85193 21.75H15.1491C16.587 21.75 17.3059 21.75 17.899 21.4441C18.0932 21.344 18.2748 21.2211 18.4399 21.078C18.9441 20.6409 19.2111 19.9733 19.7451 18.6382L19.8851 18.2882C20.9696 15.5767 21.5119 14.2209 21.0713 13.179C20.9315 12.8485 20.7284 12.5485 20.4734 12.296C19.6696 11.5 18.2094 11.5 15.2891 11.5H8.71194C5.79155 11.5 4.33136 11.5 3.52757 12.296C3.27257 12.5485 3.06946 12.8485 2.9297 13.179C2.48915 14.2209 3.0314 15.5767 4.11592 18.2882L4.25591 18.6382C4.78989 19.9733 5.05688 20.6409 5.56113 21.078C5.72622 21.2211 5.90778 21.344 6.10196 21.4441C6.69507 21.75 7.41402 21.75 8.85193 21.75Z" fill="#292556" fill-opacity="0.18"/>
<path d="M15.635 9.27264L13.8357 6.97381C11.4898 3.97677 10.3169 2.47825 9.28375 2.3168C8.41636 2.18126 7.53814 2.48409 6.93865 3.12546C6.22461 3.88937 6.22461 5.79235 6.22461 9.5983C6.22461 9.73992 6.22461 9.81073 6.25247 9.86469C6.27627 9.91079 6.31382 9.94834 6.35992 9.97214C6.41388 10 6.48469 10 6.62631 10H15.2806C15.6342 10 15.811 10 15.8861 9.90658C15.9095 9.87742 15.9261 9.84338 15.9346 9.80696C15.9619 9.69027 15.8529 9.55106 15.635 9.27264Z" fill="#292556"/>
<path d="M6.46967 16.4697C6.17678 16.7626 6.17678 17.2374 6.46967 17.5303C6.76256 17.8232 7.23744 17.8232 7.53033 17.5303L6.46967 16.4697ZM17.5303 15.5303C17.8232 15.2374 17.8232 14.7626 17.5303 14.4697C17.2374 14.1768 16.7626 14.1768 16.4697 14.4697L17.5303 15.5303ZM14.3636 16.3636L13.8333 16.8939L14.3636 16.3636ZM14.9218 16.7867L15.0391 16.046L14.9218 16.7867ZM15.6364 16.3636L15.1061 15.8333L15.6364 16.3636ZM15.0782 16.7867L14.9609 16.046L15.0782 16.7867ZM12.9218 15.2133L12.8045 14.4725L12.9218 15.2133ZM13.6364 15.6364L13.1061 16.1667L13.6364 15.6364ZM13.0782 15.2133L12.9609 15.954L13.0782 15.2133ZM10.9218 16.7867L10.8045 17.5275L10.9218 16.7867ZM11.0782 16.7867L10.9609 16.046L11.0782 16.7867ZM8.92178 15.2133L9.03911 15.954L8.92178 15.2133ZM9.07822 15.2133L8.96089 15.954L9.07822 15.2133ZM7.53033 17.5303L8.89393 16.1667L7.83327 15.1061L6.46967 16.4697L7.53033 17.5303ZM9.10607 16.1667L9.83327 16.8939L10.8939 15.8333L10.1667 15.1061L9.10607 16.1667ZM12.1667 16.8939L12.8939 16.1667L11.8333 15.1061L11.1061 15.8333L12.1667 16.8939ZM13.1061 16.1667L13.8333 16.8939L14.8939 15.8333L14.1667 15.1061L13.1061 16.1667ZM16.1667 16.8939L17.5303 15.5303L16.4697 14.4697L15.1061 15.8333L16.1667 16.8939ZM13.8333 16.8939C13.954 17.0147 14.0865 17.1486 14.2118 17.2494C14.3482 17.3591 14.5421 17.486 14.8045 17.5275L15.0391 16.046C15.141 16.0621 15.1884 16.1099 15.1521 16.0807C15.1335 16.0658 15.105 16.0406 15.0594 15.9969C15.0139 15.9532 14.9618 15.9012 14.8939 15.8333L13.8333 16.8939ZM15.1061 15.8333C15.0382 15.9012 14.9861 15.9532 14.9406 15.9969C14.895 16.0406 14.8665 16.0658 14.8479 16.0807C14.8116 16.1099 14.859 16.0621 14.9609 16.046L15.1955 17.5275C15.4579 17.486 15.6518 17.3591 15.7882 17.2494C15.9135 17.1486 16.046 17.0147 16.1667 16.8939L15.1061 15.8333ZM14.8045 17.5275C14.934 17.548 15.066 17.548 15.1955 17.5275L14.9609 16.046C14.9868 16.0419 15.0132 16.0419 15.0391 16.046L14.8045 17.5275ZM12.8939 16.1667C12.9618 16.0988 13.0139 16.0468 13.0594 16.0031C13.105 15.9594 13.1335 15.9342 13.1521 15.9193C13.1884 15.8901 13.141 15.9379 13.0391 15.954L12.8045 14.4725C12.5421 14.514 12.3482 14.6409 12.2118 14.7506C12.0865 14.8514 11.954 14.9853 11.8333 15.1061L12.8939 16.1667ZM14.1667 15.1061C14.046 14.9853 13.9135 14.8514 13.7882 14.7506C13.6518 14.6409 13.4579 14.514 13.1955 14.4725L12.9609 15.954C12.859 15.9379 12.8116 15.8901 12.8479 15.9193C12.8665 15.9342 12.895 15.9594 12.9406 16.0031C12.9861 16.0468 13.0382 16.0988 13.1061 16.1667L14.1667 15.1061ZM13.0391 15.954C13.0132 15.9581 12.9868 15.9581 12.9609 15.954L13.1955 14.4725C13.066 14.452 12.934 14.452 12.8045 14.4725L13.0391 15.954ZM9.83327 16.8939C9.95403 17.0147 10.0865 17.1486 10.2118 17.2494C10.3482 17.3591 10.5421 17.486 10.8045 17.5275L11.0391 16.046C11.141 16.0621 11.1884 16.1099 11.1521 16.0807C11.1335 16.0658 11.105 16.0406 11.0594 15.9969C11.0139 15.9532 10.9618 15.9012 10.8939 15.8333L9.83327 16.8939ZM11.1061 15.8333C11.0382 15.9012 10.9861 15.9532 10.9406 15.9969C10.895 16.0406 10.8665 16.0658 10.8479 16.0807C10.8116 16.1099 10.859 16.0621 10.9609 16.046L11.1955 17.5275C11.4579 17.486 11.6518 17.3591 11.7882 17.2494C11.9135 17.1486 12.046 17.0147 12.1667 16.8939L11.1061 15.8333ZM10.8045 17.5275C10.934 17.548 11.066 17.548 11.1955 17.5275L10.9609 16.046C10.9868 16.0419 11.0132 16.0419 11.0391 16.046L10.8045 17.5275ZM8.89393 16.1667C8.96182 16.0988 9.0139 16.0468 9.0594 16.0031C9.105 15.9594 9.13353 15.9342 9.15207 15.9193C9.1884 15.8901 9.14098 15.9379 9.03911 15.954L8.80446 14.4725C8.54213 14.514 8.34819 14.6409 8.21183 14.7506C8.08648 14.8514 7.95403 14.9853 7.83327 15.1061L8.89393 16.1667ZM10.1667 15.1061C10.046 14.9853 9.91353 14.8514 9.78817 14.7506C9.65182 14.6409 9.45787 14.514 9.19554 14.4725L8.96089 15.954C8.85902 15.9379 8.8116 15.8901 8.84793 15.9193C8.86647 15.9342 8.895 15.9594 8.9406 16.0031C8.9861 16.0468 9.03818 16.0988 9.10607 16.1667L10.1667 15.1061ZM9.03911 15.954C9.0132 15.9581 8.9868 15.9581 8.96089 15.954L9.19554 14.4725C9.06599 14.452 8.93401 14.452 8.80446 14.4725L9.03911 15.954Z" fill="#292556"/>
</svg>
