<svg width="24" height="24" viewBox="0 0 24 24" fill="none" xmlns="http://www.w3.org/2000/svg">
<path fill-rule="evenodd" clip-rule="evenodd" d="M11.6283 12.3964H3.0597C3.05678 12.5961 3.10174 12.7936 3.19083 12.9723C3.40483 13.4017 3.83516 13.5455 4.07636 13.6119C4.34115 13.6848 4.68972 13.739 5.07068 13.7982L5.07069 13.7982L8.66235 14.3571L6.26979 18.5825C5.98511 19.0852 5.74366 19.5116 5.59623 19.8435C5.52056 20.0138 5.44805 20.2055 5.41593 20.4006C5.38339 20.5984 5.37957 20.8804 5.54218 21.1521C5.65566 21.3417 5.81738 21.4979 6.01085 21.6046C6.28809 21.7576 6.56977 21.7439 6.76628 21.7044C6.9602 21.6655 7.14921 21.5863 7.31679 21.5047C7.64326 21.3457 8.0609 21.0895 8.55331 20.7873L15.6594 16.4276L11.6283 12.3964ZM17.8506 15.0832L19.5505 14.0403C19.869 13.845 20.1623 13.6651 20.3739 13.499C20.5694 13.3454 20.9016 13.0523 20.9373 12.5823C20.942 12.5203 20.9421 12.4581 20.9376 12.3964H15.1639L17.8506 15.0832Z" fill="#292556" fill-opacity="0.18"/>
<path d="M21 21L3 3" stroke="#292556" stroke-width="1.5" stroke-linecap="round" stroke-linejoin="round"/>
<path fill-rule="evenodd" clip-rule="evenodd" d="M7.75935 8.52705L4.39661 10.838C4.07883 11.0563 3.78808 11.2561 3.58095 11.4364C3.39227 11.6007 3.0666 11.9166 3.05957 12.3963H11.6286L7.75935 8.52705ZM15.1641 12.3963H20.9375C20.9276 12.262 20.8961 12.1297 20.8438 12.0047C20.6618 11.57 20.2541 11.3965 20.0201 11.3125C19.767 11.2215 19.4319 11.1433 19.0681 11.0583L15.1948 10.153L17.6482 5.48073C17.9277 4.94845 18.1632 4.49985 18.3048 4.15386C18.3773 3.9768 18.4454 3.77957 18.4725 3.58152C18.4997 3.38261 18.4975 3.09327 18.3197 2.82144C18.1979 2.63506 18.0284 2.48462 17.829 2.38567C17.538 2.24135 17.2504 2.2733 17.0561 2.32389C16.8627 2.37426 16.6749 2.46523 16.5077 2.55811C16.1809 2.73961 15.7633 3.02657 15.2679 3.36707L15.2678 3.3671L15.2678 3.36712L9.85483 7.087L15.1641 12.3963Z" fill="#292556"/>
</svg>
