<svg width="24" height="24" viewBox="0 0 24 24" fill="none" xmlns="http://www.w3.org/2000/svg">
<path d="M17.1301 3.34107C17.8409 4.05186 18.1537 5.00999 18.0683 5.93842C18.9967 5.85308 19.9549 6.1658 20.6657 6.8766C21.9349 8.1458 21.9349 10.2036 20.6657 11.4728C19.579 12.5595 17.9142 12.7157 16.6613 11.9416L14.3017 14.3012L9.70551 9.70503L12.0651 7.34543C11.291 6.09249 11.4473 4.42774 12.5339 3.34107C13.8031 2.07186 15.8609 2.07186 17.1301 3.34107Z" fill="#292556"/>
<path d="M11.9419 16.6611C12.716 17.914 12.5597 19.5787 11.473 20.6654C10.2038 21.9346 8.14604 21.9346 6.87684 20.6654C6.16604 19.9546 5.85332 18.9965 5.93866 18.0681C5.01023 18.1534 4.0521 17.8407 3.34131 17.1299C2.0721 15.8607 2.0721 13.8029 3.34131 12.5337C4.42798 11.447 6.09273 11.2907 7.34568 12.0649L9.70527 9.70527L14.3015 14.3015L11.9419 16.6611Z" fill="#292556" fill-opacity="0.18"/>
</svg>
