<svg width="24" height="24" viewBox="0 0 24 24" fill="none" xmlns="http://www.w3.org/2000/svg">
<path d="M4.25 9C4.25 6.1877 4.25 4.78155 4.96619 3.79581C5.19748 3.47745 5.47745 3.19748 5.79581 2.96619C6.78155 2.25 8.1877 2.25 11 2.25H13C15.8123 2.25 17.2184 2.25 18.2042 2.96619C18.5226 3.19748 18.8025 3.47745 19.0338 3.79581C19.75 4.78155 19.75 6.1877 19.75 9V16.7396C19.75 18.404 19.75 19.2362 19.6413 19.6113C19.0762 21.5608 16.6662 22.2473 15.1586 20.8882C14.8686 20.6267 14.43 19.9194 13.553 18.5048V18.5048C13.3089 18.1112 13.1869 17.9144 13.07 17.7953C12.4821 17.1971 11.5179 17.1971 10.93 17.7953C10.8131 17.9144 10.6911 18.1112 10.447 18.5048V18.5048C9.56997 19.9194 9.13144 20.6267 8.84138 20.8882C7.33383 22.2473 4.92383 21.5608 4.35873 19.6113C4.25 19.2362 4.25 18.404 4.25 16.7396V9Z" fill="#292556" fill-opacity="0.18"/>
<path d="M14.25 12.25L12 10M12 10L9.75 7.75M12 10L14.25 7.75M12 10L9.75 12.25" stroke="#292556" stroke-width="1.5" stroke-linecap="round" stroke-linejoin="round"/>
</svg>
