<svg width="24" height="24" viewBox="0 0 24 24" fill="none" xmlns="http://www.w3.org/2000/svg">
<path d="M21 13V18.2C21 18.9499 21 19.3249 20.809 19.5878C20.7473 19.6727 20.6727 19.7473 20.5878 19.809C20.3249 20 19.9499 20 19.2 20H4.8C4.05005 20 3.67508 20 3.41221 19.809C3.32732 19.7473 3.25266 19.6727 3.19098 19.5878C3 19.3249 3 18.9499 3 18.2V13" stroke="#292556" stroke-width="1.5" stroke-linecap="round" stroke-linejoin="round"/>
<path fill-rule="evenodd" clip-rule="evenodd" d="M6.59206 3.68497C7.07868 3.56832 7.68889 3.77173 8.90931 4.17853C9.87411 4.50013 10.3565 4.66093 10.7151 4.95656C11.0474 5.2304 11.3032 5.5854 11.458 5.98716C11.625 6.42088 11.625 6.92938 11.625 7.94636V19.1249C11.625 19.332 11.7929 19.4999 12 19.4999C12.2071 19.4999 12.375 19.332 12.375 19.1249V7.94636C12.375 6.92937 12.375 6.42088 12.542 5.98716C12.6968 5.5854 12.9526 5.2304 13.2849 4.95656C13.6435 4.66093 14.1259 4.50013 15.0907 4.17853C16.3111 3.77173 16.9213 3.56832 17.408 3.68497C17.8552 3.79219 18.2423 4.07118 18.4855 4.4616C18.6835 4.7796 18.7333 5.22004 18.7458 5.96117C19.0625 5.85744 19.3487 5.76964 19.597 5.71839C19.9429 5.64699 20.3429 5.6167 20.7379 5.80038C20.9387 5.89376 21.12 6.02441 21.2721 6.18538C21.5712 6.50204 21.669 6.89103 21.7106 7.24183C21.7501 7.57386 21.75 7.98856 21.75 8.45477V8.45489L21.75 8.49715V12.9998C21.75 13.414 21.4142 13.7498 21 13.7498C20.5858 13.7498 20.25 13.414 20.25 12.9998V8.49715C20.25 7.97552 20.2487 7.65151 20.2211 7.41876C20.205 7.28282 20.1843 7.22686 20.1764 7.21004C20.1576 7.19135 20.136 7.17575 20.1123 7.16385C20.0938 7.16166 20.0342 7.15977 19.9002 7.18744C19.6706 7.23481 19.3628 7.33608 18.868 7.50103L18.75 7.54035V16.2695C18.75 17.2399 18.75 17.7251 18.5361 18.117C18.4662 18.2451 18.3805 18.3639 18.2811 18.4707C17.977 18.7976 17.5167 18.951 16.5961 19.2579L12.9961 20.4579L12.9961 20.4579C12.5577 20.604 12.3385 20.6771 12.1125 20.6916C12.0376 20.6964 11.9624 20.6964 11.8875 20.6916C11.6615 20.6771 11.4423 20.604 11.0039 20.4579L11.0039 20.4579L7.40389 19.2579C6.48331 18.951 6.02303 18.7976 5.71887 18.4707C5.61947 18.3639 5.53382 18.2451 5.46391 18.117C5.25 17.7251 5.25 17.2399 5.25 16.2695V7.54035L5.13204 7.50103C4.63719 7.33608 4.3294 7.23481 4.09986 7.18744C3.96578 7.15976 3.90616 7.16166 3.88771 7.16385C3.86403 7.17575 3.8424 7.19134 3.82362 7.21004C3.81571 7.22686 3.79506 7.28281 3.77891 7.41876C3.75126 7.65151 3.75 7.97552 3.75 8.49715V12.9998C3.75 13.414 3.41422 13.7498 3 13.7498C2.58579 13.7498 2.25 13.414 2.25 12.9998V8.49715L2.25 8.45491C2.24997 7.98865 2.24994 7.57389 2.28938 7.24183C2.33105 6.89103 2.42878 6.50204 2.72795 6.18538C2.88004 6.02441 3.0613 5.89376 3.26211 5.80038C3.65713 5.6167 4.05706 5.64699 4.40303 5.71839C4.65133 5.76964 4.93753 5.85743 5.2542 5.96117C5.26672 5.22004 5.31649 4.7796 5.51455 4.4616C5.75771 4.07118 6.14479 3.79219 6.59206 3.68497ZM3.82691 7.20413C3.82696 7.20425 3.82628 7.20559 3.82472 7.20778C3.82608 7.20511 3.82685 7.20401 3.82691 7.20413ZM3.88106 7.1651C3.88097 7.16501 3.88225 7.16462 3.88521 7.16418C3.88264 7.16496 3.88116 7.16518 3.88106 7.1651ZM20.1189 7.1651C20.1189 7.16518 20.1174 7.16496 20.1148 7.16418C20.1178 7.16462 20.119 7.16501 20.1189 7.1651ZM20.1737 7.2049C20.1733 7.20432 20.1731 7.20407 20.1731 7.20413C20.1731 7.20417 20.1732 7.20435 20.1733 7.20466C20.1736 7.20525 20.1743 7.20633 20.1753 7.20778C20.1746 7.20644 20.1741 7.2055 20.1737 7.2049Z" fill="#292556" fill-opacity="0.18"/>
</svg>
