<svg width="24" height="24" viewBox="0 0 24 24" fill="none" xmlns="http://www.w3.org/2000/svg">
<path fill-rule="evenodd" clip-rule="evenodd" d="M19.75 19C19.75 19.0244 19.7488 19.0486 19.7466 19.0724C19.75 19.1968 19.75 19.3335 19.75 19.4782V19.4782V19.5V19.5218C19.75 19.736 19.75 19.9329 19.7387 20.0982C19.7266 20.2759 19.699 20.4712 19.6168 20.6697C19.4392 21.0985 19.0985 21.4392 18.6697 21.6168C18.4712 21.699 18.2759 21.7266 18.0982 21.7387C17.9329 21.75 17.736 21.75 17.5218 21.75H17.5H6.5C5.25736 21.75 4.25 20.7426 4.25 19.5C4.25 19.3921 4.25759 19.286 4.27228 19.1822C4.25772 19.1238 4.25 19.0628 4.25 19V10.2V10.1555V10.1555C4.24999 8.69333 4.24998 7.53485 4.34986 6.61303C4.45226 5.66784 4.66683 4.88292 5.15717 4.20802C5.45015 3.80477 5.80477 3.45015 6.20802 3.15717C6.88291 2.66684 7.66783 2.45226 8.61302 2.34986C9.53485 2.24999 10.6933 2.24999 12.1555 2.25L12.2 2.25H17.2L17.2353 2.25C17.5799 2.24997 17.8961 2.24994 18.1573 2.27824C18.4415 2.30903 18.748 2.38036 19.0286 2.58422C19.1772 2.69216 19.3078 2.82281 19.4158 2.97138C19.6196 3.25197 19.691 3.55851 19.7218 3.84267C19.7501 4.10389 19.75 4.42013 19.75 4.76469L19.75 4.8V19ZM17.5 18.75C17.7432 18.75 17.8881 18.7504 17.9961 18.7578C18.0629 18.7623 18.0913 18.7684 18.0987 18.7703C18.1575 18.7956 18.2044 18.8425 18.2297 18.9013C18.2316 18.9087 18.2377 18.9371 18.2422 19.0039C18.2496 19.1119 18.25 19.2568 18.25 19.5C18.25 19.7432 18.2496 19.8881 18.2422 19.9961C18.2377 20.0629 18.2316 20.0913 18.2297 20.0987C18.2044 20.1575 18.1575 20.2044 18.0987 20.2297C18.0913 20.2316 18.0629 20.2377 17.9961 20.2422C17.8881 20.2496 17.7432 20.25 17.5 20.25H6.5C6.08579 20.25 5.75 19.9142 5.75 19.5C5.75 19.0858 6.08579 18.75 6.5 18.75H17.5Z" fill="#292556" fill-opacity="0.18"/>
<path d="M9 7H15M9 10H13" stroke="#292556" stroke-width="1.5" stroke-linecap="round" stroke-linejoin="round"/>
</svg>
