<svg width="24" height="24" viewBox="0 0 24 24" fill="none" xmlns="http://www.w3.org/2000/svg">
<path d="M4.25 8V16.7396C4.25 18.404 4.25 19.2362 4.35873 19.6113C4.92383 21.5608 7.33383 22.2473 8.84138 20.8882C9.13144 20.6267 9.56997 19.9194 10.447 18.5048L10.447 18.5048C10.6911 18.1112 10.8131 17.9144 10.93 17.7953C11.5179 17.1971 12.4821 17.1971 13.07 17.7953C13.1869 17.9144 13.3089 18.1112 13.553 18.5048C14.43 19.9194 14.8686 20.6267 15.1586 20.8882C16.6662 22.2473 19.0762 21.5608 19.6413 19.6113C19.75 19.2362 19.75 18.404 19.75 16.7396V8H4.25Z" fill="#292556" fill-opacity="0.18"/>
<path d="M14 2.25H10C8.13528 2.25 7.20291 2.25 6.47474 2.5742C5.62816 2.95113 4.95113 3.62816 4.5742 4.47474C4.25 5.20291 4.25 6.13528 4.25 8H19.75C19.75 6.13528 19.75 5.20291 19.4258 4.47474C19.0489 3.62816 18.3718 2.95113 17.5253 2.5742C16.7971 2.25 15.8647 2.25 14 2.25Z" fill="#292556"/>
</svg>
