<svg width="24" height="24" viewBox="0 0 24 24" fill="none" xmlns="http://www.w3.org/2000/svg">
<path d="M4.25 9C4.25 6.1877 4.25 4.78155 4.96619 3.79581C5.19748 3.47745 5.47745 3.19748 5.79581 2.96619C6.78155 2.25 8.1877 2.25 11 2.25H13C15.8123 2.25 17.2184 2.25 18.2042 2.96619C18.5226 3.19748 18.8025 3.47745 19.0338 3.79581C19.75 4.78155 19.75 6.1877 19.75 9V16.7396C19.75 18.404 19.75 19.2362 19.6413 19.6113C19.0762 21.5608 16.6662 22.2473 15.1586 20.8882C14.8686 20.6267 14.43 19.9194 13.553 18.5048C13.3089 18.1112 13.1869 17.9144 13.07 17.7953C12.4821 17.1971 11.5179 17.1971 10.93 17.7953C10.8131 17.9144 10.6911 18.1112 10.447 18.5048C9.56997 19.9194 9.13144 20.6267 8.84138 20.8882C7.33383 22.2473 4.92383 21.5608 4.35873 19.6113C4.25 19.2362 4.25 18.404 4.25 16.7396V9Z" fill="#292556" fill-opacity="0.18"/>
<path d="M11.4463 13.5319C11.3599 13.4717 11.2383 13.3847 11.0924 13.2738C10.8014 13.0526 10.4086 12.7325 10.002 12.3365C9.21581 11.5709 8.26264 10.4116 8.04415 9.05506C7.81256 7.61723 8.52399 6.50845 9.61058 6.13253C10.3977 5.86021 11.2961 6.00651 11.9986 6.57533C12.7032 6.00592 13.6052 5.86069 14.3928 6.1321C15.4827 6.50775 16.197 7.61902 15.9511 9.06172C15.7207 10.4131 14.7712 11.5697 13.9874 12.3356C13.5825 12.7313 13.192 13.0513 12.9028 13.2725C12.7577 13.3834 12.637 13.4704 12.5511 13.5305L12.4079 13.6282C12.1598 13.7898 11.8392 13.7904 11.5906 13.6296L11.4463 13.5319Z" fill="#292556"/>
</svg>
