<svg width="24" height="24" viewBox="0 0 24 24" fill="none" xmlns="http://www.w3.org/2000/svg">
<path d="M9.5372 7.03458C11.0269 5.54492 11.7717 4.80009 12.6642 4.62255C13.0506 4.54569 13.4484 4.54569 13.8348 4.62255C14.7273 4.80009 15.4722 5.54492 16.9618 7.03458V7.03458C18.4515 8.52423 19.1963 9.26906 19.3738 10.1616C19.4507 10.548 19.4507 10.9458 19.3738 11.3322C19.1963 12.2247 18.4515 12.9695 16.9618 14.4592L12.104 19.317C10.6143 20.8067 9.86951 21.5515 8.97696 21.729C8.59056 21.8059 8.19281 21.8059 7.80642 21.729C6.91386 21.5515 6.16903 20.8067 4.67938 19.317V19.317C3.18972 17.8274 2.44489 17.0825 2.26735 16.19C2.19049 15.8036 2.19049 15.4058 2.26735 15.0194C2.44489 14.1269 3.18972 13.3821 4.67938 11.8924L9.5372 7.03458Z" fill="#292556" fill-opacity="0.18"/>
<path d="M15.689 3.35783C16.2155 2.83138 16.4787 2.56815 16.761 2.42434C17.3314 2.13369 18.0065 2.13369 18.5769 2.42434C18.8592 2.56815 19.1224 2.83138 19.6488 3.35783L20.6388 4.34778C21.1652 4.87423 21.4285 5.13745 21.5723 5.4197C21.8629 5.99013 21.8629 6.66523 21.5723 7.23566C21.4285 7.5179 21.1652 7.78113 20.6388 8.30758V8.30758C20.5072 8.43919 20.4414 8.50499 20.3708 8.54095C20.2282 8.61361 20.0594 8.61361 19.9168 8.54095C19.8463 8.50499 19.7805 8.43919 19.6488 8.30758L15.689 4.34778C15.5574 4.21617 15.4916 4.15036 15.4557 4.0798C15.383 3.93719 15.383 3.76842 15.4557 3.62581C15.4916 3.55525 15.5574 3.48944 15.689 3.35783V3.35783Z" fill="#292556"/>
</svg>
