<svg width="24" height="24" viewBox="0 0 24 24" fill="none" xmlns="http://www.w3.org/2000/svg">
<path d="M9.79167 2.25H9C6.1877 2.25 4.78155 2.25 3.79581 2.96619C3.47745 3.19748 3.19748 3.47745 2.96619 3.79581C2.25 4.78155 2.25 6.1877 2.25 9V15C2.25 17.8123 2.25 19.2185 2.96619 20.2042C3.19748 20.5226 3.47745 20.8025 3.79581 21.0338C4.78155 21.75 6.1877 21.75 9 21.75C11.8123 21.75 13.2184 21.75 14.2042 21.0338C14.5225 20.8025 14.8025 20.5226 15.0338 20.2042C15.75 19.2185 15.75 17.8123 15.75 15V8.20833C15.75 6.14744 15.75 5.11699 15.356 4.32676C14.9927 3.59801 14.402 3.00734 13.6732 2.644C12.883 2.25 11.8526 2.25 9.79167 2.25Z" fill="#292556" fill-opacity="0.18"/>
<path d="M12 12H21M21 12L18.5 9.5M21 12L18.5 14.5" stroke="#292556" stroke-width="1.5" stroke-linecap="round" stroke-linejoin="round"/>
</svg>
