<svg width="24" height="24" viewBox="0 0 24 24" fill="none" xmlns="http://www.w3.org/2000/svg">
<path d="M2.8873 7.83008C2.63439 7.71431 2.50794 7.65643 2.40942 7.69472C2.37825 7.70684 2.34982 7.72509 2.32583 7.74839C2.25 7.82203 2.25 7.96111 2.25 8.23925V17.4192C2.25 17.5445 2.25 17.6071 2.27594 17.6595C2.28444 17.6767 2.29489 17.6929 2.30708 17.7077C2.34428 17.7528 2.40143 17.7784 2.51573 17.8297L10.6159 21.4656C10.8679 21.5787 10.9938 21.6352 11.0918 21.5967C11.1228 21.5844 11.151 21.5662 11.1749 21.5429C11.2502 21.4693 11.2502 21.3312 11.2502 21.055V11.9257C11.2502 11.8008 11.2502 11.7383 11.2244 11.686C11.2159 11.6688 11.2055 11.6527 11.1934 11.6379C11.1563 11.5929 11.0994 11.5671 10.9856 11.5156L7.18793 9.79869L2.8873 7.83008Z" fill="#292556" fill-opacity="0.18"/>
<path d="M12.7502 21.055C12.7502 21.3312 12.7502 21.4693 12.8255 21.5429C12.8493 21.5661 12.8776 21.5844 12.9086 21.5966C13.0065 21.6352 13.1325 21.5787 13.3845 21.4656L21.4845 17.8297C21.5988 17.7784 21.6559 17.7528 21.6931 17.7077C21.7053 17.6929 21.7157 17.6767 21.7242 17.6595C21.7502 17.6071 21.7502 17.5445 21.7502 17.4192L21.7502 8.23729C21.7502 7.95974 21.7502 7.82096 21.6746 7.74734C21.6506 7.72404 21.6222 7.70578 21.5911 7.69364C21.4928 7.65526 21.3664 7.71274 21.1138 7.82771L13.0138 11.514C12.9004 11.5656 12.8437 11.5914 12.8068 11.6365C12.7947 11.6512 12.7843 11.6673 12.7759 11.6844C12.7502 11.7367 12.7502 11.799 12.7502 11.9236V21.055Z" fill="#292556" fill-opacity="0.18"/>
<path d="M3.96712 6.67419C3.62494 6.51756 3.45385 6.43924 3.42631 6.31909C3.41774 6.28172 3.41788 6.24288 3.42673 6.20557C3.45516 6.08563 3.62682 6.00858 3.97014 5.85448L11.8164 2.33271C11.8969 2.29658 11.9371 2.27851 11.9796 2.27492C11.9936 2.27373 12.0077 2.27373 12.0217 2.27492C12.0641 2.27851 12.1044 2.29658 12.1849 2.33271L14.5094 3.3761C14.8539 3.53072 15.0261 3.60803 15.0544 3.72818C15.0632 3.76555 15.0633 3.80444 15.0547 3.84185C15.0269 3.96212 14.855 4.0402 14.5112 4.19635L6.68847 7.74952C6.60689 7.78657 6.5661 7.8051 6.52305 7.80873C6.50883 7.80992 6.49454 7.8099 6.48032 7.80866C6.43728 7.80491 6.39655 7.78626 6.31508 7.74897L3.96712 6.67419Z" fill="#292556"/>
<path d="M20.0295 6.67307C20.3729 6.5168 20.5446 6.43866 20.5723 6.31841C20.5809 6.28102 20.5808 6.24214 20.572 6.20479C20.5437 6.08469 20.3716 6.00744 20.0274 5.85295L17.4282 4.68628C17.3473 4.64994 17.3068 4.63176 17.2641 4.62823C17.25 4.62706 17.2358 4.62709 17.2217 4.62832C17.1791 4.63205 17.1387 4.6504 17.0579 4.6871L9.2154 8.24924C8.87268 8.40491 8.70132 8.48274 8.67343 8.60282C8.66476 8.64017 8.66479 8.67902 8.67353 8.71636C8.70163 8.83639 8.87312 8.91393 9.21611 9.06899L11.8136 10.2433C11.8948 10.2801 11.9355 10.2984 11.9783 10.302C11.9925 10.3032 12.0067 10.3032 12.0208 10.302C12.0637 10.2983 12.1042 10.2798 12.1854 10.2429L20.0295 6.67307Z" fill="#292556"/>
</svg>
