<svg width="24" height="24" viewBox="0 0 24 24" fill="none" xmlns="http://www.w3.org/2000/svg">
<path d="M2.6121 8.09875C2.4835 8.35596 2.4192 8.48456 2.45615 8.58575C2.46782 8.61772 2.48589 8.64696 2.50926 8.67169C2.58325 8.75 2.72703 8.75 3.01459 8.75H11.2502V2.25H8.03951C6.96019 2.25 6.42053 2.25 5.96287 2.46706C5.81267 2.5383 5.67082 2.62596 5.53993 2.72845C5.14111 3.04072 4.89977 3.52341 4.41708 4.48879L2.6121 8.09875Z" fill="#292556" fill-opacity="0.18"/>
<path d="M2.7 10.25C2.51251 10.25 2.41877 10.25 2.35305 10.2977C2.33183 10.3132 2.31317 10.3318 2.29775 10.3531C2.25 10.4188 2.25 10.5125 2.25 10.7V17.7C2.25 19.3874 2.25 20.2311 2.67971 20.8225C2.81849 21.0135 2.98647 21.1815 3.17748 21.3203C3.76893 21.75 4.61262 21.75 6.3 21.75H17.7C19.3874 21.75 20.2311 21.75 20.8225 21.3203C21.0135 21.1815 21.1815 21.0135 21.3203 20.8225C21.75 20.2311 21.75 19.3874 21.75 17.7V10.7C21.75 10.5125 21.75 10.4188 21.7023 10.3531C21.6868 10.3318 21.6682 10.3132 21.6469 10.2977C21.5812 10.25 21.4875 10.25 21.3 10.25H2.7Z" fill="#292556" fill-opacity="0.18"/>
<path d="M20.9854 8.75C21.273 8.75 21.4168 8.75 21.4907 8.67169C21.5141 8.64696 21.5322 8.61772 21.5438 8.58575C21.5808 8.48456 21.5165 8.35596 21.3879 8.09875L19.5829 4.48878C19.1002 3.52341 18.8589 3.04072 18.4601 2.72845C18.3292 2.62596 18.1873 2.5383 18.0371 2.46706C17.5795 2.25 17.0398 2.25 15.9605 2.25H12.7502V8.75H20.9854Z" fill="#292556" fill-opacity="0.18"/>
<path d="M9 16L11 18L15 14" stroke="#292556" stroke-width="1.5" stroke-linecap="round" stroke-linejoin="round"/>
</svg>
