<svg width="24" height="24" viewBox="0 0 24 24" fill="none" xmlns="http://www.w3.org/2000/svg">
<path d="M9 6.375C6.1877 6.375 4.78155 6.375 3.79581 7.09119C3.47745 7.32249 3.19748 7.60245 2.96619 7.92081C2.25 8.90655 2.25 10.3127 2.25 13.125V13.125C2.25 15.9373 2.25 17.3434 2.96619 18.3292C3.19749 18.6476 3.47745 18.9275 3.79581 19.1588C4.78155 19.875 6.1877 19.875 9 19.875L15 19.875C17.8123 19.875 19.2184 19.875 20.2042 19.1588C20.5225 18.9275 20.8025 18.6475 21.0338 18.3292C21.75 17.3434 21.75 15.9373 21.75 13.125V13.125C21.75 10.3127 21.75 8.90655 21.0338 7.92081C20.8025 7.60245 20.5225 7.32248 20.2042 7.09119C19.2184 6.375 17.8123 6.375 15 6.375L9 6.375Z" fill="#292556" fill-opacity="0.18"/>
<path d="M12 4.125L12 13.125M12 13.125L9.5 10.625M12 13.125L14.5 10.625" stroke="#292556" stroke-width="1.5" stroke-linecap="round" stroke-linejoin="round"/>
</svg>
