<svg width="24" height="24" viewBox="0 0 24 24" fill="none" xmlns="http://www.w3.org/2000/svg">
<path d="M9 21.75H15C17.8123 21.75 19.2184 21.75 20.2042 21.0338C20.5226 20.8025 20.8025 20.5225 21.0338 20.2042C21.75 19.2184 21.75 17.8123 21.75 15C21.75 12.1877 21.75 10.7816 21.0338 9.79581C20.8025 9.47745 20.5226 9.19748 20.2042 8.96619C19.2184 8.25 17.8123 8.25 15 8.25H12H9C6.1877 8.25 4.78155 8.25 3.79581 8.96619C3.47745 9.19748 3.19748 9.47745 2.96619 9.79581C2.25 10.7816 2.25 12.1877 2.25 15C2.25 17.8123 2.25 19.2184 2.96619 20.2042C3.19748 20.5225 3.47745 20.8025 3.79581 21.0338C4.78155 21.75 6.1877 21.75 9 21.75Z" fill="#292556" fill-opacity="0.18"/>
<path d="M12 12V3M12 3L9.5 5.5M12 3L14.5 5.5" stroke="#292556" stroke-width="1.5" stroke-linecap="round" stroke-linejoin="round"/>
</svg>
