<svg width="24" height="24" viewBox="0 0 24 24" fill="none" xmlns="http://www.w3.org/2000/svg">
<path d="M11.7917 2.25H11C8.1877 2.25 6.78155 2.25 5.79581 2.96619C5.47745 3.19748 5.19748 3.47745 4.96619 3.79581C4.25 4.78155 4.25 6.1877 4.25 9V15C4.25 17.8123 4.25 19.2185 4.96619 20.2042C5.19748 20.5226 5.47745 20.8025 5.79581 21.0338C6.78155 21.75 8.1877 21.75 11 21.75C13.8123 21.75 15.2184 21.75 16.2042 21.0338C16.5225 20.8025 16.8025 20.5226 17.0338 20.2042C17.75 19.2185 17.75 17.8123 17.75 15V8.20833C17.75 6.14744 17.75 5.11699 17.356 4.32676C16.9927 3.59801 16.402 3.00734 15.6732 2.644C14.883 2.25 13.8526 2.25 11.7917 2.25Z" fill="#292556" fill-opacity="0.18"/>
<path d="M20 12H11M11 12L13.5 9.5M11 12L13.5 14.5" stroke="#292556" stroke-width="1.5" stroke-linecap="round" stroke-linejoin="round"/>
</svg>
