<svg width="24" height="24" viewBox="0 0 24 24" fill="none" xmlns="http://www.w3.org/2000/svg">
<path d="M17 6.25V5.8C17 5.05005 17 4.67508 16.809 4.41221C16.7473 4.32732 16.6727 4.25266 16.5878 4.19098C16.3249 4 15.9499 4 15.2 4H13.7071C13.6228 4 13.5806 4 13.54 3.9978C13.1988 3.97928 12.8741 3.84478 12.6197 3.61658C12.5894 3.58942 12.5596 3.55961 12.5 3.5V3.5C12.4404 3.44039 12.4106 3.41058 12.3803 3.38342C12.1259 3.15522 11.8012 3.02072 11.46 3.0022C11.4194 3 11.3772 3 11.2929 3H8.8C8.05005 3 7.67508 3 7.41221 3.19098C7.32732 3.25266 7.25266 3.32732 7.19098 3.41221C7 3.67508 7 4.05005 7 4.8V6.25" stroke="#292556" stroke-width="1.5" stroke-linejoin="round"/>
<path d="M2.25 8.5C2.25 8.03521 2.25 7.80282 2.29388 7.61059C2.44346 6.95522 2.95522 6.44346 3.61059 6.29388C3.80282 6.25 4.03521 6.25 4.5 6.25H19.5C19.9648 6.25 20.1972 6.25 20.3894 6.29388C21.0448 6.44346 21.5565 6.95522 21.7061 7.61059C21.75 7.80282 21.75 8.03521 21.75 8.5V8.5C21.75 8.96479 21.75 9.19718 21.7061 9.38941C21.5565 10.0448 21.0448 10.5565 20.3894 10.7061C20.1972 10.75 19.9648 10.75 19.5 10.75H4.5C4.03522 10.75 3.80282 10.75 3.61059 10.7061C2.95522 10.5565 2.44346 10.0448 2.29388 9.38941C2.25 9.19718 2.25 8.96479 2.25 8.5V8.5Z" fill="#292556" fill-opacity="0.18"/>
<path d="M19.75 10.75H4.25V15C4.25 17.8123 4.25 19.2184 4.96619 20.2042C5.19748 20.5225 5.47745 20.8025 5.79581 21.0338C6.78155 21.75 8.1877 21.75 11 21.75H13C15.8123 21.75 17.2184 21.75 18.2042 21.0338C18.5226 20.8025 18.8025 20.5225 19.0338 20.2042C19.75 19.2184 19.75 17.8123 19.75 15V10.75Z" fill="#292556" fill-opacity="0.18"/>
<path d="M16 13H8" stroke="#292556" stroke-width="1.5" stroke-linecap="round" stroke-linejoin="round"/>
</svg>
