<svg width="24" height="24" viewBox="0 0 24 24" fill="none" xmlns="http://www.w3.org/2000/svg">
<path d="M12.7502 21.055C12.7502 21.3312 12.7502 21.4693 12.8255 21.5429C12.8493 21.5661 12.8776 21.5844 12.9086 21.5966C13.0065 21.6352 13.1325 21.5787 13.3845 21.4656L21.4845 17.8297C21.5988 17.7784 21.6559 17.7528 21.6931 17.7077C21.7053 17.6929 21.7157 17.6767 21.7242 17.6595C21.7502 17.6071 21.7502 17.5445 21.7502 17.4192L21.7502 8.23729C21.7502 7.95974 21.7502 7.82096 21.6746 7.74734C21.6506 7.72404 21.6222 7.70578 21.5911 7.69364C21.4928 7.65526 21.3664 7.71274 21.1138 7.82771L13.0138 11.514C12.9004 11.5656 12.8437 11.5914 12.8068 11.6365C12.7947 11.6512 12.7843 11.6673 12.7759 11.6844C12.7502 11.7367 12.7502 11.799 12.7502 11.9236V21.055Z" fill="#292556" fill-opacity="0.18"/>
<path d="M2.88644 7.82806C2.6338 7.71306 2.50748 7.65556 2.40913 7.69394C2.378 7.70608 2.34963 7.72434 2.32568 7.74764C2.25 7.82126 2.25 7.96005 2.25 8.23762V17.4192C2.25 17.5445 2.25 17.6071 2.27594 17.6595C2.28444 17.6767 2.29489 17.6929 2.30708 17.7077C2.34428 17.7528 2.40143 17.7784 2.51573 17.8297L10.6159 21.4656C10.8679 21.5787 10.9938 21.6352 11.0918 21.5967C11.1228 21.5844 11.151 21.5662 11.1749 21.5429C11.2502 21.4693 11.2502 21.3312 11.2502 21.055V11.9249C11.2502 11.8003 11.2502 11.738 11.2245 11.6858C11.216 11.6686 11.2057 11.6525 11.1936 11.6378C11.1567 11.5927 11.1 11.5669 10.9866 11.5153L2.88644 7.82806Z" fill="#292556" fill-opacity="0.18"/>
<path d="M3.97278 5.85329L11.8164 2.33271C11.8969 2.29658 11.9371 2.27851 11.9796 2.27492C11.9936 2.27373 12.0077 2.27373 12.0217 2.27492C12.0641 2.27851 12.1044 2.29658 12.1849 2.33271L20.0274 5.85295C20.3716 6.00744 20.5437 6.08469 20.572 6.20479C20.5808 6.24214 20.5809 6.28102 20.5723 6.31841C20.5446 6.43866 20.3729 6.5168 20.0295 6.67307L12.186 10.2426C12.1046 10.2797 12.0639 10.2982 12.0209 10.3019C12.0067 10.3031 11.9925 10.3031 11.9783 10.3019C11.9353 10.2982 11.8946 10.2797 11.8132 10.2426L11.8132 10.2426L3.97065 6.67341C3.62727 6.51714 3.45558 6.439 3.42785 6.31876C3.41922 6.28136 3.41932 6.24248 3.42814 6.20513C3.4565 6.08503 3.62859 6.00778 3.97278 5.85329Z" fill="#292556"/>
</svg>
