<svg width="24" height="24" viewBox="0 0 24 24" fill="none" xmlns="http://www.w3.org/2000/svg">
<path d="M10 2.25C7.37665 2.25 5.25 4.37665 5.25 7C5.25 7.19259 5.2615 7.38272 5.28389 7.56971C3.5088 8.25783 2.25 9.98122 2.25 12C2.25 14.0188 3.5088 15.7422 5.28389 16.4303C5.2615 16.6173 5.25 16.8074 5.25 17C5.25 19.6234 7.37665 21.75 10 21.75C10.7134 21.75 11.3915 21.5923 12 21.3095C12.6085 21.5923 13.2866 21.75 14 21.75C16.6234 21.75 18.75 19.6234 18.75 17C18.75 16.8074 18.7385 16.6173 18.7161 16.4303C20.4912 15.7422 21.75 14.0188 21.75 12C21.75 9.98122 20.4912 8.25783 18.7161 7.56971C18.7385 7.38273 18.75 7.19259 18.75 7C18.75 4.37665 16.6234 2.25 14 2.25C13.2866 2.25 12.6085 2.40774 12 2.69053C11.3915 2.40774 10.7134 2.25 10 2.25Z" fill="#292556" fill-opacity="0.18"/>
<path d="M15.7497 9.5V14.5M13.0413 14.5L12.3538 13M8.45801 14.5L9.14551 13M9.14551 13L10.7497 9.5L12.3538 13M9.14551 13H12.3538" stroke="#292556" stroke-width="1.5" stroke-linecap="round" stroke-linejoin="round"/>
</svg>
