<svg width="24" height="24" viewBox="0 0 24 24" fill="none" xmlns="http://www.w3.org/2000/svg">
<path d="M10 2.25C7.37665 2.25 5.25 4.37665 5.25 7C5.25 7.19259 5.2615 7.38272 5.28389 7.56971C3.5088 8.25783 2.25 9.98122 2.25 12C2.25 14.0188 3.5088 15.7422 5.28389 16.4303C5.2615 16.6173 5.25 16.8074 5.25 17C5.25 19.6234 7.37665 21.75 10 21.75C10.7134 21.75 11.3915 21.5923 12 21.3095C12.6085 21.5923 13.2866 21.75 14 21.75C16.6234 21.75 18.75 19.6234 18.75 17C18.75 16.8074 18.7385 16.6173 18.7161 16.4303C20.4912 15.7422 21.75 14.0188 21.75 12C21.75 9.98122 20.4912 8.25783 18.7161 7.56971C18.7385 7.38273 18.75 7.19259 18.75 7C18.75 4.37665 16.6234 2.25 14 2.25C13.2866 2.25 12.6085 2.40774 12 2.69053C11.3915 2.40774 10.7134 2.25 10 2.25Z" fill="#292556" fill-opacity="0.18"/>
<path d="M11.2503 2.41618V6.24974H10.0003C9.58612 6.24974 9.25033 6.58553 9.25033 6.99974C9.25033 7.41395 9.58612 7.74974 10.0003 7.74974H11.2503V13.1629C10.7742 13.0506 10.3389 12.8335 9.96919 12.537C9.64602 12.2779 9.174 12.3299 8.91489 12.653C8.65578 12.9762 8.7077 13.4482 9.03087 13.7073C9.65922 14.2111 10.4192 14.5588 11.2503 14.6908L11.2501 21.5833C11.5095 21.5127 11.7602 21.4207 12 21.3092C12.2399 21.4207 12.4906 21.5127 12.7501 21.5833L12.7503 17.7497H14.0003C14.4145 17.7497 14.7503 17.414 14.7503 16.9997C14.7503 16.5855 14.4145 16.2497 14.0003 16.2497H12.7503V10.3832C13.2554 10.0597 13.8553 9.87238 14.5003 9.87238C14.9145 9.87238 15.2503 9.53659 15.2503 9.12238C15.2503 8.70817 14.9145 8.37238 14.5003 8.37238C13.8827 8.37238 13.2921 8.49053 12.7503 8.70536V2.41602C12.4908 2.48664 12.24 2.57871 12 2.69024C11.7602 2.5788 11.5096 2.48678 11.2503 2.41618Z" fill="#292556"/>
</svg>
