<svg width="24" height="24" viewBox="0 0 24 24" fill="none" xmlns="http://www.w3.org/2000/svg">
<path d="M8 6.25V6.25C8 4.45507 9.45507 3 11.25 3H12.75C14.5449 3 16 4.45507 16 6.25V6.25" stroke="#292556" stroke-width="1.5" stroke-linejoin="round"/>
<path d="M10 9.37891H14" stroke="#292556" stroke-width="1.5" stroke-linecap="round" stroke-linejoin="round"/>
<path d="M2.25 14.2857C2.25 16.818 2.25 18.0842 2.7204 19.0609C3.18729 20.0305 3.96954 20.8127 4.93905 21.2796C5.91584 21.75 7.18199 21.75 9.71428 21.75H14.2857C16.818 21.75 18.0842 21.75 19.0609 21.2796C20.0305 20.8127 20.8127 20.0305 21.2796 19.0609C21.75 18.0842 21.75 16.818 21.75 14.2857V14.2857C21.75 14.0192 21.75 13.8859 21.7005 13.7831C21.6513 13.681 21.569 13.5987 21.4669 13.5495C21.3641 13.5 21.2308 13.5 20.9643 13.5H3.03571C2.76916 13.5 2.63588 13.5 2.53306 13.5495C2.431 13.5987 2.34866 13.681 2.29952 13.7831C2.25 13.8859 2.25 14.0192 2.25 14.2857V14.2857Z" fill="#292556" fill-opacity="0.18"/>
<path d="M21.75 11.4524C21.75 11.0323 21.75 10.8223 21.7367 10.645C21.5611 8.30165 19.6984 6.43889 17.355 6.26328C17.1777 6.25 16.9677 6.25 16.5476 6.25H7.45238C7.03231 6.25 6.82227 6.25 6.64503 6.26328C4.30165 6.43889 2.43889 8.30165 2.26328 10.645C2.25 10.8223 2.25 11.0323 2.25 11.4524V11.4524C2.25 11.4966 2.25 11.5187 2.2514 11.5374C2.26988 11.784 2.46596 11.9801 2.71263 11.9986C2.73129 12 2.7534 12 2.79762 12H21.2024C21.2466 12 21.2687 12 21.2874 11.9986C21.534 11.9801 21.7301 11.784 21.7486 11.5374C21.75 11.5187 21.75 11.4966 21.75 11.4524V11.4524Z" fill="#292556" fill-opacity="0.18"/>
</svg>
