<svg width="24" height="24" viewBox="0 0 24 24" fill="none" xmlns="http://www.w3.org/2000/svg">
<path fill-rule="evenodd" clip-rule="evenodd" d="M5.67082 3.66475C5.48558 3.29427 5.03507 3.1441 4.66459 3.32934C4.29411 3.51459 4.14394 3.96509 4.32918 4.33557L6.78743 9.25208C5.79627 9.25993 5.20855 9.2974 4.71742 9.47615C3.6758 9.85527 2.85527 10.6758 2.47615 11.7174C2.25 12.3388 2.25 13.1147 2.25 14.6667V15C2.25 16.8647 2.25 17.7971 2.5742 18.5253C2.95113 19.3718 3.62816 20.0489 4.47474 20.4258C5.20291 20.75 6.13528 20.75 8 20.75H16C17.8647 20.75 18.7971 20.75 19.5253 20.4258C20.3718 20.0489 21.0489 19.3718 21.4258 18.5253C21.75 17.7971 21.75 16.8647 21.75 15V14.6667C21.75 13.1147 21.75 12.3388 21.5238 11.7174C21.1447 10.6758 20.3242 9.85527 19.2826 9.47615C18.7914 9.2974 18.2037 9.25993 17.2126 9.25208L19.6708 4.33557C19.8561 3.96509 19.7059 3.51459 19.3354 3.32934C18.9649 3.1441 18.5144 3.29427 18.3292 3.66475L15.5366 9.25H8.46344L5.67082 3.66475Z" fill="#292556" fill-opacity="0.18"/>
<path d="M5.5 15C5.5 13.7574 6.50736 12.75 7.75 12.75V12.75C8.99264 12.75 10 13.7574 10 15V15C10 16.2426 8.99264 17.25 7.75 17.25V17.25C6.50736 17.25 5.5 16.2426 5.5 15V15Z" fill="#292556"/>
<path d="M12.2501 14.25C12.6642 14.25 13 14.5858 13 15V15C13 15.4142 12.6642 15.75 12.2501 15.75V15.75C11.8359 15.75 11.5001 15.414 11.5002 14.9998V14.9998C11.5003 14.5857 11.836 14.25 12.2501 14.25V14.25Z" fill="#292556"/>
<path d="M15.0001 14.25C15.4142 14.25 15.75 14.5858 15.75 15V15C15.75 15.4142 15.4142 15.75 15.0001 15.75V15.75C14.5859 15.75 14.2501 15.414 14.2502 14.9998V14.9998C14.2503 14.5857 14.586 14.25 15.0001 14.25V14.25Z" fill="#292556"/>
<path d="M17.7501 14.25C18.1642 14.25 18.5 14.5858 18.5 15V15C18.5 15.4142 18.1642 15.75 17.7501 15.75V15.75C17.3359 15.75 17.0001 15.414 17.0002 14.9998V14.9998C17.0003 14.5857 17.336 14.25 17.7501 14.25V14.25Z" fill="#292556"/>
</svg>
