<svg width="24" height="24" viewBox="0 0 24 24" fill="none" xmlns="http://www.w3.org/2000/svg">
<path d="M21.0009 4.06056C21.2938 3.76764 21.2937 3.29276 21.0008 2.9999C20.7079 2.70703 20.233 2.70707 19.9401 2.99999L21.0009 4.06056ZM19.9401 2.99999L12.6913 10.2501L13.7521 11.3107L21.0009 4.06056L19.9401 2.99999Z" fill="#292556" fill-opacity="0.18"/>
<path d="M13.2244 10.7778C12.7826 10.336 12.5617 10.115 12.3368 9.94875C11.2801 9.16753 9.8915 8.99647 8.67675 9.49788C8.41823 9.60459 8.15031 9.76532 7.61448 10.0868L5.75089 11.2048C4.34555 12.0478 3.64288 12.4694 3.44374 13.1039C3.38013 13.3066 3.35395 13.5192 3.36649 13.7312C3.40575 14.3951 3.98516 14.9745 5.14399 16.1333L7.86802 18.8574C9.02669 20.016 9.60602 20.5954 10.2698 20.6347C10.4819 20.6472 10.6944 20.6211 10.8971 20.5575C11.5316 20.3584 11.9532 19.6559 12.7964 18.2509L13.9145 16.3878C14.236 15.852 14.3968 15.5841 14.5035 15.3256C15.0051 14.111 14.8343 12.7224 14.0533 11.6656C13.8871 11.4407 13.6662 11.2197 13.2244 10.7778V10.7778Z" fill="#292556" fill-opacity="0.18"/>
<path d="M13.2276 3.3181C13.1441 2.98422 12.8442 2.75 12.5 2.75C12.1558 2.75 11.8559 2.98422 11.7724 3.3181C11.6686 3.73333 11.5317 3.97014 11.3759 4.12592C11.2201 4.2817 10.9833 4.41858 10.5681 4.52239C10.2342 4.60586 10 4.90585 10 5.25C10 5.59415 10.2342 5.89414 10.5681 5.97761C10.9833 6.08142 11.2201 6.2183 11.3759 6.37408C11.5317 6.52986 11.6686 6.76667 11.7724 7.1819C11.8559 7.51578 12.1558 7.75 12.5 7.75C12.8442 7.75 13.1441 7.51578 13.2276 7.1819C13.3314 6.76667 13.4683 6.52986 13.6241 6.37408C13.7799 6.2183 14.0167 6.08142 14.4319 5.97761C14.7658 5.89414 15 5.59415 15 5.25C15 4.90585 14.7658 4.60586 14.4319 4.52239C14.0167 4.41858 13.7799 4.2817 13.6241 4.12592C13.4683 3.97014 13.3314 3.73333 13.2276 3.3181Z" fill="#292556"/>
<path d="M19.4776 15.8181C19.3941 15.4842 19.0942 15.25 18.75 15.25C18.4058 15.25 18.1059 15.4842 18.0224 15.8181C17.9186 16.2333 17.7817 16.4701 17.6259 16.6259C17.4701 16.7817 17.2333 16.9186 16.8181 17.0224C16.4842 17.1059 16.25 17.4058 16.25 17.75C16.25 18.0942 16.4842 18.3941 16.8181 18.4776C17.2333 18.5814 17.4701 18.7183 17.6259 18.8741C17.7817 19.0299 17.9186 19.2667 18.0224 19.6819C18.1059 20.0158 18.4058 20.25 18.75 20.25C19.0942 20.25 19.3941 20.0158 19.4776 19.6819C19.5814 19.2667 19.7183 19.0299 19.8741 18.8741C20.0299 18.7183 20.2667 18.5814 20.6819 18.4776C21.0158 18.3941 21.25 18.0942 21.25 17.75C21.25 17.4058 21.0158 17.1059 20.6819 17.0224C20.2667 16.9186 20.0299 16.7817 19.8741 16.6259C19.7183 16.4701 19.5814 16.2333 19.4776 15.8181Z" fill="#292556"/>
</svg>
