<svg width="24" height="24" viewBox="0 0 24 24" fill="none" xmlns="http://www.w3.org/2000/svg">
<path d="M4.6104 12.2836C4.04544 12.8486 3.68487 13.6921 3.44014 14.5287C3.18926 15.3864 3.03164 16.3398 2.93131 17.2155C2.83057 18.0946 2.78538 18.9155 2.76524 19.5153C2.75516 19.8158 2.75131 20.0622 2.75 20.2344C2.75516 20.7931 3.20678 21.2447 3.76545 21.2499C3.93765 21.2485 4.18406 21.2447 4.48454 21.2346C5.08437 21.2145 5.90524 21.1693 6.78439 21.0685C7.66004 20.9682 8.61346 20.8106 9.47115 20.5597C10.3078 20.315 11.1513 19.9544 11.7162 19.3895C12.9576 18.148 13.4508 16.4393 13.1751 14.848L13.1751 14.848C13.1654 14.7922 13.1606 14.7643 13.1481 14.7361C13.1441 14.7272 13.139 14.7173 13.134 14.7089C13.1181 14.6824 13.0967 14.6611 13.054 14.6183L9.38159 10.9459C9.3388 10.9031 9.31741 10.8817 9.29095 10.8659C9.28256 10.8608 9.27267 10.8557 9.26373 10.8517C9.23553 10.8392 9.20763 10.8344 9.15184 10.8247L9.15182 10.8247C7.5606 10.549 5.85181 11.0422 4.6104 12.2836Z" fill="#292556" fill-opacity="0.18"/>
<path d="M16.6549 4.00802L10.6672 9.56699C10.5251 9.69891 10.454 9.76488 10.4392 9.84683C10.4344 9.87325 10.4339 9.90028 10.4377 9.92686C10.4495 10.0093 10.518 10.0779 10.6551 10.215L13.7853 13.3451C13.9224 13.4822 13.9909 13.5507 14.0733 13.5626C14.0999 13.5664 14.1269 13.5659 14.1534 13.5611C14.2353 13.5462 14.3013 13.4752 14.4332 13.3332L19.9936 7.34782C20.3689 6.94383 20.5566 6.74183 20.6658 6.53211C20.94 6.0054 20.9284 5.37557 20.635 4.8593C20.5182 4.65373 20.3232 4.45878 19.9333 4.06886C19.5435 3.67907 19.3486 3.48417 19.1431 3.36735C18.627 3.07398 17.9973 3.06229 17.4706 3.33631C17.2609 3.44542 17.0589 3.63295 16.6549 4.00802Z" fill="#292556" fill-opacity="0.18"/>
<path d="M7.47761 2.8181C7.39414 2.48422 7.09415 2.25 6.75 2.25C6.40585 2.25 6.10586 2.48422 6.02239 2.8181C5.91858 3.23333 5.7817 3.47014 5.62592 3.62592C5.47014 3.7817 5.23333 3.91858 4.8181 4.02239C4.48422 4.10586 4.25 4.40585 4.25 4.75C4.25 5.09415 4.48422 5.39414 4.8181 5.47761C5.23333 5.58142 5.47014 5.7183 5.62592 5.87408C5.7817 6.02986 5.91858 6.26667 6.02239 6.6819C6.10586 7.01578 6.40585 7.25 6.75 7.25C7.09415 7.25 7.39414 7.01578 7.47761 6.6819C7.58142 6.26667 7.7183 6.02986 7.87408 5.87408C8.02986 5.7183 8.26667 5.58142 8.6819 5.47761C9.01578 5.39414 9.25 5.09415 9.25 4.75C9.25 4.40585 9.01578 4.10586 8.6819 4.02239C8.26667 3.91858 8.02986 3.7817 7.87408 3.62592C7.7183 3.47014 7.58142 3.23333 7.47761 2.8181Z" fill="#292556"/>
<path d="M17.9776 17.3181C17.8941 16.9842 17.5942 16.75 17.25 16.75C16.9058 16.75 16.6059 16.9842 16.5224 17.3181C16.4186 17.7333 16.2817 17.9701 16.1259 18.1259C15.9701 18.2817 15.7333 18.4186 15.3181 18.5224C14.9842 18.6059 14.75 18.9058 14.75 19.25C14.75 19.5942 14.9842 19.8941 15.3181 19.9776C15.7333 20.0814 15.9701 20.2183 16.1259 20.3741C16.2817 20.5299 16.4186 20.7667 16.5224 21.1819C16.6059 21.5158 16.9058 21.75 17.25 21.75C17.5942 21.75 17.8941 21.5158 17.9776 21.1819C18.0814 20.7667 18.2183 20.5299 18.3741 20.3741C18.5299 20.2183 18.7667 20.0814 19.1819 19.9776C19.5158 19.8941 19.75 19.5942 19.75 19.25C19.75 18.9058 19.5158 18.6059 19.1819 18.5224C18.7667 18.4186 18.5299 18.2817 18.3741 18.1259C18.2183 17.9701 18.0814 17.7333 17.9776 17.3181Z" fill="#292556"/>
</svg>
