<svg width="24" height="24" viewBox="0 0 24 24" fill="none" xmlns="http://www.w3.org/2000/svg">
<path fill-rule="evenodd" clip-rule="evenodd" d="M9.21797 3.21571C9.33699 2.81896 9.11185 2.40085 8.71511 2.28183C8.31836 2.1628 7.90025 2.38794 7.78123 2.78469L6.40461 7.3734C6.14941 7.41441 5.92366 7.46908 5.71431 7.54195C3.86939 8.1841 2.53356 9.79749 2.24692 11.7298C2.11668 12.6078 2.32211 13.6895 2.73297 15.8529C3.02546 17.393 3.17171 18.1631 3.47497 18.7891C4.1384 20.1586 5.36338 21.1728 6.83256 21.5691C7.50415 21.7502 8.28799 21.7502 9.85565 21.7502H14.1154C15.6786 21.7502 16.4601 21.7502 17.1303 21.5699C18.5963 21.1754 19.8198 20.1656 20.4851 18.801C20.7893 18.1772 20.9375 17.4098 21.2339 15.875C21.6526 13.7068 21.862 12.6227 21.7337 11.7429C21.4514 9.80624 20.1153 8.18741 18.2674 7.54297C18.0631 7.47176 17.8433 7.41787 17.5957 7.37709L16.218 2.78469C16.0989 2.38794 15.6808 2.1628 15.2841 2.28183C14.8873 2.40085 14.6622 2.81896 14.7812 3.21571L15.9949 7.26121C15.4713 7.2502 14.8554 7.2502 14.1154 7.2502H9.85566C9.12864 7.2502 8.52163 7.2502 8.00447 7.2607L9.21797 3.21571Z" fill="#292556" fill-opacity="0.18"/>
<path d="M8 12V17M12 12V17M16 12V17" stroke="#292556" stroke-width="1.5" stroke-linecap="round" stroke-linejoin="round"/>
</svg>
