<svg width="24" height="24" viewBox="0 0 24 24" fill="none" xmlns="http://www.w3.org/2000/svg">
<path fill-rule="evenodd" clip-rule="evenodd" d="M3.75 5C3.75 4.58579 3.41421 4.25 3 4.25C2.58579 4.25 2.25 4.58579 2.25 5V7C2.25 9.36815 3.98301 11.3315 6.25 11.6911V10.667V10.163C4.81665 9.82445 3.75 8.53679 3.75 7V5ZM17.75 11.6911V10.667V10.163C19.1833 9.82445 20.25 8.53679 20.25 7V5C20.25 4.58579 20.5858 4.25 21 4.25C21.4142 4.25 21.75 4.58579 21.75 5V7C21.75 9.36815 20.017 11.3315 17.75 11.6911ZM17.75 15.837V15.0003V14.3089C20.017 14.6685 21.75 16.6318 21.75 19V21C21.75 21.4142 21.4142 21.75 21 21.75C20.5858 21.75 20.25 21.4142 20.25 21V19C20.25 17.4632 19.1833 16.1755 17.75 15.837ZM6.25 14.3089V15.0003V15.837C4.81665 16.1755 3.75 17.4632 3.75 19V21C3.75 21.4142 3.41421 21.75 3 21.75C2.58579 21.75 2.25 21.4142 2.25 21V19C2.25 16.6318 3.98301 14.6685 6.25 14.3089Z" fill="#292556"/>
<path fill-rule="evenodd" clip-rule="evenodd" d="M8.25 6C8.25 3.92893 9.92893 2.25 12 2.25C14.0711 2.25 15.75 3.92893 15.75 6V7.4317C16.875 7.55606 17.75 8.50983 17.75 9.66797V10.668V15.0013V16.0013C17.75 19.1769 15.1756 21.7513 12 21.7513C8.82436 21.7513 6.25 19.1769 6.25 16.0013V15.0013V10.668V9.66797C6.25 8.50983 7.12501 7.55606 8.25 7.4317V6Z" fill="#292556" fill-opacity="0.18"/>
<path d="M10 12.002V16.002M14 16.002V12.002" stroke="#292556" stroke-width="1.5" stroke-linecap="round" stroke-linejoin="round"/>
</svg>
