<svg width="24" height="24" viewBox="0 0 24 24" fill="none" xmlns="http://www.w3.org/2000/svg">
<path d="M13.8 2.25H10.2C8.13765 2.25 7.10647 2.25 6.38359 2.7752C6.15013 2.94482 5.94482 3.15013 5.7752 3.38359C5.25 4.10647 5.25 5.15431 5.25 7.25C5.01785 7.25 4.90178 7.25 4.80382 7.25701C3.43971 7.35457 2.35457 8.4397 2.25701 9.80382C2.25 9.90178 2.25 10.0179 2.25 10.25V16.8C2.25 18.8624 2.25 19.8935 2.7752 20.6164C2.94482 20.8499 3.15013 21.0552 3.38359 21.2248C4.10647 21.75 5.13765 21.75 7.2 21.75H8.52941C8.73431 21.75 8.83676 21.75 8.9227 21.738C9.47595 21.6608 9.91084 21.2259 9.98801 20.6727C10 20.5868 10 20.4843 10 20.2794V18.75C10 17.6454 10.8954 16.75 12 16.75C13.1046 16.75 14 17.6454 14 18.75V20.2794C14 20.4843 14 20.5868 14.012 20.6727C14.0892 21.2259 14.5241 21.6608 15.0773 21.738C15.1632 21.75 15.2657 21.75 15.4706 21.75L16.8 21.75H16.8C18.8624 21.75 19.8935 21.75 20.6164 21.2248C20.8499 21.0552 21.0552 20.8499 21.2248 20.6164C21.75 19.8935 21.75 18.8624 21.75 16.8V10.25C21.75 10.0179 21.75 9.90178 21.743 9.80381C21.6454 8.4397 20.5603 7.35457 19.1962 7.25701C19.0982 7.25 18.9821 7.25 18.75 7.25C18.75 5.15431 18.75 4.10647 18.2248 3.38359C18.0552 3.15013 17.8499 2.94482 17.6164 2.7752C16.8935 2.25 15.8624 2.25 13.8 2.25Z" fill="#292556" fill-opacity="0.18"/>
<path d="M11 7.25C11 7.71731 11 7.95096 10.8995 8.125C10.8337 8.23901 10.739 8.33369 10.625 8.39952C10.451 8.5 10.2173 8.5 9.75 8.5V8.5C9.28269 8.5 9.04904 8.5 8.875 8.39952C8.76099 8.33369 8.66631 8.23901 8.60048 8.125C8.5 7.95096 8.5 7.71731 8.5 7.25V7.25C8.5 6.78269 8.5 6.54904 8.60048 6.375C8.66631 6.26099 8.76099 6.16631 8.875 6.10048C9.04904 6 9.28269 6 9.75 6V6C10.2173 6 10.451 6 10.625 6.10048C10.739 6.16631 10.8337 6.26099 10.8995 6.375C11 6.54904 11 6.78269 11 7.25V7.25Z" fill="#292556"/>
<path d="M15.5 7.25C15.5 7.71731 15.5 7.95096 15.3995 8.125C15.3337 8.23901 15.239 8.33369 15.125 8.39952C14.951 8.5 14.7173 8.5 14.25 8.5V8.5C13.7827 8.5 13.549 8.5 13.375 8.39952C13.261 8.33369 13.1663 8.23901 13.1005 8.125C13 7.95096 13 7.71731 13 7.25V7.25C13 6.78269 13 6.54904 13.1005 6.375C13.1663 6.26099 13.261 6.16631 13.375 6.10048C13.549 6 13.7827 6 14.25 6V6C14.7173 6 14.951 6 15.125 6.10048C15.239 6.16631 15.3337 6.26099 15.3995 6.375C15.5 6.54904 15.5 6.78269 15.5 7.25V7.25Z" fill="#292556"/>
<path d="M8.75 12C8.75 12.4673 8.75 12.701 8.64952 12.875C8.58369 12.989 8.48901 13.0837 8.375 13.1495C8.20096 13.25 7.96731 13.25 7.5 13.25V13.25C7.03269 13.25 6.79904 13.25 6.625 13.1495C6.51099 13.0837 6.41631 12.989 6.35048 12.875C6.25 12.701 6.25 12.4673 6.25 12V12C6.25 11.5327 6.25 11.299 6.35048 11.125C6.41631 11.011 6.51099 10.9163 6.625 10.8505C6.79904 10.75 7.03269 10.75 7.5 10.75V10.75C7.96731 10.75 8.20096 10.75 8.375 10.8505C8.48901 10.9163 8.58369 11.011 8.64952 11.125C8.75 11.299 8.75 11.5327 8.75 12V12Z" fill="#292556"/>
<path d="M13.25 12C13.25 12.4673 13.25 12.701 13.1495 12.875C13.0837 12.989 12.989 13.0837 12.875 13.1495C12.701 13.25 12.4673 13.25 12 13.25V13.25C11.5327 13.25 11.299 13.25 11.125 13.1495C11.011 13.0837 10.9163 12.989 10.8505 12.875C10.75 12.701 10.75 12.4673 10.75 12V12C10.75 11.5327 10.75 11.299 10.8505 11.125C10.9163 11.011 11.011 10.9163 11.125 10.8505C11.299 10.75 11.5327 10.75 12 10.75V10.75C12.4673 10.75 12.701 10.75 12.875 10.8505C12.989 10.9163 13.0837 11.011 13.1495 11.125C13.25 11.299 13.25 11.5327 13.25 12V12Z" fill="#292556"/>
<path d="M17.75 12C17.75 12.4673 17.75 12.701 17.6495 12.875C17.5837 12.989 17.489 13.0837 17.375 13.1495C17.201 13.25 16.9673 13.25 16.5 13.25V13.25C16.0327 13.25 15.799 13.25 15.625 13.1495C15.511 13.0837 15.4163 12.989 15.3505 12.875C15.25 12.701 15.25 12.4673 15.25 12V12C15.25 11.5327 15.25 11.299 15.3505 11.125C15.4163 11.011 15.511 10.9163 15.625 10.8505C15.799 10.75 16.0327 10.75 16.5 10.75V10.75C16.9673 10.75 17.201 10.75 17.375 10.8505C17.489 10.9163 17.5837 11.011 17.6495 11.125C17.75 11.299 17.75 11.5327 17.75 12V12Z" fill="#292556"/>
</svg>
