<svg width="24" height="24" viewBox="0 0 24 24" fill="none" xmlns="http://www.w3.org/2000/svg">
<path d="M14.3 2.25H9.7C7.63765 2.25 6.60647 2.25 5.88359 2.7752C5.65013 2.94482 5.44482 3.15013 5.2752 3.38359C4.75 4.10647 4.75 5.13765 4.75 7.2V17.7969C4.75 18.9171 4.75 19.4772 4.91075 19.9264C5.18814 20.7017 5.79831 21.3119 6.57355 21.5892C7.02283 21.75 7.58293 21.75 8.70312 21.75C9.21231 21.75 9.4669 21.75 9.67111 21.6769C10.0235 21.5508 10.3008 21.2735 10.4269 20.9211C10.5 20.7169 10.5 20.4623 10.5 19.9531V18.25C10.5 17.4216 11.1716 16.75 12 16.75C12.8284 16.75 13.5 17.4216 13.5 18.25V19.9531C13.5 20.4623 13.5 20.7169 13.5731 20.9211C13.6992 21.2735 13.9765 21.5508 14.3289 21.6769C14.5331 21.75 14.7877 21.75 15.2969 21.75H15.2969C16.4171 21.75 16.9772 21.75 17.4264 21.5892C18.2017 21.3119 18.8119 20.7017 19.0892 19.9264C19.25 19.4772 19.25 18.9171 19.25 17.7969V7.2C19.25 5.13765 19.25 4.10647 18.7248 3.38359C18.5552 3.15013 18.3499 2.94482 18.1164 2.7752C17.3935 2.25 16.3624 2.25 14.3 2.25Z" fill="#292556" fill-opacity="0.18"/>
<path d="M11 7.25C11 7.71731 11 7.95096 10.8995 8.125C10.8337 8.23901 10.739 8.33369 10.625 8.39952C10.451 8.5 10.2173 8.5 9.75 8.5V8.5C9.28269 8.5 9.04904 8.5 8.875 8.39952C8.76099 8.33369 8.66631 8.23901 8.60048 8.125C8.5 7.95096 8.5 7.71731 8.5 7.25V7.25C8.5 6.78269 8.5 6.54904 8.60048 6.375C8.66631 6.26099 8.76099 6.16631 8.875 6.10048C9.04904 6 9.28269 6 9.75 6V6C10.2173 6 10.451 6 10.625 6.10048C10.739 6.16631 10.8337 6.26099 10.8995 6.375C11 6.54904 11 6.78269 11 7.25V7.25Z" fill="#292556"/>
<path d="M15.5 7.25C15.5 7.71731 15.5 7.95096 15.3995 8.125C15.3337 8.23901 15.239 8.33369 15.125 8.39952C14.951 8.5 14.7173 8.5 14.25 8.5V8.5C13.7827 8.5 13.549 8.5 13.375 8.39952C13.261 8.33369 13.1663 8.23901 13.1005 8.125C13 7.95096 13 7.71731 13 7.25V7.25C13 6.78269 13 6.54904 13.1005 6.375C13.1663 6.26099 13.261 6.16631 13.375 6.10048C13.549 6 13.7827 6 14.25 6V6C14.7173 6 14.951 6 15.125 6.10048C15.239 6.16631 15.3337 6.26099 15.3995 6.375C15.5 6.54904 15.5 6.78269 15.5 7.25V7.25Z" fill="#292556"/>
<path d="M11 12C11 12.4673 11 12.701 10.8995 12.875C10.8337 12.989 10.739 13.0837 10.625 13.1495C10.451 13.25 10.2173 13.25 9.75 13.25V13.25C9.28269 13.25 9.04904 13.25 8.875 13.1495C8.76099 13.0837 8.66631 12.989 8.60048 12.875C8.5 12.701 8.5 12.4673 8.5 12V12C8.5 11.5327 8.5 11.299 8.60048 11.125C8.66631 11.011 8.76099 10.9163 8.875 10.8505C9.04904 10.75 9.28269 10.75 9.75 10.75V10.75C10.2173 10.75 10.451 10.75 10.625 10.8505C10.739 10.9163 10.8337 11.011 10.8995 11.125C11 11.299 11 11.5327 11 12V12Z" fill="#292556"/>
<path d="M15.5 12C15.5 12.4673 15.5 12.701 15.3995 12.875C15.3337 12.989 15.239 13.0837 15.125 13.1495C14.951 13.25 14.7173 13.25 14.25 13.25V13.25C13.7827 13.25 13.549 13.25 13.375 13.1495C13.261 13.0837 13.1663 12.989 13.1005 12.875C13 12.701 13 12.4673 13 12V12C13 11.5327 13 11.299 13.1005 11.125C13.1663 11.011 13.261 10.9163 13.375 10.8505C13.549 10.75 13.7827 10.75 14.25 10.75V10.75C14.7173 10.75 14.951 10.75 15.125 10.8505C15.239 10.9163 15.3337 11.011 15.3995 11.125C15.5 11.299 15.5 11.5327 15.5 12V12Z" fill="#292556"/>
</svg>
