<svg width="24" height="24" viewBox="0 0 24 24" fill="none" xmlns="http://www.w3.org/2000/svg">
<path d="M11.55 2.25H7.95C5.88765 2.25 4.85647 2.25 4.13359 2.7752C3.90013 2.94482 3.69482 3.15013 3.5252 3.38359C3 4.10647 3 5.13765 3 7.2V16.9375C3 18.8686 3 19.8342 3.46346 20.5278C3.66409 20.8281 3.92191 21.0859 4.22218 21.2865C4.9158 21.75 5.88136 21.75 7.8125 21.75C8.69029 21.75 9.12918 21.75 9.44446 21.5393C9.58095 21.4481 9.69814 21.3309 9.78934 21.1945C10 20.8792 10 20.4403 10 19.5625V18.75C10 18.0499 10 17.6999 10.1362 17.4325C10.2561 17.1973 10.4473 17.0061 10.6825 16.8862C10.9499 16.75 11.2999 16.75 12 16.75C12.7001 16.75 13.0501 16.75 13.3175 16.8862C13.5527 17.0061 13.7439 17.1973 13.8638 17.4325C14 17.6999 14 18.0499 14 18.75V19.5625C14 20.4403 14 20.8792 14.2107 21.1945C14.3019 21.3309 14.419 21.4481 14.5555 21.5393C14.8708 21.75 15.3097 21.75 16.1875 21.75C18.1186 21.75 19.0842 21.75 19.7778 21.2865C20.0781 21.0859 20.3359 20.8281 20.5365 20.5278C21 19.8342 21 18.8686 21 16.9375V11.75C21 10.1154 21 9.2981 20.6636 8.68207C20.411 8.21936 20.0306 7.83904 19.5679 7.58638C18.9519 7.25 18.1346 7.25 16.5 7.25C16.5 5.15431 16.5 4.10647 15.9748 3.38359C15.8052 3.15013 15.5999 2.94482 15.3664 2.7752C14.6435 2.25 13.6124 2.25 11.55 2.25Z" fill="#292556" fill-opacity="0.18"/>
<path d="M8.75 7.25C8.75 7.71731 8.75 7.95096 8.64952 8.125C8.58369 8.23901 8.48901 8.33369 8.375 8.39952C8.20096 8.5 7.96731 8.5 7.5 8.5V8.5C7.03269 8.5 6.79904 8.5 6.625 8.39952C6.51099 8.33369 6.41631 8.23901 6.35048 8.125C6.25 7.95096 6.25 7.71731 6.25 7.25V7.25C6.25 6.78269 6.25 6.54904 6.35048 6.375C6.41631 6.26099 6.51099 6.16631 6.625 6.10048C6.79904 6 7.03269 6 7.5 6V6C7.96731 6 8.20096 6 8.375 6.10048C8.48901 6.16631 8.58369 6.26099 8.64952 6.375C8.75 6.54904 8.75 6.78269 8.75 7.25V7.25Z" fill="#292556"/>
<path d="M13.25 7.25C13.25 7.71731 13.25 7.95096 13.1495 8.125C13.0837 8.23901 12.989 8.33369 12.875 8.39952C12.701 8.5 12.4673 8.5 12 8.5V8.5C11.5327 8.5 11.299 8.5 11.125 8.39952C11.011 8.33369 10.9163 8.23901 10.8505 8.125C10.75 7.95096 10.75 7.71731 10.75 7.25V7.25C10.75 6.78269 10.75 6.54904 10.8505 6.375C10.9163 6.26099 11.011 6.16631 11.125 6.10048C11.299 6 11.5327 6 12 6V6C12.4673 6 12.701 6 12.875 6.10048C12.989 6.16631 13.0837 6.26099 13.1495 6.375C13.25 6.54904 13.25 6.78269 13.25 7.25V7.25Z" fill="#292556"/>
<path d="M8.75 12C8.75 12.4673 8.75 12.701 8.64952 12.875C8.58369 12.989 8.48901 13.0837 8.375 13.1495C8.20096 13.25 7.96731 13.25 7.5 13.25V13.25C7.03269 13.25 6.79904 13.25 6.625 13.1495C6.51099 13.0837 6.41631 12.989 6.35048 12.875C6.25 12.701 6.25 12.4673 6.25 12V12C6.25 11.5327 6.25 11.299 6.35048 11.125C6.41631 11.011 6.51099 10.9163 6.625 10.8505C6.79904 10.75 7.03269 10.75 7.5 10.75V10.75C7.96731 10.75 8.20096 10.75 8.375 10.8505C8.48901 10.9163 8.58369 11.011 8.64952 11.125C8.75 11.299 8.75 11.5327 8.75 12V12Z" fill="#292556"/>
<path d="M13.25 12C13.25 12.4673 13.25 12.701 13.1495 12.875C13.0837 12.989 12.989 13.0837 12.875 13.1495C12.701 13.25 12.4673 13.25 12 13.25V13.25C11.5327 13.25 11.299 13.25 11.125 13.1495C11.011 13.0837 10.9163 12.989 10.8505 12.875C10.75 12.701 10.75 12.4673 10.75 12V12C10.75 11.5327 10.75 11.299 10.8505 11.125C10.9163 11.011 11.011 10.9163 11.125 10.8505C11.299 10.75 11.5327 10.75 12 10.75V10.75C12.4673 10.75 12.701 10.75 12.875 10.8505C12.989 10.9163 13.0837 11.011 13.1495 11.125C13.25 11.299 13.25 11.5327 13.25 12V12Z" fill="#292556"/>
<path d="M17.75 12C17.75 12.4673 17.75 12.701 17.6495 12.875C17.5837 12.989 17.489 13.0837 17.375 13.1495C17.201 13.25 16.9673 13.25 16.5 13.25V13.25C16.0327 13.25 15.799 13.25 15.625 13.1495C15.511 13.0837 15.4163 12.989 15.3505 12.875C15.25 12.701 15.25 12.4673 15.25 12V12C15.25 11.5327 15.25 11.299 15.3505 11.125C15.4163 11.011 15.511 10.9163 15.625 10.8505C15.799 10.75 16.0327 10.75 16.5 10.75V10.75C16.9673 10.75 17.201 10.75 17.375 10.8505C17.489 10.9163 17.5837 11.011 17.6495 11.125C17.75 11.299 17.75 11.5327 17.75 12V12Z" fill="#292556"/>
</svg>
