<svg width="24" height="24" viewBox="0 0 24 24" fill="none" xmlns="http://www.w3.org/2000/svg">
<path fill-rule="evenodd" clip-rule="evenodd" d="M4.27897 6.25335C4.3261 5.39732 4.44991 4.83132 4.77521 4.38359C4.94483 4.15013 5.15013 3.94482 5.38359 3.7752C6.10648 3.25 7.13765 3.25 9.2 3.25H14.8C16.8624 3.25 17.8935 3.25 18.6164 3.7752C18.8499 3.94482 19.0552 4.15013 19.2248 4.38359C19.5501 4.83132 19.6739 5.39732 19.721 6.25335C19.8783 6.25682 20.0249 6.26389 20.1573 6.27824C20.4415 6.30902 20.748 6.38036 21.0286 6.58422C21.1772 6.69216 21.3078 6.82281 21.4158 6.97138C21.6196 7.25197 21.691 7.55851 21.7218 7.84267C21.7501 8.10388 21.75 8.42011 21.75 8.76466L21.75 8.8V9C21.75 9.41421 21.4142 9.75 21 9.75C20.5858 9.75 20.25 9.41421 20.25 9V8.8C20.25 8.40832 20.249 8.17481 20.2305 8.00424C20.2196 7.9039 20.2058 7.8628 20.2007 7.85088C20.1861 7.83128 20.1687 7.81391 20.1491 7.79934C20.1372 7.79421 20.0961 7.78038 19.9958 7.76951C19.9263 7.76199 19.8465 7.75736 19.7498 7.75451C19.75 7.89745 19.75 8.04584 19.75 8.2V13.8C19.75 15.8624 19.75 16.8935 19.2248 17.6164C19.0552 17.8499 18.8499 18.0552 18.6164 18.2248C18.3126 18.4455 17.9543 18.5735 17.4879 18.6477C17.4959 18.6925 17.5 18.7386 17.5 18.7857C17.5 19.8706 16.6029 20.75 15.518 20.75C14.4135 20.75 13.5 19.8546 13.5 18.75H10.5C10.5 19.8546 9.58656 20.75 8.48199 20.75C7.39714 20.75 6.5 19.8706 6.5 18.7857C6.5 18.7386 6.50415 18.6925 6.51209 18.6477C6.04569 18.5735 5.68741 18.4455 5.38359 18.2248C5.15013 18.0552 4.94483 17.8499 4.77521 17.6164C4.25 16.8935 4.25 15.8624 4.25 13.8V8.2C4.25 8.04584 4.25 7.89745 4.25022 7.75451C4.15352 7.75736 4.07367 7.76199 4.00424 7.76951C3.90391 7.78038 3.8628 7.79421 3.85088 7.79934C3.83128 7.81391 3.81392 7.83128 3.79935 7.85088C3.79421 7.8628 3.78038 7.9039 3.76951 8.00424C3.75103 8.17481 3.75 8.40832 3.75 8.8V9C3.75 9.41421 3.41422 9.75 3 9.75C2.58579 9.75 2.25 9.41421 2.25 9V8.8L2.25 8.76468C2.24997 8.42012 2.24994 8.10389 2.27824 7.84267C2.30903 7.55851 2.38036 7.25197 2.58422 6.97138C2.69216 6.82281 2.82281 6.69216 2.97138 6.58422C3.25197 6.38036 3.55851 6.30902 3.84267 6.27824C3.97512 6.26389 4.12171 6.25682 4.27897 6.25335ZM7 9.15C7 7.83759 7 7.18139 7.33422 6.72138C7.44216 6.57281 7.57281 6.44216 7.72138 6.33422C8.1814 6 8.8376 6 10.15 6H13.85C15.1624 6 15.8186 6 16.2786 6.33422C16.4272 6.44216 16.5578 6.57281 16.6658 6.72138C17 7.18139 17 7.83759 17 9.15V9.6C17 10.9124 17 11.5686 16.6658 12.0286C16.5578 12.1772 16.4272 12.3078 16.2786 12.4158C15.8186 12.75 15.1624 12.75 13.85 12.75H10.15C8.8376 12.75 8.1814 12.75 7.72138 12.4158C7.57281 12.3078 7.44216 12.1772 7.33422 12.0286C7 11.5686 7 10.9124 7 9.6V9.15ZM3.80139 7.84693C3.80143 7.84706 3.80087 7.84834 3.79955 7.85042C3.80068 7.84785 3.80134 7.84681 3.80139 7.84693ZM3.84694 7.80138C3.84682 7.80133 3.84785 7.80067 3.85042 7.79954C3.84834 7.80086 3.84706 7.80143 3.84694 7.80138ZM20.1531 7.80138C20.1529 7.80143 20.1517 7.80086 20.1496 7.79954C20.1522 7.80067 20.1532 7.80133 20.1531 7.80138ZM20.1986 7.84693C20.1987 7.84681 20.1993 7.84785 20.2005 7.85042C20.1991 7.84834 20.1986 7.84706 20.1986 7.84693Z" fill="#292556" fill-opacity="0.18"/>
<path fill-rule="evenodd" clip-rule="evenodd" d="M7 9.15C7 7.83759 7 7.18139 7.33422 6.72138C7.44216 6.57281 7.57281 6.44216 7.72138 6.33422C8.18139 6 8.83759 6 10.15 6H13.85C15.1624 6 15.8186 6 16.2786 6.33422C16.4272 6.44216 16.5578 6.57281 16.6658 6.72138C17 7.18139 17 7.83759 17 9.15V9.6C17 10.9124 17 11.5686 16.6658 12.0286C16.5578 12.1772 16.4272 12.3078 16.2786 12.4158C15.8186 12.75 15.1624 12.75 13.85 12.75H10.15C8.83759 12.75 8.18139 12.75 7.72138 12.4158C7.57281 12.3078 7.44216 12.1772 7.33422 12.0286C7 11.5686 7 10.9124 7 9.6V9.15Z" fill="#292556"/>
<path d="M9 15C9 15.5523 8.55228 16 8 16V16C7.44772 16 7 15.5523 7 15V15C7 14.4477 7.44772 14 8 14V14C8.55228 14 9 14.4477 9 15V15Z" fill="#292556"/>
<path d="M17 15C17 15.5523 16.5523 16 16 16V16C15.4477 16 15 15.5523 15 15V15C15 14.4477 15.4477 14 16 14V14C16.5523 14 17 14.4477 17 15V15Z" fill="#292556"/>
</svg>
