<svg width="24" height="24" viewBox="0 0 24 24" fill="none" xmlns="http://www.w3.org/2000/svg">
<path d="M7 5L6.5 3M10 4.5L9.75 3.5M13 5L12.5 3.5M16 21H5" stroke="#292556" stroke-width="1.5" stroke-linecap="round" stroke-linejoin="round"/>
<path fill-rule="evenodd" clip-rule="evenodd" d="M4.25 12.5V12.1154C4.25 10.1338 4.25 9.14307 4.73679 8.43782C4.92607 8.16361 5.16361 7.92607 5.43782 7.73679C6.14307 7.25 7.13384 7.25 9.11539 7.25H11.8846C13.8662 7.25 14.8569 7.25 15.5622 7.73679C15.8364 7.92607 16.0739 8.16361 16.2632 8.43782C16.5654 8.87562 16.68 9.42344 16.7235 10.25H17C18.5188 10.25 19.75 11.4812 19.75 13C19.75 14.5188 18.5188 15.75 17 15.75H16.6231C16.5493 16.1943 16.4325 16.5548 16.2476 16.875C15.9185 17.4451 15.4451 17.9185 14.875 18.2476C14.0048 18.75 12.8365 18.75 10.5 18.75C8.16346 18.75 6.99519 18.75 6.125 18.2476C5.55493 17.9185 5.08154 17.4451 4.7524 16.875C4.25 16.0048 4.25 14.8365 4.25 12.5ZM16.738 14.25H17C17.6904 14.25 18.25 13.6904 18.25 13C18.25 12.3096 17.6904 11.75 17 11.75H16.7499C16.75 11.8679 16.75 11.9897 16.75 12.1154V12.5C16.75 13.1734 16.75 13.7498 16.738 14.25Z" fill="#292556" fill-opacity="0.18"/>
</svg>
