<svg width="24" height="24" viewBox="0 0 24 24" fill="none" xmlns="http://www.w3.org/2000/svg">
<path d="M14.85 2.25H9.15C6.90016 2.25 5.77524 2.25 4.98664 2.82295C4.73196 3.00799 4.50799 3.23196 4.32295 3.48664C3.75 4.27524 3.75 5.40016 3.75 7.65V16.35C3.75 18.5998 3.75 19.7248 4.32295 20.5134C4.50799 20.768 4.73196 20.992 4.98664 21.1771C5.77524 21.75 6.90016 21.75 9.15 21.75H14.85C17.0998 21.75 18.2248 21.75 19.0134 21.1771C19.268 20.992 19.492 20.768 19.6771 20.5134C20.25 19.7248 20.25 18.5998 20.25 16.35V7.65C20.25 5.40016 20.25 4.27524 19.6771 3.48664C19.492 3.23196 19.268 3.00799 19.0134 2.82295C18.2248 2.25 17.0998 2.25 14.85 2.25Z" fill="#292556" fill-opacity="0.18"/>
<path d="M6 5.4C6 5.02503 6 4.83754 6.09549 4.70611C6.12633 4.66366 6.16366 4.62633 6.20611 4.59549C6.33754 4.5 6.52503 4.5 6.9 4.5H17.1C17.475 4.5 17.6625 4.5 17.7939 4.59549C17.8363 4.62633 17.8737 4.66366 17.9045 4.70611C18 4.83754 18 5.02503 18 5.4V7.1C18 7.47497 18 7.66246 17.9045 7.79389C17.8737 7.83634 17.8363 7.87367 17.7939 7.90451C17.6625 8 17.475 8 17.1 8H6.9C6.52503 8 6.33754 8 6.20611 7.90451C6.16366 7.87367 6.12633 7.83634 6.09549 7.79389C6 7.66246 6 7.47497 6 7.1V5.4Z" fill="#292556"/>
<path d="M6.5 10.75C6.5 10.0596 7.05964 9.5 7.75 9.5C8.44036 9.5 9 10.0596 9 10.75C9 11.4404 8.44036 12 7.75 12C7.05964 12 6.5 11.4404 6.5 10.75Z" fill="#292556"/>
<path d="M6.5 14.5C6.5 13.8096 7.05964 13.25 7.75 13.25C8.44036 13.25 9 13.8096 9 14.5C9 15.1904 8.44036 15.75 7.75 15.75C7.05964 15.75 6.5 15.1904 6.5 14.5Z" fill="#292556"/>
<path d="M6.5 18.25C6.5 17.5596 7.05964 17 7.75 17C8.44036 17 9 17.5596 9 18.25C9 18.9404 8.44036 19.5 7.75 19.5C7.05964 19.5 6.5 18.9404 6.5 18.25Z" fill="#292556"/>
<path d="M10.75 10.75C10.75 10.0596 11.3096 9.5 12 9.5C12.6904 9.5 13.25 10.0596 13.25 10.75C13.25 11.4404 12.6904 12 12 12C11.3096 12 10.75 11.4404 10.75 10.75Z" fill="#292556"/>
<path d="M10.75 14.5C10.75 13.8096 11.3096 13.25 12 13.25C12.6904 13.25 13.25 13.8096 13.25 14.5C13.25 15.1904 12.6904 15.75 12 15.75C11.3096 15.75 10.75 15.1904 10.75 14.5Z" fill="#292556"/>
<path d="M10.75 18.25C10.75 17.5596 11.3096 17 12 17C12.6904 17 13.25 17.5596 13.25 18.25C13.25 18.9404 12.6904 19.5 12 19.5C11.3096 19.5 10.75 18.9404 10.75 18.25Z" fill="#292556"/>
<path d="M15 10.75C15 10.0596 15.5596 9.5 16.25 9.5C16.9404 9.5 17.5 10.0596 17.5 10.75C17.5 11.4404 16.9404 12 16.25 12C15.5596 12 15 11.4404 15 10.75Z" fill="#292556"/>
<path d="M15 14.15C15 13.775 15 13.5875 15.0955 13.4561C15.1263 13.4137 15.1637 13.3763 15.2061 13.3455C15.3375 13.25 15.525 13.25 15.9 13.25H16.6C16.975 13.25 17.1625 13.25 17.2939 13.3455C17.3363 13.3763 17.3737 13.4137 17.4045 13.4561C17.5 13.5875 17.5 13.775 17.5 14.15V18.6C17.5 18.975 17.5 19.1625 17.4045 19.2939C17.3737 19.3363 17.3363 19.3737 17.2939 19.4045C17.1625 19.5 16.975 19.5 16.6 19.5H15.9C15.525 19.5 15.3375 19.5 15.2061 19.4045C15.1637 19.3737 15.1263 19.3363 15.0955 19.2939C15 19.1625 15 18.975 15 18.6V14.15Z" fill="#292556"/>
</svg>
