<svg width="24" height="24" viewBox="0 0 24 24" fill="none" xmlns="http://www.w3.org/2000/svg">
<path d="M9.75 3C9.75 2.58579 9.41421 2.25 9 2.25C8.58579 2.25 8.25 2.58579 8.25 3H9.75ZM15.75 3C15.75 2.58579 15.4142 2.25 15 2.25C14.5858 2.25 14.25 2.58579 14.25 3H15.75ZM9.75 4.25V3H8.25V4.25H9.75ZM15.75 4.25V3H14.25V4.25H15.75Z" fill="#292556"/>
<path d="M21.75 13V10.75C21.75 9.35547 21.75 8.65821 21.6118 8.08277C21.1729 6.25453 19.7455 4.82707 17.9172 4.38815C17.3418 4.25 16.6445 4.25 15.25 4.25H8.75C7.35547 4.25 6.65821 4.25 6.08277 4.38815C4.25453 4.82707 2.82707 6.25453 2.38815 8.08277C2.25 8.65821 2.25 9.35547 2.25 10.75V13C2.25 16.5112 2.25 18.2667 3.09265 19.5279C3.45744 20.0738 3.9262 20.5426 4.47215 20.9073C5.73327 21.75 7.48884 21.75 11 21.75H13C16.5112 21.75 18.2667 21.75 19.5279 20.9073C20.0738 20.5426 20.5426 20.0738 20.9073 19.5279C21.75 18.2667 21.75 16.5112 21.75 13Z" fill="#292556" fill-opacity="0.18"/>
<path d="M8.11286 15.4679C8.64866 14.1283 9.94601 13.25 11.3887 13.25H12.6113C14.054 13.25 15.3513 14.1283 15.8871 15.4679V15.4679C16.4202 16.8004 15.4388 18.25 14.0035 18.25H9.99647C8.56123 18.25 7.57983 16.8004 8.11286 15.4679V15.4679Z" fill="#292556"/>
<path d="M14.25 10C14.25 11.2426 13.2426 12.25 12 12.25C10.7574 12.25 9.75 11.2426 9.75 10C9.75 8.75736 10.7574 7.75 12 7.75C13.2426 7.75 14.25 8.75736 14.25 10Z" fill="#292556"/>
</svg>
