<svg width="24" height="24" viewBox="0 0 24 24" fill="none" xmlns="http://www.w3.org/2000/svg">
<path d="M9.75 3C9.75 2.58579 9.41421 2.25 9 2.25C8.58579 2.25 8.25 2.58579 8.25 3H9.75ZM15.75 3C15.75 2.58579 15.4142 2.25 15 2.25C14.5858 2.25 14.25 2.58579 14.25 3H15.75ZM9.75 4.25V3H8.25V4.25H9.75ZM15.75 4.25V3H14.25V4.25H15.75Z" fill="#292556"/>
<path d="M21.75 12.9167V10.75C21.75 9.35547 21.75 8.65821 21.6118 8.08277C21.1729 6.25453 19.7455 4.82707 17.9172 4.38815C17.3418 4.25 16.6445 4.25 15.25 4.25H8.75C7.35547 4.25 6.65821 4.25 6.08277 4.38815C4.25453 4.82707 2.82707 6.25453 2.38815 8.08277C2.25 8.65821 2.25 9.35547 2.25 10.75V12.9167C2.25 16.3485 2.25 18.0644 3.05665 19.3065C3.43827 19.8942 3.93915 20.3951 4.5268 20.7767C5.76893 21.5833 7.48484 21.5833 10.9167 21.5833H13.0833C16.5152 21.5833 18.2311 21.5833 19.4732 20.7767C20.0608 20.3951 20.5617 19.8942 20.9434 19.3065C21.75 18.0644 21.75 16.3485 21.75 12.9167Z" fill="#292556" fill-opacity="0.18"/>
<path d="M7 9.5C7 8.94772 7.44772 8.5 8 8.5C8.55228 8.5 9 8.94772 9 9.5C9 10.0523 8.55228 10.5 8 10.5C7.44772 10.5 7 10.0523 7 9.5Z" fill="#292556"/>
<path d="M7 13C7 12.4477 7.44772 12 8 12C8.55228 12 9 12.4477 9 13C9 13.5523 8.55228 14 8 14C7.44772 14 7 13.5523 7 13Z" fill="#292556"/>
<path d="M7 16.5C7 15.9477 7.44772 15.5 8 15.5C8.55228 15.5 9 15.9477 9 16.5C9 17.0523 8.55228 17.5 8 17.5C7.44772 17.5 7 17.0523 7 16.5Z" fill="#292556"/>
<path d="M11 9.5C11 8.94772 11.4477 8.5 12 8.5C12.5523 8.5 13 8.94772 13 9.5C13 10.0523 12.5523 10.5 12 10.5C11.4477 10.5 11 10.0523 11 9.5Z" fill="#292556"/>
<path d="M11 13C11 12.4477 11.4477 12 12 12C12.5523 12 13 12.4477 13 13C13 13.5523 12.5523 14 12 14C11.4477 14 11 13.5523 11 13Z" fill="#292556"/>
<path d="M11 16.5C11 15.9477 11.4477 15.5 12 15.5C12.5523 15.5 13 15.9477 13 16.5C13 17.0523 12.5523 17.5 12 17.5C11.4477 17.5 11 17.0523 11 16.5Z" fill="#292556"/>
<path d="M15 9.5C15 8.94772 15.4477 8.5 16 8.5C16.5523 8.5 17 8.94772 17 9.5C17 10.0523 16.5523 10.5 16 10.5C15.4477 10.5 15 10.0523 15 9.5Z" fill="#292556"/>
<path d="M15 13C15 12.4477 15.4477 12 16 12C16.5523 12 17 12.4477 17 13C17 13.5523 16.5523 14 16 14C15.4477 14 15 13.5523 15 13Z" fill="#292556"/>
<path d="M15 16.5C15 15.9477 15.4477 15.5 16 15.5C16.5523 15.5 17 15.9477 17 16.5C17 17.0523 16.5523 17.5 16 17.5C15.4477 17.5 15 17.0523 15 16.5Z" fill="#292556"/>
</svg>
