<svg width="24" height="24" viewBox="0 0 24 24" fill="none" xmlns="http://www.w3.org/2000/svg">
<path d="M9.75 3C9.75 2.58579 9.41421 2.25 9 2.25C8.58579 2.25 8.25 2.58579 8.25 3H9.75ZM15.75 3C15.75 2.58579 15.4142 2.25 15 2.25C14.5858 2.25 14.25 2.58579 14.25 3H15.75ZM9.75 4.25V3H8.25V4.25H9.75ZM15.75 4.25V3H14.25V4.25H15.75Z" fill="#292556"/>
<path d="M21.75 12.9167V10.75C21.75 9.35547 21.75 8.65821 21.6118 8.08277C21.1729 6.25453 19.7455 4.82707 17.9172 4.38815C17.3418 4.25 16.6445 4.25 15.25 4.25H8.75C7.35547 4.25 6.65821 4.25 6.08277 4.38815C4.25453 4.82707 2.82707 6.25453 2.38815 8.08277C2.25 8.65821 2.25 9.35547 2.25 10.75V12.9167C2.25 16.3485 2.25 18.0644 3.05665 19.3065C3.43827 19.8942 3.93915 20.3951 4.5268 20.7767C5.76893 21.5833 7.48484 21.5833 10.9167 21.5833H13.0833C16.5152 21.5833 18.2311 21.5833 19.4732 20.7767C20.0608 20.3951 20.5617 19.8942 20.9434 19.3065C21.75 18.0644 21.75 16.3485 21.75 12.9167Z" fill="#292556" fill-opacity="0.18"/>
<path d="M12 16.4102V9.41016M7.5 16.4102V9.41016M16.5 16.4102V9.41016" stroke="#292556" stroke-width="1.5" stroke-linecap="round" stroke-linejoin="round"/>
</svg>
