<svg width="24" height="24" viewBox="0 0 24 24" fill="none" xmlns="http://www.w3.org/2000/svg">
<path d="M9.75 3C9.75 2.58579 9.41421 2.25 9 2.25C8.58579 2.25 8.25 2.58579 8.25 3H9.75ZM15.75 3C15.75 2.58579 15.4142 2.25 15 2.25C14.5858 2.25 14.25 2.58579 14.25 3H15.75ZM9.75 4.25V3H8.25V4.25H9.75ZM15.75 4.25V3H14.25V4.25H15.75Z" fill="#292556"/>
<path d="M21.75 13V10.75C21.75 9.35547 21.75 8.65821 21.6118 8.08277C21.1729 6.25453 19.7455 4.82707 17.9172 4.38815C17.3418 4.25 16.6445 4.25 15.25 4.25H8.75C7.35547 4.25 6.65821 4.25 6.08277 4.38815C4.25453 4.82707 2.82707 6.25453 2.38815 8.08277C2.25 8.65821 2.25 9.35547 2.25 10.75V13C2.25 16.5112 2.25 18.2667 3.09265 19.5279C3.45744 20.0738 3.9262 20.5426 4.47215 20.9073C5.73327 21.75 7.48884 21.75 11 21.75H13C16.5112 21.75 18.2667 21.75 19.5279 20.9073C20.0738 20.5426 20.5426 20.0738 20.9073 19.5279C21.75 18.2667 21.75 16.5112 21.75 13Z" fill="#292556" fill-opacity="0.18"/>
<path fill-rule="evenodd" clip-rule="evenodd" d="M13.3265 12.7993L14.9999 12.7993C15.4141 12.7993 15.7499 13.1351 15.7499 13.5493C15.7499 13.9635 15.4141 14.2993 14.9999 14.2993L13.2694 14.2993C13.0038 14.7203 12.5345 15 11.9999 15C11.1715 15 10.4999 14.3284 10.4999 13.5C10.4999 12.9448 10.8015 12.46 11.2499 12.2007L11.2499 9.5C11.2499 9.08579 11.5857 8.75 11.9999 8.75C12.4141 8.75 12.7499 9.08579 12.7499 9.5L12.7499 12.2007C12.9939 12.3418 13.1944 12.5497 13.3265 12.7993Z" fill="#292556"/>
</svg>
