<svg width="24" height="24" viewBox="0 0 24 24" fill="none" xmlns="http://www.w3.org/2000/svg">
<path d="M9.75 3C9.75 2.58579 9.41421 2.25 9 2.25C8.58579 2.25 8.25 2.58579 8.25 3H9.75ZM15.75 3C15.75 2.58579 15.4142 2.25 15 2.25C14.5858 2.25 14.25 2.58579 14.25 3H15.75ZM9.75 4.25V3H8.25V4.25H9.75ZM15.75 4.25V3H14.25V4.25H15.75Z" fill="#292556"/>
<path d="M21.75 12.9167V10.75C21.75 9.35547 21.75 8.65821 21.6118 8.08277C21.1729 6.25453 19.7455 4.82707 17.9172 4.38815C17.3418 4.25 16.6445 4.25 15.25 4.25H8.75C7.35547 4.25 6.65821 4.25 6.08277 4.38815C4.25453 4.82707 2.82707 6.25453 2.38815 8.08277C2.25 8.65821 2.25 9.35547 2.25 10.75V12.9167C2.25 16.3485 2.25 18.0644 3.05665 19.3065C3.43827 19.8942 3.93915 20.3951 4.5268 20.7767C5.76893 21.5833 7.48484 21.5833 10.9167 21.5833H13.0833C16.5152 21.5833 18.2311 21.5833 19.4732 20.7767C20.0608 20.3951 20.5617 19.8942 20.9434 19.3065C21.75 18.0644 21.75 16.3485 21.75 12.9167Z" fill="#292556" fill-opacity="0.18"/>
<path d="M10.7504 10.0438C10.9855 9.28288 11.1031 8.90242 11.2294 8.74968C11.6294 8.26618 12.3706 8.26618 12.7706 8.74968C12.8969 8.90242 13.0145 9.28288 13.2496 10.0438V10.0438C13.3136 10.251 13.3456 10.3546 13.3923 10.4409C13.534 10.7032 13.7853 10.8885 14.0776 10.9465C14.1739 10.9656 14.2841 10.9656 14.5044 10.9656V10.9656C15.3423 10.9656 15.7613 10.9656 15.9592 11.0559C16.4835 11.2955 16.6973 11.9275 16.426 12.4362C16.3237 12.6281 15.9965 12.8781 15.3421 13.378L15.2357 13.4593C15.0452 13.6048 14.95 13.6775 14.8794 13.7613C14.7094 13.9631 14.626 14.224 14.6475 14.487C14.6564 14.5962 14.6918 14.7107 14.7625 14.9397L14.8176 15.1179C15.0391 15.8346 15.1498 16.193 15.1351 16.3831C15.0865 17.0127 14.4737 17.4402 13.866 17.2683C13.6825 17.2165 13.3845 16.9888 12.7884 16.5334V16.5334C12.6157 16.4015 12.5294 16.3355 12.4417 16.2924C12.1632 16.1552 11.8368 16.1552 11.5583 16.2924C11.4706 16.3355 11.3843 16.4015 11.2116 16.5334V16.5334C10.6155 16.9888 10.3175 17.2165 10.134 17.2683C9.52633 17.4402 8.91351 17.0127 8.86488 16.3831C8.8502 16.193 8.96093 15.8346 9.1824 15.1179L9.23748 14.9397C9.30824 14.7107 9.34362 14.5962 9.35254 14.487C9.37401 14.224 9.29063 13.9631 9.12058 13.7613C9.04998 13.6775 8.95475 13.6048 8.76429 13.4593L8.65795 13.378C8.00355 12.8781 7.67634 12.6281 7.57395 12.4362C7.30266 11.9275 7.51647 11.2955 8.04083 11.0559C8.23873 10.9656 8.65767 10.9656 9.49556 10.9656V10.9656C9.7159 10.9656 9.82608 10.9656 9.92236 10.9465C10.2147 10.8885 10.466 10.7032 10.6077 10.4409C10.6544 10.3546 10.6864 10.251 10.7504 10.0438V10.0438Z" fill="#292556"/>
</svg>
