<svg width="24" height="24" viewBox="0 0 24 24" fill="none" xmlns="http://www.w3.org/2000/svg">
<path fill-rule="evenodd" clip-rule="evenodd" d="M9.75 3C9.75 2.58579 9.41421 2.25 9 2.25C8.58579 2.25 8.25 2.58579 8.25 3V4.25H8.75C7.35547 4.25 6.65821 4.25 6.08277 4.38815C4.25453 4.82707 2.82707 6.25453 2.38815 8.08277C2.25 8.65821 2.25 9.35547 2.25 10.75V13C2.25 16.5112 2.25 18.2667 3.09265 19.5279C3.45744 20.0738 3.9262 20.5426 4.47215 20.9073C5.73327 21.75 7.48884 21.75 11 21.75H13C16.5112 21.75 18.2667 21.75 19.5279 20.9073C20.0738 20.5426 20.5426 20.0738 20.9073 19.5279C21.75 18.2667 21.75 16.5112 21.75 13V10.75C21.75 9.35547 21.75 8.65821 21.6118 8.08277C21.1729 6.25453 19.7455 4.82707 17.9172 4.38815C17.3418 4.25 16.6445 4.25 15.25 4.25H15.75V3C15.75 2.58579 15.4142 2.25 15 2.25C14.5858 2.25 14.25 2.58579 14.25 3V4.25H9.75V3Z" fill="#292556" fill-opacity="0.18"/>
<path d="M13.2728 8.21225C12.7426 7.68195 12.4774 7.41681 12.1565 7.36598C12.0528 7.34956 11.9473 7.34956 11.8436 7.36598C11.5227 7.41681 11.2576 7.68195 10.7273 8.21225L8.31502 10.6245C7.77464 11.1649 7.50445 11.4351 7.44336 11.7265C7.39253 11.969 7.43354 12.2217 7.55845 12.4357C7.70854 12.6929 8.05031 12.8638 8.73384 13.2056V13.2056L8.26208 13.6774C7.11149 14.828 6.53619 15.4033 6.6159 15.9066C6.64059 16.0624 6.70182 16.2102 6.79458 16.3379C7.09407 16.7501 7.90768 16.7501 9.5349 16.7501H11.25L11.2499 18.0001C11.2499 18.4143 11.5857 18.7501 11.9999 18.7501C12.4141 18.7501 12.7499 18.4144 12.7499 18.0002L12.75 16.7501H14.465C16.0924 16.7501 16.906 16.7501 17.2055 16.3379C17.2983 16.2102 17.3595 16.0624 17.3842 15.9065C17.4639 15.4033 16.8885 14.8279 15.7378 13.6773L15.2661 13.2056V13.2056C15.9497 12.8638 16.2915 12.6929 16.4417 12.4357C16.5665 12.2217 16.6076 11.969 16.5567 11.7265C16.4957 11.4351 16.2254 11.1648 15.685 10.6244L13.2728 8.21225Z" fill="#292556"/>
</svg>
