<svg width="24" height="24" viewBox="0 0 24 24" fill="none" xmlns="http://www.w3.org/2000/svg">
<path d="M21.75 13.2V10.3465C21.75 9.79251 21.75 9.51552 21.7242 9.28246C21.5054 7.30542 19.9446 5.74461 17.9675 5.52579C17.7345 5.5 17.4575 5.5 16.9035 5.5H16.6944C16.495 5.5 16.3333 5.33833 16.3333 5.13889C16.3333 3.5434 15.0399 2.25 13.4444 2.25H10.5556C8.96007 2.25 7.66667 3.5434 7.66667 5.13889C7.66667 5.33833 7.50499 5.5 7.30556 5.5H7.09649C6.54251 5.5 6.26552 5.5 6.03246 5.52579C4.05542 5.74461 2.49461 7.30542 2.27579 9.28246C2.25 9.51552 2.25 9.79251 2.25 10.3465V13.2C2.25 16.7622 2.25 18.5434 3.15717 19.792C3.45015 20.1952 3.80477 20.5499 4.20802 20.8428C5.45663 21.75 7.23775 21.75 10.8 21.75H13.2C16.7622 21.75 18.5434 21.75 19.792 20.8428C20.1952 20.5499 20.5499 20.1952 20.8428 19.792C21.75 18.5434 21.75 16.7622 21.75 13.2Z" fill="#292556" fill-opacity="0.18"/>
<path d="M8.5 13C8.5 11.067 10.067 9.5 12 9.5V9.5C13.933 9.5 15.5 11.067 15.5 13V13C15.5 14.933 13.933 16.5 12 16.5V16.5C10.067 16.5 8.5 14.933 8.5 13V13Z" fill="#292556"/>
</svg>
