<svg width="24" height="24" viewBox="0 0 24 24" fill="none" xmlns="http://www.w3.org/2000/svg">
<path d="M18.4382 14.3107C20.0502 12.6986 20.8562 11.8926 21.1216 10.9497C21.3087 10.2852 21.3087 9.58209 21.1216 8.91766C20.8562 7.9747 20.0502 7.16869 18.4382 5.55668V5.55668C16.8262 3.94466 16.0202 3.13866 15.0772 2.87325C14.4128 2.68623 13.7096 2.68623 13.0452 2.87325C12.1022 3.13866 11.2962 3.94466 9.68422 5.55668L5.38915 9.85175C4.97355 10.2674 4.76575 10.4752 4.61458 10.6728C3.5863 12.0174 3.5863 13.8842 4.61458 15.2288C4.76575 15.4265 4.97355 15.6343 5.38915 16.0499V16.0499L2.45252 18.9865C1.74955 19.6895 1.74955 20.8293 2.45252 21.5322V21.5322C3.15549 22.2352 4.29523 22.2352 4.99819 21.5322L7.93482 18.5956V18.5956C8.35985 19.0206 8.57237 19.2331 8.775 19.3871C10.116 20.4063 11.9721 20.4063 13.3131 19.3871C13.5157 19.2331 13.7282 19.0206 14.1533 18.5956L18.4382 14.3107Z" fill="#292556" fill-opacity="0.18"/>
<path d="M14.3755 7.5108C14.0827 7.80369 13.6078 7.80369 13.3149 7.5108C13.022 7.21791 13.022 6.74303 13.3149 6.45014C13.6078 6.15724 14.0827 6.15725 14.3755 6.45014C14.6684 6.74303 14.6684 7.21791 14.3755 7.5108Z" fill="#292556"/>
<path d="M16.4966 11.0479C16.2037 11.3408 15.7289 11.3408 15.436 11.0479C15.1431 10.755 15.1431 10.2801 15.436 9.98725C15.7289 9.69435 16.2037 9.69435 16.4966 9.98725C16.7895 10.2801 16.7895 10.755 16.4966 11.0479Z" fill="#292556"/>
<path d="M11.5474 10.3409C11.2545 10.6338 10.7797 10.6338 10.4868 10.3409C10.1939 10.048 10.1939 9.57311 10.4868 9.28021C10.7797 8.98732 11.2545 8.98732 11.5474 9.28021C11.8403 9.57311 11.8403 10.048 11.5474 10.3409Z" fill="#292556"/>
<path d="M14.3755 14.5831C14.0827 14.876 13.6078 14.876 13.3149 14.5831C13.022 14.2902 13.022 13.8153 13.3149 13.5224C13.6078 13.2295 14.0827 13.2295 14.3755 13.5224C14.6684 13.8153 14.6684 14.2902 14.3755 14.5831Z" fill="#292556"/>
<path d="M10.8404 13.876C10.5475 14.1689 10.0726 14.1689 9.77973 13.876C9.48684 13.5831 9.48684 13.1083 9.77973 12.8154C10.0726 12.5225 10.5475 12.5225 10.8404 12.8154C11.1333 13.1083 11.1333 13.5831 10.8404 13.876Z" fill="#292556"/>
</svg>
