<svg width="24" height="24" viewBox="0 0 24 24" fill="none" xmlns="http://www.w3.org/2000/svg">
<path d="M6.5 3.25C4.15279 3.25 2.25 5.15279 2.25 7.5L2.25 16.5C2.25 18.8472 4.15279 20.75 6.5 20.75V20.75C8.84721 20.75 10.75 18.8472 10.75 16.5L10.75 7.5C10.75 5.15279 8.84721 3.25 6.5 3.25V3.25Z" fill="#292556" fill-opacity="0.18"/>
<path d="M20.3588 12.6412C18.5038 10.7863 15.4962 10.7863 13.6412 12.6412C11.7863 14.4962 11.7863 17.5038 13.6412 19.3588C15.4962 21.2137 18.5038 21.2137 20.3588 19.3588C22.2137 17.5038 22.2137 14.4962 20.3588 12.6412Z" fill="#292556" fill-opacity="0.18"/>
<path d="M14.1716 18.8284L19.8284 13.1716M10 12L3 12" stroke="#292556" stroke-width="1.5" stroke-linecap="square" stroke-linejoin="round"/>
</svg>
