<svg width="24" height="24" viewBox="0 0 24 24" fill="none" xmlns="http://www.w3.org/2000/svg">
<path d="M11.4049 5.61088C10.239 4.27797 9.6561 3.61151 9.13324 3.67298C8.97203 3.69193 8.81785 3.74984 8.68403 3.84172C8.25 4.13968 8.25 5.0251 8.25 6.79593V17.2119C8.25 18.9827 8.25 19.8681 8.68403 20.1661C8.81785 20.258 8.97203 20.3159 9.13324 20.3348C9.6561 20.3963 10.239 19.7298 11.4049 18.3969L15.9601 13.189C16.3969 12.6895 16.6154 12.4397 16.6577 12.1471C16.6715 12.0521 16.6715 11.9557 16.6577 11.8607C16.6154 11.5681 16.3969 11.3183 15.9601 10.8189L11.4049 5.61088Z" fill="#292556" fill-opacity="0.18"/>
</svg>
