<svg width="24" height="24" viewBox="0 0 24 24" fill="none" xmlns="http://www.w3.org/2000/svg">
<path d="M10 19C10 20.1046 9.10457 21 8 21C6.89543 21 6 20.1046 6 19C6 17.8954 6.89543 17 8 17C9.10457 17 10 17.8954 10 19Z" fill="#292556" fill-opacity="0.18"/>
<path d="M18 19C18 20.1046 17.1046 21 16 21C14.8954 21 14 20.1046 14 19C14 17.8954 14.8954 17 16 17C17.1046 17 18 17.8954 18 19Z" fill="#292556" fill-opacity="0.18"/>
<path fill-rule="evenodd" clip-rule="evenodd" d="M3 2.75C2.58579 2.75 2.25 3.08579 2.25 3.5C2.25 3.91421 2.58579 4.25 3 4.25C3.69036 4.25 4.25 4.80964 4.25 5.5V10.25V11.5C4.25 11.5393 4.25302 11.5778 4.25883 11.6154C4.27687 12.3975 4.33181 12.9082 4.49907 13.3439C4.87994 14.3361 5.66393 15.1201 6.65612 15.5009C7.30498 15.75 8.11999 15.75 9.75 15.75H14.6133C15.6334 15.75 16.1434 15.75 16.6049 15.6307C17.3093 15.4487 17.9456 15.0657 18.4361 14.5284C18.7575 14.1764 18.9963 13.7257 19.4737 12.8242C20.6672 10.5706 21.264 9.44387 21.2703 8.52587C21.28 7.1185 20.5009 5.82418 19.2527 5.17406C18.4384 4.75 17.1634 4.75 14.6133 4.75H9.75C8.11999 4.75 7.30498 4.75 6.65612 4.99907C6.32914 5.12459 6.02478 5.29388 5.75 5.49998C5.74999 3.98121 4.51878 2.75 3 2.75Z" fill="#292556" fill-opacity="0.18"/>
<path d="M14.25 12L12.5 10.25M12.5 10.25L10.75 8.5M12.5 10.25L14.25 8.5M12.5 10.25L10.75 12" stroke="#292556" stroke-width="1.5" stroke-linecap="round" stroke-linejoin="round"/>
</svg>
