<svg width="24" height="24" viewBox="0 0 24 24" fill="none" xmlns="http://www.w3.org/2000/svg">
<path d="M5.75 18.3867V18.3867C5.75 20.2447 7.25623 21.751 9.11426 21.751H14.8857C16.7438 21.751 18.25 20.2447 18.25 18.3867V18.3867L17.6233 18.4912C15.3576 18.8688 13.6857 19.0639 12 19.0639C10.3143 19.0639 8.6424 18.8688 6.3767 18.4912L5.75 18.3867Z" fill="#292556"/>
<path d="M6.48441 5.85734C7.20261 3.71564 9.45923 2.25195 12 2.25195C14.5408 2.25195 16.7974 3.71564 17.5156 5.85734C19.8864 6.42492 21.75 8.32197 21.75 10.7162C21.75 12.7988 20.2219 14.7238 18.25 15.5322V16.8658L17.3767 17.0114C15.1424 17.3837 13.5643 17.5637 12 17.5637C10.4357 17.5637 8.8576 17.3837 6.6233 17.0114L5.75 16.8658V15.5322C3.77806 14.7238 2.25 12.7988 2.25 10.7162C2.25 8.32197 4.11357 6.42492 6.48441 5.85734Z" fill="#292556" fill-opacity="0.18"/>
<path d="M9.74421 11.407C9.69283 10.996 9.31799 10.7044 8.90697 10.7558C8.49596 10.8072 8.20441 11.182 8.25579 11.593L9.74421 11.407ZM8.75579 15.593C8.80717 16.004 9.18201 16.2956 9.59303 16.2442C10.004 16.1928 10.2956 15.818 10.2442 15.407L8.75579 15.593ZM15.7442 11.593C15.7956 11.182 15.504 10.8072 15.093 10.7558C14.682 10.7044 14.3072 10.996 14.2558 11.407L15.7442 11.593ZM13.7558 15.407C13.7044 15.818 13.996 16.1928 14.407 16.2442C14.818 16.2956 15.1928 16.004 15.2442 15.593L13.7558 15.407ZM12.75 11.5C12.75 11.0858 12.4142 10.75 12 10.75C11.5858 10.75 11.25 11.0858 11.25 11.5H12.75ZM11.25 15.5C11.25 15.9142 11.5858 16.25 12 16.25C12.4142 16.25 12.75 15.9142 12.75 15.5H11.25ZM8.25579 11.593L8.75579 15.593L10.2442 15.407L9.74421 11.407L8.25579 11.593ZM14.2558 11.407L13.7558 15.407L15.2442 15.593L15.7442 11.593L14.2558 11.407ZM11.25 11.5V15.5H12.75V11.5H11.25Z" fill="#292556"/>
</svg>
