<svg width="24" height="24" viewBox="0 0 24 24" fill="none" xmlns="http://www.w3.org/2000/svg">
<path d="M9.41959 10.8272C9.41959 10.8272 8.71912 6.98021 10.8221 5.7982C11.2933 5.53338 11.8048 5.3564 12.2764 5.23813M12.2764 5.23813C13.2079 5.0045 13.9834 5 13.9834 5M12.2764 5.23813C10.8961 7.2065 13.7338 10.8754 13.7338 10.8754L13.9588 11.1267" stroke="#292556" stroke-width="1.5" stroke-linecap="round" stroke-linejoin="round"/>
<path d="M11.1831 10.8395C11.6507 11.072 11.9982 11.3902 12.247 11.7579C12.4128 11.6189 12.6018 11.4944 12.816 11.3879C13.2589 11.1677 13.692 11.2103 13.9181 11.2325L13.9613 11.2367C14.2079 11.2594 14.2343 11.2442 14.2595 11.2297L14.2607 11.229L14.2626 11.228C14.2863 11.2145 14.3119 11.1999 14.414 10.9797L14.432 10.9405C14.5258 10.7348 14.7064 10.3388 15.1218 10.0673C16.2046 9.35949 17.3746 9.55143 18.3159 10.0811C19.2411 10.6018 20.036 11.4846 20.5645 12.393C21.9368 14.7518 21.188 17.7687 18.8381 19.1145C16.492 20.4582 13.4924 19.5959 12.1212 17.2407C12.0266 17.0782 11.9369 16.9087 11.8535 16.7339C10.4713 19.0576 7.49323 19.9019 5.16104 18.5661C2.81116 17.2203 2.06231 14.2034 3.43463 11.8446C3.96308 10.9362 4.75798 10.0534 5.68321 9.53274C6.62451 9.00304 7.79447 8.8111 8.87732 9.51893C9.29269 9.79044 9.47328 10.1864 9.56713 10.3922L9.58507 10.4313C9.68718 10.6515 9.71283 10.6661 9.73654 10.6796L9.73837 10.6806C9.74348 10.6836 9.74777 10.6857 9.75134 10.6872C9.78122 10.7004 9.81315 10.709 10.0787 10.6845L10.0989 10.6826C10.3264 10.6614 10.7461 10.6223 11.1831 10.8395Z" fill="#292556" fill-opacity="0.18"/>
</svg>
