<svg width="24" height="24" viewBox="0 0 24 24" fill="none" xmlns="http://www.w3.org/2000/svg">
<path d="M21.75 11.8V12.2C21.75 15.7622 21.75 17.5434 20.8428 18.792C20.5499 19.1952 20.1952 19.5499 19.792 19.8428C18.5434 20.75 16.7622 20.75 13.2 20.75H10.8C7.23775 20.75 5.45663 20.75 4.20802 19.8428C3.80477 19.5499 3.45015 19.1952 3.15717 18.792C2.25 17.5434 2.25 15.7622 2.25 12.2V11.8C2.25 8.23775 2.25 6.45663 3.15717 5.20802C3.45015 4.80477 3.80477 4.45015 4.20802 4.15717C5.45663 3.25 7.23775 3.25 10.8 3.25H13.2C16.7622 3.25 18.5434 3.25 19.792 4.15717C20.1952 4.45015 20.5499 4.80477 20.8428 5.20802C21.75 6.45663 21.75 8.23775 21.75 11.8Z" fill="#292556" fill-opacity="0.18"/>
<path d="M4.5 12.5028C6.20974 12.4568 7.77049 12.9746 8.89793 14.1021C10.0254 15.2295 10.5432 16.7903 10.4972 18.5M4.5 9.50423C7.06461 9.43513 9.40574 10.2119 11.0969 11.9031C12.7881 13.5943 13.5649 15.9354 13.4958 18.5M4.5 15.5014C5.35487 15.4784 6.13525 15.7373 6.69897 16.301C7.26269 16.8648 7.52162 17.6451 7.49859 18.5" stroke="#292556" stroke-width="1.5" stroke-linecap="round" stroke-linejoin="round"/>
<path d="M5.45711 18.9571C5.06658 19.3476 4.43342 19.3476 4.04289 18.9571C3.65237 18.5666 3.65237 17.9334 4.04289 17.5429C4.43342 17.1524 5.06658 17.1524 5.45711 17.5429C5.84763 17.9334 5.84763 18.5666 5.45711 18.9571Z" fill="#292556"/>
</svg>
