<svg width="24" height="24" viewBox="0 0 24 24" fill="none" xmlns="http://www.w3.org/2000/svg">
<path d="M12 21.75C17.3848 21.75 21.75 17.3848 21.75 12C21.75 6.61522 17.3848 2.25 12 2.25C6.61522 2.25 2.25 6.61522 2.25 12C2.25 17.3848 6.61522 21.75 12 21.75Z" fill="#292556" fill-opacity="0.18"/>
<path d="M14.5 10V10C14.5 8.89543 13.6046 8 12.5 8H12M12 8H11.5C10.3954 8 9.5 8.89543 9.5 10V10C9.5 11.1046 10.3954 12 11.5 12H12M12 8V6.5M12 8V12M12 12H12.5C13.6046 12 14.5 12.8954 14.5 14V14C14.5 15.1046 13.6046 16 12.5 16H12M12 12V16M12 16H11.5C10.3954 16 9.5 15.1046 9.5 14V14M12 16V17.5" stroke="#292556" stroke-width="1.5" stroke-linecap="round" stroke-linejoin="round"/>
</svg>
