<svg width="24" height="24" viewBox="0 0 24 24" fill="none" xmlns="http://www.w3.org/2000/svg">
<path d="M8.5 2.25C5.04767 2.25 2.25 5.0507 2.25 8.50431C2.25 11.9579 5.04767 14.7586 8.5 14.7586H19C20.5193 14.7586 21.75 13.5261 21.75 12.007C21.75 10.488 20.5193 9.25548 19 9.25548C18.7787 9.25548 18.5631 9.28177 18.3564 9.33142C17.7416 8.10009 16.4704 7.25392 15 7.25392C14.8748 7.25392 14.7509 7.26008 14.6286 7.27214C14.0567 4.40817 11.5308 2.25 8.5 2.25Z" fill="#292556" fill-opacity="0.18"/>
<path d="M10 17L7.74719 18.0013C7.45649 18.1304 7.31114 18.195 7.27769 18.3038C7.26718 18.3379 7.26412 18.3739 7.2687 18.4094C7.2833 18.5222 7.41564 18.6104 7.68033 18.7869L8.31967 19.2131C8.58436 19.3896 8.7167 19.4778 8.7313 19.5906C8.73588 19.6261 8.73282 19.6621 8.72231 19.6962C8.68886 19.8049 8.54351 19.8695 8.25281 19.9987L6 21M18 17L15.7472 18.0013C15.4565 18.1304 15.3111 18.195 15.2777 18.3038C15.2672 18.3379 15.2641 18.3739 15.2687 18.4094C15.2833 18.5222 15.4156 18.6104 15.6803 18.7869L16.3197 19.2131C16.5844 19.3896 16.7167 19.4778 16.7313 19.5906C16.7359 19.6261 16.7328 19.6621 16.7223 19.6962C16.6889 19.8049 16.5435 19.8695 16.2528 19.9987L14 21" stroke="#292556" stroke-width="1.5" stroke-linecap="round" stroke-linejoin="round"/>
</svg>
