<svg width="24" height="24" viewBox="0 0 24 24" fill="none" xmlns="http://www.w3.org/2000/svg">
<path d="M17.5 18.75C18.5865 18.75 19.6755 18.3349 20.5052 17.5052C22.1649 15.8455 22.1649 13.1545 20.5052 11.4948C19.7068 10.6964 18.6695 10.2825 17.6247 10.2519C17.3889 9.08994 16.8202 7.98134 15.9194 7.08058C14.699 5.86019 13.0995 5.25 11.5 5.25V18.75H17.5Z" fill="#292556" fill-opacity="0.18"/>
<path d="M7.08058 7.08058C5.66684 8.49432 5.07269 10.4164 5.29578 12.2565C4.5339 12.3042 3.78488 12.6189 3.2019 13.2019C1.9327 14.4711 1.9327 16.5289 3.2019 17.7981C3.83636 18.4326 4.66941 18.75 5.5 18.75H11.5V5.25C9.90049 5.25 8.30097 5.86019 7.08058 7.08058Z" fill="#292556"/>
</svg>
