<svg width="24" height="24" viewBox="0 0 24 24" fill="none" xmlns="http://www.w3.org/2000/svg">
<path d="M5.16113 20.7484C8.48818 22.8174 13.7935 21.6229 17.7081 17.7083C21.975 13.4413 23.0101 7.52205 20.1097 4.31348C18.498 4.59997 17.5011 5.37649 16.7274 6.45956C15.9982 7.48043 15.4814 8.74463 14.8855 10.202C14.7497 10.5341 14.6099 10.8762 14.4624 11.2277C13.6872 13.0764 12.7322 15.0932 11.0929 16.8887C9.68813 18.4272 7.80642 19.7766 5.16113 20.7484Z" fill="#292556"/>
<path d="M3.82914 19.618C1.00467 16.3942 2.0552 10.5286 6.29189 6.29189C10.1379 2.44582 15.3264 1.22547 18.6623 3.14616C17.2772 3.63771 16.2839 4.49967 15.5069 5.58751C14.6658 6.76507 14.0671 8.23332 13.4694 9.69943C13.3401 10.0165 13.2108 10.3335 13.0792 10.6475C12.3197 12.4585 11.4448 14.2785 9.9852 15.8771C8.61888 17.3736 6.70923 18.7084 3.82914 19.618Z" fill="#292556" fill-opacity="0.18"/>
</svg>
