<svg width="24" height="24" viewBox="0 0 24 24" fill="none" xmlns="http://www.w3.org/2000/svg">
<path d="M19.4738 8.01432C17.5092 3.32856 6.48134 3.32856 4.51677 8.01432V8.01432C4.08521 9.04365 4.9453 10 6.06144 10H17.9347C19.0583 10 19.9082 9.05047 19.4738 8.01432V8.01432Z" fill="#292556"/>
<path d="M11.9252 21.75H12.0748C13.7183 21.75 14.5401 21.75 15.1844 21.3721C15.3944 21.2489 15.5872 21.0984 15.7575 20.9244C16.2803 20.3909 16.4793 19.5936 16.8774 17.999L18.2209 12.618C18.3343 12.1639 18.3909 11.9368 18.303 11.7684C18.2749 11.7147 18.2372 11.6664 18.1918 11.6261C18.0498 11.5 17.8158 11.5 17.3477 11.5H6.65232C6.18425 11.5 5.95021 11.5 5.80817 11.6261C5.7628 11.6664 5.72514 11.7147 5.69703 11.7684C5.60905 11.9368 5.66574 12.1639 5.77913 12.618L7.12257 17.999C7.52068 19.5936 7.71973 20.3909 8.24246 20.9244C8.41284 21.0984 8.60558 21.2489 8.8156 21.3721C9.45992 21.75 10.2817 21.75 11.9252 21.75Z" fill="#292556" fill-opacity="0.18"/>
<path d="M12 3.65039L11.8796 2.91011C11.5167 2.96913 11.25 3.28263 11.25 3.65039H12ZM16.1207 3.74028C16.5296 3.67381 16.8071 3.28849 16.7406 2.87964C16.6742 2.4708 16.2889 2.19325 15.88 2.25972L16.1207 3.74028ZM12.75 10V3.65039H11.25V10H12.75ZM12.1204 4.39067L16.1207 3.74028L15.88 2.25972L11.8796 2.91011L12.1204 4.39067Z" fill="#292556"/>
</svg>
