<svg width="24" height="24" viewBox="0 0 24 24" fill="none" xmlns="http://www.w3.org/2000/svg">
<path d="M18.25 17.5C18.2495 17.9142 18.5848 18.2504 18.999 18.251C19.4132 18.2515 19.7495 17.9162 19.75 17.502L18.25 17.5ZM19 20.001L18.5199 20.5771C18.7434 20.7634 19.0546 20.8036 19.3181 20.6802C19.5817 20.5567 19.75 20.292 19.75 20.001L19 20.001ZM16 17.501L16.4801 16.9248C16.3454 16.8125 16.1755 16.751 16 16.751V17.501ZM19 17.4995V16.7495C18.5862 16.7495 18.2505 17.0847 18.25 17.4985L19 17.4995ZM20.25 10.501V15.516H21.75V10.501H20.25ZM19.4801 19.4248L16.4801 16.9248L15.5199 18.0771L18.5199 20.5771L19.4801 19.4248ZM16 16.751H13V18.251H16V16.751ZM19.75 17.502L19.75 17.5005L18.25 17.4985L18.25 17.5L19.75 17.502ZM18.25 17.4995L18.25 20.001L19.75 20.001L19.75 17.4995L18.25 17.4995ZM19.015 16.7495H19V18.2495H19.015V16.7495ZM20.25 15.516C20.25 16.1976 19.6972 16.75 19.0156 16.7495L19.0144 18.2495C20.5249 18.2506 21.75 17.0265 21.75 15.516H20.25ZM13 16.751C12.1716 16.751 11.5 16.0794 11.5 15.251H10C10 16.9078 11.3431 18.251 13 18.251V16.751ZM21.75 10.501C21.75 8.84412 20.4069 7.50098 18.75 7.50098V9.00098C19.5784 9.00098 20.25 9.67255 20.25 10.501H21.75Z" fill="#292556"/>
<path d="M2.25 12.1078V9.25039C2.25 7.15069 2.25 6.10084 2.65855 5.29881C3.01808 4.59302 3.59186 4.01919 4.29763 3.65961C5.09963 3.251 6.14948 3.25092 8.24917 3.25077L14.4987 3.25031C14.964 3.25028 15.1966 3.25026 15.3925 3.27087C17.1529 3.45614 18.544 4.84714 18.7294 6.60751C18.75 6.80335 18.75 7.036 18.75 7.50129V9.00129C18.75 11.3366 18.75 12.5043 18.2481 13.3741C17.9188 13.9449 17.4449 14.4188 16.8741 14.7481C16.0043 15.25 14.8366 15.25 12.5013 15.25H11.5005H10.0005L5.83541 17.6708C5.5569 17.8101 5.22131 17.7628 4.99217 17.5519C4.76303 17.3411 4.688 17.0106 4.80364 16.7215L5.39223 15.25C3.65682 15.25 2.25 13.8432 2.25 12.1078Z" fill="#292556" fill-opacity="0.18"/>
<path d="M7.5 9.5C7.5 10.0523 7.05228 10.5 6.5 10.5C5.94772 10.5 5.5 10.0523 5.5 9.5C5.5 8.94772 5.94772 8.5 6.5 8.5C7.05228 8.5 7.5 8.94772 7.5 9.5Z" fill="#292556"/>
<path d="M11.5 9.5C11.5 10.0523 11.0523 10.5 10.5 10.5C9.94772 10.5 9.5 10.0523 9.5 9.5C9.5 8.94772 9.94772 8.5 10.5 8.5C11.0523 8.5 11.5 8.94772 11.5 9.5Z" fill="#292556"/>
<path d="M15.5 9.5C15.5 10.0523 15.0523 10.5 14.5 10.5C13.9477 10.5 13.5 10.0523 13.5 9.5C13.5 8.94772 13.9477 8.5 14.5 8.5C15.0523 8.5 15.5 8.94772 15.5 9.5Z" fill="#292556"/>
</svg>
