<svg width="24" height="24" viewBox="0 0 24 24" fill="none" xmlns="http://www.w3.org/2000/svg">
<path d="M12.6329 3.46268C12.8126 2.94748 12.9024 2.68988 12.8103 2.50224C12.7811 2.44281 12.7404 2.38976 12.6906 2.34618C12.5332 2.2086 12.2611 2.22865 11.717 2.26876L10.5927 2.35163L10.5656 2.35562C5.86067 3.04979 2.25 7.10295 2.25 12.0007C2.25 17.3855 6.61522 21.7507 12 21.7507C17.0566 21.7507 21.2134 17.9019 21.702 12.9735L21.7039 12.9549L21.7414 12.1917C21.7606 11.8002 21.7702 11.6044 21.6756 11.4657C21.6451 11.421 21.6075 11.3815 21.5644 11.3489C21.4305 11.2475 21.2345 11.2475 20.8424 11.2475H20.1042C18.8722 11.2331 18.3508 11.1414 18.0126 10.9007C17.6867 10.6686 17.3884 10.1888 17.0118 8.88599L16.7695 7.9752C16.6594 7.56118 16.6043 7.35417 16.4591 7.24969C16.4125 7.21617 16.3604 7.19092 16.3053 7.17506C16.1333 7.12562 15.9366 7.21046 15.5433 7.38015L14.6953 7.74592C13.3149 8.23107 12.6185 7.98881 12.3174 7.63527C11.9652 7.22171 11.7608 6.25488 12.2761 4.48583L12.6329 3.46268Z" fill="#292556" fill-opacity="0.18"/>
<path d="M9 8C9 8.55228 8.55228 9 8 9C7.44772 9 7 8.55228 7 8C7 7.44772 7.44772 7 8 7C8.55228 7 9 7.44772 9 8Z" fill="#292556"/>
<path d="M8 13C8 13.5523 7.55228 14 7 14C6.44772 14 6 13.5523 6 13C6 12.4477 6.44772 12 7 12C7.55228 12 8 12.4477 8 13Z" fill="#292556"/>
<path d="M13 12C13 12.5523 12.5523 13 12 13C11.4477 13 11 12.5523 11 12C11 11.4477 11.4477 11 12 11C12.5523 11 13 11.4477 13 12Z" fill="#292556"/>
<path d="M12 17C12 17.5523 11.5523 18 11 18C10.4477 18 10 17.5523 10 17C10 16.4477 10.4477 16 11 16C11.5523 16 12 16.4477 12 17Z" fill="#292556"/>
<path d="M17 16C17 16.5523 16.5523 17 16 17C15.4477 17 15 16.5523 15 16C15 15.4477 15.4477 15 16 15C16.5523 15 17 15.4477 17 16Z" fill="#292556"/>
</svg>
