<svg width="24" height="24" viewBox="0 0 24 24" fill="none" xmlns="http://www.w3.org/2000/svg">
<path d="M21.75 9.75H2.25V12.2C2.25 15.7622 2.25 17.5434 3.15717 18.792C3.45015 19.1952 3.80477 19.5499 4.20802 19.8428C5.45663 20.75 7.23775 20.75 10.8 20.75H13.2C16.7622 20.75 18.5434 20.75 19.792 19.8428C20.1952 19.5499 20.5499 19.1952 20.8428 18.792C21.75 17.5434 21.75 15.7622 21.75 12.2V9.75Z" fill="#292556" fill-opacity="0.18"/>
<path d="M21.75 8.25C21.75 8.01787 21.75 7.90181 21.7459 7.80371C21.6438 5.33454 19.6655 3.35618 17.1963 3.25406C17.0982 3.25 16.9821 3.25 16.75 3.25H7.25C7.01787 3.25 6.90181 3.25 6.80371 3.25406C4.33454 3.35618 2.35618 5.33454 2.25406 7.80371C2.25 7.90181 2.25 8.01787 2.25 8.25V8.25H21.75V8.25Z" fill="#292556"/>
<path d="M18.75 12C18.75 12.4142 18.4142 12.75 18 12.75C17.5858 12.75 17.25 12.4142 17.25 12C17.25 11.5858 17.5858 11.25 18 11.25C18.4142 11.25 18.75 11.5858 18.75 12Z" fill="#292556"/>
<path d="M13.5 12H15.5" stroke="#292556" stroke-width="1.5" stroke-linecap="round" stroke-linejoin="round"/>
</svg>
