<svg width="24" height="24" viewBox="0 0 24 24" fill="none" xmlns="http://www.w3.org/2000/svg">
<path d="M20.2126 17.5704L21.1218 11.8114C21.5179 9.30279 21.7159 8.0485 21.4788 7.55612C21.0941 6.75728 20.1728 6.37237 19.3341 6.66014C18.8172 6.83751 18.0641 7.85991 16.5579 9.90469L16.5579 9.90471C16.448 10.0538 16.3931 10.1284 16.3363 10.1554C16.2445 10.1989 16.1356 10.1826 16.0606 10.1141C16.0141 10.0717 15.9834 9.98433 15.922 9.80957L14.9723 7.10668C13.8839 4.00895 13.3397 2.46009 12.4276 2.23051C12.1472 2.15994 11.8536 2.15994 11.5732 2.23052C10.6611 2.4601 10.1169 4.00897 9.02853 7.1067L8.07802 9.81196C8.01665 9.98662 7.98597 10.0739 7.93957 10.1163C7.86452 10.1849 7.75543 10.2012 7.66362 10.1576C7.60686 10.1306 7.55199 10.056 7.44225 9.90694C5.93713 7.86202 5.18457 6.83956 4.66825 6.6619C3.82901 6.37312 2.90648 6.75832 2.52178 7.55815C2.28511 8.05023 2.48309 9.30425 2.87906 11.8123L3.78813 17.5704C4.06667 19.3346 4.20594 20.2168 4.73431 20.8164C4.906 21.0113 5.10442 21.1808 5.32367 21.32C5.99841 21.7484 6.89147 21.7484 8.67757 21.7484H15.3232C17.1093 21.7484 18.0024 21.7484 18.6771 21.32C18.8964 21.1808 19.0948 21.0113 19.2665 20.8164C19.7948 20.2168 19.9341 19.3346 20.2126 17.5704Z" fill="#292556" fill-opacity="0.18"/>
<path d="M9.25 15.5C9.25 13.9812 10.4812 12.75 12 12.75V12.75C13.5188 12.75 14.75 13.9812 14.75 15.5V15.5C14.75 17.0188 13.5188 18.25 12 18.25V18.25C10.4812 18.25 9.25 17.0188 9.25 15.5V15.5Z" fill="#292556"/>
</svg>
