<svg width="24" height="24" viewBox="0 0 24 24" fill="none" xmlns="http://www.w3.org/2000/svg">
<path d="M10.5 7.15625C7.35482 7.84292 5 10.644 5 13.9952C5 17.8612 8.13401 20.9952 12 20.9952C15.866 20.9952 19 17.8612 19 13.9952C19 10.644 16.6452 7.84292 13.5 7.15625" stroke="#292556" stroke-opacity="0.18" stroke-width="1.5" stroke-linecap="round"/>
<path d="M15.0281 6.36079C15.6804 5.63051 16.0066 5.26537 16.0408 4.84726C16.0518 4.7125 16.0409 4.57685 16.0084 4.44559C15.9078 4.03835 15.5274 3.73012 14.7665 3.11367L14.3199 2.75181C14.0477 2.53123 13.9116 2.42094 13.7544 2.35289C13.7023 2.33033 13.6487 2.31136 13.594 2.29608C13.429 2.25 13.2539 2.25 12.9035 2.25H11.0977C10.7473 2.25 10.5721 2.25 10.4072 2.29609C10.3525 2.31136 10.2989 2.33034 10.2468 2.3529C10.0896 2.42096 9.95348 2.53126 9.68123 2.75185L9.23468 3.11369C8.47391 3.73014 8.09352 4.03836 7.99289 4.44559C7.96046 4.57685 7.94953 4.71249 7.96054 4.84725C7.9947 5.26534 8.32085 5.63047 8.97315 6.36073L10.3226 7.87145C11.0141 8.64559 11.3598 9.03266 11.7912 9.10597C11.9298 9.12953 12.0714 9.12953 12.21 9.10597C12.6414 9.03267 12.9871 8.64561 13.6786 7.87148L15.0281 6.36079Z" fill="#292556"/>
</svg>
