<svg width="24" height="24" viewBox="0 0 24 24" fill="none" xmlns="http://www.w3.org/2000/svg">
<path d="M15.9305 17.3658L19.4513 12.7668C20.5282 11.36 21.0667 10.6566 21.139 9.86579C21.1625 9.60876 21.1497 9.34969 21.101 9.09622C20.951 8.31642 20.3458 7.66956 19.1353 6.37584L17.9116 5.06801C17.2699 4.38226 16.9491 4.03938 16.5485 3.8251C16.4161 3.75428 16.2781 3.69441 16.1359 3.64612C15.7058 3.5 15.2362 3.5 14.2971 3.5H9.70292C8.76379 3.5 8.29423 3.5 7.86406 3.64612C7.72187 3.69441 7.58388 3.75428 7.45147 3.8251C7.05087 4.03938 6.73005 4.38226 6.08841 5.06801L4.86471 6.37584C3.65421 7.66956 3.04896 8.31642 2.89903 9.09622C2.85029 9.34969 2.83749 9.60876 2.86098 9.86579C2.93327 10.6566 3.47176 11.36 4.54875 12.7668L8.06953 17.3658C9.66248 19.4466 10.459 20.487 11.4982 20.6799C11.8299 20.7414 12.1701 20.7414 12.5018 20.6799C13.541 20.487 14.3375 19.4466 15.9305 17.3658Z" fill="#292556" fill-opacity="0.18"/>
<path d="M9 12.2188L7 9.5625L7.9232 8.49505C8.39336 7.95143 8.62844 7.67962 8.93006 7.50906C9.02967 7.45273 9.13393 7.40506 9.2417 7.36656C9.568 7.25 9.92737 7.25 10.6461 7.25H12" stroke="#292556" stroke-width="1.5" stroke-linecap="round" stroke-linejoin="round"/>
</svg>
