<svg width="24" height="24" viewBox="0 0 24 24" fill="none" xmlns="http://www.w3.org/2000/svg">
<path d="M9.64452 4.11835C9.46588 3.81815 9.10364 3.68104 8.77099 3.78771V3.78771C7.66801 4.14138 5.74721 4.82068 4.6803 5.32344V5.32344C4.53632 5.39128 4.41767 5.50317 4.34149 5.64292V5.64292C2.91727 8.25557 2.25 11.3759 2.25 14.5023C2.25 15.3192 2.38522 16.3767 2.47745 17.0971V17.0971C2.49256 17.2151 2.53553 17.3279 2.6028 17.426V17.426C3.59541 18.8738 5.24539 19.7081 6.76306 20.2135V20.2135C7.06911 20.3154 7.40603 20.2102 7.59972 19.9523L8.0657 19.3317C8.11328 19.2684 8.13707 19.2367 8.15 19.2203C8.56169 18.6985 9.07991 18.4857 9.73953 18.5676C9.76024 18.5702 9.82797 18.5802 9.96343 18.6003C10.6283 18.699 11.3083 18.7501 12 18.7501C12.6917 18.7501 13.3717 18.699 14.0366 18.6003C14.172 18.5802 14.2398 18.5702 14.2605 18.5676C14.9201 18.4857 15.4383 18.6985 15.85 19.2203C15.8629 19.2367 15.8867 19.2684 15.9343 19.3317L16.4003 19.9523C16.594 20.2102 16.9309 20.3154 17.2369 20.2135V20.2135C18.7546 19.7081 20.4046 18.8738 21.3972 17.426V17.426C21.4645 17.3279 21.5074 17.2151 21.5225 17.0971V17.0971C21.6148 16.3767 21.75 15.3192 21.75 14.5023C21.75 11.3759 21.0827 8.25557 19.6585 5.64292V5.64292C19.5823 5.50317 19.4637 5.39128 19.3197 5.32344V5.32344C18.2528 4.82068 16.332 4.14138 15.229 3.78771V3.78771C14.8964 3.68104 14.5341 3.81815 14.3555 4.11835L14.0884 4.5671C13.8012 5.04975 13.2545 5.309 12.6938 5.27752C12.4555 5.26414 12.2212 5.25744 12 5.25744C11.7788 5.25744 11.5445 5.26414 11.3062 5.27752C10.7455 5.309 10.1988 5.04975 9.91156 4.5671L9.64452 4.11835Z" fill="#292556" fill-opacity="0.18"/>
<path d="M18 12.5C18 11.1193 16.8807 10 15.5 10C14.1193 10 13 11.1193 13 12.5C13 13.8807 14.1193 15 15.5 15C16.8807 15 18 13.8807 18 12.5Z" fill="#292556"/>
<path d="M11 12.5C11 11.1193 9.88071 10 8.5 10C7.11929 10 6 11.1193 6 12.5C6 13.8807 7.11929 15 8.5 15C9.88071 15 11 13.8807 11 12.5Z" fill="#292556"/>
</svg>
