<svg width="24" height="24" viewBox="0 0 24 24" fill="none" xmlns="http://www.w3.org/2000/svg">
<path d="M13.2 2.25H10.8C7.23775 2.25 5.45663 2.25 4.20802 3.15717C3.80477 3.45015 3.45015 3.80477 3.15717 4.20802C2.25 5.45663 2.25 7.23775 2.25 10.8V13.2C2.25 16.7622 2.25 18.5434 3.15717 19.792C3.45015 20.1952 3.80477 20.5499 4.20802 20.8428C5.45663 21.75 7.23775 21.75 10.8 21.75H13.2C16.7622 21.75 18.5434 21.75 19.792 20.8428C20.1952 20.5499 20.5499 20.1952 20.8428 19.792C21.75 18.5434 21.75 16.7622 21.75 13.2V10.8C21.75 7.23775 21.75 5.45663 20.8428 4.20802C20.5499 3.80477 20.1952 3.45015 19.792 3.15717C18.5434 2.25 16.7622 2.25 13.2 2.25Z" fill="#292556" fill-opacity="0.18"/>
<path d="M7 17.5H17" stroke="#292556" stroke-width="1.5" stroke-linecap="round" stroke-linejoin="round"/>
<path d="M9.43549 10.7637C8.62186 10.7637 8.21504 10.7637 8.06529 10.9698C8.01891 11.0336 7.9883 11.1075 7.97596 11.1854C7.9361 11.4371 8.22377 11.7247 8.79909 12.3001L11.3631 14.8641C11.6283 15.1292 11.7609 15.2618 11.9213 15.2872C11.9731 15.2954 12.0259 15.2954 12.0778 15.2872C12.2382 15.2618 12.3708 15.1292 12.6359 14.8641L15.2 12.3C15.7753 11.7247 16.063 11.4371 16.0231 11.1854C16.0108 11.1075 15.9802 11.0336 15.9338 10.9698C15.784 10.7637 15.3772 10.7637 14.5636 10.7637H13.6662L13.1252 6.49207C13.0534 5.92508 12.5711 5.5 11.9995 5.5V5.5C11.428 5.5 10.9457 5.92508 10.8739 6.49207L10.3329 10.7637H9.43549Z" fill="#292556"/>
</svg>
