<svg width="24" height="24" viewBox="0 0 24 24" fill="none" xmlns="http://www.w3.org/2000/svg">
<path d="M15.8592 5.45213C16.6888 6.60806 17.5299 7.94243 18.1659 9.32846H5.80176C6.44923 7.89064 7.31175 6.53326 8.14251 5.38653L8.9245 4.48798L8.9245 4.48798C10.1901 3.03373 10.8229 2.3066 11.6167 2.17245C11.8715 2.1294 12.1317 2.13054 12.386 2.17582C13.1786 2.31693 13.805 3.04958 15.0578 4.51488L15.8592 5.45213Z" fill="#292556"/>
<path d="M18.166 9.32865C18.7991 10.7082 19.25 12.1844 19.25 13.6115C19.25 19.174 15.1605 21.7503 12 21.7503C10.4311 21.7503 8.61973 21.1597 7.19458 19.8342C5.7527 18.4932 4.75 16.4409 4.75 13.6115C4.75 12.1872 5.17522 10.7203 5.80188 9.32865H18.166Z" fill="#292556" fill-opacity="0.18"/>
</svg>
