<svg width="24" height="24" viewBox="0 0 24 24" fill="none" xmlns="http://www.w3.org/2000/svg">
<path d="M15.8593 5.45213C16.689 6.60806 17.5301 7.94243 18.166 9.32846C18.7991 10.7081 19.25 12.1842 19.25 13.6113C19.25 19.1738 15.1605 21.7502 12 21.7502C10.4311 21.7502 8.61973 21.1595 7.19458 19.8341C5.7527 18.493 4.75 16.4407 4.75 13.6113C4.75 10.7155 6.50782 7.64314 8.14264 5.38653L8.92463 4.48798C10.1902 3.03373 10.823 2.3066 11.6168 2.17245C11.8716 2.1294 12.1318 2.13054 12.3862 2.17582C13.1788 2.31693 13.8052 3.04958 15.058 4.51488L15.8593 5.45213Z" fill="#292556" fill-opacity="0.18"/>
<path d="M15 14H11.9997M11.9997 14H9M11.9997 14L12 17M11.9997 14L12 11" stroke="#292556" stroke-width="1.5" stroke-linecap="round" stroke-linejoin="round"/>
</svg>
