<svg width="24" height="24" viewBox="0 0 24 24" fill="none" xmlns="http://www.w3.org/2000/svg">
<path d="M5.25 16.0102C5.25 15.1214 5.25 14.6771 5.49158 14.4543C5.56774 14.3841 5.65763 14.3304 5.75558 14.2966C6.06625 14.1895 6.45751 14.4002 7.24003 14.8216L7.62064 15.0265C8.00178 15.2317 8.19235 15.3343 8.39699 15.3525C8.46433 15.3585 8.53209 15.3577 8.59925 15.35C8.80337 15.3266 8.99129 15.2192 9.36713 15.0045L11.1191 14.0033C11.5005 13.7853 11.6912 13.6763 11.8982 13.6537C11.9662 13.6463 12.0349 13.6459 12.1031 13.6525C12.3103 13.6725 12.5023 13.7792 12.8863 13.9926L14.7256 15.0144C15.1044 15.2249 15.2939 15.3301 15.4985 15.3509C15.5658 15.3578 15.6336 15.3578 15.7009 15.3509C15.9055 15.3301 16.095 15.2249 16.4738 15.0144L16.7444 14.8641C17.5315 14.4269 17.9251 14.2082 18.2388 14.3136C18.3377 14.3468 18.4285 14.4003 18.5055 14.4705C18.75 14.6936 18.75 15.1438 18.75 16.0442L18.75 17.3179C18.75 17.8348 18.75 18.0932 18.6408 18.3072C18.6051 18.3773 18.5612 18.443 18.5101 18.5028C18.3539 18.6854 18.1151 18.7841 17.6374 18.9815L12.6874 21.0268C12.3863 21.1512 12.2358 21.2134 12.0783 21.2257C12.0262 21.2298 11.9738 21.2298 11.9217 21.2257C11.7642 21.2134 11.6137 21.1512 11.3126 21.0268L6.36262 18.9815C5.88492 18.7841 5.64607 18.6854 5.48993 18.5028C5.4388 18.443 5.3949 18.3773 5.35915 18.3072C5.25 18.0932 5.25 17.8348 5.25 17.3179V16.0102Z" fill="#292556"/>
<path fill-rule="evenodd" clip-rule="evenodd" d="M9.40845 2.9771C9.03232 2.77023 8.84426 2.66679 8.6414 2.64632C8.57463 2.63959 8.50736 2.63959 8.4406 2.64632C8.23773 2.66679 8.04967 2.77023 7.67354 2.9771L4.86762 4.52036C3.75204 5.13393 3.19425 5.44071 3.09776 5.88558C3.06746 6.02527 3.06746 6.16983 3.09776 6.30952C3.19425 6.75439 3.75204 7.06117 4.86761 7.67474L5.459 8L4.85861 8.33022C3.74608 8.94211 3.18981 9.24806 3.09298 9.6922C3.06257 9.83168 3.06238 9.97605 3.09242 10.1156C3.18807 10.56 3.74352 10.8674 4.85442 11.4823L7.63618 13.0219C8.01077 13.2292 8.19807 13.3329 8.40038 13.354C8.46697 13.361 8.53409 13.3613 8.60072 13.3548C8.80319 13.3352 8.99128 13.233 9.36744 13.0285L11.1353 12.0676C11.5103 11.8637 11.6978 11.7618 11.8997 11.742C11.9662 11.7355 12.0331 11.7357 12.0995 11.7425C12.3013 11.7633 12.4883 11.8661 12.8624 12.0718L14.5915 13.0229C14.9677 13.2298 15.1557 13.3332 15.3586 13.3537C15.4254 13.3604 15.4926 13.3604 15.5594 13.3537C15.7623 13.3332 15.9503 13.2298 16.3265 13.0229L19.1324 11.4796C20.248 10.8661 20.8057 10.5593 20.9022 10.1144C20.9325 9.97473 20.9325 9.83017 20.9022 9.69048C20.8057 9.24561 20.248 8.93883 19.1324 8.32526L18.541 8L19.1324 7.67474C20.248 7.06117 20.8057 6.75439 20.9022 6.30952C20.9325 6.16983 20.9325 6.02527 20.9022 5.88558C20.8057 5.44071 20.248 5.13393 19.1324 4.52036L16.3265 2.9771C15.9503 2.77023 15.7623 2.66679 15.5594 2.64632C15.4926 2.63959 15.4254 2.63959 15.3586 2.64632C15.1557 2.66679 14.9677 2.77023 14.5915 2.9771L12.8675 3.92535C12.4913 4.13222 12.3033 4.23566 12.1004 4.25613C12.0336 4.26286 11.9664 4.26286 11.8996 4.25613C11.6967 4.23566 11.5087 4.13222 11.1325 3.92535L9.40845 2.9771ZM8.16399 8L12 10.1098L15.836 8L12 5.89019L8.16399 8Z" fill="#292556" fill-opacity="0.18"/>
</svg>
