<svg width="24" height="24" viewBox="0 0 24 24" fill="none" xmlns="http://www.w3.org/2000/svg">
<path d="M3.30255 14.6724C2.32623 15.6487 2.32623 17.2316 3.30255 18.2079C3.78434 18.6897 4.41386 18.9338 5.04531 18.9401C5.05159 19.5715 5.29562 20.201 5.77742 20.6828C6.75373 21.6591 8.33664 21.6591 9.31295 20.6828C10.1045 19.8913 10.2543 18.701 9.76235 17.7585L10.707 16.8139L7.17151 13.2783L6.22682 14.223C5.28436 13.7311 4.09409 13.8809 3.30255 14.6724Z" fill="#292556"/>
<path d="M19.3156 4.6656C16.759 2.10891 11.9599 1.35466 8.96772 5.66926C7.68301 7.9118 6.72415 10.9135 7.17167 13.2779L10.7072 16.8134L10.7211 16.7996C13.0554 17.2068 15.9946 16.2065 18.2263 14.9279C22.7951 12.3102 21.8723 7.22229 19.3156 4.6656Z" fill="#292556" fill-opacity="0.18"/>
</svg>
