<svg width="24" height="24" viewBox="0 0 24 24" fill="none" xmlns="http://www.w3.org/2000/svg">
<path d="M4.04389 18.9049C3.751 19.1977 3.751 19.6726 4.04389 19.9655C4.33678 20.2584 4.81166 20.2584 5.10455 19.9655L4.04389 18.9049ZM19.9538 5.11627C20.2467 4.82337 20.2467 4.3485 19.9538 4.05561C19.6609 3.76271 19.186 3.76271 18.8931 4.05561L19.9538 5.11627ZM5.10455 19.9655L5.63557 19.4345L4.57491 18.3738L4.04389 18.9049L5.10455 19.9655ZM9.87821 15.1918L15.1815 9.88855L14.1209 8.82789L8.81755 14.1312L9.87821 15.1918ZM19.4242 5.64591L19.9538 5.11627L18.8931 4.05561L18.3635 4.58525L19.4242 5.64591Z" fill="#292556"/>
<path d="M15.8833 10.5888C16.3765 11.082 16.6231 11.3286 16.8797 11.4767C17.5758 11.8787 18.4335 11.8787 19.1297 11.4767C19.3862 11.3286 19.6328 11.082 20.126 10.5888V10.5888C20.6192 10.0956 20.8658 9.84905 21.0139 9.59251C21.4158 8.89636 21.4158 8.03867 21.0139 7.34251C20.8658 7.08598 20.6192 6.83939 20.126 6.34619L17.6511 3.87132C17.1579 3.37813 16.9113 3.13153 16.6548 2.98342C15.9586 2.5815 15.1009 2.5815 14.4048 2.98342C14.1483 3.13153 13.9017 3.37813 13.4085 3.87132V3.87132C12.9153 4.36451 12.6687 4.61111 12.5206 4.86764C12.1187 5.56379 12.1187 6.42149 12.5206 7.11764C12.6687 7.37417 12.9153 7.62077 13.4085 8.11396L15.8833 10.5888Z" fill="#292556" fill-opacity="0.18"/>
<path d="M6.3374 20.1348C6.8306 20.628 7.07719 20.8746 7.33372 21.0227C8.02988 21.4246 8.88757 21.4246 9.58373 21.0227C9.84026 20.8746 10.0869 20.628 10.58 20.1348V20.1348C11.0732 19.6416 11.3198 19.395 11.4679 19.1385C11.8699 18.4423 11.8699 17.5846 11.4679 16.8885C11.3198 16.6319 11.0732 16.3853 10.58 15.8921L8.10517 13.4173C7.61198 12.9241 7.36538 12.6775 7.10885 12.5294C6.4127 12.1274 5.555 12.1274 4.85885 12.5294C4.60232 12.6775 4.35572 12.9241 3.86253 13.4173V13.4173C3.36934 13.9105 3.12274 14.157 2.97463 14.4136C2.57271 15.1097 2.57271 15.9674 2.97463 16.6636C3.12274 16.9201 3.36934 17.1667 3.86253 17.6599L6.3374 20.1348Z" fill="#292556" fill-opacity="0.18"/>
</svg>
