<svg width="24" height="24" viewBox="0 0 24 24" fill="none" xmlns="http://www.w3.org/2000/svg">
<path d="M2.25 9.78571C2.25 9.52043 2.25 9.38778 2.2548 9.27567C2.37127 6.55242 4.55242 4.37127 7.27567 4.2548C7.38778 4.25 7.52043 4.25 7.78572 4.25H16.2143C16.4796 4.25 16.6122 4.25 16.7243 4.2548C19.4476 4.37127 21.6287 6.55242 21.7452 9.27567C21.75 9.38778 21.75 9.52043 21.75 9.78571V9.78571V10.3C21.75 14.2372 21.75 16.2058 20.7473 17.5859C20.4235 18.0316 20.0316 18.4235 19.5859 18.7473C18.2058 19.75 16.2372 19.75 12.3 19.75H11.7C7.76278 19.75 5.79417 19.75 4.41413 18.7473C3.96843 18.4235 3.57648 18.0316 3.25266 17.5859C2.25 16.2058 2.25 14.2372 2.25 10.3V9.78571V9.78571Z" fill="#292556" fill-opacity="0.18"/>
<path d="M2.25 10H21.75" stroke="#292556" stroke-width="1.5" stroke-linejoin="round"/>
<path d="M10 18H14" stroke="#292556" stroke-width="1.5" stroke-linecap="round" stroke-linejoin="round"/>
</svg>
