<svg width="24" height="24" viewBox="0 0 24 24" fill="none" xmlns="http://www.w3.org/2000/svg">
<path d="M2.47802 7.91504C2.25 8.79835 2.25 9.94603 2.25 11.9996C2.25 14.3272 2.25 15.491 2.582 16.4252C3.16141 18.0555 4.44414 19.3382 6.07444 19.9176C7.0086 20.2496 8.1724 20.2496 10.5 20.2496H13.5C15.8276 20.2496 16.9914 20.2496 17.9256 19.9176C19.5559 19.3382 20.8386 18.0555 21.418 16.4252C21.75 15.491 21.75 14.3272 21.75 11.9996C21.75 9.94605 21.75 8.79838 21.522 7.91506L17.754 10.6916C16.6402 11.5123 15.7625 12.1591 15.002 12.6175C14.2228 13.087 13.5145 13.3922 12.7288 13.4926C12.2452 13.5543 11.7557 13.5543 11.2721 13.4926C10.4864 13.3923 9.77801 13.0871 8.99883 12.6176C8.23833 12.1593 7.36057 11.5125 6.24672 10.6918L2.47802 7.91504Z" fill="#292556" fill-opacity="0.18"/>
<path fill-rule="evenodd" clip-rule="evenodd" d="M16.0736 3.78277C15.4028 3.75 14.5756 3.75 13.4999 3.75H10.4999C8.17235 3.75 7.00855 3.75 6.07439 4.082C4.82076 4.52754 3.77264 5.38895 3.0918 6.50448L7.1064 9.46247C8.25686 10.3101 9.0791 10.915 9.77299 11.3332C10.455 11.7442 10.9601 11.941 11.462 12.005C11.8195 12.0507 12.1812 12.0507 12.5387 12.005C13.0406 11.9409 13.5457 11.7441 14.2277 11.3331C14.9215 10.9149 15.7438 10.31 16.8942 9.46225L18.9392 7.95532C17.2728 7.68695 16 6.24211 16 4.5C16 4.25418 16.0253 4.01428 16.0736 3.78277Z" fill="#292556"/>
<path d="M21.5 4.5C21.5 5.60457 20.6046 6.5 19.5 6.5C18.3954 6.5 17.5 5.60457 17.5 4.5C17.5 3.39543 18.3954 2.5 19.5 2.5C20.6046 2.5 21.5 3.39543 21.5 4.5Z" fill="#292556"/>
</svg>
