<svg width="24" height="24" viewBox="0 0 24 24" fill="none" xmlns="http://www.w3.org/2000/svg">
<path d="M5.65086 5.98233V5.98233C8.3482 3.8845 9.69687 2.83558 11.237 2.62929C11.7437 2.56142 12.2572 2.56143 12.764 2.62933C14.3041 2.83569 15.6526 3.88456 18.3495 5.98231V5.98231C19.5046 6.88073 20.0821 7.32994 20.515 7.87886C20.7268 8.14736 20.9135 8.43345 21.0736 8.73351L17.936 10.9299C15.3946 12.709 14.1239 13.5985 12.7013 13.7732C12.236 13.8303 11.7654 13.8303 11.3001 13.7732C9.8775 13.5986 8.60677 12.7091 6.06531 10.9302L2.92676 8.73329C3.08679 8.43329 3.27356 8.14724 3.48528 7.87879C3.91819 7.3299 4.49575 6.88071 5.65086 5.98233Z" fill="#292556"/>
<path d="M2.25 10.0908V11.9942C2.25 15.7349 2.25 17.6052 3.08709 18.9818C3.56546 19.7684 4.22574 20.4287 5.01239 20.9071C6.38893 21.7442 8.25928 21.7442 12 21.7442V21.7442C15.7407 21.7442 17.6111 21.7442 18.9876 20.9071C19.7743 20.4287 20.4345 19.7684 20.9129 18.9818C21.75 17.6052 21.75 15.7349 21.75 11.9942V10.0909L17.9357 12.761C15.3944 14.54 14.1237 15.4296 12.701 15.6042C12.2357 15.6613 11.7652 15.6614 11.2999 15.6042C9.87725 15.4296 8.60652 14.5402 6.06506 12.7612L2.25 10.0908Z" fill="#292556" fill-opacity="0.18"/>
</svg>
