<svg width="24" height="24" viewBox="0 0 24 24" fill="none" xmlns="http://www.w3.org/2000/svg">
<path d="M5.10402 9.34513C3.4543 10.9948 2.62944 11.8197 2.31178 12.7675C2.01802 13.6439 2.01802 14.5923 2.31178 15.4687C2.62944 16.4165 3.4543 17.2413 5.10402 18.8911V18.8911C6.75374 20.5408 7.5786 21.3656 8.52637 21.6833C9.40282 21.9771 10.3512 21.9771 11.2276 21.6833C12.1754 21.3656 13.0002 20.5408 14.65 18.8911L18.3623 15.1787L8.81633 5.63281L5.10402 9.34513Z" fill="#292556" fill-opacity="0.18"/>
<path d="M9.88379 4.57467L19.4297 14.1206V14.1206C20.5815 12.9688 21.1574 12.393 21.4664 11.7724C22.0605 10.5793 22.0605 9.17664 21.4664 7.98358C21.1574 7.36298 20.5815 6.7871 19.4297 5.63533L18.3691 4.57467C17.2173 3.4229 16.6414 2.84702 16.0208 2.538C14.8278 1.94392 13.4251 1.94392 12.232 2.538C11.6114 2.84701 11.0356 3.4229 9.88379 4.57467V4.57467Z" fill="#292556"/>
</svg>
