<svg width="24" height="24" viewBox="0 0 24 24" fill="none" xmlns="http://www.w3.org/2000/svg">
<path d="M19.4206 13.3276L16.304 7.92201C14.6285 5.01601 13.7908 3.563 12.5938 3.3075C12.217 3.22708 11.8276 3.22672 11.4506 3.30645C10.2532 3.55974 9.41277 5.0112 7.73194 7.91411L4.60206 13.3197C2.91804 16.2281 2.07603 17.6823 2.45376 18.8478C2.57265 19.2147 2.76736 19.5524 3.02524 19.8391C3.8446 20.75 5.525 20.75 8.8858 20.75H15.1323C18.4868 20.75 20.1641 20.75 20.9834 19.8406C21.2412 19.5543 21.4361 19.2171 21.5553 18.8507C21.9339 17.6868 21.0961 16.2337 19.4206 13.3276Z" fill="#292556" fill-opacity="0.18"/>
<path d="M13 16.5C13 15.9477 12.5523 15.5 12 15.5C11.4477 15.5 11 15.9477 11 16.5C11 17.0523 11.4477 17.5 12 17.5C12.5523 17.5 13 17.0523 13 16.5Z" fill="#292556"/>
<path d="M12 13.25V9.75" stroke="#292556" stroke-width="1.5" stroke-linecap="round"/>
</svg>
