<svg width="24" height="24" viewBox="0 0 24 24" fill="none" xmlns="http://www.w3.org/2000/svg">
<path fill-rule="evenodd" clip-rule="evenodd" d="M15.9827 5.24666C14.7923 4.6407 13.4589 4.25 11.9994 4.25C7.97565 4.25 4.90991 7.21991 3.15804 9.48272C2.52782 10.2968 2.21271 10.7038 2.09751 11.573C2.07036 11.7778 2.07036 12.2222 2.09751 12.427C2.21271 13.2962 2.52782 13.7032 3.15804 14.5173C3.6237 15.1187 4.18219 15.7702 4.82682 16.4025L15.9827 5.24666ZM18.1147 6.65021L6.75992 18.0049C8.24145 19.0185 10.0025 19.75 11.9994 19.75C16.0232 19.75 19.089 16.7801 20.8408 14.5173C21.471 13.7032 21.7862 13.2962 21.9014 12.427C21.9285 12.2222 21.9285 11.7778 21.9014 11.573C21.7862 10.7038 21.471 10.2968 20.8408 9.48272C20.1367 8.5732 19.2202 7.54943 18.1147 6.65021Z" fill="#292556" fill-opacity="0.18"/>
<path d="M3 21L21 3" stroke="#292556" stroke-width="1.5" stroke-linecap="round" stroke-linejoin="round"/>
<path fill-rule="evenodd" clip-rule="evenodd" d="M12.6661 8.56331C12.4505 8.52176 12.2278 8.5 12 8.5C10.067 8.5 8.5 10.067 8.5 12C8.5 12.2278 8.52176 12.4505 8.56331 12.6661L12.6661 8.56331ZM9.93716 14.8278C10.5156 15.2505 11.2287 15.5 12 15.5C13.933 15.5 15.5 13.933 15.5 12C15.5 11.2287 15.2505 10.5156 14.8278 9.93716L9.93716 14.8278Z" fill="#292556"/>
</svg>
