<svg width="24" height="24" viewBox="0 0 24 24" fill="none" xmlns="http://www.w3.org/2000/svg">
<path d="M12.75 7.78797V6.62197C13.6239 6.31309 14.25 5.47966 14.25 4.5C14.25 3.25736 13.2426 2.25 12 2.25C10.7574 2.25 9.75 3.25736 9.75 4.5C9.75 5.47966 10.3761 6.31309 11.25 6.62197V7.78795C10.3526 7.87829 9.51135 8.12268 8.75 8.44233V8.44233C8.75 8.11089 8.75 7.94517 8.70106 7.79454C8.68487 7.74471 8.66479 7.69624 8.64101 7.64956C8.5691 7.50844 8.45366 7.393 8.22279 7.16213L8.09159 7.03093C8.19348 6.79093 8.25 6.52689 8.25 6.25C8.25 5.14543 7.35457 4.25 6.25 4.25C5.14543 4.25 4.25 5.14543 4.25 6.25C4.25 7.35457 5.14543 8.25 6.25 8.25C6.52689 8.25 6.79093 8.19349 7.03093 8.09159V8.09159C7.1712 8.23186 7.25 8.4221 7.25 8.62047V9.21343C7.02199 9.35234 6.80646 9.4937 6.60451 9.63385C5.93785 10.0965 5.40143 10.5585 5.03065 10.9056C4.84489 11.0795 4.69971 11.2256 4.59953 11.3298C4.54941 11.3819 4.51048 11.4236 4.48328 11.4532V11.4532C4.20727 11.7655 4.20727 12.2345 4.48328 12.5468V12.5468C4.51048 12.5764 4.54941 12.6181 4.59953 12.6702C4.69971 12.7744 4.84489 12.9205 5.03065 13.0944C5.40143 13.4415 5.93785 13.9035 6.60451 14.3661C6.80646 14.5063 7.02199 14.6477 7.25 14.7866V15.3795C7.25 15.5779 7.1712 15.7681 7.03093 15.9084V15.9084C6.79093 15.8065 6.52689 15.75 6.25 15.75C5.14543 15.75 4.25 16.6454 4.25 17.75C4.25 18.8546 5.14543 19.75 6.25 19.75C7.35457 19.75 8.25 18.8546 8.25 17.75C8.25 17.4731 8.19348 17.2091 8.09159 16.9691L8.22279 16.8379C8.45366 16.607 8.5691 16.4916 8.64101 16.3504C8.66479 16.3038 8.68487 16.2553 8.70106 16.2055C8.75 16.0548 8.75 15.8891 8.75 15.5577V15.5577C9.51135 15.8773 10.3526 16.1217 11.25 16.2121V17.378C10.3761 17.6869 9.75 18.5203 9.75 19.5C9.75 20.7426 10.7574 21.75 12 21.75C13.2426 21.75 14.25 20.7426 14.25 19.5C14.25 18.5203 13.6239 17.6869 12.75 17.378V16.212C13.6474 16.1217 14.4887 15.8772 15.25 15.5576V15.5576C15.25 15.8891 15.25 16.0548 15.2989 16.2055C15.3151 16.2553 15.3352 16.3038 15.359 16.3504C15.4309 16.4916 15.5463 16.607 15.7772 16.8379L15.9084 16.9691C15.8065 17.2091 15.75 17.4731 15.75 17.75C15.75 18.8546 16.6454 19.75 17.75 19.75C18.8546 19.75 19.75 18.8546 19.75 17.75C19.75 16.6454 18.8546 15.75 17.75 15.75C17.4731 15.75 17.2091 15.8065 16.9691 15.9084V15.9084C16.8288 15.7681 16.75 15.5779 16.75 15.3795V14.7864C16.9779 14.6476 17.1934 14.5063 17.3953 14.3661C18.0619 13.9035 18.5984 13.4415 18.9691 13.0944C19.1549 12.9205 19.3001 12.7744 19.4003 12.6702C19.4504 12.6181 19.4893 12.5764 19.5165 12.5468V12.5468C19.7925 12.2345 19.7925 11.7655 19.5165 11.4532V11.4532C19.4893 11.4236 19.4504 11.3819 19.4003 11.3298C19.3001 11.2256 19.1549 11.0795 18.9691 10.9056C18.5984 10.5585 18.0619 10.0965 17.3953 9.63385C17.1934 9.49374 16.9779 9.35243 16.75 9.21356V8.62047C16.75 8.4221 16.8288 8.23186 16.9691 8.09159V8.09159C17.2091 8.19349 17.4731 8.25 17.75 8.25C18.8546 8.25 19.75 7.35457 19.75 6.25C19.75 5.14543 18.8546 4.25 17.75 4.25C16.6454 4.25 15.75 5.14543 15.75 6.25C15.75 6.52689 15.8065 6.79093 15.9084 7.03093L15.7772 7.16213C15.5463 7.393 15.4309 7.50844 15.359 7.64956C15.3352 7.69624 15.3151 7.74471 15.2989 7.79454C15.25 7.94517 15.25 8.11092 15.25 8.44242V8.44242C14.4887 8.12275 13.6474 7.87834 12.75 7.78797Z" fill="#292556" fill-opacity="0.18"/>
<path d="M12 10.25C11.0335 10.25 10.25 11.0335 10.25 12C10.25 12.9665 11.0335 13.75 12 13.75C12.9665 13.75 13.75 12.9665 13.75 12C13.75 11.0335 12.9665 10.25 12 10.25Z" fill="#292556"/>
</svg>
