<svg width="24" height="24" viewBox="0 0 24 24" fill="none" xmlns="http://www.w3.org/2000/svg">
<path fill-rule="evenodd" clip-rule="evenodd" d="M12.2548 4.66717L19.4574 11.8696C20.347 12.7592 20.347 14.2015 19.4574 15.0911C18.5679 15.9807 17.1256 15.9807 16.236 15.0911L15.1103 13.9654L9.66294 19.4126C8.60713 20.4684 7.04473 20.7089 5.75816 20.134L4.6791 21.2131C4.19075 21.7014 3.39892 21.7013 2.91075 21.2127C2.42285 20.7245 2.423 19.9332 2.91109 19.4451L3.99023 18.3659C3.41556 17.0794 3.65609 15.5172 4.71183 14.4615L10.1591 9.01427L9.03342 7.88863C8.14385 6.99907 8.14383 5.5568 9.03337 4.66722C9.92293 3.77761 11.3652 3.77759 12.2548 4.66717Z" fill="#292556" fill-opacity="0.18"/>
<path d="M20.5385 6.80773C21.4281 5.91815 21.4281 4.47585 20.5385 3.58627V3.58627C19.6489 2.69671 18.2067 2.69671 17.3171 3.58627L14.2461 6.65722L17.4676 9.87862L20.5385 6.80773Z" fill="#292556"/>
</svg>
