<svg width="24" height="24" viewBox="0 0 24 24" fill="none" xmlns="http://www.w3.org/2000/svg">
<path fill-rule="evenodd" clip-rule="evenodd" d="M2.25 10.8C2.25 7.23775 2.25 5.45663 3.15717 4.20802C3.45015 3.80477 3.80477 3.45015 4.20802 3.15717C5.45663 2.25 7.23775 2.25 10.8 2.25H13.2C16.7622 2.25 18.5434 2.25 19.792 3.15717C20.1952 3.45015 20.5499 3.80477 20.8428 4.20802C21.75 5.45663 21.75 7.23775 21.75 10.8V13.2C21.75 16.7622 21.75 18.5434 20.8428 19.792C20.5499 20.1952 20.1952 20.5499 19.792 20.8428C18.5434 21.75 16.7622 21.75 13.2 21.75H10.8C7.23775 21.75 5.45663 21.75 4.20802 20.8428C3.80477 20.5499 3.45015 20.1952 3.15717 19.792C2.25 18.5434 2.25 16.7622 2.25 13.2V10.8ZM14.7524 12C14.7524 13.5188 13.5205 14.75 12.0009 14.75C10.4814 14.75 9.24951 13.5188 9.24951 12C9.24951 10.4812 10.4814 9.25 12.0009 9.25C13.5205 9.25 14.7524 10.4812 14.7524 12Z" fill="#292556" fill-opacity="0.18"/>
<path fill-rule="evenodd" clip-rule="evenodd" d="M18.5109 13.9328C18.995 13.3149 19.237 13.006 19.3272 12.3313C19.3483 12.1737 19.3483 11.8263 19.3272 11.6687C19.237 10.994 18.995 10.6851 18.5109 10.0672C17.2024 8.39706 14.947 6.25 11.9985 6.25C9.05004 6.25 6.79455 8.39706 5.48608 10.0672C5.002 10.6851 4.75996 10.994 4.66975 11.6687C4.64868 11.8263 4.64868 12.1737 4.66975 12.3313C4.75996 13.006 5.002 13.3149 5.48608 13.9328C6.79455 15.6029 9.05004 17.75 11.9985 17.75C14.947 17.75 17.2025 15.6029 18.5109 13.9328ZM12.001 14.75C13.5206 14.75 14.7524 13.5188 14.7524 12C14.7524 10.4812 13.5206 9.25 12.001 9.25C10.4814 9.25 9.24956 10.4812 9.24956 12C9.24956 13.5188 10.4814 14.75 12.001 14.75Z" fill="#292556"/>
</svg>
