<svg width="24" height="24" viewBox="0 0 24 24" fill="none" xmlns="http://www.w3.org/2000/svg">
<path d="M12 4.25C16.0238 4.25 19.0895 7.21991 20.8414 9.48272C21.4716 10.2968 21.7867 10.7038 21.9019 11.573C21.9291 11.7778 21.9291 12.2222 21.9019 12.427C21.7867 13.2962 21.4716 13.7032 20.8414 14.5173C19.0895 16.7801 16.0238 19.75 12 19.75C7.97622 19.75 4.91048 16.7801 3.15861 14.5173C2.52839 13.7032 2.21328 13.2962 2.09808 12.427C2.07093 12.2222 2.07093 11.7778 2.09808 11.573C2.21328 10.7038 2.52839 10.2968 3.15861 9.48272C4.91048 7.21991 7.97622 4.25 12 4.25Z" fill="#292556" fill-opacity="0.18"/>
<path d="M15.5 12C15.5 13.933 13.933 15.5 12 15.5C10.067 15.5 8.5 13.933 8.5 12C8.5 10.067 10.067 8.5 12 8.5C13.933 8.5 15.5 10.067 15.5 12Z" fill="#292556"/>
</svg>
