<svg width="24" height="24" viewBox="0 0 24 24" fill="none" xmlns="http://www.w3.org/2000/svg">
<path d="M21.75 12C21.75 17.3848 17.3848 21.75 12 21.75C6.61522 21.75 2.25 17.3848 2.25 12C2.25 6.61522 6.61522 2.25 12 2.25C17.3848 2.25 21.75 6.61522 21.75 12Z" fill="#292556" fill-opacity="0.18"/>
<path d="M11 9C11 9.82843 10.3284 10.5 9.5 10.5C8.67157 10.5 8 9.82843 8 9C8 8.17157 8.67157 7.5 9.5 7.5C10.3284 7.5 11 8.17157 11 9Z" fill="#292556"/>
<path d="M16 9C16 9.82843 15.3284 10.5 14.5 10.5C13.6716 10.5 13 9.82843 13 9C13 8.17157 13.6716 7.5 14.5 7.5C15.3284 7.5 16 8.17157 16 9Z" fill="#292556"/>
<path d="M16.8998 15.5C15.8998 14 14.359 12.75 11.9999 12.75C9.92268 12.75 8.10398 13.8514 7.0938 15.5C6.72183 16.3198 7.32124 17.25 8.22151 17.25H15.7756C16.6758 17.25 17.274 16.3187 16.8998 15.5Z" fill="#292556"/>
</svg>
