<svg width="24" height="24" viewBox="0 0 24 24" fill="none" xmlns="http://www.w3.org/2000/svg">
<path d="M21.75 12C21.75 17.3848 17.3848 21.75 12 21.75C6.61522 21.75 2.25 17.3848 2.25 12C2.25 6.61522 6.61522 2.25 12 2.25C17.3848 2.25 21.75 6.61522 21.75 12Z" fill="#292556" fill-opacity="0.18"/>
<path d="M11.2406 8.54063C11.1023 9.5915 9.50057 10.5 9.50057 10.5C9.50057 10.5 7.86806 9.5915 7.75889 8.54069C7.63316 7.508 8.87282 7.18942 9.50157 7.83312C10.1303 7.18909 11.3698 7.50765 11.2406 8.54063Z" fill="#292556"/>
<path d="M16.2406 8.54063C16.1023 9.5915 14.5006 10.5 14.5006 10.5C14.5006 10.5 12.8681 9.5915 12.7589 8.54069C12.6332 7.508 13.8728 7.18942 14.5016 7.83312C15.1303 7.18909 16.3698 7.50765 16.2406 8.54063Z" fill="#292556"/>
<path d="M7.41602 13.5C8.18757 15.2659 9.94965 16.5 12 16.5C14.0503 16.5 15.8124 15.2659 16.5839 13.5" stroke="#292556" stroke-width="1.5" stroke-linecap="round" stroke-linejoin="round"/>
</svg>
