<svg width="24" height="24" viewBox="0 0 24 24" fill="none" xmlns="http://www.w3.org/2000/svg">
<path d="M13.2 2.25H10.8C7.23775 2.25 5.45663 2.25 4.20802 3.15717C3.80477 3.45015 3.45015 3.80477 3.15717 4.20802C2.25 5.45663 2.25 7.23775 2.25 10.8V13.2C2.25 16.7622 2.25 18.5434 3.15717 19.792C3.45015 20.1952 3.80477 20.5499 4.20802 20.8428C5.45663 21.75 7.23775 21.75 10.8 21.75H13.2C16.7622 21.75 18.5434 21.75 19.792 20.8428C20.1952 20.5499 20.5499 20.1952 20.8428 19.792C21.75 18.5434 21.75 16.7622 21.75 13.2V10.8C21.75 7.23775 21.75 5.45663 20.8428 4.20802C20.5499 3.80477 20.1952 3.45015 19.792 3.15717C18.5434 2.25 16.7622 2.25 13.2 2.25Z" fill="#292556" fill-opacity="0.18"/>
<path d="M7.25 8.5C7.25 7.67157 7.92157 7 8.75 7C9.57843 7 10.25 7.67157 10.25 8.5C10.25 9.32843 9.57843 10 8.75 10C7.92157 10 7.25 9.32843 7.25 8.5Z" fill="#292556"/>
<path d="M13.75 8.5C13.75 7.67157 14.4216 7 15.25 7C16.0784 7 16.75 7.67157 16.75 8.5C16.75 9.32843 16.0784 10 15.25 10C14.4216 10 13.75 9.32843 13.75 8.5Z" fill="#292556"/>
<path d="M12 13V11M15.9051 15.3364C13.6274 17.5545 10.3736 17.5545 8.09586 15.3364M15.9051 15.3364L15.5598 15M15.9051 15.3364L16.25 15.6722M8.09586 15.3364L8.4401 15.0011M8.09586 15.3364L7.75 15.6732" stroke="#292556" stroke-width="1.5" stroke-linecap="round" stroke-linejoin="round"/>
</svg>
