<svg width="24" height="24" viewBox="0 0 24 24" fill="none" xmlns="http://www.w3.org/2000/svg">
<path d="M21.75 12C21.75 17.3848 17.3848 21.75 12 21.75C6.61522 21.75 2.25 17.3848 2.25 12C2.25 6.61522 6.61522 2.25 12 2.25C17.3848 2.25 21.75 6.61522 21.75 12Z" fill="#292556" fill-opacity="0.18"/>
<path d="M11 15C11 14.1716 10.3284 13.5 9.5 13.5C8.67157 13.5 8 14.1716 8 15C8 15.8284 8.67157 16.5 9.5 16.5C10.3284 16.5 11 15.8284 11 15Z" fill="#292556"/>
<path d="M16 15C16 14.1716 15.3284 13.5 14.5 13.5C13.6716 13.5 13 14.1716 13 15C13 15.8284 13.6716 16.5 14.5 16.5C15.3284 16.5 16 15.8284 16 15Z" fill="#292556"/>
<path d="M7.41602 10.5C8.18757 8.7341 9.94965 7.5 12 7.5C14.0503 7.5 15.8124 8.7341 16.5839 10.5" stroke="#292556" stroke-width="1.5" stroke-linecap="round" stroke-linejoin="round"/>
</svg>
