<svg width="24" height="24" viewBox="0 0 24 24" fill="none" xmlns="http://www.w3.org/2000/svg">
<path d="M13.2499 11.25H9.20934L9.0149 7.75H2.98481L2.44451 17.4753C2.34609 19.247 2.29688 20.1328 2.72219 20.7612C2.85923 20.9636 3.02835 21.1424 3.2229 21.2905C3.82672 21.75 4.7139 21.75 6.48827 21.75H17.6999C19.3872 21.75 20.2309 21.75 20.8224 21.3203C21.0134 21.1815 21.1814 21.0135 21.3201 20.8225C21.7499 20.2311 21.7499 19.3874 21.7499 17.7V11.3C21.7499 9.61262 21.7499 8.76893 21.3201 8.17748C21.1814 7.98647 21.0134 7.81849 20.8224 7.67971C20.2309 7.25 19.3872 7.25 17.6999 7.25H17.2499C15.6102 7.25 14.7904 7.25 14.2093 7.65691C13.9943 7.80745 13.8073 7.99445 13.6568 8.20945C13.2499 8.79058 13.2499 9.61038 13.2499 11.25Z" fill="#292556" fill-opacity="0.18"/>
<path d="M7.43226 2.25H4.56745C4.03271 2.25 3.76534 2.25 3.57259 2.3836C3.5102 2.42685 3.45474 2.47931 3.4081 2.5392C3.26402 2.72424 3.24919 2.9912 3.21952 3.52512L3.06814 6.25H8.93157L8.78018 3.52512C8.75052 2.9912 8.73569 2.72424 8.5916 2.5392C8.54496 2.47931 8.4895 2.42685 8.42712 2.3836C8.23437 2.25 7.967 2.25 7.43226 2.25Z" fill="#292556" fill-opacity="0.18"/>
<path d="M13.75 16.5C13.75 16.9673 13.75 17.201 13.6495 17.375C13.5837 17.489 13.489 17.5837 13.375 17.6495C13.201 17.75 12.9673 17.75 12.5 17.75V17.75C12.0327 17.75 11.799 17.75 11.625 17.6495C11.511 17.5837 11.4163 17.489 11.3505 17.375C11.25 17.201 11.25 16.9673 11.25 16.5V16.5C11.25 16.0327 11.25 15.799 11.3505 15.625C11.4163 15.511 11.511 15.4163 11.625 15.3505C11.799 15.25 12.0327 15.25 12.5 15.25V15.25C12.9673 15.25 13.201 15.25 13.375 15.3505C13.489 15.4163 13.5837 15.511 13.6495 15.625C13.75 15.799 13.75 16.0327 13.75 16.5V16.5Z" fill="#292556"/>
<path d="M18.25 16.5C18.25 16.9673 18.25 17.201 18.1495 17.375C18.0837 17.489 17.989 17.5837 17.875 17.6495C17.701 17.75 17.4673 17.75 17 17.75V17.75C16.5327 17.75 16.299 17.75 16.125 17.6495C16.011 17.5837 15.9163 17.489 15.8505 17.375C15.75 17.201 15.75 16.9673 15.75 16.5V16.5C15.75 16.0327 15.75 15.799 15.8505 15.625C15.9163 15.511 16.011 15.4163 16.125 15.3505C16.299 15.25 16.5327 15.25 17 15.25V15.25C17.4673 15.25 17.701 15.25 17.875 15.3505C17.989 15.4163 18.0837 15.511 18.1495 15.625C18.25 15.799 18.25 16.0327 18.25 16.5V16.5Z" fill="#292556"/>
</svg>
