<svg width="24" height="24" viewBox="0 0 24 24" fill="none" xmlns="http://www.w3.org/2000/svg">
<path d="M6.11432 15.9021C4.0269 14.3842 2.98319 13.6252 2.74898 12.6324C2.65104 12.2172 2.65101 11.785 2.74891 11.3698C2.98302 10.377 4.02665 9.61793 6.11392 8.09975V8.09975C8.96236 6.02793 10.3866 4.99202 11.5729 5.23317C12.0618 5.33254 12.5144 5.56301 12.8823 5.89989C13.7751 6.71745 13.7751 8.47856 13.7751 12.0008V12.0008C13.7751 15.5226 13.7751 17.2835 12.8824 18.1011C12.5145 18.438 12.0619 18.6684 11.5731 18.7678C10.3868 19.009 8.96266 17.9734 6.11432 15.9021V15.9021Z" fill="#292556" fill-opacity="0.18"/>
<path d="M13.7754 8.34616L14.1142 8.09975C16.9626 6.02793 18.3868 4.99202 19.5732 5.23317C20.062 5.33254 20.5146 5.56301 20.8825 5.89989C21.7754 6.71745 21.7754 8.47856 21.7754 12.0008V12.0008C21.7754 15.5226 21.7754 17.2835 20.8826 18.1011C20.5148 18.438 20.0622 18.6684 19.5734 18.7678C18.3871 19.009 16.9629 17.9734 14.1146 15.9021L13.7754 15.6555L13.7754 8.34616Z" fill="#292556"/>
</svg>
