<svg width="24" height="24" viewBox="0 0 24 24" fill="none" xmlns="http://www.w3.org/2000/svg">
<path d="M2.25 10.8C2.25 7.23775 2.25 5.45663 3.15717 4.20802C3.45015 3.80477 3.80477 3.45015 4.20802 3.15717C5.45663 2.25 7.23775 2.25 10.8 2.25H13.2C16.7622 2.25 18.5434 2.25 19.792 3.15717C20.1952 3.45015 20.5499 3.80477 20.8428 4.20802C21.75 5.45663 21.75 7.23775 21.75 10.8V13.2C21.75 16.7622 21.75 18.5434 20.8428 19.792C20.5499 20.1952 20.1952 20.5499 19.792 20.8428C18.5434 21.75 16.7622 21.75 13.2 21.75H10.8C7.23775 21.75 5.45663 21.75 4.20802 20.8428C3.80477 20.5499 3.45015 20.1952 3.15717 19.792C2.25 18.5434 2.25 16.7622 2.25 13.2V10.8Z" fill="#292556" fill-opacity="0.18"/>
<path d="M8.83002 18.3146C7.82783 19.0492 6.41993 18.8322 5.68538 17.83C4.95083 16.8278 5.16779 15.4199 6.16998 14.6854C7.17217 13.9508 8.58007 14.1678 9.31462 15.17C10.0492 16.1722 9.83221 17.5801 8.83002 18.3146Z" fill="#292556"/>
<path d="M7.5 6.01096C13.1639 5.76259 17.7279 9.75927 17.9883 15.5069C18.0034 15.839 18.0038 16.1703 17.99 16.5H18M7.5 10.1127C10.9827 10.2008 13.7189 12.7583 13.8822 16.363C13.8843 16.4087 13.8859 16.4544 13.8872 16.5" stroke="#292556" stroke-width="1.5" stroke-linecap="round" stroke-linejoin="round"/>
</svg>
