<svg width="24" height="24" viewBox="0 0 24 24" fill="none" xmlns="http://www.w3.org/2000/svg">
<path d="M12.25 2.25V3C12.25 5.8123 12.25 7.21845 12.9662 8.2042C13.1975 8.52255 13.4775 8.80252 13.7958 9.03381C14.7816 9.75 16.1877 9.75 19 9.75L19.75 9.75V15C19.75 17.8123 19.75 19.2184 19.0338 20.2042C18.8025 20.5225 18.5225 20.8025 18.2042 21.0338C17.2184 21.75 15.8123 21.75 13 21.75H11C8.1877 21.75 6.78155 21.75 5.79581 21.0338C5.47745 20.8025 5.19748 20.5225 4.96619 20.2042C4.25 19.2184 4.25 17.8123 4.25 15V9C4.25 6.1877 4.25 4.78155 4.96619 3.79581C5.19748 3.47745 5.47745 3.19748 5.79581 2.96619C6.78155 2.25 8.1877 2.25 11 2.25H12.25Z" fill="#292556" fill-opacity="0.18"/>
<path d="M13.75 2.25V4.2C13.75 5.88738 13.75 6.73107 14.1797 7.32252C14.3185 7.51353 14.4865 7.68151 14.6775 7.82029C15.2689 8.25 16.1126 8.25 17.8 8.25L19.75 8.25L13.75 2.25Z" fill="#292556" fill-opacity="0.18"/>
<path d="M11.4459 18.0321C11.3595 17.972 11.238 17.885 11.092 17.774C10.801 17.5528 10.4082 17.2327 10.0016 16.8368C9.21543 16.0711 8.26226 14.9118 8.04377 13.5553C7.81218 12.1175 8.52361 11.0087 9.6102 10.6328C10.3973 10.3605 11.2957 10.5067 11.9982 11.0756C12.7028 10.5062 13.6048 10.3609 14.3924 10.6323C15.4823 11.008 16.1966 12.1193 15.9507 13.562C15.7203 14.9133 14.7708 16.0699 13.987 16.8359C13.5821 17.2316 13.1916 17.5515 12.9024 17.7727C12.7573 17.8837 12.6366 17.9706 12.5507 18.0308L12.4075 18.1284C12.1594 18.2901 11.8388 18.2906 11.5902 18.1298L11.4459 18.0321Z" fill="#292556"/>
</svg>
