<svg width="24" height="24" viewBox="0 0 24 24" fill="none" xmlns="http://www.w3.org/2000/svg">
<path fill-rule="evenodd" clip-rule="evenodd" d="M17.75 12C17.75 14.5653 16.5036 16.8394 14.5835 18.25H16.2082C16.378 18.25 16.4654 18.2495 16.5283 18.2449L16.5331 18.2445L16.5356 18.2404C16.5679 18.1862 16.6073 18.1083 16.6833 17.9564L16.7008 17.9213L16.7008 17.9213C16.8903 17.5423 17.0589 17.2051 17.2198 16.9541C17.3794 16.7052 17.6222 16.3891 18.0238 16.2546C18.3328 16.1512 18.6672 16.1512 18.9762 16.2546C19.3778 16.3891 19.6206 16.7052 19.7802 16.9541C19.9411 17.205 20.1097 17.5422 20.2991 17.9212L20.2992 17.9213L20.3167 17.9564C20.3927 18.1083 20.4321 18.1862 20.4644 18.2404L20.4669 18.2445L20.4717 18.2449C20.5346 18.2495 20.622 18.25 20.7918 18.25H21C21.4142 18.25 21.75 18.5858 21.75 19C21.75 19.4142 21.4142 19.75 21 19.75H20.7918L20.7249 19.7502C20.4806 19.7513 20.1721 19.7527 19.8904 19.6362C19.7408 19.5743 19.6022 19.4887 19.48 19.3825C19.2498 19.1827 19.1131 18.9062 19.0048 18.6871L18.9751 18.6272C18.7626 18.2022 18.6297 17.9387 18.5174 17.7636C18.5113 17.7541 18.5055 17.7452 18.5 17.737C18.497 17.7414 18.494 17.746 18.4908 17.7509C18.4881 17.755 18.4854 17.7592 18.4826 17.7636C18.3703 17.9387 18.2374 18.2022 18.0249 18.6272L17.9952 18.6871C17.8869 18.9062 17.7502 19.1826 17.52 19.3825C17.3978 19.4887 17.2592 19.5743 17.1096 19.6362C16.8279 19.7527 16.5194 19.7513 16.2751 19.7502L16.2082 19.75H10C9.73249 19.75 9.46814 19.7364 9.20761 19.71C5.29962 19.3131 2.25 16.0127 2.25 12C2.25 11.7325 2.26355 11.4681 2.29001 11.2076C2.68689 7.29962 5.98731 4.25 10 4.25C14.2802 4.25 17.75 7.71979 17.75 12Z" fill="#292556" fill-opacity="0.18"/>
<path d="M11 9C11 9.55228 10.5523 10 10 10C9.44772 10 9 9.55228 9 9C9 8.44772 9.44772 8 10 8C10.5523 8 11 8.44772 11 9Z" fill="#292556"/>
<path d="M7 11C7.55228 11 8 11.4477 8 12C8 12.5523 7.55228 13 7 13C6.44772 13 6 12.5523 6 12C6 11.4477 6.44772 11 7 11Z" fill="#292556"/>
<path d="M11 15C11 15.5523 10.5523 16 10 16C9.44772 16 9 15.5523 9 15C9 14.4477 9.44772 14 10 14C10.5523 14 11 14.4477 11 15Z" fill="#292556"/>
<path d="M13 11C13.5523 11 14 11.4477 14 12C14 12.5523 13.5523 13 13 13C12.4477 13 12 12.5523 12 12C12 11.4477 12.4477 11 13 11Z" fill="#292556"/>
</svg>
