<svg width="24" height="24" viewBox="0 0 24 24" fill="none" xmlns="http://www.w3.org/2000/svg">
<path fill-rule="evenodd" clip-rule="evenodd" d="M18.5841 2.64784C17.5825 2.25 15.9451 2.25 13.3246 2.25H10.6403C7.12462 2.25 5.36677 2.25 4.54446 3.1974C4.28632 3.49482 4.09506 3.84421 3.98364 4.22194C3.6287 5.42518 4.57599 6.90596 6.47056 9.8675L8.37988 12.8521L18.5841 2.64784ZM10.7675 14H14.6394C14.747 14 14.8008 14 14.8478 13.98C14.8633 13.9734 14.878 13.9652 14.8919 13.9557C14.9339 13.9266 14.9626 13.8811 15.02 13.7901L17.5112 9.84101C19.1096 7.30719 20.0225 5.86001 20.0239 4.74365L10.7675 14Z" fill="#292556" fill-opacity="0.18"/>
<path d="M14.7461 17.2586C14.7461 19.1706 14.7461 20.1266 14.5249 20.557C14.0158 21.5475 12.7956 21.9314 11.8111 21.4107C11.3833 21.1845 10.836 20.4007 9.74136 18.833V18.833C9.60765 18.6415 9.54079 18.5457 9.48641 18.4451C9.36533 18.2209 9.28819 17.9757 9.25914 17.7226C9.24609 17.609 9.24609 17.4922 9.24609 17.2586V15.95C9.24609 15.7625 9.24609 15.6688 9.29384 15.6031C9.30926 15.5818 9.32792 15.5632 9.34915 15.5477C9.41486 15.5 9.50861 15.5 9.69609 15.5H14.3488C14.4863 15.5 14.555 15.5 14.6077 15.5263C14.6562 15.5505 14.6956 15.5899 14.7198 15.6384C14.7461 15.6911 14.7461 15.7598 14.7461 15.8973V17.2586Z" fill="#292556"/>
<path d="M3 21L21 3" stroke="#292556" stroke-width="1.5" stroke-linecap="round" stroke-linejoin="round"/>
</svg>
