<svg width="24" height="24" viewBox="0 0 24 24" fill="none" xmlns="http://www.w3.org/2000/svg">
<path d="M10.8 2.25H13.2C16.7622 2.25 18.5434 2.25 19.792 3.15717C20.1952 3.45015 20.5499 3.80477 20.8428 4.20802C21.75 5.45663 21.75 7.23775 21.75 10.8V13.2C21.75 16.7622 21.75 18.5434 20.8428 19.792C20.5499 20.1952 20.1952 20.5499 19.792 20.8428C18.5434 21.75 16.7622 21.75 13.2 21.75H10.8C7.23775 21.75 5.45663 21.75 4.20802 20.8428C3.80477 20.5499 3.45015 20.1952 3.15717 19.792C2.25 18.5434 2.25 16.7622 2.25 13.2V10.8C2.25 7.23775 2.25 5.45663 3.15717 4.20802C3.45015 3.80477 3.80477 3.45015 4.20802 3.15717C5.45663 2.25 7.23775 2.25 10.8 2.25Z" fill="#292556" fill-opacity="0.18"/>
<path d="M11.0034 8.99854C10.4322 9.28217 9.87875 9.77662 9.41798 10.5538C8.75951 11.6644 8.5144 13.4921 8.43131 15M14.0002 9.21883C14.9825 9.96196 15.5695 11.6001 14.4175 13.543C14.1192 14.0463 13.965 14.5403 13.9029 15M15.3388 6.84654C13.0426 5.46364 8.43294 5.52605 6.88302 8.92724C6.43217 9.91662 6.1912 10.9839 6.07617 12M17.9998 12C18.0053 10.5817 17.5846 9.29866 16.883 8.30252M12.4178 11.5469C11.31 12.6547 11.2517 15.8696 11.3484 18" stroke="#292556" stroke-width="1.5" stroke-linecap="round" stroke-linejoin="round"/>
</svg>
