<svg width="24" height="24" viewBox="0 0 24 24" fill="none" xmlns="http://www.w3.org/2000/svg">
<path d="M7.10931 9.08415C7.58953 7.07875 8.31647 5.57635 9.00157 4.5072C9.36142 3.94562 9.70849 3.50548 10 3.17598L10.0896 3.09527C10.5671 2.66537 10.8059 2.45042 11.0898 2.40113C11.1821 2.38511 11.2761 2.38213 11.3692 2.39228C11.6557 2.42351 11.9076 2.62293 12.4113 3.02175L12.6061 3.17598C12.8501 3.41839 13.1267 3.71879 13.4174 4.08128C14.0718 4.8974 14.7957 6.02607 15.3792 7.51141C15.4658 7.36411 15.5272 7.26667 15.6337 7.11784C15.7748 6.92079 15.9769 6.70527 16.1698 6.51651C16.388 6.3031 16.4971 6.1964 16.6545 6.17145C16.7012 6.16405 16.7615 6.16388 16.8082 6.17101C16.9658 6.19505 17.0791 6.30461 17.3057 6.52374C17.4824 6.69467 17.659 6.8742 17.7658 7.00603C18.043 7.34827 18.4085 7.84834 18.7735 8.49214C19.5033 9.7791 20.2392 11.6547 20.2499 13.9943L20.25 13.9977C20.25 16.6694 19.0555 18.6309 17.4155 19.9053C15.7981 21.1623 13.757 21.7477 12 21.7477C10.2551 21.7477 8.21318 21.2088 6.58945 19.9688C4.93969 18.709 3.75 16.7429 3.75 13.9977L3.75002 13.9926C3.76006 12.5269 4.21593 11.1694 4.64981 10.1999C4.86877 9.71065 5.08724 9.30897 5.25213 9.02779L5.41717 8.78202L5.41717 8.78201C5.70959 8.34653 5.85581 8.12878 6.05574 8.0874C6.11921 8.07426 6.18463 8.07359 6.24836 8.08542C6.4491 8.12269 6.59975 8.33738 6.90106 8.76677L7.08422 9.02779L7.10931 9.08415Z" fill="#292556" fill-opacity="0.18"/>
<path d="M14.1146 13.4098C14.871 14.4913 15.75 16.0348 15.75 17.4973C15.75 20.3524 13.6793 21.7473 12 21.7473C11.1754 21.7473 10.2367 21.4305 9.50001 20.7273C8.74811 20.0096 8.25 18.9316 8.25 17.4973C8.25 15.9966 9.12662 14.4549 9.88727 13.3773L10.6334 12.5158C11.1971 11.8649 11.4789 11.5394 11.8329 11.4795C11.9465 11.4603 12.0625 11.4608 12.1759 11.4811C12.5293 11.5443 12.8081 11.8724 13.3657 12.5285L14.1146 13.4098Z" fill="#292556"/>
</svg>
