<svg width="24" height="24" viewBox="0 0 24 24" fill="none" xmlns="http://www.w3.org/2000/svg">
<path d="M4.75 13.6112C4.75 10.7154 6.50782 7.64304 8.14264 5.38643C8.70028 4.6167 9.25719 3.92375 9.75113 3.34262L9.75115 3.3426C9.97887 3.10539 10.0927 2.98678 10.1922 2.90121C11.229 2.00922 12.7637 2.01473 13.7941 2.91414C13.893 3.00042 14.0009 3.11449 14.2168 3.34262C14.7218 3.94525 15.2961 4.66729 15.8593 5.45203C16.689 6.60796 17.5301 7.94233 18.166 9.32836C18.7991 10.708 19.25 12.1841 19.25 13.6112C19.25 19.1737 15.1605 21.7501 12 21.7501C10.4311 21.7501 8.61973 21.1595 7.19458 19.834C5.7527 18.4929 4.75 16.4406 4.75 13.6112Z" fill="#292556" fill-opacity="0.18"/>
<path d="M12 21.4883C13.6071 21.4883 15.75 20.2889 15.75 17.5994C15.75 16.0237 14.4628 14.1967 13.3967 12.9537C12.898 12.3722 12.6486 12.0815 12.2081 12.0038C12.0875 11.9825 11.9013 11.982 11.7806 12.0026C11.3397 12.0779 11.0901 12.3657 10.5909 12.9414C9.52721 14.168 8.25 15.9783 8.25 17.5994C8.25 20.3772 10.3929 21.4883 12 21.4883Z" fill="#292556"/>
</svg>
