<svg width="24" height="24" viewBox="0 0 24 24" fill="none" xmlns="http://www.w3.org/2000/svg">
<path d="M13.6985 14.5441C13.9637 14.2789 14.0963 14.1464 14.1217 13.9859C14.1299 13.9341 14.1299 13.8813 14.1217 13.8295C14.0963 13.669 13.9637 13.5364 13.6985 13.2713L10.7287 10.3014C10.4636 10.0363 10.331 9.90372 10.1705 9.8783C10.1187 9.87009 10.0659 9.87009 10.0141 9.8783C9.85362 9.90372 9.72105 10.0363 9.45591 10.3014L3.66136 16.096C3.00242 16.7549 2.67295 17.0844 2.52071 17.4519C2.31772 17.942 2.31772 18.4926 2.52071 18.9827C2.67295 19.3502 3.00242 19.6797 3.66136 20.3386V20.3386C4.3203 20.9976 4.64977 21.327 5.01731 21.4793C5.50737 21.6823 6.05799 21.6823 6.54805 21.4793C6.91559 21.327 7.24506 20.9976 7.904 20.3386L13.6985 14.5441Z" fill="#292556" fill-opacity="0.18"/>
<path d="M11.1633 12.8368C11.4562 13.1296 11.4561 13.6045 11.1632 13.8974V13.8974C10.8704 14.1902 10.3955 14.1903 10.1027 13.8974V13.8974C9.80975 13.6045 9.80988 13.1295 10.1029 12.8367V12.8367C10.3957 12.544 10.8705 12.544 11.1633 12.8368V12.8368Z" fill="#292556"/>
<path d="M18.7488 6.93099L17.0675 5.24964C15.0858 3.26795 14.0949 2.2771 13.1457 2.37732C12.8492 2.40862 12.5635 2.50579 12.3095 2.66172C11.496 3.16103 11.3147 4.55052 10.9521 7.32951L10.8281 8.27997L15.7184 13.1703L16.6687 13.0463H16.6688C19.4479 12.6839 20.8375 12.5027 21.3368 11.6892C21.4928 11.4351 21.59 11.1494 21.6213 10.853C21.7215 9.90369 20.7306 8.91279 18.7488 6.93099Z" fill="#292556"/>
</svg>
