<svg width="24" height="24" viewBox="0 0 24 24" fill="none" xmlns="http://www.w3.org/2000/svg">
<path d="M21.75 12C21.75 17.3848 17.3848 21.75 12 21.75C6.61522 21.75 2.25 17.3848 2.25 12C2.25 6.61522 6.61522 2.25 12 2.25C17.3848 2.25 21.75 6.61522 21.75 12Z" fill="#292556" fill-opacity="0.18"/>
<path d="M8.75 9.25C7.23122 9.25 6 10.4812 6 12C6 13.5188 7.23122 14.75 8.75 14.75C10.2688 14.75 11.5 13.5188 11.5 12C11.5 10.4812 10.2688 9.25 8.75 9.25Z" fill="#292556"/>
<path d="M15.25 9.25C13.7312 9.25 12.5 10.4812 12.5 12C12.5 13.5188 13.7312 14.75 15.25 14.75C16.7688 14.75 18 13.5188 18 12C18 10.4812 16.7688 9.25 15.25 9.25Z" fill="#292556"/>
</svg>
