<svg width="24" height="24" viewBox="0 0 24 24" fill="none" xmlns="http://www.w3.org/2000/svg">
<path d="M9 19.75H15C17.8123 19.75 19.2184 19.75 20.2042 19.0338C20.5226 18.8025 20.8025 18.5226 21.0338 18.2042C21.75 17.2185 21.75 15.8123 21.75 13V10.25H2.25V13C2.25 15.8123 2.25 17.2185 2.96619 18.2042C3.19748 18.5226 3.47745 18.8025 3.79581 19.0338C4.78155 19.75 6.1877 19.75 9 19.75Z" fill="#292556" fill-opacity="0.18"/>
<path d="M17.75 6.25H14.8122C13.9438 6.25 13.1147 5.88753 12.525 5.25C11.9353 4.61247 11.1062 4.25 10.2378 4.25H8.25C6.1498 4.25 5.0997 4.25 4.29754 4.65873C3.59193 5.01825 3.01825 5.59193 2.65873 6.29754C2.25 7.0997 2.25 8.1498 2.25 10.25H21.75C21.75 10.0179 21.75 9.9018 21.7449 9.80374C21.6444 7.88705 20.1129 6.35559 18.1963 6.25514C18.0982 6.25 17.9821 6.25 17.75 6.25Z" fill="#292556"/>
</svg>
