<svg width="24" height="24" viewBox="0 0 24 24" fill="none" xmlns="http://www.w3.org/2000/svg">
<path fill-rule="evenodd" clip-rule="evenodd" d="M10.6036 6.30783C10.2771 6.24983 9.94371 6.2499 9.462 6.25001L9.39922 6.25002H8.4L8.35672 6.25002L8.35671 6.25002C7.26855 6.25 6.3911 6.24999 5.68957 6.326C4.96473 6.40453 4.33926 6.57136 3.79581 6.9662C3.47745 7.1975 3.19749 7.47747 2.96619 7.79582C2.57134 8.33928 2.40452 8.96474 2.32598 9.68959C2.24998 10.3911 2.24999 11.2686 2.25 12.3567V12.3567V12.4V15.6V15.6433V15.6433C2.24999 16.7315 2.24998 17.6089 2.32598 18.3104C2.40452 19.0353 2.57134 19.6608 2.96619 20.2042C3.19749 20.5226 3.47745 20.8025 3.79581 21.0338C4.33926 21.4287 4.96472 21.5955 5.68957 21.674C6.39111 21.75 7.26856 21.75 8.35673 21.75H8.4H15.6H15.6433C16.7314 21.75 17.6089 21.75 18.3104 21.674C19.0353 21.5955 19.6607 21.4287 20.2042 21.0338C20.5226 20.8025 20.8025 20.5226 21.0338 20.2042C21.4287 19.6608 21.5955 19.0353 21.674 18.3104C21.75 17.6089 21.75 16.7315 21.75 15.6434V15.6433V15.6V14.4V14.3567V14.3567C21.75 13.2685 21.75 12.3911 21.674 11.6896C21.5955 10.9647 21.4287 10.3393 21.0338 9.79582C20.8025 9.47747 20.5226 9.1975 20.2042 8.9662C19.6607 8.57136 19.0353 8.40453 18.3104 8.326C17.6089 8.24999 16.7315 8.25 15.6433 8.25002L15.6 8.25002H15.1008C14.5329 8.25002 14.339 8.24735 14.1588 8.21533C13.9197 8.17285 13.689 8.09194 13.4758 7.97574C13.315 7.88816 13.162 7.76914 12.7185 7.41437L12.6695 7.37514L12.6695 7.37513C12.2934 7.07414 12.0331 6.86579 11.7419 6.70714C11.3865 6.51348 11.0021 6.37863 10.6036 6.30783Z" fill="#292556" fill-opacity="0.18"/>
<path fill-rule="evenodd" clip-rule="evenodd" d="M9.39922 3.75002C9.96714 3.75002 10.161 3.75269 10.3412 3.78471C10.5803 3.82719 10.811 3.90809 11.0242 4.02429C11.185 4.11187 11.338 4.23089 11.7815 4.58567L11.8305 4.6249L11.8305 4.62491C12.2066 4.9259 12.4669 5.13425 12.7581 5.2929C13.1135 5.48656 13.4979 5.62141 13.8964 5.6922C14.2229 5.7502 14.5563 5.75013 15.038 5.75003L15.1008 5.75002H15.6C16.7416 5.75002 17.5376 5.75105 18.1489 5.81727C18.7461 5.88198 19.0774 6.00163 19.3225 6.17973C19.5135 6.31851 19.6815 6.48649 19.8203 6.6775C19.9984 6.92264 20.118 7.25394 20.1827 7.85116C20.2176 8.17315 20.2344 8.5464 20.2425 8.99443C20.545 9.22016 20.8118 9.49032 21.0338 9.79584C21.3745 10.2648 21.5455 10.7948 21.6364 11.3971C21.7084 11.2819 21.75 11.1458 21.75 11V10.4V10.3567V10.3567C21.75 9.26854 21.75 8.39111 21.674 7.68959C21.5955 6.96474 21.4287 6.33928 21.0338 5.79582C20.8025 5.47747 20.5226 5.1975 20.2042 4.9662C19.6607 4.57136 19.0353 4.40453 18.3104 4.326C17.6089 4.24999 16.7315 4.25 15.6433 4.25002L15.6 4.25002H15.1008C14.5329 4.25002 14.339 4.24735 14.1588 4.21533C13.9197 4.17285 13.689 4.09194 13.4758 3.97575C13.315 3.88816 13.162 3.76914 12.7185 3.41437L12.6695 3.37515C12.2934 3.07414 12.0331 2.86579 11.7419 2.70714C11.3865 2.51348 11.0021 2.37863 10.6036 2.30783C10.2771 2.24983 9.94371 2.2499 9.462 2.25001L9.39922 2.25002H8.4L8.35672 2.25002L8.35671 2.25002C7.26854 2.25 6.3911 2.24999 5.68957 2.326C4.96472 2.40453 4.33926 2.57136 3.79581 2.9662C3.47745 3.1975 3.19749 3.47747 2.96619 3.79582C2.57134 4.33928 2.40452 4.96474 2.32598 5.68959C2.24998 6.39112 2.24999 7.26856 2.25 8.35672V8.35673V8.40002V11C2.25 11.0313 2.25192 11.0622 2.25565 11.0925C2.26344 10.5613 2.28196 10.096 2.32598 9.68961C2.40452 8.96476 2.57134 8.3393 2.96619 7.79584C3.18816 7.49032 3.45496 7.22016 3.75749 6.99443C3.76558 6.5464 3.78237 6.17315 3.81726 5.85116C3.88196 5.25394 4.00161 4.92264 4.17971 4.6775C4.31849 4.48649 4.48647 4.31851 4.67748 4.17973C4.92262 4.00163 5.25392 3.88198 5.85114 3.81727C6.4624 3.75105 7.25837 3.75002 8.4 3.75002H9.39922Z" fill="#292556"/>
</svg>
