<svg width="24" height="24" viewBox="0 0 24 24" fill="none" xmlns="http://www.w3.org/2000/svg">
<path d="M2.25 10.7556C2.25 8.17641 2.25 6.88679 2.8574 5.95389C3.14251 5.51599 3.51599 5.14251 3.95389 4.8574C4.88679 4.25 6.17641 4.25 8.75565 4.25H10.2378C11.1062 4.25 11.9353 4.61247 12.525 5.25V5.25C13.1147 5.88753 13.9438 6.25 14.8122 6.25H15.9749C17.8632 6.25 18.8074 6.25 19.5432 6.58226C20.3754 6.95803 21.042 7.62455 21.4177 8.45677C21.75 9.19262 21.75 10.1368 21.75 12.0251V13C21.75 15.8123 21.75 17.2184 21.0338 18.2042C20.8025 18.5226 20.5225 18.8025 20.2042 19.0338C19.2184 19.75 17.8123 19.75 15 19.75H9C6.1877 19.75 4.78155 19.75 3.79581 19.0338C3.47745 18.8025 3.19748 18.5226 2.96619 18.2042C2.25 17.2184 2.25 15.8123 2.25 13V10.7556Z" fill="#292556" fill-opacity="0.18"/>
<path d="M9.00098 15.0013L7.35453 13.3548C7.15927 13.1596 7.15927 12.843 7.35453 12.6477L9.00098 11.0013M15.001 15.0013L16.6474 13.3548C16.8427 13.1596 16.8427 12.843 16.6474 12.6477L15.001 11.0013M11.0005 16.5L13.0005 9.5" stroke="#292556" stroke-width="1.5" stroke-linecap="round" stroke-linejoin="round"/>
</svg>
