<svg width="24" height="24" viewBox="0 0 24 24" fill="none" xmlns="http://www.w3.org/2000/svg">
<path d="M2.25 10.7556C2.25 8.17641 2.25 6.88679 2.8574 5.95389C3.14251 5.51599 3.51599 5.14251 3.95389 4.8574C4.88679 4.25 6.17641 4.25 8.75565 4.25H10.2378C11.1062 4.25 11.9353 4.61247 12.525 5.25V5.25C13.1147 5.88753 13.9438 6.25 14.8122 6.25H15.9749C17.8632 6.25 18.8074 6.25 19.5432 6.58226C20.3754 6.95803 21.042 7.62455 21.4177 8.45677C21.75 9.19262 21.75 10.1368 21.75 12.0251V13C21.75 15.8123 21.75 17.2184 21.0338 18.2042C20.8025 18.5226 20.5225 18.8025 20.2042 19.0338C19.2184 19.75 17.8123 19.75 15 19.75H9C6.1877 19.75 4.78155 19.75 3.79581 19.0338C3.47745 18.8025 3.19748 18.5226 2.96619 18.2042C2.25 17.2184 2.25 15.8123 2.25 13V10.7556Z" fill="#292556" fill-opacity="0.18"/>
<path d="M12.7276 9.0681C12.6441 8.73422 12.3442 8.5 12 8.5C11.6558 8.5 11.3559 8.73422 11.2724 9.0681C11.0436 9.98333 10.7192 10.5951 10.2822 11.0322C9.84514 11.4692 9.23333 11.7936 8.3181 12.0224C7.98422 12.1059 7.75 12.4058 7.75 12.75C7.75 13.0942 7.98422 13.3941 8.3181 13.4776C9.23333 13.7064 9.84514 14.0308 10.2822 14.4678C10.7192 14.9049 11.0436 15.5167 11.2724 16.4319C11.3559 16.7658 11.6558 17 12 17C12.3442 17 12.6441 16.7658 12.7276 16.4319C12.9564 15.5167 13.2808 14.9049 13.7178 14.4678C14.1549 14.0308 14.7667 13.7064 15.6819 13.4776C16.0158 13.3941 16.25 13.0942 16.25 12.75C16.25 12.4058 16.0158 12.1059 15.6819 12.0224C14.7667 11.7936 14.1549 11.4692 13.7178 11.0322C13.2808 10.5951 12.9564 9.98333 12.7276 9.0681Z" fill="#292556"/>
</svg>
