<svg width="24" height="24" viewBox="0 0 24 24" fill="none" xmlns="http://www.w3.org/2000/svg">
<path d="M13 2.24609H11C8.1877 2.24609 6.78155 2.24609 5.79581 2.96228C5.47745 3.19358 5.19748 3.47354 4.96619 3.7919C4.25 4.77764 4.25 6.18379 4.25 8.99609V14.9961C4.25 17.8084 4.25 19.2145 4.96619 20.2003C5.19748 20.5186 5.47745 20.7986 5.79581 21.0299C6.78155 21.7461 8.1877 21.7461 11 21.7461H13C15.8123 21.7461 17.2184 21.7461 18.2042 21.0299C18.5226 20.7986 18.8025 20.5186 19.0338 20.2003C19.75 19.2145 19.75 17.8084 19.75 14.9961V8.99609C19.75 6.18379 19.75 4.77764 19.0338 3.7919C18.8025 3.47354 18.5226 3.19358 18.2042 2.96228C17.2184 2.24609 15.8123 2.24609 13 2.24609Z" fill="#292556" fill-opacity="0.18"/>
<path d="M9.75 8C9.75 8.55228 9.30228 9 8.75 9C8.19772 9 7.75 8.55228 7.75 8C7.75 7.44772 8.19772 7 8.75 7C9.30228 7 9.75 7.44772 9.75 8Z" fill="#292556"/>
<path d="M12 8H15.5M8.5 12H15.5M8.5 16H15.5" stroke="#292556" stroke-width="1.5" stroke-linecap="round" stroke-linejoin="round"/>
</svg>
