<svg width="24" height="24" viewBox="0 0 24 24" fill="none" xmlns="http://www.w3.org/2000/svg">
<path d="M21.75 12C21.75 17.3848 17.3848 21.75 12 21.75C6.61522 21.75 2.25 17.3848 2.25 12C2.25 6.61522 6.61522 2.25 12 2.25C17.3848 2.25 21.75 6.61522 21.75 12Z" fill="#292556" fill-opacity="0.18"/>
<path d="M8.75 8.5V15.5" stroke="#292556" stroke-width="1.5" stroke-linecap="round" stroke-linejoin="round"/>
<path d="M15.7482 13.7697C16.6635 13.0506 17.1211 12.6911 17.2063 12.2255C17.2336 12.0768 17.2336 11.9243 17.2064 11.7756C17.1212 11.31 16.6636 10.9505 15.7484 10.2313L14.6402 9.36047C13.2472 8.26587 12.5507 7.71858 11.9666 7.85455C11.7843 7.89699 11.6138 7.97983 11.4678 8.09696C11 8.47224 11 9.35803 11 11.1296L11 12.871C11 14.6424 11 15.5281 11.4678 15.9034C11.6138 16.0205 11.7842 16.1033 11.9665 16.1458C12.5506 16.2818 13.2471 15.7346 14.64 14.6403L15.7482 13.7697Z" fill="#292556"/>
</svg>
