<svg width="24" height="24" viewBox="0 0 24 24" fill="none" xmlns="http://www.w3.org/2000/svg">
<path d="M11.0574 8.36316L9.05764 8.08114C6.72669 7.75242 5.56122 7.58806 4.65402 7.93693C3.83315 8.25259 3.14934 8.84674 2.72213 9.61549C2.25 10.4651 2.25 11.6421 2.25 13.9961C2.25 16.3501 2.25 17.5271 2.72213 18.3767C3.14934 19.1454 3.83315 19.7396 4.65402 20.0553C5.56122 20.4041 6.72669 20.2398 9.05762 19.911L9.05764 19.911L11.0574 19.629C11.4756 19.5701 11.6846 19.5406 11.8949 19.5347C11.965 19.5327 12.035 19.5327 12.1051 19.5347C12.3154 19.5406 12.5244 19.5701 12.9426 19.629L14.9424 19.911C17.2733 20.2398 18.4388 20.4041 19.346 20.0553C20.1669 19.7396 20.8507 19.1454 21.2779 18.3767C21.75 17.5271 21.75 16.3501 21.75 13.9961C21.75 11.6421 21.75 10.4651 21.2779 9.61549C20.8507 8.84674 20.1669 8.25259 19.346 7.93693C18.4388 7.58806 17.2733 7.75242 14.9424 8.08115L12.9426 8.36316C12.5244 8.42213 12.3154 8.45162 12.1051 8.45751C12.035 8.45948 11.965 8.45948 11.8949 8.45751C11.6846 8.45162 11.4756 8.42213 11.0574 8.36316Z" fill="#292556" fill-opacity="0.18"/>
<path d="M15.25 14C15.25 14.4142 14.9142 14.75 14.5 14.75C14.0858 14.75 13.75 14.4142 13.75 14C13.75 13.5858 14.0858 13.25 14.5 13.25C14.9142 13.25 15.25 13.5858 15.25 14Z" fill="#292556"/>
<path d="M18.25 14C18.25 14.4142 17.9142 14.75 17.5 14.75C17.0858 14.75 16.75 14.4142 16.75 14C16.75 13.5858 17.0858 13.25 17.5 13.25C17.9142 13.25 18.25 13.5858 18.25 14Z" fill="#292556"/>
<path d="M16 13.25C15.5858 13.25 15.25 12.9142 15.25 12.5C15.25 12.0858 15.5858 11.75 16 11.75C16.4142 11.75 16.75 12.0858 16.75 12.5C16.75 12.9142 16.4142 13.25 16 13.25Z" fill="#292556"/>
<path d="M16 16.25C15.5858 16.25 15.25 15.9142 15.25 15.5C15.25 15.0858 15.5858 14.75 16 14.75C16.4142 14.75 16.75 15.0858 16.75 15.5C16.75 15.9142 16.4142 16.25 16 16.25Z" fill="#292556"/>
<path d="M8 15.5V14M8 12.5V14M8 14H9.5H6.5" stroke="#292556" stroke-width="1.5" stroke-linecap="round" stroke-linejoin="round"/>
<path d="M17.5 3.75C17.9142 3.75 18.25 3.41421 18.25 3C18.25 2.58579 17.9142 2.25 17.5 2.25V3.75ZM12.75 8.46V8.4H11.25V8.46H12.75ZM17.4 3.75H17.5V2.25H17.4V3.75ZM12.75 8.4C12.75 7.25837 12.751 6.4624 12.8173 5.85114C12.882 5.25392 13.0016 4.92262 13.1797 4.67748L11.9662 3.79581C11.5713 4.33926 11.4045 4.96472 11.326 5.68957C11.249 6.40038 11.25 7.29179 11.25 8.4H12.75ZM17.4 2.25C16.2918 2.25 15.4004 2.24897 14.6896 2.32598C13.9647 2.40451 13.3393 2.57134 12.7958 2.96619L13.6775 4.17971C13.9226 4.00161 14.2539 3.88196 14.8511 3.81726C15.4624 3.75103 16.2584 3.75 17.4 3.75V2.25ZM13.1797 4.67748C13.3185 4.48647 13.4865 4.31849 13.6775 4.17971L12.7958 2.96619C12.4775 3.19748 12.1975 3.47745 11.9662 3.79581L13.1797 4.67748Z" fill="#292556"/>
</svg>
