<svg width="24" height="24" viewBox="0 0 24 24" fill="none" xmlns="http://www.w3.org/2000/svg">
<path d="M12 21.75C17.3848 21.75 21.75 17.3848 21.75 12C21.75 6.61522 17.3848 2.25 12 2.25C6.61522 2.25 2.25 6.61522 2.25 12C2.25 17.3848 6.61522 21.75 12 21.75Z" fill="#292556" fill-opacity="0.18"/>
<path fill-rule="evenodd" clip-rule="evenodd" d="M11.25 2.27842V4C11.25 4.41421 11.5858 4.75 12 4.75C12.4142 4.75 12.75 4.41421 12.75 4V2.27842C12.5025 2.25959 12.2524 2.25 12 2.25C11.7476 2.25 11.4975 2.25959 11.25 2.27842ZM18.3437 4.59571L17.1267 5.81325C16.8339 6.10621 16.834 6.58109 17.127 6.87391C17.4199 7.16674 17.8948 7.16663 18.1876 6.87367L19.4043 5.65637C19.0784 5.27631 18.7237 4.92163 18.3437 4.59571ZM21.7216 11.25H20C19.5858 11.25 19.25 11.5858 19.25 12C19.25 12.4142 19.5858 12.75 20 12.75H21.7216C21.7404 12.5025 21.75 12.2524 21.75 12C21.75 11.7476 21.7404 11.4975 21.7216 11.25ZM19.4043 18.3437L18.1861 17.1255C17.8932 16.8326 17.4183 16.8326 17.1255 17.1255C16.8326 17.4183 16.8326 17.8932 17.1255 18.1861L18.3437 19.4043C18.7237 19.0784 19.0784 18.7237 19.4043 18.3437ZM12.7499 21.7216L12.7496 19.9999C12.7495 19.5856 12.4137 19.2499 11.9995 19.25C11.5853 19.2501 11.2495 19.5859 11.2496 20.0001L11.2499 21.7216C11.4975 21.7404 11.7476 21.75 12 21.75C12.2523 21.75 12.5024 21.7404 12.7499 21.7216ZM5.65637 19.4043L6.87367 18.1876C7.16663 17.8948 7.16674 17.4199 6.87391 17.127C6.58109 16.834 6.10621 16.8339 5.81325 17.1267L4.59571 18.3437C4.92163 18.7237 5.27631 19.0784 5.65637 19.4043ZM2.27842 12.75H4C4.41421 12.75 4.75 12.4142 4.75 12C4.75 11.5858 4.41421 11.25 4 11.25H2.27842C2.25959 11.4975 2.25 11.7476 2.25 12C2.25 12.2524 2.25959 12.5025 2.27842 12.75ZM4.59568 5.65634L5.81175 6.87241C6.10464 7.1653 6.57951 7.1653 6.87241 6.87241C7.1653 6.57951 7.1653 6.10464 6.87241 5.81175L5.65634 4.59568C5.27628 4.9216 4.9216 5.27628 4.59568 5.65634ZM12.7496 7.75C12.7496 7.33579 12.4138 7 11.9996 7C11.5854 7 11.2496 7.33579 11.2496 7.75V10.5C11.2496 10.9142 11.5854 11.25 11.9996 11.25C12.4138 11.25 12.7496 10.9142 12.7496 10.5V7.75Z" fill="#292556"/>
<path d="M11.9994 9.75C10.7571 9.75 9.75 10.7574 9.75 11.9997C9.75 13.2424 10.7574 14.25 12 14.25C13.2426 14.25 14.25 13.2426 14.25 12C14.25 10.7574 13.2421 9.75 11.9994 9.75Z" fill="#292556"/>
</svg>
