<svg width="24" height="24" viewBox="0 0 24 24" fill="none" xmlns="http://www.w3.org/2000/svg">
<path d="M17.75 4.25C16.6454 4.25 15.75 5.14543 15.75 6.25C15.75 6.52686 15.8065 6.79088 15.9084 7.03086L15.6893 7.24991H12V8.74991H16C16.1989 8.74991 16.3897 8.67089 16.5303 8.53024L16.969 8.09156C17.209 8.19347 17.4731 8.25 17.75 8.25C18.8546 8.25 19.75 7.35457 19.75 6.25C19.75 5.14543 18.8546 4.25 17.75 4.25Z" fill="#292556"/>
<path d="M17.378 12.7499H12V11.2499H17.3781C17.687 10.3761 18.5204 9.75 19.5 9.75C20.7426 9.75 21.75 10.7574 21.75 12C21.75 13.2426 20.7426 14.25 19.5 14.25C18.5203 14.25 17.6868 13.6238 17.378 12.7499Z" fill="#292556"/>
<path d="M16.9691 15.9084C17.2091 15.8065 17.4731 15.75 17.75 15.75C18.8546 15.75 19.75 16.6454 19.75 17.75C19.75 18.8546 18.8546 19.75 17.75 19.75C16.6454 19.75 15.75 18.8546 15.75 17.75C15.75 17.4731 15.8065 17.209 15.9084 16.969L15.6893 16.7499H12V15.2499H16C16.1989 15.2499 16.3897 15.3289 16.5303 15.4696L16.9691 15.9084Z" fill="#292556"/>
<path d="M7.93147 19.0885L8.86394 20.1376C9.36253 20.6985 9.61183 20.979 9.85324 21.1698C10.4828 21.6674 11.2408 21.9187 12 21.9238V2.07812C11.2408 2.08319 10.4828 2.33452 9.85324 2.8321C9.61183 3.02289 9.36253 3.30337 8.86394 3.86434L7.93147 4.91345C6.77564 4.95978 6.19772 4.98295 5.75875 5.11044C4.11162 5.58882 2.999 7.12376 3.05679 8.83797C3.07219 9.29483 3.22996 9.85127 3.54552 10.9642L3.8395 12.001C3.36539 13.1845 3.12834 13.7763 3.07681 14.3121C2.95134 15.6171 3.51649 16.8929 4.56733 17.6768C4.9988 17.9987 5.59637 18.2208 6.79152 18.6649L7.93147 19.0885Z" fill="#292556" fill-opacity="0.18"/>
</svg>
