<svg width="24" height="24" viewBox="0 0 24 24" fill="none" xmlns="http://www.w3.org/2000/svg">
<path d="M8.86394 3.8643C9.36253 3.30333 9.61183 3.02285 9.85324 2.83206C11.1254 1.82666 12.9215 1.82666 14.1936 2.83206C14.435 3.02285 14.6843 3.30333 15.1829 3.8643V3.8643C15.3415 4.04271 15.4208 4.13191 15.5039 4.21371C15.9285 4.63174 16.4528 4.93445 17.0271 5.09316C17.1395 5.12421 17.2564 5.14828 17.4902 5.1964V5.1964C18.2253 5.34771 18.5929 5.42337 18.8788 5.53704C20.3856 6.13604 21.2836 7.69153 21.049 9.29593C21.0045 9.6004 20.8862 9.95654 20.6497 10.6688V10.6688C20.5745 10.8953 20.5369 11.0086 20.5076 11.1215C20.3579 11.6982 20.3579 12.3036 20.5076 12.8804C20.5369 12.9932 20.5745 13.1065 20.6497 13.333V13.333C20.8862 14.0453 21.0045 14.4014 21.049 14.7059C21.2836 16.3103 20.3856 17.8658 18.8788 18.4648C18.5929 18.5785 18.2253 18.6541 17.4902 18.8054V18.8054C17.2564 18.8536 17.1395 18.8776 17.0271 18.9087C16.4528 19.0674 15.9285 19.3701 15.5039 19.7881C15.4208 19.8699 15.3415 19.9591 15.1829 20.1375V20.1375C14.6843 20.6985 14.435 20.979 14.1936 21.1698C12.9215 22.1752 11.1254 22.1752 9.85324 21.1698C9.61183 20.979 9.36253 20.6985 8.86394 20.1375V20.1375C8.70537 19.9591 8.62608 19.8699 8.54299 19.7881C8.11838 19.3701 7.59408 19.0674 7.01975 18.9087C6.90736 18.8776 6.79046 18.8536 6.55667 18.8054V18.8054C5.82157 18.6541 5.45401 18.5785 5.16807 18.4648C3.66131 17.8658 2.76324 16.3103 2.99788 14.7059C3.0424 14.4014 3.16066 14.0453 3.39717 13.333V13.333C3.47239 13.1065 3.51 12.9932 3.5393 12.8804C3.68902 12.3036 3.68902 11.6982 3.5393 11.1215C3.51 11.0086 3.47239 10.8953 3.39717 10.6688V10.6688C3.16066 9.95654 3.0424 9.6004 2.99788 9.29593C2.76324 7.69153 3.66131 6.13604 5.16808 5.53704C5.45401 5.42337 5.82157 5.34771 6.55667 5.1964V5.1964C6.79046 5.14828 6.90736 5.12421 7.01975 5.09316C7.59408 4.93445 8.11838 4.63174 8.54299 4.21371C8.62608 4.13191 8.70537 4.04271 8.86394 3.8643V3.8643Z" fill="#292556" fill-opacity="0.18"/>
<path d="M14.25 12C14.25 13.2426 13.2426 14.25 12 14.25C10.7574 14.25 9.75 13.2426 9.75 12C9.75 10.7574 10.7574 9.75 12 9.75C13.2426 9.75 14.25 10.7574 14.25 12Z" fill="#292556"/>
</svg>
