<svg width="24" height="24" viewBox="0 0 24 24" fill="none" xmlns="http://www.w3.org/2000/svg">
<path d="M17.4776 14.8181C17.3941 14.4842 17.0942 14.25 16.75 14.25C16.4058 14.25 16.1059 14.4842 16.0224 14.8181C15.9186 15.2333 15.7817 15.4701 15.6259 15.6259C15.4701 15.7817 15.2333 15.9186 14.8181 16.0224C14.4842 16.1059 14.25 16.4058 14.25 16.75C14.25 17.0942 14.4842 17.3941 14.8181 17.4776C15.2333 17.5814 15.4701 17.7183 15.6259 17.8741C15.7817 18.0299 15.9186 18.2667 16.0224 18.6819C16.1059 19.0158 16.4058 19.25 16.75 19.25C17.0942 19.25 17.3941 19.0158 17.4776 18.6819C17.5814 18.2667 17.7183 18.0299 17.8741 17.8741C18.0299 17.7183 18.2667 17.5814 18.6819 17.4776C19.0158 17.3941 19.25 17.0942 19.25 16.75C19.25 16.4058 19.0158 16.1059 18.6819 16.0224C18.2667 15.9186 18.0299 15.7817 17.8741 15.6259C17.7183 15.4701 17.5814 15.2333 17.4776 14.8181Z" fill="#292556" fill-opacity="0.18"/>
<path d="M7.22761 2.8181C7.14414 2.48422 6.84415 2.25 6.5 2.25C6.15585 2.25 5.85586 2.48422 5.77239 2.8181C5.54358 3.73333 5.2192 4.34514 4.78217 4.78217C4.34513 5.2192 3.73333 5.54358 2.8181 5.77239C2.48422 5.85586 2.25 6.15585 2.25 6.5C2.25 6.84415 2.48422 7.14414 2.8181 7.22761C3.73333 7.45642 4.34514 7.7808 4.78217 8.21783C5.2192 8.65486 5.54358 9.26667 5.77239 10.1819C5.85586 10.5158 6.15585 10.75 6.5 10.75C6.84415 10.75 7.14414 10.5158 7.22761 10.1819C7.45642 9.26667 7.7808 8.65486 8.21783 8.21783C8.65487 7.7808 9.26666 7.45642 10.1819 7.22761C10.5158 7.14414 10.75 6.84415 10.75 6.5C10.75 6.15585 10.5158 5.85586 10.1819 5.77239C9.26666 5.54358 8.65487 5.2192 8.21783 4.78217C7.7808 4.34514 7.45642 3.73333 7.22761 2.8181Z" fill="#292556" fill-opacity="0.18"/>
<path d="M3.28995 18.7333C2.50645 20.1739 2.11471 20.8942 2.32839 21.2594C2.39359 21.3709 2.48648 21.4636 2.59804 21.5287C2.96364 21.7418 3.68333 21.349 5.1227 20.5633L7.91695 19.038C7.99257 18.9968 8.03038 18.9761 8.06546 18.9514C8.07714 18.9432 8.08858 18.9346 8.09977 18.9257C8.13337 18.899 8.16383 18.8686 8.22475 18.8077L17.7877 9.24448L14.6057 6.0625L5.04349 15.625C4.98225 15.6862 4.95163 15.7168 4.92483 15.7506C4.91591 15.7619 4.90731 15.7734 4.89904 15.7851C4.87422 15.8204 4.85353 15.8584 4.81216 15.9345L3.28995 18.7333Z" fill="#292556" fill-opacity="0.18"/>
<path d="M20.3597 6.6636C20.5239 6.49943 20.606 6.41734 20.6683 6.34139C21.2736 5.60382 21.2736 4.54141 20.6683 3.80386C20.6059 3.72791 20.5239 3.64583 20.3597 3.48166V3.48166C20.1955 3.31749 20.1134 3.2354 20.0375 3.17307C19.2999 2.56775 18.2374 2.56777 17.4999 3.17311C17.4239 3.23544 17.3418 3.31753 17.1777 3.48171L15.6592 5.00029L18.8412 8.18227L20.3597 6.6636Z" fill="#292556"/>
</svg>
