<svg width="24" height="24" viewBox="0 0 24 24" fill="none" xmlns="http://www.w3.org/2000/svg">
<path d="M12.25 2.25V3C12.25 5.8123 12.25 7.21845 12.9662 8.2042C13.1975 8.52255 13.4775 8.80252 13.7958 9.03381C14.7816 9.75 16.1877 9.75 19 9.75L19.75 9.75V15C19.75 17.8123 19.75 19.2184 19.0338 20.2042C18.8025 20.5225 18.5225 20.8025 18.2042 21.0338C17.2184 21.75 15.8123 21.75 13 21.75H11C8.1877 21.75 6.78155 21.75 5.79581 21.0338C5.47745 20.8025 5.19748 20.5225 4.96619 20.2042C4.25 19.2184 4.25 17.8123 4.25 15V9C4.25 6.1877 4.25 4.78155 4.96619 3.79581C5.19748 3.47745 5.47745 3.19748 5.79581 2.96619C6.78155 2.25 8.1877 2.25 11 2.25H12.25Z" fill="#292556" fill-opacity="0.18"/>
<path d="M13.75 2.25V4.2C13.75 5.88738 13.75 6.73107 14.1797 7.32252C14.3185 7.51353 14.4865 7.68151 14.6775 7.82029C15.2689 8.25 16.1126 8.25 17.8 8.25L19.75 8.25L13.75 2.25Z" fill="#292556" fill-opacity="0.18"/>
<path d="M9.72761 9.0681C9.64414 8.73422 9.34415 8.5 9 8.5C8.65585 8.5 8.35586 8.73422 8.27239 9.0681C8.16858 9.48333 8.0317 9.72014 7.87592 9.87592C7.72014 10.0317 7.48333 10.1686 7.0681 10.2724C6.73422 10.3559 6.5 10.6558 6.5 11C6.5 11.3442 6.73422 11.6441 7.0681 11.7276C7.48333 11.8314 7.72014 11.9683 7.87592 12.1241C8.0317 12.2799 8.16858 12.5167 8.27239 12.9319C8.35586 13.2658 8.65585 13.5 9 13.5C9.34415 13.5 9.64414 13.2658 9.72761 12.9319C9.83142 12.5167 9.9683 12.2799 10.1241 12.1241C10.2799 11.9683 10.5167 11.8314 10.9319 11.7276C11.2658 11.6441 11.5 11.3442 11.5 11C11.5 10.6558 11.2658 10.3559 10.9319 10.2724C10.5167 10.1686 10.2799 10.0317 10.1241 9.87592C9.9683 9.72014 9.83142 9.48333 9.72761 9.0681Z" fill="#292556"/>
<path d="M13.9776 11.5681C13.8941 11.2342 13.5942 11 13.25 11C12.9058 11 12.6059 11.2342 12.5224 11.5681C12.2936 12.4833 11.9692 13.0951 11.5322 13.5322C11.0951 13.9692 10.4833 14.2936 9.5681 14.5224C9.23422 14.6059 9 14.9058 9 15.25C9 15.5942 9.23422 15.8941 9.5681 15.9776C10.4833 16.2064 11.0951 16.5308 11.5322 16.9678C11.9692 17.4049 12.2936 18.0167 12.5224 18.9319C12.6059 19.2658 12.9058 19.5 13.25 19.5C13.5942 19.5 13.8941 19.2658 13.9776 18.9319C14.2064 18.0167 14.5308 17.4049 14.9678 16.9678C15.4049 16.5308 16.0167 16.2064 16.9319 15.9776C17.2658 15.8941 17.5 15.5942 17.5 15.25C17.5 14.9058 17.2658 14.6059 16.9319 14.5224C16.0167 14.2936 15.4049 13.9692 14.9678 13.5322C14.5308 13.0951 14.2064 12.4833 13.9776 11.5681Z" fill="#292556"/>
</svg>
