<svg width="24" height="24" viewBox="0 0 24 24" fill="none" xmlns="http://www.w3.org/2000/svg">
<path d="M4.25 10H12H19.75V14C19.75 16.8019 19.75 18.2029 19.1775 19.2607C18.7383 20.0723 18.0723 20.7383 17.2607 21.1775C16.2029 21.75 14.8019 21.75 12 21.75C9.19809 21.75 7.79714 21.75 6.73925 21.1775C5.92772 20.7383 5.26168 20.0723 4.8225 19.2607C4.25 18.2029 4.25 16.8019 4.25 14V10Z" fill="#292556" fill-opacity="0.18"/>
<path d="M12 19V12" stroke="#292556" stroke-width="1.5" stroke-linecap="round" stroke-linejoin="round"/>
<path d="M9 3L11.25 6M15 3L12.75 6M11.25 6H5C3.89543 6 3 6.89543 3 8V8C3 9.10457 3.89543 10 5 10H19C20.1046 10 21 9.10457 21 8V8C21 6.89543 20.1046 6 19 6H12.75M11.25 6H12.75" stroke="#292556" stroke-width="1.5" stroke-linecap="round" stroke-linejoin="round"/>
</svg>
