<svg width="24" height="24" viewBox="0 0 24 24" fill="none" xmlns="http://www.w3.org/2000/svg">
<path fill-rule="evenodd" clip-rule="evenodd" d="M15.6 19C17.8498 19 18.9748 19 19.7634 18.4271C20.018 18.242 20.242 18.018 20.4271 17.7634C21 16.9748 21 15.8498 21 13.6V10.4C21 8.15016 21 7.02524 20.4271 6.23664C20.242 5.98196 20.018 5.75799 19.7634 5.57295C18.9748 5 17.8498 5 15.6 5H8.4C6.15016 5 5.02524 5 4.23664 5.57295C3.98196 5.75799 3.75799 5.98196 3.57295 6.23664C3 7.02524 3 8.15016 3 10.4V13.6C3 15.8498 3 16.9748 3.57295 17.7634C3.75799 18.018 3.98196 18.242 4.23664 18.4271C5.02524 19 6.15016 19 8.4 19H15.6ZM9 9.5C9 10.3284 8.32843 11 7.5 11C6.67157 11 6 10.3284 6 9.5C6 8.67157 6.67157 8 7.5 8C8.32843 8 9 8.67157 9 9.5C9 8.67157 9.67157 8 10.5 8C11.3284 8 12 8.67157 12 9.5C12 10.3284 11.3284 11 10.5 11C9.67157 11 9 10.3284 9 9.5Z" fill="#292556" fill-opacity="0.18"/>
<path d="M5.96967 12.9697C5.67678 13.2626 5.67678 13.7374 5.96967 14.0303C6.26256 14.3232 6.73744 14.3232 7.03033 14.0303L5.96967 12.9697ZM10.9697 14.0303C11.2626 14.3232 11.7374 14.3232 12.0303 14.0303C12.3232 13.7374 12.3232 13.2626 12.0303 12.9697L10.9697 14.0303ZM9.75 19V11H8.25V19H9.75ZM9.75 11V5H8.25V11H9.75ZM3 11.75H9V10.25H3V11.75ZM9 11.75H21V10.25H9V11.75ZM8.46967 10.4697L5.96967 12.9697L7.03033 14.0303L9.53033 11.5303L8.46967 10.4697ZM8.46967 11.5303L10.9697 14.0303L12.0303 12.9697L9.53033 10.4697L8.46967 11.5303ZM8.25 9.5C8.25 9.91421 7.91421 10.25 7.5 10.25V11.75C8.74264 11.75 9.75 10.7426 9.75 9.5H8.25ZM7.5 10.25C7.08579 10.25 6.75 9.91421 6.75 9.5H5.25C5.25 10.7426 6.25736 11.75 7.5 11.75V10.25ZM6.75 9.5C6.75 9.08579 7.08579 8.75 7.5 8.75V7.25C6.25736 7.25 5.25 8.25736 5.25 9.5H6.75ZM7.5 8.75C7.91421 8.75 8.25 9.08579 8.25 9.5H9.75C9.75 8.25736 8.74264 7.25 7.5 7.25V8.75ZM11.25 9.5C11.25 9.91421 10.9142 10.25 10.5 10.25V11.75C11.7426 11.75 12.75 10.7426 12.75 9.5H11.25ZM10.5 10.25C10.0858 10.25 9.75 9.91421 9.75 9.5H8.25C8.25 10.7426 9.25736 11.75 10.5 11.75V10.25ZM9.75 9.5C9.75 9.08579 10.0858 8.75 10.5 8.75V7.25C9.25736 7.25 8.25 8.25736 8.25 9.5H9.75ZM10.5 8.75C10.9142 8.75 11.25 9.08579 11.25 9.5H12.75C12.75 8.25736 11.7426 7.25 10.5 7.25V8.75Z" fill="#292556"/>
</svg>
