<svg width="24" height="24" viewBox="0 0 24 24" fill="none" xmlns="http://www.w3.org/2000/svg">
<path d="M4.5 12.9989L3.9955 13.5539L3.9955 13.5539L4.5 12.9989ZM5 14.9989L4.40898 15.4607L4.40898 15.4607L5 14.9989ZM2.8896 12.0076C2.4799 12.0686 2.1972 12.4502 2.25817 12.8599C2.31914 13.2696 2.7007 13.5523 3.1104 13.4913L2.8896 12.0076ZM3.9955 13.5539C4.01192 13.5688 4.05 13.5665 4.03792 13.9398C4.02858 14.2283 3.96448 14.8917 4.40898 15.4607L5.59102 14.5372C5.53987 14.4717 5.52362 14.4059 5.53713 13.9883C5.54789 13.6557 5.58379 12.9706 5.0045 12.444L3.9955 13.5539ZM3.1104 13.4913C3.3386 13.4573 3.55206 13.4469 3.72569 13.4677C3.90392 13.4891 3.97496 13.5352 3.9955 13.5539L5.0045 12.444C4.66853 12.1385 4.25457 12.0204 3.90443 11.9784C3.54969 11.9358 3.1914 11.9627 2.8896 12.0076L3.1104 13.4913ZM4.40898 15.4607C5.01417 16.2353 6.01261 16.2331 6.63852 16.1793C6.9852 16.1494 7.33642 16.0902 7.61624 16.0463C7.9227 15.9982 8.12358 15.9723 8.25687 15.9746L8.28313 14.4748C7.99617 14.4698 7.663 14.5206 7.38357 14.5644C7.0775 14.6125 6.79097 14.6606 6.51004 14.6848C5.88071 14.7389 5.6644 14.6311 5.59102 14.5372L4.40898 15.4607Z" fill="#292556"/>
<path fill-rule="evenodd" clip-rule="evenodd" d="M16.0563 2.95352C16.0563 2.95352 16.0842 2.94999 16.0968 2.94795L16.4029 2.82604C16.9339 2.6145 17.1994 2.50873 17.3327 2.47848C18.7722 2.15183 19.9446 3.64429 19.2864 4.96545C19.2254 5.08783 19.0598 5.32075 18.7285 5.78658V5.78658C18.9365 6.30293 19.0501 6.8553 19.0501 7.42955V8.28669C19.0501 10.4917 17.4259 12.2617 15.255 13.1377C15.5697 13.6866 15.7501 14.3229 15.7501 15.001L15.7501 18.6004C15.7501 19.9128 15.7501 20.569 15.4158 21.029C15.3079 21.1776 15.1773 21.3083 15.0287 21.4162C14.5687 21.7504 13.9125 21.7504 12.6001 21.7504H11.4001C10.0877 21.7504 9.43146 21.7504 8.97144 21.4162C8.82288 21.3083 8.69223 21.1776 8.58429 21.029C8.25007 20.569 8.25007 19.9128 8.25007 18.6004L8.25006 16.0321L8.28923 14.4574C8.35821 13.9829 8.51609 13.5371 8.74516 13.1377C6.57424 12.2617 4.95006 10.4917 4.95006 8.28669V7.42955C4.95006 6.8553 5.06359 6.30293 5.27159 5.78658V5.78658C4.94033 5.32074 4.7747 5.08782 4.71373 4.96544C4.05554 3.64428 5.22795 2.15183 6.66739 2.47848C6.80073 2.50873 7.06624 2.6145 7.59727 2.82605L7.90328 2.94795C7.91594 2.94999 7.92978 2.95195 7.94386 2.95352C9.09838 2.3261 10.5004 1.96526 12.0001 1.96526C13.4997 1.96526 14.9017 2.3261 16.0563 2.95352Z" fill="#292556" fill-opacity="0.18"/>
</svg>
