<svg width="24" height="24" viewBox="0 0 24 24" fill="none" xmlns="http://www.w3.org/2000/svg">
<path d="M6.75 11.25H4.5C4.26783 11.25 4.15175 11.25 4.05397 11.2596C3.10441 11.3532 2.35315 12.1044 2.25963 13.054C2.25 13.1517 2.25 13.2678 2.25 13.5V15.75C2.25 18.2353 4.26472 20.25 6.75 20.25C9.23528 20.25 11.25 18.2353 11.25 15.75C11.25 13.2647 9.23528 11.25 6.75 11.25Z" fill="#292556" fill-opacity="0.18"/>
<path d="M19.5 11.25H17.25C14.7647 11.25 12.75 13.2647 12.75 15.75C12.75 18.2353 14.7647 20.25 17.25 20.25C19.7353 20.25 21.75 18.2353 21.75 15.75V13.5C21.75 13.2678 21.75 13.1517 21.7404 13.054C21.6468 12.1044 20.8956 11.3532 19.946 11.2596C19.8483 11.25 19.7322 11.25 19.5 11.25Z" fill="#292556" fill-opacity="0.18"/>
<path fill-rule="evenodd" clip-rule="evenodd" d="M7.71631 4.72391C7.83986 4.32855 7.61952 3.90789 7.22416 3.78434C6.8288 3.66079 6.40814 3.88114 6.28459 4.27649L4.10352 11.2559C4.19265 11.2502 4.30574 11.2502 4.50065 11.2502H5.67683L7.71631 4.72391ZM11.2435 16.0052C11.2483 15.9208 11.2506 15.8358 11.2506 15.7502C11.2506 15.2868 11.1806 14.8396 11.0504 14.4189C11.3465 14.3098 11.6666 14.2502 12.0005 14.2502C12.3344 14.2502 12.6546 14.3099 12.9508 14.419C12.8207 14.8397 12.7506 15.2868 12.7506 15.7502C12.7506 15.8359 12.753 15.921 12.7578 16.0055C12.5473 15.8449 12.2852 15.7502 12.0005 15.7502C11.7159 15.7502 11.4539 15.8447 11.2435 16.0052ZM19.8974 11.2559L17.7163 4.27649C17.5928 3.88114 17.1721 3.66079 16.7767 3.78434C16.3814 3.90789 16.161 4.32855 16.2846 4.72391L18.3241 11.2502H19.5006C19.6953 11.2502 19.8083 11.2502 19.8974 11.2559Z" fill="#292556"/>
</svg>
