<svg width="24" height="24" viewBox="0 0 24 24" fill="none" xmlns="http://www.w3.org/2000/svg">
<path d="M19.4745 18.9745C20.1076 18.3412 20.4992 17.4663 20.4992 16.5C20.4992 14.567 18.9323 13 16.9996 13C15.0668 13 13.5 14.567 13.5 16.5C13.5 18.433 15.0668 20 16.9996 20C17.9661 20 18.8412 19.6081 19.4745 18.9745ZM19.4745 18.9745L21 20.5" stroke="#292556" stroke-width="1.5" stroke-linecap="round"/>
<path fill-rule="evenodd" clip-rule="evenodd" d="M9.30361 6.27003C10.0005 4.58556 10.9366 3.14358 11.9987 2.25C13.0609 3.14358 13.997 4.58556 14.6939 6.27003C15.3125 7.76533 15.7162 9.38863 15.8581 10.8639C14.2183 11.1943 12.8311 12.2223 12.0195 13.625C12.0126 13.625 12.0057 13.625 11.9988 13.625C10.6182 13.625 9.3034 13.3321 8.11178 12.8033C8.09246 12.5287 8.08264 12.26 8.08264 11.9993C8.08264 10.2571 8.52122 8.16121 9.30361 6.27003ZM11.4192 15.1101C10.3453 15.0547 9.31162 14.8462 8.33862 14.5059C8.54507 15.5799 8.87203 16.6854 9.30361 17.7287C10.0005 19.4131 10.9366 20.8551 11.9987 21.7487C12.3591 21.4455 12.7049 21.0792 13.0319 20.6618C11.934 19.6146 11.25 18.1374 11.25 16.5005C11.25 16.0211 11.3087 15.5553 11.4192 15.1101ZM14.2431 21.5477C14.2024 21.6002 14.1614 21.6522 14.1199 21.7036C14.2161 21.6818 14.3117 21.6586 14.4068 21.6339C14.3518 21.6061 14.2972 21.5773 14.2431 21.5477ZM21.6817 13.1614C21.7251 12.7803 21.7475 12.3925 21.7475 11.9993C21.7475 11.2426 21.6647 10.5061 21.508 9.7984C21.0942 10.4627 20.6148 11.0809 20.079 11.6435C20.706 12.0418 21.2507 12.5582 21.6817 13.1614ZM18.6191 10.9816C19.5525 10.1008 20.317 9.03567 20.8569 7.84164C19.5984 5.05846 17.1158 2.97346 14.1199 2.2951C14.911 3.2761 15.5688 4.46105 16.0799 5.69661C16.7544 7.3268 17.2009 9.1106 17.3551 10.7613C17.7913 10.7879 18.2145 10.8631 18.6191 10.9816ZM3.14064 7.84161C3.89759 9.51583 5.09625 10.9367 6.58273 11.9511C6.59064 9.99757 7.07721 7.72785 7.91754 5.69661C8.4287 4.46105 9.08647 3.2761 9.87759 2.2951C6.8817 2.97346 4.39913 5.05845 3.14064 7.84161ZM2.48954 9.79838C2.33278 10.506 2.25 11.2426 2.25 11.9993C2.25 16.7562 5.52106 20.7171 9.87759 21.7036C9.08647 20.7226 8.4287 19.5376 7.91754 18.3021C7.31649 16.8492 6.89642 15.2744 6.70303 13.7805C4.9817 12.8444 3.52877 11.4668 2.48954 9.79838Z" fill="#292556" fill-opacity="0.18"/>
</svg>
