<svg width="24" height="24" viewBox="0 0 24 24" fill="none" xmlns="http://www.w3.org/2000/svg">
<path fill-rule="evenodd" clip-rule="evenodd" d="M10.0622 3.09891C9.8493 2.74363 9.38865 2.62824 9.03337 2.84119C8.67809 3.05414 8.5627 3.51478 8.77565 3.87006L9.92834 5.79324C8.59178 6.82162 7.73047 8.43723 7.73047 10.254C7.73047 13.3606 10.2489 15.879 13.3555 15.879C14.1813 15.879 14.9655 15.7011 15.672 15.3814L16.8186 17.2956C17.0314 17.6509 17.492 17.7664 17.8474 17.5536C18.2027 17.3407 18.3182 16.8801 18.1054 16.5248L16.944 14.5859C18.1881 13.5541 18.9805 11.9966 18.9805 10.254C18.9805 7.14742 16.4621 4.62902 13.3555 4.62902C13.255 4.62902 13.1552 4.63165 13.0561 4.63685C12.4123 4.67061 11.7972 4.81261 11.2287 5.04499L10.0622 3.09891Z" fill="#292556" fill-opacity="0.18"/>
<path d="M9.41887 21H13.3375M13.3375 21H17.2561M13.3375 21V18.0805M18.5 16.1341C18.1756 16.4198 17.8283 16.6791 17.4619 16.9085C17.3942 16.9503 17.3256 16.9912 17.2562 17.0312C13.5081 19.1912 8.71541 17.9094 6.55143 14.1681C4.38745 10.4268 5.67074 5.64285 9.41886 3.48283C9.89267 3.21055 10.504 3 10.504 3" stroke="#292556" stroke-width="1.5" stroke-linecap="round" stroke-linejoin="round"/>
</svg>
