<svg width="24" height="24" viewBox="0 0 24 24" fill="none" xmlns="http://www.w3.org/2000/svg">
<path d="M2.25 11.9992C2.25 11.2424 2.33278 10.5059 2.48954 9.79821C3.52877 11.4666 4.9817 12.8443 6.70303 13.7803C6.89642 15.2742 7.31649 16.849 7.91754 18.3019C8.4287 19.5375 9.08647 20.7224 9.87759 21.7034C5.52106 20.717 2.25 16.756 2.25 11.9992Z" fill="#292556" fill-opacity="0.18"/>
<path d="M6.58273 11.9509C5.09625 10.9365 3.89759 9.51566 3.14064 7.84143C4.39913 5.05827 6.8817 2.97328 9.87759 2.29492C9.08647 3.27592 8.4287 4.46088 7.91754 5.69644C7.07721 7.72767 6.59064 9.99739 6.58273 11.9509Z" fill="#292556" fill-opacity="0.18"/>
<path d="M16.0799 18.3019C15.5688 19.5375 14.911 20.7224 14.1199 21.7034C18.4764 20.717 21.7475 16.756 21.7475 11.9992C21.7475 11.2425 21.6647 10.5059 21.508 9.79823C20.4687 11.4666 19.0158 12.8443 17.2944 13.7803C17.1011 15.2742 16.681 16.8491 16.0799 18.3019Z" fill="#292556" fill-opacity="0.18"/>
<path d="M17.4148 11.9509C18.9012 10.9365 20.0999 9.51567 20.8569 7.84146C19.5984 5.05829 17.1158 2.97329 14.1199 2.29492C14.911 3.27592 15.5688 4.46088 16.0799 5.69644C16.9203 7.72768 17.4069 9.9974 17.4148 11.9509Z" fill="#292556" fill-opacity="0.18"/>
<path d="M9.3035 6.27003C10.0004 4.58556 10.9365 3.14358 11.9986 2.25C13.0608 3.14358 13.9969 4.58556 14.6938 6.27003C15.4761 8.16121 15.9147 10.2571 15.9147 11.9993C15.9147 12.26 15.9049 12.5287 15.8856 12.8033C14.694 13.3321 13.3792 13.625 11.9986 13.625C10.618 13.625 9.30329 13.3321 8.11167 12.8033C8.09234 12.5287 8.08252 12.26 8.08252 11.9993C8.08252 10.2571 8.52111 8.16121 9.3035 6.27003Z" fill="#292556"/>
<path d="M11.9986 15.125C13.2807 15.125 14.5119 14.907 15.6587 14.5059C15.4523 15.5799 15.1253 16.6854 14.6938 17.7287C13.9969 19.4131 13.0608 20.8551 11.9986 21.7487C10.9365 20.8551 10.0004 19.4131 9.3035 17.7287C8.87192 16.6854 8.54495 15.5799 8.3385 14.5059C9.48539 14.907 10.7166 15.125 11.9986 15.125Z" fill="#292556"/>
</svg>
