<svg width="24" height="24" viewBox="0 0 24 24" fill="none" xmlns="http://www.w3.org/2000/svg">
<path d="M19 16.5C19 17.0523 18.5523 17.5 18 17.5C17.4477 17.5 17 17.0523 17 16.5C17 15.9477 17.4477 15.5 18 15.5C18.5523 15.5 19 15.9477 19 16.5Z" fill="#292556"/>
<path d="M17.7196 20.7864L18.1861 20.1992L17.7196 20.7864ZM18.2805 20.7864L18.747 21.3736L18.2805 20.7864ZM15.7944 17.0147C15.5108 15.4525 16.6343 14.25 18 14.25V12.75C15.7079 12.75 13.8661 14.7907 14.3185 17.2826L15.7944 17.0147ZM18 14.25C19.3656 14.25 20.4892 15.4525 20.2056 17.0147L21.6815 17.2826C22.1338 14.7907 20.2922 12.75 18 12.75V14.25ZM18.1861 20.1992C17.8679 19.9464 17.3163 19.4744 16.8152 18.885C16.3034 18.2831 15.9061 17.63 15.7944 17.0147L14.3185 17.2826C14.4998 18.2812 15.0952 19.1778 15.6724 19.8566C16.2601 20.548 16.8935 21.088 17.253 21.3736L18.1861 20.1992ZM20.2056 17.0147C20.094 17.63 19.6967 18.2831 19.1849 18.885C18.6838 19.4744 18.1321 19.9464 17.8139 20.1992L18.747 21.3736C19.1065 21.088 19.7399 20.548 20.3277 19.8566C20.9049 19.1778 21.5003 18.2812 21.6815 17.2826L20.2056 17.0147ZM17.253 21.3736C17.6923 21.7227 18.3077 21.7227 18.747 21.3736L17.8139 20.1992C17.921 20.1141 18.0791 20.1141 18.1861 20.1992L17.253 21.3736Z" fill="#292556"/>
<path fill-rule="evenodd" clip-rule="evenodd" d="M9.30361 6.27003C10.0005 4.58556 10.9366 3.14358 11.9987 2.25C13.0609 3.14358 13.997 4.58556 14.6939 6.27003C15.429 8.04692 15.8606 10.0046 15.9101 11.6797C15.023 12.0626 14.2604 12.6841 13.7067 13.4729C13.152 13.5729 12.5812 13.625 11.9988 13.625C10.6182 13.625 9.3034 13.3321 8.11178 12.8033C8.09246 12.5287 8.08264 12.26 8.08264 11.9993C8.08264 10.2571 8.52122 8.16121 9.30361 6.27003ZM12.9462 15.085C12.6339 15.1115 12.3179 15.125 11.9988 15.125C10.7167 15.125 9.4855 14.907 8.33862 14.5059C8.54507 15.5799 8.87203 16.6854 9.30361 17.7287C10.0005 19.4131 10.9366 20.8551 11.9987 21.7487C12.613 21.2319 13.1851 20.5317 13.6932 19.7072C13.2972 19.0743 12.9851 18.3696 12.8468 17.6074C12.6842 16.7117 12.7318 15.8587 12.9462 15.085ZM14.6599 20.9735C14.4875 21.227 14.3075 21.471 14.1199 21.7036C14.4514 21.6285 14.7765 21.5363 15.0945 21.4277C14.9496 21.2843 14.8039 21.1327 14.6599 20.9735ZM21.7174 12.7864C21.2441 12.3117 20.6812 11.93 20.0576 11.6659C20.602 11.0973 21.0887 10.4715 21.508 9.7984C21.6647 10.5061 21.7475 11.2426 21.7475 11.9993C21.7475 12.2643 21.7373 12.5268 21.7174 12.7864ZM18.3119 11.2595C19.3853 10.3286 20.2589 9.16419 20.8569 7.84164C19.5984 5.05846 17.1158 2.97346 14.1199 2.2951C14.911 3.2761 15.5688 4.46105 16.0799 5.69661C16.8263 7.50075 17.2936 9.49302 17.3943 11.2848C17.5932 11.2621 17.7954 11.2505 18 11.2505C18.1047 11.2505 18.2087 11.2535 18.3119 11.2595ZM3.14064 7.84161C3.89759 9.51583 5.09625 10.9367 6.58273 11.9511C6.59064 9.99757 7.07721 7.72785 7.91754 5.69661C8.4287 4.46105 9.08647 3.2761 9.87759 2.2951C6.8817 2.97346 4.39913 5.05845 3.14064 7.84161ZM2.48954 9.79838C2.33278 10.506 2.25 11.2426 2.25 11.9993C2.25 16.7562 5.52106 20.7171 9.87759 21.7036C9.08647 20.7226 8.4287 19.5376 7.91754 18.3021C7.31649 16.8492 6.89642 15.2744 6.70303 13.7805C4.9817 12.8444 3.52877 11.4668 2.48954 9.79838Z" fill="#292556" fill-opacity="0.18"/>
</svg>
