<svg width="24" height="24" viewBox="0 0 24 24" fill="none" xmlns="http://www.w3.org/2000/svg">
<path d="M2.25 12C2.25 6.61522 6.61522 2.25 12 2.25C14.6922 2.25 17.1307 3.34213 18.8943 5.10571C19.1872 5.3986 19.1872 5.87348 18.8943 6.16637L16.773 8.28769C16.4801 8.58058 16.0052 8.58058 15.7123 8.28769C14.7614 7.33681 13.45 6.75 12 6.75C9.1005 6.75 6.75 9.1005 6.75 12C6.75 14.8995 9.1005 17.25 12 17.25C13.8904 17.25 15.5487 16.2506 16.4732 14.75H13.05C12.3001 14.75 11.9251 14.75 11.6622 14.559C11.5773 14.4973 11.5027 14.4227 11.441 14.3378C11.25 14.0749 11.25 13.6999 11.25 12.95V12.05C11.25 11.3001 11.25 10.9251 11.441 10.6622C11.5027 10.5773 11.5773 10.5027 11.6622 10.441C11.9251 10.25 12.3001 10.25 13.05 10.25H20C20.7022 10.25 21.0533 10.25 21.3056 10.4185C21.4148 10.4915 21.5085 10.5852 21.5815 10.6944C21.75 10.9467 21.75 11.2978 21.75 12C21.75 17.3848 17.3848 21.75 12 21.75C6.61522 21.75 2.25 17.3848 2.25 12Z" fill="#292556" fill-opacity="0.18"/>
<path d="M20 10.25H13.05C12.3001 10.25 11.9251 10.25 11.6622 10.441C11.5773 10.5027 11.5027 10.5773 11.441 10.6622C11.25 10.9251 11.25 11.3001 11.25 12.05V12.95C11.25 13.6999 11.25 14.0749 11.441 14.3378C11.5027 14.4227 11.5773 14.4973 11.6622 14.559C11.9251 14.75 12.3001 14.75 13.05 14.75H16.4732C15.8515 15.7591 14.898 16.5415 13.7653 16.9458C13.2135 17.1428 12.6192 17.25 12 17.25V21.75C12.589 21.75 13.1657 21.6978 13.7259 21.5977C18.2874 20.7829 21.75 16.7958 21.75 12C21.75 11.2978 21.75 10.9467 21.5815 10.6944C21.5085 10.5852 21.4148 10.4915 21.3056 10.4185C21.0533 10.25 20.7022 10.25 20 10.25Z" fill="#292556"/>
</svg>
