<svg width="24" height="24" viewBox="0 0 24 24" fill="none" xmlns="http://www.w3.org/2000/svg">
<path fill-rule="evenodd" clip-rule="evenodd" d="M12.1508 2.8571C12.0505 2.84842 11.9495 2.84842 11.8492 2.8571C11.5405 2.8838 11.2597 3.01392 10.9983 3.13503L10.9337 3.1649L2.68639 6.9613C2.42281 7.08263 2.25286 7.34512 2.25004 7.63528C2.24721 7.92544 2.41202 8.19119 2.67319 8.31763L10.8889 12.2951L10.9562 12.3278C11.2277 12.4602 11.5195 12.6024 11.8424 12.6316C11.9473 12.6411 12.0528 12.6411 12.1576 12.6316C12.4805 12.6024 12.7723 12.4601 13.0439 12.3278L13.1112 12.2951L20.25 8.83895V17.3497C20.25 17.5559 20.2496 17.672 20.2434 17.7592C20.238 17.8354 20.2303 17.8472 20.233 17.8403C20.2274 17.8548 20.2205 17.8686 20.2123 17.8818C20.2162 17.8755 20.2113 17.8887 20.1536 17.9387C20.0876 17.996 19.9949 18.066 19.83 18.1897L18.3 19.3372C17.9686 19.5858 17.9015 20.0559 18.15 20.3872C18.3985 20.7186 18.8686 20.7858 19.2 20.5372L20.73 19.3897L20.7919 19.3435L20.7919 19.3435C21.0416 19.1573 21.3099 18.9572 21.4861 18.6739C21.5432 18.582 21.5917 18.485 21.631 18.3841C21.7519 18.0731 21.751 17.7384 21.7501 17.427L21.75 17.3497V7.64258C21.75 7.34977 21.5796 7.08373 21.3136 6.9613L13.0663 3.1649L13.0017 3.13503C12.7403 3.01392 12.4595 2.8838 12.1508 2.8571Z" fill="#292556" fill-opacity="0.18"/>
<path d="M18.9076 15.6513V11.0508L13.1822 13.8401C12.667 14.0911 12.4094 14.2166 12.1355 14.2415C12.0452 14.2497 11.9542 14.2497 11.8639 14.2415C11.59 14.2166 11.3324 14.0911 10.8172 13.8401L5.0918 11.0508V15.6513C5.0918 15.9911 5.0918 16.1609 5.15746 16.3073C5.17905 16.3555 5.20565 16.4012 5.23683 16.4437C5.33168 16.5732 5.47936 16.6571 5.77471 16.825L11.3326 19.984C11.6214 20.1481 11.7659 20.2302 11.9223 20.2464C11.9738 20.2518 12.0256 20.2518 12.0771 20.2464C12.2335 20.2302 12.378 20.1481 12.6668 19.984L18.2247 16.825C18.52 16.6571 18.6677 16.5732 18.7626 16.4437C18.7937 16.4012 18.8203 16.3555 18.8419 16.3073C18.9076 16.1609 18.9076 15.9911 18.9076 15.6513Z" fill="#292556"/>
</svg>
