<svg width="24" height="24" viewBox="0 0 24 24" fill="none" xmlns="http://www.w3.org/2000/svg">
<path d="M17.7 21.75H17.3C15.6126 21.75 14.7689 21.75 14.1775 21.3203C13.9865 21.1815 13.8185 21.0135 13.6797 20.8225C13.25 20.2311 13.25 19.3874 13.25 17.7V15.3C13.25 13.6126 13.25 12.7689 13.6797 12.1775C13.8185 11.9865 13.9865 11.8185 14.1775 11.6797C14.7689 11.25 15.6126 11.25 17.3 11.25H17.7C19.3874 11.25 20.2311 11.25 20.8225 11.6797C21.0135 11.8185 21.1815 11.9865 21.3203 12.1775C21.75 12.7689 21.75 13.6126 21.75 15.3V17.7C21.75 19.3874 21.75 20.2311 21.3203 20.8225C21.1815 21.0135 21.0135 21.1815 20.8225 21.3203C20.2311 21.75 19.3874 21.75 17.7 21.75Z" fill="#292556"/>
<path d="M21.75 5.5C21.75 6.43116 21.75 6.89674 21.6143 7.26955C21.3868 7.89452 20.8945 8.38684 20.2695 8.61431C19.8967 8.75 19.4312 8.75 18.5 8.75L16.5 8.75C15.5688 8.75 15.1033 8.75 14.7305 8.61431C14.1055 8.38684 13.6132 7.89452 13.3857 7.26954C13.25 6.89674 13.25 6.43116 13.25 5.5V5.5C13.25 4.56884 13.25 4.10326 13.3857 3.73045C13.6132 3.10548 14.1055 2.61316 14.7305 2.38569C15.1033 2.25 15.5688 2.25 16.5 2.25H18.5C19.4312 2.25 19.8967 2.25 20.2695 2.38569C20.8945 2.61316 21.3868 3.10548 21.6143 3.73045C21.75 4.10326 21.75 4.56884 21.75 5.5V5.5Z" fill="#292556" fill-opacity="0.18"/>
<path d="M10.75 18.5C10.75 19.4312 10.75 19.8967 10.6143 20.2695C10.3868 20.8945 9.89452 21.3868 9.26955 21.6143C8.89674 21.75 8.43116 21.75 7.5 21.75H5.5C4.56884 21.75 4.10326 21.75 3.73045 21.6143C3.10548 21.3868 2.61316 20.8945 2.38569 20.2695C2.25 19.8967 2.25 19.4312 2.25 18.5V18.5C2.25 17.5688 2.25 17.1033 2.38569 16.7305C2.61316 16.1055 3.10548 15.6132 3.73045 15.3857C4.10326 15.25 4.56884 15.25 5.5 15.25H7.5C8.43116 15.25 8.89674 15.25 9.26955 15.3857C9.89452 15.6132 10.3868 16.1055 10.6143 16.7305C10.75 17.1033 10.75 17.5688 10.75 18.5V18.5Z" fill="#292556" fill-opacity="0.18"/>
<path d="M10.75 8.7C10.75 10.3874 10.75 11.2311 10.3203 11.8225C10.1815 12.0135 10.0135 12.1815 9.82252 12.3203C9.23107 12.75 8.38738 12.75 6.7 12.75L6.3 12.75C4.61262 12.75 3.76893 12.75 3.17748 12.3203C2.98647 12.1815 2.81849 12.0135 2.67971 11.8225C2.25 11.2311 2.25 10.3874 2.25 8.7V6.3C2.25 4.61262 2.25 3.76893 2.67971 3.17748C2.81849 2.98647 2.98647 2.81849 3.17748 2.67971C3.76893 2.25 4.61262 2.25 6.3 2.25H6.7C8.38738 2.25 9.23107 2.25 9.82252 2.67971C10.0135 2.81849 10.1815 2.98647 10.3203 3.17748C10.75 3.76893 10.75 4.61262 10.75 6.3V8.7Z" fill="#292556" fill-opacity="0.18"/>
</svg>
