<svg width="24" height="24" viewBox="0 0 24 24" fill="none" xmlns="http://www.w3.org/2000/svg">
<path d="M12.7814 14.4211L6.65733 20.5451C5.76319 21.4393 4.31351 21.4393 3.41938 20.5451C2.52501 19.6508 2.52527 18.2006 3.41997 17.3066L9.54565 11.1854L15.6945 5.03091L15.7711 4.95424C16.6654 4.05993 18.1154 4.05993 19.0097 4.95424C19.904 5.84854 19.904 7.29848 19.0097 8.19278L18.933 8.26946L12.7814 14.4211Z" fill="#292556" fill-opacity="0.18"/>
<path d="M19.3733 15.9177L19.7246 15.5664C20.7794 14.5116 21.3069 13.9841 21.5354 13.3888C21.8011 12.6967 21.8011 11.9307 21.5354 11.2386C21.3069 10.6433 20.7794 10.1159 19.7246 9.06102L18.9326 8.26906L15.6941 5.03051L14.9163 4.25269C13.8614 3.19784 13.334 2.67042 12.7387 2.4419C12.0466 2.17622 11.2806 2.17622 10.5885 2.4419C9.99317 2.67042 9.46574 3.19784 8.41089 4.25269L8.04951 4.61407C7.33323 5.33036 6.97508 5.6885 6.76855 6.06627C6.27827 6.96304 6.27827 8.04772 6.76855 8.94449C6.97508 9.32226 7.33323 9.68041 8.04951 10.3967C8.11932 10.4665 8.15423 10.5014 8.22271 10.562C8.33483 10.6612 8.61438 10.8597 8.74501 10.9329C8.8248 10.9776 8.80445 10.9678 8.81259 10.9717C9.07687 11.0992 9.31414 11.1715 9.54529 11.185L12.781 14.4207C12.7944 14.6514 12.8665 14.8882 12.9936 15.1519C12.997 15.159 12.9884 15.1412 13.0338 15.2221C13.1064 15.3518 13.3039 15.63 13.4023 15.7414C13.4638 15.8109 13.4993 15.8465 13.5705 15.9177C14.2962 16.6434 14.6591 17.0063 15.0427 17.2141C15.9343 17.6972 17.0096 17.6972 17.9012 17.2141C18.2847 17.0063 18.6476 16.6434 19.3733 15.9177Z" fill="#292556"/>
</svg>
