<svg width="24" height="24" viewBox="0 0 24 24" fill="none" xmlns="http://www.w3.org/2000/svg">
<path fill-rule="evenodd" clip-rule="evenodd" d="M6.50078 14.1473C5.16467 12.8188 4.832 11.3671 4.51597 9.45803C4.50536 9.39393 4.5 9.32846 4.5 9.26348C4.5 8.12633 5.93584 7.62884 6.63938 8.52223L8 10.25V3.5625C8 2.83763 8.58763 2.25 9.3125 2.25C10.0374 2.25 10.625 2.83763 10.625 3.5625V7.11806C10.625 6.39318 11.2126 5.80556 11.9375 5.80556C12.6624 5.80556 13.25 6.39318 13.25 7.11806V8.45139C13.25 7.72652 13.8376 7.13889 14.5625 7.13889C15.2874 7.13889 15.875 7.72652 15.875 8.45139V9.78472C15.875 9.05985 16.4626 8.47222 17.1875 8.47222C17.9124 8.47222 18.5 9.05985 18.5 9.78472V10.25C18.5 11.4422 18.3032 12.6344 17.6458 13.8266L17.6458 13.8267L17.6458 13.8268C16.9079 15.1649 16.5389 15.834 16.4486 16.1236C16.4254 16.1979 16.4144 16.2329 16.4052 16.2685C16.3961 16.304 16.3888 16.3401 16.3732 16.4163C16.3302 16.627 16.3176 16.8696 16.314 17.25H16.5C16.9142 17.25 17.25 17.5858 17.25 18C17.25 18.4142 16.9142 18.75 16.5 18.75H8C7.58579 18.75 7.25 18.4142 7.25 18C7.25 17.5858 7.58579 17.25 8 17.25H8.43193C8.42703 17.0852 8.41781 16.9601 8.40047 16.8507C8.3013 16.2255 8.23334 16.062 7.85986 15.5508C7.72039 15.36 7.31386 14.9557 6.50079 14.1473L6.50078 14.1473Z" fill="#292556" fill-opacity="0.18"/>
<path d="M8 21H16.5" stroke="#292556" stroke-width="1.5" stroke-linecap="round" stroke-linejoin="round"/>
</svg>
