<svg width="24" height="24" viewBox="0 0 24 24" fill="none" xmlns="http://www.w3.org/2000/svg">
<path d="M9.25 6.5C9.25 6.91421 9.58579 7.25 10 7.25C10.4142 7.25 10.75 6.91421 10.75 6.5H9.25ZM12.7462 10.21V8.68217H11.2462V10.21H12.7462ZM14.75 6.67832V6.5H13.25V6.67832H14.75ZM12 3.75C10.4812 3.75 9.25 4.98122 9.25 6.5H10.75C10.75 5.80964 11.3096 5.25 12 5.25V3.75ZM14.75 6.5C14.75 4.98122 13.5188 3.75 12 3.75V5.25C12.6904 5.25 13.25 5.80964 13.25 6.5H14.75ZM12.1783 9.25C13.5986 9.25 14.75 8.09862 14.75 6.67832H13.25C13.25 7.27019 12.7702 7.75 12.1783 7.75V9.25ZM12.7462 8.68217C12.7462 8.99577 12.4919 9.25 12.1783 9.25V7.75C11.6635 7.75 11.2462 8.16735 11.2462 8.68217H12.7462Z" fill="#292556"/>
<path d="M11.2466 10.1101L8.44392 12.0504C4.173 15.0072 2.03755 16.4856 2.10582 17.8731C2.12671 18.2976 2.25544 18.7097 2.47987 19.0706C3.21355 20.2503 5.81082 20.2503 11.0054 20.2503H12.9968C18.1924 20.2503 20.7902 20.2503 21.5239 19.0704C21.7483 18.7096 21.877 18.2974 21.8979 17.8729C21.9661 16.4853 19.8299 15.0069 15.5577 12.0501L12.7466 10.1045V10.1102L11.2466 10.1101Z" fill="#292556" fill-opacity="0.18"/>
</svg>
