<svg width="24" height="24" viewBox="0 0 24 24" fill="none" xmlns="http://www.w3.org/2000/svg">
<path d="M6.47761 2.8181C6.39414 2.48422 6.09415 2.25 5.75 2.25C5.40585 2.25 5.10586 2.48422 5.02239 2.8181C4.91858 3.23333 4.7817 3.47014 4.62592 3.62592C4.47014 3.7817 4.23333 3.91858 3.8181 4.02239C3.48422 4.10586 3.25 4.40585 3.25 4.75C3.25 5.09415 3.48422 5.39414 3.8181 5.47761C4.23333 5.58142 4.47014 5.7183 4.62592 5.87408C4.7817 6.02986 4.91858 6.26667 5.02239 6.6819C5.10586 7.01578 5.40585 7.25 5.75 7.25C6.09415 7.25 6.39414 7.01578 6.47761 6.6819C6.58142 6.26667 6.7183 6.02986 6.87408 5.87408C7.02986 5.7183 7.26667 5.58142 7.6819 5.47761C8.01578 5.39414 8.25 5.09415 8.25 4.75C8.25 4.40585 8.01578 4.10586 7.6819 4.02239C7.26667 3.91858 7.02986 3.7817 6.87408 3.62592C6.7183 3.47014 6.58142 3.23333 6.47761 2.8181Z" fill="#292556"/>
<path d="M18.4776 2.8181C18.3941 2.48422 18.0942 2.25 17.75 2.25C17.4058 2.25 17.1059 2.48422 17.0224 2.8181C16.9186 3.23333 16.7817 3.47014 16.6259 3.62592C16.4701 3.7817 16.2333 3.91858 15.8181 4.02239C15.4842 4.10586 15.25 4.40585 15.25 4.75C15.25 5.09415 15.4842 5.39414 15.8181 5.47761C16.2333 5.58142 16.4701 5.7183 16.6259 5.87408C16.7817 6.02986 16.9186 6.26667 17.0224 6.6819C17.1059 7.01578 17.4058 7.25 17.75 7.25C18.0942 7.25 18.3941 7.01578 18.4776 6.6819C18.5814 6.26667 18.7183 6.02986 18.8741 5.87408C19.0299 5.7183 19.2667 5.58142 19.6819 5.47761C20.0158 5.39414 20.25 5.09415 20.25 4.75C20.25 4.40585 20.0158 4.10586 19.6819 4.02239C19.2667 3.91858 19.0299 3.7817 18.8741 3.62592C18.7183 3.47014 18.5814 3.23333 18.4776 2.8181Z" fill="#292556"/>
<path d="M12.4776 4.8181C12.3941 4.48422 12.0942 4.25 11.75 4.25C11.4058 4.25 11.1059 4.48422 11.0224 4.8181C10.9186 5.23333 10.7817 5.47014 10.6259 5.62592C10.4701 5.7817 10.2333 5.91858 9.8181 6.02239C9.48422 6.10586 9.25 6.40585 9.25 6.75C9.25 7.09415 9.48422 7.39414 9.8181 7.47761C10.2333 7.58142 10.4701 7.7183 10.6259 7.87408C10.7817 8.02986 10.9186 8.26667 11.0224 8.6819C11.1059 9.01578 11.4058 9.25 11.75 9.25C12.0942 9.25 12.3941 9.01578 12.4776 8.6819C12.5814 8.26667 12.7183 8.02986 12.8741 7.87408C13.0299 7.7183 13.2667 7.58142 13.6819 7.47761C14.0158 7.39414 14.25 7.09415 14.25 6.75C14.25 6.40585 14.0158 6.10586 13.6819 6.02239C13.2667 5.91858 13.0299 5.7817 12.8741 5.62592C12.7183 5.47014 12.5814 5.23333 12.4776 4.8181Z" fill="#292556"/>
<path d="M8.30181 21.2875C9.24876 21.5153 10.56 21.7458 12 21.7458C13.44 21.7458 14.7512 21.5153 15.6982 21.2875V21.2875C16.327 21.0877 16.6414 20.9879 16.888 20.8172C17.2575 20.5615 17.5302 20.1888 17.662 19.7592C17.75 19.4725 17.75 19.1426 17.75 18.4828V15.684C17.75 15.4406 17.75 15.3189 17.6877 15.2481C17.6672 15.2247 17.6448 15.207 17.6174 15.1924C17.5341 15.1481 17.4112 15.1773 17.1653 15.2355V15.2355C15.811 15.5563 13.985 15.7461 12 15.7461C10.015 15.7461 8.18904 15.5563 6.83474 15.2355V15.2355C6.58882 15.1773 6.46586 15.1481 6.38261 15.1924C6.35515 15.207 6.33281 15.2247 6.31227 15.2481C6.25 15.3189 6.25 15.4406 6.25 15.684V18.4828C6.25 19.1426 6.25 19.4725 6.33798 19.7592C6.4698 20.1888 6.74246 20.5615 7.112 20.8172C7.35864 20.9879 7.67303 21.0877 8.30181 21.2875V21.2875Z" fill="#292556" fill-opacity="0.18"/>
<path d="M12 9.83008C10.015 9.83008 8.18904 10.0199 6.83474 10.3406C6.16237 10.4999 5.56361 10.7013 5.1162 10.9518C4.68827 11.1914 4.25 11.5641 4.25 12.0801C4.25 12.596 4.68827 12.9687 5.1162 13.2084C5.429 13.3835 5.81579 13.5347 6.25 13.6642C6.43684 13.7199 6.63246 13.7716 6.83474 13.8195C8.18904 14.1403 10.015 14.3301 12 14.3301C13.985 14.3301 15.811 14.1403 17.1653 13.8195C17.3675 13.7716 17.5632 13.7199 17.75 13.6642C18.1842 13.5347 18.571 13.3835 18.8838 13.2084C19.3117 12.9687 19.75 12.596 19.75 12.0801C19.75 11.5641 19.3117 11.1914 18.8838 10.9518C18.4364 10.7013 17.8376 10.4999 17.1653 10.3406C15.811 10.0199 13.985 9.83008 12 9.83008Z" fill="#292556" fill-opacity="0.18"/>
</svg>
