<svg width="24" height="24" viewBox="0 0 24 24" fill="none" xmlns="http://www.w3.org/2000/svg">
<path d="M4.5 16.25V16.25C4.0187 16.25 3.57696 15.964 3.42974 15.5058C3.15069 14.6373 3 13.7112 3 12.75C3 7.77944 7.02944 3.75 12 3.75C16.9706 3.75 21 7.77944 21 12.75C21 13.7112 20.8493 14.6373 20.5703 15.5058C20.423 15.964 19.9813 16.25 19.5 16.25V16.25" stroke="#292556" stroke-width="1.5" stroke-linejoin="round"/>
<path d="M4.5 14C4.5 12.4812 5.73122 11.25 7.25 11.25V11.25C8.76878 11.25 10 12.4812 10 14V18C10 19.5188 8.76878 20.75 7.25 20.75V20.75C5.73122 20.75 4.5 19.5188 4.5 18V14Z" fill="#292556" fill-opacity="0.18"/>
<path d="M14 14C14 12.4812 15.2312 11.25 16.75 11.25V11.25C18.2688 11.25 19.5 12.4812 19.5 14V18C19.5 19.5188 18.2688 20.75 16.75 20.75V20.75C15.2312 20.75 14 19.5188 14 18V14Z" fill="#292556" fill-opacity="0.18"/>
</svg>
