<svg width="24" height="24" viewBox="0 0 24 24" fill="none" xmlns="http://www.w3.org/2000/svg">
<path d="M11.4998 17.25C10.2572 17.25 9.2498 18.2574 9.2498 19.5C9.2498 20.7426 10.2572 21.75 11.4998 21.75H12.9998C14.2424 21.75 15.2498 20.7426 15.2498 19.5C15.2498 18.2574 14.2424 17.25 12.9998 17.25H11.4998Z" fill="#292556"/>
<path d="M2.99088 10.25C2.90629 10.25 2.864 10.25 2.82845 10.2543C2.55362 10.2872 2.33698 10.5038 2.30406 10.7786C2.2998 10.8142 2.2998 10.8565 2.2998 10.9411V15.0941C2.2998 16.5609 3.50717 17.75 4.97397 17.75C7.04504 17.75 8.7498 16.0711 8.7498 14C8.7498 11.9289 7.07087 10.25 4.9998 10.25H2.99088Z" fill="#292556"/>
<path d="M18.9998 10.25C16.9287 10.25 15.2498 11.9289 15.2498 14C15.2498 16.0711 16.9546 17.75 19.0256 17.75C20.4924 17.75 21.6998 16.5609 21.6998 15.0941V10.9411C21.6998 10.8565 21.6998 10.8142 21.6955 10.7786C21.6626 10.5038 21.446 10.2872 21.1711 10.2543C21.1356 10.25 21.0933 10.25 21.0087 10.25H18.9998Z" fill="#292556"/>
<path d="M3.05469 11L2.30923 10.9176C2.3062 10.945 2.30469 10.9725 2.30469 11H3.05469ZM20.9448 11H21.6948C21.6948 10.9725 21.6933 10.945 21.6903 10.9176L20.9448 11ZM5.74976 17C5.74976 16.5858 5.41397 16.25 4.99976 16.25C4.58555 16.25 4.24976 16.5858 4.24976 17H5.74976ZM9.99976 20.25C10.414 20.25 10.7498 19.9142 10.7498 19.5C10.7498 19.0858 10.414 18.75 9.99976 18.75V20.25ZM3.80015 11.0824C4.25605 6.95825 7.75375 3.75 11.9998 3.75V2.25C6.98066 2.25 2.84821 6.04185 2.30923 10.9176L3.80015 11.0824ZM11.9998 3.75C16.2458 3.75 19.7435 6.95825 20.1994 11.0824L21.6903 10.9176C21.1513 6.04185 17.0189 2.25 11.9998 2.25V3.75ZM7.49976 20.25H9.99976V18.75H7.49976V20.25ZM2.30469 11V11.25H3.80469V11H2.30469ZM20.1948 11V11.25H21.6948V11H20.1948ZM4.24976 17C4.24976 18.7949 5.70483 20.25 7.49976 20.25V18.75C6.53326 18.75 5.74976 17.9665 5.74976 17H4.24976Z" fill="#292556" fill-opacity="0.18"/>
</svg>
