<svg width="24" height="24" viewBox="0 0 24 24" fill="none" xmlns="http://www.w3.org/2000/svg">
<path d="M21.6898 9.21817C21.0514 14.6331 14.8149 19.4399 12.7007 20.9254C12.4196 21.1229 12.279 21.2217 12.0943 21.245C12.0387 21.2521 11.968 21.2524 11.9123 21.2458C11.7274 21.224 11.586 21.1264 11.3033 20.9312C9.16106 19.4526 2.81367 14.6403 2.30923 9.21853C1.60939 2.7997 8.50977 0.819547 12.0095 4.82053C15.5095 0.817526 22.4088 2.79753 21.6898 9.21817Z" fill="#292556" fill-opacity="0.18"/>
<path d="M3 14.5H4.57369C4.97644 14.5 5.17782 14.5 5.35651 14.4286C5.41539 14.405 5.47191 14.376 5.52529 14.3417C5.68727 14.2378 5.80431 14.074 6.03841 13.7462L6.68265 12.8443C7.20817 12.1086 7.47093 11.7407 7.82621 11.6508C7.95836 11.6173 8.09596 11.6112 8.23054 11.6329C8.59238 11.6911 8.88658 12.0343 9.47499 12.7208V12.7208C10.081 13.4279 10.3841 13.7814 10.7536 13.8362C10.8909 13.8565 11.0309 13.848 11.1647 13.8113C11.525 13.7125 11.7833 13.3251 12.2998 12.5502L13.4005 10.8993C14.033 9.95053 14.3492 9.47614 14.7717 9.4025C14.9052 9.37923 15.042 9.38333 15.1738 9.41455C15.5911 9.51337 15.8784 10.0058 16.453 10.9908L17.9791 13.607C18.2045 13.9934 18.3172 14.1867 18.4888 14.3106C18.5452 14.3513 18.6057 14.3861 18.6693 14.4143C18.8627 14.5 19.0865 14.5 19.5339 14.5H21" stroke="#292556" stroke-width="1.5" stroke-linecap="round" stroke-linejoin="round"/>
</svg>
