<svg width="24" height="24" viewBox="0 0 24 24" fill="none" xmlns="http://www.w3.org/2000/svg">
<path d="M2.42236 10C3.41742 15.0971 9.26338 19.523 11.3027 20.9307C11.5859 21.1262 11.7275 21.224 11.9125 21.2458C11.9682 21.2524 12.0389 21.2521 12.0945 21.2451C12.2792 21.2217 12.4201 21.1227 12.7019 20.9246C14.7147 19.5103 20.4577 15.0899 21.559 10H2.42236Z" fill="#292556" fill-opacity="0.18"/>
<path d="M12.0095 4.82053C8.50977 0.819547 1.60939 2.7997 2.30923 9.21853C2.33361 9.48055 2.37163 9.74114 2.42216 10H21.5588C21.6148 9.74102 21.6589 9.48031 21.6898 9.21817C22.4088 2.79753 15.5095 0.817526 12.0095 4.82053Z" fill="#292556"/>
</svg>
