<svg width="24" height="24" viewBox="0 0 24 24" fill="none" xmlns="http://www.w3.org/2000/svg">
<path d="M18.7477 5.5917L12 2.25V21.75L18.7477 18.4083C19.6109 17.9808 20.0425 17.767 20.3219 17.4119C20.4136 17.2954 20.492 17.169 20.5557 17.0351C20.75 16.6272 20.75 16.1455 20.75 15.1822V8.81776C20.75 7.85448 20.75 7.37284 20.5557 6.96487C20.492 6.831 20.4136 6.70462 20.3219 6.58808C20.0425 6.23296 19.6109 6.0192 18.7477 5.5917Z" fill="#292556" fill-opacity="0.18"/>
<path d="M12 2.25L5.25233 5.5917C4.38911 6.0192 3.95749 6.23296 3.67812 6.58808C3.58643 6.70462 3.508 6.831 3.44425 6.96487C3.25 7.37284 3.25 7.85448 3.25 8.81776V15.1822C3.25 16.1455 3.25 16.6272 3.44425 17.0351C3.508 17.169 3.58643 17.2954 3.67812 17.4119C3.95749 17.767 4.38911 17.9808 5.25233 18.4083L12 21.75V2.25Z" fill="#292556"/>
</svg>
