<svg width="24" height="24" viewBox="0 0 24 24" fill="none" xmlns="http://www.w3.org/2000/svg">
<path d="M2.25 12.289V18.5C2.25 20.2949 3.70507 21.75 5.5 21.75C7.29493 21.75 8.75 20.2949 8.75 18.5V17.3875C8.75 15.5926 10.2051 14.1375 12 14.1375C13.7949 14.1375 15.25 15.5926 15.25 17.3875V18.5C15.25 20.2949 16.7051 21.75 18.5 21.75C20.2949 21.75 21.75 20.2949 21.75 18.5V12.3106C21.75 11.8607 21.75 11.6358 21.7312 11.4195C21.6424 10.3989 21.2422 9.43027 20.5849 8.64456C20.4456 8.47804 20.2868 8.3187 19.9694 8.00003L19.9693 8H4C3.68256 8.32424 3.52384 8.48636 3.38479 8.65582C2.74612 9.43411 2.35729 10.3871 2.26918 11.39C2.25 11.6084 2.25 11.8353 2.25 12.289Z" fill="#292556" fill-opacity="0.18"/>
<path d="M4.66739 7.33261L4 8H19.9693L19.3185 7.34668L19.3185 7.34667C16.2699 4.28632 14.7456 2.75615 12.8982 2.46137C12.3017 2.36618 11.6938 2.3656 11.0971 2.45964C9.24913 2.75087 7.72188 4.27812 4.66739 7.33261Z" fill="#292556"/>
</svg>
