<svg width="24" height="24" viewBox="0 0 24 24" fill="none" xmlns="http://www.w3.org/2000/svg">
<path d="M3 9.7L9.7511 4.29912C10.7055 3.53562 11.1827 3.15387 11.7309 3.07943C11.9095 3.05519 12.0905 3.05519 12.2691 3.07943C12.8173 3.15387 13.2945 3.53562 14.2489 4.29912L21 9.7" stroke="#292556" stroke-width="1.5" stroke-linecap="round" stroke-linejoin="round"/>
<path fill-rule="evenodd" clip-rule="evenodd" d="M5.00003 12.5607L3.46855 13.7859C3.1451 14.0447 2.67313 13.9922 2.41438 13.6688C2.15562 13.3453 2.20806 12.8734 2.53151 12.6146L4.53151 11.0146L4.86484 10.748L9.28261 7.21374L9.31034 7.19155L9.31036 7.19154C9.7639 6.82869 10.1459 6.52308 10.4838 6.30283C10.8405 6.07035 11.2039 5.89439 11.63 5.83653C11.8756 5.80319 12.1245 5.80319 12.37 5.83653C12.7962 5.89439 13.1596 6.07035 13.5163 6.30283C13.8542 6.52308 14.2361 6.82868 14.6897 7.19152L14.6897 7.19153L14.7175 7.21374L19.1352 10.748L19.4685 11.0146L21.4685 12.6146C21.792 12.8734 21.8444 13.3453 21.5857 13.6688C21.3269 13.9922 20.855 14.0447 20.5315 13.7859L19 12.5607V18.5003C19 19.881 17.8807 21.0003 16.5 21.0003C15.1193 21.0003 14 19.881 14 18.5003V17.286C14 16.1814 13.1046 15.286 12 15.286C10.8955 15.286 10 16.1814 10 17.286V18.5003C10 19.881 8.88074 21.0003 7.50003 21.0003C6.11932 21.0003 5.00003 19.881 5.00003 18.5003V12.5607Z" fill="#292556" fill-opacity="0.18"/>
</svg>
