<svg width="24" height="24" viewBox="0 0 24 24" fill="none" xmlns="http://www.w3.org/2000/svg">
<path d="M2.25 13.4013V14.9167C2.25 17.729 2.25 19.1351 2.96619 20.1209C3.19748 20.4392 3.47745 20.7192 3.79581 20.9505C4.78155 21.6667 6.1877 21.6667 9 21.6667H15C17.8123 21.6667 19.2184 21.6667 20.2042 20.9505C20.5226 20.7192 20.8025 20.4392 21.0338 20.1209C21.75 19.1351 21.75 17.729 21.75 14.9167V13.4013C21.75 11.8447 21.75 11.0663 21.5272 10.3452C21.4356 10.0486 21.3165 9.76117 21.1716 9.48664C20.8192 8.81921 20.2689 8.26885 19.1681 7.16814C16.2626 4.26257 14.8098 2.80979 13.0641 2.48105C12.3609 2.34862 11.6391 2.34862 10.9359 2.48105C9.19021 2.80979 7.73743 4.26257 4.83186 7.16814L4.83185 7.16815C3.73114 8.26886 3.18079 8.81921 2.82841 9.48664C2.68347 9.76117 2.56441 10.0486 2.47277 10.3452C2.25 11.0663 2.25 11.8447 2.25 13.4013Z" fill="#292556" fill-opacity="0.18"/>
<path d="M16 17H8" stroke="#292556" stroke-width="1.5" stroke-linecap="round" stroke-linejoin="round"/>
</svg>
