<svg width="24" height="24" viewBox="0 0 24 24" fill="none" xmlns="http://www.w3.org/2000/svg">
<path d="M18.8943 6.83374C16.2492 4.18866 14.9267 2.86612 13.3614 2.48467C12.4669 2.26668 11.5331 2.26668 10.6386 2.48467C9.07334 2.86612 7.75079 4.18866 5.10571 6.83374V6.83374C3.9521 7.98735 3.3753 8.56416 2.98795 9.25305C2.76314 9.65287 2.58698 10.0782 2.46323 10.5198C2.25 11.2809 2.25 12.0966 2.25 13.728V16.8001C2.25 18.8625 2.25 19.8936 2.7752 20.6165C2.94482 20.85 3.15013 21.0553 3.38359 21.2249C4.10647 21.7501 5.13765 21.7501 7.2 21.7501H16.8C18.8624 21.7501 19.8935 21.7501 20.6164 21.2249C20.8499 21.0553 21.0552 20.85 21.2248 20.6165C21.75 19.8936 21.75 18.8625 21.75 16.8001V13.728C21.75 12.0966 21.75 11.2809 21.5368 10.5198C21.413 10.0782 21.2369 9.65287 21.012 9.25305C20.6247 8.56416 20.0479 7.98735 18.8943 6.83374V6.83374Z" fill="#292556" fill-opacity="0.18"/>
<path d="M15 13H11.9997M11.9997 13H9M11.9997 13L12 16M11.9997 13L12 10" stroke="#292556" stroke-width="1.5" stroke-linecap="round" stroke-linejoin="round"/>
</svg>
