<svg width="24" height="24" viewBox="0 0 24 24" fill="none" xmlns="http://www.w3.org/2000/svg">
<path fill-rule="evenodd" clip-rule="evenodd" d="M12.1682 3.82289C12.0566 3.80774 11.9435 3.80774 11.8319 3.82289C11.7098 3.83946 11.5604 3.8916 11.3029 4.05947C11.0334 4.2351 10.7083 4.49414 10.2196 4.88505L3.46855 10.2859C3.1451 10.5447 2.67313 10.4922 2.41438 10.1688C2.15562 9.84535 2.20806 9.37338 2.53151 9.11462L9.28261 3.71374L9.31036 3.69154C9.7639 3.32869 10.1459 3.02308 10.4838 2.80283C10.8405 2.57035 11.2039 2.39439 11.63 2.33653C11.8756 2.30319 12.1245 2.30319 12.37 2.33653C12.7962 2.39439 13.1596 2.57035 13.5163 2.80283C13.8542 3.02308 14.2362 3.32868 14.6897 3.69153L14.7175 3.71374L21.4685 9.11462C21.792 9.37338 21.8444 9.84535 21.5857 10.1688C21.3269 10.4922 20.855 10.5447 20.5315 10.2859L13.7804 4.88505C13.2918 4.49414 12.9667 4.23511 12.6972 4.05947C12.4396 3.8916 12.2903 3.83946 12.1682 3.82289ZM19.0001 12.5608L20.5315 13.786C20.855 14.0447 21.327 13.9923 21.5857 13.6688C21.8445 13.3454 21.792 12.8734 21.4686 12.6147L19.4686 11.0147L19.1352 10.748L14.7175 7.21377L14.6897 7.19156L14.6897 7.19155C14.2362 6.82871 13.8542 6.52311 13.5163 6.30286C13.1596 6.07038 12.7962 5.89442 12.37 5.83656C12.1245 5.80322 11.8756 5.80322 11.6301 5.83656C11.2039 5.89442 10.8405 6.07038 10.4838 6.30286C10.1459 6.52311 9.76392 6.82872 9.31038 7.19157L9.31037 7.19158L9.28263 7.21377L4.86487 10.748L4.53153 11.0147L2.53153 12.6147C2.20809 12.8734 2.15565 13.3454 2.4144 13.6688C2.67316 13.9923 3.14513 14.0447 3.46858 13.786L5.00006 12.5608V15.6003C5.00006 17.8501 5.00006 18.9751 5.573 19.7637C5.75804 20.0183 5.98202 20.2423 6.2367 20.4274C7.0253 21.0003 8.15022 21.0003 10.4001 21.0003H13.6001C15.8499 21.0003 16.9748 21.0003 17.7634 20.4274C18.0181 20.2423 18.2421 20.0183 18.4271 19.7637C19.0001 18.9751 19.0001 17.8501 19.0001 15.6003V12.5608Z" fill="#292556" fill-opacity="0.18"/>
<path d="M15 17H9" stroke="#292556" stroke-width="1.5" stroke-linecap="round" stroke-linejoin="round"/>
</svg>
