<svg width="24" height="24" viewBox="0 0 24 24" fill="none" xmlns="http://www.w3.org/2000/svg">
<path d="M19.75 16.8V8.3C19.75 7.55005 19.75 7.17508 19.559 6.91221C19.4973 6.82732 19.4227 6.75266 19.3378 6.69098C19.0749 6.5 18.6999 6.5 17.95 6.5H6.05C5.30005 6.5 4.92508 6.5 4.66221 6.69098C4.57732 6.75266 4.50266 6.82732 4.44098 6.91221C4.25 7.17508 4.25 7.55005 4.25 8.3V16.8C4.25 18.8624 4.25 19.8935 4.7752 20.6164C4.94482 20.8499 5.15013 21.0552 5.38359 21.2248C6.10647 21.75 7.13765 21.75 9.2 21.75H14.8C16.8624 21.75 17.8935 21.75 18.6164 21.2248C18.8499 21.0552 19.0552 20.8499 19.2248 20.6164C19.75 19.8935 19.75 18.8624 19.75 16.8Z" fill="#292556" fill-opacity="0.18"/>
<path d="M4.25 3.625C4.25 2.86561 4.86561 2.25 5.625 2.25H18.375C19.1344 2.25 19.75 2.86561 19.75 3.625V3.625C19.75 4.38439 19.1344 5 18.375 5H5.625C4.86561 5 4.25 4.38439 4.25 3.625V3.625Z" fill="#292556" fill-opacity="0.18"/>
<path d="M9.5 13.357V11.2927C9.5 11.0749 9.5 10.966 9.54094 10.8712C9.5544 10.84 9.57102 10.8103 9.59052 10.7824C9.6498 10.6978 9.74251 10.6407 9.92795 10.5265L11.5279 9.54081C11.7315 9.41539 11.8333 9.35268 11.9449 9.34031C11.9815 9.33625 12.0185 9.33625 12.0551 9.34031C12.1667 9.35268 12.2685 9.41539 12.4721 9.54081L14.0721 10.5265C14.2575 10.6407 14.3502 10.6978 14.4095 10.7824C14.429 10.8103 14.4456 10.84 14.4591 10.8712C14.5 10.966 14.5 11.0749 14.5 11.2927V13.357L16.5712 14.6296C16.757 14.7437 16.8499 14.8008 16.9093 14.8855C16.9288 14.9133 16.9455 14.9431 16.959 14.9743C17 15.0693 17 15.1783 17 15.3964V16.9573C17 17.1751 17 17.284 16.9591 17.3788C16.9456 17.41 16.929 17.4397 16.9095 17.4676C16.8502 17.5522 16.7575 17.6093 16.5721 17.7235L14.9721 18.7092C14.7685 18.8346 14.6667 18.8973 14.5551 18.9097C14.5185 18.9138 14.4815 18.9138 14.4449 18.9097C14.3333 18.8973 14.2315 18.8346 14.0279 18.7092L12 17.4599L9.97205 18.7092C9.76847 18.8346 9.66667 18.8973 9.5551 18.9097C9.51848 18.9138 9.48152 18.9138 9.4449 18.9097C9.33333 18.8973 9.23153 18.8346 9.02795 18.7092L7.42795 17.7235C7.24251 17.6093 7.1498 17.5522 7.09052 17.4676C7.07102 17.4397 7.0544 17.41 7.04094 17.3788C7 17.284 7 17.1751 7 16.9573V15.3964C7 15.1783 7 15.0693 7.04103 14.9743C7.05453 14.9431 7.07118 14.9133 7.09072 14.8855C7.15013 14.8008 7.24303 14.7437 7.42884 14.6296L9.5 13.357Z" fill="#292556"/>
</svg>
