<svg width="24" height="24" viewBox="0 0 24 24" fill="none" xmlns="http://www.w3.org/2000/svg">
<path d="M10.7 17.25H13.3C13.4875 17.25 13.5812 17.25 13.6469 17.2977C13.6682 17.3132 13.6868 17.3318 13.7023 17.3531C13.75 17.4188 13.75 17.5125 13.75 17.7V19.5C13.75 20.4374 13.75 20.9061 13.9887 21.2347C14.0658 21.3408 14.1592 21.4342 14.2653 21.5113C14.5939 21.75 15.0626 21.75 16 21.75H16.8H16.8C18.8624 21.75 19.8935 21.75 20.6164 21.2248C20.8499 21.0552 21.0552 20.8499 21.2248 20.6164C21.75 19.8935 21.75 18.8624 21.75 16.8V13.2793C21.75 11.6363 21.75 10.8148 21.3723 10.1706C21.2491 9.96057 21.0987 9.76786 20.9248 9.59748C20.3915 9.07478 19.5945 8.87554 18.0006 8.47706L17.75 8.41442V7.2C17.75 5.13765 17.75 4.10647 17.2248 3.38359C17.0552 3.15013 16.8499 2.94482 16.6164 2.7752C15.8935 2.25 14.8624 2.25 12.8 2.25H11.2C9.13765 2.25 8.10647 2.25 7.38359 2.7752C7.15013 2.94482 6.94482 3.15013 6.7752 3.38359C6.25 4.10647 6.25 5.13765 6.25 7.2V8.41442L5.99945 8.47706L5.99944 8.47706C4.40551 8.87554 3.60854 9.07478 3.07518 9.59748C2.90133 9.76786 2.75086 9.96057 2.62774 10.1706C2.25 10.8148 2.25 11.6363 2.25 13.2793V16.8C2.25 18.8624 2.25 19.8935 2.7752 20.6164C2.94482 20.8499 3.15013 21.0552 3.38359 21.2248C4.10647 21.75 5.13765 21.75 7.2 21.75H8C8.93743 21.75 9.40615 21.75 9.73473 21.5113C9.84085 21.4342 9.93417 21.3408 10.0113 21.2347C10.25 20.9061 10.25 20.4374 10.25 19.5V17.7C10.25 17.5125 10.25 17.4188 10.2977 17.3531C10.3132 17.3318 10.3318 17.3132 10.3531 17.2977C10.4188 17.25 10.5125 17.25 10.7 17.25Z" fill="#292556" fill-opacity="0.18"/>
<path d="M12.75 9.8C12.75 9.98749 12.75 10.0812 12.7023 10.1469C12.6868 10.1682 12.6682 10.1868 12.6469 10.2023C12.5812 10.25 12.4875 10.25 12.3 10.25H11.7C11.5125 10.25 11.4188 10.25 11.3531 10.2023C11.3318 10.1868 11.3132 10.1682 11.2977 10.1469C11.25 10.0812 11.25 9.98749 11.25 9.8V8.5H9.95C9.76251 8.5 9.66877 8.5 9.60305 8.45225C9.58183 8.43683 9.56317 8.41817 9.54775 8.39695C9.5 8.33123 9.5 8.23749 9.5 8.05V7.45C9.5 7.26251 9.5 7.16877 9.54775 7.10305C9.56317 7.08183 9.58183 7.06317 9.60305 7.04775C9.66877 7 9.76251 7 9.95 7L11.25 7V5.7C11.25 5.51251 11.25 5.41877 11.2977 5.35305C11.3132 5.33183 11.3318 5.31317 11.3531 5.29775C11.4188 5.25 11.5125 5.25 11.7 5.25H12.3C12.4875 5.25 12.5812 5.25 12.6469 5.29775C12.6682 5.31317 12.6868 5.33183 12.7023 5.35305C12.75 5.41877 12.75 5.51251 12.75 5.7V7L14.05 7C14.2375 7 14.3312 7 14.3969 7.04775C14.4182 7.06317 14.4368 7.08183 14.4523 7.10305C14.5 7.16877 14.5 7.26251 14.5 7.45V8.05C14.5 8.23749 14.5 8.33123 14.4523 8.39695C14.4368 8.41817 14.4182 8.43683 14.3969 8.45225C14.3312 8.5 14.2375 8.5 14.05 8.5H12.75V9.8Z" fill="#292556"/>
<path d="M8 13.35C8 13.725 8 13.9125 7.90451 14.0439C7.87367 14.0863 7.83634 14.1237 7.79389 14.1545C7.66246 14.25 7.47497 14.25 7.1 14.25H6.9C6.52503 14.25 6.33754 14.25 6.20611 14.1545C6.16366 14.1237 6.12633 14.0863 6.09549 14.0439C6 13.9125 6 13.725 6 13.35V13.15C6 12.775 6 12.5875 6.09549 12.4561C6.12633 12.4137 6.16366 12.3763 6.20611 12.3455C6.33754 12.25 6.52503 12.25 6.9 12.25H7.1C7.47497 12.25 7.66246 12.25 7.79389 12.3455C7.83634 12.3763 7.87367 12.4137 7.90451 12.4561C8 12.5875 8 12.775 8 13.15V13.35Z" fill="#292556"/>
<path d="M13 13.35C13 13.725 13 13.9125 12.9045 14.0439C12.8737 14.0863 12.8363 14.1237 12.7939 14.1545C12.6625 14.25 12.475 14.25 12.1 14.25H11.9C11.525 14.25 11.3375 14.25 11.2061 14.1545C11.1637 14.1237 11.1263 14.0863 11.0955 14.0439C11 13.9125 11 13.725 11 13.35V13.15C11 12.775 11 12.5875 11.0955 12.4561C11.1263 12.4137 11.1637 12.3763 11.2061 12.3455C11.3375 12.25 11.525 12.25 11.9 12.25H12.1C12.475 12.25 12.6625 12.25 12.7939 12.3455C12.8363 12.3763 12.8737 12.4137 12.9045 12.4561C13 12.5875 13 12.775 13 13.15V13.35Z" fill="#292556"/>
<path d="M18 13.35C18 13.725 18 13.9125 17.9045 14.0439C17.8737 14.0863 17.8363 14.1237 17.7939 14.1545C17.6625 14.25 17.475 14.25 17.1 14.25H16.9C16.525 14.25 16.3375 14.25 16.2061 14.1545C16.1637 14.1237 16.1263 14.0863 16.0955 14.0439C16 13.9125 16 13.725 16 13.35V13.15C16 12.775 16 12.5875 16.0955 12.4561C16.1263 12.4137 16.1637 12.3763 16.2061 12.3455C16.3375 12.25 16.525 12.25 16.9 12.25H17.1C17.475 12.25 17.6625 12.25 17.7939 12.3455C17.8363 12.3763 17.8737 12.4137 17.9045 12.4561C18 12.5875 18 12.775 18 13.15V13.35Z" fill="#292556"/>
</svg>
