<svg width="24" height="24" viewBox="0 0 24 24" fill="none" xmlns="http://www.w3.org/2000/svg">
<path fill-rule="evenodd" clip-rule="evenodd" d="M5 2.25C4.58579 2.25 4.25 2.58579 4.25 3C4.25 3.41421 4.58579 3.75 5 3.75H6.75V7.5C6.75 7.58048 6.74964 7.64973 6.7493 7.71251V7.71254C6.74871 7.82487 6.74823 7.91649 6.75014 8.01462C6.75281 8.15143 6.7609 8.34398 6.77287 8.46558C6.91936 9.9529 7.74529 11.2354 8.93767 12C7.7453 12.7646 6.91936 14.0471 6.77287 15.5344C6.74995 15.7672 6.74997 16.0335 6.75 16.4524V16.4524L6.75 16.5L6.75 20.25H5C4.58579 20.25 4.25 20.5858 4.25 21C4.25 21.4142 4.58579 21.75 5 21.75H7.5L16.5 21.75H19C19.4142 21.75 19.75 21.4142 19.75 21C19.75 20.5858 19.4142 20.25 19 20.25H17.25V16.5L17.25 16.4524C17.25 16.0335 17.2501 15.7672 17.2271 15.5344C17.0806 14.0471 16.2547 12.7646 15.0623 12C16.2547 11.2354 17.0806 9.9529 17.2271 8.46558C17.2409 8.32576 17.246 8.18145 17.2482 8.0097C17.25 7.87278 17.25 7.70786 17.25 7.50486V7.5V3.75H19C19.4142 3.75 19.75 3.41421 19.75 3C19.75 2.58579 19.4142 2.25 19 2.25H16.5H7.5H5Z" fill="#292556" fill-opacity="0.18"/>
<path fill-rule="evenodd" clip-rule="evenodd" d="M5 2.25C4.58579 2.25 4.25 2.58579 4.25 3C4.25 3.41421 4.58579 3.75 5 3.75H6.75V7.5C6.75 7.58048 6.74964 7.64973 6.7493 7.71251V7.71254C6.74871 7.82487 6.74823 7.91649 6.75014 8.01462L6.76448 8.75H7.5H16.4983H17.2387L17.2482 8.0097C17.25 7.87278 17.25 7.70786 17.25 7.50486V7.5V3.75H19C19.4142 3.75 19.75 3.41421 19.75 3C19.75 2.58579 19.4142 2.25 19 2.25H16.5H7.5H5Z" fill="#292556"/>
</svg>
