<svg width="24" height="24" viewBox="0 0 24 24" fill="none" xmlns="http://www.w3.org/2000/svg">
<path fill-rule="evenodd" clip-rule="evenodd" d="M11.5 2.25C10.9359 2.25 10.3843 2.30672 9.8508 2.41502V2.41502C9.8508 2.41502 9.8508 2.41502 9.8508 2.41502C9.50123 2.48598 9.25 2.79333 9.25 3.15003C9.25 3.15003 9.25 3.15003 9.25 3.15003V7.25H6.31066L5.64859 6.58793C5.71419 6.40411 5.75 6.2061 5.75 6C5.75 5.0335 4.9665 4.25 4 4.25C3.0335 4.25 2.25 5.0335 2.25 6C2.25 6.9665 3.0335 7.75 4 7.75C4.2061 7.75 4.40411 7.71419 4.58793 7.64859L5.29393 8.35459C5.46709 8.52775 5.55367 8.61433 5.65951 8.66825C5.69451 8.68609 5.73087 8.70115 5.76824 8.71329C5.88121 8.75 6.00365 8.75 6.24853 8.75H9.25V11.25H6.62197C6.31309 10.3761 5.47966 9.75 4.5 9.75C3.25736 9.75 2.25 10.7574 2.25 12C2.25 13.2426 3.25736 14.25 4.5 14.25C5.47966 14.25 6.31309 13.6239 6.62197 12.75H9.25V15.25H6.24853C6.00365 15.25 5.88121 15.25 5.76824 15.2867C5.73087 15.2988 5.69451 15.3139 5.65951 15.3317C5.55367 15.3857 5.46709 15.4723 5.29393 15.6454L4.58793 16.3514C4.40411 16.2858 4.2061 16.25 4 16.25C3.0335 16.25 2.25 17.0335 2.25 18C2.25 18.9665 3.0335 19.75 4 19.75C4.9665 19.75 5.75 18.9665 5.75 18C5.75 17.7939 5.71419 17.5959 5.64859 17.4121L6.31066 16.75H9.25V19.05C9.25 20.1749 9.25 20.7374 9.53647 21.1317C9.62899 21.259 9.74098 21.371 9.86832 21.4635C10.2626 21.75 10.8251 21.75 11.95 21.75H13.25C14.1846 21.75 14.6519 21.75 15 21.549C15.228 21.4174 15.4174 21.228 15.549 21C15.75 20.6519 15.75 20.1846 15.75 19.25V19.25H17.05C18.1749 19.25 18.7374 19.25 19.1317 18.9635C19.259 18.871 19.371 18.759 19.4635 18.6317C19.75 18.2374 19.75 17.6749 19.75 16.55V15.75V15.75C20.3848 15.75 20.7022 15.75 20.9015 15.6939C21.7544 15.4538 22.2145 14.5307 21.8926 13.7052C21.8174 13.5122 21.6263 13.2588 21.2441 12.752L19.7458 10.7651C19.7486 10.6771 19.75 10.5887 19.75 10.5C19.75 5.94365 16.0563 2.25 11.5 2.25Z" fill="#292556" fill-opacity="0.18"/>
<path d="M4 4.25C3.0335 4.25 2.25 5.0335 2.25 6C2.25 6.9665 3.0335 7.75 4 7.75C4.48304 7.75 4.92157 7.5533 5.23744 7.23744C5.5533 6.92157 5.75 6.48304 5.75 6C5.75 5.0335 4.9665 4.25 4 4.25Z" fill="#292556"/>
<path d="M13.5 7.25C12.2574 7.25 11.25 8.25736 11.25 9.5C11.25 10.7426 12.2574 11.75 13.5 11.75C14.7426 11.75 15.75 10.7426 15.75 9.5C15.75 8.25736 14.7426 7.25 13.5 7.25Z" fill="#292556"/>
<path d="M4.5 9.75C3.25736 9.75 2.25 10.7574 2.25 12C2.25 13.2426 3.25736 14.25 4.5 14.25C5.74264 14.25 6.75 13.2426 6.75 12C6.75 10.7574 5.74264 9.75 4.5 9.75Z" fill="#292556"/>
<path d="M4 16.25C3.0335 16.25 2.25 17.0335 2.25 18C2.25 18.9665 3.0335 19.75 4 19.75C4.9665 19.75 5.75 18.9665 5.75 18C5.75 17.517 5.5533 17.0784 5.23744 16.7626C4.92157 16.4467 4.48304 16.25 4 16.25Z" fill="#292556"/>
</svg>
