<svg width="24" height="24" viewBox="0 0 24 24" fill="none" xmlns="http://www.w3.org/2000/svg">
<path d="M10.5 2.25C5.94365 2.25 2.25 5.94365 2.25 10.5C2.25 13.5029 3.85453 16.1299 6.25 17.5724V19.05C6.25 20.1749 6.25 20.7374 6.53647 21.1317C6.62899 21.259 6.74098 21.371 6.86832 21.4635C7.26262 21.75 7.82508 21.75 8.95 21.75H12.25C13.1846 21.75 13.6519 21.75 14 21.549C14.228 21.4174 14.4174 21.228 14.549 21C14.75 20.6519 14.75 20.1846 14.75 19.25V19.25H16.05C17.1749 19.25 17.7374 19.25 18.1317 18.9635C18.259 18.871 18.371 18.759 18.4635 18.6317C18.75 18.2374 18.75 17.6749 18.75 16.55V15.75V15.75C19.3848 15.75 19.7022 15.75 19.9015 15.6939C20.7544 15.4538 21.2145 14.5307 20.8926 13.7052C20.8174 13.5122 20.6263 13.2588 20.2441 12.752L18.7458 10.7651C18.7486 10.6771 18.75 10.5887 18.75 10.5C18.75 5.94365 15.0563 2.25 10.5 2.25Z" fill="#292556" fill-opacity="0.18"/>
<path fill-rule="evenodd" clip-rule="evenodd" d="M8.49435 7.08453V7.08453C9.32499 6.17402 9.74031 5.71876 10.2511 5.63304C10.4155 5.60547 10.5833 5.60547 10.7476 5.63304C11.2584 5.71876 11.6737 6.17402 12.5044 7.08453V7.08453L12.5668 7.09704C13.7142 7.32715 14.288 7.44221 14.6186 7.80234C14.7684 7.96545 14.8801 8.15969 14.9459 8.37112C15.0912 8.83794 14.9024 9.39181 14.5249 10.4995V10.4995V10.4995C14.9024 11.6073 15.0912 12.1611 14.9459 12.628C14.8801 12.8394 14.7684 13.0336 14.6186 13.1967C14.288 13.5569 13.7142 13.6719 12.5668 13.902L12.5044 13.9146V13.9146C11.6737 14.8251 11.2584 15.2803 10.7476 15.366C10.5833 15.3936 10.4155 15.3936 10.2511 15.366C9.74031 15.2803 9.32499 14.8251 8.49435 13.9146V13.9146L8.43195 13.902C7.2845 13.6719 6.71077 13.5569 6.38013 13.1967C6.23037 13.0336 6.11859 12.8394 6.0528 12.628C5.90754 12.1611 6.09631 11.6073 6.47384 10.4995V10.4995V10.4995C6.09631 9.39181 5.90754 8.83794 6.0528 8.37112C6.11859 8.15969 6.23037 7.96545 6.38013 7.80234C6.71077 7.44221 7.2845 7.32715 8.43195 7.09704L8.49435 7.08453ZM10.4995 11.4995C11.0518 11.4995 11.4995 11.0518 11.4995 10.4995C11.4995 9.94723 11.0518 9.49951 10.4995 9.49951C9.94723 9.49951 9.49951 9.94723 9.49951 10.4995C9.49951 11.0518 9.94723 11.4995 10.4995 11.4995Z" fill="#292556"/>
</svg>
