<svg width="24" height="24" viewBox="0 0 24 24" fill="none" xmlns="http://www.w3.org/2000/svg">
<path d="M10.5 2.25C5.94365 2.25 2.25 5.94365 2.25 10.5C2.25 13.5029 3.85453 16.1299 6.25 17.5724V19.05C6.25 20.1749 6.25 20.7374 6.53647 21.1317C6.62899 21.259 6.74098 21.371 6.86832 21.4635C7.26262 21.75 7.82508 21.75 8.95 21.75H12.25C13.1846 21.75 13.6519 21.75 14 21.549C14.228 21.4174 14.4174 21.228 14.549 21C14.75 20.6519 14.75 20.1846 14.75 19.25V19.25H16.05C17.1749 19.25 17.7374 19.25 18.1317 18.9635C18.259 18.871 18.371 18.759 18.4635 18.6317C18.75 18.2374 18.75 17.6749 18.75 16.55V15.75V15.75C19.3848 15.75 19.7022 15.75 19.9015 15.6939C20.7544 15.4538 21.2145 14.5307 20.8926 13.7052C20.8174 13.5122 20.6263 13.2588 20.2441 12.752L18.7458 10.7651C18.7486 10.6771 18.75 10.5887 18.75 10.5C18.75 5.94365 15.0563 2.25 10.5 2.25Z" fill="#292556" fill-opacity="0.18"/>
<path d="M11.3889 15.25C12.783 15.25 13.9135 14.1214 13.9167 12.7281C14.7103 12.3019 15.25 11.4645 15.25 10.5C15.25 9.53549 14.7103 8.69814 13.9167 8.27191C13.9135 6.87855 12.783 5.75 11.3889 5.75V15.25Z" fill="#292556"/>
<path d="M9.61111 5.75C8.21702 5.75 7.08651 6.87855 7.08334 8.27191C6.28973 8.69814 5.75 9.53549 5.75 10.5C5.75 11.4645 6.28973 12.3019 7.08334 12.7281C7.08651 14.1214 8.21702 15.25 9.61111 15.25V5.75Z" fill="#292556"/>
</svg>
