<svg width="24" height="24" viewBox="0 0 24 24" fill="none" xmlns="http://www.w3.org/2000/svg">
<path d="M5.94347 9.7959C6.12403 10.8596 6.61701 11.8686 7.42565 12.6773C8.13402 13.3856 8.99616 13.8518 9.91414 14.0779C10.1402 14.9959 10.6064 15.858 11.3147 16.5664C12.1236 17.3752 13.1329 17.8682 14.1969 18.0487L11.1426 19.3275C6.97617 21.0719 4.89297 21.944 3.69321 21.2101C3.3218 20.9829 3.00965 20.6708 2.78244 20.2994C2.04846 19.0996 2.9206 17.0164 4.66488 12.85L5.94347 9.7959Z" fill="#292556"/>
<path d="M16.1453 4.07952C14.0625 1.99673 10.712 1.97034 8.66171 4.0206C7.40299 5.27931 6.92699 7.0281 7.22901 8.67275C7.41894 9.70699 7.91653 10.7 8.72063 11.5041C9.40754 12.191 10.2323 12.6543 11.1029 12.8931C11.3417 13.7637 11.805 14.5885 12.4919 15.2754C13.296 16.0795 14.289 16.5771 15.3233 16.767C16.9679 17.069 18.7167 16.593 19.9754 15.3343C22.0257 13.2841 21.9993 9.93355 19.9165 7.85076C19.2296 7.16385 18.4048 6.70062 17.5342 6.46178C17.2954 5.59122 16.8322 4.76643 16.1453 4.07952Z" fill="#292556" fill-opacity="0.18"/>
<path d="M15.9096 9.14571C15.6167 9.4386 15.1418 9.4386 14.8489 9.14571C14.556 8.85282 14.556 8.37794 14.8489 8.08505C15.1418 7.79216 15.6167 7.79216 15.9096 8.08505C16.2025 8.37794 16.2025 8.85282 15.9096 9.14571Z" fill="#292556"/>
<path d="M11.4913 8.96783C11.1984 9.26072 10.7235 9.26072 10.4306 8.96783C10.1377 8.67494 10.1377 8.20006 10.4306 7.90717C10.7235 7.61428 11.1984 7.61428 11.4913 7.90717C11.7842 8.20006 11.7842 8.67494 11.4913 8.96783Z" fill="#292556"/>
<path d="M16.0875 13.564C15.7946 13.8569 15.3197 13.8569 15.0268 13.564C14.7339 13.2711 14.7339 12.7963 15.0268 12.5034C15.3197 12.2105 15.7946 12.2105 16.0875 12.5034C16.3804 12.7963 16.3804 13.2711 16.0875 13.564Z" fill="#292556"/>
</svg>
