<svg width="24" height="24" viewBox="0 0 24 24" fill="none" xmlns="http://www.w3.org/2000/svg">
<path d="M13.2 2.75H10.8C7.23775 2.75 5.45663 2.75 4.20802 3.65717C3.80477 3.95015 3.45015 4.30477 3.15717 4.70802C2.25 5.95663 2.25 7.73776 2.25 11.3V16.2917C2.25 16.4077 2.25 16.4658 2.25101 16.5148C2.30365 19.0613 4.35538 21.113 6.90183 21.1657C6.95091 21.1667 7.00894 21.1667 7.125 21.1667H16.875C16.9911 21.1667 17.0491 21.1667 17.0982 21.1657C19.6446 21.113 21.6963 19.0613 21.749 16.5148C21.75 16.4658 21.75 16.4077 21.75 16.2917V11.3C21.75 7.73775 21.75 5.95663 20.8428 4.70802C20.5499 4.30477 20.1952 3.95015 19.792 3.65717C18.5434 2.75 16.7622 2.75 13.2 2.75Z" fill="#292556" fill-opacity="0.18"/>
<path d="M5.42047 12.7544L4.04258 15.2941C3.85057 15.648 3.75 16.0442 3.75 16.4469C3.75 18.227 5.19305 19.67 6.97314 19.67H17.2412C18.9029 19.67 20.25 18.3229 20.25 16.6612C20.25 16.1267 20.0603 15.6096 19.7146 15.2019L18.658 13.9556C18.4102 13.6633 18.2862 13.5171 18.1653 13.4135C17.4694 12.8168 16.4569 12.7698 15.7085 13.2992C15.5786 13.3912 15.4416 13.5252 15.1677 13.7933C14.8606 14.0939 14.7071 14.2442 14.5657 14.3416C13.7472 14.9057 12.6385 14.7829 11.9632 14.0534C11.8466 13.9275 11.7296 13.7473 11.4957 13.3868L11.4957 13.3868L10.9445 12.5374C9.96636 11.0301 9.47728 10.2765 8.87008 10.0435C8.35809 9.84703 7.78789 9.86943 7.29289 10.1054C6.70583 10.3853 6.27738 11.175 5.42047 12.7544Z" fill="#292556"/>
<path d="M18.75 8.25C18.75 9.63071 17.6307 10.75 16.25 10.75C14.8693 10.75 13.75 9.63071 13.75 8.25C13.75 6.86929 14.8693 5.75 16.25 5.75C17.6307 5.75 18.75 6.86929 18.75 8.25Z" fill="#292556"/>
</svg>
