<svg width="24" height="24" viewBox="0 0 24 24" fill="none" xmlns="http://www.w3.org/2000/svg">
<path d="M12 5.26086C10.5477 3.67244 9.82159 2.87823 9.06857 2.74515C8.47047 2.63945 7.85503 2.78005 7.36215 3.13498C6.74163 3.58185 6.43241 4.61259 5.81396 6.67408L4.44198 11.2474H3C2.58579 11.2474 2.25 11.5831 2.25 11.9974C2.25 12.4116 2.58579 12.7474 3 12.7474H21C21.4142 12.7474 21.75 12.4116 21.75 11.9974C21.75 11.5831 21.4142 11.2474 21 11.2474H19.558L18.186 6.67408C17.5676 4.61259 17.2584 3.58185 16.6378 3.13498C16.145 2.78005 15.5295 2.63945 14.9314 2.74515C14.1784 2.87823 13.4523 3.67244 12 5.26086V5.26086V5.26086Z" fill="#292556" fill-opacity="0.18"/>
<path d="M7 13.7471C4.92893 13.7471 3.25 15.426 3.25 17.4971C3.25 19.5681 4.92893 21.2471 7 21.2471C9.07107 21.2471 10.75 19.5681 10.75 17.4971C10.75 15.426 9.07107 13.7471 7 13.7471Z" fill="#292556"/>
<path d="M17 13.7471C14.9289 13.7471 13.25 15.426 13.25 17.4971C13.25 19.5681 14.9289 21.2471 17 21.2471C19.0711 21.2471 20.75 19.5681 20.75 17.4971C20.75 15.426 19.0711 13.7471 17 13.7471Z" fill="#292556"/>
</svg>
