<svg width="24" height="24" viewBox="0 0 24 24" fill="none" xmlns="http://www.w3.org/2000/svg">
<path d="M6.48045 3.43622L3.43622 6.48045C2.91675 6.99991 2.65702 7.25965 2.49524 7.57717C2.44172 7.68219 2.39655 7.79126 2.36012 7.90336C2.25 8.24228 2.25 8.6096 2.25 9.34423V14.6558C2.25 15.3904 2.25 15.7577 2.36012 16.0966C2.39655 16.2087 2.44172 16.3178 2.49524 16.4228C2.65702 16.7404 2.91675 17.0001 3.43622 17.5196L6.48045 20.5638L6.48047 20.5638C6.99992 21.0833 7.25965 21.343 7.57717 21.5048C7.68219 21.5583 7.79126 21.6035 7.90336 21.6399C8.24228 21.75 8.6096 21.75 9.34423 21.75H14.6558C15.3904 21.75 15.7577 21.75 16.0966 21.6399C16.2087 21.6035 16.3178 21.5583 16.4228 21.5048C16.7404 21.343 17.0001 21.0833 17.5195 20.5638L17.5196 20.5638L20.5638 17.5196L20.5638 17.5195C21.0833 17.0001 21.343 16.7404 21.5048 16.4228C21.5583 16.3178 21.6035 16.2087 21.6399 16.0966C21.75 15.7577 21.75 15.3904 21.75 14.6558V9.34423C21.75 8.6096 21.75 8.24228 21.6399 7.90336C21.6035 7.79126 21.5583 7.68219 21.5048 7.57717C21.343 7.25965 21.0833 6.99992 20.5638 6.48047L20.5638 6.48045L17.5196 3.43622C17.0001 2.91675 16.7404 2.65702 16.4228 2.49524C16.3178 2.44172 16.2087 2.39655 16.0966 2.36012C15.7577 2.25 15.3904 2.25 14.6558 2.25H9.34423C8.6096 2.25 8.24228 2.25 7.90336 2.36012C7.79126 2.39655 7.68219 2.44172 7.57717 2.49524C7.25965 2.65702 6.99991 2.91675 6.48045 3.43622Z" fill="#292556" fill-opacity="0.18"/>
<path d="M13 8.75C13 9.30228 12.5523 9.75 12 9.75C11.4477 9.75 11 9.30228 11 8.75C11 8.19772 11.4477 7.75 12 7.75C12.5523 7.75 13 8.19772 13 8.75Z" fill="#292556"/>
<path d="M12 12V15.5" stroke="#292556" stroke-width="1.5" stroke-linecap="round"/>
</svg>
