<svg width="24" height="24" viewBox="0 0 24 24" fill="none" xmlns="http://www.w3.org/2000/svg">
<path fill-rule="evenodd" clip-rule="evenodd" d="M13.47 18.5306L12.0003 17.0609L10.5306 18.5306C9.13316 19.9281 6.86743 19.9281 5.46997 18.5306C4.07251 17.1331 4.07251 14.8674 5.46997 13.4699L6.93965 12.0003L5.47002 10.5306C4.07256 9.13317 4.07255 6.86744 5.47002 5.46998C6.86748 4.07252 9.13321 4.07252 10.5307 5.46998L12.0003 6.93962L13.4699 5.46997C14.8674 4.07251 17.1331 4.07251 18.5306 5.46997C19.9281 6.86743 19.9281 9.13316 18.5306 10.5306L17.061 12.0003L18.5306 13.47C19.9281 14.8674 19.9281 17.1332 18.5306 18.5306C17.1332 19.9281 14.8675 19.9281 13.47 18.5306ZM14.9396 12.0003L12.0003 14.9396L9.06097 12.0003L12.0003 9.06094L14.9396 12.0003Z" fill="#292556" fill-opacity="0.18"/>
<path d="M3.5 5C3.5 4.17157 4.17157 3.5 5 3.5C5.82843 3.5 6.5 4.17157 6.5 5C6.5 5.82843 5.82843 6.5 5 6.5C4.17157 6.5 3.5 5.82843 3.5 5Z" fill="#292556"/>
<path d="M17.5 5C17.5 4.17157 18.1716 3.5 19 3.5C19.8284 3.5 20.5 4.17157 20.5 5C20.5 5.82843 19.8284 6.5 19 6.5C18.1716 6.5 17.5 5.82843 17.5 5Z" fill="#292556"/>
<path d="M3.5 19C3.5 18.1716 4.17157 17.5 5 17.5C5.82843 17.5 6.5 18.1716 6.5 19C6.5 19.8284 5.82843 20.5 5 20.5C4.17157 20.5 3.5 19.8284 3.5 19Z" fill="#292556"/>
<path d="M17.5 19C17.5 18.1716 18.1716 17.5 19 17.5C19.8284 17.5 20.5 18.1716 20.5 19C20.5 19.8284 19.8284 20.5 19 20.5C18.1716 20.5 17.5 19.8284 17.5 19Z" fill="#292556"/>
</svg>
