<svg width="24" height="24" viewBox="0 0 24 24" fill="none" xmlns="http://www.w3.org/2000/svg">
<path d="M14.5 4.75C12.1733 4.75 10.145 6.02121 9.06918 7.90483C8.72993 7.80406 8.37091 7.75 8 7.75C5.96472 7.75 4.30813 9.37142 4.2515 11.393C3.05062 12.1431 2.25 13.4775 2.25 15C2.25 17.3472 4.15279 19.25 6.5 19.25H17.5C19.8472 19.25 21.75 17.3472 21.75 15C21.75 13.8997 21.3311 12.8964 20.6457 12.1422C20.7143 11.7714 20.75 11.3896 20.75 11C20.75 7.54822 17.9518 4.75 14.5 4.75Z" fill="#292556" fill-opacity="0.18"/>
<path d="M10.9309 15.699C10.5945 15.8904 10.2039 16 9.7873 16C8.52406 16 7.5 14.9926 7.5 13.75C7.5 12.5074 8.52406 11.5 9.7873 11.5C10.4647 11.5 11.0734 11.7897 11.4922 12.25C11.911 12.7103 12.4591 13.75 12.4591 13.75L12.6852 14.0774C12.6852 14.0774 13.0068 14.6396 13.4259 15.1548C13.8451 15.67 14.4897 16 15.2127 16C16.4759 16 17.5 14.9926 17.5 13.75C17.5 12.5074 16.4759 11.5 15.2127 11.5C14.7961 11.5 14.4055 11.6096 14.0691 11.801" stroke="#292556" stroke-width="1.5" stroke-linecap="round" stroke-linejoin="round"/>
</svg>
