<svg width="24" height="24" viewBox="0 0 24 24" fill="none" xmlns="http://www.w3.org/2000/svg">
<path fill-rule="evenodd" clip-rule="evenodd" d="M21.1224 3.92865C21.4152 3.6357 21.4151 3.16083 21.1222 2.86799C20.8292 2.57516 20.3544 2.57526 20.0615 2.86822L19.0009 3.92933L16.8795 6.05155L10.9912 11.9424C8.9351 10.4028 6.00664 10.5679 4.13765 12.4377C2.08888 14.4873 2.08888 17.8095 4.13765 19.8592C6.18765 21.91 9.51227 21.91 11.5623 19.8592C13.432 17.9886 13.5954 15.0583 12.0524 13.0025L17.41 7.64266L19.3544 9.58791C19.6473 9.88087 20.1221 9.88097 20.4151 9.58814C20.708 9.29531 20.7081 8.82044 20.4153 8.52748L18.4704 6.58177L19.5313 5.52043L20.4151 6.40458C20.7079 6.69754 21.1828 6.69764 21.4757 6.40481C21.7687 6.11198 21.7688 5.6371 21.476 5.34415L20.5917 4.45955L21.1224 3.92865Z" fill="#292556" fill-opacity="0.18"/>
<path d="M21.1222 3.92865C21.4151 3.6357 21.415 3.16083 21.122 2.86799C20.8291 2.57516 20.3542 2.57526 20.0614 2.86822L21.1222 3.92865ZM20.4149 6.40458C20.7077 6.69754 21.1826 6.69764 21.4756 6.40481C21.7685 6.11198 21.7686 5.6371 21.4758 5.34415L20.4149 6.40458ZM17.4098 6.58177L16.8794 6.05155L16.8794 6.05155L17.4098 6.58177ZM19.3542 9.58791C19.6471 9.88087 20.1219 9.88097 20.4149 9.58814C20.7079 9.29531 20.708 8.82044 20.4151 8.52748L19.3542 9.58791ZM20.0616 4.98977L21.1222 3.92865L20.0614 2.86822L19.0007 3.92933L20.0616 4.98977ZM19.0007 4.98977L20.4149 6.40458L21.4758 5.34415L20.0616 3.92933L19.0007 4.98977ZM17.9403 7.11199L20.0616 4.98977L19.0007 3.92933L16.8794 6.05155L17.9403 7.11199ZM16.8794 7.11199L19.3542 9.58791L20.4151 8.52748L17.9403 6.05155L16.8794 7.11199ZM16.5226 8.53022L17.9403 7.11199L16.8794 6.05155L15.4617 7.46978L16.5226 8.53022Z" fill="#292556"/>
</svg>
