<svg width="24" height="24" viewBox="0 0 24 24" fill="none" xmlns="http://www.w3.org/2000/svg">
<path d="M17.5 3.75C17.9142 3.75 18.25 3.41421 18.25 3C18.25 2.58579 17.9142 2.25 17.5 2.25V3.75ZM16.27 3.75H17.5V2.25H16.27V3.75ZM12.75 7.27C12.75 6.02579 12.7604 5.59249 12.8732 5.26562L11.4554 4.77603C11.2396 5.40077 11.25 6.14971 11.25 7.27H12.75ZM16.27 2.25C15.1497 2.25 14.4008 2.23965 13.776 2.45537L14.2656 3.87322C14.5925 3.76035 15.0258 3.75 16.27 3.75V2.25ZM12.8732 5.26562C13.0988 4.61225 13.6122 4.09883 14.2656 3.87322L13.776 2.45537C12.6871 2.83139 11.8314 3.68708 11.4554 4.77603L12.8732 5.26562Z" fill="#292556"/>
<path d="M15.0088 7.26562H8.99118C6.18731 7.26562 4.78538 7.26562 3.80141 7.97774C3.47887 8.21118 3.19555 8.49449 2.96212 8.81704C2.25 9.801 2.25 11.2029 2.25 14.0068C2.25 16.8107 2.25 18.2126 2.96212 19.1966C3.19555 19.5191 3.47887 19.8024 3.80141 20.0359C4.78538 20.748 6.18731 20.748 8.99118 20.748H15.0088C17.8127 20.748 19.2146 20.748 20.1986 20.0359C20.5211 19.8024 20.8044 19.5191 21.0379 19.1966C21.75 18.2126 21.75 16.8107 21.75 14.0068C21.75 11.2029 21.75 9.801 21.0379 8.81704C20.8044 8.49449 20.5211 8.21118 20.1986 7.97774C19.2146 7.26562 17.8127 7.26562 15.0088 7.26562Z" fill="#292556" fill-opacity="0.18"/>
<path d="M10.2502 15.9998C10.2501 16.4141 10.5859 16.75 11.0002 16.75H13C13.4142 16.75 13.75 16.4142 13.75 16V16C13.75 15.5858 13.4142 15.25 13 15.25H11.0002C10.586 15.25 10.2503 15.5857 10.2502 15.9998V15.9998Z" fill="#292556"/>
<path d="M7.25008 11.25C7.66424 11.25 7.99999 11.5858 7.99999 12V12C7.99999 12.4142 7.66424 12.75 7.25008 12.75V12.75C6.83585 12.75 6.50008 12.414 6.50018 11.9998V11.9998C6.50028 11.5857 6.836 11.25 7.25008 11.25V11.25Z" fill="#292556"/>
<path d="M7.25008 15.25C7.66424 15.25 7.99999 15.5858 7.99999 16V16C7.99999 16.4142 7.66424 16.75 7.25008 16.75V16.75C6.83585 16.75 6.50008 16.414 6.50018 15.9998V15.9998C6.50028 15.5857 6.836 15.25 7.25008 15.25V15.25Z" fill="#292556"/>
<path d="M12.0001 11.25C12.4142 11.25 12.75 11.5858 12.75 12V12C12.75 12.4142 12.4142 12.75 12.0001 12.75V12.75C11.5859 12.75 11.2501 12.414 11.2502 11.9998V11.9998C11.2503 11.5857 11.586 11.25 12.0001 11.25V11.25Z" fill="#292556"/>
<path d="M16.7501 11.25C17.1642 11.25 17.5 11.5858 17.5 12V12C17.5 12.4142 17.1642 12.75 16.7501 12.75V12.75C16.3359 12.75 16.0001 12.414 16.0002 11.9998V11.9998C16.0003 11.5857 16.336 11.25 16.7501 11.25V11.25Z" fill="#292556"/>
<path d="M16.7501 15.25C17.1642 15.25 17.5 15.5858 17.5 16V16C17.5 16.4142 17.1642 16.75 16.7501 16.75V16.75C16.3359 16.75 16.0001 16.414 16.0002 15.9998V15.9998C16.0003 15.5857 16.336 15.25 16.7501 15.25V15.25Z" fill="#292556"/>
</svg>
