<svg width="24" height="24" viewBox="0 0 24 24" fill="none" xmlns="http://www.w3.org/2000/svg">
<path d="M8.87693 16.7231L5.80102 19.7991C5.05902 20.5411 3.85601 20.5411 3.11401 19.7991C2.37201 19.0571 2.37201 17.854 3.11401 17.112L6.18992 14.0361L8.87693 16.7231Z" fill="#292556"/>
<path d="M12.3709 18.4609L19.146 11.6858C21.8705 8.96123 21.8705 4.5438 19.146 1.81922C18.9416 1.61487 18.6103 1.61487 18.406 1.81922L6.18945 14.0357L9.58356 17.4298L10.6146 18.4609C10.9396 18.7859 11.1021 18.9484 11.2925 19.0011C11.4235 19.0374 11.562 19.0374 11.693 19.0011C11.8834 18.9484 12.0459 18.7859 12.3709 18.4609Z" fill="#292556" fill-opacity="0.18"/>
</svg>
