<svg width="24" height="24" viewBox="0 0 24 24" fill="none" xmlns="http://www.w3.org/2000/svg">
<path d="M6.37162 10.2586L6.10406 10.0397C3.95554 8.2818 2.88128 7.40286 2.9592 6.60431C2.98318 6.35865 3.0674 6.1227 3.20441 5.91739C3.64977 5.25 5.03778 5.25 7.8138 5.25H14V18.75H7.8138C5.03778 18.75 3.64977 18.75 3.20441 18.0826C3.0674 17.8773 2.98318 17.6413 2.9592 17.3957C2.88128 16.5971 3.95554 15.7182 6.10406 13.9603L6.37162 13.7414C7.24063 13.0304 7.67513 12.6749 7.75649 12.2201C7.78253 12.0745 7.78253 11.9255 7.75649 11.7799C7.67513 11.3251 7.24063 10.9696 6.37162 10.2586Z" fill="#292556" fill-opacity="0.18"/>
<path d="M19.7149 15.0399L17.8802 17.0425C17.2924 17.684 16.9986 18.0047 16.646 18.2319C16.3579 18.4176 16.0422 18.5565 15.7107 18.6435C15.305 18.75 14.87 18.75 14 18.75V5.25C14.87 5.25 15.305 5.25 15.7107 5.35649C16.0422 5.44351 16.3579 5.58242 16.646 5.76807C16.9986 5.99526 17.2924 6.31601 17.8802 6.95751L19.7149 8.96012C20.8843 10.2365 21.469 10.8747 21.5819 11.6305C21.6186 11.8755 21.6186 12.1245 21.5819 12.3695C21.469 13.1253 20.8843 13.7635 19.7149 15.0399Z" fill="#292556"/>
</svg>
