<svg width="24" height="24" viewBox="0 0 24 24" fill="none" xmlns="http://www.w3.org/2000/svg">
<path fill-rule="evenodd" clip-rule="evenodd" d="M6.02344 18.7413H13.4378C14.7592 18.7413 15.4199 18.7413 16.0219 18.5304C16.2208 18.4607 16.4135 18.3744 16.5979 18.2723C17.156 17.9634 17.5958 17.4704 18.4753 16.4842L18.4753 16.4842L19.811 14.9866C20.9352 13.7261 21.4973 13.0959 21.6061 12.3542C21.6414 12.1136 21.6414 11.8691 21.6061 11.6284C21.4973 10.8867 20.9352 10.2565 19.8111 8.99605L19.811 8.99604L17.9054 6.85937L6.02344 18.7413Z" fill="#292556"/>
<path d="M3 21L21 3" stroke="#292556" stroke-width="1.5" stroke-linecap="round" stroke-linejoin="round"/>
<path d="M15.2152 6.01799C15.5025 5.73037 15.6461 5.58656 15.6261 5.4608C15.6199 5.42184 15.6046 5.3849 15.5814 5.353C15.5066 5.25 15.3033 5.25 14.8968 5.25H9C6.1877 5.25 4.78155 5.25 3.79581 5.96619C3.47745 6.19748 3.19748 6.47745 2.96619 6.79581C2.25 7.78155 2.25 9.1877 2.25 12V14.5423C2.25 15.4961 2.50924 16.4321 3 17.25V17.25L3.47091 17.7775L15.2152 6.01799Z" fill="#292556" fill-opacity="0.18"/>
</svg>
