<svg width="24" height="24" viewBox="0 0 24 24" fill="none" xmlns="http://www.w3.org/2000/svg">
<path d="M9 18.75H13.4553C14.7767 18.75 15.4374 18.75 16.0394 18.5391C16.2383 18.4694 16.431 18.3831 16.6154 18.281C17.1735 17.9721 17.6133 17.479 18.4928 16.4929L19.8285 14.9953C20.9527 13.7348 21.5148 13.1046 21.6236 12.3629C21.6589 12.1222 21.6589 11.8778 21.6236 11.6371C21.5148 10.8954 20.9527 10.2652 19.8286 9.00475L19.8285 9.00473L18.4928 7.5071C17.6133 6.52095 17.1735 6.02788 16.6154 5.71898C16.431 5.61693 16.2383 5.53061 16.0394 5.46092C15.4374 5.25 14.7767 5.25 13.4553 5.25H9C6.1877 5.25 4.78155 5.25 3.79581 5.96619C3.47745 6.19748 3.19748 6.47745 2.96619 6.79581C2.25 7.78155 2.25 9.1877 2.25 12C2.25 14.8123 2.25 16.2184 2.96619 17.2042C3.19748 17.5225 3.47745 17.8025 3.79581 18.0338C4.78155 18.75 6.1877 18.75 9 18.75Z" fill="#292556" fill-opacity="0.18"/>
<path d="M12 10.5H7M15 13.5H7" stroke="#292556" stroke-width="1.5" stroke-linecap="round" stroke-linejoin="round"/>
</svg>
