<svg width="24" height="24" viewBox="0 0 24 24" fill="none" xmlns="http://www.w3.org/2000/svg">
<path d="M15.25 2.25H8.75C7.11999 2.25 6.30498 2.25 5.65612 2.49907C4.66393 2.87994 3.87994 3.66393 3.49907 4.65612C3.25 5.30498 3.25 6.11999 3.25 7.75C3.25 9.38001 3.25 10.195 3.49907 10.8439C3.87994 11.8361 4.66393 12.6201 5.65612 13.0009C6.30498 13.25 7.11999 13.25 8.75 13.25H15.25C16.88 13.25 17.695 13.25 18.3439 13.0009C19.3361 12.6201 20.1201 11.8361 20.5009 10.8439C20.75 10.195 20.75 9.38001 20.75 7.75C20.75 6.11999 20.75 5.30498 20.5009 4.65612C20.1201 3.66393 19.3361 2.87994 18.3439 2.49907C17.695 2.25 16.88 2.25 15.25 2.25Z" fill="#292556" fill-opacity="0.18"/>
<path d="M4.15781 15.9687C3.63265 18.0669 3.37007 19.116 3.89778 20.1267C4.05033 20.4189 4.31814 20.762 4.56455 20.981C5.41693 21.7383 6.71553 21.7383 9.31274 21.7383H14.6873C17.2845 21.7383 18.5831 21.7383 19.4354 20.981C19.6819 20.762 19.9497 20.4189 20.1022 20.1267C20.6299 19.116 20.3673 18.0669 19.8422 15.9687C19.8187 15.875 19.7943 15.7844 19.7689 15.697C19.6737 15.3697 19.6261 15.206 19.4375 15.0222C19.3875 14.9735 19.2928 14.9024 19.2321 14.868C19.0028 14.7383 18.7817 14.7383 18.3394 14.7383H5.66058C5.2183 14.7383 4.99716 14.7383 4.76794 14.868C4.70717 14.9024 4.61254 14.9735 4.56253 15.0222C4.37392 15.206 4.32631 15.3697 4.23109 15.697C4.20566 15.7844 4.18127 15.875 4.15781 15.9687Z" fill="#292556" fill-opacity="0.18"/>
<path d="M8 19.4902C8 19.9045 7.66421 20.2402 7.25 20.2402C6.83579 20.2402 6.5 19.9045 6.5 19.4902C6.5 19.076 6.83579 18.7402 7.25 18.7402C7.66421 18.7402 8 19.076 8 19.4902Z" fill="#292556"/>
<path d="M12.75 16.9902C12.75 17.4045 12.4142 17.7402 12 17.7402C11.5858 17.7402 11.25 17.4045 11.25 16.9902C11.25 16.576 11.5858 16.2402 12 16.2402C12.4142 16.2402 12.75 16.576 12.75 16.9902Z" fill="#292556"/>
<path d="M10.2502 19.4901C10.2501 19.9044 10.5859 20.2402 11.0002 20.2402H13C13.4142 20.2402 13.75 19.9045 13.75 19.4902V19.4902C13.75 19.076 13.4142 18.7402 13 18.7402H11.0002C10.586 18.7402 10.2503 19.0759 10.2502 19.4901V19.4901Z" fill="#292556"/>
<path d="M17.5 16.9902C17.5 17.4045 17.1642 17.7402 16.75 17.7402C16.3358 17.7402 16 17.4045 16 16.9902C16 16.576 16.3358 16.2402 16.75 16.2402C17.1642 16.2402 17.5 16.576 17.5 16.9902Z" fill="#292556"/>
<path d="M17.5 19.4902C17.5 19.9045 17.1642 20.2402 16.75 20.2402C16.3358 20.2402 16 19.9045 16 19.4902C16 19.076 16.3358 18.7402 16.75 18.7402C17.1642 18.7402 17.5 19.076 17.5 19.4902Z" fill="#292556"/>
<path d="M7.2501 20.2403C7.66426 20.2403 8 19.9044 8 19.4903V19.4903C8 19.0761 7.66425 18.7402 7.25009 18.7402V18.7402C6.836 18.7402 6.50028 19.076 6.50018 19.4901V19.4901C6.50008 19.9043 6.83586 20.2403 7.2501 20.2403V20.2403Z" fill="#292556"/>
<path d="M12.0001 17.7403C12.4143 17.7403 12.75 17.4044 12.75 16.9903V16.9903C12.75 16.5761 12.4143 16.2402 12.0001 16.2402V16.2402C11.586 16.2402 11.2503 16.576 11.2502 16.9901V16.9901C11.2501 17.4043 11.5859 17.7403 12.0001 17.7403V17.7403Z" fill="#292556"/>
<path d="M16.7501 17.7403C17.1643 17.7403 17.5 17.4044 17.5 16.9903V16.9903C17.5 16.5761 17.1643 16.2402 16.7501 16.2402V16.2402C16.336 16.2402 16.0003 16.576 16.0002 16.9901V16.9901C16.0001 17.4043 16.3359 17.7403 16.7501 17.7403V17.7403Z" fill="#292556"/>
<path d="M16.7501 20.2403C17.1643 20.2403 17.5 19.9044 17.5 19.4903V19.4903C17.5 19.0761 17.1643 18.7402 16.7501 18.7402V18.7402C16.336 18.7402 16.0003 19.076 16.0002 19.4901V19.4901C16.0001 19.9043 16.3359 20.2403 16.7501 20.2403V20.2403Z" fill="#292556"/>
<path d="M7.25009 16.2402C7.66425 16.2402 8 16.5761 8 16.9902V16.9902C8 17.4044 7.66425 17.7402 7.25009 17.7402V17.7402C6.83586 17.7402 6.50008 17.4043 6.50018 16.9901V16.9901C6.50028 16.576 6.836 16.2402 7.25009 16.2402V16.2402Z" fill="#292556"/>
</svg>
