<svg width="24" height="24" viewBox="0 0 24 24" fill="none" xmlns="http://www.w3.org/2000/svg">
<path d="M5.13273 10.7715C4.77964 10.5922 4.36224 10.5922 4.00915 10.7715V10.7715C3.1031 11.2313 3.1031 12.5255 4.00915 12.9853L10.9813 16.5238C11.4242 16.7486 11.6457 16.861 11.8823 16.8833C11.9603 16.8907 12.0388 16.8907 12.1168 16.8833C12.3534 16.861 12.5749 16.7486 13.0178 16.5238L19.9899 12.9853C20.896 12.5255 20.896 11.2313 19.9899 10.7715V10.7715C19.6369 10.5922 19.2195 10.5922 18.8664 10.7715L13.0178 13.7397C12.5749 13.9645 12.3534 14.077 12.1168 14.0992C12.0388 14.1066 11.9603 14.1066 11.8823 14.0992C11.6457 14.077 11.4242 13.9645 10.9813 13.7397L5.13273 10.7715Z" fill="#292556"/>
<path d="M19.9899 15.2377C19.6369 15.0585 19.2195 15.0585 18.8664 15.2377L13.0178 18.2059C12.5749 18.4308 12.3534 18.5432 12.1168 18.5655C12.0388 18.5728 11.9603 18.5728 11.8823 18.5655C11.6457 18.5432 11.4242 18.4308 10.9813 18.2059L5.13273 15.2377C4.77964 15.0585 4.36224 15.0585 4.00915 15.2377V15.2377C3.1031 15.6975 3.1031 16.9917 4.00915 17.4515L10.9813 20.99C11.4242 21.2149 11.6457 21.3273 11.8823 21.3496C11.9603 21.3569 12.0388 21.3569 12.1168 21.3496C12.3534 21.3273 12.5749 21.2149 13.0178 20.99L19.9899 17.4515C20.896 16.9917 20.896 15.6975 19.9899 15.2377V15.2377Z" fill="#292556"/>
<path d="M5.7814 9.41863C4.2598 8.64639 3.49901 8.26026 3.3703 7.68532C3.33004 7.5055 3.33004 7.319 3.3703 7.13918C3.49901 6.56424 4.2598 6.17811 5.7814 5.40586L10.9813 2.76681C11.4242 2.54198 11.6457 2.42957 11.8823 2.40728C11.9603 2.39994 12.0388 2.39994 12.1168 2.40728C12.3534 2.42957 12.5749 2.54198 13.0178 2.76681L18.2177 5.40586C19.7393 6.17811 20.5001 6.56424 20.6288 7.13918C20.669 7.319 20.669 7.5055 20.6288 7.68532C20.5001 8.26026 19.7393 8.64639 18.2177 9.41863L13.0178 12.0577C12.5749 12.2825 12.3534 12.3949 12.1168 12.4172C12.0388 12.4246 11.9603 12.4246 11.8823 12.4172C11.6457 12.3949 11.4242 12.2825 10.9813 12.0577L5.7814 9.41863Z" fill="#292556" fill-opacity="0.18"/>
</svg>
