<svg width="24" height="24" viewBox="0 0 24 24" fill="none" xmlns="http://www.w3.org/2000/svg">
<path d="M10.8 2.25L11.25 2.25V21.75H10.8C7.23775 21.75 5.45663 21.75 4.20802 20.8428C3.80477 20.5499 3.45015 20.1952 3.15717 19.792C2.25 18.5434 2.25 16.7622 2.25 13.2V10.8C2.25 7.23776 2.25 5.45663 3.15717 4.20802C3.45015 3.80477 3.80477 3.45015 4.20802 3.15717C5.45663 2.25 7.23775 2.25 10.8 2.25Z" fill="#292556" fill-opacity="0.18"/>
<path d="M13.1999 21.75H12.75V10.75H21.7499V13.2C21.7499 16.7622 21.7499 18.5434 20.8428 19.792C20.5498 20.1952 20.1952 20.5499 19.7919 20.8428C18.5433 21.75 16.7622 21.75 13.1999 21.75Z" fill="#292556" fill-opacity="0.18"/>
<path d="M12.75 2.25L14.7499 2.25C16.8459 2.25 17.8938 2.25 18.7266 2.57494C19.9637 3.05767 20.9423 4.03622 21.425 5.27334C21.7499 6.10609 21.7499 7.15406 21.7499 9.25H12.75V2.25Z" fill="#292556"/>
</svg>
