<svg width="24" height="24" viewBox="0 0 24 24" fill="none" xmlns="http://www.w3.org/2000/svg">
<path d="M19.7286 14.4359C22.5365 11.628 22.5365 7.07556 19.7286 4.26769V4.26769C16.9208 1.45982 12.3683 1.45982 9.56043 4.26769L5.77034 8.05778C2.96247 10.8657 2.96247 15.4181 5.77034 18.226V18.226C8.57821 21.0338 13.1307 21.0338 15.9385 18.226L19.7286 14.4359Z" fill="#292556" fill-opacity="0.18"/>
<path d="M13.3407 10.7025H16.3752M13.3407 10.7025V7.66797M13.3407 10.7025L9.73729 14.3059M9.73729 14.3059H14.289M9.73729 14.3059V9.75417M9.73729 14.3059L6.3235 17.7197C4.98741 19.0558 4.2396 19.8036 4.08008 20.9992" stroke="#292556" stroke-width="1.5" stroke-linecap="round" stroke-linejoin="round"/>
</svg>
