<svg width="24" height="24" viewBox="0 0 24 24" fill="none" xmlns="http://www.w3.org/2000/svg">
<path d="M20.7504 3.50191V3.50191C20.7504 3.07204 20.3898 2.73013 19.9606 2.75299V2.75299C15.0644 3.01364 11.3434 4.24713 9.38283 6.37752C8.3816 7.46545 7.85242 8.77697 7.87678 10.2484C7.90084 11.7018 8.46294 13.2481 9.52229 14.8418V14.8418C9.60554 14.9671 9.72452 15.0644 9.86378 15.1212V15.1212C12.5838 16.23 15.4285 16.7557 17.5712 15.0063C18.6237 14.147 19.4133 12.8048 19.9413 10.9382C20.4692 9.07189 20.7505 6.63087 20.7504 3.50191Z" fill="#292556" fill-opacity="0.18"/>
<path d="M13.8067 10.7109C9.67757 12.2564 8.64528 18.4382 9.16142 20.4988C9.16142 20.4988 6.58071 13.2867 4 13.2867" stroke="#292556" stroke-width="1.5" stroke-linecap="round" stroke-linejoin="round"/>
</svg>
