<svg width="24" height="24" viewBox="0 0 24 24" fill="none" xmlns="http://www.w3.org/2000/svg">
<path d="M8.5 18.75C8.5 18.517 8.5 18.4005 8.53806 18.3087C8.5888 18.1861 8.68614 18.0888 8.80866 18.0381C8.90054 18 9.01703 18 9.25 18H14.75C14.983 18 15.0995 18 15.1913 18.0381C15.3139 18.0888 15.4112 18.1861 15.4619 18.3087C15.5 18.4005 15.5 18.517 15.5 18.75V18.75C15.5 19.6819 15.5 20.1478 15.3478 20.5154C15.1448 21.0054 14.7554 21.3948 14.2654 21.5978C13.8978 21.75 13.4319 21.75 12.5 21.75H11.5C10.5681 21.75 10.1022 21.75 9.73463 21.5978C9.24457 21.3948 8.85523 21.0054 8.65224 20.5154C8.5 20.1478 8.5 19.6819 8.5 18.75V18.75Z" fill="#292556" fill-opacity="0.18"/>
<path d="M17.2527 12.938C20.6184 8.57623 17.5093 2.25 12 2.25V2.25C6.49069 2.25 3.38158 8.57623 6.74727 12.938L8.16605 14.7766C8.37608 15.0488 8.49 15.3829 8.49 15.7267V15.9485C8.49 15.9963 8.49 16.0202 8.49163 16.0404C8.51142 16.2847 8.70535 16.4786 8.94963 16.4984C8.96978 16.5 8.99367 16.5 9.04146 16.5H14.9585C15.0063 16.5 15.0302 16.5 15.0504 16.4984C15.2946 16.4786 15.4886 16.2847 15.5084 16.0404C15.51 16.0202 15.51 15.9963 15.51 15.9485V15.7267C15.51 15.3829 15.6239 15.0488 15.834 14.7766L17.2527 12.938Z" fill="#292556" fill-opacity="0.18"/>
<path fill-rule="evenodd" clip-rule="evenodd" d="M10.1934 6.38913V6.38913C10.8316 5.67847 11.1507 5.32314 11.5291 5.1979C11.8351 5.09663 12.1656 5.09663 12.4716 5.1979C12.8501 5.32314 13.1692 5.67847 13.8074 6.38913V6.38913V6.38913C14.7341 6.57793 15.1974 6.67233 15.4916 6.92262C15.7552 7.14692 15.9331 7.45548 15.9952 7.796C16.0645 8.17596 15.9165 8.61713 15.6205 9.49945V9.49945V9.49945C15.9165 10.3818 16.0645 10.8229 15.9952 11.2029C15.9331 11.5434 15.7552 11.852 15.4916 12.0763C15.1974 12.3266 14.7341 12.421 13.8074 12.6098V12.6098V12.6098C13.1692 13.3204 12.8501 13.6758 12.4716 13.801C12.1656 13.9023 11.8351 13.9023 11.5291 13.801C11.1507 13.6758 10.8316 13.3204 10.1934 12.6098V12.6098V12.6098C9.26666 12.421 8.8033 12.3266 8.50914 12.0763C8.24553 11.852 8.0676 11.5434 8.00552 11.2029C7.93625 10.8229 8.08425 10.3818 8.38026 9.49945V9.49945V9.49945C8.08425 8.61713 7.93625 8.17596 8.00552 7.796C8.0676 7.45549 8.24553 7.14692 8.50914 6.92262C8.8033 6.67233 9.26666 6.57793 10.1934 6.38913V6.38913ZM12.0005 10.4995C12.5528 10.4995 13.0005 10.0518 13.0005 9.49951C13.0005 8.94723 12.5528 8.49951 12.0005 8.49951C11.4482 8.49951 11.0005 8.94723 11.0005 9.49951C11.0005 10.0518 11.4482 10.4995 12.0005 10.4995Z" fill="#292556"/>
</svg>
