<svg width="24" height="24" viewBox="0 0 24 24" fill="none" xmlns="http://www.w3.org/2000/svg">
<path d="M8.5 18.75C8.5 18.517 8.5 18.4005 8.53806 18.3087C8.5888 18.1861 8.68614 18.0888 8.80866 18.0381C8.90054 18 9.01703 18 9.25 18H14.75C14.983 18 15.0995 18 15.1913 18.0381C15.3139 18.0888 15.4112 18.1861 15.4619 18.3087C15.5 18.4005 15.5 18.517 15.5 18.75V18.75C15.5 19.6819 15.5 20.1478 15.3478 20.5154C15.1448 21.0054 14.7554 21.3948 14.2654 21.5978C13.8978 21.75 13.4319 21.75 12.5 21.75H11.5C10.5681 21.75 10.1022 21.75 9.73463 21.5978C9.24457 21.3948 8.85523 21.0054 8.65224 20.5154C8.5 20.1478 8.5 19.6819 8.5 18.75V18.75Z" fill="#292556" fill-opacity="0.18"/>
<path d="M17.2527 12.938C20.6184 8.57623 17.5093 2.25 12 2.25V2.25C6.49069 2.25 3.38158 8.57623 6.74727 12.938L8.16605 14.7766C8.37608 15.0488 8.49 15.3829 8.49 15.7267V15.9485C8.49 15.9963 8.49 16.0202 8.49163 16.0404C8.51142 16.2847 8.70535 16.4786 8.94963 16.4984C8.96978 16.5 8.99367 16.5 9.04146 16.5H14.9585C15.0063 16.5 15.0302 16.5 15.0504 16.4984C15.2946 16.4786 15.4886 16.2847 15.5084 16.0404C15.51 16.0202 15.51 15.9963 15.51 15.9485V15.7267C15.51 15.3829 15.6239 15.0488 15.834 14.7766L17.2527 12.938Z" fill="#292556" fill-opacity="0.18"/>
<path d="M12.7778 13.75C14.0308 13.75 15.0503 12.7505 15.0825 11.5053C15.7797 11.1089 16.25 10.3599 16.25 9.5C16.25 8.6401 15.7797 7.8911 15.0825 7.4947C15.0503 6.24951 14.0308 5.25 12.7778 5.25V13.75Z" fill="#292556"/>
<path d="M11.2222 5.25C9.96925 5.25 8.94972 6.24951 8.91745 7.4947C8.22031 7.8911 7.75 8.6401 7.75 9.5C7.75 10.3599 8.22031 11.1089 8.91746 11.5053C8.94972 12.7505 9.96925 13.75 11.2222 13.75V5.25Z" fill="#292556"/>
</svg>
