<svg width="24" height="24" viewBox="0 0 24 24" fill="none" xmlns="http://www.w3.org/2000/svg">
<path d="M2 9.75C2 7.12665 4.12665 5 6.75 5H10.75C13.3734 5 15.5 7.12665 15.5 9.75V9.75C15.5 12.3734 13.3734 14.5 10.75 14.5H6.75C4.12665 14.5 2 12.3734 2 9.75V9.75Z" fill="#292556"/>
<path d="M10.3006 16C10.7209 16 10.931 16 11.1082 15.9899C14.2988 15.8086 16.8387 13.2496 16.996 10.0577C17.0047 9.88043 17.0032 9.67029 17 9.25V9.25V9.25C19.6234 9.25 21.75 11.3766 21.75 14V14C21.75 16.6234 19.6234 18.75 17 18.75H11.4492C9.93044 18.75 8.69922 17.5188 8.69922 16V16H10.3006Z" fill="#292556" fill-opacity="0.18"/>
</svg>
