<svg width="24" height="24" viewBox="0 0 24 24" fill="none" xmlns="http://www.w3.org/2000/svg">
<path d="M9.17177 14.8286L14.8286 9.17177M6.34334 10.586L4.57557 12.3537C2.62295 14.3064 2.62295 17.4722 4.57557 19.4248V19.4248C6.52819 21.3774 9.69402 21.3774 11.6466 19.4248L13.4144 17.657M10.586 6.34334L12.3537 4.57558C14.3064 2.62295 17.4722 2.62295 19.4248 4.57558V4.57558C21.3774 6.5282 21.3774 9.69402 19.4248 11.6466L17.657 13.4144" stroke="#292556" stroke-opacity="0.18" stroke-width="1.5" stroke-linecap="round" stroke-linejoin="round"/>
<path d="M4.57535 8.81799H3.16113M8.81799 4.57535L8.81799 3.16113M6.34298 6.34325L5.98956 5.98956M15.1819 19.4246V20.8388M19.4246 15.1819L20.8388 15.1819M17.6567 17.6569L18.0103 18.0103" stroke="#292556" stroke-width="1.5" stroke-linecap="round" stroke-linejoin="round"/>
</svg>
