<svg width="24" height="24" viewBox="0 0 24 24" fill="none" xmlns="http://www.w3.org/2000/svg">
<path d="M9.62305 14.3772L21.0003 3M21.0003 3L16.7338 3M21.0003 3V7.26646" stroke="#292556" stroke-width="1.5" stroke-linecap="round" stroke-linejoin="round"/>
<path d="M13 5H10.2C7.20021 5 5.70032 5 4.64886 5.76393C4.30928 6.01065 4.01065 6.30928 3.76393 6.64886C3 7.70032 3 9.20021 3 12.2L3 13.8C3 16.7998 3 18.2997 3.76393 19.3511C4.01065 19.6907 4.30928 19.9893 4.64886 20.2361C5.70032 21 7.20021 21 10.2 21H11.8C14.7998 21 16.2997 21 17.3511 20.2361C17.6907 19.9893 17.9893 19.6907 18.2361 19.3511C19 18.2997 19 16.7998 19 13.8V11" stroke="#292556" stroke-opacity="0.18" stroke-width="1.5" stroke-linecap="round" stroke-linejoin="round"/>
</svg>
