<svg width="24" height="24" viewBox="0 0 24 24" fill="none" xmlns="http://www.w3.org/2000/svg">
<path d="M14.1327 10.6757V10.6757C12.3474 8.89048 9.45298 8.89048 7.66773 10.6757L4.22198 14.1215C2.65988 15.6836 2.65988 18.2162 4.22198 19.7783V19.7783C5.78408 21.3404 8.31674 21.3404 9.87883 19.7783L11.3716 18.2855M9.86761 13.3246V13.3246C11.6529 15.1098 14.5473 15.1098 16.3326 13.3246L19.7783 9.87884C21.3404 8.31674 21.3404 5.78408 19.7783 4.22198V4.22198C18.2162 2.65989 15.6836 2.65988 14.1215 4.22198L12.6287 5.71476" stroke="#292556" stroke-opacity="0.18" stroke-width="1.5" stroke-linecap="round" stroke-linejoin="round"/>
<path d="M4.57632 8.81799H3.16211M8.81896 4.57535L8.81896 3.16113M6.34395 6.34325L5.99054 5.98956M15.1829 19.4246V20.8388M19.4255 15.1819L20.8397 15.1819M17.6576 17.6569L18.0113 18.0103" stroke="#292556" stroke-width="1.5" stroke-linecap="round" stroke-linejoin="round"/>
</svg>
