<svg width="24" height="24" viewBox="0 0 24 24" fill="none" xmlns="http://www.w3.org/2000/svg">
<path d="M11.3726 18.2855L9.87981 19.7783C8.31771 21.3404 5.78505 21.3404 4.22296 19.7783V19.7783C2.66086 18.2162 2.66086 15.6836 4.22296 14.1215L6.14786 12.1966M12.6297 5.71476L14.1225 4.22198C15.6846 2.65988 18.2172 2.65989 19.7793 4.22198V4.22198C21.3414 5.78408 21.3414 8.31674 19.7793 9.87884L17.8544 11.8037" stroke="#292556" stroke-opacity="0.18" stroke-width="1.5" stroke-linecap="round" stroke-linejoin="round"/>
<path d="M14.1323 10.6758L14.1149 10.6584V10.6584C12.3392 8.88279 9.46039 8.88278 7.68476 10.6584L6.14648 12.1967M9.86721 13.3247L9.88837 13.3458V13.3458C11.6619 15.1194 14.5375 15.1194 16.311 13.3458L17.853 11.8039" stroke="#292556" stroke-width="1.5" stroke-linecap="round" stroke-linejoin="round"/>
</svg>
