<svg width="24" height="24" viewBox="0 0 24 24" fill="none" xmlns="http://www.w3.org/2000/svg">
<path d="M7 13.877C5.17108 14.61 4 15.7364 4 16.9996C4 19.2088 7.58172 20.9996 12 20.9996C16.4183 20.9996 20 19.2088 20 16.9996C20 15.7364 18.8289 14.61 17 13.877" stroke="#292556" stroke-width="1.5" stroke-linecap="round" stroke-linejoin="round"/>
<path fill-rule="evenodd" clip-rule="evenodd" d="M12.75 11.6911C15.017 11.3315 16.75 9.36815 16.75 7C16.75 4.37665 14.6234 2.25 12 2.25C9.37665 2.25 7.25 4.37665 7.25 7C7.25 9.36815 8.98301 11.3315 11.25 11.6911V17C11.25 17.4142 11.5858 17.75 12 17.75C12.4142 17.75 12.75 17.4142 12.75 17V11.6911Z" fill="#292556" fill-opacity="0.18"/>
</svg>
