<svg width="24" height="24" viewBox="0 0 24 24" fill="none" xmlns="http://www.w3.org/2000/svg">
<path fill-rule="evenodd" clip-rule="evenodd" d="M7.85986 7.2573C8.31189 5.24964 10.1058 3.75 12.25 3.75H14C14.4142 3.75 14.75 3.41421 14.75 3C14.75 2.58579 14.4142 2.25 14 2.25H12.25C9.246 2.25 6.75762 4.45762 6.31872 7.33899C5.82478 7.39688 5.426 7.49241 5.06656 7.65008C3.97507 8.12885 3.10346 9.00046 2.62469 10.0919C2.22461 11.004 2.22461 12.1694 2.22461 14.5C2.22461 16.8306 2.22461 17.996 2.62469 18.9081C3.10346 19.9995 3.97507 20.8712 5.06656 21.3499C5.97864 21.75 7.14396 21.75 9.47461 21.75H14.4746C16.8053 21.75 17.9706 21.75 18.8827 21.3499C19.9742 20.8712 20.8458 19.9995 21.3245 18.9081C21.7246 17.996 21.7246 16.8306 21.7246 14.5C21.7246 12.1694 21.7246 11.004 21.3245 10.0919C20.8458 9.00046 19.9742 8.12885 18.8827 7.65008C17.9706 7.25 16.8053 7.25 14.4746 7.25H9.47461C8.86117 7.25 8.32847 7.25 7.85986 7.2573Z" fill="#292556" fill-opacity="0.18"/>
<path d="M14.75 14.5C14.75 16.0188 13.5188 17.25 12 17.25C10.4812 17.25 9.25 16.0188 9.25 14.5C9.25 12.9812 10.4812 11.75 12 11.75C13.5188 11.75 14.75 12.9812 14.75 14.5Z" fill="#292556"/>
</svg>
