<svg width="24" height="24" viewBox="0 0 24 24" fill="none" xmlns="http://www.w3.org/2000/svg">
<path fill-rule="evenodd" clip-rule="evenodd" d="M7.81447 7.25846C8.30005 7.25 8.85546 7.25 9.5 7.25H14.5C15.1445 7.25 15.7 7.25 16.1855 7.25846C15.8347 5.26478 14.0943 3.75 12 3.75C9.90574 3.75 8.16527 5.26478 7.81447 7.25846ZM17.7132 7.34593C18.1808 7.40442 18.5626 7.49855 18.9081 7.65008C19.9995 8.12885 20.8712 9.00046 21.3499 10.0919C21.75 11.004 21.75 12.1694 21.75 14.5C21.75 16.8306 21.75 17.996 21.3499 18.9081C20.8712 19.9995 19.9995 20.8712 18.9081 21.3499C17.996 21.75 16.8306 21.75 14.5 21.75H9.5C7.16935 21.75 6.00403 21.75 5.09195 21.3499C4.00046 20.8712 3.12885 19.9995 2.65008 18.9081C2.25 17.996 2.25 16.8306 2.25 14.5C2.25 12.1694 2.25 11.004 2.65008 10.0919C3.12885 9.00046 4.00046 8.12885 5.09195 7.65008C5.43739 7.49855 5.81915 7.40442 6.28679 7.34593C6.61149 4.47828 9.04552 2.25 12 2.25C14.9545 2.25 17.3885 4.47828 17.7132 7.34593Z" fill="#292556" fill-opacity="0.18"/>
<path d="M12 12.5V16.5" stroke="#292556" stroke-width="1.5" stroke-linecap="round" stroke-linejoin="round"/>
</svg>
