<svg width="24" height="24" viewBox="0 0 24 24" fill="none" xmlns="http://www.w3.org/2000/svg">
<path fill-rule="evenodd" clip-rule="evenodd" d="M7.85977 7.2577C8.31165 5.24984 10.1057 3.75 12.25 3.75H14C14.4142 3.75 14.75 3.41421 14.75 3C14.75 2.58579 14.4142 2.25 14 2.25H12.25C9.24493 2.25 6.75585 4.45919 6.31825 7.34207C5.83622 7.40024 5.4451 7.49517 5.09195 7.65008C4.00046 8.12885 3.12885 9.00046 2.65008 10.0919C2.25 11.004 2.25 12.1694 2.25 14.5C2.25 16.8306 2.25 17.996 2.65008 18.9081C3.12885 19.9995 4.00046 20.8712 5.09195 21.3499C6.00403 21.75 7.16935 21.75 9.5 21.75H14.5C16.8306 21.75 17.996 21.75 18.9081 21.3499C19.9995 20.8712 20.8712 19.9995 21.3499 18.9081C21.75 17.996 21.75 16.8306 21.75 14.5C21.75 12.1694 21.75 11.004 21.3499 10.0919C20.8712 9.00046 19.9995 8.12885 18.9081 7.65008C17.996 7.25 16.8306 7.25 14.5 7.25H9.5C8.87542 7.25 8.33453 7.25 7.85977 7.2577Z" fill="#292556" fill-opacity="0.18"/>
<path d="M12 12.5V16.5" stroke="#292556" stroke-width="1.5" stroke-linecap="round" stroke-linejoin="round"/>
</svg>
