<svg width="24" height="24" viewBox="0 0 24 24" fill="none" xmlns="http://www.w3.org/2000/svg">
<path fill-rule="evenodd" clip-rule="evenodd" d="M7.81455 7.25803C8.29406 7.25 8.84131 7.25 9.47461 7.25H14.4746C15.1304 7.25 15.694 7.25 16.1856 7.25891C15.835 5.26501 14.0944 3.75 12 3.75C9.90589 3.75 8.16553 5.26456 7.81455 7.25803ZM17.7136 7.3492C18.1695 7.40791 18.5436 7.50134 18.8827 7.65008C19.9742 8.12885 20.8458 9.00046 21.3245 10.0919C21.7246 11.004 21.7246 12.1694 21.7246 14.5C21.7246 16.8306 21.7246 17.996 21.3245 18.9081C20.8458 19.9995 19.9742 20.8712 18.8827 21.3499C17.9706 21.75 16.8053 21.75 14.4746 21.75H9.47461C7.14396 21.75 5.97864 21.75 5.06656 21.3499C3.97507 20.8712 3.10346 19.9995 2.62469 18.9081C2.22461 17.996 2.22461 16.8306 2.22461 14.5C2.22461 12.1694 2.22461 11.004 2.62469 10.0919C3.10346 9.00046 3.97507 8.12885 5.06656 7.65008C5.41832 7.49578 5.80774 7.40099 6.28715 7.34276C6.61328 4.47663 9.04661 2.25 12 2.25C14.9556 2.25 17.3904 4.47997 17.7136 7.3492Z" fill="#292556" fill-opacity="0.18"/>
<path d="M14.75 14.5C14.75 16.0188 13.5188 17.25 12 17.25C10.4812 17.25 9.25 16.0188 9.25 14.5C9.25 12.9812 10.4812 11.75 12 11.75C13.5188 11.75 14.75 12.9812 14.75 14.5Z" fill="#292556"/>
</svg>
