<svg width="24" height="24" viewBox="0 0 24 24" fill="none" xmlns="http://www.w3.org/2000/svg">
<path d="M13.7686 7.05015L17.1281 3.6906C17.2923 3.52643 17.3744 3.44435 17.4503 3.38202C18.1879 2.77671 19.2503 2.77671 19.9879 3.38202C20.0638 3.44435 20.1459 3.52643 20.3101 3.6906V3.6906C20.4743 3.85477 20.5563 3.93685 20.6187 4.0128C21.224 4.75037 21.224 5.81281 20.6187 6.55038C20.5563 6.62633 20.4743 6.70841 20.3101 6.87258L16.9505 10.2321L13.7686 7.05015Z" fill="#292556"/>
<path d="M12.7083 8.11073L3.69353 17.1255C3.52936 17.2897 3.44728 17.3718 3.38495 17.4478C2.77964 18.1853 2.77964 19.2478 3.38495 19.9853C3.44728 20.0613 3.52936 20.1434 3.69353 20.3075V20.3075C3.8577 20.4717 3.93978 20.5538 4.01573 20.6161C4.7533 21.2214 5.81574 21.2214 6.55331 20.6161C6.62926 20.5538 6.71134 20.4717 6.87551 20.3075L15.8903 11.2927L12.7083 8.11073Z" fill="#292556" fill-opacity="0.18"/>
<path d="M17.4777 14.8181C17.3942 14.4842 17.0942 14.25 16.7501 14.25C16.4059 14.25 16.1059 14.4842 16.0225 14.8181C15.9187 15.2333 15.7818 15.4701 15.626 15.6259C15.4702 15.7817 15.2334 15.9186 14.8182 16.0224C14.4843 16.1059 14.2501 16.4058 14.2501 16.75C14.2501 17.0942 14.4843 17.3941 14.8182 17.4776C15.2334 17.5814 15.4702 17.7183 15.626 17.8741C15.7818 18.0299 15.9187 18.2667 16.0225 18.6819C16.1059 19.0158 16.4059 19.25 16.7501 19.25C17.0942 19.25 17.3942 19.0158 17.4777 18.6819C17.5815 18.2667 17.7184 18.0299 17.8742 17.8741C18.0299 17.7183 18.2667 17.5814 18.682 17.4776C19.0159 17.3941 19.2501 17.0942 19.2501 16.75C19.2501 16.4058 19.0159 16.1059 18.682 16.0224C18.2667 15.9186 18.0299 15.7817 17.8742 15.6259C17.7184 15.4701 17.5815 15.2333 17.4777 14.8181Z" fill="#292556" fill-opacity="0.18"/>
<path d="M7.22769 2.8181C7.14422 2.48422 6.84423 2.25 6.50008 2.25C6.15593 2.25 5.85594 2.48422 5.77247 2.8181C5.54367 3.73333 5.21929 4.34514 4.78225 4.78217C4.34522 5.2192 3.73342 5.54358 2.81818 5.77239C2.4843 5.85586 2.25008 6.15585 2.25008 6.5C2.25008 6.84415 2.4843 7.14414 2.81818 7.22761C3.73342 7.45642 4.34522 7.7808 4.78225 8.21783C5.21929 8.65486 5.54367 9.26667 5.77247 10.1819C5.85594 10.5158 6.15593 10.75 6.50008 10.75C6.84423 10.75 7.14422 10.5158 7.22769 10.1819C7.4565 9.26667 7.78088 8.65486 8.21791 8.21783C8.65495 7.7808 9.26675 7.45642 10.182 7.22761C10.5159 7.14414 10.7501 6.84415 10.7501 6.5C10.7501 6.15585 10.5159 5.85586 10.182 5.77239C9.26675 5.54358 8.65495 5.2192 8.21791 4.78217C7.78088 4.34514 7.4565 3.73333 7.22769 2.8181Z" fill="#292556" fill-opacity="0.18"/>
</svg>
