<svg width="24" height="24" viewBox="0 0 24 24" fill="none" xmlns="http://www.w3.org/2000/svg">
<path fill-rule="evenodd" clip-rule="evenodd" d="M12.2796 10.6509L3.47944 19.4511C3.18654 19.744 3.18654 20.2189 3.47944 20.5118C3.77233 20.8047 4.2472 20.8047 4.5401 20.5118L13.3405 11.7114C13.3079 11.5558 13.2741 11.3941 13.239 11.2259L13.1573 10.8343L12.7656 10.7525C12.5973 10.7174 12.4353 10.6836 12.2796 10.6509Z" fill="#292556" fill-opacity="0.18"/>
<path d="M15.8506 4.71687C14.2024 3.06865 13.3783 2.24454 12.7874 2.30487C12.4567 2.33863 12.153 2.50277 11.9436 2.76097C11.5694 3.22224 11.8074 4.36315 12.2834 6.64496V6.64496V6.64496C10.2259 7.61204 9.19717 8.09558 9.07127 8.70915C9.01733 8.972 9.04941 9.24522 9.16275 9.48842C9.42733 10.0562 10.5401 10.2883 12.7656 10.7525L13.1573 10.8343L13.239 11.2259C13.7033 13.4515 13.9354 14.5642 14.5032 14.8288C14.7464 14.9422 15.0196 14.9742 15.2824 14.9203C15.896 14.7944 16.3795 13.7657 17.3466 11.7082V11.7082V11.7082C19.6284 12.1842 20.7693 12.4222 21.2306 12.048C21.4888 11.8386 21.6529 11.5349 21.6867 11.2042C21.747 10.6133 20.9229 9.7892 19.2747 8.14099L19.1037 7.96995L19.1823 7.80266C20.158 5.72694 20.6458 4.68908 20.3028 4.11749C20.1972 3.94157 20.05 3.79433 19.8741 3.68878C19.3025 3.34581 18.2646 3.83363 16.1889 4.80927L16.0216 4.8879L15.8506 4.71687Z" fill="#292556" fill-opacity="0.18"/>
<path d="M7.47761 2.8181C7.39414 2.48422 7.09415 2.25 6.75 2.25C6.40585 2.25 6.10586 2.48422 6.02239 2.8181C5.91858 3.23333 5.7817 3.47014 5.62592 3.62592C5.47014 3.7817 5.23333 3.91858 4.8181 4.02239C4.48422 4.10586 4.25 4.40585 4.25 4.75C4.25 5.09415 4.48422 5.39414 4.8181 5.47761C5.23333 5.58142 5.47014 5.7183 5.62592 5.87408C5.7817 6.02986 5.91858 6.26667 6.02239 6.6819C6.10586 7.01578 6.40585 7.25 6.75 7.25C7.09415 7.25 7.39414 7.01578 7.47761 6.6819C7.58142 6.26667 7.7183 6.02986 7.87408 5.87408C8.02986 5.7183 8.26667 5.58142 8.6819 5.47761C9.01578 5.39414 9.25 5.09415 9.25 4.75C9.25 4.40585 9.01578 4.10586 8.6819 4.02239C8.26667 3.91858 8.02986 3.7817 7.87408 3.62592C7.7183 3.47014 7.58142 3.23333 7.47761 2.8181Z" fill="#292556"/>
<path d="M17.9776 17.3181C17.8941 16.9842 17.5942 16.75 17.25 16.75C16.9058 16.75 16.6059 16.9842 16.5224 17.3181C16.4186 17.7333 16.2817 17.9701 16.1259 18.1259C15.9701 18.2817 15.7333 18.4186 15.3181 18.5224C14.9842 18.6059 14.75 18.9058 14.75 19.25C14.75 19.5942 14.9842 19.8941 15.3181 19.9776C15.7333 20.0814 15.9701 20.2183 16.1259 20.3741C16.2817 20.5299 16.4186 20.7667 16.5224 21.1819C16.6059 21.5158 16.9058 21.75 17.25 21.75C17.5942 21.75 17.8941 21.5158 17.9776 21.1819C18.0814 20.7667 18.2183 20.5299 18.3741 20.3741C18.5299 20.2183 18.7667 20.0814 19.1819 19.9776C19.5158 19.8941 19.75 19.5942 19.75 19.25C19.75 18.9058 19.5158 18.6059 19.1819 18.5224C18.7667 18.4186 18.5299 18.2817 18.3741 18.1259C18.2183 17.9701 18.0814 17.7333 17.9776 17.3181Z" fill="#292556"/>
</svg>
