<svg width="24" height="24" viewBox="0 0 24 24" fill="none" xmlns="http://www.w3.org/2000/svg">
<path d="M2.72203 10.2237C0.406538 16.9883 7.01152 23.5873 13.7777 21.2739C15.8563 20.5632 17.5869 18.7738 18.9417 16.8398L15.0634 14.6007C14.8704 14.849 14.6702 15.0869 14.4635 15.3096C13.8345 15.9875 13.1786 16.4881 12.518 16.7367C9.10537 18.021 5.97672 14.8918 7.26084 11.4836C7.50944 10.8237 8.01002 10.1686 8.68791 9.54007C8.98628 9.26342 9.31194 8.99842 9.65323 8.74673L7.41564 4.87109C5.38791 6.24563 3.47067 8.03663 2.72203 10.2237Z" fill="#292556" fill-opacity="0.18"/>
<path d="M8.74075 4.05907C9.30724 3.72603 10.0639 3.33566 10.8033 2.97309C11.8963 2.43709 13.2007 2.93143 13.7072 4.0384V4.0384C14.2262 5.17253 13.708 6.50933 12.5855 7.05286C11.9962 7.33818 11.4087 7.6391 10.9758 7.89686L10.9152 7.93298L8.69434 4.08636L8.74075 4.05907Z" fill="#292556"/>
<path d="M16.1257 13.0396L16.9571 11.3344C17.4846 10.2524 18.7778 9.78721 19.8737 10.2852V10.2852C21.0216 10.8067 21.5061 12.1778 20.9407 13.3048L19.9548 15.2698L19.7701 15.5828L15.931 13.3663L16.1257 13.0396Z" fill="#292556"/>
</svg>
