<svg width="24" height="24" viewBox="0 0 24 24" fill="none" xmlns="http://www.w3.org/2000/svg">
<path d="M15 3.25H10.875C7.72217 3.25 6.14575 3.25 4.96048 3.90508C4.09555 4.38311 3.38311 5.09555 2.90508 5.96048C2.25 7.14575 2.25 8.72217 2.25 11.875C2.25 12.9259 2.25 13.4514 2.46836 13.8465C2.6277 14.1348 2.86518 14.3723 3.15349 14.5316C3.54858 14.75 4.07406 14.75 5.125 14.75H11.25V19.875C11.25 20.9105 12.0895 21.75 13.125 21.75C14.1605 21.75 15 20.9105 15 19.875V14.75H18.6C19.9124 14.75 20.5686 14.75 21.0286 14.4158C21.1772 14.3078 21.3078 14.1772 21.4158 14.0286C21.75 13.5686 21.75 12.9124 21.75 11.6V10C21.75 7.1877 21.75 5.78155 21.0338 4.79581C20.8025 4.47745 20.5226 4.19748 20.2042 3.96619C19.2184 3.25 17.8123 3.25 15 3.25Z" fill="#292556" fill-opacity="0.18"/>
<path fill-rule="evenodd" clip-rule="evenodd" d="M11.25 8.625V13.25H4.91667C4.52882 13.25 4.3349 13.25 4.17856 13.1969C3.88417 13.097 3.653 12.8658 3.55307 12.5714C3.5 12.4151 3.5 12.2212 3.5 11.8333V8.625C3.5 6.4849 5.2349 4.75 7.375 4.75C9.5151 4.75 11.25 6.4849 11.25 8.625ZM6 7.25C5.58579 7.25 5.25 7.58579 5.25 8C5.25 8.41421 5.58579 8.75 6 8.75H8.75C9.16421 8.75 9.5 8.41421 9.5 8C9.5 7.58579 9.16421 7.25 8.75 7.25H6Z" fill="#292556"/>
</svg>
