<svg width="24" height="24" viewBox="0 0 24 24" fill="none" xmlns="http://www.w3.org/2000/svg">
<path d="M12 20.9994L11.4697 21.5297C11.6103 21.6704 11.8011 21.7494 12 21.7494C12.1989 21.7494 12.3897 21.6704 12.5303 21.5297L12 20.9994ZM15.0303 19.0297C15.3232 18.7368 15.3232 18.2619 15.0303 17.969C14.7374 17.6762 14.2626 17.6762 13.9697 17.969L15.0303 19.0297ZM10.0303 17.969C9.73744 17.6762 9.26256 17.6762 8.96967 17.969C8.67678 18.2619 8.67678 18.7368 8.96967 19.0297L10.0303 17.969ZM11.25 16.7109V20.9994H12.75V16.7109H11.25ZM12.5303 21.5297L15.0303 19.0297L13.9697 17.969L11.4697 20.469L12.5303 21.5297ZM12.5303 20.469L10.0303 17.969L8.96967 19.0297L11.4697 21.5297L12.5303 20.469Z" fill="#292556"/>
<path d="M19.25 9.5C19.25 13.5041 16.0041 16.75 12 16.75C7.99594 16.75 4.75 13.5041 4.75 9.5C4.75 5.49594 7.99594 2.25 12 2.25C16.0041 2.25 19.25 5.49594 19.25 9.5Z" fill="#292556" fill-opacity="0.18"/>
</svg>
