<svg width="24" height="24" viewBox="0 0 24 24" fill="none" xmlns="http://www.w3.org/2000/svg">
<path d="M21.75 15.2555V8.12856C21.75 6.70935 21.75 5.99975 21.5305 5.48385C21.1558 4.60296 20.3499 3.98034 19.4029 3.84008C18.8483 3.75793 18.1617 3.93705 16.7885 4.29529C16.6316 4.33621 16.5532 4.35667 16.4908 4.39449C16.3847 4.45881 16.3063 4.56028 16.2709 4.67917C16.25 4.74909 16.25 4.83015 16.25 4.99225V19.5196C16.25 20.0657 16.25 20.3388 16.3989 20.4857C16.4461 20.5322 16.502 20.5689 16.5635 20.5936C16.7576 20.6716 17.008 20.5627 17.5088 20.345L17.5089 20.345L18.7737 19.795L18.7737 19.795C20.053 19.2388 20.6927 18.9607 21.1097 18.462C21.2463 18.2985 21.3635 18.1198 21.4589 17.9293C21.75 17.348 21.75 16.6505 21.75 15.2555Z" fill="#292556" fill-opacity="0.18"/>
<path d="M2.25 8.95056V15.6591C2.25 16.966 2.25 17.6195 2.42557 18.087C2.82086 19.1395 3.81704 19.8454 4.94108 19.8695C5.44033 19.8802 6.05684 19.6636 7.28986 19.2304L7.28988 19.2304C7.41043 19.1881 7.47071 19.1669 7.51978 19.1355C7.62901 19.0655 7.70676 18.9558 7.7366 18.8295C7.75 18.7728 7.75 18.7089 7.75 18.5811V4.76311C7.75 4.24557 7.75 3.98681 7.60909 3.84138C7.56432 3.79518 7.51106 3.75805 7.45223 3.73203C7.26703 3.65013 7.02424 3.73964 6.53866 3.91867L5.48764 4.30618C4.10098 4.81744 3.40765 5.07306 2.95176 5.58193C2.80263 5.7484 2.67434 5.93242 2.56975 6.12993C2.25 6.73371 2.25 7.47266 2.25 8.95056Z" fill="#292556" fill-opacity="0.18"/>
<path d="M9.25 4.51128V18.4186C9.25 18.695 9.25 18.8332 9.31083 18.945C9.33071 18.9815 9.35507 19.0154 9.38335 19.0459C9.46987 19.1393 9.60086 19.1834 9.86284 19.2716L13.5628 20.5172C14.0404 20.678 14.2792 20.7584 14.46 20.6747C14.5175 20.6481 14.5695 20.6108 14.613 20.5648C14.75 20.4202 14.75 20.1682 14.75 19.6643V5.20195C14.75 4.88559 14.75 4.72741 14.6751 4.60644C14.6507 4.5671 14.621 4.53132 14.5868 4.50015C14.4816 4.4043 14.3261 4.37528 14.0151 4.31723L10.3151 3.62656C9.87954 3.54525 9.66174 3.50459 9.50261 3.5952C9.45163 3.62422 9.40615 3.66199 9.36827 3.70678C9.25 3.84658 9.25 4.06815 9.25 4.51128Z" fill="#292556"/>
</svg>
