<svg width="24" height="24" viewBox="0 0 24 24" fill="none" xmlns="http://www.w3.org/2000/svg">
<path fill-rule="evenodd" clip-rule="evenodd" d="M9.75753 4.35271C10.2434 4.25 10.8289 4.25 12 4.25C13.1711 4.25 13.7566 4.25 14.2425 4.35271C15.6688 4.65425 16.8531 5.58612 17.4943 6.84714C17.9034 6.48414 18.4098 6.25 19 6.25C19.8811 6.25 20.5869 6.78567 21.0383 7.46265C21.4931 8.14488 21.75 9.04416 21.75 10C21.75 12.9618 20.1158 15.5501 17.6688 17.121C17.6044 17.1624 17.535 17.193 17.4633 17.2128C16.8154 18.4434 15.6461 19.3506 14.2425 19.6473C13.7566 19.75 13.1711 19.75 12 19.75C10.8289 19.75 10.2434 19.75 9.75753 19.6473C8.3539 19.3506 7.1846 18.4434 6.53667 17.2128C6.46497 17.193 6.39563 17.1624 6.33117 17.121C3.88418 15.5501 2.25 12.9618 2.25 10C2.25 9.04416 2.50693 8.14488 2.96175 7.46265C3.41307 6.78567 4.11893 6.25 5 6.25C5.59021 6.25 6.0966 6.48414 6.50566 6.84713C7.14685 5.58612 8.3312 4.65425 9.75753 4.35271ZM3.75 10C3.75 9.29899 3.94078 8.69827 4.20982 8.2947C4.48236 7.8859 4.7765 7.75 5 7.75C5.27994 7.75 5.69513 7.9858 5.98633 8.65661V14.9617C4.58799 13.6538 3.75 11.903 3.75 10ZM18.0137 14.9617V8.65661C18.3049 7.9858 18.7201 7.75 19 7.75C19.2235 7.75 19.5176 7.8859 19.7902 8.2947C20.0592 8.69827 20.25 9.29899 20.25 10C20.25 11.903 19.412 13.6538 18.0137 14.9617Z" fill="#292556" fill-opacity="0.18"/>
<path d="M10 10H14M10 14H14" stroke="#292556" stroke-width="1.5" stroke-linecap="round" stroke-linejoin="round"/>
</svg>
