<svg width="24" height="24" viewBox="0 0 24 24" fill="none" xmlns="http://www.w3.org/2000/svg">
<path d="M8.75 5.5V8.75H15.25V5.5C15.25 4.56884 15.25 4.10326 15.1143 3.73045C14.8868 3.10548 14.3945 2.61316 13.7695 2.38569C13.3967 2.25 12.9312 2.25 12 2.25C11.0688 2.25 10.6033 2.25 10.2305 2.38569C9.60548 2.61316 9.11316 3.10548 8.88569 3.73045C8.75 4.10326 8.75 4.56884 8.75 5.5Z" fill="#292556"/>
<path d="M8.75 8.75H5.5C4.56884 8.75 4.10326 8.75 3.73045 8.88569C3.10548 9.11316 2.61316 9.60548 2.38569 10.2305C2.25 10.6033 2.25 11.0688 2.25 12C2.25 12.9312 2.25 13.3967 2.38569 13.7695C2.61316 14.3945 3.10548 14.8868 3.73045 15.1143C4.10326 15.25 4.56884 15.25 5.5 15.25H8.75V18.5C8.75 19.4312 8.75 19.8967 8.88569 20.2695C9.11316 20.8945 9.60548 21.3868 10.2305 21.6143C10.6033 21.75 11.0688 21.75 12 21.75C12.9312 21.75 13.3967 21.75 13.7695 21.6143C14.3945 21.3868 14.8868 20.8945 15.1143 20.2695C15.25 19.8967 15.25 19.4312 15.25 18.5V15.25H18.5C19.4312 15.25 19.8967 15.25 20.2695 15.1143C20.8945 14.8868 21.3868 14.3945 21.6143 13.7695C21.75 13.3967 21.75 12.9312 21.75 12C21.75 11.0688 21.75 10.6033 21.6143 10.2305C21.3868 9.60548 20.8945 9.11316 20.2695 8.88569C19.8967 8.75 19.4312 8.75 18.5 8.75H15.25H8.75Z" fill="#292556" fill-opacity="0.18"/>
</svg>
