<svg width="24" height="24" viewBox="0 0 24 24" fill="none" xmlns="http://www.w3.org/2000/svg">
<path d="M20.2402 6.75391C21.2543 9.81065 21.2543 11.8485 20.2402 14.9052" stroke="#292556" stroke-opacity="0.18" stroke-width="1.5" stroke-linecap="round" stroke-linejoin="round"/>
<path d="M2.25047 12.9737C2.25055 14.092 3.15715 14.9985 4.27547 14.9985V14.9985L4.25651 19.4908C4.25125 20.7359 5.25945 21.7478 6.50452 21.7472V21.7472C7.74497 21.7465 8.75021 20.7408 8.75021 19.5003V15.1103H10V6.55957H6.46978C5.09959 6.55957 4.41449 6.55957 3.87962 6.79824C3.26038 7.07455 2.76505 7.56991 2.48879 8.18917C2.25016 8.72406 2.25021 9.40916 2.25031 10.7793L2.25047 12.9737Z" fill="#292556"/>
<path d="M18.9615 12.8038V8.76421C18.9615 5.49625 18.9615 3.86227 18.2649 3.0803C17.7484 2.50043 17.0107 2.166 16.2341 2.15961C15.1869 2.151 13.9579 3.22781 11.5 5.38142L11.5 5.38142V16.2398C13.9847 18.3656 15.2271 19.4285 16.2839 19.4006C17.0369 19.3808 17.7488 19.053 18.2533 18.4937C18.9615 17.7088 18.9615 16.0738 18.9615 12.8038Z" fill="#292556" fill-opacity="0.18"/>
</svg>
