<svg width="24" height="24" viewBox="0 0 24 24" fill="none" xmlns="http://www.w3.org/2000/svg">
<path fill-rule="evenodd" clip-rule="evenodd" d="M12.177 17.75H14.5C16.8306 17.75 17.996 17.75 18.9081 17.3499C19.9995 16.8712 20.8712 15.9995 21.3499 14.9081C21.75 13.996 21.75 12.8306 21.75 10.5H2.25C2.25 12.8306 2.25 13.996 2.65008 14.9081C3.12885 15.9995 4.00046 16.8712 5.09195 17.3499C5.36539 17.4699 5.66159 17.5538 6.00513 17.6127L5.74647 18.3886C5.36053 19.5465 5.16756 20.1254 5.38982 20.4362C5.45866 20.5325 5.54931 20.6111 5.65436 20.6657C5.99352 20.8417 6.53932 20.5688 7.63092 20.023L7.63093 20.023L12.177 17.75Z" fill="#292556" fill-opacity="0.18"/>
<path d="M9.5 3.25H14.5C16.8306 3.25 17.996 3.25 18.9081 3.65008C19.9995 4.12885 20.8712 5.00046 21.3499 6.09195C21.75 7.00403 21.75 8.16935 21.75 10.5H2.25C2.25 8.16935 2.25 7.00403 2.65008 6.09195C3.12885 5.00046 4.00046 4.12885 5.09195 3.65008C6.00403 3.25 7.16935 3.25 9.5 3.25Z" fill="#292556"/>
</svg>
