<svg width="24" height="24" viewBox="0 0 24 24" fill="none" xmlns="http://www.w3.org/2000/svg">
<path d="M19 10V11C19 14.866 15.866 18 12 18V18M5 10V11C5 14.866 8.13401 18 12 18V18M12 18V21" stroke="#292556" stroke-opacity="0.18" stroke-width="1.5" stroke-linecap="round" stroke-linejoin="round"/>
<path d="M7.25 7C7.25 4.37665 9.37665 2.25 12 2.25V2.25C14.6234 2.25 16.75 4.37665 16.75 7V11C16.75 13.6234 14.6234 15.75 12 15.75V15.75C9.37665 15.75 7.25 13.6234 7.25 11V7Z" fill="#292556" fill-opacity="0.18"/>
<path d="M12.7276 6.8181C12.6441 6.48422 12.3442 6.25 12 6.25C11.6558 6.25 11.3559 6.48422 11.2724 6.8181C11.1686 7.23333 11.0317 7.47014 10.8759 7.62592C10.7201 7.7817 10.4833 7.91858 10.0681 8.02239C9.73422 8.10586 9.5 8.40585 9.5 8.75C9.5 9.09415 9.73422 9.39414 10.0681 9.47761C10.4833 9.58142 10.7201 9.7183 10.8759 9.87408C11.0317 10.0299 11.1686 10.2667 11.2724 10.6819C11.3559 11.0158 11.6558 11.25 12 11.25C12.3442 11.25 12.6441 11.0158 12.7276 10.6819C12.8314 10.2667 12.9683 10.0299 13.1241 9.87408C13.2799 9.7183 13.5167 9.58142 13.9319 9.47761C14.2658 9.39414 14.5 9.09415 14.5 8.75C14.5 8.40585 14.2658 8.10586 13.9319 8.02239C13.5167 7.91858 13.2799 7.7817 13.1241 7.62592C12.9683 7.47014 12.8314 7.23333 12.7276 6.8181Z" fill="#292556"/>
</svg>
