<svg width="24" height="24" viewBox="0 0 24 24" fill="none" xmlns="http://www.w3.org/2000/svg">
<path fill-rule="evenodd" clip-rule="evenodd" d="M11 15.25C10.0626 15.25 9.59385 15.25 9.26527 15.0113C9.15915 14.9342 9.06583 14.8408 8.98873 14.7347C8.75 14.4061 8.75 13.9374 8.75 13V11C8.75 10.0626 8.75 9.59385 8.98873 9.26527C9.06583 9.15915 9.15915 9.06583 9.26527 8.98873C9.59385 8.75 10.0626 8.75 11 8.75H13C13.9374 8.75 14.4061 8.75 14.7347 8.98873C14.8408 9.06583 14.9342 9.15915 15.0113 9.26527C15.25 9.59385 15.25 10.0626 15.25 11V13C15.25 13.9374 15.25 14.4061 15.0113 14.7347C14.9342 14.8408 14.8408 14.9342 14.7347 15.0113C14.4061 15.25 13.9374 15.25 13 15.25H11Z" fill="#292556"/>
<path fill-rule="evenodd" clip-rule="evenodd" d="M10.5 2.25C10.9142 2.25 11.25 2.58579 11.25 3V4.25H12.75V3C12.75 2.58579 13.0858 2.25 13.5 2.25C13.9142 2.25 14.25 2.58579 14.25 3V4.25V4.25C14.9466 4.25 15.2949 4.25 15.5875 4.28648C17.7451 4.55541 19.4446 6.25492 19.7135 8.41246C19.75 8.7051 19.75 9.0534 19.75 9.75V9.75H21C21.4142 9.75 21.75 10.0858 21.75 10.5C21.75 10.9142 21.4142 11.25 21 11.25H19.75V12.75H21C21.4142 12.75 21.75 13.0858 21.75 13.5C21.75 13.9142 21.4142 14.25 21 14.25H19.75V14.25C19.75 14.9466 19.75 15.2949 19.7135 15.5875C19.4446 17.7451 17.7451 19.4446 15.5875 19.7135C15.2949 19.75 14.9466 19.75 14.25 19.75V19.75V21C14.25 21.4142 13.9142 21.75 13.5 21.75C13.0858 21.75 12.75 21.4142 12.75 21V19.75H11.25V21C11.25 21.4142 10.9142 21.75 10.5 21.75C10.0858 21.75 9.75 21.4142 9.75 21V19.75V19.75C9.0534 19.75 8.7051 19.75 8.41246 19.7135C6.25492 19.4446 4.55541 17.7451 4.28648 15.5875C4.25 15.2949 4.25 14.9466 4.25 14.25V14.25H3C2.58579 14.25 2.25 13.9142 2.25 13.5C2.25 13.0858 2.58579 12.75 3 12.75H4.25V11.25H3C2.58579 11.25 2.25 10.9142 2.25 10.5C2.25 10.0858 2.58579 9.75 3 9.75H4.25V9.75C4.25 9.0534 4.25 8.7051 4.28648 8.41246C4.55541 6.25492 6.25492 4.55541 8.41246 4.28648C8.7051 4.25 9.0534 4.25 9.75 4.25V4.25V3C9.75 2.58579 10.0858 2.25 10.5 2.25ZM11.3 7.25C9.61262 7.25 8.76893 7.25 8.17748 7.67971C7.98647 7.81849 7.81849 7.98647 7.67971 8.17748C7.25 8.76893 7.25 9.61262 7.25 11.3V12.7C7.25 14.3874 7.25 15.2311 7.67971 15.8225C7.81849 16.0135 7.98647 16.1815 8.17748 16.3203C8.76893 16.75 9.61262 16.75 11.3 16.75H12.7C14.3874 16.75 15.2311 16.75 15.8225 16.3203C16.0135 16.1815 16.1815 16.0135 16.3203 15.8225C16.75 15.2311 16.75 14.3874 16.75 12.7V11.3C16.75 9.61262 16.75 8.76893 16.3203 8.17748C16.1815 7.98647 16.0135 7.81849 15.8225 7.67971C15.2311 7.25 14.3874 7.25 12.7 7.25H11.3Z" fill="#292556" fill-opacity="0.18"/>
</svg>
