<svg width="24" height="24" viewBox="0 0 24 24" fill="none" xmlns="http://www.w3.org/2000/svg">
<path d="M11.25 3C11.25 2.58579 10.9142 2.25 10.5 2.25C10.0858 2.25 9.75 2.58579 9.75 3V4.25V4.25C9.0534 4.25 8.7051 4.25 8.41246 4.28648C6.25492 4.55541 4.55541 6.25492 4.28648 8.41246C4.25 8.7051 4.25 9.0534 4.25 9.75V9.75H3C2.58579 9.75 2.25 10.0858 2.25 10.5C2.25 10.9142 2.58579 11.25 3 11.25H4.25V12.75H3C2.58579 12.75 2.25 13.0858 2.25 13.5C2.25 13.9142 2.58579 14.25 3 14.25H4.25V14.25C4.25 14.9466 4.25 15.2949 4.28648 15.5875C4.55541 17.7451 6.25492 19.4446 8.41246 19.7135C8.7051 19.75 9.0534 19.75 9.75 19.75V19.75V21C9.75 21.4142 10.0858 21.75 10.5 21.75C10.9142 21.75 11.25 21.4142 11.25 21V19.75H12.75V21C12.75 21.4142 13.0858 21.75 13.5 21.75C13.9142 21.75 14.25 21.4142 14.25 21V19.75V19.75C14.9466 19.75 15.2949 19.75 15.5875 19.7135C17.7451 19.4446 19.4446 17.7451 19.7135 15.5875C19.75 15.2949 19.75 14.9466 19.75 14.25V14.25H21C21.4142 14.25 21.75 13.9142 21.75 13.5C21.75 13.0858 21.4142 12.75 21 12.75H19.75V11.25H21C21.4142 11.25 21.75 10.9142 21.75 10.5C21.75 10.0858 21.4142 9.75 21 9.75H19.75V9.75C19.75 9.0534 19.75 8.7051 19.7135 8.41246C19.4446 6.25492 17.7451 4.55541 15.5875 4.28648C15.2949 4.25 14.9466 4.25 14.25 4.25V4.25V3C14.25 2.58579 13.9142 2.25 13.5 2.25C13.0858 2.25 12.75 2.58579 12.75 3V4.25H11.25V3Z" fill="#292556" fill-opacity="0.18"/>
<path d="M15.75 9V15M13.25 15L12.625 13.5M12.625 13.5L10.75 9L8.875 13.5M12.625 13.5H8.875M8.875 13.5L8.25 15" stroke="#292556" stroke-width="1.5" stroke-linecap="round" stroke-linejoin="round"/>
</svg>
