<svg width="24" height="24" viewBox="0 0 24 24" fill="none" xmlns="http://www.w3.org/2000/svg">
<path d="M18.75 15V9C18.75 6.1877 18.75 4.78155 18.0338 3.79581C17.8025 3.47745 17.5225 3.19748 17.2042 2.96619C16.2184 2.25 14.8123 2.25 12 2.25C9.1877 2.25 7.78155 2.25 6.79581 2.96619C6.47745 3.19748 6.19748 3.47745 5.96619 3.79581C5.25 4.78155 5.25 6.1877 5.25 9V15C5.25 17.8123 5.25 19.2184 5.96619 20.2042C6.19748 20.5226 6.47745 20.8025 6.79581 21.0338C7.78155 21.75 9.1877 21.75 12 21.75C14.8123 21.75 16.2184 21.75 17.2042 21.0338C17.5225 20.8025 17.8025 20.5226 18.0338 20.2042C18.75 19.2184 18.75 17.8123 18.75 15Z" fill="#292556" fill-opacity="0.18"/>
<path d="M10 19H14" stroke="#292556" stroke-width="1.5" stroke-linecap="round" stroke-linejoin="round"/>
<path d="M12.75 4.75C12.75 5.16421 12.4142 5.5 12 5.5C11.5858 5.5 11.25 5.16421 11.25 4.75C11.25 4.33579 11.5858 4 12 4C12.4142 4 12.75 4.33579 12.75 4.75Z" fill="#292556"/>
</svg>
