<svg width="24" height="24" viewBox="0 0 24 24" fill="none" xmlns="http://www.w3.org/2000/svg">
<path d="M15.75 12C15.75 14.0711 14.0711 15.75 12 15.75C9.92893 15.75 8.25 14.0711 8.25 12C8.25 9.92893 9.92893 8.25 12 8.25C14.0711 8.25 15.75 9.92893 15.75 12Z" fill="#292556"/>
<path d="M12 2.25C10.7574 2.25 9.75 3.25736 9.75 4.5C9.75 5.47966 10.3761 6.31309 11.25 6.62197V8.32479C11.4923 8.27563 11.743 8.24982 11.9998 8.24982C12.2567 8.24982 12.5076 8.27566 12.75 8.32487V6.62197C13.6239 6.31309 14.25 5.47966 14.25 4.5C14.25 3.25736 13.2426 2.25 12 2.25Z" fill="#292556" fill-opacity="0.18"/>
<path d="M15.1286 9.93195C14.85 9.5112 14.4887 9.14992 14.068 8.87123L17.9084 5.03086C17.8065 4.79088 17.75 4.52686 17.75 4.25C17.75 3.14543 18.6454 2.25 19.75 2.25C20.8546 2.25 21.75 3.14543 21.75 4.25C21.75 5.35457 20.8546 6.25 19.75 6.25C19.4731 6.25 19.209 6.19347 18.969 6.09156L15.1286 9.93195Z" fill="#292556" fill-opacity="0.18"/>
<path d="M13.822 15.2781C14.2643 15.0317 14.6515 14.6985 14.9606 14.3015L16.8474 16.5027C17.1981 16.3406 17.5888 16.25 18 16.25C19.5188 16.25 20.75 17.4812 20.75 19C20.75 20.5188 19.5188 21.75 18 21.75C16.4812 21.75 15.25 20.5188 15.25 19C15.25 18.4377 15.4192 17.9145 15.7086 17.4791L13.822 15.2781Z" fill="#292556" fill-opacity="0.18"/>
<path d="M9.03921 14.3017C9.34834 14.6987 9.73557 15.0319 10.1778 15.2782L8.29135 17.4791C8.58081 17.9145 8.75 18.4377 8.75 19C8.75 20.5188 7.51878 21.75 6 21.75C4.48122 21.75 3.25 20.5188 3.25 19C3.25 17.4812 4.48122 16.25 6 16.25C6.41119 16.25 6.8019 16.3406 7.15265 16.5027L9.03921 14.3017Z" fill="#292556" fill-opacity="0.18"/>
<path d="M8.32479 11.2499C8.27562 11.4922 8.2498 11.743 8.2498 11.9998C8.2498 12.2567 8.27563 12.5075 8.32483 12.7499H5.58164C5.30079 13.3412 4.69814 13.75 4 13.75C3.0335 13.75 2.25 12.9665 2.25 12C2.25 11.0335 3.0335 10.25 4 10.25C4.69806 10.25 5.30066 10.6587 5.58155 11.2499H8.32479Z" fill="#292556" fill-opacity="0.18"/>
</svg>
