<svg width="24" height="24" viewBox="0 0 24 24" fill="none" xmlns="http://www.w3.org/2000/svg">
<path d="M3 9.5V9.1C3 7.60011 3 6.85016 3.38197 6.32443C3.50533 6.15464 3.65464 6.00533 3.82443 5.88197C4.35016 5.5 5.10011 5.5 6.6 5.5H7H17H17.4C18.8999 5.5 19.6498 5.5 20.1756 5.88197C20.3454 6.00533 20.4947 6.15464 20.618 6.32443C21 6.85016 21 7.60011 21 9.1V9.5V14.5V14.9C21 16.3999 21 17.1498 20.618 17.6756C20.4947 17.8454 20.3454 17.9947 20.1756 18.118C19.6498 18.5 18.8999 18.5 17.4 18.5H17H7H6.6C5.10011 18.5 4.35016 18.5 3.82443 18.118C3.65464 17.9947 3.50533 17.8454 3.38197 17.6756C3 17.1498 3 16.3999 3 14.9V14.5V9.5Z" fill="#292556" fill-opacity="0.18"/>
<path d="M11.2819 13.5046C11.1464 13.1132 10.7192 12.9058 10.3278 13.0413C9.93636 13.1768 9.72892 13.604 9.86444 13.9954L11.2819 13.5046ZM12.7181 10.4954C12.8536 10.8868 13.2808 11.0942 13.6722 10.9587C14.0636 10.8232 14.2711 10.396 14.1356 10.0046L12.7181 10.4954ZM12.75 8.5C12.75 8.08579 12.4142 7.75 12 7.75C11.5858 7.75 11.25 8.08579 11.25 8.5H12.75ZM11.25 15.5C11.25 15.9142 11.5858 16.25 12 16.25C12.4142 16.25 12.75 15.9142 12.75 15.5H11.25ZM17.8244 14.882L18.2653 15.4887L17.8244 14.882ZM17.382 15.3244L17.9887 15.7653L17.382 15.3244ZM17.382 8.67557L17.9887 8.23473L17.382 8.67557ZM17.8244 9.11803L18.2653 8.51127L17.8244 9.11803ZM6.17557 14.882L5.73473 15.4887L6.17557 14.882ZM6.61803 15.3244L7.2248 14.8836L6.61803 15.3244ZM6.17557 9.11803L5.73473 8.51127L6.17557 9.11803ZM6.61803 8.67557L6.01127 8.23473L6.61803 8.67557ZM3 10.25H3.4V8.75H3V10.25ZM7.75 5.9V5.5H6.25V5.9H7.75ZM3 15.25H3.4V13.75H3V15.25ZM6.25 18.1V18.5H7.75V18.1H6.25ZM16.25 5.5V5.9H17.75V5.5H16.25ZM20.6 10.25H21V8.75H20.6V10.25ZM21 13.75H20.6V15.25H21V13.75ZM16.25 18.1V18.5H17.75V18.1H16.25ZM11.7857 11.25C11.5044 11.25 11.25 11.0128 11.25 10.6875H9.75C9.75 11.8119 10.6469 12.75 11.7857 12.75V11.25ZM11.25 10.6875C11.25 10.3622 11.5044 10.125 11.7857 10.125V8.625C10.6469 8.625 9.75 9.56307 9.75 10.6875H11.25ZM12.2143 12.75C12.4956 12.75 12.75 12.9872 12.75 13.3125H14.25C14.25 12.1881 13.3531 11.25 12.2143 11.25V12.75ZM12.75 13.3125C12.75 13.6378 12.4956 13.875 12.2143 13.875V15.375C13.3531 15.375 14.25 14.4369 14.25 13.3125H12.75ZM11.7857 12.75H12.2143V11.25H11.7857V12.75ZM11.7857 13.875C11.5634 13.875 11.3598 13.7296 11.2819 13.5046L9.86444 13.9954C10.1396 14.79 10.8884 15.375 11.7857 15.375V13.875ZM14.1356 10.0046C13.8604 9.21002 13.1116 8.625 12.2143 8.625V10.125C12.4366 10.125 12.6402 10.2704 12.7181 10.4954L14.1356 10.0046ZM11.7857 10.125H12V8.625H11.7857V10.125ZM12 10.125H12.2143V8.625H12V10.125ZM12.75 9.375V8.5H11.25V9.375H12.75ZM12.2143 13.875H12V15.375H12.2143V13.875ZM12 13.875H11.7857V15.375H12V13.875ZM11.25 14.625V15.5H12.75V14.625H11.25ZM20.6 13.75C19.8668 13.75 19.2566 13.749 18.7661 13.8021C18.2616 13.8568 17.7956 13.9758 17.3836 14.2752L18.2653 15.4887C18.379 15.4061 18.5508 15.3342 18.9277 15.2934C19.3186 15.251 19.8333 15.25 20.6 15.25V13.75ZM17.75 18.1C17.75 17.3333 17.751 16.8186 17.7934 16.4277C17.8342 16.0508 17.9061 15.879 17.9887 15.7653L16.7752 14.8836C16.4758 15.2956 16.3568 15.7616 16.3021 16.2661C16.249 16.7566 16.25 17.3668 16.25 18.1H17.75ZM17.3836 14.2752C17.1501 14.4448 16.9448 14.6501 16.7752 14.8836L17.9887 15.7653C18.0658 15.6592 18.1592 15.5658 18.2653 15.4887L17.3836 14.2752ZM16.25 5.9C16.25 6.63324 16.249 7.24341 16.3021 7.73388C16.3568 8.23838 16.4758 8.70438 16.7752 9.11641L17.9887 8.23473C17.9061 8.12103 17.8342 7.94919 17.7934 7.57231C17.751 7.1814 17.75 6.66665 17.75 5.9H16.25ZM20.6 8.75C19.8333 8.75 19.3186 8.74897 18.9277 8.70662C18.5508 8.66579 18.379 8.59388 18.2653 8.51127L17.3836 9.7248C17.7956 10.0242 18.2616 10.1432 18.7661 10.1979C19.2566 10.251 19.8668 10.25 20.6 10.25V8.75ZM16.7752 9.11641C16.9448 9.34987 17.1501 9.55518 17.3836 9.7248L18.2653 8.51127C18.1592 8.43417 18.0658 8.34085 17.9887 8.23473L16.7752 9.11641ZM3.4 15.25C4.16665 15.25 4.6814 15.251 5.07231 15.2934C5.44919 15.3342 5.62103 15.4061 5.73473 15.4887L6.61641 14.2752C6.20438 13.9758 5.73838 13.8568 5.23388 13.8021C4.74341 13.749 4.13324 13.75 3.4 13.75V15.25ZM7.75 18.1C7.75 17.3668 7.75103 16.7566 7.69789 16.2661C7.64323 15.7616 7.52415 15.2956 7.2248 14.8836L6.01127 15.7653C6.09388 15.879 6.16579 16.0508 6.20662 16.4277C6.24897 16.8186 6.25 17.3333 6.25 18.1H7.75ZM5.73473 15.4887C5.84085 15.5658 5.93417 15.6592 6.01127 15.7653L7.2248 14.8836C7.05518 14.6501 6.84987 14.4448 6.61641 14.2752L5.73473 15.4887ZM3.4 10.25C4.13324 10.25 4.74341 10.251 5.23388 10.1979C5.73838 10.1432 6.20438 10.0242 6.61641 9.7248L5.73473 8.51127C5.62103 8.59388 5.44919 8.66579 5.07231 8.70662C4.6814 8.74897 4.16665 8.75 3.4 8.75V10.25ZM6.25 5.9C6.25 6.66665 6.24897 7.1814 6.20662 7.57231C6.16579 7.94919 6.09388 8.12103 6.01127 8.23473L7.2248 9.11641C7.52415 8.70438 7.64323 8.23838 7.69789 7.73388C7.75103 7.24341 7.75 6.63324 7.75 5.9H6.25ZM6.61641 9.7248C6.84987 9.55518 7.05518 9.34987 7.2248 9.11641L6.01127 8.23473C5.93417 8.34085 5.84085 8.43417 5.73473 8.51127L6.61641 9.7248Z" fill="#292556"/>
</svg>
