<svg width="24" height="24" viewBox="0 0 24 24" fill="none" xmlns="http://www.w3.org/2000/svg">
<path d="M2.25 5.125C2.25 4.54406 2.25 4.25358 2.30333 4.01301C2.49259 3.15932 3.15932 2.49259 4.01301 2.30333C4.25358 2.25 4.54406 2.25 5.125 2.25H18.875C19.4559 2.25 19.7464 2.25 19.987 2.30333C20.8407 2.49259 21.5074 3.15932 21.6967 4.01301C21.75 4.25358 21.75 4.54406 21.75 5.125V5.125C21.75 5.70594 21.75 5.99642 21.6967 6.23699C21.5074 7.09068 20.8407 7.75741 19.987 7.94667C19.7464 8 19.4559 8 18.875 8H5.125C4.54406 8 4.25358 8 4.01301 7.94667C3.15932 7.75741 2.49259 7.09068 2.30333 6.23699C2.25 5.99642 2.25 5.70594 2.25 5.125V5.125Z" fill="#292556" fill-opacity="0.18"/>
<path d="M6.25 9.5V17.7C6.25 19.3874 6.25 20.2311 6.67971 20.8225C6.81849 21.0135 6.98647 21.1815 7.17748 21.3203C7.76893 21.75 8.61262 21.75 10.3 21.75H13.7C15.3874 21.75 16.2311 21.75 16.8225 21.3203C17.0135 21.1815 17.1815 21.0135 17.3203 20.8225C17.75 20.2311 17.75 19.3874 17.75 17.7V9.5H6.25Z" fill="#292556" fill-opacity="0.18"/>
<path d="M12 11.5C10.7574 11.5 9.75 12.5074 9.75 13.75C9.75 14.9926 10.7574 16 12 16C13.2426 16 14.25 14.9926 14.25 13.75C14.25 12.5074 13.2426 11.5 12 11.5Z" fill="#292556"/>
<path d="M10 21.75V20.7C10 19.5751 10 19.0126 9.71353 18.6183C9.62101 18.491 9.50902 18.379 9.38168 18.2865C8.98738 18 8.42492 18 7.3 18H6.25M14 21.75V20.7C14 19.5751 14 19.0126 14.2865 18.6183C14.379 18.491 14.491 18.379 14.6183 18.2865C15.0126 18 15.5751 18 16.7 18H17.75" stroke="#292556" stroke-width="1.5" stroke-linejoin="round"/>
</svg>
