<svg width="24" height="24" viewBox="0 0 24 24" fill="none" xmlns="http://www.w3.org/2000/svg">
<path d="M9.2759 2.63605C5.21751 3.81479 2.25 7.55997 2.25 12.0002L9.02932 10C8.84742 9.36478 8.75 8.69387 8.75 8.0002C8.75 6.43004 9.24828 4.97849 10.0954 3.79214C10.5089 3.21312 9.95916 2.4376 9.2759 2.63605Z" fill="#292556"/>
<path d="M2.25 12.0002C2.25 17.385 6.61522 21.7502 12 21.7502C16.4402 21.7502 20.1854 18.7827 21.3642 14.7243C21.5626 14.041 20.7871 13.4913 20.2081 13.9048C19.0217 14.7519 17.5702 15.2502 16 15.2502C12.6896 15.2502 9.8974 13.0315 9.02932 10L2.25 12.0002Z" fill="#292556" fill-opacity="0.18"/>
</svg>
