<svg width="24" height="24" viewBox="0 0 24 24" fill="none" xmlns="http://www.w3.org/2000/svg">
<path d="M11.8375 10.5342C10.767 8.12559 10.2318 6.92128 9.39264 6.71931C9.13165 6.65649 8.8597 6.65455 8.59784 6.71366C7.75593 6.90368 7.20361 8.10025 6.09898 10.4934L3.89146 15.2759C3.07301 17.049 2.66378 17.9356 2.93103 18.627C3.01557 18.8457 3.14322 19.0452 3.30637 19.2136C3.8221 19.746 4.79856 19.746 6.75149 19.746H17.0248C19.0794 19.746 20.1067 19.746 20.6259 19.1872C20.7897 19.0109 20.9154 18.8027 20.9951 18.5757C21.2478 17.8559 20.7693 16.9469 19.8123 15.1288L18.7501 13.111C17.6886 11.0944 17.1579 10.0861 16.372 9.90775C16.1256 9.85182 15.8699 9.84993 15.6227 9.9022C14.8342 10.0689 14.2886 11.0692 13.1973 13.0699L13.069 13.3051L11.8375 10.5342Z" fill="#292556" fill-opacity="0.18"/>
<path d="M19.0005 4.24707C17.4817 4.24707 16.2505 5.47829 16.2505 6.99707C16.2505 8.51585 17.4817 9.74707 19.0005 9.74707C20.5193 9.74707 21.7505 8.51585 21.7505 6.99707C21.7505 5.47829 20.5193 4.24707 19.0005 4.24707Z" fill="#292556"/>
</svg>
