<svg width="24" height="24" viewBox="0 0 24 24" fill="none" xmlns="http://www.w3.org/2000/svg">
<path d="M12.1595 15.9166L16.4504 20.2075C17.4846 21.2417 19.1614 21.2417 20.1956 20.2075C21.2298 19.1733 21.2298 17.4965 20.1956 16.4623L15.9023 12.169C17.1731 11.8895 17.8085 11.7498 18.08 11.6242C20.083 10.698 20.234 7.90846 18.3427 6.77139C18.0863 6.61725 17.4697 6.40976 16.2365 5.99477L11.0313 4.24316L4.25 11.0244L6.01632 16.2584L6.01632 16.2584C6.41834 17.4497 6.61934 18.0453 6.76631 18.2935C7.90109 20.2104 10.7247 20.0533 11.6399 18.0224C11.7584 17.7594 11.8921 17.1451 12.1595 15.9166Z" fill="#292556" fill-opacity="0.18"/>
<path d="M3.99157 10.2577L4.25022 11.0241L11.0315 4.24286L10.2604 3.98339C6.63037 2.76184 4.81535 2.15107 3.70916 2.85038C3.36358 3.06885 3.07106 3.36162 2.8529 3.70738C2.15454 4.81418 2.76689 6.62868 3.99157 10.2577Z" fill="#292556"/>
</svg>
