<svg width="24" height="24" viewBox="0 0 24 24" fill="none" xmlns="http://www.w3.org/2000/svg">
<path d="M13.1001 8.25C13.1001 6.73122 14.3313 5.5 15.8501 5.5C17.3689 5.5 18.6001 6.73122 18.6001 8.25C18.6001 9.76878 17.3689 11 15.8501 11C14.3313 11 13.1001 9.76878 13.1001 8.25Z" fill="#292556"/>
<path d="M5.6001 6.25C5.6001 4.73122 6.83131 3.5 8.3501 3.5C9.86888 3.5 11.1001 4.73122 11.1001 6.25C11.1001 7.76878 9.86888 9 8.3501 9C6.83131 9 5.6001 7.76878 5.6001 6.25Z" fill="#292556"/>
<path fill-rule="evenodd" clip-rule="evenodd" d="M13.9455 13.5311C13.9873 13.7113 14.0339 13.9318 14.0947 14.2194L14.0947 14.2195C14.2214 14.8183 14.2847 15.1178 14.296 15.3613C14.3664 16.8823 13.2861 18.2149 11.7834 18.4607C11.552 18.4985 11.2598 18.4999 10.6925 18.5C10.7874 18.7832 11.0533 19 11.3859 19H18.0396C18.6216 19 18.8152 18.9973 18.9414 18.9763C19.9125 18.8149 20.5595 17.8845 20.3727 16.9179C20.3484 16.7923 20.2835 16.6099 20.0809 16.0643C19.9163 15.6211 19.8522 15.4515 19.7815 15.3085C19.2869 14.3092 18.3147 13.6332 17.2057 13.5175C17.047 13.501 16.8657 13.5 16.393 13.5H14.6074C14.3869 13.5 14.3032 13.5002 14.2218 13.5046C14.1293 13.5095 14.0371 13.5183 13.9455 13.5311ZM13.3688 12.1119C12.6602 10.98 11.4718 10.2044 10.1118 10.0346C9.83422 10 9.51937 10 8.88968 10H7.73578C7.0856 10 6.76051 10 6.46812 10.0385C4.96373 10.2365 3.66044 11.1794 3.00166 12.5463C2.87362 12.812 2.77191 13.1207 2.56849 13.7383L2.56848 13.7383C2.32576 14.4751 2.2044 14.8435 2.1686 15.1384C1.97962 16.6948 3.02099 18.1343 4.5584 18.4417C4.84968 18.5 5.23757 18.5 6.01335 18.5H9.16551C9.27878 19.5846 10.1913 20.5 11.3859 20.5H18.0396L18.1195 20.5H18.1195C18.5897 20.5001 18.9213 20.5002 19.1874 20.456C20.9909 20.1562 22.1923 18.4283 21.8454 16.6333C21.7942 16.3685 21.6787 16.0577 21.5149 15.6169L21.5148 15.6169L21.487 15.542L21.4713 15.4998C21.3277 15.1129 21.2356 14.8651 21.1258 14.6432L20.4857 14.96L21.1258 14.6432C20.4031 13.1827 18.9821 12.1946 17.3613 12.0256C17.1151 11.9999 16.8507 12 16.438 12L16.393 12H14.6074L14.5874 12C14.3934 12 14.2683 12 14.1423 12.0067C13.8819 12.0205 13.6232 12.0557 13.3688 12.1119Z" fill="#292556" fill-opacity="0.18"/>
</svg>
