<svg width="24" height="24" viewBox="0 0 24 24" fill="none" xmlns="http://www.w3.org/2000/svg">
<path d="M18 8L14.5209 4.78853C13.3811 3.73643 12.8112 3.21038 12.3199 3.30033C12.1673 3.32826 12.0234 3.39131 11.8994 3.48447C11.5 3.78449 11.5 4.56005 11.5 6.11117V10.125" stroke="#292556" stroke-width="1.5" stroke-linecap="round" stroke-linejoin="round"/>
<path fill-rule="evenodd" clip-rule="evenodd" d="M12.25 10.125C12.25 9.71079 11.9142 9.375 11.5 9.375C11.0858 9.375 10.75 9.71079 10.75 10.125V15.3773C10.1831 14.9819 9.49362 14.75 8.75 14.75C6.817 14.75 5.25 16.317 5.25 18.25C5.25 20.183 6.817 21.75 8.75 21.75C10.683 21.75 12.25 20.183 12.25 18.25C12.25 18.25 12.25 18.25 12.25 18.25V15.5V10.125Z" fill="#292556" fill-opacity="0.18"/>
</svg>
