<svg width="24" height="24" viewBox="0 0 24 24" fill="none" xmlns="http://www.w3.org/2000/svg">
<path d="M8.5 8V6.6C8.5 5.10011 8.5 4.35016 8.88197 3.82443C9.00533 3.65464 9.15464 3.50533 9.32443 3.38197C9.85016 3 10.6001 3 12.1 3H18M8.5 8H18M8.5 8V13.125M18 8V3M18 8V13.125M18 3H21" stroke="#292556" stroke-width="1.5" stroke-linecap="round" stroke-linejoin="round"/>
<path fill-rule="evenodd" clip-rule="evenodd" d="M8.5 11.2285C8.91421 11.2285 9.25 11.5643 9.25 11.9785V17.9785C9.25 18.0076 9.24835 18.0362 9.24514 18.0644C9.24837 18.126 9.25 18.1881 9.25 18.2505C9.25 20.1835 7.683 21.7505 5.75 21.7505C3.817 21.7505 2.25 20.1835 2.25 18.2505C2.25 16.3175 3.817 14.7505 5.75 14.7505C6.49362 14.7505 7.18308 14.9824 7.75 15.3778V11.9785C7.75 11.5643 8.08579 11.2285 8.5 11.2285ZM18 11.2504C18.4142 11.2504 18.75 11.5862 18.75 12.0004V17.9785C18.75 18.0076 18.7483 18.0362 18.7451 18.0644C18.7484 18.126 18.75 18.1881 18.75 18.2505C18.75 20.1835 17.183 21.7505 15.25 21.7505C13.317 21.7505 11.75 20.1835 11.75 18.2505C11.75 16.3175 13.317 14.7505 15.25 14.7505C15.9936 14.7505 16.6831 14.9824 17.25 15.3778V12.0004C17.25 11.5862 17.5858 11.2504 18 11.2504Z" fill="#292556" fill-opacity="0.18"/>
</svg>
