<svg width="24" height="24" viewBox="0 0 24 24" fill="none" xmlns="http://www.w3.org/2000/svg">
<path fill-rule="evenodd" clip-rule="evenodd" d="M13.1 2.25H13.059H13.0589C12.344 2.24998 11.7474 2.24997 11.2661 2.30211C10.7616 2.35677 10.2956 2.47585 9.88359 2.7752C9.65013 2.94482 9.44482 3.15013 9.2752 3.38359C8.97585 3.79562 8.85677 4.26162 8.80211 4.76612C8.74996 5.24741 8.74998 5.84397 8.75 6.55897V6.55898L8.75 6.6V8V15.3773C8.18308 14.9819 7.49362 14.75 6.75 14.75C4.817 14.75 3.25 16.317 3.25 18.25C3.25 20.183 4.817 21.75 6.75 21.75C8.683 21.75 10.25 20.183 10.25 18.25C10.25 18.2214 10.2497 18.1929 10.249 18.1645C10.2497 18.1514 10.25 18.1383 10.25 18.125V8.75H18.25V15.3773C17.6831 14.9819 16.9936 14.75 16.25 14.75C14.317 14.75 12.75 16.317 12.75 18.25C12.75 20.183 14.317 21.75 16.25 21.75C18.183 21.75 19.75 20.183 19.75 18.25C19.75 18.2214 19.7497 18.1929 19.749 18.1645C19.7497 18.1514 19.75 18.1383 19.75 18.125V8V3.75H21C21.4142 3.75 21.75 3.41422 21.75 3C21.75 2.58579 21.4142 2.25 21 2.25H19H13.1ZM18.25 7.25H10.25V6.6C10.25 5.83335 10.251 5.3186 10.2934 4.92769C10.3342 4.55081 10.4061 4.37898 10.4887 4.26527C10.5658 4.15915 10.6592 4.06583 10.7653 3.98873C10.879 3.90612 11.0508 3.83422 11.4277 3.79338C11.8186 3.75103 12.3333 3.75 13.1 3.75H18.25V7.25Z" fill="#292556" fill-opacity="0.18"/>
<path d="M5.47761 5.8181C5.39414 5.48422 5.09415 5.25 4.75 5.25C4.40585 5.25 4.10586 5.48422 4.02239 5.8181C3.91858 6.23333 3.7817 6.47014 3.62592 6.62592C3.47014 6.7817 3.23333 6.91858 2.8181 7.02239C2.48422 7.10586 2.25 7.40585 2.25 7.75C2.25 8.09415 2.48422 8.39414 2.8181 8.47761C3.23333 8.58142 3.47014 8.7183 3.62592 8.87408C3.7817 9.02986 3.91858 9.26667 4.02239 9.6819C4.10586 10.0158 4.40585 10.25 4.75 10.25C5.09415 10.25 5.39414 10.0158 5.47761 9.6819C5.58142 9.26667 5.7183 9.02986 5.87408 8.87408C6.02986 8.7183 6.26667 8.58142 6.6819 8.47761C7.01578 8.39414 7.25 8.09415 7.25 7.75C7.25 7.40585 7.01578 7.10586 6.6819 7.02239C6.26667 6.91858 6.02986 6.7817 5.87408 6.62592C5.7183 6.47014 5.58142 6.23333 5.47761 5.8181Z" fill="#292556"/>
</svg>
