<svg width="24" height="24" viewBox="0 0 24 24" fill="none" xmlns="http://www.w3.org/2000/svg">
<path d="M19.2158 21.7611C20.6004 21.7611 21.7004 20.7194 21.7504 19.4344C21.812 18.6982 21.0096 17.3296 20.2917 16.2679C19.8963 15.6832 19.6986 15.3908 19.3745 15.3274C19.2796 15.3089 19.158 15.3092 19.0632 15.3283C18.7394 15.3934 18.543 15.6872 18.1501 16.275C17.449 17.3238 16.6602 18.673 16.6602 19.4344C16.75 20.72 17.8 21.7611 19.2158 21.7611Z" fill="#292556"/>
<path d="M5.34737 16.8851L8.4824 18.6951C10.2684 19.7263 11.1615 20.2419 12.0501 20.1485C12.3371 20.1183 12.6176 20.0432 12.8812 19.9258C13.6975 19.5624 14.213 18.6693 15.2442 16.8833L17.0442 13.7656C18.0754 11.9795 18.591 11.0865 18.4976 10.1979C18.4674 9.91089 18.3923 9.63044 18.2749 9.36681C17.9115 8.55053 17.0184 8.03495 15.2324 7.00377L7.62028 2.60891C6.29794 1.84546 4.60708 2.29853 3.84363 3.62086L3.20608 4.72512C2.99833 5.08497 3.12162 5.5451 3.48147 5.75286C3.84131 5.96062 4.30145 5.83732 4.5092 5.47748L5.17365 4.32663C5.50803 3.74746 6.2486 3.54903 6.82777 3.88341L7.06055 4.0178L3.53555 10.1233C2.50437 11.9093 1.98878 12.8024 2.08218 13.691C2.11235 13.978 2.18749 14.2584 2.30487 14.5221C2.6683 15.3383 3.56132 15.8539 5.34737 16.8851Z" fill="#292556" fill-opacity="0.18"/>
</svg>
