<svg width="24" height="24" viewBox="0 0 24 24" fill="none" xmlns="http://www.w3.org/2000/svg">
<path d="M8.65805 20.2596C8.58317 20.8246 8.54573 21.1071 8.66425 21.3228C8.7025 21.3925 8.75157 21.4556 8.80963 21.5098C8.98949 21.6778 9.27252 21.7111 9.83858 21.7777L10.3736 21.8407C10.9253 21.9056 11.2011 21.938 11.4123 21.8211C11.4805 21.7833 11.5425 21.7351 11.5959 21.6782C11.7611 21.5022 11.7973 21.2268 11.8698 20.6761L12.2157 18.049C12.2531 17.7646 12.2719 17.6224 12.3165 17.5087C12.4504 17.1673 12.7606 16.9266 13.1246 16.8816C13.2458 16.8666 13.3882 16.8837 13.673 16.9181L14.1288 16.973C14.8553 17.0605 15.2186 17.1043 15.5283 17.0936C17.2678 17.0332 18.7686 15.8548 19.24 14.1793C19.324 13.8809 19.3676 13.5177 19.4549 12.7911L19.8473 9.52566C19.9463 8.7023 19.3587 7.95476 18.5353 7.85638V7.85638L18.5266 7.92203C18.3853 8.9965 18.2983 9.65755 18.1027 10.2081C17.3813 12.2382 15.5459 13.6603 13.4064 13.8466C12.8262 13.8971 12.167 13.8141 11.0956 13.6793V13.6793C10.5782 13.6143 10.3195 13.5817 10.107 13.6509C9.88789 13.7223 9.70016 13.8671 9.57552 14.0608C9.4546 14.2488 9.42035 14.5073 9.35184 15.0242L8.65805 20.2596Z" fill="#292556"/>
<path d="M7.17815 2.03033C6.61318 1.95595 6.3307 1.91876 6.11512 2.03742C6.04554 2.07572 5.98248 2.12482 5.92831 2.18291C5.76047 2.36286 5.72734 2.64585 5.6611 3.21183L4.16461 15.9971C4.09936 16.5546 4.06673 16.8333 4.1857 17.0455C4.22413 17.1141 4.27309 17.1762 4.33079 17.2295C4.50945 17.3947 4.78812 17.428 5.34546 17.4945L6.1588 17.5916C6.71076 17.6574 6.98674 17.6904 7.19821 17.5737C7.26654 17.536 7.32857 17.4878 7.38205 17.431C7.54755 17.255 7.58407 16.9795 7.65709 16.4284L8.17104 12.5502C8.22523 12.1413 8.59815 11.8526 9.00599 11.9039L11.1769 12.1768C12.3878 12.329 12.8771 12.3863 13.2784 12.3513C14.8344 12.2159 16.1693 11.1817 16.6939 9.70516C16.8292 9.32437 16.8979 8.83474 17.0578 7.62049V7.62049C17.0906 7.35032 17.1071 7.21523 17.1143 7.10003C17.2416 5.08836 15.8522 3.29625 13.8723 2.91834C13.7589 2.8967 13.624 2.87893 13.3541 2.84341L7.17815 2.03033Z" fill="#292556" fill-opacity="0.18"/>
</svg>
