<svg width="24" height="24" viewBox="0 0 24 24" fill="none" xmlns="http://www.w3.org/2000/svg">
<path d="M2.25 9.45C2.25 6.45021 2.25 4.95032 3.01393 3.89886C3.26065 3.55928 3.55928 3.26065 3.89886 3.01393C4.95032 2.25 6.45021 2.25 9.45 2.25H14.55C17.5498 2.25 19.0497 2.25 20.1011 3.01393C20.4407 3.26065 20.7393 3.55928 20.9861 3.89886C21.75 4.95032 21.75 6.45021 21.75 9.45V14.55C21.75 17.5498 21.75 19.0497 20.9861 20.1011C20.7393 20.4407 20.4407 20.7393 20.1011 20.9861C19.0497 21.75 17.5498 21.75 14.55 21.75H9.45C6.45021 21.75 4.95032 21.75 3.89886 20.9861C3.55928 20.7393 3.26065 20.4407 3.01393 20.1011C2.25 19.0497 2.25 17.5498 2.25 14.55V9.45Z" fill="#292556" fill-opacity="0.18"/>
<path d="M14.1216 6.84438L15.3487 5.61731C16.1297 4.83627 17.396 4.83626 18.1771 5.61727V5.61727C18.9582 6.39832 18.9582 7.66467 18.1771 8.44573L16.9478 9.67511L14.1216 6.84438Z" fill="#292556"/>
<path d="M13.061 7.90504L7.873 13.093C7.45157 13.5144 7.24085 13.7251 7.06706 13.9645C7.00924 14.0442 6.95458 14.1261 6.9032 14.21C6.74877 14.4623 6.63499 14.7377 6.40742 15.2886L6.14789 15.9168C5.67017 17.0731 5.43132 17.6512 5.63591 17.9785C5.6992 18.0797 5.78573 18.1644 5.88831 18.2254C6.21997 18.4228 6.79275 18.1713 7.9383 17.6684L8.58776 17.3832C9.10256 17.1572 9.35996 17.0442 9.59623 16.8953C9.67485 16.8457 9.75161 16.7933 9.82633 16.738C10.0509 16.572 10.2497 16.3732 10.6472 15.9756L15.8917 10.7312L13.061 7.90504Z" fill="#292556"/>
</svg>
