<svg width="24" height="24" viewBox="0 0 24 24" fill="none" xmlns="http://www.w3.org/2000/svg">
<path d="M20.9084 9.90155L21.4388 10.4319C21.7316 10.139 21.7316 9.66411 21.4388 9.37122L20.9084 9.90155ZM17.1025 12.6468C16.8096 12.9397 16.8096 13.4146 17.1025 13.7075C17.3954 14.0004 17.8702 14.0004 18.1631 13.7075L17.1025 12.6468ZM18.4844 8.53814L20.3781 10.4319L21.4388 9.37122L19.545 7.47748L18.4844 8.53814ZM20.3781 9.37122L17.1025 12.6468L18.1631 13.7075L21.4388 10.4319L20.3781 9.37122Z" fill="#292556"/>
<path d="M20.3596 6.65969C21.2382 5.78101 21.2382 4.35639 20.3596 3.47771V3.47771C19.4809 2.59903 18.0563 2.59903 17.1776 3.47771L14.7529 5.90237L17.9349 9.08434L20.3596 6.65969Z" fill="#292556"/>
<path d="M3.28995 18.7287C2.50645 20.1692 2.11471 20.8895 2.32839 21.2548C2.39359 21.3663 2.48648 21.459 2.59804 21.5241C2.96364 21.7372 3.68333 21.3443 5.1227 20.5587L8.08742 18.9404L16.8783 10.1488L13.6963 6.9668L4.90544 15.7584L3.28995 18.7287Z" fill="#292556" fill-opacity="0.18"/>
</svg>
