<svg width="24" height="24" viewBox="0 0 24 24" fill="none" xmlns="http://www.w3.org/2000/svg">
<path d="M9.60829 4.37596L4.13991 9.23675C3.33085 9.95591 2.92632 10.3155 2.75289 10.7843C2.69617 10.9377 2.65847 11.0974 2.64062 11.2599C2.58607 11.7568 2.78708 12.2594 3.1891 13.2644L4.41667 16.3333H19.5833L20.8109 13.2644L20.8109 13.2644C21.2129 12.2594 21.4139 11.7568 21.3594 11.2599C21.3415 11.0974 21.3038 10.9377 21.2471 10.7843C21.0737 10.3155 20.6692 9.95591 19.8601 9.23675L14.3917 4.37596C13.385 3.48108 12.8816 3.03363 12.2896 2.94699C12.0976 2.91888 11.9024 2.91888 11.7104 2.94699C11.1184 3.03363 10.615 3.48107 9.60829 4.37596Z" fill="#292556" fill-opacity="0.18"/>
<path d="M14.9792 21.7497H9.02049C7.97477 21.7497 7.45192 21.7497 7.02058 21.5272C6.87935 21.4544 6.74731 21.365 6.62725 21.2609C6.26053 20.9431 6.06634 20.4576 5.67797 19.4867L4.4165 16.333H19.5832L18.3217 19.4867C17.9333 20.4576 17.7391 20.9431 17.3724 21.2609C17.2524 21.365 17.1203 21.4544 16.9791 21.5272C16.5478 21.7497 16.0249 21.7497 14.9792 21.7497Z" fill="#292556"/>
</svg>
