<svg width="24" height="24" viewBox="0 0 24 24" fill="none" xmlns="http://www.w3.org/2000/svg">
<path d="M21.75 12C21.75 17.3848 17.3848 21.75 12 21.75C6.61522 21.75 2.25 17.3848 2.25 12C2.25 6.61522 6.61522 2.25 12 2.25C17.3848 2.25 21.75 6.61522 21.75 12Z" fill="#292556" fill-opacity="0.18"/>
<path d="M16 8L8 16" stroke="#292556" stroke-width="1.5" stroke-linecap="round"/>
<path d="M11.25 9.25C11.25 10.3546 10.3546 11.25 9.25 11.25C8.14543 11.25 7.25 10.3546 7.25 9.25C7.25 8.14543 8.14543 7.25 9.25 7.25C10.3546 7.25 11.25 8.14543 11.25 9.25Z" fill="#292556"/>
<path d="M16.75 14.75C16.75 15.8546 15.8546 16.75 14.75 16.75C13.6454 16.75 12.75 15.8546 12.75 14.75C12.75 13.6454 13.6454 12.75 14.75 12.75C15.8546 12.75 16.75 13.6454 16.75 14.75Z" fill="#292556"/>
</svg>
