<svg width="24" height="24" viewBox="0 0 24 24" fill="none" xmlns="http://www.w3.org/2000/svg">
<path d="M7 4.5L9.45442 6.95442C10.515 8.015 11.0453 8.54529 11.6871 8.64695C11.8944 8.67978 12.1056 8.67978 12.3129 8.64695C12.9547 8.54529 13.485 8.015 14.5456 6.95442L17 4.5M7 4.5V8M7 4.5H10.5" stroke="#292556" stroke-width="1.5" stroke-linecap="round" stroke-linejoin="round"/>
<path d="M12.0008 10.75C15.4576 10.7493 18.5781 11.9391 20.4749 13.8452C21.2562 14.5108 21.7502 15.5119 21.75 16.6258C21.7496 18.6078 20.1778 20.2471 18.1996 20.2475C16.2212 20.2479 14.6496 18.6088 14.65 16.6266C14.6501 16.2088 14.7197 15.8067 14.8481 15.4321C13.9559 15.2308 12.9986 15.1212 12.0006 15.1214C11.0023 15.1216 10.0447 15.2316 9.15224 15.4334C9.28053 15.8081 9.35008 16.2104 9.35 16.6282C9.34962 18.6102 7.77777 20.2496 5.7996 20.25C3.82119 20.2504 2.24962 18.6113 2.25 16.6291C2.25021 15.5152 2.74463 14.5141 3.52592 13.8484C5.42326 11.9418 8.54405 10.7507 12.0008 10.75Z" fill="#292556" fill-opacity="0.18"/>
</svg>
