<svg width="24" height="24" viewBox="0 0 24 24" fill="none" xmlns="http://www.w3.org/2000/svg">
<path d="M20.4753 10.3452C21.2565 11.0108 21.7506 12.0119 21.7504 13.1258C21.75 15.1078 20.1782 16.7471 18.2 16.7475C16.2216 16.7479 14.65 15.1088 14.6504 13.1266C14.6505 12.7088 14.7201 12.3067 14.8485 11.9321C13.9563 11.7308 12.999 11.6212 12.001 11.6214L12.0012 7.25C15.458 7.24931 18.5785 8.43913 20.4753 10.3452Z" fill="#292556"/>
<path d="M12.0006 11.6213C11.0023 11.6215 10.0447 11.7316 9.15224 11.9334C9.28053 12.3081 9.35008 12.7104 9.35 13.1282C9.34962 15.1102 7.77777 16.7496 5.7996 16.75C3.82119 16.7504 2.24962 15.1113 2.25 13.1291C2.25021 12.0152 2.74463 11.0141 3.52592 10.3484C5.42322 8.44182 8.54415 7.25075 12.0008 7.25L12.0006 11.6213Z" fill="#292556" fill-opacity="0.18"/>
</svg>
