<svg width="24" height="24" viewBox="0 0 24 24" fill="none" xmlns="http://www.w3.org/2000/svg">
<path d="M12 13V19M12 19L9.5 16.5M12 19L14.5 16.5" stroke="#292556" stroke-width="1.5" stroke-linecap="round" stroke-linejoin="round"/>
<path d="M12.0008 4.25C15.4576 4.24931 18.5781 5.43913 20.4749 7.34522C21.2562 8.01076 21.7502 9.01186 21.75 10.1258C21.7496 12.1078 20.1778 13.7471 18.1996 13.7475C16.2212 13.7479 14.6496 12.1088 14.65 10.1266C14.6501 9.70884 14.7197 9.30667 14.8481 8.93206C13.9559 8.7308 12.9986 8.62115 12.0006 8.62135C11.0023 8.62155 10.0447 8.73164 9.15224 8.93336C9.28053 9.30807 9.35008 9.71036 9.35 10.1282C9.34962 12.1102 7.77777 13.7496 5.7996 13.75C3.82119 13.7504 2.24962 12.1113 2.25 10.1291C2.25021 9.01519 2.74463 8.01409 3.52592 7.34843C5.42326 5.44178 8.54405 4.25069 12.0008 4.25Z" fill="#292556" fill-opacity="0.18"/>
</svg>
