<svg width="24" height="24" viewBox="0 0 24 24" fill="none" xmlns="http://www.w3.org/2000/svg">
<path d="M12.5107 3C14.7612 3.0439 16.9056 3.85902 18.5211 5.47391C20.1367 7.0888 20.9521 9.2324 20.996 11.482M17.8564 11.0889C17.7833 9.72286 17.3097 8.50437 16.4042 7.59921C15.496 6.6913 14.2724 6.21781 12.9008 6.14693M12.6913 9.18983C13.3182 9.15137 13.8835 9.32132 14.2823 9.71996C14.6811 10.1186 14.8511 10.6836 14.8126 11.3103" stroke="#292556" stroke-width="1.5" stroke-linecap="round" stroke-linejoin="round"/>
<path d="M9.50507 3.54117C7.84537 1.88211 5.15458 1.88211 3.49487 3.54117C2.5627 4.47298 2.15435 5.73087 2.26879 6.9458C2.2994 10.2084 4.00384 13.9462 7.03041 16.9716C10.057 19.997 13.7962 21.7006 17.0597 21.7312C18.2749 21.8456 19.5331 21.4375 20.4652 20.5057C22.1251 18.8465 22.1251 16.1563 20.4652 14.497C18.8055 12.838 16.1147 12.838 14.455 14.497C14.0629 14.889 13.7631 15.3392 13.5561 15.8199C12.5218 15.1777 11.5102 14.3809 10.5657 13.4368C9.62149 12.4929 8.82444 11.4819 8.18207 10.4482C8.66278 10.2413 9.11305 9.94172 9.50507 9.54985C11.1649 7.89063 11.1649 5.20039 9.50507 3.54117Z" fill="#292556" fill-opacity="0.18"/>
</svg>
