<svg width="24" height="24" viewBox="0 0 24 24" fill="none" xmlns="http://www.w3.org/2000/svg">
<path d="M5 14.5C5 13.9883 5 13.7324 5.06387 13.5244C5.20499 13.0648 5.56477 12.705 6.02439 12.5639C6.2324 12.5 6.48827 12.5 7 12.5V12.5C7.51173 12.5 7.7676 12.5 7.97561 12.5639C8.43523 12.705 8.79501 13.0648 8.93613 13.5244C9 13.7324 9 13.9883 9 14.5V14.5C9 15.0117 9 15.2676 8.93613 15.4756C8.79501 15.9352 8.43523 16.295 7.97561 16.4361C7.7676 16.5 7.51173 16.5 7 16.5V16.5C6.48827 16.5 6.2324 16.5 6.02439 16.4361C5.56477 16.295 5.20499 15.9352 5.06387 15.4756C5 15.2676 5 15.0117 5 14.5V14.5Z" fill="#292556"/>
<path d="M10 14.5C10 13.9883 10 13.7324 10.0639 13.5244C10.205 13.0648 10.5648 12.705 11.0244 12.5639C11.2324 12.5 11.4883 12.5 12 12.5V12.5C12.5117 12.5 12.7676 12.5 12.9756 12.5639C13.4352 12.705 13.795 13.0648 13.9361 13.5244C14 13.7324 14 13.9883 14 14.5V14.5C14 15.0117 14 15.2676 13.9361 15.4756C13.795 15.9352 13.4352 16.295 12.9756 16.4361C12.7676 16.5 12.5117 16.5 12 16.5V16.5C11.4883 16.5 11.2324 16.5 11.0244 16.4361C10.5648 16.295 10.205 15.9352 10.0639 15.4756C10 15.2676 10 15.0117 10 14.5V14.5Z" fill="#292556"/>
<path d="M15 9.5C15 8.98827 15 8.7324 15.0639 8.52439C15.205 8.06477 15.5648 7.70499 16.0244 7.56387C16.2324 7.5 16.4883 7.5 17 7.5V7.5C17.5117 7.5 17.7676 7.5 17.9756 7.56387C18.4352 7.70499 18.795 8.06477 18.9361 8.52439C19 8.7324 19 8.98827 19 9.5V9.5C19 10.0117 19 10.2676 18.9361 10.4756C18.795 10.9352 18.4352 11.295 17.9756 11.4361C17.7676 11.5 17.5117 11.5 17 11.5V11.5C16.4883 11.5 16.2324 11.5 16.0244 11.4361C15.5648 11.295 15.205 10.9352 15.0639 10.4756C15 10.2676 15 10.0117 15 9.5V9.5Z" fill="#292556"/>
<path d="M10 19.5C10 19.035 10 18.8025 10.0511 18.6118C10.1898 18.0941 10.5941 17.6898 11.1118 17.5511C11.3025 17.5 11.535 17.5 12 17.5V17.5C12.465 17.5 12.6975 17.5 12.8882 17.5511C13.4059 17.6898 13.8102 18.0941 13.9489 18.6118C14 18.8025 14 19.035 14 19.5V19.5C14 19.965 14 20.1975 13.9489 20.3882C13.8102 20.9059 13.4059 21.3102 12.8882 21.4489C12.6975 21.5 12.465 21.5 12 21.5V21.5C11.535 21.5 11.3025 21.5 11.1118 21.4489C10.5941 21.3102 10.1898 20.9059 10.0511 20.3882C10 20.1975 10 19.965 10 19.5V19.5Z" fill="#292556" fill-opacity="0.18"/>
<path d="M5 9.5C5 9.03501 5 8.80252 5.05111 8.61177C5.18981 8.09413 5.59413 7.68981 6.11177 7.55111C6.30252 7.5 6.53501 7.5 7 7.5V7.5C7.46499 7.5 7.69748 7.5 7.88823 7.55111C8.40587 7.68981 8.81019 8.09413 8.94889 8.61177C9 8.80252 9 9.03501 9 9.5V9.5C9 9.96499 9 10.1975 8.94889 10.3882C8.81019 10.9059 8.40587 11.3102 7.88823 11.4489C7.69748 11.5 7.46499 11.5 7 11.5V11.5C6.53501 11.5 6.30252 11.5 6.11177 11.4489C5.59413 11.3102 5.18981 10.9059 5.05111 10.3882C5 10.1975 5 9.96499 5 9.5V9.5Z" fill="#292556" fill-opacity="0.18"/>
<path d="M5 4.5C5 4.03501 5 3.80252 5.05111 3.61177C5.18981 3.09413 5.59413 2.68981 6.11177 2.55111C6.30252 2.5 6.53501 2.5 7 2.5V2.5C7.46499 2.5 7.69748 2.5 7.88823 2.55111C8.40587 2.68981 8.81019 3.09413 8.94889 3.61177C9 3.80252 9 4.03501 9 4.5V4.5C9 4.96499 9 5.19748 8.94889 5.38823C8.81019 5.90587 8.40587 6.31019 7.88823 6.44889C7.69748 6.5 7.46499 6.5 7 6.5V6.5C6.53501 6.5 6.30252 6.5 6.11177 6.44889C5.59413 6.31019 5.18981 5.90587 5.05111 5.38823C5 5.19748 5 4.96499 5 4.5V4.5Z" fill="#292556" fill-opacity="0.18"/>
<path d="M10 9.5C10 9.03501 10 8.80252 10.0511 8.61177C10.1898 8.09413 10.5941 7.68981 11.1118 7.55111C11.3025 7.5 11.535 7.5 12 7.5V7.5C12.465 7.5 12.6975 7.5 12.8882 7.55111C13.4059 7.68981 13.8102 8.09413 13.9489 8.61177C14 8.80252 14 9.03501 14 9.5V9.5C14 9.96499 14 10.1975 13.9489 10.3882C13.8102 10.9059 13.4059 11.3102 12.8882 11.4489C12.6975 11.5 12.465 11.5 12 11.5V11.5C11.535 11.5 11.3025 11.5 11.1118 11.4489C10.5941 11.3102 10.1898 10.9059 10.0511 10.3882C10 10.1975 10 9.96499 10 9.5V9.5Z" fill="#292556" fill-opacity="0.18"/>
<path d="M10 4.5C10 4.03501 10 3.80252 10.0511 3.61177C10.1898 3.09413 10.5941 2.68981 11.1118 2.55111C11.3025 2.5 11.535 2.5 12 2.5V2.5C12.465 2.5 12.6975 2.5 12.8882 2.55111C13.4059 2.68981 13.8102 3.09413 13.9489 3.61177C14 3.80252 14 4.03501 14 4.5V4.5C14 4.96499 14 5.19748 13.9489 5.38823C13.8102 5.90587 13.4059 6.31019 12.8882 6.44889C12.6975 6.5 12.465 6.5 12 6.5V6.5C11.535 6.5 11.3025 6.5 11.1118 6.44889C10.5941 6.31019 10.1898 5.90587 10.0511 5.38823C10 5.19748 10 4.96499 10 4.5V4.5Z" fill="#292556" fill-opacity="0.18"/>
<path d="M15 14.5C15 14.035 15 13.8025 15.0511 13.6118C15.1898 13.0941 15.5941 12.6898 16.1118 12.5511C16.3025 12.5 16.535 12.5 17 12.5V12.5C17.465 12.5 17.6975 12.5 17.8882 12.5511C18.4059 12.6898 18.8102 13.0941 18.9489 13.6118C19 13.8025 19 14.035 19 14.5V14.5C19 14.965 19 15.1975 18.9489 15.3882C18.8102 15.9059 18.4059 16.3102 17.8882 16.4489C17.6975 16.5 17.465 16.5 17 16.5V16.5C16.535 16.5 16.3025 16.5 16.1118 16.4489C15.5941 16.3102 15.1898 15.9059 15.0511 15.3882C15 15.1975 15 14.965 15 14.5V14.5Z" fill="#292556" fill-opacity="0.18"/>
<path d="M15 4.5C15 4.03501 15 3.80252 15.0511 3.61177C15.1898 3.09413 15.5941 2.68981 16.1118 2.55111C16.3025 2.5 16.535 2.5 17 2.5V2.5C17.465 2.5 17.6975 2.5 17.8882 2.55111C18.4059 2.68981 18.8102 3.09413 18.9489 3.61177C19 3.80252 19 4.03501 19 4.5V4.5C19 4.96499 19 5.19748 18.9489 5.38823C18.8102 5.90587 18.4059 6.31019 17.8882 6.44889C17.6975 6.5 17.465 6.5 17 6.5V6.5C16.535 6.5 16.3025 6.5 16.1118 6.44889C15.5941 6.31019 15.1898 5.90587 15.0511 5.38823C15 5.19748 15 4.96499 15 4.5V4.5Z" fill="#292556" fill-opacity="0.18"/>
</svg>
