<svg width="24" height="24" viewBox="0 0 24 24" fill="none" xmlns="http://www.w3.org/2000/svg">
<path d="M7.03027 16.9718C10.0569 19.9972 13.796 21.7008 17.0596 21.7314C18.2747 21.8458 19.5329 21.4377 20.4651 20.5059C22.125 18.8467 22.125 16.1564 20.4651 14.4972C18.8054 12.8382 16.1146 12.8382 14.4549 14.4972C14.0628 14.8892 13.763 15.3394 13.556 15.8201C12.5217 15.1779 11.51 14.381 10.5656 13.437L7.03027 16.9718Z" fill="#292556"/>
<path d="M9.50507 3.54117C7.84537 1.88211 5.15458 1.88211 3.49487 3.54117C2.5627 4.47298 2.15435 5.73087 2.26879 6.9458C2.2994 10.2084 4.00384 13.9462 7.03041 16.9716L10.5657 13.4368C9.62149 12.4929 8.82444 11.4819 8.18207 10.4482C8.66278 10.2413 9.11305 9.94172 9.50507 9.54985C11.1649 7.89063 11.1649 5.20039 9.50507 3.54117Z" fill="#292556" fill-opacity="0.18"/>
</svg>
