<svg width="24" height="24" viewBox="0 0 24 24" fill="none" xmlns="http://www.w3.org/2000/svg">
<path d="M16.9297 16.9688C13.9031 19.9942 10.1639 21.6979 6.90039 21.7285C5.68527 21.8428 4.42706 21.4348 3.4949 20.503C1.83503 18.8438 1.83503 16.1535 3.4949 14.4943C5.1546 12.8352 7.84539 12.8352 9.5051 14.4943C9.89721 14.8863 10.197 15.3365 10.404 15.8172C11.4383 15.175 12.45 14.3781 13.3944 13.434L16.9297 16.9688Z" fill="#292556"/>
<path d="M14.4549 3.54117C16.1146 1.88211 18.8054 1.88211 20.4651 3.54117C21.3972 4.47298 21.8056 5.73087 21.6911 6.9458C21.6605 10.2084 19.9561 13.9462 16.9295 16.9716L13.3942 13.4368C14.3384 12.4929 15.1355 11.4819 15.7779 10.4482C15.2972 10.2413 14.8469 9.94172 14.4549 9.54985C12.795 7.89063 12.795 5.20039 14.4549 3.54117Z" fill="#292556" fill-opacity="0.18"/>
</svg>
