<svg width="24" height="24" viewBox="0 0 24 24" fill="none" xmlns="http://www.w3.org/2000/svg">
<path fill-rule="evenodd" clip-rule="evenodd" d="M7.41797 17.3512C10.3723 20.1411 13.9341 21.705 17.0597 21.7343C18.2749 21.8487 19.5331 21.4406 20.4652 20.5088C22.1251 18.8496 22.1251 16.1594 20.4652 14.5002C18.8055 12.8411 16.1147 12.8411 14.455 14.5002C14.0629 14.8921 13.7631 15.3423 13.5561 15.823C12.662 15.2679 11.7849 14.5972 10.9535 13.8158L7.41797 17.3512Z" fill="#292556"/>
<path d="M3 21L21 3" stroke="#292556" stroke-width="1.5" stroke-linecap="round" stroke-linejoin="round"/>
<path d="M9.25791 11.9727C8.86142 11.4738 8.5025 10.9638 8.18207 10.4482C8.66278 10.2413 9.11305 9.94172 9.50507 9.54985C11.1649 7.89063 11.1649 5.20039 9.50507 3.54117C7.84537 1.88211 5.15458 1.88211 3.49487 3.54117C2.5627 4.47298 2.15435 5.73087 2.26879 6.9458C2.29464 9.70138 3.51453 12.796 5.71656 15.514L9.25791 11.9727Z" fill="#292556" fill-opacity="0.18"/>
</svg>
