<svg width="24" height="24" viewBox="0 0 24 24" fill="none" xmlns="http://www.w3.org/2000/svg">
<path d="M2.25 12.0001C2.25 17.3849 6.61522 21.7501 12 21.7501C16.567 21.7501 20.4006 18.61 21.4597 14.3711C21.6257 13.7068 21.7086 13.3747 21.5327 13.0379C21.4825 12.9419 21.3914 12.8252 21.3104 12.7533C21.0263 12.501 20.6322 12.501 19.844 12.501H13.3C12.5501 12.501 12.1751 12.501 11.9122 12.31C11.8273 12.2483 11.7527 12.1737 11.691 12.0888C11.5 11.8259 11.5 11.4509 11.5 10.701V4.15591C11.5 3.36774 11.5 2.97365 11.2477 2.68956C11.1758 2.60857 11.0591 2.51746 10.9631 2.46729C10.6263 2.29134 10.2942 2.37427 9.63002 2.54014C5.39056 3.59884 2.25 7.43271 2.25 12.0001Z" fill="#292556" fill-opacity="0.18"/>
<path d="M13 9.2003V4.32492C13 3.48052 13 3.05832 13.2763 2.76857C13.3548 2.68632 13.4813 2.59622 13.5847 2.54902C13.9489 2.38274 14.2968 2.50322 14.9926 2.74418C17.9219 3.75863 20.2417 6.07838 21.2562 9.00768C21.4971 9.70349 21.6176 10.0514 21.4513 10.4156C21.4041 10.519 21.314 10.6455 21.2318 10.724C20.942 11.0003 20.5198 11.0003 19.6754 11.0003H14.8C14.0501 11.0003 13.6751 11.0003 13.4122 10.8093C13.3273 10.7476 13.2527 10.673 13.191 10.5881C13 10.3252 13 9.95025 13 9.2003Z" fill="#292556"/>
</svg>
