<svg width="24" height="24" viewBox="0 0 24 24" fill="none" xmlns="http://www.w3.org/2000/svg">
<path d="M5.54215 15.8496L4.91404 16.7275C3.01578 19.3808 2.06665 20.7074 2.34042 21.2041C2.42238 21.3529 2.54476 21.4754 2.69341 21.5575C3.18989 21.8318 4.51751 20.8841 7.17277 18.9887L8.05293 18.3604L5.54215 15.8496Z" fill="#292556"/>
<path d="M19.557 12.275C20.8684 11.4248 21.524 10.9997 21.68 10.4638C21.7326 10.283 21.7495 10.1231 21.7357 9.93524C21.695 9.37863 21.1791 8.86267 20.1472 7.83076L16.1702 3.85381C15.1383 2.8219 14.6224 2.30595 14.0657 2.26524C13.8779 2.2515 13.718 2.26837 13.5372 2.32099C13.0013 2.47694 12.5762 3.13262 11.726 4.44397C9.98823 7.12428 8.12698 8.98554 5.44667 10.7233C4.13531 11.5735 3.47963 11.9986 3.32369 12.5345C3.27107 12.7153 3.2542 12.8752 3.26794 13.063C3.30865 13.6197 3.8246 14.1356 4.85651 15.1675L8.83346 19.1445C9.86537 20.1764 10.3813 20.6923 10.9379 20.733C11.1258 20.7468 11.2857 20.7299 11.4665 20.6773C12.0023 20.5213 12.4275 19.8657 13.2777 18.5543C15.0154 15.874 16.8767 14.0127 19.557 12.275Z" fill="#292556" fill-opacity="0.18"/>
</svg>
