<svg width="24" height="24" viewBox="0 0 24 24" fill="none" xmlns="http://www.w3.org/2000/svg">
<path d="M4.39941 9.63469L7.55125 16.0937C9.25449 19.5841 10.1061 21.3294 11.3907 21.6212C11.7917 21.7122 12.208 21.7122 12.609 21.6212C13.8936 21.3294 14.7452 19.5841 16.4485 16.0937L19.6003 9.63471C16.4526 7.65523 14.1922 6.75 11.9998 6.75C9.8075 6.75 7.5471 7.65523 4.39941 9.63469Z" fill="#292556" fill-opacity="0.18"/>
<path d="M12.75 16.75C12.75 17.1642 12.4142 17.5 12 17.5C11.5858 17.5 11.25 17.1642 11.25 16.75C11.25 16.3358 11.5858 16 12 16C12.4142 16 12.75 16.3358 12.75 16.75Z" fill="#292556"/>
<path d="M11.25 13.75C11.25 14.1642 10.9142 14.5 10.5 14.5C10.0858 14.5 9.75 14.1642 9.75 13.75C9.75 13.3358 10.0858 13 10.5 13C10.9142 13 11.25 13.3358 11.25 13.75Z" fill="#292556"/>
<path d="M14.25 13.75C14.25 14.1642 13.9142 14.5 13.5 14.5C13.0858 14.5 12.75 14.1642 12.75 13.75C12.75 13.3358 13.0858 13 13.5 13C13.9142 13 14.25 13.3358 14.25 13.75Z" fill="#292556"/>
<path d="M12.75 9.75C12.75 10.1642 12.4142 10.5 12 10.5C11.5858 10.5 11.25 10.1642 11.25 9.75C11.25 9.33579 11.5858 9 12 9C12.4142 9 12.75 9.33579 12.75 9.75Z" fill="#292556"/>
<path d="M9.5 10.75C9.5 11.1642 9.16421 11.5 8.75 11.5C8.33579 11.5 8 11.1642 8 10.75C8 10.3358 8.33579 10 8.75 10C9.16421 10 9.5 10.3358 9.5 10.75Z" fill="#292556"/>
<path d="M16 10.75C16 11.1642 15.6642 11.5 15.25 11.5C14.8358 11.5 14.5 11.1642 14.5 10.75C14.5 10.3358 14.8358 10 15.25 10C15.6642 10 16 10.3358 16 10.75Z" fill="#292556"/>
<path d="M11.9998 2.25C14.2612 2.25001 16.4968 3.06359 18.9681 4.32578C19.9684 4.83667 20.4686 5.09212 20.7275 5.55452C20.8282 5.73437 20.9016 5.94945 20.9318 6.15336C21.0094 6.67761 20.7579 7.21005 20.2551 8.27493V8.27493C17.1096 6.31216 14.5877 5.25 11.9998 5.25C9.41182 5.25 6.88992 6.31215 3.74446 8.27492V8.27492C3.2416 7.21004 2.99017 6.6776 3.06776 6.15334C3.09794 5.94944 3.1713 5.73437 3.272 5.55453C3.53094 5.09212 4.0311 4.83667 5.0314 4.32578C7.50277 3.06355 9.73834 2.24999 11.9998 2.25Z" fill="#292556"/>
</svg>
