<svg width="24" height="24" viewBox="0 0 24 24" fill="none" xmlns="http://www.w3.org/2000/svg">
<path d="M7.7994 18.1502L8.9864 16.9632C9.10183 16.8478 9.15955 16.7901 9.1955 16.7195C9.20739 16.6962 9.21743 16.6719 9.22553 16.647C9.25 16.5717 9.25 16.4901 9.25 16.3268V15.8496H14.75V16.3268C14.75 16.4901 14.75 16.5717 14.7745 16.647C14.7826 16.6719 14.7926 16.6962 14.8045 16.7195C14.8404 16.7901 14.8982 16.8478 15.0136 16.9632L16.2006 18.1502L16.2006 18.1502C16.3809 18.3305 16.471 18.4207 16.5395 18.5232C16.6306 18.6595 16.6939 18.8124 16.7259 18.9732C16.75 19.0941 16.75 19.2216 16.75 19.4766C16.75 20.4539 16.75 20.9426 16.5771 21.2362C16.3471 21.6267 15.9237 21.8621 15.4707 21.8515C15.13 21.8435 14.7149 21.5857 13.8846 21.07L12 19.8996L10.1154 21.07C9.28513 21.5857 8.87 21.8435 8.52933 21.8515C8.07627 21.8621 7.65294 21.6267 7.42294 21.2362C7.25 20.9426 7.25 20.4539 7.25 19.4766C7.25 19.2216 7.25 19.0941 7.27408 18.9732C7.3061 18.8124 7.36944 18.6595 7.4605 18.5232C7.52895 18.4207 7.6191 18.3305 7.7994 18.1502Z" fill="#292556"/>
<path d="M8.74276 5.4892L8.74959 7.95034C8.74985 8.04406 8.70407 8.13194 8.62713 8.18544L3.26678 11.9129C2.6298 12.3559 2.25 13.0826 2.25 13.8585C2.25 15.4328 3.75688 16.5695 5.27067 16.137L9.25 15V15.85H14.75V15L18.7293 16.137C20.2431 16.5695 21.75 15.4328 21.75 13.8585C21.75 13.0826 21.3702 12.3559 20.7332 11.9129L15.3728 8.18539C15.2959 8.1319 15.25 8.04413 15.25 7.95043V5.48019C15.25 3.68326 13.7933 2.22656 11.9964 2.22656C10.1959 2.22656 8.73778 3.68876 8.74276 5.4892Z" fill="#292556" fill-opacity="0.18"/>
</svg>
