<svg width="24" height="24" viewBox="0 0 24 24" fill="none" xmlns="http://www.w3.org/2000/svg">
<path d="M2.25 9.45C2.25 6.45021 2.25 4.95032 3.01393 3.89886C3.26065 3.55928 3.55928 3.26065 3.89886 3.01393C4.95032 2.25 6.45021 2.25 9.45 2.25H14.55C17.5498 2.25 19.0497 2.25 20.1011 3.01393C20.4407 3.26065 20.7394 3.55928 20.9861 3.89886C21.75 4.95032 21.75 6.45021 21.75 9.45V14.55C21.75 17.5498 21.75 19.0497 20.9861 20.1011C20.7394 20.4407 20.4407 20.7394 20.1011 20.9861C19.0497 21.75 17.5498 21.75 14.55 21.75H9.45C6.45021 21.75 4.95032 21.75 3.89886 20.9861C3.55928 20.7394 3.26065 20.4407 3.01393 20.1011C2.25 19.0497 2.25 17.5498 2.25 14.55V9.45Z" fill="#292556" fill-opacity="0.18"/>
<path d="M14.303 13.8546C15.3823 13.1126 15.922 12.7417 16.0202 12.2412C16.0514 12.0823 16.0514 11.9188 16.0202 11.7599C15.9221 11.2594 15.3825 10.8884 14.3032 10.1464L12.5248 8.92356C11.1616 7.98628 10.48 7.51764 9.9203 7.6707C9.74493 7.71865 9.58213 7.80429 9.44325 7.92163C9 8.29614 9 9.12329 9 10.7776L9 13.2229C9 14.8771 9 15.7041 9.44322 16.0786C9.58208 16.196 9.74487 16.2816 9.92023 16.3296C10.4799 16.4827 11.1615 16.0141 12.5246 15.0771L14.303 13.8546Z" fill="#292556"/>
</svg>
