<svg width="24" height="24" viewBox="0 0 24 24" fill="none" xmlns="http://www.w3.org/2000/svg">
<path d="M4.46967 20.4699C4.17678 20.7628 4.17678 21.2377 4.46967 21.5306C4.76256 21.8235 5.23744 21.8235 5.53033 21.5306L4.46967 20.4699ZM7.60721 19.172L7.58841 18.4222L7.60721 19.172ZM6.59001 19.4799L6.99026 20.1142L6.59001 19.4799ZM11.9036 18.1742L11.1897 17.9441L11.9036 18.1742ZM10.2283 19.5476L10.314 20.2927L10.2283 19.5476ZM8.91112 18.6176L8.67184 18.5698L8.37766 20.0406L8.61694 20.0885L8.91112 18.6176ZM5.37016 19.5694L4.46967 20.4699L5.53033 21.5306L6.43082 20.6301L5.37016 19.5694ZM8.67184 18.5698C8.24322 18.484 7.91525 18.414 7.58841 18.4222L7.62601 19.9217C7.74582 19.9187 7.88066 19.9412 8.37766 20.0406L8.67184 18.5698ZM6.43082 20.6301C6.78921 20.2717 6.88892 20.1782 6.99026 20.1142L6.18976 18.8457C5.91327 19.0201 5.67924 19.2604 5.37016 19.5694L6.43082 20.6301ZM7.58841 18.4222C7.09254 18.4346 6.60925 18.581 6.18976 18.8457L6.99026 20.1142C7.18094 19.9939 7.40062 19.9274 7.62601 19.9217L7.58841 18.4222ZM11.25 16.7002C11.25 17.0997 11.2498 17.3707 11.2389 17.58C11.2283 17.7866 11.2089 17.8848 11.1897 17.9441L12.6174 18.4043C12.6947 18.1645 12.7235 17.9172 12.7369 17.6574C12.7502 17.4003 12.75 17.0839 12.75 16.7002H11.25ZM8.61694 20.0885C8.99324 20.1638 9.30345 20.226 9.55815 20.2634C9.81552 20.3012 10.0636 20.3214 10.314 20.2927L10.1427 18.8025C10.0808 18.8096 9.9807 18.8094 9.77599 18.7793C9.56862 18.7489 9.30282 18.696 8.91112 18.6176L8.61694 20.0885ZM11.1897 17.9441C11.0393 18.4108 10.6299 18.7465 10.1427 18.8025L10.314 20.2927C11.3857 20.1695 12.2864 19.4311 12.6174 18.4043L11.1897 17.9441Z" fill="#292556"/>
<path d="M10.25 3C10.25 2.58579 9.91421 2.25 9.5 2.25C9.08579 2.25 8.75 2.58579 8.75 3V5.25H7.2619C7.0187 5.25 6.8971 5.25 6.79449 5.25769C5.4378 5.35936 4.35936 6.4378 4.25769 7.79449C4.25 7.8971 4.25 8.0187 4.25 8.2619V9C4.25 13.2802 7.71979 16.75 12 16.75V16.75C16.2802 16.75 19.75 13.2802 19.75 9V8.2619C19.75 8.0187 19.75 7.8971 19.7423 7.79449C19.6406 6.4378 18.5622 5.35936 17.2055 5.25769C17.1029 5.25 16.9813 5.25 16.7381 5.25H15.25V3C15.25 2.58579 14.9142 2.25 14.5 2.25C14.0858 2.25 13.75 2.58579 13.75 3V5.25H10.25V3Z" fill="#292556" fill-opacity="0.18"/>
</svg>
