<svg width="24" height="24" viewBox="0 0 24 24" fill="none" xmlns="http://www.w3.org/2000/svg">
<path fill-rule="evenodd" clip-rule="evenodd" d="M9.47714 2.58456C14.3886 1.26854 19.4294 3.94847 21.1477 8.63147L15.9649 10.0202C15.2379 8.56704 13.7354 7.56928 12 7.56928C9.55298 7.56928 7.56928 9.55298 7.56928 12C7.56928 12.0899 7.57196 12.1791 7.57723 12.2677L2.39359 13.6566C1.54019 8.74187 4.56567 3.90058 9.47714 2.58456ZM16.4228 11.7323L21.6064 10.3434C22.4598 15.2581 19.4343 20.0994 14.5229 21.4154C9.61139 22.7315 4.5706 20.0515 2.85229 15.3685L8.03512 13.9798C8.76214 15.433 10.2645 16.4307 12 16.4307C14.447 16.4307 16.4307 14.447 16.4307 12C16.4307 11.9101 16.428 11.8209 16.4228 11.7323Z" fill="#292556" fill-opacity="0.18"/>
<path fill-rule="evenodd" clip-rule="evenodd" d="M9.3418 12.0002C9.3418 10.532 10.532 9.3418 12.0002 9.3418C13.4684 9.3418 14.6587 10.532 14.6587 12.0002C14.6587 13.4684 13.4684 14.6587 12.0002 14.6587C10.532 14.6587 9.3418 13.4684 9.3418 12.0002Z" fill="#292556"/>
</svg>
