<svg width="24" height="24" viewBox="0 0 24 24" fill="none" xmlns="http://www.w3.org/2000/svg">
<path d="M15.8112 7.75062L8.18913 7.75025L6.83162 9.10775C6.139 9.80037 5.7927 10.1467 5.57698 10.57C5.50563 10.7101 5.4454 10.8555 5.39683 11.005C5.25 11.4569 5.25 11.9466 5.25 12.9261V16.8C5.25 18.8624 5.25 19.8936 5.7752 20.6164C5.94482 20.8499 6.15013 21.0552 6.38359 21.2248C7.10647 21.75 8.13765 21.75 10.2 21.75H13.8C15.8624 21.75 16.8935 21.75 17.6164 21.2248C17.8499 21.0552 18.0552 20.8499 18.2248 20.6164C18.75 19.8936 18.75 18.8624 18.75 16.8V12.9261C18.75 11.9466 18.75 11.4569 18.6032 11.005C18.5546 10.8555 18.4944 10.7101 18.423 10.57C18.2073 10.1467 17.861 9.80037 17.1684 9.10775L15.8112 7.75062Z" fill="#292556" fill-opacity="0.18"/>
<path d="M12.7494 2.25019C13.9137 2.25014 14.4959 2.25011 14.9609 2.42353C15.7082 2.70229 16.2977 3.29182 16.5765 4.0392C16.7499 4.50416 16.7498 5.08633 16.7497 6.25067L7.25007 6.2502C7.25018 5.08595 7.25024 4.50382 7.42373 4.03889C7.7025 3.29183 8.29181 2.70255 9.03889 2.42381C9.50382 2.25035 10.0859 2.25032 11.2502 2.25026L12.7494 2.25019Z" fill="#292556" fill-opacity="0.18"/>
<path d="M9.5 15H12M12 15H14.5M12 15V17.5M12 15V12.5" stroke="#292556" stroke-width="1.5" stroke-linecap="round" stroke-linejoin="round"/>
</svg>
