<svg width="24" height="24" viewBox="0 0 24 24" fill="none" xmlns="http://www.w3.org/2000/svg">
<path d="M5.65 7C5.27503 7 5.08754 7 4.95611 6.90451C4.91366 6.87367 4.87633 6.83634 4.84549 6.79389C4.75 6.66246 4.75 6.47497 4.75 6.1V5.4C4.75 4.08759 4.75 3.43139 5.08422 2.97138C5.19216 2.82281 5.32281 2.69216 5.47138 2.58422C5.93139 2.25 6.58759 2.25 7.9 2.25H16.1C17.4124 2.25 18.0686 2.25 18.5286 2.58422C18.6772 2.69216 18.8078 2.82281 18.9158 2.97138C19.25 3.43139 19.25 4.08759 19.25 5.4V6.1C19.25 6.47497 19.25 6.66246 19.1545 6.79389C19.1237 6.83634 19.0863 6.87367 19.0439 6.90451C18.9125 7 18.725 7 18.35 7H5.65Z" fill="#292556" fill-opacity="0.18"/>
<path d="M6.75 8.5V16.8C6.75 18.8624 6.75 19.8935 7.2752 20.6164C7.44482 20.8499 7.65013 21.0552 7.88359 21.2248C8.60647 21.75 9.65431 21.75 11.75 21.75V21.75C13.8457 21.75 14.8935 21.75 15.6164 21.2248C15.8499 21.0552 16.0552 20.8499 16.2248 20.6164C16.75 19.8935 16.75 18.8624 16.75 16.8V8.5H6.75Z" fill="#292556" fill-opacity="0.18"/>
<path d="M11 11.75C11.4142 11.75 11.75 11.4142 11.75 11C11.75 10.5858 11.4142 10.25 11 10.25V11.75ZM11 14.75C11.4142 14.75 11.75 14.4142 11.75 14C11.75 13.5858 11.4142 13.25 11 13.25V14.75ZM11 17.75C11.4142 17.75 11.75 17.4142 11.75 17C11.75 16.5858 11.4142 16.25 11 16.25V17.75ZM6.75 11.75H11V10.25H6.75V11.75ZM6.75 14.75H11V13.25H6.75V14.75ZM6.75 17.75H11V16.25H6.75V17.75Z" fill="#292556"/>
</svg>
