<svg width="24" height="24" viewBox="0 0 24 24" fill="none" xmlns="http://www.w3.org/2000/svg">
<path d="M6.25 4.5V4.5C6.25 4.03521 6.25 3.80282 6.29388 3.61059C6.44346 2.95522 6.95522 2.44346 7.61059 2.29388C7.80282 2.25 8.03521 2.25 8.5 2.25H15.5C15.9648 2.25 16.1972 2.25 16.3894 2.29388C17.0448 2.44346 17.5565 2.95522 17.7061 3.61059C17.75 3.80282 17.75 4.03521 17.75 4.5V4.5H6.25Z" fill="#292556" fill-opacity="0.18"/>
<path d="M17.75 9.75H6.25V16.8C6.25 18.8624 6.25 19.8935 6.7752 20.6164C6.94482 20.8499 7.15013 21.0552 7.38359 21.2248C8.10647 21.75 9.13765 21.75 11.2 21.75H12.8C14.8624 21.75 15.8935 21.75 16.6164 21.2248C16.8499 21.0552 17.0552 20.8499 17.2248 20.6164C17.75 19.8935 17.75 18.8624 17.75 16.8V9.75Z" fill="#292556" fill-opacity="0.18"/>
<path d="M3.75 7.15C3.75 7.71246 3.75 7.99369 3.89324 8.19084C3.9395 8.25451 3.99549 8.3105 4.05916 8.35676C4.25631 8.5 4.53754 8.5 5.1 8.5H18.9C19.4625 8.5 19.7437 8.5 19.9408 8.35676C20.0045 8.3105 20.0605 8.25451 20.1068 8.19084C20.25 7.99369 20.25 7.71246 20.25 7.15V7.1C20.25 6.53754 20.25 6.25631 20.1068 6.05916C20.0605 5.99549 20.0045 5.9395 19.9408 5.89324C19.7437 5.75 19.4625 5.75 18.9 5.75H5.1C4.53754 5.75 4.25631 5.75 4.05916 5.89324C3.99549 5.9395 3.9395 5.99549 3.89324 6.05916C3.75 6.25631 3.75 6.53754 3.75 7.1V7.15Z" fill="#292556" fill-opacity="0.18"/>
<path d="M10 15H12M12 15H14M12 15V17M12 15V13" stroke="#292556" stroke-width="1.5" stroke-linecap="round" stroke-linejoin="round"/>
</svg>
