<svg width="24" height="24" viewBox="0 0 24 24" fill="none" xmlns="http://www.w3.org/2000/svg">
<path fill-rule="evenodd" clip-rule="evenodd" d="M13.4208 4.17776C13.795 4.00018 13.9544 3.55286 13.7769 3.17864C13.5993 2.80442 13.152 2.64502 12.7777 2.82259C11.9073 3.23567 11.4933 3.94327 11.3356 4.63187C11.2641 4.94373 11.244 5.25309 11.2515 5.53624C10.6489 5.67582 10.1101 5.98075 9.69879 6.40438H9.57955C9.00395 5.81149 8.17861 5.4511 7.27805 5.4511C7.24278 5.4511 7.20755 5.45359 7.17262 5.45855C5.46437 5.7011 4.37199 6.93425 3.72025 8.36687C3.06962 9.79707 2.79506 11.5433 2.75466 13.1147C2.71189 14.7786 2.96062 16.6349 3.6185 18.1562C4.27538 19.6753 5.40748 20.9905 7.17767 21.2427C7.21271 21.2477 7.24806 21.2502 7.28346 21.2502C8.18332 21.2502 9.00784 20.8897 9.58282 20.2969H9.70062C10.2756 20.8897 11.1001 21.2502 12 21.2502C12.8998 21.2502 13.7244 20.8897 14.2994 20.2969H14.4171C14.9921 20.8897 15.8167 21.2502 16.7165 21.2502C16.7518 21.2502 16.7871 21.2477 16.8221 21.2427C18.5928 20.991 19.725 19.6756 20.3818 18.1565C21.0395 16.635 21.2881 14.7785 21.2453 13.1147C21.205 11.5447 20.9348 9.79916 20.2861 8.36884C19.6358 6.93477 18.5431 5.70261 16.8282 5.45858C16.7932 5.4536 16.7579 5.4511 16.7225 5.4511C15.822 5.4511 14.9966 5.81149 14.421 6.40438H14.3018C13.8912 5.98148 13.3536 5.67689 12.7523 5.53698C12.7445 5.34692 12.7555 5.15091 12.7977 4.96675C12.8736 4.63525 13.0423 4.35739 13.4208 4.17776Z" fill="#292556" fill-opacity="0.18"/>
<path d="M9.89279 16.1439C8.92506 14.4702 8.92506 12.1639 9.89279 10.4902M14.1079 16.2099C15.0756 14.5362 15.0756 12.1639 14.1079 10.4902" stroke="#292556" stroke-width="1.5" stroke-linecap="round" stroke-linejoin="round"/>
</svg>
