<svg width="24" height="24" viewBox="0 0 24 24" fill="none" xmlns="http://www.w3.org/2000/svg">
<path d="M6.48045 3.43622L3.43622 6.48045C2.91675 6.99991 2.65702 7.25965 2.49524 7.57717C2.44172 7.68219 2.39655 7.79126 2.36012 7.90336C2.25 8.24228 2.25 8.6096 2.25 9.34423V14.6558C2.25 15.3904 2.25 15.7577 2.36012 16.0966C2.39655 16.2087 2.44172 16.3178 2.49524 16.4228C2.65702 16.7404 2.91675 17.0001 3.43622 17.5196L6.48045 20.5638L6.48047 20.5638C6.99992 21.0833 7.25965 21.343 7.57717 21.5048C7.68219 21.5583 7.79126 21.6035 7.90336 21.6399C8.24228 21.75 8.6096 21.75 9.34423 21.75H14.6558C15.3904 21.75 15.7577 21.75 16.0966 21.6399C16.2087 21.6035 16.3178 21.5583 16.4228 21.5048C16.7404 21.343 17.0001 21.0833 17.5195 20.5638L17.5196 20.5638L20.5638 17.5196L20.5638 17.5195C21.0833 17.0001 21.343 16.7404 21.5048 16.4228C21.5583 16.3178 21.6035 16.2087 21.6399 16.0966C21.75 15.7577 21.75 15.3904 21.75 14.6558V9.34423C21.75 8.6096 21.75 8.24228 21.6399 7.90336C21.6035 7.79126 21.5583 7.68219 21.5048 7.57717C21.343 7.25965 21.0833 6.99992 20.5638 6.48047L20.5638 6.48045L17.5196 3.43622C17.0001 2.91675 16.7404 2.65702 16.4228 2.49524C16.3178 2.44172 16.2087 2.39655 16.0966 2.36012C15.7577 2.25 15.3904 2.25 14.6558 2.25H9.34423C8.6096 2.25 8.24228 2.25 7.90336 2.36012C7.79126 2.39655 7.68219 2.44172 7.57717 2.49524C7.25965 2.65702 6.99991 2.91675 6.48045 3.43622Z" fill="#292556" fill-opacity="0.18"/>
<path fill-rule="evenodd" clip-rule="evenodd" d="M10.5 9.66274C10.5 8.91019 11.1433 8.25 12 8.25C12.8567 8.25 13.5 8.91019 13.5 9.66274C13.5 10.1205 13.2681 10.5368 12.8897 10.8001C12.8075 10.8573 12.7295 10.9002 12.6195 10.9606L12.6195 10.9606C12.5715 10.987 12.5173 11.0167 12.454 11.0525C12.2741 11.1542 12.035 11.2987 11.8241 11.5178C10.9837 12.3911 10.7487 13.7236 11.3571 14.8552C11.5532 15.22 12.008 15.3567 12.3728 15.1606C12.7377 14.9644 12.8744 14.5097 12.6782 14.1448C12.3925 13.6134 12.4951 12.9838 12.9049 12.558C12.9585 12.5022 13.0396 12.4446 13.1922 12.3583C13.2187 12.3434 13.2502 12.3261 13.2853 12.3068L13.2853 12.3068L13.2853 12.3068C13.4149 12.2358 13.5932 12.138 13.7465 12.0313C14.4974 11.5087 15 10.6474 15 9.66274C15 8.02639 13.6286 6.75 12 6.75C10.3714 6.75 9 8.02639 9 9.66274C9 10.0769 9.33579 10.4127 9.75 10.4127C10.1642 10.4127 10.5 10.0769 10.5 9.66274ZM12 17.5C12.4142 17.5 12.75 17.1642 12.75 16.75C12.75 16.3358 12.4142 16 12 16C11.5858 16 11.25 16.3358 11.25 16.75C11.25 17.1642 11.5858 17.5 12 17.5Z" fill="#292556"/>
</svg>
