<svg width="24" height="24" viewBox="0 0 24 24" fill="none" xmlns="http://www.w3.org/2000/svg">
<path d="M2.25 9.45C2.25 6.45021 2.25 4.95032 3.01393 3.89886C3.26065 3.55928 3.55928 3.26065 3.89886 3.01393C4.95032 2.25 6.45021 2.25 9.45 2.25H14.55C17.5498 2.25 19.0497 2.25 20.1011 3.01393C20.4407 3.26065 20.7394 3.55928 20.9861 3.89886C21.75 4.95032 21.75 6.45021 21.75 9.45V14.55C21.75 17.5498 21.75 19.0497 20.9861 20.1011C20.7394 20.4407 20.4407 20.7394 20.1011 20.9861C19.0497 21.75 17.5498 21.75 14.55 21.75H9.45C6.45021 21.75 4.95032 21.75 3.89886 20.9861C3.55928 20.7394 3.26065 20.4407 3.01393 20.1011C2.25 19.0497 2.25 17.5498 2.25 14.55V9.45Z" fill="#292556" fill-opacity="0.18"/>
<path d="M13 16C13 15.4477 12.5523 15 12 15C11.4477 15 11 15.4477 11 16C11 16.5523 11.4477 17 12 17C12.5523 17 13 16.5523 13 16Z" fill="#292556"/>
<path d="M9.75 9.91274C9.75 8.71829 10.7574 7.75 12 7.75C13.2426 7.75 14.25 8.71829 14.25 9.91274C14.25 10.634 13.8827 11.2728 13.3181 11.6657C13.005 11.8836 12.629 12.0131 12.3645 12.2879C12.04 12.625 11.9931 13.0515 12 13.5" stroke="#292556" stroke-width="1.5" stroke-linecap="round" stroke-linejoin="round"/>
</svg>
