<svg width="24" height="24" viewBox="0 0 24 24" fill="none" xmlns="http://www.w3.org/2000/svg">
<path d="M13.9998 16.3797C13.5856 16.3797 13.2498 16.7155 13.2498 17.1297C13.2498 17.5439 13.5856 17.8797 13.9998 17.8797V16.3797ZM19.3482 8.38929C19.2293 7.99251 18.8113 7.76726 18.4145 7.88618C18.0177 8.0051 17.7925 8.42315 17.9114 8.81993L19.3482 8.38929ZM5.2998 16.3796C4.88559 16.3796 4.5498 16.7154 4.5498 17.1296C4.5498 17.5438 4.88559 17.8796 5.2998 17.8796V16.3796ZM10.6482 8.38917C10.5293 7.9924 10.1113 7.76715 9.71449 7.88607C9.31771 8.00498 9.09246 8.42304 9.21138 8.81981L10.6482 8.38917ZM13.9998 17.8797C15.6543 17.8797 17.096 16.9995 18.0998 15.68C19.1028 14.3614 19.6998 12.5733 19.6998 10.6297H18.1998C18.1998 12.276 17.6926 13.7378 16.906 14.7718C16.1201 15.8048 15.0869 16.3797 13.9998 16.3797V17.8797ZM19.6998 10.6297C19.6998 9.83187 19.5544 9.07703 19.3482 8.38929L17.9114 8.81993C18.0873 9.40678 18.1998 10.0134 18.1998 10.6297H19.6998ZM5.2998 17.8796C6.95429 17.8796 8.39604 16.9994 9.39981 15.6799C10.4028 14.3613 10.9998 12.5732 10.9998 10.6296H9.4998C9.4998 12.2758 8.99255 13.7377 8.20597 14.7717C7.42013 15.8047 6.38688 16.3796 5.2998 16.3796V17.8796ZM10.9998 10.6296C10.9998 9.83175 10.8544 9.07691 10.6482 8.38917L9.21138 8.81981C9.38726 9.40667 9.4998 10.0132 9.4998 10.6296H10.9998Z" fill="#292556" fill-opacity="0.18"/>
<path d="M4.2998 9.34961C4.2998 11.1445 5.76779 12.5996 7.5498 12.5996C9.33182 12.5996 10.7998 11.1445 10.7998 9.34961C10.7998 7.55468 9.33182 6.09961 7.5498 6.09961C5.76779 6.09961 4.2998 7.55468 4.2998 9.34961Z" fill="#292556"/>
<path d="M13 9.34971C13 11.1446 14.468 12.5997 16.25 12.5997C18.032 12.5997 19.5 11.1446 19.5 9.34971C19.5 7.55478 18.032 6.09971 16.25 6.09971C14.468 6.09971 13 7.55478 13 9.34971Z" fill="#292556"/>
</svg>
