<svg width="24" height="24" viewBox="0 0 24 24" fill="none" xmlns="http://www.w3.org/2000/svg">
<path d="M9.79961 6.84961C10.2138 6.84961 10.5496 6.51382 10.5496 6.09961C10.5496 5.6854 10.2138 5.34961 9.79961 5.34961V6.84961ZM4.45118 14.84C4.5701 15.2368 4.98815 15.462 5.38493 15.3431C5.7817 15.2242 6.00695 14.8062 5.88804 14.4094L4.45118 14.84ZM18.4996 6.84973C18.9138 6.84973 19.2496 6.51394 19.2496 6.09973C19.2496 5.68551 18.9138 5.34973 18.4996 5.34973V6.84973ZM13.1512 14.8401C13.2701 15.2369 13.6882 15.4622 14.0849 15.3432C14.4817 15.2243 14.707 14.8063 14.588 14.4095L13.1512 14.8401ZM9.79961 5.34961C8.14512 5.34961 6.70337 6.22983 5.69961 7.54933C4.69658 8.86787 4.09961 10.656 4.09961 12.5996H5.59961C5.59961 10.9533 6.10686 9.4915 6.89344 8.4575C7.67928 7.42446 8.71253 6.84961 9.79961 6.84961V5.34961ZM4.09961 12.5996C4.09961 13.3974 4.24506 14.1523 4.45118 14.84L5.88804 14.4094C5.71215 13.8225 5.59961 13.2159 5.59961 12.5996H4.09961ZM18.4996 5.34973C16.8451 5.34973 15.4034 6.22995 14.3996 7.54945C13.3966 8.86799 12.7996 10.6561 12.7996 12.5997H14.2996C14.2996 10.9535 14.8069 9.49161 15.5934 8.45762C16.3793 7.42458 17.4125 6.84973 18.4996 6.84973V5.34973ZM12.7996 12.5997C12.7996 13.3976 12.9451 14.1524 13.1512 14.8401L14.588 14.4095C14.4121 13.8226 14.2996 13.2161 14.2996 12.5997H12.7996Z" fill="#292556" fill-opacity="0.18"/>
<path d="M19.5 13.88C19.5 12.0851 18.032 10.63 16.25 10.63C14.468 10.63 13 12.0851 13 13.88C13 15.6749 14.468 17.13 16.25 17.13C18.032 17.13 19.5 15.6749 19.5 13.88Z" fill="#292556"/>
<path d="M10.7998 13.8799C10.7998 12.085 9.33182 10.6299 7.5498 10.6299C5.76779 10.6299 4.2998 12.085 4.2998 13.8799C4.2998 15.6748 5.76779 17.1299 7.5498 17.1299C9.33182 17.1299 10.7998 15.6748 10.7998 13.8799Z" fill="#292556"/>
</svg>
