<svg width="24" height="24" viewBox="0 0 24 24" fill="none" xmlns="http://www.w3.org/2000/svg">
<path fill-rule="evenodd" clip-rule="evenodd" d="M15.3721 3.65131C15.7317 3.4458 15.8567 2.98766 15.6512 2.62802C15.4457 2.26839 14.9875 2.14344 14.6279 2.34895L7.80081 6.25014C6.97159 6.25032 6.29483 6.25336 5.7424 6.30343C5.13605 6.35839 4.60625 6.47468 4.125 6.75253C3.55493 7.08166 3.08154 7.55506 2.75241 8.12513C2.47456 8.60638 2.35826 9.13618 2.3033 9.74253C2.24998 10.3308 2.24999 11.0601 2.25 11.9643V11.9643V12.0001V15.6001V15.6434V15.6434C2.24999 16.7316 2.24998 17.609 2.32598 18.3106C2.40452 19.0354 2.57134 19.6609 2.96619 20.2043C3.19749 20.5227 3.47745 20.8026 3.79581 21.0339C4.33926 21.4288 4.96472 21.5956 5.68957 21.6741C6.39109 21.7502 7.26852 21.7501 8.35667 21.7501H8.35669H8.4H15.6H15.6433H15.6433C16.7315 21.7501 17.6089 21.7502 18.3104 21.6741C19.0353 21.5956 19.6607 21.4288 20.2042 21.0339C20.5226 20.8026 20.8025 20.5227 21.0338 20.2043C21.4287 19.6609 21.5955 19.0354 21.674 18.3106C21.75 17.609 21.75 16.7316 21.75 15.6435V15.6434V15.6001V12.4001V12.3568V12.3568C21.75 11.2686 21.75 10.3912 21.674 9.6897C21.5955 8.96485 21.4287 8.33939 21.0338 7.79593C20.8025 7.47758 20.5226 7.19761 20.2042 6.96631C19.6607 6.57147 19.0353 6.40464 18.3104 6.32611C17.6089 6.2501 16.7315 6.25011 15.6433 6.25013H15.6433L15.6 6.25013H10.8242L15.3721 3.65131Z" fill="#292556" fill-opacity="0.18"/>
<path d="M13 14V13.7C13 12.5751 13 12.0126 12.7135 11.6183C12.621 11.491 12.509 11.379 12.3817 11.2865C11.9874 11 11.4249 11 10.3 11H10M13 14V14.3C13 15.4249 13 15.9874 12.7135 16.3817C12.621 16.509 12.509 16.621 12.3817 16.7135C11.9874 17 11.4249 17 10.3 17H10M13 14H7M7 14V14.3C7 15.4249 7 15.9874 7.28647 16.3817C7.37899 16.509 7.49098 16.621 7.61832 16.7135C8.01262 17 8.57508 17 9.7 17H10M7 14V13.7C7 12.5751 7 12.0126 7.28647 11.6183C7.37899 11.491 7.49098 11.379 7.61832 11.2865C8.01262 11 8.57508 11 9.7 11H10M10 17V11" stroke="#292556" stroke-width="1.5" stroke-linecap="round" stroke-linejoin="round"/>
<path d="M17.0001 10.5C17.4142 10.5 17.75 10.8358 17.75 11.25V11.25C17.75 11.6642 17.4142 12 17.0001 12V12C16.5859 12 16.2501 11.664 16.2502 11.2498V11.2498C16.2503 10.8357 16.586 10.5 17.0001 10.5V10.5Z" fill="#292556"/>
<path d="M17.0001 13.25C17.4142 13.25 17.75 13.5858 17.75 14V14C17.75 14.4142 17.4142 14.75 17.0001 14.75V14.75C16.5859 14.75 16.2501 14.414 16.2502 13.9998V13.9998C16.2503 13.5857 16.586 13.25 17.0001 13.25V13.25Z" fill="#292556"/>
<path d="M17.0001 16C17.4142 16 17.75 16.3358 17.75 16.75V16.75C17.75 17.1642 17.4142 17.5 17.0001 17.5V17.5C16.5859 17.5 16.2501 17.164 16.2502 16.7498V16.7498C16.2503 16.3357 16.586 16 17.0001 16V16Z" fill="#292556"/>
</svg>
