<svg width="24" height="24" viewBox="0 0 24 24" fill="none" xmlns="http://www.w3.org/2000/svg">
<path d="M10.9177 11.375C11.2627 10.7774 12.0275 10.5725 12.6256 10.9178C13.2233 11.2628 13.428 12.027 13.0827 12.625C12.7373 13.2234 11.9726 13.4283 11.3752 13.0834C10.7775 12.7383 10.5724 11.973 10.9177 11.375Z" fill="#292556"/>
<path d="M14.6461 11.2496C14.8414 11.9394 14.7684 12.7043 14.3816 13.3741C13.6225 14.689 11.9409 15.1412 10.6251 14.3815C9.51125 13.7385 9.01754 12.4333 9.35344 11.2499L2.99998 11.2501C2.58577 11.2501 2.25 11.5859 2.25 12.0001V12.0001C2.25 15.6087 4.21087 18.7584 7.12159 20.4434V20.4434C7.48027 20.651 7.93938 20.5284 8.14673 20.1695L11.3262 14.667C11.7743 14.7804 12.2372 14.7763 12.673 14.6661L15.8528 20.1692C16.0602 20.5281 16.5193 20.6507 16.8779 20.4431V20.4431C19.7887 18.758 21.7495 15.6084 21.7495 11.9998V11.9998C21.7495 11.5856 21.4138 11.2498 20.9996 11.2498L14.6461 11.2496Z" fill="#292556" fill-opacity="0.18"/>
<path d="M13.9731 10.0824C13.8004 9.90485 13.6006 9.74785 13.3754 9.61786C12.2615 8.97475 10.8842 9.19923 10.0273 10.0824L6.85083 4.58024C6.64374 4.22153 6.76665 3.76285 7.12536 3.55575V3.55575C10.2505 1.75145 13.9586 1.8748 16.8732 3.55303V3.55303C17.2324 3.75984 17.3557 4.21877 17.1486 4.57777L13.9731 10.0824Z" fill="#292556" fill-opacity="0.18"/>
</svg>
