<svg width="24" height="24" viewBox="0 0 24 24" fill="none" xmlns="http://www.w3.org/2000/svg">
<path d="M8.73463 4.67408C7.48564 3.42509 6.86114 2.80059 6.33906 2.69749C5.64637 2.56069 4.93933 2.85355 4.54626 3.44009C4.25 3.88216 4.25 4.76533 4.25 6.53167V17.4685C4.25 19.2349 4.25 20.1181 4.54626 20.5601C4.93933 21.1467 5.64637 21.4395 6.33906 21.3027C6.86114 21.1996 7.48564 20.5751 8.73463 19.3261V19.3261C8.81719 19.2436 8.85847 19.2023 8.90454 19.1833C8.96567 19.158 9.03433 19.158 9.09546 19.1833C9.14153 19.2023 9.18281 19.2436 9.26537 19.3261L9.77261 19.8334C10.7006 20.7614 11.1646 21.2254 11.7262 21.3144C11.9076 21.3431 12.0924 21.3431 12.2738 21.3144C12.8354 21.2254 13.2994 20.7614 14.2274 19.8334L14.7346 19.3261C14.8172 19.2436 14.8585 19.2023 14.9045 19.1833C14.9657 19.158 15.0343 19.158 15.0955 19.1833C15.1415 19.2023 15.1828 19.2436 15.2654 19.3261V19.3261C16.5144 20.5751 17.1389 21.1996 17.6609 21.3027C18.3536 21.4395 19.0607 21.1467 19.4537 20.5601C19.75 20.1181 19.75 19.2349 19.75 17.4686L19.75 6.53168C19.75 4.76533 19.75 3.88216 19.4537 3.44009C19.0607 2.85355 18.3536 2.56069 17.6609 2.69749C17.1389 2.80059 16.5144 3.42509 15.2654 4.67408V4.67408C15.1828 4.75664 15.1415 4.79792 15.0955 4.81696C15.0343 4.84221 14.9657 4.84221 14.9045 4.81696C14.8585 4.79792 14.8172 4.75664 14.7346 4.67408L14.2274 4.16684C13.2994 3.23883 12.8354 2.77482 12.2738 2.68587C12.0924 2.65715 11.9076 2.65715 11.7262 2.68587C11.1646 2.77482 10.7006 3.23883 9.77261 4.16684L9.26537 4.67408C9.18281 4.75664 9.14153 4.79792 9.09546 4.81696C9.03433 4.84221 8.96567 4.84221 8.90454 4.81696C8.85847 4.79792 8.81719 4.75664 8.73463 4.67408V4.67408Z" fill="#292556" fill-opacity="0.18"/>
<path d="M8 15H16M8 9H16M8 12H16" stroke="#292556" stroke-width="1.5" stroke-linecap="round" stroke-linejoin="round"/>
</svg>
