<svg width="24" height="24" viewBox="0 0 24 24" fill="none" xmlns="http://www.w3.org/2000/svg">
<path d="M11 2.25C8.1877 2.25 6.78155 2.25 5.79581 2.96619C5.47745 3.19748 5.19748 3.47745 4.96619 3.79581C4.25 4.78155 4.25 6.1877 4.25 9V17.0931C4.25 19.1775 4.25 20.2197 4.65598 20.7066C5.02408 21.148 5.58545 21.3805 6.15786 21.3287C6.78919 21.2715 7.52613 20.5345 9 19.0607V19.0607L9.77261 19.8333C10.7006 20.7613 11.1646 21.2253 11.7262 21.3142C11.9076 21.343 12.0924 21.343 12.2738 21.3142C12.8354 21.2253 13.2994 20.7613 14.2274 19.8333L15 19.0607V19.0607C16.4739 20.5345 17.2108 21.2715 17.8421 21.3287C18.4145 21.3805 18.9759 21.148 19.344 20.7066C19.75 20.2197 19.75 19.1775 19.75 17.0931L19.75 9C19.75 6.1877 19.75 4.78155 19.0338 3.79581C18.8025 3.47745 18.5225 3.19748 18.2042 2.96619C17.2184 2.25 15.8123 2.25 13 2.25H11Z" fill="#292556" fill-opacity="0.18"/>
<path d="M8 15.5H16M10.5732 11.25C10.7497 11.7598 11.2259 12.125 11.7857 12.125H12M13.4268 7.75C13.2503 7.24023 12.7741 6.875 12.2143 6.875H12M12 6.875H11.7857C11.0756 6.875 10.5 7.46263 10.5 8.1875C10.5 8.91237 11.0756 9.5 11.7857 9.5H12.2143C12.9244 9.5 13.5 10.0876 13.5 10.8125C13.5 11.5374 12.9244 12.125 12.2143 12.125H12M12 6.875V6M12 12.125V13" stroke="#292556" stroke-width="1.5" stroke-linecap="round" stroke-linejoin="round"/>
</svg>
