<svg width="24" height="24" viewBox="0 0 24 24" fill="none" xmlns="http://www.w3.org/2000/svg">
<path d="M5.2128 5.25C4.15799 5.25 3.63059 5.25 3.36476 5.33723C2.26252 5.69891 1.81083 7.01345 2.45797 7.97624C2.61404 8.20844 3.03006 8.5326 3.86209 9.18094V9.18094C3.92058 9.22652 3.94983 9.24931 3.9681 9.27207C4.0415 9.3635 4.0415 9.49365 3.9681 9.58508C3.94983 9.60783 3.92058 9.63062 3.86209 9.6762L3.76738 9.75C2.7525 10.5408 2.24507 10.9362 2.07507 11.4225C1.94435 11.7964 1.94435 12.2036 2.07507 12.5775C2.24507 13.0638 2.7525 13.4592 3.76738 14.25L3.86209 14.3238C3.92058 14.3694 3.94983 14.3922 3.9681 14.4149C4.0415 14.5064 4.0415 14.6365 3.9681 14.7279C3.94983 14.7507 3.92058 14.7735 3.86209 14.8191V14.8191C3.03006 15.4674 2.61404 15.7916 2.45797 16.0238C1.81082 16.9866 2.26251 18.3011 3.36476 18.6628C3.63059 18.75 4.15799 18.75 5.2128 18.75H18.7874C19.8422 18.75 20.3696 18.75 20.6354 18.6628C21.7377 18.3011 22.1894 16.9866 21.5422 16.0238C21.3861 15.7916 20.9701 15.4674 20.1381 14.8191V14.8191C20.0796 14.7735 20.0504 14.7507 20.0321 14.7279C19.9587 14.6365 19.9587 14.5064 20.0321 14.4149C20.0504 14.3922 20.0796 14.3694 20.1381 14.3238L20.2328 14.25C21.2477 13.4592 21.7551 13.0638 21.9251 12.5775C22.0558 12.2036 22.0558 11.7964 21.9251 11.4225C21.7551 10.9362 21.2477 10.5408 20.2328 9.75L20.1381 9.6762C20.0796 9.63062 20.0504 9.60783 20.0321 9.58508C19.9587 9.49365 19.9587 9.3635 20.0321 9.27207C20.0503 9.24931 20.0796 9.22652 20.1381 9.18094V9.18094C20.9701 8.5326 21.3861 8.20844 21.5422 7.97624C22.1894 7.01345 21.7377 5.69891 20.6354 5.33723C20.3696 5.25 19.8422 5.25 18.7874 5.25H5.2128Z" fill="#292556" fill-opacity="0.18"/>
<path d="M9.54289 9.04289C9.93342 8.65237 10.5666 8.65237 10.9571 9.04289C11.3476 9.43342 11.3476 10.0666 10.9571 10.4571C10.5666 10.8476 9.93342 10.8476 9.54289 10.4571C9.15237 10.0666 9.15237 9.43342 9.54289 9.04289Z" fill="#292556"/>
<path d="M13.0429 13.5429C13.4334 13.1524 14.0666 13.1524 14.4571 13.5429C14.8476 13.9334 14.8476 14.5666 14.4571 14.9571C14.0666 15.3476 13.4334 15.3476 13.0429 14.9571C12.6524 14.5666 12.6524 13.9334 13.0429 13.5429Z" fill="#292556"/>
<path d="M14 9.5L10 14.5" stroke="#292556" stroke-width="1.5" stroke-linecap="round"/>
</svg>
