<svg width="24" height="24" viewBox="0 0 24 24" fill="none" xmlns="http://www.w3.org/2000/svg">
<path d="M8 19.25C8.41421 19.25 8.75 18.9142 8.75 18.5C8.75 18.0858 8.41421 17.75 8 17.75L8 19.25ZM20.9366 12.299C20.714 11.9497 20.2503 11.847 19.901 12.0697C19.5517 12.2923 19.4491 12.756 19.6717 13.1053L20.9366 12.299ZM8.05067 4.3348C7.82904 4.68473 7.93307 5.14808 8.283 5.3697C8.63294 5.59132 9.09628 5.4873 9.3179 5.13736L8.05067 4.3348ZM6.38469 18.476L6.29992 19.2212L6.38469 18.476ZM3.43291 13.1167L4.10803 13.4434L3.43291 13.1167ZM20.3366 12.7532L19.7018 13.1525L20.3366 12.7532ZM17.1848 18.4999L17.1804 17.7499L17.1848 18.4999ZM8.92567 4.3624L9.5401 4.79249L8.92567 4.3624ZM15.3126 4.73852L14.6787 5.13933L15.3126 4.73852ZM15.0715 4.36466L14.4568 4.7943L15.0715 4.36466ZM8 17.75H7.53103L7.53103 19.25H8L8 17.75ZM14.6787 5.13933L15.1245 5.84433L16.3923 5.0427L15.9465 4.3377L14.6787 5.13933ZM17.1243 17.75H16.75V19.25H17.1243V17.75ZM7.53103 17.75C6.88151 17.75 6.62675 17.7487 6.46946 17.7308L6.29992 19.2212C6.5651 19.2513 6.93376 19.25 7.53103 19.25L7.53103 17.75ZM3.39144 11.7341C3.0722 12.2389 2.87403 12.5498 2.75778 12.79L4.10803 13.4434C4.17698 13.3009 4.31202 13.0848 4.6592 12.5359L3.39144 11.7341ZM6.46946 17.7308C4.41527 17.4971 3.20756 15.3044 4.10803 13.4434L2.75778 12.79C1.40708 15.5816 3.21863 18.8707 6.29992 19.2212L6.46946 17.7308ZM19.6717 13.1053C19.6901 13.1342 19.6974 13.1455 19.7018 13.1525L20.9715 12.3538C20.964 12.3419 20.9535 12.3255 20.9366 12.299L19.6717 13.1053ZM17.1243 19.25C17.1559 19.25 17.1753 19.25 17.1893 19.2499L17.1804 17.7499C17.1721 17.75 17.1586 17.75 17.1243 17.75V19.25ZM19.7018 13.1525C20.9543 15.1436 19.5326 17.7359 17.1804 17.7499L17.1893 19.2499C20.7176 19.2289 22.8503 15.3403 20.9715 12.3538L19.7018 13.1525ZM9.3179 5.13736C9.45109 4.92707 9.50307 4.8454 9.5401 4.79249L8.31125 3.9323C8.24898 4.02125 8.17313 4.14142 8.05067 4.3348L9.3179 5.13736ZM15.9465 4.3377C15.8242 4.14423 15.7484 4.02401 15.6862 3.93501L14.4568 4.7943C14.4938 4.84723 14.5457 4.92894 14.6787 5.13933L15.9465 4.3377ZM9.5401 4.79249C10.7349 3.08557 13.2632 3.0865 14.4568 4.7943L15.6862 3.93501C13.8959 1.37331 10.1035 1.37191 8.31125 3.9323L9.5401 4.79249Z" fill="#292556"/>
<path d="M19.2757 7.56069C19.4906 5.76971 19.5981 4.87422 19.172 4.44504C19.0391 4.31123 18.8777 4.20921 18.6999 4.14661C18.1294 3.94585 17.3666 4.42713 15.8411 5.38968L15.6744 5.49485C14.1488 6.4574 13.3861 6.93868 13.3217 7.54002C13.3016 7.7275 13.3242 7.9171 13.3878 8.09462C13.5917 8.66398 14.4462 8.95249 16.1553 9.52951L16.3033 9.5795C17.3738 9.94091 17.909 10.1216 18.3389 9.94731C18.4765 9.89152 18.6031 9.81167 18.7127 9.7115C19.0551 9.39848 19.1224 8.8376 19.257 7.71584L19.2757 7.56069Z" fill="#292556" fill-opacity="0.18"/>
<path d="M7.52095 9.8485C7.3819 8.73018 7.31238 8.17102 6.96956 7.85961C6.85983 7.75993 6.73326 7.68057 6.59574 7.62523C6.16608 7.45233 5.63248 7.63335 4.56529 7.99539L4.41296 8.04707C2.71577 8.62285 1.86717 8.91073 1.66335 9.47823C1.59978 9.65522 1.57697 9.84428 1.59661 10.0313C1.65959 10.631 2.41536 11.1125 3.92688 12.0754L4.0993 12.1853C5.63536 13.1639 6.4034 13.6531 6.97658 13.452C7.15519 13.3894 7.31723 13.2869 7.45048 13.1525C7.87811 12.7211 7.76575 11.8174 7.54103 10.01L7.52095 9.8485Z" fill="#292556" fill-opacity="0.18"/>
<path d="M16.7505 18.3971C16.7505 16.5933 16.7505 15.6914 16.2763 15.316C16.1284 15.199 15.956 15.1169 15.7719 15.076C15.1816 14.9446 14.4816 15.5134 13.0816 16.6509L12.9604 16.7494C12.0835 17.4619 11.6451 17.8181 11.5631 18.2747C11.5368 18.4209 11.5368 18.5705 11.5631 18.7166C11.6451 19.1733 12.0835 19.5295 12.9603 20.2419L13.0816 20.3405C14.4816 21.478 15.1816 22.0467 15.7719 21.9154C15.956 21.8744 16.1284 21.7923 16.2763 21.6753C16.7505 21.3 16.7505 20.398 16.7505 18.5942V18.3971Z" fill="#292556" fill-opacity="0.18"/>
</svg>
