<svg width="24" height="24" viewBox="0 0 24 24" fill="none" xmlns="http://www.w3.org/2000/svg">
<path d="M9.72761 13.0681C9.64414 12.7342 9.34415 12.5 9 12.5C8.65585 12.5 8.35586 12.7342 8.27239 13.0681C8.16858 13.4833 8.0317 13.7201 7.87592 13.8759C7.72014 14.0317 7.48333 14.1686 7.0681 14.2724C6.73422 14.3559 6.5 14.6558 6.5 15C6.5 15.3442 6.73422 15.6441 7.0681 15.7276C7.48333 15.8314 7.72014 15.9683 7.87592 16.1241C8.0317 16.2799 8.16858 16.5167 8.27239 16.9319C8.35586 17.2658 8.65585 17.5 9 17.5C9.34415 17.5 9.64414 17.2658 9.72761 16.9319C9.83142 16.5167 9.9683 16.2799 10.1241 16.1241C10.2799 15.9683 10.5167 15.8314 10.9319 15.7276C11.2658 15.6441 11.5 15.3442 11.5 15C11.5 14.6558 11.2658 14.3559 10.9319 14.2724C10.5167 14.1686 10.2799 14.0317 10.1241 13.8759C9.9683 13.7201 9.83142 13.4833 9.72761 13.0681Z" fill="#292556" fill-opacity="0.18"/>
<path d="M14.7276 6.3181C14.6441 5.98422 14.3442 5.75 14 5.75C13.6558 5.75 13.3559 5.98422 13.2724 6.3181C13.0436 7.23333 12.7192 7.84514 12.2822 8.28217C11.8451 8.7192 11.2333 9.04358 10.3181 9.27239C9.98422 9.35586 9.75 9.65585 9.75 10C9.75 10.3442 9.98422 10.6441 10.3181 10.7276C11.2333 10.9564 11.8451 11.2808 12.2822 11.7178C12.7192 12.1549 13.0436 12.7667 13.2724 13.6819C13.3559 14.0158 13.6558 14.25 14 14.25C14.3442 14.25 14.6441 14.0158 14.7276 13.6819C14.9564 12.7667 15.2808 12.1549 15.7178 11.7178C16.1549 11.2808 16.7667 10.9564 17.6819 10.7276C18.0158 10.6441 18.25 10.3442 18.25 10C18.25 9.65585 18.0158 9.35586 17.6819 9.27239C16.7667 9.04358 16.1549 8.7192 15.7178 8.28217C15.2808 7.84514 14.9564 7.23333 14.7276 6.3181Z" fill="#292556" fill-opacity="0.18"/>
<path d="M12 3C16.9706 3 21 7.02944 21 12C21 15.4146 19.0984 18.3851 16.2965 19.9102M19.832 20.3855H16.2965V19.9102M16.2965 19.9102V16.85M12 21C7.02944 21 3 16.9706 3 12C3 8.5854 4.90157 5.61494 7.7035 4.08982M4.16797 3.61447L7.7035 3.61447V4.08982M7.7035 4.08982L7.7035 7.15" stroke="#292556" stroke-opacity="0.18" stroke-width="1.5" stroke-linecap="round" stroke-linejoin="round"/>
<path d="M19.832 20.3853H16.2965V16.8498M4.16797 3.61426L7.7035 3.61426L7.7035 7.14979" stroke="#292556" stroke-width="1.5" stroke-linecap="round" stroke-linejoin="round"/>
</svg>
