<svg width="24" height="24" viewBox="0 0 24 24" fill="none" xmlns="http://www.w3.org/2000/svg">
<path fill-rule="evenodd" clip-rule="evenodd" d="M14.25 4.5C14.25 3.25736 13.2426 2.25 12 2.25C10.7574 2.25 9.75 3.25736 9.75 4.5C9.75 5.47966 10.3761 6.31309 11.25 6.62197V7.25002C9.08483 7.25053 7.97082 7.26457 7.09195 7.65008C6.00046 8.12885 5.12885 9.00046 4.65008 10.0919C4.48724 10.4632 4.39068 10.8764 4.33342 11.393C3.18394 11.7613 2.33852 12.8013 2.25642 14.0538C2.25 14.1518 2.25 14.2679 2.25 14.5C2.25 14.7321 2.25 14.8482 2.25642 14.9462C2.33852 16.1987 3.18394 17.2387 4.33342 17.607C4.39068 18.1236 4.48724 18.5368 4.65008 18.9081C5.12885 19.9995 6.00046 20.8712 7.09195 21.3499C8.00403 21.75 9.16935 21.75 11.5 21.75H12.5C14.8306 21.75 15.996 21.75 16.9081 21.3499C17.9995 20.8712 18.8712 19.9995 19.3499 18.9081C19.5128 18.5368 19.6093 18.1236 19.6666 17.607C20.8161 17.2387 21.6615 16.1987 21.7436 14.9462C21.75 14.8482 21.75 14.7321 21.75 14.5C21.75 14.2679 21.75 14.1518 21.7436 14.0538C21.6615 12.8013 20.8161 11.7613 19.6666 11.393C19.6093 10.8764 19.5128 10.4632 19.3499 10.0919C18.8712 9.00046 17.9995 8.12885 16.9081 7.65008C16.0292 7.26457 14.9152 7.25053 12.75 7.25002V6.62197C13.6239 6.31309 14.25 5.47966 14.25 4.5ZM19.7449 15.9537C19.7927 15.94 19.8354 15.9224 19.875 15.8995C19.989 15.8337 20.0837 15.739 20.1495 15.625C20.25 15.451 20.25 15.2173 20.25 14.75V14.25C20.25 13.7827 20.25 13.549 20.1495 13.375C20.0837 13.261 19.989 13.1663 19.875 13.1005C19.8354 13.0776 19.7927 13.06 19.7449 13.0463C19.75 13.4751 19.75 13.9558 19.75 14.5C19.75 15.0442 19.75 15.5249 19.7449 15.9537ZM4.25509 13.0463C4.20728 13.06 4.1646 13.0776 4.125 13.1005C4.01099 13.1663 3.91631 13.261 3.85048 13.375C3.75 13.549 3.75 13.7827 3.75 14.25V14.75C3.75 15.2173 3.75 15.451 3.85048 15.625C3.91631 15.739 4.01099 15.8337 4.125 15.8995C4.1646 15.9224 4.20728 15.94 4.25509 15.9537C4.25 15.5249 4.25 15.0442 4.25 14.5C4.25 13.9558 4.25 13.4751 4.25509 13.0463Z" fill="#292556" fill-opacity="0.18"/>
<path d="M19.9776 2.8181C19.8941 2.48422 19.5942 2.25 19.25 2.25C18.9058 2.25 18.6059 2.48422 18.5224 2.8181C18.4186 3.23333 18.2817 3.47014 18.1259 3.62592C17.9701 3.7817 17.7333 3.91858 17.3181 4.02239C16.9842 4.10586 16.75 4.40585 16.75 4.75C16.75 5.09415 16.9842 5.39414 17.3181 5.47761C17.7333 5.58142 17.9701 5.7183 18.1259 5.87408C18.2817 6.02986 18.4186 6.26667 18.5224 6.6819C18.6059 7.01578 18.9058 7.25 19.25 7.25C19.5942 7.25 19.8941 7.01578 19.9776 6.6819C20.0814 6.26667 20.2183 6.02986 20.3741 5.87408C20.5299 5.7183 20.7667 5.58142 21.1819 5.47761C21.5158 5.39414 21.75 5.09415 21.75 4.75C21.75 4.40585 21.5158 4.10586 21.1819 4.02239C20.7667 3.91858 20.5299 3.7817 20.3741 3.62592C20.2183 3.47014 20.0814 3.23333 19.9776 2.8181Z" fill="#292556"/>
<path d="M13.25 12.25C13.25 11.5596 13.8096 11 14.5 11V11C15.1904 11 15.75 11.5596 15.75 12.25V12.25C15.75 12.9404 15.1904 13.5 14.5 13.5V13.5C13.8096 13.5 13.25 12.9404 13.25 12.25V12.25Z" fill="#292556"/>
<path d="M8.25 12.25C8.25 11.5596 8.80964 11 9.5 11V11C10.1904 11 10.75 11.5596 10.75 12.25V12.25C10.75 12.9404 10.1904 13.5 9.5 13.5V13.5C8.80964 13.5 8.25 12.9404 8.25 12.25V12.25Z" fill="#292556"/>
<path d="M15 17H9" stroke="#292556" stroke-width="1.5" stroke-linecap="round" stroke-linejoin="round"/>
</svg>
