<svg width="24" height="24" viewBox="0 0 24 24" fill="none" xmlns="http://www.w3.org/2000/svg">
<path d="M5.03963 15.107C4.87891 15.2206 4.73629 15.3358 4.6239 15.4482C3.71639 16.3557 3.40233 17.5453 3.29849 18.4346C3.24559 18.8877 3.24425 19.2876 3.25603 19.575C3.26194 19.7194 3.36743 20.538 3.37555 20.6218C3.45931 20.6299 4.27795 20.7354 4.42229 20.7413C4.70978 20.7531 5.1096 20.7518 5.56271 20.6988C6.45199 20.595 7.64165 20.2809 8.54916 19.3734C8.66155 19.261 8.77672 19.1184 8.89038 18.9577L8.89038 18.9577C8.96521 18.8519 9.00263 18.799 9.11052 18.5356C9.35428 17.9405 9.25786 16.8081 8.91699 16.2628C8.76611 16.0215 8.63441 15.8897 8.371 15.6263C8.10759 15.3629 7.97588 15.2312 7.73452 15.0803C7.1892 14.7395 6.05688 14.6431 5.46177 14.8868C5.19837 14.9947 5.14546 15.0321 5.03963 15.107Z" fill="#292556"/>
<path d="M19.1065 3.25501C18.5413 3.27392 17.7526 3.33426 16.8504 3.50005C15.1219 3.81772 12.9211 4.53305 11.0939 6.14141L7.04473 6.35216C5.24976 6.44558 3.84229 7.92822 3.84229 9.72562C3.84229 11.5352 5.2683 13.0234 7.07626 13.1006L8.00888 13.1404L10.8573 15.9888L10.8971 16.9214C10.9742 18.7293 12.4624 20.1554 14.272 20.1554C16.0694 20.1554 17.5521 18.7479 17.6455 16.9529L17.8562 12.9037C19.4646 11.0765 20.1799 8.87574 20.4976 7.1472C20.6634 6.24506 20.7237 5.45636 20.7426 4.8911C20.7551 4.51934 20.7613 4.33346 20.7048 4.14075C20.5968 3.77245 20.2252 3.40079 19.8569 3.29283C19.6642 3.23635 19.4783 3.24257 19.1065 3.25501Z" fill="#292556" fill-opacity="0.18"/>
<path d="M13 13C14.1046 13 15 12.1046 15 11V11C15 9.89543 14.1046 9 13 9V9C11.8954 9 11 9.89543 11 11V11C11 12.1046 11.8954 13 13 13V13Z" fill="#292556"/>
</svg>
