<svg width="24" height="24" viewBox="0 0 24 24" fill="none" xmlns="http://www.w3.org/2000/svg">
<path d="M21.6546 8.28146C21.75 7.43507 21.75 6.42894 21.75 4.41667C21.75 3.22005 20.7799 2.25 19.5833 2.25C17.5711 2.25 16.5649 2.25 15.7185 2.34536C8.52491 2.95014 3.00346 8.55328 2.34536 15.7185C2.25 16.5649 2.25 17.5711 2.25 19.5833C2.25 20.7799 3.22005 21.75 4.41667 21.75C6.42894 21.75 7.43507 21.75 8.28146 21.6546C15.5243 20.9776 21.0837 15.3832 21.6546 8.28146Z" fill="#292556" fill-opacity="0.18"/>
<path d="M16 8L14.5 9.5M14.5 9.5L12 12M14.5 9.5L13 8M14.5 9.5L16 11M12 12L9.5 14.5M12 12L10.5 10.5M12 12L13.5 13.5M9.5 14.5L8 16M9.5 14.5L8 13M9.5 14.5L11 16" stroke="#292556" stroke-width="1.5" stroke-linecap="round" stroke-linejoin="round"/>
</svg>
