<svg width="24" height="24" viewBox="0 0 24 24" fill="none" xmlns="http://www.w3.org/2000/svg">
<path d="M4.75336 19.2461C3.4348 17.9275 2.77553 17.2682 2.48987 16.5241C2.15778 15.6589 2.15778 14.7015 2.48987 13.8363C2.77553 13.0922 3.4348 12.4329 4.75336 11.1143L11.1158 4.75187C12.434 3.43375 13.093 2.77469 13.837 2.48903C14.7019 2.15693 15.6591 2.15676 16.5241 2.48854C17.2682 2.77392 17.9275 3.43274 19.2461 4.75038V4.75038C20.5656 6.0689 21.2253 6.72815 21.5112 7.4724C21.8436 8.33766 21.8438 9.29537 21.5117 10.1608C21.2261 10.9051 20.5666 11.5646 19.2476 12.8836L12.8851 19.2461C11.5665 20.5646 10.9073 21.2239 10.1631 21.5096C9.29796 21.8417 8.34049 21.8417 7.47535 21.5096C6.7312 21.2239 6.07192 20.5646 4.75336 19.2461V19.2461Z" fill="#292556" fill-opacity="0.18"/>
<path d="M7.53033 16.3587C7.23744 16.0658 6.76256 16.0658 6.46967 16.3587C6.17678 16.6516 6.17678 17.1265 6.46967 17.4194L7.53033 16.3587ZM11.4158 15.3001C11.1231 15.007 10.6483 15.0065 10.3551 15.2992C10.0619 15.5918 10.0615 16.0667 10.3541 16.3598L11.4158 15.3001ZM16.3593 10.3556C16.0664 10.0627 15.5915 10.0627 15.2986 10.3556C15.0058 10.6485 15.0058 11.1234 15.2986 11.4163L16.3593 10.3556ZM17.4178 6.4697C17.1249 6.17679 16.6501 6.17676 16.3572 6.46964C16.0643 6.76252 16.0642 7.23739 16.3571 7.5303L17.4178 6.4697ZM12.4731 11.4134C12.1802 11.1205 11.7053 11.1205 11.4124 11.4134C11.1195 11.7063 11.1195 12.1812 11.4124 12.4741L12.4731 11.4134ZM11.4756 20.3039L7.53033 16.3587L6.46967 17.4194L10.4149 21.3646L11.4756 20.3039ZM14.1224 18.0117L11.4158 15.3001L10.3541 16.3598L13.0607 19.0714L14.1224 18.0117ZM19.0684 13.0647L16.3593 10.3556L15.2986 11.4163L18.0077 14.1253L19.0684 13.0647ZM21.3636 10.4159L17.4178 6.4697L16.3571 7.5303L20.3029 11.4765L21.3636 10.4159ZM16.5964 15.5367L12.4731 11.4134L11.4124 12.4741L15.5357 16.5974L16.5964 15.5367Z" fill="#292556"/>
</svg>
