<svg width="24" height="24" viewBox="0 0 24 24" fill="none" xmlns="http://www.w3.org/2000/svg">
<path d="M8.25 3C8.25 4.11561 8.52941 5.09007 9.21967 5.78033C9.25315 5.81381 9.2873 5.84633 9.32211 5.87789C8.06074 6.48582 6.95984 7.49108 6.08875 8.69683C4.63962 10.7027 3.75 13.3563 3.75 16C3.75 19.0418 5.82904 21.75 8.66667 21.75H15.3333C18.171 21.75 20.25 19.0418 20.25 16C20.25 13.3563 19.3604 10.7027 17.9112 8.69683C17.0402 7.49108 15.9393 6.48582 14.6779 5.87789C14.7127 5.84633 14.7468 5.81381 14.7803 5.78033C15.4706 5.09007 15.75 4.11561 15.75 3C15.75 2.58579 15.4142 2.25 15 2.25H9C8.58579 2.25 8.25 2.58579 8.25 3Z" fill="#292556" fill-opacity="0.18"/>
<path d="M12 10.5H13.255C14.2187 10.5 15 11.2813 15 12.245V12.25M12 10.5H10.75C9.7835 10.5 9 11.2835 9 12.25C9 13.2165 9.7835 14 10.75 14H12M12 10.5V9.5M12 10.5V14M12 14V17.5M12 14H13.25C14.2165 14 15 14.7835 15 15.75C15 16.7165 14.2165 17.5 13.25 17.5H12M12 17.5H10.75C9.7835 17.5 9 16.7165 9 15.75M12 17.5V18.5" stroke="#292556" stroke-width="1.5" stroke-linecap="round" stroke-linejoin="round"/>
</svg>
