<svg width="24" height="24" viewBox="0 0 24 24" fill="none" xmlns="http://www.w3.org/2000/svg">
<path d="M8.25 3C8.25 4.11561 8.52941 5.09007 9.21967 5.78033C9.25315 5.81381 9.2873 5.84633 9.32211 5.87789C8.06074 6.48582 6.95984 7.49108 6.08875 8.69683C4.63962 10.7027 3.75 13.3563 3.75 16C3.75 19.0418 5.82904 21.75 8.66667 21.75H15.3333C18.171 21.75 20.25 19.0418 20.25 16C20.25 13.3563 19.3604 10.7027 17.9112 8.69683C17.0402 7.49108 15.9393 6.48582 14.6779 5.87789C14.7127 5.84633 14.7468 5.81381 14.7803 5.78033C15.4706 5.09007 15.75 4.11561 15.75 3C15.75 2.58579 15.4142 2.25 15 2.25H9C8.58579 2.25 8.25 2.58579 8.25 3Z" fill="#292556" fill-opacity="0.18"/>
<path d="M15.0744 14.5825L15.1761 14.5048C15.9658 13.9015 16.3606 13.5999 16.464 13.3569C16.6628 12.8892 16.4793 12.3468 16.0374 12.0959C15.8078 11.9656 15.3042 11.9656 14.2969 11.9656C14.0981 11.9656 13.9987 11.9656 13.9122 11.9447C13.7154 11.8974 13.5461 11.7725 13.4428 11.5985C13.3974 11.522 13.3684 11.4282 13.3104 11.2406C13.0264 10.3215 12.8844 9.86191 12.7165 9.68949C12.3239 9.28624 11.6761 9.28624 11.2835 9.68949C11.1156 9.86191 10.9736 10.3215 10.6896 11.2406L10.6896 11.2406C10.6316 11.4282 10.6026 11.522 10.5572 11.5985C10.4539 11.7725 10.2846 11.8974 10.0878 11.9447C10.0013 11.9656 9.90189 11.9656 9.70309 11.9656C8.69584 11.9656 8.19222 11.9656 7.96257 12.0959C7.52067 12.3468 7.33719 12.8892 7.53604 13.3569C7.63938 13.5999 8.03422 13.9015 8.82389 14.5048L8.92556 14.5825L8.92556 14.5825C9.09434 14.7114 9.17873 14.7759 9.23838 14.8526C9.34729 14.9927 9.40298 15.167 9.39554 15.3443C9.39146 15.4414 9.36011 15.5429 9.2974 15.7458L9.2443 15.9176C8.97287 16.796 8.83715 17.2352 8.87494 17.467C8.96566 18.0234 9.49823 18.3949 10.0518 18.2879C10.2824 18.2433 10.6476 17.9642 11.3782 17.4061C11.5368 17.285 11.6161 17.2244 11.6984 17.1882C11.8906 17.1038 12.1094 17.1038 12.3016 17.1882C12.3839 17.2244 12.4632 17.285 12.6218 17.4061L12.6218 17.4061C13.3524 17.9642 13.7176 18.2433 13.9482 18.2879C14.5018 18.3949 15.0343 18.0234 15.1251 17.467C15.1628 17.2352 15.0271 16.796 14.7557 15.9177L14.7557 15.9176L14.7026 15.7458L14.7026 15.7458C14.6399 15.5429 14.6085 15.4414 14.6045 15.3443C14.597 15.167 14.6527 14.9927 14.7616 14.8526C14.8213 14.7759 14.9057 14.7114 15.0744 14.5825Z" fill="#292556"/>
</svg>
