<svg width="24" height="24" viewBox="0 0 24 24" fill="none" xmlns="http://www.w3.org/2000/svg">
<path d="M8.69584 5.00721C8.24353 4.94765 7.93081 5.0616 7.5798 5.41388C7.05987 5.93569 7.12344 6.99537 7.12179 7.43882" stroke="#292556" stroke-width="1.5" stroke-linecap="round" stroke-linejoin="round"/>
<path d="M17.199 5.24352C15.7902 5.24352 14.6481 6.58725 14.6481 8.24482C14.6476 8.89381 14.6481 9.25 15 9.25H19.6034C19.6983 8.93574 19.75 8.59738 19.75 8.24482C19.75 6.58725 18.6079 5.24352 17.199 5.24352Z" fill="#292556"/>
<path d="M10.1171 6.26908C10.7047 3.68903 12.184 1.91368 13.4213 2.30373C14.0336 2.49675 14.4718 3.18386 14.6872 4.14143H13.4111C12.9968 4.14143 12.6611 4.47722 12.6611 4.89143C12.6611 5.30564 12.9968 5.64143 13.4111 5.64143H14.838C14.8368 5.9759 14.8153 6.3241 14.7721 6.68071L13.1846 6.68071C12.7704 6.68071 12.4346 7.01649 12.4346 7.43071C12.4346 7.84492 12.7704 8.18071 13.1846 8.18071L14.4882 8.18071C14.4003 8.54056 14.2665 8.91043 13.9375 9.25H4.3595C4.3595 9.25 4.11202 9.17633 4.36116 8.14058C4.61031 7.10484 5.2215 6.22575 6.21578 6.28598C6.41348 6.29795 6.55423 6.40021 6.6947 6.50227C6.84357 6.61042 6.99213 6.71835 7.20782 6.71835C7.42351 6.71835 7.57207 6.61042 7.72094 6.50227C7.86141 6.40021 8.00216 6.29795 8.19986 6.28598C9.03269 6.23553 9.59674 6.84412 9.90438 7.65178C9.93988 7.20406 10.01 6.73944 10.1171 6.26908Z" fill="#292556"/>
<path fill-rule="evenodd" clip-rule="evenodd" d="M15.8892 19.9847C19.0916 19.2072 21.5423 16.7807 21.75 13.25C21.75 11.8693 20.6307 10.75 19.25 10.75H4.75C3.36929 10.75 2.25 11.8693 2.25 13.25C2.41621 16.7819 4.89598 19.2088 8.11046 19.9855C8.0395 20.1424 8 20.3166 8 20.5C8 21.1904 8.55964 21.75 9.25 21.75H14.75C15.4404 21.75 16 21.1904 16 20.5C16 20.3163 15.9604 20.1418 15.8892 19.9847Z" fill="#292556" fill-opacity="0.18"/>
</svg>
