<svg width="24" height="24" viewBox="0 0 24 24" fill="none" xmlns="http://www.w3.org/2000/svg">
<path d="M13.9899 8.94935L12.9588 9.98043L12.8371 9.85873C12.3068 9.32844 12.0417 9.06329 11.7208 9.01246C11.6171 8.99605 11.5115 8.99605 11.4079 9.01246C11.087 9.06329 10.8218 9.32844 10.2915 9.85873L3.36428 16.786C2.30123 17.849 2.30123 19.5726 3.36428 20.6356C4.42733 21.6987 6.15088 21.6987 7.21393 20.6356L14.1412 13.7084C14.6715 13.1781 14.9366 12.9129 14.9875 12.592C15.0039 12.4884 15.0039 12.3828 14.9875 12.2792C14.9366 11.9582 14.6715 11.6931 14.1412 11.1628L14.0195 11.0411L15.0506 10.01L13.9899 8.94935Z" fill="#292556" fill-opacity="0.18"/>
<path d="M19.0559 2.1404L14.391 6.8053C13.8607 7.33559 13.5955 7.60074 13.5447 7.92166C13.5283 8.0253 13.5283 8.13089 13.5447 8.23453C13.5955 8.55545 13.8607 8.8206 14.391 9.35089L14.6492 9.60908C15.1794 10.1394 15.4446 10.4045 15.7655 10.4553C15.8692 10.4718 15.9747 10.4718 16.0784 10.4553C16.3993 10.4045 16.6644 10.1394 17.1947 9.60908L20.4578 6.34607C21.6191 5.1847 21.6191 3.30176 20.4578 2.1404C20.0706 1.75328 19.443 1.75328 19.0559 2.1404Z" fill="#292556"/>
</svg>
