<svg width="24" height="24" viewBox="0 0 24 24" fill="none" xmlns="http://www.w3.org/2000/svg">
<path d="M12 21H5M12 21H19M12 21V5M12 5V3M12 5H6M12 5H18M6 5L3 13M6 5L9 13M18 5L15 13M18 5L21 13" stroke="#292556" stroke-opacity="0.18" stroke-width="1.5" stroke-linecap="round" stroke-linejoin="round"/>
<path d="M3 12.25C2.58579 12.25 2.25 12.5858 2.25 13V13C2.25 15.0711 3.92893 16.75 6 16.75C8.07107 16.75 9.75 15.0711 9.75 13V13C9.75 12.5858 9.41421 12.25 9 12.25H3Z" fill="#292556"/>
<path d="M15 12.25C14.5858 12.25 14.25 12.5858 14.25 13V13C14.25 15.0711 15.9289 16.75 18 16.75C20.0711 16.75 21.75 15.0711 21.75 13V13C21.75 12.5858 21.4142 12.25 21 12.25H15Z" fill="#292556"/>
</svg>
