<svg width="24" height="24" viewBox="0 0 24 24" fill="none" xmlns="http://www.w3.org/2000/svg">
<path fill-rule="evenodd" clip-rule="evenodd" d="M5.69824 3.46387C3.76525 3.46387 2.19824 5.03087 2.19824 6.96387C2.19824 8.85005 3.69027 10.3878 5.55847 10.4611L9.68722 11.9639L5.55847 13.4666C3.69027 13.54 2.19824 15.0777 2.19824 16.9639C2.19824 18.8969 3.76525 20.4639 5.69824 20.4639C7.63124 20.4639 9.19824 18.8969 9.19824 16.9639C9.19824 15.8524 8.68012 14.8619 7.87223 14.2207L11.0447 13.0661L10.6331 11.9352L11.0262 10.855L7.87223 9.707C8.68012 9.06586 9.19824 8.07537 9.19824 6.96387C9.19824 5.03087 7.63124 3.46387 5.69824 3.46387ZM21.2638 9.3466C21.653 9.20494 21.8537 8.77455 21.7121 8.38532C21.5704 7.99609 21.14 7.7954 20.7508 7.93707L12.8815 10.8012L13.2928 11.9314L12.8606 13.1189L20.7693 15.9974C21.1586 16.1391 21.5889 15.9384 21.7306 15.5492C21.8723 15.1599 21.6716 14.7296 21.2823 14.5879L14.0729 11.9639L21.2638 9.3466Z" fill="#292556" fill-opacity="0.18"/>
<path d="M13.75 12C13.75 12.9665 12.9665 13.75 12 13.75C11.0335 13.75 10.25 12.9665 10.25 12C10.25 11.0335 11.0335 10.25 12 10.25C12.9665 10.25 13.75 11.0335 13.75 12Z" fill="#292556"/>
</svg>
