<svg width="24" height="24" viewBox="0 0 24 24" fill="none" xmlns="http://www.w3.org/2000/svg">
<path d="M21.5306 3.53034C21.8235 3.23745 21.8235 2.76258 21.5306 2.46968C21.2377 2.17678 20.7629 2.17677 20.47 2.46966L21.5306 3.53034ZM20.47 2.46966L12.997 9.94232L14.0577 11.003L21.5306 3.53034L20.47 2.46966Z" fill="#292556"/>
<path d="M13.5304 14.5304C14.2711 13.7898 14.6414 13.4194 14.7667 12.9874C14.859 12.6691 14.859 12.3311 14.7667 12.0129C14.6414 11.5808 14.2711 11.2105 13.5304 10.4698V10.4698C12.7898 9.72911 12.4194 9.35878 11.9874 9.23352C11.6691 9.14126 11.3311 9.14126 11.0129 9.23352C10.5808 9.35878 10.2105 9.72911 9.46978 10.4698L3.46978 16.4698C3.06142 16.8781 2.85724 17.0823 2.72536 17.2888C2.25346 18.0274 2.25346 18.9728 2.72536 19.7115C2.85724 19.9179 3.06142 20.1221 3.46978 20.5304V20.5304C3.87815 20.9388 4.08233 21.143 4.28875 21.2749C5.02739 21.7468 5.97284 21.7468 6.71147 21.2749C6.9179 21.143 7.12208 20.9388 7.53044 20.5304L13.5304 14.5304Z" fill="#292556" fill-opacity="0.18"/>
</svg>
