<svg width="24" height="24" viewBox="0 0 24 24" fill="none" xmlns="http://www.w3.org/2000/svg">
<path d="M20.4693 21.5308C20.7624 21.8234 21.2373 21.823 21.53 21.5299C21.8226 21.2368 21.8222 20.7619 21.5291 20.4692L20.4693 21.5308ZM21.5291 20.4692L17.8483 16.7944L16.7885 17.856L20.4693 21.5308L21.5291 20.4692Z" fill="#292556"/>
<path d="M2.25 10.5C2.25 7.22391 2.25 5.58586 3.02346 4.402C3.38272 3.85211 3.85211 3.38272 4.402 3.02346C5.58586 2.25 7.22391 2.25 10.5 2.25V2.25C13.7761 2.25 15.4141 2.25 16.598 3.02346C17.1479 3.38272 17.6173 3.85211 17.9765 4.402C18.75 5.58586 18.75 7.22391 18.75 10.5V10.5C18.75 13.7761 18.75 15.4141 17.9765 16.598C17.6173 17.1479 17.1479 17.6173 16.598 17.9765C15.4141 18.75 13.7761 18.75 10.5 18.75V18.75C7.22391 18.75 5.58586 18.75 4.402 17.9765C3.85211 17.6173 3.38272 17.1479 3.02346 16.598C2.25 15.4141 2.25 13.7761 2.25 10.5V10.5Z" fill="#292556" fill-opacity="0.18"/>
</svg>
