<svg width="24" height="24" viewBox="0 0 24 24" fill="none" xmlns="http://www.w3.org/2000/svg">
<path d="M20.4706 21.5316C20.7635 21.8245 21.2383 21.8245 21.5313 21.5317C21.8242 21.2388 21.8242 20.7639 21.5313 20.471L20.4706 21.5316ZM21.5313 20.471L18.5304 17.4697L17.4696 18.5303L20.4706 21.5316L21.5313 20.471Z" fill="#292556" fill-opacity="0.18"/>
<path d="M20.7479 11.5C20.7479 16.6086 16.607 20.75 11.4989 20.75C6.39089 20.75 2.25 16.6086 2.25 11.5C2.25 6.39137 6.39089 2.25 11.4989 2.25C16.607 2.25 20.7479 6.39137 20.7479 11.5Z" fill="#292556" fill-opacity="0.18"/>
<path d="M8.51953 11.5195L10.5195 13.5195L14.5195 9.51953" stroke="#292556" stroke-width="1.5" stroke-linecap="round" stroke-linejoin="round"/>
</svg>
