<svg width="24" height="24" viewBox="0 0 24 24" fill="none" xmlns="http://www.w3.org/2000/svg">
<path d="M3.29055 13.75C3.58516 18.0848 7.29117 21.7499 12 21.7499C16.7089 21.7499 20.4148 18.0848 20.7095 13.75H3.29055Z" fill="#292556" fill-opacity="0.18"/>
<path d="M9.75 4.5C9.75 3.25736 10.7574 2.25 12 2.25C13.2426 2.25 14.25 3.25736 14.25 4.5C14.25 5.4797 13.6238 6.31315 12.7499 6.622V8.25H15.2499V7C15.2499 6.80109 15.3289 6.61032 15.4696 6.46967L15.9084 6.03086C15.8065 5.79088 15.75 5.52686 15.75 5.25C15.75 4.14543 16.6454 3.25 17.75 3.25C18.8546 3.25 19.75 4.14543 19.75 5.25C19.75 6.35457 18.8546 7.25 17.75 7.25C17.4731 7.25 17.209 7.19347 16.969 7.09156L16.7499 7.31066V8.25H19.75C20.4501 8.25 20.8001 8.25 21.0675 8.38624C21.3027 8.50608 21.4939 8.69731 21.6138 8.93251C21.75 9.1999 21.75 9.54993 21.75 10.25V10.25C21.75 10.9501 21.75 11.3001 21.6138 11.5675C21.4939 11.8027 21.3027 11.9939 21.0675 12.1138C20.8001 12.25 20.4501 12.25 19.75 12.25H4.25C3.54993 12.25 3.1999 12.25 2.93251 12.1138C2.69731 11.9939 2.50608 11.8027 2.38624 11.5675C2.25 11.3001 2.25 10.9501 2.25 10.25V10.25C2.25 9.54993 2.25 9.1999 2.38624 8.93251C2.50608 8.69731 2.69731 8.50608 2.93251 8.38624C3.1999 8.25 3.54993 8.25 4.25 8.25H7.24991V7.31066L7.03086 7.09162C6.79088 7.19349 6.52686 7.25 6.25 7.25C5.14543 7.25 4.25 6.35457 4.25 5.25C4.25 4.14543 5.14543 3.25 6.25 3.25C7.35457 3.25 8.25 4.14543 8.25 5.25C8.25 5.52691 8.19347 5.79098 8.09156 6.03099L8.53024 6.46967C8.67089 6.61032 8.74991 6.80109 8.74991 7V8.25H11.2499V6.62194C10.3761 6.31303 9.75 5.47963 9.75 4.5Z" fill="#292556" fill-opacity="0.18"/>
<path d="M12 15.5C10.7574 15.5 9.75 16.5074 9.75 17.75C9.75 18.9926 10.7574 20 12 20C13.2426 20 14.25 18.9926 14.25 17.75C14.25 16.5074 13.2426 15.5 12 15.5Z" fill="#292556"/>
</svg>
