<svg width="24" height="24" viewBox="0 0 24 24" fill="none" xmlns="http://www.w3.org/2000/svg">
<path d="M2.25 19.25C2.25 18.2835 3.0335 17.5 4 17.5H20C20.9665 17.5 21.75 18.2835 21.75 19.25V19.25C21.75 20.2165 20.9665 21 20 21H4C3.0335 21 2.25 20.2165 2.25 19.25V19.25Z" fill="#292556"/>
<path d="M9.5 9.69141C8.11785 10.5297 7.08818 11.891 6.68555 13.5008" stroke="#292556" stroke-width="1.5" stroke-linecap="round" stroke-linejoin="round"/>
<path d="M3.25 14.4773V15.1C3.25 15.475 3.25 15.6625 3.34549 15.7939C3.37633 15.8363 3.41366 15.8737 3.45611 15.9045C3.58754 16 3.77503 16 4.15 16H19.85C20.225 16 20.4125 16 20.5439 15.9045C20.5863 15.8737 20.6237 15.8363 20.6545 15.7939C20.75 15.6625 20.75 15.475 20.75 15.1V14.4773C20.75 10.3521 17.8805 6.8954 14.0237 5.98459C14.1687 5.6872 14.25 5.3531 14.25 5C14.25 3.75736 13.2426 2.75 12 2.75C10.7574 2.75 9.75 3.75736 9.75 5C9.75 5.3531 9.83134 5.6872 9.97629 5.98459C6.11953 6.8954 3.25 10.3521 3.25 14.4773Z" fill="#292556" fill-opacity="0.18"/>
</svg>
