<svg width="24" height="24" viewBox="0 0 24 24" fill="none" xmlns="http://www.w3.org/2000/svg">
<path d="M10.8 21.75H13.2C16.7622 21.75 18.5434 21.75 19.792 20.8428C20.1952 20.5499 20.5499 20.1952 20.8428 19.792C21.75 18.5434 21.75 16.7622 21.75 13.2V10.8C21.75 7.23775 21.75 5.45663 20.8428 4.20802C20.5499 3.80477 20.1952 3.45015 19.792 3.15717C18.5434 2.25 16.7622 2.25 13.2 2.25H10.8C7.23775 2.25 5.45663 2.25 4.20802 3.15717C3.80477 3.45015 3.45015 3.80477 3.15717 4.20802C2.25 5.45663 2.25 7.23775 2.25 10.8V13.2C2.25 16.7622 2.25 18.5434 3.15717 19.792C3.45015 20.1952 3.80477 20.5499 4.20802 20.8428C5.45663 21.75 7.23775 21.75 10.8 21.75Z" fill="#292556" fill-opacity="0.18"/>
<path d="M17.1994 11.7147C18.0238 11.1259 18.436 10.8314 18.5115 10.439C18.5355 10.3141 18.5355 10.1859 18.5115 10.061C18.436 9.66857 18.0238 9.37414 17.1994 8.78528L13.6731 6.26651C13.1243 5.87453 12.85 5.67855 12.6233 5.73791C12.5524 5.75649 12.4864 5.79045 12.43 5.83737C12.25 5.9873 12.25 6.32449 12.25 6.99887V8.25C8.35723 8.48431 5.25012 10.7875 5.25 14.75C5.24997 15.7027 5.64665 16.7671 6.14057 17.7232V17.7232C6.47191 18.3646 7.25 18.077 7.25 17.3551V17.25C7.25066 14.381 9.44682 12.4711 12.25 12.268V13.5011C12.25 14.1755 12.25 14.5127 12.43 14.6626C12.4864 14.7096 12.5524 14.7435 12.6233 14.7621C12.85 14.8215 13.1243 14.6255 13.6731 14.2335L17.1994 11.7147Z" fill="#292556"/>
</svg>
