<svg width="24" height="24" viewBox="0 0 24 24" fill="none" xmlns="http://www.w3.org/2000/svg">
<path d="M12 22.2516C16.8387 22.2516 20.0177 17.1395 21.229 11.3823C21.5332 9.93664 21.6853 9.21379 21.4112 8.29932C21.3331 8.03855 21.1747 7.67983 21.0346 7.4464C20.5434 6.62782 19.7728 6.17444 18.2316 5.2677L15.4227 3.61523C13.9432 2.74479 13.2034 2.30957 12.3981 2.22359C12.1334 2.19534 11.8666 2.19534 11.6019 2.22359C10.7966 2.30957 10.0568 2.74479 8.57726 3.61523L5.76845 5.2677C4.22721 6.17444 3.45659 6.62782 2.9654 7.4464C2.82533 7.67983 2.66693 8.03855 2.58878 8.29932C2.31472 9.21379 2.46681 9.93664 2.77099 11.3823C3.9823 17.1395 7.16129 22.2516 12 22.2516Z" fill="#292556" fill-opacity="0.18"/>
<path d="M9.5 12.5L10.3338 13.6118C10.6055 13.9741 10.7414 14.1552 10.9229 14.195C10.981 14.2077 11.0409 14.2099 11.0998 14.2016C11.2838 14.1756 11.4329 14.0052 11.7311 13.6644L14.5 10.5" stroke="#292556" stroke-width="1.5" stroke-linecap="round" stroke-linejoin="round"/>
</svg>
