<svg width="24" height="24" viewBox="0 0 24 24" fill="none" xmlns="http://www.w3.org/2000/svg">
<path d="M12 22.2516C16.8387 22.2516 20.0177 17.1395 21.229 11.3823C21.5332 9.93664 21.6853 9.21379 21.4112 8.29932C21.3331 8.03855 21.1747 7.67983 21.0346 7.4464C20.5434 6.62782 19.7728 6.17444 18.2316 5.2677L15.4227 3.61523C13.9432 2.74479 13.2034 2.30957 12.3981 2.22359C12.1334 2.19534 11.8666 2.19534 11.6019 2.22359C10.7966 2.30957 10.0568 2.74479 8.57726 3.61523L5.76845 5.2677C4.22721 6.17444 3.45659 6.62782 2.9654 7.4464C2.82533 7.67983 2.66693 8.03855 2.58878 8.29932C2.31472 9.21379 2.46681 9.93664 2.77099 11.3823C3.9823 17.1395 7.16129 22.2516 12 22.2516Z" fill="#292556" fill-opacity="0.18"/>
<path d="M13.9444 10.5V9.94444C13.9444 8.87056 13.0739 8 12 8V8C10.9261 8 10.0556 8.87056 10.0556 9.94444V10.5M11.25 16H12.75C13.4478 16 13.7967 16 14.0806 15.9139C14.7198 15.72 15.22 15.2198 15.4139 14.5806C15.5 14.2967 15.5 13.9478 15.5 13.25V13.25C15.5 12.5522 15.5 12.2033 15.4139 11.9194C15.22 11.2802 14.7198 10.78 14.0806 10.5861C13.7967 10.5 13.4478 10.5 12.75 10.5H11.25C10.5522 10.5 10.2033 10.5 9.91943 10.5861C9.28023 10.78 8.78002 11.2802 8.58612 11.9194C8.5 12.2033 8.5 12.5522 8.5 13.25V13.25C8.5 13.9478 8.5 14.2967 8.58612 14.5806C8.78002 15.2198 9.28023 15.72 9.91943 15.9139C10.2033 16 10.5522 16 11.25 16Z" stroke="#292556" stroke-width="1.5" stroke-linecap="round" stroke-linejoin="round"/>
</svg>
