<svg width="24" height="24" viewBox="0 0 24 24" fill="none" xmlns="http://www.w3.org/2000/svg">
<path d="M11 21.75H13C15.8123 21.75 17.2184 21.75 18.2042 21.0338C18.5225 20.8025 18.8025 20.5226 19.0338 20.2042C19.75 19.2184 19.75 17.8123 19.75 15V11.2348C19.75 10.1435 19.75 9.59782 19.6017 9.08626C19.5526 8.9168 19.4915 8.75102 19.4191 8.59016C19.2003 8.10454 18.8465 7.68911 18.1389 6.85827L16.2356 4.62346L16.2356 4.62345C15.3533 3.58748 14.9122 3.06949 14.343 2.7442C14.1551 2.63679 13.9582 2.54585 13.7546 2.47241C13.1379 2.25 12.4473 2.25 11.0662 2.25C8.20976 2.25 6.78155 2.25 5.79581 2.96619C5.47745 3.19748 5.19748 3.47745 4.96619 3.79581C4.25 4.78155 4.25 6.1877 4.25 9V15C4.25 17.8123 4.25 19.2184 4.96619 20.2042C5.19748 20.5226 5.47745 20.8025 5.79581 21.0338C6.78155 21.75 8.1877 21.75 11 21.75Z" fill="#292556" fill-opacity="0.18"/>
<path d="M9 7V10M13 7V10" stroke="#292556" stroke-width="1.5" stroke-linecap="round" stroke-linejoin="round"/>
</svg>
