<svg width="24" height="24" viewBox="0 0 24 24" fill="none" xmlns="http://www.w3.org/2000/svg">
<path d="M7.66667 2.25C4.67512 2.25 2.25 4.67512 2.25 7.66667C2.25 8.85439 2.63227 9.95283 3.2805 10.8457C3.33013 10.914 3.35495 10.9482 3.36705 10.9825C3.37136 10.9947 3.37406 11.0046 3.37656 11.0173C3.3836 11.053 3.37973 11.094 3.37199 11.1761C3.34641 11.4473 3.33333 11.7221 3.33333 12C3.33333 16.7865 7.21353 20.6667 12 20.6667C12.2779 20.6667 12.5527 20.6536 12.8239 20.628C12.906 20.6203 12.947 20.6164 12.9827 20.6234C12.9954 20.6259 13.0053 20.6286 13.0175 20.633C13.0518 20.6451 13.086 20.6699 13.1543 20.7195C14.0472 21.3677 15.1456 21.75 16.3333 21.75C19.3249 21.75 21.75 19.3249 21.75 16.3333C21.75 15.1456 21.3677 14.0472 20.7195 13.1543C20.6699 13.086 20.6451 13.0518 20.633 13.0175C20.6286 13.0053 20.6259 12.9954 20.6234 12.9827C20.6164 12.947 20.6203 12.906 20.628 12.8239C20.6536 12.5527 20.6667 12.2779 20.6667 12C20.6667 7.21353 16.7865 3.33333 12 3.33333C11.7221 3.33333 11.4473 3.34641 11.1761 3.37199C11.094 3.37973 11.053 3.3836 11.0173 3.37656C11.0046 3.37406 10.9947 3.37136 10.9825 3.36705C10.9482 3.35495 10.914 3.33013 10.8457 3.2805C9.95283 2.63227 8.85439 2.25 7.66667 2.25Z" fill="#292556" fill-opacity="0.18"/>
<path d="M15 9.5C15 8.11929 13.6569 7 12 7C10.3431 7 9 8.11929 9 9.5C9 10.8807 10.3431 12 12 12C13.6569 12 15 13.1193 15 14.5C15 15.8807 13.6569 17 12 17C10.3431 17 9 15.8807 9 14.5" stroke="#292556" stroke-width="1.5" stroke-linecap="round"/>
</svg>
