<svg width="24" height="24" viewBox="0 0 24 24" fill="none" xmlns="http://www.w3.org/2000/svg">
<path d="M2.25 10.8C2.25 7.23775 2.25 5.45663 3.15717 4.20802C3.45015 3.80477 3.80477 3.45015 4.20802 3.15717C5.45663 2.25 7.23775 2.25 10.8 2.25H13.2C16.7622 2.25 18.5434 2.25 19.792 3.15717C20.1952 3.45015 20.5499 3.80477 20.8428 4.20802C21.75 5.45663 21.75 7.23775 21.75 10.8V13.2C21.75 16.7622 21.75 18.5434 20.8428 19.792C20.5499 20.1952 20.1952 20.5499 19.792 20.8428C18.5434 21.75 16.7622 21.75 13.2 21.75H10.8C7.23775 21.75 5.45663 21.75 4.20802 20.8428C3.80477 20.5499 3.45015 20.1952 3.15717 19.792C2.25 18.5434 2.25 16.7622 2.25 13.2V10.8Z" fill="#292556" fill-opacity="0.18"/>
<path d="M7.40409 10.2627L8.61539 10.4557L8.61523 8.67292C8.61523 6.92057 10.1306 5.5 11.9998 5.5C13.8691 5.5 15.3845 6.92057 15.3845 8.67292L15.3846 10.4557L16.5959 10.2627C17.1087 10.181 17.5996 10.5022 17.73 11.0047C17.8763 11.568 17.5165 12.1377 16.9451 12.2477L15.5 12.526C15.472 14.9639 16.9637 15.5 18.5 15.5C17.4782 17.4105 15.6403 17.5688 14.5 17.5C13 18.8384 11 18.8392 9.5 17.5C8.34864 17.5712 6.48932 17.4176 5.5 15.5C7.03631 15.5 8.52797 14.9639 8.5 12.526L7.05489 12.2477C6.48349 12.1377 6.12373 11.568 6.26995 11.0047C6.40042 10.5022 6.89134 10.181 7.40409 10.2627Z" fill="#292556"/>
</svg>
