<svg width="24" height="24" viewBox="0 0 24 24" fill="none" xmlns="http://www.w3.org/2000/svg">
<path d="M12.0005 8L12.0005 6M15.4646 10L17.1966 9.00001M15.4646 14L17.1966 15M12.0005 16V18M8.53639 14L6.80434 15M8.53639 10L6.80431 8.99998M12.0005 3L12.0005 6M12.0005 21V18M19.7947 16.5L17.1966 15M4.20626 7.5L6.80431 8.99998M19.7947 7.5L17.1966 9.00001M4.20626 16.5L6.80434 15M6.80434 15L4.07226 14.268M6.80434 15L6.07223 17.7321M17.1966 9.00001L17.9287 6.26798M17.1966 9.00001L19.9287 9.73208M12.0005 6L14.0005 4M12.0005 6L10.0005 4M14.0005 20L12.0005 18M12.0005 18L10.0005 20M6.80431 8.99998L6.07228 6.2679M6.80431 8.99998L4.07228 9.732M17.1966 15L19.9287 14.2679M17.1966 15L17.9287 17.732" stroke="#292556" stroke-opacity="0.18" stroke-width="1.5" stroke-linecap="round" stroke-linejoin="round"/>
<path d="M11.561 7.49535C11.7512 7.38904 11.8463 7.33588 11.9491 7.32537C11.983 7.32191 12.017 7.32191 12.0509 7.32537C12.1537 7.33588 12.2488 7.38904 12.439 7.49535L15.789 9.3674C15.9883 9.47877 16.088 9.53445 16.152 9.62108C16.1731 9.64955 16.191 9.68017 16.2056 9.71244C16.25 9.81062 16.25 9.92476 16.25 10.1531V13.8469C16.25 14.0752 16.25 14.1894 16.2056 14.2876C16.191 14.3198 16.1731 14.3504 16.152 14.3789C16.088 14.4655 15.9883 14.5212 15.789 14.6326L12.439 16.5047C12.2488 16.611 12.1537 16.6641 12.0509 16.6746C12.017 16.6781 11.983 16.6781 11.9491 16.6746C11.8463 16.6641 11.7512 16.611 11.561 16.5047L8.21096 14.6326C8.01168 14.5212 7.91204 14.4655 7.84798 14.3789C7.82692 14.3504 7.80896 14.3198 7.79437 14.2876C7.75 14.1894 7.75 14.0752 7.75 13.8469V10.1531C7.75 9.92476 7.75 9.81062 7.79437 9.71244C7.80896 9.68017 7.82692 9.64955 7.84798 9.62108C7.91204 9.53445 8.01168 9.47877 8.21096 9.3674L11.561 7.49535Z" fill="#292556"/>
</svg>
