<svg width="24" height="24" viewBox="0 0 24 24" fill="none" xmlns="http://www.w3.org/2000/svg">
<path d="M8.41602 15.584C9.73698 16.9049 10.6506 18.6953 11.2723 21.182C11.3558 21.5159 11.6558 21.7501 11.9999 21.7501C12.3441 21.7501 12.6441 21.5159 12.7275 21.182C13.3492 18.6953 14.2629 16.9049 15.5838 15.584H8.41602Z" fill="#292556"/>
<path d="M12.7276 2.8181C12.6441 2.48422 12.3442 2.25 12 2.25C11.6558 2.25 11.3559 2.48422 11.2724 2.8181C10.6507 5.30476 9.73706 7.09514 8.4161 8.4161C7.09514 9.73706 5.30476 10.6507 2.8181 11.2724C2.48422 11.3559 2.25 11.6558 2.25 12C2.25 12.3442 2.48422 12.6441 2.8181 12.7276C5.30476 13.3493 7.09513 14.2629 8.4161 15.5839H15.5839C16.9049 14.2629 18.6952 13.3493 21.1819 12.7276C21.5158 12.6441 21.75 12.3442 21.75 12C21.75 11.6558 21.5158 11.3559 21.1819 11.2724C18.6952 10.6507 16.9049 9.73706 15.5839 8.4161C14.2629 7.09513 13.3493 5.30476 12.7276 2.8181Z" fill="#292556" fill-opacity="0.18"/>
</svg>
