<svg width="24" height="24" viewBox="0 0 24 24" fill="none" xmlns="http://www.w3.org/2000/svg">
<path d="M5.7876 11.8484L11.6778 5.95816C11.9771 5.65892 12.1267 5.5093 12.2676 5.3986C13.3555 4.54352 14.8872 4.54352 15.9752 5.3986C16.116 5.5093 16.2656 5.65892 16.5649 5.95816V5.95816L16.5962 5.98952M18.2125 12.1515L12.3381 18.0258C12.0241 18.3398 11.8671 18.4968 11.7186 18.6121C10.636 19.4527 9.1214 19.4527 8.03882 18.6121C7.89033 18.4968 7.73333 18.3398 7.41932 18.0258V18.0258L7.40384 18.0103" stroke="#292556" stroke-width="1.5" stroke-linecap="round" stroke-linejoin="round"/>
<path d="M8.9697 4.42383L3.51488 9.87865C2.3433 11.0502 2.3433 12.9497 3.51487 14.1213V14.1213C4.68645 15.2929 6.58594 15.2929 7.75752 14.1213L13.97 7.90885M15.0306 19.5761L20.4854 14.1213C21.657 12.9497 21.657 11.0502 20.4854 9.87865V9.87865C19.3139 8.70708 17.4144 8.70708 16.2428 9.87865L10.0304 16.0911" stroke="#292556" stroke-opacity="0.18" stroke-width="1.5" stroke-linecap="round" stroke-linejoin="round"/>
</svg>
