<svg width="24" height="24" viewBox="0 0 24 24" fill="none" xmlns="http://www.w3.org/2000/svg">
<path d="M17.3699 21.7297H6.5793C5.62402 21.7297 4.84961 20.9553 4.84961 20H19.0996C19.0996 20.9553 18.3252 21.7297 17.3699 21.7297Z" fill="#292556"/>
<path d="M9.11718 11.75H5.625C3.76104 11.75 2.25 13.261 2.25 15.125C2.25 16.989 3.76104 18.5 5.625 18.5H18.3757C20.2397 18.5 21.7507 16.989 21.7507 15.125C21.7507 13.261 20.2397 11.75 18.3757 11.75H14.875L15.6942 6.57896C16.0542 4.30636 14.298 2.25 11.997 2.25C9.69665 2.25 7.94056 4.30544 8.29968 6.57763L9.11718 11.75Z" fill="#292556" fill-opacity="0.18"/>
</svg>
