<svg width="24" height="24" viewBox="0 0 24 24" fill="none" xmlns="http://www.w3.org/2000/svg">
<path d="M19.0126 15.2841L18.7782 14.6426H5.2267L4.99225 15.2841C4.48778 16.6646 4.23554 17.3548 4.19127 17.7349C3.91312 20.1226 6.23367 21.9755 8.50063 21.1758C8.86149 21.0485 9.47875 20.6498 10.7133 19.8523L10.7133 19.8523L10.7133 19.8523C10.9097 19.7254 11.0079 19.662 11.1042 19.6135C11.6694 19.3295 12.3355 19.3295 12.9007 19.6135C12.997 19.662 13.0952 19.7254 13.2916 19.8523L13.2916 19.8523C14.5261 20.6498 15.1434 21.0485 15.5043 21.1758C17.7712 21.9755 20.0918 20.1226 19.8136 17.7349C19.7694 17.3548 19.5171 16.6646 19.0127 15.2842L19.0126 15.2841Z" fill="#292556"/>
<path d="M15.6684 6.13263L15.6212 6.00346L15.6212 6.00342C15.1593 4.73954 14.9283 4.1076 14.727 3.798C13.4452 1.82739 10.5599 1.82739 9.27817 3.798C9.07679 4.1076 8.84585 4.73954 8.38397 6.00342L8.38395 6.00345L8.33564 6.13566C8.29667 6.24231 8.27718 6.29564 8.25692 6.34326C7.95769 7.04688 7.28347 7.51832 6.51988 7.55787C6.4682 7.56054 6.41142 7.56054 6.29787 7.56054C5.60073 7.56054 5.25215 7.56054 5.07876 7.5792C2.26441 7.88211 1.15557 11.3881 3.28394 13.2543C3.41506 13.3692 3.70021 13.5696 4.27051 13.9705L4.27061 13.9705L5.22682 14.6426H18.7783L19.7027 14.0114C20.3065 13.5991 20.6084 13.393 20.745 13.2756C22.8997 11.4244 21.8094 7.89433 18.9861 7.58044C18.8071 7.56054 18.4416 7.56054 17.7105 7.56054C17.5938 7.56054 17.5355 7.56054 17.4824 7.55772C16.7209 7.51721 16.0487 7.04718 15.7493 6.34585C15.7284 6.29697 15.7084 6.24221 15.6684 6.1327L15.6684 6.13263Z" fill="#292556" fill-opacity="0.18"/>
</svg>
