<svg width="24" height="24" viewBox="0 0 24 24" fill="none" xmlns="http://www.w3.org/2000/svg">
<path d="M21.75 12C21.75 17.3848 17.3848 21.75 12 21.75C6.61522 21.75 2.25 17.3848 2.25 12C2.25 6.61522 6.61522 2.25 12 2.25C17.3848 2.25 21.75 6.61522 21.75 12Z" fill="#292556" fill-opacity="0.18"/>
<path d="M8.25 11.4C8.25 10.0876 8.25 9.43139 8.58422 8.97138C8.69216 8.82281 8.82281 8.69216 8.97138 8.58422C9.43139 8.25 10.0876 8.25 11.4 8.25H12.6C13.9124 8.25 14.5686 8.25 15.0286 8.58422C15.1772 8.69216 15.3078 8.82281 15.4158 8.97138C15.75 9.43139 15.75 10.0876 15.75 11.4V12.6C15.75 13.9124 15.75 14.5686 15.4158 15.0286C15.3078 15.1772 15.1772 15.3078 15.0286 15.4158C14.5686 15.75 13.9124 15.75 12.6 15.75H11.4C10.0876 15.75 9.43139 15.75 8.97138 15.4158C8.82281 15.3078 8.69216 15.1772 8.58422 15.0286C8.25 14.5686 8.25 13.9124 8.25 12.6V11.4Z" fill="#292556"/>
</svg>
