<svg width="24" height="24" viewBox="0 0 24 24" fill="none" xmlns="http://www.w3.org/2000/svg">
<path fill-rule="evenodd" clip-rule="evenodd" d="M10 2.25781C9.58579 2.25781 9.25 2.5936 9.25 3.00781C9.25 3.42203 9.58579 3.75781 10 3.75781H11.25L11.25 5.28363C7.04512 5.66255 3.75 9.19647 3.75 13.5C3.75 18.0563 7.44365 21.75 12 21.75C16.5563 21.75 20.25 18.0563 20.25 13.5C20.25 9.19647 16.9549 5.66255 12.75 5.28363V3.75781H14C14.4142 3.75781 14.75 3.42203 14.75 3.00781C14.75 2.5936 14.4142 2.25781 14 2.25781H12H10ZM19.5303 5.47748C19.2374 5.18459 18.7626 5.18459 18.4697 5.47748C18.1768 5.77037 18.1768 6.24525 18.4697 6.53814L19.8839 7.95235C20.1768 8.24525 20.6516 8.24525 20.9445 7.95235C21.2374 7.65946 21.2374 7.18459 20.9445 6.8917L19.5303 5.47748Z" fill="#292556" fill-opacity="0.18"/>
<path fill-rule="evenodd" clip-rule="evenodd" d="M12.75 9.00879C12.75 8.59458 12.4142 8.25879 12 8.25879C11.5858 8.25879 11.25 8.59458 11.25 9.00879V12.4555C10.8016 12.7151 10.5 13.2004 10.5 13.7563C10.5 14.5856 11.1716 15.258 12 15.258C12.8284 15.258 13.5 14.5856 13.5 13.7563C13.5 13.2004 13.1984 12.7151 12.75 12.4555V9.00879Z" fill="#292556"/>
</svg>
