<svg width="24" height="24" viewBox="0 0 24 24" fill="none" xmlns="http://www.w3.org/2000/svg">
<path d="M12 21.7501C15.625 21.7501 19.25 14.5681 19.25 10.3827C19.25 9.6544 19.1263 9.03175 18.9054 8.5L17.1024 10.2207C16.4164 10.8754 16.0735 11.2027 15.6518 11.3202C15.5138 11.3586 15.3717 11.38 15.2286 11.3838C14.7909 11.3955 14.3669 11.1835 13.5188 10.7594L13.4087 10.7044C12.7955 10.3978 12.489 10.2445 12.162 10.2141C12.0542 10.2041 11.9458 10.2041 11.838 10.2141C11.511 10.2445 11.2045 10.3978 10.5913 10.7044L10.4811 10.7594C9.63308 11.1835 9.20905 11.3955 8.77141 11.3838C8.62828 11.38 8.48616 11.3586 8.34824 11.3202C7.92651 11.2027 7.58355 10.8754 6.89763 10.2208L5.09458 8.5C4.87364 9.03172 4.75 9.65446 4.75 10.3827C4.75 14.5681 8.375 21.7501 12 21.7501Z" fill="#292556" fill-opacity="0.18"/>
<path d="M14.5 12.75C14.5 13.1642 14.1642 13.5 13.75 13.5C13.3358 13.5 13 13.1642 13 12.75C13 12.3358 13.3358 12 13.75 12C14.1642 12 14.5 12.3358 14.5 12.75Z" fill="#292556"/>
<path d="M10.75 13.5C10.75 13.9142 10.4142 14.25 10 14.25C9.58579 14.25 9.25 13.9142 9.25 13.5C9.25 13.0858 9.58579 12.75 10 12.75C10.4142 12.75 10.75 13.0858 10.75 13.5Z" fill="#292556"/>
<path d="M12.5 16.75C12.5 17.1642 12.1642 17.5 11.75 17.5C11.3358 17.5 11 17.1642 11 16.75C11 16.3358 11.3358 16 11.75 16C12.1642 16 12.5 16.3358 12.5 16.75Z" fill="#292556"/>
<path d="M11.9999 6C11.4999 5 11.9999 3 14.4999 3" stroke="#292556" stroke-width="1.5" stroke-linecap="round" stroke-linejoin="round"/>
<path d="M7.27352 8.50436L6 7.24686C7.35126 5.59534 9.88814 5.25 11.9991 5.25C14.111 5.25 16.6492 5.59564 18 7.24906L16.7253 8.50591C16.0803 9.14186 15.7578 9.45983 15.3575 9.58685C15.2174 9.63131 15.0722 9.65794 14.9254 9.6661C14.5061 9.68944 14.0916 9.50657 13.2627 9.14083L13.2627 9.14083C12.7148 8.89912 12.4409 8.77826 12.1528 8.75286C12.0505 8.74384 11.9477 8.74384 11.8454 8.75286C11.5573 8.77826 11.2835 8.89908 10.7358 9.14072C9.90736 9.50623 9.49315 9.68898 9.07399 9.66575C8.92654 9.65758 8.78072 9.63078 8.64 9.58598C8.23997 9.45864 7.91782 9.14055 7.27352 8.50436Z" fill="#292556"/>
</svg>
