<svg width="24" height="24" viewBox="0 0 24 24" fill="none" xmlns="http://www.w3.org/2000/svg">
<path fill-rule="evenodd" clip-rule="evenodd" d="M7.5 3.75C6.25736 3.75 5.25 4.75736 5.25 6L5.25 7C5.25 7.41421 5.58579 7.75 6 7.75C6.41421 7.75 6.75 7.41421 6.75 7L6.75 6C6.75 5.58579 7.08579 5.25 7.5 5.25H10.5C10.9142 5.25 11.25 5.58579 11.25 6V7C11.25 7.41421 11.5858 7.75 12 7.75C12.4142 7.75 12.75 7.41421 12.75 7V6C12.75 4.75736 11.7426 3.75 10.5 3.75H7.5ZM8.53033 9.46967C8.23744 9.17678 7.76257 9.17678 7.46967 9.46967C7.17678 9.76256 7.17678 10.2374 7.46967 10.5303L9.46967 12.5303L10.9393 14L7.46992 17.4694C7.17618 17.3289 6.84708 17.25 6.5 17.25C5.25736 17.25 4.25 18.2574 4.25 19.5C4.25 20.7426 5.25736 21.75 6.5 21.75C7.74264 21.75 8.75 20.7426 8.75 19.5C8.75 19.1529 8.6711 18.8238 8.53058 18.5301L12 15.0607L15.4694 18.5301C15.3289 18.8238 15.25 19.1529 15.25 19.5C15.25 20.7426 16.2574 21.75 17.5 21.75C18.7426 21.75 19.75 20.7426 19.75 19.5C19.75 18.2574 18.7426 17.25 17.5 17.25C17.1529 17.25 16.8238 17.3289 16.5301 17.4694L13.0607 14L16.5303 10.5303C16.8232 10.2374 16.8232 9.76256 16.5303 9.46967C16.2374 9.17678 15.7626 9.17678 15.4697 9.46967L12 12.9393L10.5303 11.4697L8.53033 9.46967Z" fill="#292556" fill-opacity="0.18"/>
<path d="M3.67639 2.25C2.88862 2.25 2.25 2.88862 2.25 3.67639V9C2.25 9.9665 3.0335 10.75 4 10.75H20C20.9665 10.75 21.75 9.9665 21.75 9V8C21.75 7.0335 20.9665 6.25 20 6.25H6.58558L6.04863 4.10218C5.77649 3.01364 4.79843 2.25 3.67639 2.25V2.25Z" fill="#292556"/>
</svg>
