<svg width="24" height="24" viewBox="0 0 24 24" fill="none" xmlns="http://www.w3.org/2000/svg">
<path fill-rule="evenodd" clip-rule="evenodd" d="M12.1391 4.03521C11.8463 3.74226 11.3714 3.74216 11.0785 4.03499C10.7855 4.32782 10.7854 4.80269 11.0782 5.09565L12.3395 6.35742L7.22599 11.4709C6.35862 12.3383 6.00517 13.525 6.16565 14.6526L5.45926 15.359C4.76653 16.0517 4.61993 17.0837 5.01946 17.9201L2.46967 20.4699C2.17678 20.7628 2.17678 21.2376 2.46967 21.5305C2.76256 21.8234 3.23744 21.8234 3.53033 21.5305L6.08012 18.9807C6.91647 19.3803 7.94851 19.2337 8.64124 18.5409L9.34835 17.8338L9.34919 17.833C10.4757 17.9922 11.6608 17.6386 12.5272 16.7721L17.6407 11.6586L18.9046 12.922C19.1975 13.2148 19.6724 13.2147 19.9652 12.9217C20.2581 12.6288 20.258 12.1539 19.965 11.8611L18.1708 10.0677L18.1701 10.0669L16.049 7.95294L16.0473 7.95117L13.9313 5.82808L13.9305 5.82731L12.1391 4.03521Z" fill="#292556" fill-opacity="0.18"/>
<path d="M19.4361 4.56717L19.9665 4.03684L19.9665 4.03684L19.4361 4.56717ZM18.4013 2.47162C18.1084 2.17873 17.6335 2.17873 17.3406 2.47162C17.0477 2.76452 17.0477 3.23939 17.3406 3.53228L18.4013 2.47162ZM20.471 6.66272C20.7639 6.95561 21.2388 6.95561 21.5317 6.66272C21.8246 6.36982 21.8246 5.89495 21.5317 5.60206L20.471 6.66272ZM16.5796 8.48433L19.9665 5.0975L18.9058 4.03684L15.519 7.42367L16.5796 8.48433ZM19.9665 4.03684L18.4013 2.47162L17.3406 3.53228L18.9058 5.0975L19.9665 4.03684ZM18.9058 5.0975L20.471 6.66272L21.5317 5.60206L19.9665 4.03684L18.9058 5.0975Z" fill="#292556"/>
</svg>
