<svg width="24" height="24" viewBox="0 0 24 24" fill="none" xmlns="http://www.w3.org/2000/svg">
<path d="M20.1867 9.75526C20.891 6.70313 21.2432 5.17706 20.5944 4.19318C20.3894 3.88227 20.1234 3.61625 19.8124 3.41124C18.8286 2.76246 17.3025 3.11463 14.2504 3.81897L12.7796 4.15838C12.1693 4.29922 11.8642 4.36963 11.5864 4.50389C11.4942 4.54847 11.4045 4.59817 11.3178 4.65275C11.0568 4.81714 10.8353 5.03857 10.3925 5.48144L5.02166 10.8522C3.56336 12.3105 2.83421 13.0397 2.69443 13.9222C2.64929 14.2072 2.64929 14.4976 2.69443 14.7826C2.83421 15.6651 3.56336 16.3943 5.02166 17.8526L6.15303 18.984C7.61134 20.4423 8.34049 21.1714 9.22302 21.3112C9.50804 21.3563 9.79839 21.3563 10.0834 21.3112C10.9659 21.1714 11.6951 20.4423 13.1534 18.984L18.5242 13.6132C18.9671 13.1703 19.1885 12.9489 19.3529 12.6878C19.4075 12.6011 19.4572 12.5114 19.5017 12.4192C19.636 12.1415 19.7064 11.8363 19.8472 11.226L20.1867 9.75526Z" fill="#292556" fill-opacity="0.18"/>
<path d="M11.7779 15.0511L8.94945 12.2227M9.65655 17.1724L6.82812 14.344" stroke="#292556" stroke-width="1.5" stroke-linecap="round" stroke-linejoin="round"/>
<path d="M16.6066 7.39338C15.7279 6.51471 14.3033 6.51471 13.4246 7.39338C12.546 8.27206 12.546 9.69669 13.4246 10.5754C14.3033 11.454 15.7279 11.454 16.6066 10.5754C17.4853 9.69669 17.4853 8.27206 16.6066 7.39338Z" fill="#292556"/>
</svg>
