<svg width="24" height="24" viewBox="0 0 24 24" fill="none" xmlns="http://www.w3.org/2000/svg">
<path d="M13.2873 18.965L18.9374 13.3157C19.2596 12.9936 19.4206 12.8326 19.5402 12.6427C19.5799 12.5796 19.6161 12.5144 19.6485 12.4473C19.7461 12.2453 19.7974 12.0234 19.8998 11.5796L19.8998 11.5795L20.2972 9.85775C21.0016 6.80563 21.3538 5.27958 20.7051 4.29568C20.5001 3.98477 20.2341 3.71874 19.9232 3.51372C18.9393 2.86491 17.4132 3.21704 14.3611 3.92129L12.6379 4.3189C12.1941 4.4213 11.9722 4.4725 11.7702 4.57013C11.7031 4.60254 11.6379 4.63868 11.5748 4.67837C11.385 4.79791 11.2239 4.95892 10.9019 5.28096L10.9019 5.28097L5.25263 10.9294C3.79413 12.3877 3.06488 13.1168 2.92505 13.9994C2.8799 14.2844 2.87989 14.5748 2.92502 14.8598C3.06478 15.7424 3.79398 16.4716 5.25238 17.93L6.28718 18.9648C7.74539 20.423 8.47449 21.1521 9.35697 21.2919C9.64198 21.3371 9.93231 21.3371 10.2173 21.2919C11.0998 21.1522 11.829 20.4231 13.2873 18.965Z" fill="#292556" fill-opacity="0.18"/>
<path d="M16.4474 10.2374C15.764 10.9209 14.6559 10.9209 13.9725 10.2374C13.2891 9.55402 13.2891 8.44598 13.9725 7.76256C14.6559 7.07915 15.764 7.07915 16.4474 7.76256C17.1308 8.44598 17.1308 9.55402 16.4474 10.2374Z" fill="#292556"/>
</svg>
