<svg width="24" height="24" viewBox="0 0 24 24" fill="none" xmlns="http://www.w3.org/2000/svg">
<path d="M2 7C2 8.60256 3.07705 9.95356 4.54677 10.3686C4.35349 11.0458 4.25 11.7608 4.25 12.5C4.25 16.7802 7.71979 20.25 12 20.25C16.2802 20.25 19.75 16.7802 19.75 12.5C19.75 11.7608 19.6465 11.0458 19.4532 10.3686C20.923 9.95355 22 8.60256 22 7C22 5.067 20.433 3.5 18.5 3.5C17.1028 3.5 15.8968 4.3187 15.3356 5.50256C14.3253 5.02011 13.1942 4.75 12 4.75C10.8058 4.75 9.67467 5.02011 8.6644 5.50256C8.10319 4.31871 6.8972 3.5 5.5 3.5C3.567 3.5 2 5.067 2 7Z" fill="#292556" fill-opacity="0.18"/>
<path d="M10.25 11C10.25 11.5523 9.80228 12 9.25 12C8.69772 12 8.25 11.5523 8.25 11C8.25 10.4477 8.69772 10 9.25 10C9.80228 10 10.25 10.4477 10.25 11Z" fill="#292556"/>
<path d="M15.75 11C15.75 11.5523 15.3023 12 14.75 12C14.1977 12 13.75 11.5523 13.75 11C13.75 10.4477 14.1977 10 14.75 10C15.3023 10 15.75 10.4477 15.75 11Z" fill="#292556"/>
<path d="M14.5 15C14.5 16.3807 13.3807 17.5 12 17.5C10.6193 17.5 9.5 16.3807 9.5 15C9.5 13.6193 10.6193 12.5 12 12.5C13.3807 12.5 14.5 13.6193 14.5 15Z" fill="#292556"/>
</svg>
