<svg width="24" height="24" viewBox="0 0 24 24" fill="none" xmlns="http://www.w3.org/2000/svg">
<path d="M10.4964 3.78348C11.095 2.87413 11.3942 2.41945 11.8035 2.33743C11.9332 2.31145 12.0668 2.31145 12.1965 2.33743C12.6058 2.41945 12.905 2.87413 13.5036 3.78349L19.8168 13.3756C21.1985 15.4749 21.8893 16.5246 21.7162 17.5037C21.6611 17.8153 21.5474 18.1135 21.3811 18.3827C20.8583 19.2285 19.644 19.5518 17.2154 20.1982L16.725 20.3288L13.75 21.2235L12.9072 21.477C12.5073 21.5972 12.3073 21.6574 12.1022 21.6694C12.0341 21.6734 11.9659 21.6734 11.8978 21.6694C11.6927 21.6574 11.4927 21.5972 11.0928 21.477L8.85 20.8024L6.73477 20.2252C4.32434 19.5674 3.11912 19.2385 2.60147 18.3938C2.4367 18.1249 2.32429 17.8273 2.27016 17.5166C2.10012 16.5406 2.78695 15.497 4.16061 13.4099L10.4964 3.78348Z" fill="#292556" fill-opacity="0.18"/>
<path d="M12.9199 15.025V21.48L16.4699 20.41V15.025C16.4699 14.0447 15.6752 13.25 14.6949 13.25C13.7146 13.25 12.9199 14.0447 12.9199 15.025Z" fill="#292556"/>
</svg>
