<svg width="24" height="24" viewBox="0 0 24 24" fill="none" xmlns="http://www.w3.org/2000/svg">
<path d="M14.0228 4.91677L7.79632 11.1432L6.02536 14.8214C5.99837 14.8775 5.98487 14.9055 5.97112 14.9332C5.73933 15.3997 5.43605 15.8272 5.07225 16.2001C5.05066 16.2222 5.02867 16.2442 4.98467 16.2882L2.55312 18.7198C1.79999 19.4729 1.79999 20.694 2.55312 21.4471V21.4471C3.30625 22.2002 4.52731 22.2002 5.28044 21.4471L7.712 19.0156C7.756 18.9716 7.77799 18.9496 7.80012 18.928C8.17302 18.5642 8.60049 18.2609 9.06705 18.0291C9.09473 18.0154 9.12276 18.0019 9.17882 17.9749L12.857 16.2039L19.0863 9.97456L14.0228 4.91677Z" fill="#292556" fill-opacity="0.18"/>
<path d="M20.2804 3.71978C18.883 2.32232 16.6172 2.32232 15.2198 3.71978L15.0835 3.85611L20.1413 8.91963L20.2804 8.78044C21.6779 7.38298 21.6779 5.11725 20.2804 3.71978V3.71978Z" fill="#292556" fill-opacity="0.18"/>
<path d="M13.8866 8.77962C14.1795 9.07248 14.6544 9.07244 14.9473 8.77953C15.2401 8.48661 15.2401 8.01173 14.9472 7.71887L13.8866 8.77962ZM12.2199 10.4463C12.5128 10.7392 12.9877 10.7391 13.2806 10.4462C13.5735 10.1533 13.5734 9.6784 13.2805 9.38553L12.2199 10.4463ZM10.5533 12.113C10.8462 12.4058 11.3211 12.4058 11.6139 12.1129C11.9068 11.8199 11.9067 11.3451 11.6138 11.0522L10.5533 12.113ZM12.0218 6.91514L13.8866 8.77962L14.9472 7.71887L13.0824 5.85439L12.0218 6.91514ZM10.3551 8.58181L12.2199 10.4463L13.2805 9.38553L11.4157 7.52106L10.3551 8.58181ZM8.68847 10.2485L10.5533 12.113L11.6138 11.0522L9.74903 9.18772L8.68847 10.2485Z" fill="#292556"/>
</svg>
