<svg width="24" height="24" viewBox="0 0 24 24" fill="none" xmlns="http://www.w3.org/2000/svg">
<path d="M12 21.7497C14.6234 21.7497 16.75 19.6106 16.75 16.9719C16.75 15.6899 16.0907 14.5259 15.2097 13.6677L15.2097 13.6677C14.8611 13.3282 14.6869 13.1584 14.6126 13.0155C14.5834 12.9592 14.5705 12.9287 14.5506 12.8685C14.5 12.7156 14.5 12.5264 14.5 12.1481V4.75C14.5 3.36929 13.3807 2.25 12 2.25C10.6193 2.25 9.5 3.36929 9.5 4.75V12.1481C9.5 12.5264 9.5 12.7156 9.44942 12.8685C9.42951 12.9287 9.41663 12.9592 9.3874 13.0155C9.31314 13.1584 9.13885 13.3282 8.79026 13.6677L8.79025 13.6677C7.90929 14.5259 7.25 15.6899 7.25 16.9719C7.25 19.6106 9.37665 21.7497 12 21.7497Z" fill="#292556" fill-opacity="0.18"/>
<path d="M11.75 6.75C12.1642 6.75 12.5 6.41421 12.5 6C12.5 5.58579 12.1642 5.25 11.75 5.25V6.75ZM11.75 9.75C12.1642 9.75 12.5 9.41421 12.5 9C12.5 8.58579 12.1642 8.25 11.75 8.25V9.75ZM9.5 6.75H11.75V5.25H9.5V6.75ZM9.5 9.75H11.75V8.25H9.5V9.75Z" fill="#292556"/>
</svg>
