<svg width="24" height="24" viewBox="0 0 24 24" fill="none" xmlns="http://www.w3.org/2000/svg">
<path d="M2.25 10.8C2.25 7.23775 2.25 5.45663 3.15717 4.20802C3.45015 3.80477 3.80477 3.45015 4.20802 3.15717C5.45663 2.25 7.23775 2.25 10.8 2.25H13.2C16.7622 2.25 18.5434 2.25 19.792 3.15717C20.1952 3.45015 20.5499 3.80477 20.8428 4.20802C21.75 5.45663 21.75 7.23775 21.75 10.8V13.2C21.75 16.7622 21.75 18.5434 20.8428 19.792C20.5499 20.1952 20.1952 20.5499 19.792 20.8428C18.5434 21.75 16.7622 21.75 13.2 21.75H10.8C7.23775 21.75 5.45663 21.75 4.20802 20.8428C3.80477 20.5499 3.45015 20.1952 3.15717 19.792C2.25 18.5434 2.25 16.7622 2.25 13.2V10.8Z" fill="#292556" fill-opacity="0.18"/>
<path d="M16.7716 10.7242C16.8704 11.1265 17.2766 11.3725 17.6788 11.2738C18.0811 11.175 18.3271 10.7688 18.2284 10.3666L16.7716 10.7242ZM11.6875 11.6363L11.5481 10.8994L11.5481 10.8994L11.6875 11.6363ZM14.0469 13.83L14.6375 14.2922L14.6375 14.2922L14.0469 13.83ZM9.45526 9.40353C9.17055 9.70438 9.18363 10.1791 9.48449 10.4638C9.78534 10.7485 10.26 10.7354 10.5447 10.4346L9.45526 9.40353ZM11.8797 17.25C10.1873 17.25 9.06527 16.5825 8.34573 15.6368C7.60508 14.6633 7.25 13.3363 7.25 12H5.75C5.75 13.5726 6.16345 15.2457 7.15196 16.545C8.1616 17.872 9.72944 18.75 11.8797 18.75V17.25ZM7.25 12C7.25 10.3067 7.69713 9.00112 8.45795 8.12957C9.20662 7.27194 10.332 6.75 11.8797 6.75V5.25C9.96894 5.25 8.40452 5.90986 7.32794 7.14312C6.26352 8.36246 5.75 10.0569 5.75 12H7.25ZM11.8797 6.75C13.4541 6.75 14.5121 7.20026 15.2462 7.87163C15.9944 8.55588 16.4803 9.53783 16.7716 10.7242L18.2284 10.3666C17.8947 9.00752 17.2996 7.71678 16.2585 6.76469C15.2033 5.79972 13.7636 5.25 11.8797 5.25V6.75ZM15.9329 14.7272C15.9329 15.2169 15.6042 15.8345 14.8559 16.3656C14.1245 16.8847 13.077 17.25 11.8797 17.25V18.75C13.3721 18.75 14.7262 18.2971 15.7241 17.5889C16.7049 16.8927 17.4329 15.8739 17.4329 14.7272H15.9329ZM11.827 12.3733C12.6999 12.2081 13.6862 12.2673 14.2607 12.5268L14.8782 11.1598C13.9244 10.7289 12.5965 10.701 11.5481 10.8994L11.827 12.3733ZM14.2607 12.5268C14.8445 12.7905 15.2483 13.0459 15.5131 13.3619C15.758 13.6542 15.9329 14.0579 15.9329 14.7272H17.4329C17.4329 13.7602 17.1668 13 16.6629 12.3986C16.1788 11.8208 15.5259 11.4524 14.8782 11.1598L14.2607 12.5268ZM11.8797 9.84087C12.5748 9.84087 13.0015 9.95378 13.2697 10.1791C13.5174 10.3873 13.7842 10.826 13.8199 11.869L15.319 11.8177C15.276 10.5614 14.9407 9.62392 14.2346 9.03066C13.5489 8.45458 12.6701 8.34087 11.8797 8.34087V9.84087ZM13.4563 13.3677C13.2141 13.6772 13 13.8618 12.7792 13.976C12.5619 14.0882 12.2861 14.1591 11.8797 14.1591V15.6591C12.4696 15.6591 12.9929 15.554 13.4678 15.3085C13.9392 15.0649 14.3105 14.7101 14.6375 14.2922L13.4563 13.3677ZM14.5695 11.8433C13.8202 11.8769 13.8202 11.8767 13.8202 11.8765C13.8202 11.8765 13.8202 11.8763 13.8202 11.8762C13.8202 11.876 13.8202 11.8758 13.8202 11.8757C13.8202 11.8753 13.8202 11.8751 13.8201 11.8749C13.8201 11.8745 13.8201 11.8744 13.8201 11.8746C13.8201 11.875 13.8202 11.8765 13.8203 11.8791C13.8204 11.8842 13.8206 11.8936 13.8208 11.9068C13.8211 11.9332 13.8211 11.9746 13.8195 12.0276C13.8163 12.1346 13.807 12.2845 13.7828 12.4524C13.7311 12.8106 13.6252 13.1519 13.4563 13.3677L14.6375 14.2922C15.0471 13.7689 15.2024 13.117 15.2674 12.6666C15.3015 12.4302 15.3144 12.222 15.3188 12.0719C15.3211 11.9965 15.3212 11.9346 15.3207 11.89C15.3205 11.8676 15.32 11.8494 15.3197 11.8359C15.3195 11.8292 15.3193 11.8236 15.3191 11.8192C15.319 11.817 15.319 11.8151 15.3189 11.8135C15.3189 11.8128 15.3188 11.812 15.3188 11.8114C15.3188 11.8111 15.3188 11.8108 15.3188 11.8105C15.3188 11.8104 15.3187 11.8102 15.3187 11.8101C15.3187 11.8099 15.3187 11.8097 14.5695 11.8433ZM11.8797 14.1591C11.5853 14.1591 11.2711 14.0424 11.0366 13.8499C10.8019 13.6574 10.7083 13.4452 10.7083 13.2727H9.20835C9.20835 14.004 9.59792 14.6099 10.0852 15.0096C10.5725 15.4094 11.219 15.6591 11.8797 15.6591V14.1591ZM10.7083 13.2727C10.7083 12.9198 11.0165 12.5266 11.827 12.3733L11.5481 10.8994C10.4856 11.1005 9.20835 11.8181 9.20835 13.2727H10.7083ZM10.5447 10.4346C10.9004 10.0588 11.3716 9.84087 11.8797 9.84087V8.34087C10.9247 8.34087 10.0694 8.75455 9.45526 9.40353L10.5447 10.4346Z" fill="#292556"/>
</svg>
