<svg width="24" height="24" viewBox="0 0 24 24" fill="none" xmlns="http://www.w3.org/2000/svg">
<path d="M11.25 21C11.25 21.4143 11.5858 21.75 12 21.75C12.4142 21.75 12.75 21.4143 12.75 21L11.25 21ZM11.25 16.75L11.25 21L12.75 21L12.75 16.75L11.25 16.75Z" fill="#292556"/>
<path d="M8.64038 16.75L15.361 16.75C17.263 16.75 18.214 16.75 18.7276 16.2314C18.8903 16.0671 19.0189 15.8721 19.1058 15.6579C19.3802 14.9815 19.0055 14.1074 18.2563 12.3592L16.7507 8.84606V5.4C16.7507 4.08759 16.7507 3.43139 16.4165 2.97138C16.3085 2.82281 16.1779 2.69216 16.0293 2.58422C15.5693 2.25 14.9131 2.25 13.6007 2.25H10.4007C9.08828 2.25 8.43208 2.25 7.97206 2.58422C7.8235 2.69216 7.69285 2.82281 7.58491 2.97138C7.25069 3.43139 7.25069 4.08759 7.25069 5.4L7.25069 8.84606L5.74507 12.3592C4.99583 14.1074 4.62121 14.9815 4.89558 15.6579C4.98251 15.8721 5.11105 16.0671 5.27377 16.2314C5.78735 16.75 6.73836 16.75 8.64038 16.75Z" fill="#292556" fill-opacity="0.18"/>
</svg>
