<svg width="24" height="24" viewBox="0 0 24 24" fill="none" xmlns="http://www.w3.org/2000/svg">
<path d="M16.1825 4.25H7.8175C5.34863 4.25 4.1142 4.25 3.45389 4.65361C2.4845 5.24613 1.97928 6.37379 2.18239 7.49162C2.32074 8.25305 3.14246 9.17425 4.78589 11.0167C5.05273 11.3158 5.18615 11.4654 5.2514 11.6284C5.34689 11.8669 5.34689 12.1331 5.2514 12.3716C5.18615 12.5346 5.05273 12.6842 4.78589 12.9833C3.14246 14.8257 2.32074 15.7469 2.18239 16.5084C1.97928 17.6262 2.4845 18.7539 3.45389 19.3464C4.1142 19.75 5.34863 19.75 7.8175 19.75H16.1825C18.6514 19.75 19.8858 19.75 20.5461 19.3464C21.5155 18.7539 22.0207 17.6262 21.8176 16.5084C21.6793 15.7469 20.8575 14.8257 19.2141 12.9833C18.9473 12.6842 18.8139 12.5346 18.7486 12.3716C18.6531 12.1331 18.6531 11.8669 18.7486 11.6284C18.8139 11.4654 18.9473 11.3158 19.2141 11.0167L19.2141 11.0166C20.8575 9.17425 21.6793 8.25305 21.8176 7.49163C22.0207 6.37379 21.5155 5.24613 20.5461 4.65361C19.8858 4.25 18.6514 4.25 16.1825 4.25Z" fill="#292556" fill-opacity="0.18"/>
<path d="M8.25 7.5C8.25 7.91421 8.58579 8.25 9 8.25C9.41421 8.25 9.75 7.91421 9.75 7.5H8.25ZM9.75 10.5C9.75 10.0858 9.41421 9.75 9 9.75C8.58579 9.75 8.25 10.0858 8.25 10.5H9.75ZM8.25 12C8.25 12.4142 8.58579 12.75 9 12.75C9.41421 12.75 9.75 12.4142 9.75 12H8.25ZM9.75 15C9.75 14.5858 9.41421 14.25 9 14.25C8.58579 14.25 8.25 14.5858 8.25 15H9.75ZM8.25 4.25V7.5H9.75V4.25H8.25ZM8.25 10.5V12H9.75V10.5H8.25ZM9.75 19.75V15H8.25V19.75H9.75Z" fill="#292556"/>
</svg>
