<svg width="24" height="24" viewBox="0 0 24 24" fill="none" xmlns="http://www.w3.org/2000/svg">
<path d="M13.6358 6.7472L15.5366 3.1135C15.5521 3.08401 15.5598 3.06926 15.5638 3.06178C16.3554 1.58366 18.5718 1.95745 18.8348 3.61344C18.8362 3.62181 18.8386 3.63828 18.8435 3.67121V3.67121C18.8449 3.68064 18.8456 3.68535 18.8463 3.6896C18.9625 4.44447 19.5548 5.03679 20.3097 5.15297C20.3139 5.15363 20.3186 5.15433 20.3281 5.15573V5.15573C20.361 5.16063 20.3774 5.16308 20.3858 5.16441C22.0418 5.42738 22.4156 7.64387 20.9375 8.43546C20.93 8.43946 20.9153 8.44717 20.8858 8.46259L17.2517 10.3637C16.9957 9.53921 16.5413 8.76306 15.8884 8.1102C15.2358 7.45756 14.4599 7.00323 13.6358 6.7472Z" fill="#292556"/>
<path d="M6.74707 13.6351C7.00307 14.4595 7.45746 15.2356 8.11025 15.8884C8.76329 16.5414 9.53969 16.9959 10.3644 17.2518L8.46424 20.8842C8.44881 20.9137 8.4411 20.9285 8.43709 20.936C7.64551 22.4141 5.42908 22.0403 5.16605 20.3843C5.16472 20.3759 5.16227 20.3595 5.15736 20.3265V20.3265C5.15596 20.3171 5.15526 20.3124 5.1546 20.3081C5.0384 19.5533 4.44607 18.961 3.6912 18.8448C3.68695 18.8441 3.68223 18.8434 3.67281 18.842V18.842C3.63991 18.8371 3.62346 18.8347 3.61509 18.8333C1.95907 18.5704 1.58524 16.3539 3.06339 15.5623C3.07086 15.5583 3.0856 15.5506 3.11507 15.5352L6.74707 13.6351Z" fill="#292556"/>
<path d="M17.5 12C17.5 15.0376 15.0376 17.5 12 17.5C8.96243 17.5 6.5 15.0376 6.5 12C6.5 8.96243 8.96243 6.5 12 6.5C15.0376 6.5 17.5 8.96243 17.5 12Z" fill="#292556" fill-opacity="0.18"/>
</svg>
