<svg width="24" height="24" viewBox="0 0 24 24" fill="none" xmlns="http://www.w3.org/2000/svg">
<path d="M2.25 12C2.25 7.99594 5.49594 4.75 9.5 4.75L14.5 4.75C18.5041 4.75 21.75 7.99594 21.75 12V12C21.75 16.0041 18.5041 19.25 14.5 19.25H9.5C5.49594 19.25 2.25 16.0041 2.25 12V12Z" fill="#292556" fill-opacity="0.18"/>
<path d="M5.75 11.9961C5.75 9.92503 7.42893 8.24609 9.5 8.24609V8.24609C11.5711 8.24609 13.25 9.92503 13.25 11.9961V11.9961C13.25 14.0672 11.5711 15.7461 9.5 15.7461V15.7461C7.42893 15.7461 5.75 14.0672 5.75 11.9961V11.9961Z" fill="#292556"/>
</svg>
