<svg width="24" height="24" viewBox="0 0 24 24" fill="none" xmlns="http://www.w3.org/2000/svg">
<path d="M2.84961 11.3281L4.41383 18.0279L4.41383 18.0279C4.67611 19.1513 4.80725 19.713 4.9796 20.0457C5.82624 21.6803 7.93172 22.1739 9.41661 21.0859C9.71889 20.8644 10.086 20.4195 10.8202 19.5297C11.0164 19.292 11.1145 19.1731 11.2102 19.0951C11.67 18.7203 12.33 18.7203 12.7898 19.0951C12.8855 19.1731 12.9836 19.292 13.1798 19.5297C13.9139 20.4194 14.2809 20.8642 14.5832 21.0857C16.0681 22.1738 18.1738 21.6801 19.0204 20.0454C19.1927 19.7127 19.3238 19.1511 19.586 18.0279L19.586 18.0278L21.15 11.3281H2.84961Z" fill="#292556" fill-opacity="0.18"/>
<path d="M2.53375 9.99991L2.85012 11.3324H21.1401L21.4594 9.99218L21.4594 9.99214C21.8463 8.3678 22.0398 7.55562 22.0432 7.0126C22.0617 4.02282 19.3465 1.75958 16.409 2.31619C15.8754 2.41728 15.1114 2.75385 13.5832 3.42697C13.3197 3.54304 13.188 3.60107 13.0571 3.64588C12.3751 3.87935 11.6348 3.87946 10.9528 3.6462C10.8219 3.60143 10.69 3.54338 10.4262 3.42728C8.88151 2.74742 8.10916 2.40749 7.56984 2.30677C4.64167 1.75993 1.93857 4.0121 1.94787 6.99088C1.94958 7.53952 2.1443 8.35965 2.53375 9.99991Z" fill="#292556"/>
</svg>
