<svg width="24" height="24" viewBox="0 0 24 24" fill="none" xmlns="http://www.w3.org/2000/svg">
<path d="M12.6891 18.3751L18.6994 11.1628C19.1414 10.6325 19.3623 10.3673 19.3936 10.0639C19.4037 9.96555 19.3992 9.86626 19.3802 9.76924C19.3216 9.46994 19.0775 9.22585 18.5894 8.73769L15.2572 5.4055C14.769 4.91733 14.5249 4.67324 14.2256 4.61464C14.1286 4.59565 14.0293 4.59115 13.931 4.60128C13.6276 4.63254 13.3624 4.85352 12.8321 5.29549L5.61976 11.3057C5.46342 11.436 5.38524 11.5012 5.36713 11.5855C5.36131 11.6127 5.36004 11.6406 5.36339 11.6681C5.37378 11.7538 5.44574 11.8257 5.58965 11.9696L12.0252 18.4052C12.1691 18.5491 12.2411 18.6211 12.3267 18.6315C12.3543 18.6348 12.3822 18.6336 12.4093 18.6277C12.4937 18.6096 12.5588 18.5315 12.6891 18.3751Z" fill="#292556" fill-opacity="0.18"/>
<path d="M16.9725 4.28354L18.5641 3.04658C19.0234 2.68963 19.253 2.51115 19.5075 2.47104C19.6508 2.44847 19.7973 2.45733 19.9368 2.497C20.1846 2.5675 20.3911 2.77234 20.804 3.18204L20.804 3.18205C21.22 3.59485 21.4281 3.80126 21.5002 4.05022C21.5408 4.19032 21.5503 4.3376 21.5279 4.48174C21.4882 4.73789 21.3083 4.9692 20.9485 5.43183L19.7113 7.02252C19.5825 7.18814 19.5181 7.27095 19.4322 7.29119C19.4047 7.29769 19.3762 7.29947 19.3481 7.29643C19.2604 7.28699 19.1862 7.21281 19.0379 7.06445L16.9305 4.95705C16.7821 4.80864 16.7079 4.73444 16.6984 4.64676C16.6954 4.6186 16.6972 4.59012 16.7037 4.56256C16.7239 4.47673 16.8068 4.41234 16.9725 4.28354Z" fill="#292556"/>
<path d="M3.64558 12.9508L3.75125 12.8627C3.88384 12.7522 3.95014 12.697 4.02598 12.6892C4.05057 12.6866 4.07539 12.6878 4.09964 12.6925C4.17447 12.7072 4.23549 12.7682 4.35753 12.8902L11.1046 19.6372C11.2266 19.7593 11.2876 19.8203 11.3023 19.8951C11.307 19.9194 11.3082 19.9442 11.3056 19.9688C11.2978 20.0446 11.2426 20.1109 11.1321 20.2435L11.0483 20.344C10.5276 20.9689 10.2673 21.2813 9.93012 21.3538C9.82164 21.3771 9.71004 21.3822 9.59989 21.3689C9.25751 21.3276 8.96967 21.0403 8.39397 20.4657L3.52636 15.6076C2.94965 15.032 2.6613 14.7442 2.61948 14.4015C2.60603 14.2912 2.61104 14.1795 2.63432 14.0708C2.70666 13.7332 3.01964 13.4724 3.64558 12.9508Z" fill="#292556"/>
</svg>
