<svg width="24" height="24" viewBox="0 0 24 24" fill="none" xmlns="http://www.w3.org/2000/svg">
<path d="M18.6861 4.9632L18.0124 4.28945C17.3052 3.58221 16.9515 3.2286 16.4736 3.11288C16.3316 3.07849 16.1442 3.05958 15.9982 3.06489C15.5068 3.08276 15.1457 3.32153 14.4234 3.79906C13.3392 4.51594 12.582 5.27207 11.8646 6.35517C11.3865 7.07689 11.1474 7.43775 11.1293 7.92946C11.1239 8.07555 11.1427 8.26314 11.1771 8.40523C11.2927 8.88349 11.6465 9.23724 12.354 9.94474L13.0293 10.6201L18.6861 4.9632Z" fill="#292556"/>
<path d="M3.3555 18.1285C2.95739 18.5264 2.75834 18.7254 2.72022 18.9662C2.70791 19.044 2.70793 19.1232 2.72027 19.201C2.75848 19.4418 2.95761 19.6407 3.35587 20.0385L3.67205 20.3543C4.06971 20.7515 4.26854 20.9501 4.50911 20.9881C4.5868 21.0004 4.66595 21.0004 4.74364 20.988C4.98419 20.9499 5.18294 20.7513 5.58045 20.3539L11.3069 14.63C11.4076 14.5294 11.458 14.479 11.5162 14.4394C11.5356 14.4262 11.5555 14.4139 11.576 14.4026C11.6377 14.3686 11.7054 14.3464 11.8407 14.302L14.3865 13.4674C14.5219 13.423 14.5896 13.4008 14.6513 13.3667C14.6718 13.3554 14.6918 13.3431 14.7112 13.3299C14.7694 13.2903 14.8198 13.2399 14.9205 13.1391L20.6441 7.41559C21.042 7.01765 21.241 6.81868 21.2791 6.57788C21.2914 6.50011 21.2913 6.4209 21.279 6.34314C21.2408 6.10236 21.0417 5.90352 20.6435 5.50582L20.3251 5.18781C19.9274 4.79055 19.7285 4.59192 19.4879 4.55391C19.4102 4.54163 19.331 4.54165 19.2533 4.55398C19.0128 4.59214 18.814 4.79089 18.4165 5.18839L12.8659 10.739C12.7654 10.8395 12.7151 10.8898 12.657 10.9294C12.6376 10.9426 12.6177 10.9549 12.5972 10.9662C12.5356 11.0002 12.4681 11.0224 12.333 11.0668L9.78811 11.9036C9.65309 11.948 9.58558 11.9702 9.52401 12.0042C9.50355 12.0155 9.48362 12.0277 9.4643 12.0409C9.40618 12.0805 9.35592 12.1308 9.2554 12.2312L3.3555 18.1285Z" fill="#292556" fill-opacity="0.18"/>
</svg>
