<svg width="24" height="24" viewBox="0 0 24 24" fill="none" xmlns="http://www.w3.org/2000/svg">
<path d="M8.70943 13.6217C8.86602 13.1519 8.94432 12.917 9.04915 12.7181C9.45056 11.9563 10.1856 11.4264 11.0353 11.2865C11.2572 11.25 11.5048 11.25 12 11.25V11.25C12.4952 11.25 12.7428 11.25 12.9647 11.2865C13.8144 11.4264 14.5494 11.9563 14.9509 12.7181C15.0557 12.917 15.134 13.1519 15.2906 13.6217L16.1026 16.0579C16.7242 17.9226 17.035 18.8549 16.8683 19.6003C16.7042 20.334 16.2468 20.9685 15.6027 21.3561C14.9483 21.75 13.9656 21.75 12 21.75V21.75C10.0344 21.75 9.05167 21.75 8.3973 21.3561C7.75316 20.9685 7.29584 20.334 7.13173 19.6003C6.96502 18.8549 7.2758 17.9226 7.89737 16.0579L8.70943 13.6217Z" fill="#292556" fill-opacity="0.18"/>
<path d="M15.25 7C15.25 8.79493 13.7949 10.25 12 10.25C10.2051 10.25 8.75 8.79493 8.75 7C8.75 5.20507 10.2051 3.75 12 3.75C13.7949 3.75 15.25 5.20507 15.25 7Z" fill="#292556" fill-opacity="0.18"/>
<path d="M17 5C17.6072 5.4561 18 6.18227 18 7.00018C18 7.81809 17.6072 8.54426 17 9.00037M7 5C6.39278 5.4561 6 6.18227 6 7.00018C6 7.81809 6.39278 8.54426 7 9.00037M19 3C20.2144 3.91221 21 5.36455 21 7.00037C21 8.63618 20.2144 10.0885 19 11.0007M5 3C3.78555 3.91221 3 5.36455 3 7.00037C3 8.63618 3.78555 10.0885 5 11.0007" stroke="#292556" stroke-width="1.5" stroke-linecap="round" stroke-linejoin="round"/>
</svg>
