<svg width="24" height="24" viewBox="0 0 24 24" fill="none" xmlns="http://www.w3.org/2000/svg">
<path d="M4.28767 11.2039C4.69593 13.0995 6.78795 16.3091 8.69015 18.939C9.93943 20.6662 10.5641 21.5298 11.538 21.7164C11.8266 21.7717 12.1877 21.7719 12.4764 21.7169C13.4505 21.5314 14.0745 20.6708 15.3223 18.9496C17.1941 16.3679 19.247 13.2103 19.7038 11.2265C19.7191 11.1601 19.7267 11.1269 19.7361 11.0551C19.7383 11.038 19.7423 11.0004 19.7437 10.9832C19.7448 10.9701 19.7457 10.9578 19.7463 10.9458C17.0369 12.1385 14.5311 12.7511 12.0005 12.7498C9.46949 12.7485 6.96281 12.133 4.25195 10.9375C4.25261 10.9528 4.25355 10.9685 4.25489 10.986C4.25607 11.0015 4.2597 11.0381 4.26159 11.0536C4.26984 11.1211 4.27578 11.1487 4.28767 11.2039Z" fill="#292556" fill-opacity="0.18"/>
<path d="M12.0011 11.25C9.601 11.2488 7.17325 10.6363 4.42969 9.37254C4.99366 7.29148 6.83266 5.59724 9.24985 4.85417C9.24985 4.05832 9.24985 3.6604 9.37687 3.34545C9.55472 2.90448 9.90434 2.55486 10.3453 2.37702C10.6603 2.25 11.0582 2.25 11.854 2.25H12.1456C12.9415 2.25 13.3395 2.25 13.6545 2.37705C14.0954 2.5549 14.445 2.90447 14.6228 3.34536C14.7499 3.66035 14.7499 4.05833 14.7499 4.85428C17.1726 5.59842 19.0144 7.29264 19.5734 9.37887C16.83 10.6408 14.402 11.2512 12.0011 11.25Z" fill="#292556"/>
</svg>
