<svg width="24" height="24" viewBox="0 0 24 24" fill="none" xmlns="http://www.w3.org/2000/svg">
<path fill-rule="evenodd" clip-rule="evenodd" d="M10.2 2.25H13.8C15.8624 2.25 16.8935 2.25 17.6164 2.7752C17.8499 2.94482 18.0552 3.15013 18.2248 3.38359C18.75 4.10647 18.75 5.13765 18.75 7.2V11.8C18.75 13.8624 18.75 14.8935 18.2248 15.6164C18.0552 15.8499 17.8499 16.0552 17.6164 16.2248C17.2308 16.505 16.7574 16.6357 16.0864 16.6967L16.6964 18.2215L17.6964 20.7215C17.8502 21.106 17.6631 21.5425 17.2785 21.6964C16.894 21.8502 16.4575 21.6631 16.3036 21.2785L15.4922 19.25H8.50777L7.69636 21.2785C7.54252 21.6631 7.10604 21.8502 6.72146 21.6964C6.33687 21.5425 6.14981 21.106 6.30364 20.7215L7.30364 18.2215L7.91355 16.6967C7.24264 16.6357 6.76924 16.505 6.38359 16.2248C6.15013 16.0552 5.94482 15.8499 5.7752 15.6164C5.25 14.8935 5.25 13.8624 5.25 11.8V7.2C5.25 5.13765 5.25 4.10647 5.7752 3.38359C5.94482 3.15013 6.15013 2.94482 6.38359 2.7752C7.10647 2.25 8.13765 2.25 10.2 2.25ZM9.50813 16.7491L9.10777 17.75H14.8922L14.4919 16.7491C14.275 16.75 14.0447 16.75 13.8 16.75H10.2C9.95526 16.75 9.72503 16.75 9.50813 16.7491Z" fill="#292556" fill-opacity="0.18"/>
<path d="M10 13C10 13.5523 9.55228 14 9 14V14C8.44772 14 8 13.5523 8 13V13C8 12.4477 8.44772 12 9 12V12C9.55228 12 10 12.4477 10 13V13Z" fill="#292556"/>
<path d="M16 13C16 13.5523 15.5523 14 15 14V14C14.4477 14 14 13.5523 14 13V13C14 12.4477 14.4477 12 15 12V12C15.5523 12 16 12.4477 16 13V13Z" fill="#292556"/>
<path d="M10.205 5C9.28632 5 8.82697 5 8.50496 5.23395C8.40097 5.30951 8.30951 5.40097 8.23395 5.50496C8 5.82697 8 6.28632 8 7.205V8.545C8 9.46368 8 9.92303 8.23395 10.245C8.30951 10.349 8.40097 10.4405 8.50496 10.516C8.82697 10.75 9.28632 10.75 10.205 10.75H13.795C14.7137 10.75 15.173 10.75 15.495 10.516C15.599 10.4405 15.6905 10.349 15.766 10.245C16 9.92303 16 9.46368 16 8.545V7.205C16 6.28632 16 5.82697 15.766 5.50496C15.6905 5.40097 15.599 5.30951 15.495 5.23395C15.173 5 14.7137 5 13.795 5H10.205Z" fill="#292556"/>
</svg>
