<svg width="24" height="24" viewBox="0 0 24 24" fill="none" xmlns="http://www.w3.org/2000/svg">
<path d="M8.55488 8.79637L11.8158 7.33271C11.8963 7.29658 11.9365 7.27851 11.979 7.27492C11.993 7.27373 12.0071 7.27373 12.0211 7.27492C12.0635 7.27851 12.1038 7.29658 12.1843 7.33272L15.4447 8.7962C15.7888 8.95069 15.9609 9.02794 15.9893 9.14804C15.9981 9.18539 15.9982 9.22427 15.9896 9.26167C15.9618 9.38191 15.7902 9.46005 15.4468 9.61632L12.1859 11.1003C12.1045 11.1374 12.0638 11.1559 12.0209 11.1596C12.0067 11.1608 11.9924 11.1608 11.9782 11.1596C11.9352 11.1559 11.8945 11.1374 11.8131 11.1003L8.55275 9.61649C8.20937 9.46022 8.03769 9.38208 8.00995 9.26183C8.00133 9.22444 8.00143 9.18556 8.01025 9.14821C8.0386 9.02811 8.2107 8.95086 8.55488 8.79637L8.55488 8.79637Z" fill="#292556" fill-opacity="0.18"/>
<path d="M7.25 14.4906V10.5255C7.25 10.2479 7.25 10.1091 7.32568 10.0355C7.34963 10.0122 7.378 9.99397 7.40913 9.98182C7.50748 9.94345 7.6338 10.0009 7.88644 10.116L11.3711 11.7022C11.4845 11.7538 11.5412 11.7796 11.5781 11.8247C11.5902 11.8394 11.6005 11.8555 11.6089 11.8726C11.6347 11.9249 11.6347 11.9872 11.6347 12.1118V16.0548C11.6347 16.3309 11.6347 16.469 11.5594 16.5426C11.5355 16.5659 11.5073 16.5842 11.4763 16.5964C11.3783 16.6349 11.2523 16.5784 11.0004 16.4653L7.51572 14.9012C7.40142 14.8499 7.34428 14.8242 7.30708 14.7791C7.29489 14.7643 7.28444 14.7481 7.27594 14.731C7.25 14.6785 7.25 14.6159 7.25 14.4906Z" fill="#292556" fill-opacity="0.18"/>
<path d="M16.4843 14.9012L12.9997 16.4653C12.7477 16.5784 12.6218 16.6349 12.5238 16.5964C12.4928 16.5842 12.4646 16.5659 12.4407 16.5426C12.3654 16.469 12.3654 16.3309 12.3654 16.0548V12.1112C12.3654 11.9865 12.3654 11.9242 12.3911 11.872C12.3996 11.8549 12.4099 11.8388 12.422 11.824C12.4589 11.779 12.5156 11.7532 12.629 11.7016L16.1136 10.1157C16.3662 10.0008 16.4925 9.94328 16.5909 9.98166C16.622 9.99381 16.6504 10.0121 16.6743 10.0354C16.75 10.109 16.75 10.2478 16.75 10.5253L16.75 14.4906C16.75 14.6159 16.75 14.6785 16.724 14.731C16.7155 14.7481 16.7051 14.7643 16.6929 14.7791C16.6557 14.8242 16.5986 14.8499 16.4843 14.9012Z" fill="#292556" fill-opacity="0.18"/>
<path d="M3 12C3 16.9706 7.02944 21 12 21C16.9706 21 21 16.9706 21 12C21 7.02944 16.9706 3 12 3C8.5854 3 5.61494 4.90157 4.08982 7.7035M3.61447 4.16797V7.7035H4.08982M4.08982 7.7035H7.15" stroke="#292556" stroke-width="1.5" stroke-linecap="round" stroke-linejoin="round"/>
</svg>
