<svg width="24" height="24" viewBox="0 0 24 24" fill="none" xmlns="http://www.w3.org/2000/svg">
<path d="M4.25 6L19.75 6V14C19.75 15.8602 19.75 16.7903 19.5368 17.5513C18.9951 19.4845 17.4845 20.9951 15.5513 21.5368C14.7903 21.75 13.8602 21.75 12 21.75V21.75C10.1398 21.75 9.20968 21.75 8.44867 21.5368C6.51553 20.9951 5.00486 19.4845 4.46323 17.5513C4.25 16.7903 4.25 15.8602 4.25 14L4.25 6Z" fill="#292556" fill-opacity="0.18"/>
<path d="M21 6H15M3 6H9M9 6V6C9 5.06812 9 4.60218 9.15224 4.23463C9.35523 3.74458 9.74458 3.35523 10.2346 3.15224C10.6022 3 11.0681 3 12 3V3C12.9319 3 13.3978 3 13.7654 3.15224C14.2554 3.35523 14.6448 3.74458 14.8478 4.23463C15 4.60218 15 5.06812 15 6V6M9 6H15M14.25 15.75L12 13.5M12 13.5L9.75 11.25M12 13.5L14.25 11.25M12 13.5L9.75 15.75" stroke="#292556" stroke-width="1.5" stroke-linecap="round" stroke-linejoin="round"/>
</svg>
