<svg width="24" height="24" viewBox="0 0 24 24" fill="none" xmlns="http://www.w3.org/2000/svg">
<path d="M14.8125 18.75C17.8155 18.75 20.25 16.3155 20.25 13.3125C20.25 11.0318 18.8464 9.08041 16.8566 8.27254C16.9301 7.93249 16.9688 7.57984 16.9688 7.21875C16.9688 4.47459 14.7442 2.25 12 2.25C9.25584 2.25 7.03125 4.47459 7.03125 7.21875C7.03125 7.57984 7.06989 7.93249 7.14338 8.27254C5.15357 9.08041 3.75 11.0318 3.75 13.3125C3.75 16.3155 6.18445 18.75 9.1875 18.75C9.37728 18.75 9.56495 18.7402 9.75 18.7212V19.4985C9.75 20.436 9.75 20.9047 9.98873 21.2333C10.0658 21.3394 10.1592 21.4327 10.2653 21.5098C10.5939 21.7485 11.0626 21.7485 12 21.7485C12.9374 21.7485 13.4061 21.7485 13.7347 21.5098C13.8408 21.4327 13.9342 21.3394 14.0113 21.2333C14.25 20.9047 14.25 20.436 14.25 19.4985V18.7212C14.4349 18.7402 14.6226 18.75 14.8125 18.75Z" fill="#292556" fill-opacity="0.18"/>
<path d="M12.75 10C12.75 9.58579 12.4142 9.25 12 9.25C11.5858 9.25 11.25 9.58579 11.25 10H12.75ZM14.3354 11.6708C14.7059 11.4856 14.8561 11.0351 14.6708 10.6646C14.4856 10.2941 14.0351 10.1439 13.6646 10.3292L14.3354 11.6708ZM10.3354 13.3292C9.96493 13.1439 9.51442 13.2941 9.32918 13.6646C9.14394 14.0351 9.29411 14.4856 9.66459 14.6708L10.3354 13.3292ZM12.75 12V10H11.25V12H12.75ZM12.3354 12.6708L14.3354 11.6708L13.6646 10.3292L11.6646 11.3292L12.3354 12.6708ZM12.75 18.5V15H11.25V18.5H12.75ZM12.75 15V12H11.25V15H12.75ZM12.3354 14.3292L10.3354 13.3292L9.66459 14.6708L11.6646 15.6708L12.3354 14.3292Z" fill="#292556"/>
</svg>
