<svg width="24" height="24" viewBox="0 0 24 24" fill="none" xmlns="http://www.w3.org/2000/svg">
<path d="M2 10.55C2 6.98775 2 5.20663 2.90717 3.95802C3.20015 3.55477 3.55477 3.20015 3.95802 2.90717C5.20663 2 6.98775 2 10.55 2H12.95C16.5122 2 18.2934 2 19.542 2.90717C19.9452 3.20015 20.2999 3.55477 20.5928 3.95802C21.5 5.20663 21.5 6.98775 21.5 10.55V12.95C21.5 16.5122 21.5 18.2934 20.5928 19.542C20.2999 19.9452 19.9452 20.2999 19.542 20.5928C18.2934 21.5 16.5122 21.5 12.95 21.5H10.55C6.98775 21.5 5.20663 21.5 3.95802 20.5928C3.55477 20.2999 3.20015 19.9452 2.90717 19.542C2 18.2934 2 16.5122 2 12.95V10.55Z" fill="#292556" fill-opacity="0.18"/>
<path d="M6.00003 8.50081C6.00002 7.80259 6.00002 7.45348 6.09822 7.17283C6.27411 6.67014 6.66934 6.2749 7.17204 6.099C7.45269 6.0008 7.8018 6.0008 8.50001 6.0008V6.0008C9.19823 6.0008 9.54733 6.0008 9.82798 6.099C10.3307 6.27489 10.7259 6.67013 10.9018 7.17282C11 7.45347 11 7.80257 11 8.50078L11 15.5008C11 16.199 11 16.5481 10.9018 16.8287C10.7259 17.3315 10.3307 17.7267 9.82795 17.9026C9.54732 18.0008 9.19823 18.0008 8.50005 18.0008V18.0008C7.80189 18.0008 7.4528 18.0008 7.17217 17.9026C6.66946 17.7267 6.27421 17.3315 6.09831 16.8288C6.00012 16.5481 6.00012 16.199 6.00011 15.5009L6.00003 8.50081Z" fill="#292556"/>
<path d="M13 8.5C13 7.80178 13 7.45266 13.0982 7.17201C13.2741 6.66933 13.6693 6.2741 14.172 6.0982C14.4527 6 14.8018 6 15.5 6V6C16.1982 6 16.5473 6 16.828 6.0982C17.3307 6.2741 17.7259 6.66933 17.9018 7.17201C18 7.45266 18 7.80178 18 8.5V10.5004C18 11.1985 18 11.5476 17.9018 11.8282C17.726 12.3308 17.3308 12.7261 16.8282 12.902C16.5476 13.0002 16.1985 13.0003 15.5004 13.0004V13.0004C14.8021 13.0005 14.4529 13.0006 14.1722 12.9024C13.6695 12.7265 13.2742 12.3313 13.0982 11.8286C13 11.5479 13 11.1987 13 10.5004V8.5Z" fill="#292556"/>
</svg>
