<svg width="24" height="24" viewBox="0 0 24 24" fill="none" xmlns="http://www.w3.org/2000/svg">
<path d="M8.4708 21.75H15.5292C18.6791 21.75 20.254 21.75 21.0675 20.892C21.3244 20.621 21.5235 20.3005 21.6525 19.95C22.0609 18.8405 21.3626 17.4288 19.9661 14.6054L19.9661 14.6054L17.75 10.125H6.25L4.03389 14.6054C2.63737 17.4288 1.93911 18.8405 2.34752 19.95C2.47654 20.3005 2.67559 20.621 2.93255 20.892C3.74596 21.75 5.32091 21.75 8.4708 21.75Z" fill="#292556"/>
<path d="M7.15973 8.28576L6.25 10.125H17.75L16.8403 8.28576C14.9837 4.53225 14.0554 2.6555 12.6614 2.34041C12.226 2.24199 11.774 2.24199 11.3386 2.34041C9.94459 2.6555 9.0163 4.53225 7.15973 8.28576Z" fill="#292556" fill-opacity="0.18"/>
</svg>
