<svg width="24" height="24" viewBox="0 0 24 24" fill="none" xmlns="http://www.w3.org/2000/svg">
<path fill-rule="evenodd" clip-rule="evenodd" d="M6.30335 5.96544C5.8816 4.39144 4.12224 3.60011 2.66475 4.32885C2.29427 4.51409 2.1441 4.9646 2.32934 5.33508C2.51459 5.70557 2.96509 5.85573 3.33557 5.67049C3.94398 5.36629 4.6784 5.69662 4.85446 6.35366L7.60859 16.6322C6.57819 17.2463 6.03594 18.4903 6.36173 19.7062C6.75482 21.1732 8.26275 22.0438 9.72978 21.6507C10.9456 21.3249 11.7517 20.2335 11.7684 19.0342L20.1941 16.7788C20.5942 16.6717 20.8318 16.2605 20.7247 15.8604C20.6176 15.4603 20.2064 15.2227 19.8062 15.3298L11.3804 17.5852C10.8932 16.7675 10.0093 16.2571 9.05748 16.244L6.30335 5.96544Z" fill="#292556" fill-opacity="0.18"/>
<path d="M16.7179 8.12787C16.4677 7.1943 15.5081 6.64029 14.5746 6.89043L10.7109 7.92571C9.77731 8.17586 9.22329 9.13545 9.47344 10.069L10.5087 13.9327C10.7589 14.8663 11.7185 15.4203 12.652 15.1702L16.5157 14.1349C17.4493 13.8847 18.0033 12.9251 17.7532 11.9916L16.7179 8.12787Z" fill="#292556"/>
</svg>
