<svg width="24" height="24" viewBox="0 0 24 24" fill="none" xmlns="http://www.w3.org/2000/svg">
<path d="M18.0367 3.04172C18.2623 2.87395 18.3751 2.79006 18.4835 2.73131C19.0756 2.4104 19.8003 2.46341 20.3394 2.86704C20.4381 2.94094 20.5375 3.04035 20.7363 3.23917V3.23917C20.9351 3.438 21.0345 3.53741 21.1084 3.63611C21.5121 4.17521 21.5651 4.89991 21.2441 5.49199C21.1854 5.60039 21.1015 5.71321 20.9337 5.93884L19.8718 7.36679C19.6165 7.71017 19.4888 7.88186 19.3154 7.92516C19.2597 7.93905 19.2021 7.94327 19.145 7.93762C18.9671 7.92 18.8158 7.76871 18.5132 7.46613L16.5093 5.4622C16.2067 5.15962 16.0554 5.00832 16.0378 4.83043C16.0321 4.77334 16.0364 4.7157 16.0503 4.66005C16.0936 4.48661 16.2653 4.35894 16.6087 4.10359L18.0367 3.04172Z" fill="#292556"/>
<path d="M7.8378 20.424C8.78499 21.3711 9.25858 21.8447 9.7497 21.8625C9.98674 21.8711 10.2213 21.8121 10.4261 21.6923C10.8503 21.4442 11.0433 20.8029 11.4294 19.5202V19.5202C11.4555 19.4332 11.4686 19.3897 11.489 19.3498C11.4992 19.3297 11.5108 19.3103 11.5236 19.2918C11.5492 19.255 11.5813 19.2229 11.6455 19.1587L17.6366 13.1674C18.5646 12.2394 19.0286 11.7754 19.1175 11.2138C19.1463 11.0324 19.1463 10.8476 19.1175 10.6662C19.0286 10.1046 18.5646 9.64064 17.6366 8.71264L15.2627 6.33875C14.3347 5.41072 13.8706 4.94671 13.309 4.85776C13.1277 4.82904 12.9429 4.82904 12.7615 4.85777C12.1999 4.94672 11.7359 5.41074 10.8079 6.33878L4.81687 12.33C4.75265 12.3942 4.72055 12.4263 4.68368 12.4519C4.66517 12.4647 4.64582 12.4763 4.62575 12.4865C4.58578 12.5069 4.5423 12.52 4.45534 12.5461V12.5461C3.17266 12.9322 2.53132 13.1252 2.2832 13.5494C2.16344 13.7542 2.10441 13.9888 2.113 14.2258C2.13079 14.7169 2.60438 15.1905 3.55156 16.1377L7.8378 20.424Z" fill="#292556" fill-opacity="0.18"/>
</svg>
