<svg width="24" height="24" viewBox="0 0 24 24" fill="none" xmlns="http://www.w3.org/2000/svg">
<path d="M17 20.75C17.4142 20.75 17.75 20.4142 17.75 20C17.75 19.5858 17.4142 19.25 17 19.25V20.75ZM7 19.25C6.58579 19.25 6.25 19.5858 6.25 20C6.25 20.4142 6.58579 20.75 7 20.75V19.25ZM9.75 20C9.75 20.4142 10.0858 20.75 10.5 20.75C10.9142 20.75 11.25 20.4142 11.25 20H9.75ZM12.75 20C12.75 20.4142 13.0858 20.75 13.5 20.75C13.9142 20.75 14.25 20.4142 14.25 20H12.75ZM17 19.25H7V20.75H17V19.25ZM11.25 20V16.75H9.75V20H11.25ZM12.75 16.75V20H14.25V16.75H12.75Z" fill="#292556"/>
<path d="M2.25 10C2.25 7.1877 2.25 5.78155 2.96619 4.79581C3.19748 4.47745 3.47745 4.19748 3.79581 3.96619C4.78155 3.25 6.1877 3.25 9 3.25H15C17.8123 3.25 19.2184 3.25 20.2042 3.96619C20.5226 4.19748 20.8025 4.47745 21.0338 4.79581C21.75 5.78155 21.75 7.1877 21.75 10V10C21.75 12.8123 21.75 14.2184 21.0338 15.2042C20.8025 15.5225 20.5226 15.8025 20.2042 16.0338C19.2184 16.75 17.8123 16.75 15 16.75H13.625H10.375H9C6.1877 16.75 4.78155 16.75 3.79581 16.0338C3.47745 15.8025 3.19748 15.5225 2.96619 15.2042C2.25 14.2184 2.25 12.8123 2.25 10V10Z" fill="#292556" fill-opacity="0.18"/>
</svg>
