<svg width="24" height="24" viewBox="0 0 24 24" fill="none" xmlns="http://www.w3.org/2000/svg">
<path d="M2.25 9.375C2.25 7.15675 2.25 6.04762 2.70444 5.21065C3.05036 4.57354 3.57354 4.05036 4.21065 3.70444C5.04762 3.25 6.15675 3.25 8.375 3.25H15.625C17.8433 3.25 18.9524 3.25 19.7893 3.70444C20.4265 4.05036 20.9496 4.57354 21.2956 5.21065C21.75 6.04762 21.75 7.15675 21.75 9.375V9.375C21.75 11.5933 21.75 12.7024 21.2956 13.5393C20.9496 14.1765 20.4265 14.6996 19.7893 15.0456C18.9524 15.5 17.8433 15.5 15.625 15.5H8.375C6.15675 15.5 5.04762 15.5 4.21065 15.0456C3.57354 14.6996 3.05036 14.1765 2.70444 13.5393C2.25 12.7024 2.25 11.5933 2.25 9.375V9.375Z" fill="#292556" fill-opacity="0.18"/>
<path d="M11.2925 17.1854C11.5976 16.9976 11.7502 16.9037 11.9174 16.8852C11.9723 16.8791 12.0277 16.8791 12.0826 16.8852C12.2498 16.9037 12.4024 16.9976 12.7075 17.1854L14.4379 18.2503C15.8842 19.1403 16.6073 19.5853 16.6001 20.0126C16.5979 20.1428 16.5619 20.2702 16.4955 20.3823C16.2776 20.75 15.4286 20.75 13.7304 20.75H10.2696C8.57144 20.75 7.72236 20.75 7.50451 20.3823C7.43814 20.2702 7.40208 20.1428 7.39989 20.0126C7.39269 19.5853 8.11582 19.1403 9.56207 18.2503L11.2925 17.1854Z" fill="#292556" fill-opacity="0.18"/>
<path d="M12.7276 7.44798C12.6441 7.11411 12.3442 6.87988 12 6.87988C11.6558 6.87988 11.3559 7.11411 11.2724 7.44798C11.1686 7.86322 11.0317 8.10002 10.8759 8.2558C10.7201 8.41159 10.4833 8.54847 10.0681 8.65228C9.73422 8.73574 9.5 9.03573 9.5 9.37988C9.5 9.72403 9.73422 10.024 10.0681 10.1075C10.4833 10.2113 10.7201 10.3482 10.8759 10.504C11.0317 10.6597 11.1686 10.8965 11.2724 11.3118C11.3559 11.6457 11.6558 11.8799 12 11.8799C12.3442 11.8799 12.6441 11.6457 12.7276 11.3118C12.8314 10.8965 12.9683 10.6597 13.1241 10.504C13.2799 10.3482 13.5167 10.2113 13.9319 10.1075C14.2658 10.024 14.5 9.72403 14.5 9.37988C14.5 9.03573 14.2658 8.73574 13.9319 8.65228C13.5167 8.54847 13.2799 8.41159 13.1241 8.2558C12.9683 8.10002 12.8314 7.86322 12.7276 7.44798Z" fill="#292556"/>
</svg>
