<svg width="24" height="24" viewBox="0 0 24 24" fill="none" xmlns="http://www.w3.org/2000/svg">
<path d="M2.70339 6.96546C2.70339 6.23867 2.88503 5.55318 3.19534 4.9668C4.82854 7.15338 7.18971 8.66101 9.87831 9.04644H18.963C19.6088 16.4869 14.4641 21.0005 8.87541 21.0005C6.2028 21.0005 3.77811 19.9408 2 18.2195C2.27484 18.2568 2.54999 18.2719 2.83206 18.2719C4.54251 18.2719 6.11674 17.636 7.36552 16.5706C5.76859 16.5375 4.42142 15.3896 3.95975 13.8038C4.1868 13.8534 4.41385 13.8782 4.64847 13.8782C4.98148 13.8782 5.30692 13.8286 5.60965 13.7378C3.93704 13.3661 2.68069 11.7639 2.68069 9.8313V9.78175C3.17263 10.0791 3.73269 10.2608 4.3306 10.2773C3.34671 9.56702 2.70339 8.3447 2.70339 6.96546Z" fill="#292556" fill-opacity="0.18"/>
<path d="M9.86328 8.67614C9.86328 6.22588 11.8532 4.23955 14.3078 4.23955C15.0685 4.23955 15.7845 4.4303 16.4105 4.76649C16.8131 4.98267 17.1784 5.25898 17.4944 5.58338L19.1277 4.64693C20.1452 4.06355 20.654 3.77185 20.9031 3.91574C20.9789 3.95951 21.0419 4.02241 21.0858 4.09815C21.2299 4.34713 20.9389 4.85623 20.3567 5.87443L18.8969 8.4275C18.9234 8.63583 18.9455 8.84201 18.9632 9.04598H9.8785C9.86842 8.92403 9.86328 8.80068 9.86328 8.67614Z" fill="#292556"/>
</svg>
