<svg width="24" height="24" viewBox="0 0 24 24" fill="none" xmlns="http://www.w3.org/2000/svg">
<path fill-rule="evenodd" clip-rule="evenodd" d="M20.3839 5.38388C20.872 4.89573 20.872 4.10427 20.3839 3.61612C19.8957 3.12796 19.1043 3.12796 18.6161 3.61612L12.6062 9.62607L14.1836 11.5842L20.3839 5.38388ZM9.81629 12.4159L11.3937 14.3741L5.38388 20.3839C4.89573 20.872 4.10427 20.872 3.61612 20.3839C3.12796 19.8957 3.12796 19.1043 3.61612 18.6161L9.81629 12.4159Z" fill="#292556"/>
<path d="M5.25366 3.25C4.1764 3.25 3.63777 3.25 3.41257 3.53354C3.34234 3.62196 3.29298 3.7251 3.26818 3.83527C3.18865 4.18852 3.52654 4.60798 4.20234 5.4469L16.1246 20.2469C16.3012 20.4662 16.3896 20.5759 16.506 20.645C16.5444 20.6678 16.5848 20.6871 16.6266 20.7027C16.7534 20.75 16.8942 20.75 17.1759 20.75H18.7461C19.8233 20.75 20.362 20.75 20.5872 20.4665C20.6574 20.378 20.7067 20.2749 20.7315 20.1647C20.8111 19.8115 20.4732 19.392 19.7974 18.5531L7.87516 3.75311C7.69848 3.53377 7.61013 3.4241 7.49374 3.35503C7.45533 3.33224 7.41497 3.31292 7.37312 3.29731C7.24631 3.25 7.10549 3.25 6.82384 3.25H5.25366Z" fill="#292556" fill-opacity="0.18"/>
</svg>
