<svg width="24" height="24" viewBox="0 0 24 24" fill="none" xmlns="http://www.w3.org/2000/svg">
<path fill-rule="evenodd" clip-rule="evenodd" d="M2.25 12.1033C2.25 10.1518 3.94119 8.2961 6.51677 7.24008C6.52348 7.33062 6.53217 7.42067 6.54282 7.51016C6.75311 9.27767 8.00928 10.2898 9.08337 10.808C10.1478 11.3217 11.3045 11.4999 12 11.4999C12.6955 11.4999 13.8522 11.3217 14.9166 10.808C15.9907 10.2898 17.2469 9.27767 17.4572 7.51016C17.4678 7.42067 17.4765 7.33062 17.4832 7.24008C20.0588 8.2961 21.75 10.1518 21.75 12.1033C21.75 14.0772 20.0196 15.8159 17.3938 16.833L19.5303 18.9696C19.8232 19.2625 19.8232 19.7373 19.5303 20.0302C19.2374 20.3231 18.7626 20.3231 18.4697 20.0302L15.7777 17.3383C14.8348 17.5692 13.8164 17.7163 12.75 17.7635V20.9999C12.75 21.4141 12.4142 21.7499 12 21.7499C11.5858 21.7499 11.25 21.4141 11.25 20.9999V17.7635C10.1784 17.7161 9.15517 17.5677 8.20833 17.3348L5.53207 20.0287C5.24013 20.3225 4.76526 20.3241 4.47141 20.0322C4.17756 19.7402 4.176 19.2654 4.46793 18.9715L6.59627 16.8292C3.97604 15.8115 2.25 14.0747 2.25 12.1033ZM15.9998 6.83008H8.00021C8.00183 7.00026 8.0127 7.16807 8.03232 7.33295C8.28317 9.44141 11 9.99989 12 9.99989C13 9.99989 15.7168 9.44141 15.9677 7.33295C15.9873 7.16807 15.9982 7.00026 15.9998 6.83008Z" fill="#292556" fill-opacity="0.18"/>
<path d="M12 2.5C9.79086 2.5 8 4.41878 8 6.78571C8 6.97115 8.01099 7.15383 8.03232 7.33306C8.28317 9.44152 11 10 12 10C13 10 15.7168 9.44152 15.9677 7.33306C15.989 7.15383 16 6.97115 16 6.78571C16 4.41878 14.2091 2.5 12 2.5Z" fill="#292556"/>
</svg>
