<svg width="24" height="24" viewBox="0 0 24 24" fill="none" xmlns="http://www.w3.org/2000/svg">
<path d="M8.75 19.1052C8.75 18.6909 8.41421 18.3552 8 18.3552C7.58579 18.3552 7.25 18.6909 7.25 19.1052H8.75ZM11.25 14.1699V18.9999H12.75V14.1699H11.25ZM10 20.2499H9.89474V21.7499H10V20.2499ZM9.89474 20.2499C9.26252 20.2499 8.75 19.7374 8.75 19.1052H7.25C7.25 20.5658 8.43409 21.7499 9.89474 21.7499V20.2499ZM11.25 18.9999C11.25 19.6902 10.6904 20.2499 10 20.2499V21.7499C11.5188 21.7499 12.75 20.5187 12.75 18.9999H11.25Z" fill="#292556"/>
<path d="M12 2.25C6.65395 2.25 2.25 6.36546 2.25 11.5263C2.25 11.7648 2.25 11.884 2.32427 12.1881C2.51868 12.9839 3.43717 13.9024 4.233 14.0968C4.53703 14.1711 4.79397 14.1711 5.30785 14.1711H18.6922C19.206 14.1711 19.463 14.1711 19.767 14.0968C20.5628 13.9024 21.4813 12.9839 21.6757 12.1881C21.75 11.884 21.75 11.7648 21.75 11.5263C21.75 6.36546 17.3461 2.25 12 2.25Z" fill="#292556" fill-opacity="0.18"/>
</svg>
