<svg width="24" height="24" viewBox="0 0 24 24" fill="none" xmlns="http://www.w3.org/2000/svg">
<path d="M13.2 2.25H10.8C7.23775 2.25 5.45663 2.25 4.20802 3.15717C3.80477 3.45015 3.45015 3.80477 3.15717 4.20802C2.25 5.45663 2.25 7.23775 2.25 10.8V13.2C2.25 16.7622 2.25 18.5434 3.15717 19.792C3.45015 20.1952 3.80477 20.5499 4.20802 20.8428C5.45663 21.75 7.23775 21.75 10.8 21.75H13.2C16.7622 21.75 18.5434 21.75 19.792 20.8428C20.1952 20.5499 20.5499 20.1952 20.8428 19.792C21.75 18.5434 21.75 16.7622 21.75 13.2V10.8C21.75 7.23775 21.75 5.45663 20.8428 4.20802C20.5499 3.80477 20.1952 3.45015 19.792 3.15717C18.5434 2.25 16.7622 2.25 13.2 2.25Z" fill="#292556" fill-opacity="0.18"/>
<path d="M7 6.5L17 6.5" stroke="#292556" stroke-width="1.5" stroke-linecap="round" stroke-linejoin="round"/>
<path d="M9.43646 13.2363C8.62283 13.2363 8.21602 13.2363 8.06627 13.0302C8.01989 12.9664 7.98928 12.8925 7.97693 12.8146C7.93708 12.5629 8.22474 12.2753 8.80007 11.6999L11.3641 9.1359C11.6293 8.87075 11.7618 8.73818 11.9223 8.71277C11.9741 8.70456 12.0269 8.70456 12.0787 8.71277C12.2392 8.73818 12.3718 8.87075 12.6369 9.1359L15.201 11.7C15.7763 12.2753 16.0639 12.5629 16.0241 12.8146C16.0117 12.8925 15.9811 12.9664 15.9348 13.0302C15.785 13.2363 15.3782 13.2363 14.5646 13.2363L13.6672 13.2363L13.1262 17.5079C13.0544 18.0749 12.572 18.5 12.0005 18.5V18.5C11.429 18.5 10.9467 18.0749 10.8749 17.5079L10.3338 13.2363L9.43646 13.2363Z" fill="#292556"/>
</svg>
