<svg width="24" height="24" viewBox="0 0 24 24" fill="none" xmlns="http://www.w3.org/2000/svg">
<path d="M9.60506 6.63909C10.9244 5.3197 11.5841 4.66 12.3382 4.39616C13.0866 4.13428 13.9017 4.13428 14.6501 4.39616C15.4041 4.66 16.0638 5.3197 17.3832 6.63909V6.63909C18.7026 7.95848 19.3623 8.61817 19.6262 9.37219C19.888 10.1206 19.888 10.9357 19.6262 11.6841C19.3623 12.4382 18.7026 13.0979 17.3832 14.4173L12.6668 19.1337C11.5142 20.2863 10.9379 20.8626 10.303 21.1452C9.3321 21.5775 8.22337 21.5775 7.25247 21.1452C6.61754 20.8626 6.04124 20.2863 4.88865 19.1337V19.1337C3.73606 17.9811 3.15976 17.4048 2.87707 16.7698C2.4448 15.7989 2.4448 14.6902 2.87707 13.7193C3.15976 13.0844 3.73606 12.5081 4.88865 11.3555L9.60506 6.63909Z" fill="#292556" fill-opacity="0.18"/>
<path d="M8.81836 16.3359C8.81836 16.9573 8.31468 17.4609 7.69336 17.4609C7.07204 17.4609 6.56836 16.9573 6.56836 16.3359C6.56836 15.7146 7.07204 15.2109 7.69336 15.2109C8.31468 15.2109 8.81836 15.7146 8.81836 16.3359Z" fill="#292556"/>
<path d="M15.9551 5.35099L17.0723 4.23373C17.6026 3.70344 17.8678 3.43829 18.1887 3.38746C18.2923 3.37105 18.3979 3.37105 18.5016 3.38746C18.8225 3.43829 19.0876 3.70344 19.6179 4.23373L19.766 4.38185C20.2963 4.91214 20.5615 5.17729 20.6123 5.4982C20.6287 5.60185 20.6287 5.70743 20.6123 5.81107C20.5615 6.13199 20.2964 6.39709 19.7662 6.9273C19.3866 7.30689 18.983 7.71048 18.6488 8.04469" stroke="#292556" stroke-width="1.5" stroke-linejoin="round"/>
</svg>
