<svg width="24" height="24" viewBox="0 0 24 24" fill="none" xmlns="http://www.w3.org/2000/svg">
<path d="M20.9588 15.1105C20.5518 17.505 17.498 19.5 17.498 19.5C17.498 19.5 14.4218 17.5049 14.0373 15.1107C13.6527 12.7164 16.3444 11.9183 17.498 13.7742C18.6516 11.9182 21.3658 12.7161 20.9588 15.1105Z" stroke="#292556" stroke-width="1.5" stroke-linecap="round" stroke-linejoin="round"/>
<path fill-rule="evenodd" clip-rule="evenodd" d="M11.0429 2.25C8.97182 2.25 7.29288 3.92893 7.29288 6C7.29288 8.07107 8.97182 9.75 11.0429 9.75C13.114 9.75 14.7929 8.07107 14.7929 6C14.7929 3.92893 13.114 2.25 11.0429 2.25ZM9.57664 11.25C6.51148 11.25 3.7481 13.0963 2.57494 15.9281C1.42641 18.7004 3.46397 21.75 6.46478 21.75H15.6112C16.0574 21.75 16.4824 21.6826 16.8787 21.5586C16.8489 21.5364 16.8175 21.5126 16.7841 21.4874C15.36 20.4101 12.2906 17.7659 12.0279 14.8159C11.8452 13.065 12.58 11.874 13.6181 11.3328C13.2514 11.2781 12.8777 11.25 12.4994 11.25H9.57664Z" fill="#292556" fill-opacity="0.18"/>
</svg>
