<svg width="24" height="24" viewBox="0 0 24 24" fill="none" xmlns="http://www.w3.org/2000/svg">
<path fill-rule="evenodd" clip-rule="evenodd" d="M19.0726 12.6682C18.2808 11.7772 16.8887 11.7772 16.0968 12.6682C15.8117 12.989 15.4306 13.209 15.0103 13.2955C13.8427 13.5358 13.1467 14.7414 13.5223 15.8727C13.6576 16.2799 13.6576 16.72 13.5223 17.1273C13.1467 18.2586 13.8427 19.4641 15.0103 19.7044C15.4306 19.791 15.8117 20.011 16.0968 20.3318C16.8887 21.2227 18.2808 21.2227 19.0726 20.3318C19.3577 20.011 19.7389 19.791 20.1592 19.7044C21.3267 19.4641 22.0227 18.2586 21.6471 17.1273C21.5119 16.72 21.5119 16.2799 21.6471 15.8727C22.0227 14.7414 21.3267 13.5358 20.1592 13.2955C19.7389 13.209 19.3577 12.989 19.0726 12.6682ZM17.5737 17.5589C18.1589 17.5589 18.6333 17.0845 18.6333 16.4993C18.6333 15.9141 18.1589 15.4397 17.5737 15.4397C16.9885 15.4397 16.5141 15.9141 16.5141 16.4993C16.5141 17.0845 16.9885 17.5589 17.5737 17.5589Z" fill="#292556"/>
<path fill-rule="evenodd" clip-rule="evenodd" d="M11.0429 2.25C8.97182 2.25 7.29288 3.92893 7.29288 6C7.29288 8.07107 8.97182 9.75 11.0429 9.75C13.114 9.75 14.7929 8.07107 14.7929 6C14.7929 3.92893 13.114 2.25 11.0429 2.25ZM9.57664 11.25C6.51148 11.25 3.7481 13.0963 2.57494 15.9281C1.42641 18.7004 3.46397 21.75 6.46477 21.75H14.343C12.4984 20.7265 11.25 18.759 11.25 16.5C11.25 14.3559 12.3747 12.4744 14.0663 11.4134C13.5577 11.306 13.0331 11.25 12.4994 11.25H9.57664Z" fill="#292556" fill-opacity="0.18"/>
</svg>
