<svg width="24" height="24" viewBox="0 0 24 24" fill="none" xmlns="http://www.w3.org/2000/svg">
<path fill-rule="evenodd" clip-rule="evenodd" d="M17.25 12C14.7647 12 12.75 14.0147 12.75 16.5C12.75 18.9853 14.7647 21 17.25 21C19.7353 21 21.75 18.9853 21.75 16.5C21.75 14.0147 19.7353 12 17.25 12ZM17.5883 14.9983C17.8635 14.6887 17.8356 14.2146 17.5261 13.9394C17.2165 13.6643 16.7424 13.6921 16.4672 14.0017L14.6894 16.0017C14.4369 16.2859 14.4369 16.7141 14.6894 16.9983L16.4672 18.9983C16.7424 19.3079 17.2165 19.3357 17.5261 19.0606C17.8356 18.7854 17.8635 18.3113 17.5883 18.0017L16.9201 17.25H19.25C19.6642 17.25 20 16.9142 20 16.5C20 16.0858 19.6642 15.75 19.25 15.75L16.9201 15.75L17.5883 14.9983Z" fill="#292556"/>
<path fill-rule="evenodd" clip-rule="evenodd" d="M11.0429 2.25C8.97182 2.25 7.29288 3.92893 7.29288 6C7.29288 8.07107 8.97182 9.75 11.0429 9.75C13.114 9.75 14.7929 8.07107 14.7929 6C14.7929 3.92893 13.114 2.25 11.0429 2.25ZM9.57664 11.25C6.51148 11.25 3.7481 13.0963 2.57494 15.9281C1.42641 18.7004 3.46397 21.75 6.46478 21.75H14.343C12.4984 20.7265 11.25 18.759 11.25 16.5C11.25 14.3559 12.3747 12.4744 14.0663 11.4134C13.5577 11.306 13.0331 11.25 12.4994 11.25H9.57664Z" fill="#292556" fill-opacity="0.18"/>
</svg>
