<svg width="24" height="24" viewBox="0 0 24 24" fill="none" xmlns="http://www.w3.org/2000/svg">
<path fill-rule="evenodd" clip-rule="evenodd" d="M18.2898 12.4514C17.7272 11.8495 16.7728 11.8495 16.2102 12.4514C15.9297 12.7516 15.5331 12.9159 15.1224 12.902C14.2991 12.8742 13.6242 13.5491 13.652 14.3724C13.6659 14.7831 13.5016 15.1797 13.2014 15.4602C12.5995 16.0228 12.5995 16.9772 13.2014 17.5398C13.5016 17.8203 13.6659 18.2169 13.652 18.6276C13.6242 19.4509 14.2991 20.1258 15.1224 20.098C15.5331 20.0841 15.9297 20.2484 16.2102 20.5486C16.7728 21.1505 17.7272 21.1505 18.2898 20.5486C18.5703 20.2484 18.9669 20.0841 19.3776 20.098C20.2009 20.1258 20.8758 19.4509 20.848 18.6276C20.8341 18.2169 20.9984 17.8203 21.2986 17.5398C21.9005 16.9772 21.9005 16.0228 21.2986 15.4602C20.9984 15.1797 20.8341 14.7831 20.848 14.3724C20.8758 13.5491 20.2009 12.8742 19.3776 12.902C18.9669 12.9159 18.5703 12.7516 18.2898 12.4514ZM19.3607 15.8999C19.6506 15.6041 19.6458 15.1293 19.3499 14.8393C19.0541 14.5494 18.5793 14.5542 18.2893 14.8501L16.6628 16.5098L16.2493 16.0176C15.9829 15.7004 15.5098 15.6593 15.1926 15.9257C14.8754 16.1921 14.8343 16.6652 15.1007 16.9824L16.0457 18.1074C16.1818 18.2694 16.3799 18.3663 16.5913 18.3744C16.8026 18.3826 17.0076 18.301 17.1557 18.1499L19.3607 15.8999Z" fill="#292556"/>
<path fill-rule="evenodd" clip-rule="evenodd" d="M11.0429 2.25C8.97182 2.25 7.29288 3.92893 7.29288 6C7.29288 8.07107 8.97182 9.75 11.0429 9.75C13.114 9.75 14.7929 8.07107 14.7929 6C14.7929 3.92893 13.114 2.25 11.0429 2.25ZM9.57664 11.25C6.51148 11.25 3.7481 13.0963 2.57494 15.9281C1.42641 18.7004 3.46397 21.75 6.46478 21.75H14.343C12.4984 20.7265 11.25 18.759 11.25 16.5C11.25 14.3559 12.3747 12.4744 14.0663 11.4134C13.5577 11.306 13.0331 11.25 12.4994 11.25H9.57664Z" fill="#292556" fill-opacity="0.18"/>
</svg>
