<svg width="24" height="24" viewBox="0 0 24 24" fill="none" xmlns="http://www.w3.org/2000/svg">
<path d="M19.2673 18.5C20.8112 16.775 21.75 14.4972 21.75 12C21.75 6.61522 17.3848 2.25 12 2.25C6.61522 2.25 2.25 6.61522 2.25 12C2.25 14.4972 3.18877 16.775 4.73265 18.5C6.51795 20.4947 9.11238 21.75 12 21.75C14.8876 21.75 17.4821 20.4947 19.2673 18.5Z" fill="#292556" fill-opacity="0.18"/>
<path d="M6.19709 15.6127C7.38901 13.5329 9.60285 12.25 12 12.25V12.25C14.3972 12.25 16.611 13.5329 17.8029 15.6127L17.8871 15.7596C18.1052 16.1401 18.0667 16.6201 17.7631 16.9366C16.2394 18.5251 14.3277 19.5 12 19.5C9.67227 19.5 7.76063 18.5251 6.23685 16.9366C5.93327 16.6201 5.89484 16.1401 6.1129 15.7596L6.19709 15.6127Z" fill="#292556"/>
<path d="M8.75 7.75C8.75 5.95507 10.2051 4.5 12 4.5C13.7949 4.5 15.25 5.95507 15.25 7.75C15.25 9.54493 13.7949 11 12 11C10.2051 11 8.75 9.54493 8.75 7.75Z" fill="#292556"/>
</svg>
