<svg width="24" height="24" viewBox="0 0 24 24" fill="none" xmlns="http://www.w3.org/2000/svg">
<path d="M3.41829 16.2027C4.66032 13.2047 7.58591 11.25 10.831 11.25H13.1592C16.4043 11.25 19.3299 13.2047 20.5719 16.2027V16.2027C21.6663 18.8442 19.7249 21.75 16.8656 21.75H7.12464C4.26538 21.75 2.32394 18.8442 3.41829 16.2027V16.2027Z" fill="#292556" fill-opacity="0.18"/>
<path d="M8.25 6C8.25 3.92893 9.92893 2.25 12 2.25C14.0711 2.25 15.75 3.92893 15.75 6C15.75 8.07107 14.0711 9.75 12 9.75C9.92893 9.75 8.25 8.07107 8.25 6Z" fill="#292556" fill-opacity="0.18"/>
<path d="M12.7276 14.5681C12.6441 14.2342 12.3442 14 12 14C11.6558 14 11.3559 14.2342 11.2724 14.5681C11.1686 14.9833 11.0317 15.2201 10.8759 15.3759C10.7201 15.5317 10.4833 15.6686 10.0681 15.7724C9.73422 15.8559 9.5 16.1558 9.5 16.5C9.5 16.8442 9.73422 17.1441 10.0681 17.2276C10.4833 17.3314 10.7201 17.4683 10.8759 17.6241C11.0317 17.7799 11.1686 18.0167 11.2724 18.4319C11.3559 18.7658 11.6558 19 12 19C12.3442 19 12.6441 18.7658 12.7276 18.4319C12.8314 18.0167 12.9683 17.7799 13.1241 17.6241C13.2799 17.4683 13.5167 17.3314 13.9319 17.2276C14.2658 17.1441 14.5 16.8442 14.5 16.5C14.5 16.1558 14.2658 15.8559 13.9319 15.7724C13.5167 15.6686 13.2799 15.5317 13.1241 15.3759C12.9683 15.2201 12.8314 14.9833 12.7276 14.5681Z" fill="#292556"/>
</svg>
