<svg width="24" height="24" viewBox="0 0 24 24" fill="none" xmlns="http://www.w3.org/2000/svg">
<path d="M12 21.75C17.3848 21.75 21.75 17.3848 21.75 12C21.75 6.61522 17.3848 2.25 12 2.25C6.61522 2.25 2.25 6.61522 2.25 12C2.25 17.3848 6.61522 21.75 12 21.75Z" fill="#292556" fill-opacity="0.18"/>
<path d="M17.456 14.6879C16.9145 12.9409 15.2987 11.75 13.4697 11.75H10.5303C8.70135 11.75 7.08546 12.9409 6.54403 14.6879V14.6879C6.1498 15.96 7.10056 17.25 8.43228 17.25H15.5677C16.8994 17.25 17.8502 15.96 17.456 14.6879V14.6879Z" fill="#292556"/>
<path d="M12 10.25C13.3807 10.25 14.5 9.13071 14.5 7.75C14.5 6.36929 13.3807 5.25 12 5.25C10.6193 5.25 9.5 6.36929 9.5 7.75C9.5 9.13071 10.6193 10.25 12 10.25Z" fill="#292556"/>
</svg>
