<svg width="24" height="24" viewBox="0 0 24 24" fill="none" xmlns="http://www.w3.org/2000/svg">
<path fill-rule="evenodd" clip-rule="evenodd" d="M4.70755 8.64001C4.43438 9.01002 3.99521 9.25 3.5 9.25C2.67157 9.25 2 8.57843 2 7.75C2 6.92157 2.67157 6.25 3.5 6.25C4.11122 6.25 4.63706 6.61558 4.87078 7.14001H10.5C10.8871 7.14001 11.2105 7.43455 11.2467 7.8199C11.2829 8.20526 11.0199 8.55486 10.6396 8.62691C7.52738 9.21654 5.25 11.7658 5.25 14.75C5.25 15.1642 4.91421 15.5 4.5 15.5C4.08579 15.5 3.75 15.1642 3.75 14.75C3.75 12.2507 5.00135 10.051 6.92505 8.64001H4.70755ZM20.5 9.25C21.3284 9.25 22 8.57843 22 7.75C22 6.92157 21.3284 6.25 20.5 6.25C19.8888 6.25 19.3629 6.61558 19.1292 7.14001H13.5C13.1129 7.14001 12.7895 7.43455 12.7533 7.8199C12.7171 8.20526 12.9801 8.55486 13.3604 8.62691C16.4726 9.21654 18.75 11.7658 18.75 14.75C18.75 15.1642 19.0858 15.5 19.5 15.5C19.9142 15.5 20.25 15.1642 20.25 14.75C20.25 12.2507 18.9986 10.051 17.0749 8.64001H19.2925C19.5656 9.01002 20.0048 9.25 20.5 9.25Z" fill="#292556" fill-opacity="0.18"/>
<path d="M9.75 7.75C9.75 6.50736 10.7574 5.5 12 5.5V5.5C13.2426 5.5 14.25 6.50736 14.25 7.75V7.75C14.25 8.99264 13.2426 10 12 10V10C10.7574 10 9.75 8.99264 9.75 7.75V7.75Z" fill="#292556"/>
<path d="M2.25 16.25C2.25 15.0074 3.25736 14 4.5 14V14C5.74264 14 6.75 15.0074 6.75 16.25V16.25C6.75 17.4926 5.74264 18.5 4.5 18.5V18.5C3.25736 18.5 2.25 17.4926 2.25 16.25V16.25Z" fill="#292556"/>
<path d="M17.25 16.25C17.25 15.0074 18.2574 14 19.5 14V14C20.7426 14 21.75 15.0074 21.75 16.25V16.25C21.75 17.4926 20.7426 18.5 19.5 18.5V18.5C18.2574 18.5 17.25 17.4926 17.25 16.25V16.25Z" fill="#292556"/>
</svg>
