<svg width="24" height="24" viewBox="0 0 24 24" fill="none" xmlns="http://www.w3.org/2000/svg">
<path d="M11.9164 4.05598L12.0107 3.96176C12.9387 3.03375 13.4027 2.56974 13.9643 2.48079C14.1457 2.45207 14.3304 2.45207 14.5118 2.48079C15.0734 2.56974 15.5374 3.03375 16.4654 3.96176L20.0713 7.56765C20.9993 8.49566 21.4633 8.95967 21.5523 9.52127C21.581 9.70265 21.581 9.88742 21.5523 10.0688C21.4633 10.6304 20.9993 11.0944 20.0713 12.0224L19.9771 12.1166L11.9164 4.05598Z" fill="#292556" fill-opacity="0.18"/>
<path d="M10.8558 5.11664L10.8511 5.12133L7.65109 5.96344C6.88264 6.16566 6.49842 6.26677 6.20658 6.50267C6.11067 6.58019 6.02321 6.66765 5.94569 6.76356C5.70979 7.0554 5.60868 7.43962 5.40646 8.20807L3.64878 14.8873C2.87914 17.8119 2.49433 19.2742 3.09846 20.2026C3.28871 20.495 3.53805 20.7444 3.83044 20.9346C4.75891 21.5388 6.22122 21.1539 9.14583 20.3843L15.825 18.6266C16.5935 18.4244 16.9777 18.3233 17.2695 18.0874C17.3654 18.0099 17.4529 17.9224 17.5304 17.8265C17.7663 17.5347 17.8674 17.1504 18.0697 16.382L18.9118 13.182L18.9164 13.1773L10.8558 5.11664Z" fill="#292556" fill-opacity="0.18"/>
<path fill-rule="evenodd" clip-rule="evenodd" d="M13.0313 11.0211C12.0135 10.0034 10.3634 10.0034 9.34565 11.0211C8.51223 11.8546 8.36127 13.112 8.89277 14.099L6.72065 16.2711C6.42775 16.564 6.42775 17.0389 6.72065 17.3318C7.01354 17.6247 7.48841 17.6247 7.78131 17.3318L9.95343 15.1597C10.9405 15.6912 12.1979 15.5402 13.0313 14.7068C14.0491 13.689 14.0491 12.0389 13.0313 11.0211Z" fill="#292556"/>
</svg>
