<svg width="24" height="24" viewBox="0 0 24 24" fill="none" xmlns="http://www.w3.org/2000/svg">
<path d="M15 4.75C15 5.1078 14.8159 5.44052 14.5 5.71769C13.9625 6.18923 13.0435 6.5 12 6.5C10.9565 6.5 10.0375 6.18923 9.5 5.71769C9.18408 5.44052 9 5.1078 9 4.75C9 3.7835 10.3431 3 12 3C13.6569 3 15 3.7835 15 4.75Z" stroke="#292556" stroke-width="1.5" stroke-linejoin="round"/>
<path d="M9.5098 8.1914C10.1853 8.50873 11.0533 8.75 12 8.75C12.9467 8.75 13.8147 8.50873 14.4902 8.1914C14.8233 8.03491 14.9899 7.95667 15.0892 7.99459C15.1235 8.0077 15.147 8.0226 15.1735 8.0481C15.25 8.12185 15.25 8.29128 15.25 8.63013V12.1181V18.5003C15.25 20.2952 13.7949 21.7503 12 21.7503C10.2051 21.7503 8.75 20.2952 8.75 18.5003V12.1181V8.63013C8.75 8.29128 8.75 8.12185 8.82654 8.0481C8.85301 8.0226 8.87647 8.0077 8.9108 7.99459C9.01009 7.95667 9.17666 8.03491 9.5098 8.1914Z" fill="#292556" fill-opacity="0.18"/>
</svg>
