<svg width="24" height="24" viewBox="0 0 24 24" fill="none" xmlns="http://www.w3.org/2000/svg">
<path d="M14.75 2.25H9.25C8.42157 2.25 7.75 2.92157 7.75 3.75C7.75 4.57843 8.42157 5.25 9.25 5.25H14.75C15.5784 5.25 16.25 4.57843 16.25 3.75C16.25 2.92157 15.5784 2.25 14.75 2.25Z" fill="#292556"/>
<path d="M15.25 18.5V13.0403V8.1C15.25 7.53754 15.25 7.25631 15.1068 7.05916C15.0605 6.99549 15.0045 6.9395 14.9408 6.89324C14.7437 6.75 14.4625 6.75 13.9 6.75H10.1C9.53754 6.75 9.25631 6.75 9.05916 6.89324C8.99549 6.9395 8.9395 6.99549 8.89324 7.05916C8.75 7.25631 8.75 7.53754 8.75 8.1V13.0403V18.5C8.75 20.2949 10.2051 21.75 12 21.75C13.7949 21.75 15.25 20.2949 15.25 18.5Z" fill="#292556" fill-opacity="0.18"/>
</svg>
