<svg width="24" height="24" viewBox="0 0 24 24" fill="none" xmlns="http://www.w3.org/2000/svg">
<path d="M13.7679 4.25H10C7.19809 4.25 5.79714 4.25 4.73925 4.8225C3.92772 5.26168 3.26168 5.92772 2.8225 6.73925C2.25 7.79714 2.25 9.19809 2.25 12C2.25 14.8019 2.25 16.2029 2.8225 17.2608C3.26168 18.0723 3.92772 18.7383 4.73925 19.1775C5.79714 19.75 7.19809 19.75 10 19.75H13.7679C13.9834 19.75 14.0912 19.75 14.1823 19.7465C16.6625 19.6513 18.6513 17.6625 18.7465 15.1823C18.75 15.0912 18.75 14.9834 18.75 14.7679L18.9577 14.9051C20.0408 15.6207 20.5823 15.9785 21.0244 15.8523C21.1631 15.8128 21.2916 15.7437 21.401 15.6498C21.75 15.3505 21.75 14.7014 21.75 13.4033V10.5967C21.75 9.29858 21.75 8.64952 21.401 8.35021C21.2916 8.25633 21.1631 8.18724 21.0244 8.14767C20.5823 8.0215 20.0408 8.37929 18.9577 9.09489L18.75 9.23214C18.75 9.0166 18.75 8.90883 18.7465 8.81772C18.6513 6.33749 16.6625 4.34875 14.1823 4.2535C14.0912 4.25 13.9834 4.25 13.7679 4.25Z" fill="#292556" fill-opacity="0.18"/>
<path d="M15 8.75C15 9.16421 14.6642 9.5 14.25 9.5C13.8358 9.5 13.5 9.16421 13.5 8.75C13.5 8.33579 13.8358 8 14.25 8C14.6642 8 15 8.33579 15 8.75Z" fill="#292556"/>
<path d="M11.5 9.5C11.9142 9.5 12.25 9.16421 12.25 8.75C12.25 8.33579 11.9142 8 11.5 8L11.5 9.5ZM6.5 8C6.08579 8 5.75 8.33579 5.75 8.75C5.75 9.16421 6.08579 9.5 6.5 9.5L6.5 8ZM11.5 8L6.5 8L6.5 9.5L11.5 9.5L11.5 8Z" fill="#292556"/>
</svg>
