<svg width="24" height="24" viewBox="0 0 24 24" fill="none" xmlns="http://www.w3.org/2000/svg">
<path d="M13.7679 4.25H10C7.19809 4.25 5.79714 4.25 4.73925 4.8225C3.92772 5.26168 3.26168 5.92772 2.8225 6.73925C2.25 7.79714 2.25 9.19809 2.25 12C2.25 14.8019 2.25 16.2029 2.8225 17.2608C3.26168 18.0723 3.92772 18.7383 4.73925 19.1775C5.79714 19.75 7.19809 19.75 10 19.75H13.7679C13.9834 19.75 14.0912 19.75 14.1823 19.7465C16.6625 19.6513 18.6513 17.6625 18.7465 15.1823C18.75 15.0912 18.75 14.9834 18.75 14.7679L18.9577 14.9051C20.0408 15.6207 20.5823 15.9785 21.0244 15.8523C21.1631 15.8128 21.2916 15.7437 21.401 15.6498C21.75 15.3505 21.75 14.7014 21.75 13.4033V10.5967C21.75 9.29858 21.75 8.64952 21.401 8.35021C21.2916 8.25633 21.1631 8.18724 21.0244 8.14767C20.5823 8.0215 20.0408 8.37929 18.9577 9.09489L18.75 9.23214C18.75 9.0166 18.75 8.90883 18.7465 8.81772C18.6513 6.33749 16.6625 4.34875 14.1823 4.2535C14.0912 4.25 13.9834 4.25 13.7679 4.25Z" fill="#292556" fill-opacity="0.18"/>
<path d="M15 8.75C15 9.16421 14.6642 9.5 14.25 9.5C13.8358 9.5 13.5 9.16421 13.5 8.75C13.5 8.33579 13.8358 8 14.25 8C14.6642 8 15 8.33579 15 8.75Z" fill="#292556"/>
<path d="M8.47761 12.3181C8.39414 11.9842 8.09415 11.75 7.75 11.75C7.40585 11.75 7.10586 11.9842 7.02239 12.3181C6.91858 12.7333 6.7817 12.9701 6.62592 13.1259C6.47014 13.2817 6.23333 13.4186 5.8181 13.5224C5.48422 13.6059 5.25 13.9058 5.25 14.25C5.25 14.5942 5.48422 14.8941 5.8181 14.9776C6.23333 15.0814 6.47014 15.2183 6.62592 15.3741C6.7817 15.5299 6.91858 15.7667 7.02239 16.1819C7.10586 16.5158 7.40585 16.75 7.75 16.75C8.09415 16.75 8.39414 16.5158 8.47761 16.1819C8.58142 15.7667 8.7183 15.5299 8.87408 15.3741C9.02986 15.2183 9.26667 15.0814 9.6819 14.9776C10.0158 14.8941 10.25 14.5942 10.25 14.25C10.25 13.9058 10.0158 13.6059 9.6819 13.5224C9.26667 13.4186 9.02986 13.2817 8.87408 13.1259C8.7183 12.9701 8.58142 12.7333 8.47761 12.3181Z" fill="#292556"/>
<path d="M11.5 9.5C11.9142 9.5 12.25 9.16421 12.25 8.75C12.25 8.33579 11.9142 8 11.5 8L11.5 9.5ZM6.5 8C6.08579 8 5.75 8.33579 5.75 8.75C5.75 9.16421 6.08579 9.5 6.5 9.5L6.5 8ZM11.5 8L6.5 8L6.5 9.5L11.5 9.5L11.5 8Z" fill="#292556"/>
</svg>
