<svg width="24" height="24" viewBox="0 0 24 24" fill="none" xmlns="http://www.w3.org/2000/svg">
<path fill-rule="evenodd" clip-rule="evenodd" d="M8.73956 4.35277C9.09828 4.14566 9.22119 3.68697 9.01408 3.32825C8.80697 2.96953 8.34828 2.84662 7.98956 3.05373L7.12354 3.55373L6.25751 4.05373C5.89879 4.26084 5.77588 4.71953 5.98299 5.07825C6.1901 5.43697 6.64879 5.55988 7.00751 5.35277L7.22402 5.22777L7.99479 6.56278C6.48297 7.6778 5.4982 9.38533 5.2904 11.2525H3.74023V11.0025C3.74023 10.5883 3.40445 10.2525 2.99023 10.2525C2.57602 10.2525 2.24023 10.5883 2.24023 11.0025V12.0025V13.0025C2.24023 13.4167 2.57602 13.7525 2.99023 13.7525C3.40445 13.7525 3.74023 13.4167 3.74023 13.0025V12.7525H5.29239C5.32995 13.0826 5.39239 13.414 5.48098 13.7446C5.5045 13.8324 5.52965 13.9194 5.55639 14.0054C5.99788 15.4275 6.8727 16.6054 7.99512 17.4319L7.22408 18.7674L7.00757 18.6424C6.64885 18.4353 6.19016 18.5582 5.98305 18.9169C5.77595 19.2756 5.89885 19.7343 6.25757 19.9414L7.1236 20.4414L7.98962 20.9414C8.34834 21.1485 8.80704 21.0256 9.01414 20.6669C9.22125 20.3082 9.09834 19.8495 8.73962 19.6424L8.52312 19.5174L9.29389 18.1824C10.6485 18.7764 12.2067 18.9311 13.7466 18.5185C14.0787 18.4295 14.3984 18.3172 14.7043 18.1839L15.474 19.5171L15.2575 19.6421C14.8988 19.8492 14.7759 20.3079 14.983 20.6666C15.1901 21.0253 15.6488 21.1482 16.0075 20.9411L16.8735 20.4411L17.7395 19.9411C18.0983 19.734 18.2212 19.2753 18.0141 18.9166C17.8069 18.5579 17.3483 18.435 16.9895 18.6421L16.773 18.7671L16.0039 17.4349C17.5175 16.3199 18.5035 14.6114 18.7115 12.7429H20.2569V12.9929C20.2569 13.4071 20.5927 13.7429 21.0069 13.7429C21.4211 13.7429 21.7569 13.4071 21.7569 12.9929V11.9929V10.9929C21.7569 10.5787 21.4211 10.2429 21.0069 10.2429C20.5927 10.2429 20.2569 10.5787 20.2569 10.9929V11.2429H18.7096C18.672 10.9127 18.6096 10.5812 18.521 10.2506C18.1083 8.71042 17.195 7.43808 16.0031 6.56171L16.7731 5.22797L16.9896 5.35297C17.3483 5.56008 17.807 5.43717 18.0141 5.07845C18.2212 4.71973 18.0983 4.26104 17.7396 4.05393L16.8736 3.55393L16.0076 3.05393C15.6489 2.84683 15.1902 2.96973 14.9831 3.32845C14.7759 3.68717 14.8989 4.14587 15.2576 4.35297L15.4741 4.47797L14.7038 5.8121C13.3498 5.21941 11.7927 5.06531 10.2539 5.47762C9.92103 5.56682 9.60063 5.67941 9.29404 5.81315L8.52305 4.47777L8.73956 4.35277Z" fill="#292556" fill-opacity="0.18"/>
<path d="M12.5 10.75C12.5 11.1642 12.1642 11.5 11.75 11.5C11.3358 11.5 11 11.1642 11 10.75C11 10.3358 11.3358 10 11.75 10C12.1642 10 12.5 10.3358 12.5 10.75Z" fill="#292556"/>
<path d="M14.5 14.75C14.5 15.1642 14.1642 15.5 13.75 15.5C13.3358 15.5 13 15.1642 13 14.75C13 14.3358 13.3358 14 13.75 14C14.1642 14 14.5 14.3358 14.5 14.75Z" fill="#292556"/>
<path d="M15.5 9.75C15.5 10.1642 15.1642 10.5 14.75 10.5C14.3358 10.5 14 10.1642 14 9.75C14 9.33579 14.3358 9 14.75 9C15.1642 9 15.5 9.33579 15.5 9.75Z" fill="#292556"/>
<path d="M10.5 13.75C10.5 14.1642 10.1642 14.5 9.75 14.5C9.33579 14.5 9 14.1642 9 13.75C9 13.3358 9.33579 13 9.75 13C10.1642 13 10.5 13.3358 10.5 13.75Z" fill="#292556"/>
</svg>
