<svg width="24" height="24" viewBox="0 0 24 24" fill="none" xmlns="http://www.w3.org/2000/svg">
<path d="M12 15.25C13.7287 15.25 15.3191 14.9667 16.6338 14.4934C15.2383 13.9472 14.25 12.589 14.25 11C14.25 8.92893 15.9289 7.25 18 7.25C20.0711 7.25 21.75 8.92893 21.75 11C21.75 11.8456 21.4701 12.6254 20.9985 13.2522C20.4551 14.0214 19.6556 14.676 18.7282 15.1912C16.9684 16.1688 14.5882 16.75 12 16.75V15.25Z" fill="#292556"/>
<path d="M9.75 11C9.75 12.589 8.76163 13.9472 7.36612 14.4934C7.67954 14.6062 8.00973 14.7086 8.3552 14.7992C9.45359 15.087 10.6895 15.25 12 15.25V16.75C10.5673 16.75 9.20334 16.5721 7.97497 16.2502C6.37002 15.8296 4.96688 15.1551 3.94917 14.2811C3.58987 13.9726 3.27257 13.6331 3.01237 13.2666C2.5342 12.6373 2.25 11.8521 2.25 11C2.25 8.92893 3.92893 7.25 6 7.25C8.07107 7.25 9.75 8.92893 9.75 11Z" fill="#292556" fill-opacity="0.18"/>
</svg>
