<svg width="24" height="24" viewBox="0 0 24 24" fill="none" xmlns="http://www.w3.org/2000/svg">
<path fill-rule="evenodd" clip-rule="evenodd" d="M18.1073 13.6109C18.2285 9.16038 16.3526 5.00201 13.1001 2.19531C15.2465 2.43488 17.3294 3.37764 18.9754 5.02361C20.8227 6.87091 21.7841 9.26714 21.86 11.6881C20.672 12.8009 19.3859 13.4273 18.1073 13.6109ZM6.55217 15.188C9.61282 18.4142 13.8755 20.0245 18.1558 19.7094C14.3637 22.745 8.85111 22.5743 5.25263 19.1972C5.33477 17.5829 5.79768 16.2276 6.55217 15.188ZM4.80475 5.24943C6.43743 5.3025 7.79301 5.77148 8.82782 6.55009C6.25775 7.35301 3.95928 8.85435 2.19531 10.8991C2.42402 8.84957 3.29383 6.85803 4.80475 5.24943Z" fill="#292556" fill-opacity="0.18"/>
<path fill-rule="evenodd" clip-rule="evenodd" d="M10.4851 6.00703C9.40436 4.92629 7.99419 4.21147 6.3516 3.90876C7.65399 2.99727 9.12733 2.43687 10.6399 2.22754C14.467 4.67585 16.7521 8.96833 16.6064 13.6243C15.2911 13.4594 13.9651 12.8268 12.7433 11.6786C12.6834 9.60907 12.0436 7.81544 10.8931 6.45124C10.7633 6.29731 10.6272 6.14917 10.4851 6.00703ZM17.3093 15.1681C18.8367 15.1675 20.3384 14.6762 21.7131 13.7301C21.4474 15.2292 20.8337 16.6778 19.8725 17.9466C15.4316 18.9224 10.7768 17.5 7.58729 14.0989C8.6266 13.2649 10.0054 12.7708 11.6924 12.7493C13.3717 14.3365 15.3188 15.169 17.3093 15.1681ZM5.99705 13.5222C4.93931 14.6133 4.23904 16.033 3.92657 17.6722C3.00493 16.3639 2.43874 14.8817 2.22803 13.3597C4.02675 10.5468 6.82074 8.56761 10.0219 7.77254C10.6856 8.69912 11.1096 9.87342 11.2195 11.2654C9.09188 11.3879 7.29989 12.1783 5.99705 13.5222Z" fill="#292556"/>
</svg>
