<svg width="24" height="24" viewBox="0 0 24 24" fill="none" xmlns="http://www.w3.org/2000/svg">
<path fill-rule="evenodd" clip-rule="evenodd" d="M8.26758 16.5986C10.0798 18.1272 11.039 18.8988 11.8442 19.0087C13.006 19.1673 14.1537 18.6345 14.7824 17.6447C15.25 16.9085 15.25 15.5449 15.25 12.8177V9.61621L8.26758 16.5986Z" fill="#292556"/>
<path d="M3 21L21 3" stroke="#292556" stroke-width="1.5" stroke-linecap="round" stroke-linejoin="round"/>
<path d="M15.25 6.08337V6.08337C15.25 4.18817 13.0911 3.10174 11.5691 4.23099L7.5 7.25V13.8334L15.25 6.08337Z" fill="#292556" fill-opacity="0.18"/>
<path d="M6 15.3334L5.09344 16.2399V16.2399C4.97818 16.2386 4.92055 16.238 4.87171 16.2357C3.44206 16.169 2.30262 15.0168 2.25174 13.5865C2.25 13.5376 2.25 13.48 2.25 13.3647V11.5C2.25 10.5698 2.25 10.1047 2.36138 9.72534C2.62504 8.82733 3.32732 8.12506 4.22534 7.86142C4.6047 7.75005 5.0698 7.75006 6 7.75008V7.75008V15.3334Z" fill="#292556" fill-opacity="0.18"/>
</svg>
