<svg width="24" height="24" viewBox="0 0 24 24" fill="none" xmlns="http://www.w3.org/2000/svg">
<path fill-rule="evenodd" clip-rule="evenodd" d="M10.2 3.25H10.1555H10.1555C8.69333 3.24999 7.53485 3.24998 6.61302 3.34986C5.66783 3.45226 4.88291 3.66683 4.20802 4.15717C3.80477 4.45015 3.45015 4.80477 3.15717 5.20802C2.66683 5.88291 2.45226 6.66783 2.34986 7.61302C2.24998 8.53485 2.24999 9.69333 2.25 11.1555V11.1555V11.2V13.5V15C2.25 15.0352 2.25243 15.0699 2.25713 15.1038C2.27729 16.422 2.35448 17.2342 2.65008 17.9081C3.12885 18.9995 4.00046 19.8712 5.09195 20.3499C6.00403 20.75 7.16935 20.75 9.5 20.75H14.5C16.8306 20.75 17.996 20.75 18.9081 20.3499C19.9995 19.8712 20.8712 18.9995 21.3499 17.9081C21.75 16.996 21.75 15.8306 21.75 13.5C21.75 11.1694 21.75 10.004 21.3499 9.09195C20.8712 8.00046 19.9995 7.12885 18.9081 6.65008C18.8487 6.62402 18.7882 6.59967 18.7264 6.5769C18.5162 4.70502 16.928 3.25 15 3.25H10.2ZM17.1368 6.2933C16.8405 5.39686 15.9958 4.75 15 4.75H10.2C8.6834 4.75 7.6062 4.75103 6.77459 4.84113C5.95703 4.92971 5.46627 5.0971 5.0897 5.3707C4.81379 5.57115 4.57115 5.81379 4.3707 6.0897C4.14037 6.40672 3.98531 6.80466 3.88917 7.41039C4.2467 7.10054 4.65141 6.84331 5.09195 6.65008C6.00403 6.25 7.16935 6.25 9.5 6.25H14.5C15.6107 6.25 16.4567 6.25 17.1368 6.2933Z" fill="#292556" fill-opacity="0.18"/>
<path d="M15 10.5H17" stroke="#292556" stroke-width="1.5" stroke-linecap="round" stroke-linejoin="round"/>
</svg>
