<svg width="24" height="24" viewBox="0 0 24 24" fill="none" xmlns="http://www.w3.org/2000/svg">
<path d="M2.25 13.4282V15C2.25 17.8123 2.25 19.2184 2.96619 20.2042C3.19748 20.5226 3.47745 20.8025 3.79581 21.0338C4.78155 21.75 6.1877 21.75 9 21.75H15C17.8123 21.75 19.2184 21.75 20.2042 21.0338C20.5226 20.8025 20.8025 20.5226 21.0338 20.2042C21.75 19.2184 21.75 17.8123 21.75 15V13.4282C21.75 11.8764 21.75 11.1004 21.5285 10.3812C21.4372 10.0848 21.3186 9.7976 21.1741 9.5232C20.8234 8.85735 20.2758 8.30763 19.1806 7.20818C16.2717 4.28816 14.8173 2.82814 13.0681 2.49746C12.3623 2.36402 11.6377 2.36402 10.9319 2.49746C9.18269 2.82814 7.72827 4.28816 4.81944 7.20818C3.7242 8.30763 3.17659 8.85735 2.82594 9.5232C2.68144 9.7976 2.56279 10.0848 2.47151 10.3812C2.25 11.1004 2.25 11.8764 2.25 13.4282Z" fill="#292556" fill-opacity="0.18"/>
<path d="M12 5.5C10.7574 5.5 9.75 6.50736 9.75 7.75C9.75 8.99264 10.7574 10 12 10C13.2426 10 14.25 8.99264 14.25 7.75C14.25 6.50736 13.2426 5.5 12 5.5Z" fill="#292556"/>
<path d="M7 21H6.25C6.25 21.4142 6.58579 21.75 7 21.75V21ZM17 21V21.75C17.4142 21.75 17.75 21.4142 17.75 21H17ZM16.5878 12.191L16.1469 12.7977L16.5878 12.191ZM16.809 12.4122L16.2023 12.8531L16.809 12.4122ZM7.41221 12.191L6.97138 11.5842L7.41221 12.191ZM7.19098 12.4122L6.58422 11.9714L7.19098 12.4122ZM8.8 12.75H15.2V11.25H8.8V12.75ZM7.75 15V13.8H6.25V15H7.75ZM17.75 15V13.8H16.25V15H17.75ZM7 15.75H17V14.25H7V15.75ZM7.75 21V18H6.25V21H7.75ZM7.75 18V15H6.25V18H7.75ZM17.75 21V18H16.25V21H17.75ZM17.75 18V15H16.25V18H17.75ZM7 18.75H17V17.25H7V18.75ZM7 21.75H17V20.25H7V21.75ZM15.2 12.75C15.5917 12.75 15.8252 12.751 15.9958 12.7695C16.1523 12.7865 16.1647 12.8106 16.1469 12.7977L17.0286 11.5842C16.748 11.3804 16.4415 11.309 16.1573 11.2782C15.8872 11.249 15.5583 11.25 15.2 11.25V12.75ZM17.75 13.8C17.75 13.4417 17.751 13.1128 17.7218 12.8427C17.691 12.5585 17.6196 12.252 17.4158 11.9714L16.2023 12.8531C16.1894 12.8353 16.2135 12.8477 16.2305 13.0042C16.249 13.1748 16.25 13.4083 16.25 13.8H17.75ZM16.1469 12.7977C16.1682 12.8132 16.1868 12.8318 16.2023 12.8531L17.4158 11.9714C17.3078 11.8228 17.1772 11.6922 17.0286 11.5842L16.1469 12.7977ZM8.8 11.25C8.44173 11.25 8.11279 11.249 7.84267 11.2782C7.55851 11.309 7.25197 11.3804 6.97138 11.5842L7.85305 12.7977C7.83533 12.8106 7.8477 12.7865 8.00424 12.7695C8.17481 12.751 8.40832 12.75 8.8 12.75V11.25ZM7.75 13.8C7.75 13.4083 7.75103 13.1748 7.76951 13.0042C7.78647 12.8477 7.81063 12.8353 7.79775 12.8531L6.58422 11.9714C6.38036 12.252 6.30902 12.5585 6.27824 12.8427C6.24897 13.1128 6.25 13.4417 6.25 13.8H7.75ZM6.97138 11.5842C6.82281 11.6922 6.69216 11.8228 6.58422 11.9714L7.79775 12.8531C7.81317 12.8318 7.83183 12.8132 7.85305 12.7977L6.97138 11.5842Z" fill="#292556"/>
</svg>
