<svg width="24" height="24" viewBox="0 0 24 24" fill="none" xmlns="http://www.w3.org/2000/svg">
<path d="M2.25 9.45C2.25 6.45021 2.25 4.95032 3.01393 3.89886C3.26065 3.55928 3.55928 3.26065 3.89886 3.01393C4.95032 2.25 6.45021 2.25 9.45 2.25H14.55C17.5498 2.25 19.0497 2.25 20.1011 3.01393C20.4407 3.26065 20.7394 3.55928 20.9861 3.89886C21.75 4.95032 21.75 6.45021 21.75 9.45V14.55C21.75 17.5498 21.75 19.0497 20.9861 20.1011C20.7394 20.4407 20.4407 20.7394 20.1011 20.9861C19.0497 21.75 17.5498 21.75 14.55 21.75H9.45C6.45021 21.75 4.95032 21.75 3.89886 20.9861C3.55928 20.7394 3.26065 20.4407 3.01393 20.1011C2.25 19.0497 2.25 17.5498 2.25 14.55V9.45Z" fill="#292556" fill-opacity="0.18"/>
<path d="M7 9.22222C8.35196 7.83533 10.0961 7 12 7C13.9039 7 15.648 7.83533 17 9.22222M15.6111 11.296C14.5608 10.2447 13.326 9.63889 12.0048 9.63889C10.6795 9.63889 9.44126 10.2484 8.38889 11.3056M9.91667 13.25C10.4946 12.6401 11.2167 12.2778 12 12.2778C12.7833 12.2778 13.5054 12.6401 14.0833 13.25" stroke="#292556" stroke-width="1.5" stroke-linecap="round" stroke-linejoin="round"/>
<path d="M13.8504 15.8813C13.8504 16.903 13.0221 17.7313 12.0004 17.7313C10.9787 17.7313 10.1504 16.903 10.1504 15.8813C10.1504 14.8595 10.9787 14.0312 12.0004 14.0312C13.0221 14.0312 13.8504 14.8595 13.8504 15.8813Z" fill="#292556"/>
</svg>
