<svg width="24" height="24" viewBox="0 0 24 24" fill="none" xmlns="http://www.w3.org/2000/svg">
<path fill-rule="evenodd" clip-rule="evenodd" d="M10 2.41406C7.13438 2.88322 4.5427 4.34471 2.46295 6.47819C2.17382 6.77479 2.17987 7.24963 2.47648 7.53876C2.77308 7.82789 3.24792 7.82184 3.53705 7.52523C5.35894 5.65628 7.57773 4.39048 10 3.93712V2.41406ZM10 7.24145C8.14945 7.68788 6.44654 8.73782 4.96847 10.2226C4.67624 10.5161 4.67732 10.991 4.97087 11.2832C5.26442 11.5755 5.7393 11.5744 6.03153 11.2808C7.25184 10.055 8.59213 9.20863 10 8.79426V7.24145ZM14 8.78922V7.23733C15.8496 7.67958 17.5522 8.72466 19.0306 10.2044C19.3233 10.4974 19.3231 10.9723 19.0301 11.265C18.7371 11.5578 18.2622 11.5576 17.9694 11.2646C16.7485 10.0425 15.4079 9.19993 14 8.78922ZM10 12.1407C9.14525 12.4827 8.36984 13.0348 7.70558 13.7359C7.42068 14.0365 7.43347 14.5112 7.73415 14.7961C8.03482 15.081 8.50953 15.0682 8.79442 14.7676C9.16913 14.3721 9.57389 14.0489 10 13.8041V12.1407ZM14 13.8041V12.1407C14.8547 12.4827 15.6302 13.0348 16.2944 13.7359C16.5793 14.0365 16.5665 14.5112 16.2659 14.7961C15.9652 15.081 15.4905 15.0682 15.2056 14.7676C14.8309 14.3721 14.4261 14.0489 14 13.8041ZM14 3.93712V2.41406C16.8656 2.88322 19.4573 4.34471 21.5371 6.47819C21.8262 6.77479 21.8201 7.24963 21.5235 7.53876C21.2269 7.82789 20.7521 7.82184 20.4629 7.52523C18.6411 5.65628 16.4223 4.39048 14 3.93712Z" fill="#292556" fill-opacity="0.18"/>
<path d="M12 14L12 3" stroke="#292556" stroke-width="1.5" stroke-linecap="round"/>
<path d="M14.5 18C14.5 19.3807 13.3807 20.5 12 20.5C10.6193 20.5 9.5 19.3807 9.5 18C9.5 16.6193 10.6193 15.5 12 15.5C13.3807 15.5 14.5 16.6193 14.5 18Z" fill="#292556"/>
</svg>
