<svg width="24" height="24" viewBox="0 0 24 24" fill="none" xmlns="http://www.w3.org/2000/svg">
<path fill-rule="evenodd" clip-rule="evenodd" d="M15.4943 3.73908C14.4193 3.42923 13.2534 3.25 12 3.25C7.78458 3.25 4.55814 5.27737 2.45701 7.48265C2.17128 7.78253 2.18276 8.25727 2.48265 8.543C2.78253 8.82872 3.25727 8.81724 3.543 8.51735C5.44186 6.52438 8.29902 4.75 12 4.75C12.7907 4.75 13.5429 4.831 14.2555 4.97782L15.4943 3.73908ZM11.7824 7.45091C9.07829 7.51701 6.67626 8.80753 4.97673 10.4627C4.67999 10.7517 4.67371 11.2265 4.96271 11.5233C5.2517 11.82 5.72653 11.8263 6.02327 11.5373C7.10548 10.4833 8.48526 9.62613 10.0195 9.21387L11.7824 7.45091ZM13.6388 9.13006L14.8586 7.91025C16.4758 8.438 17.9024 9.37104 19.0233 10.4627C19.32 10.7517 19.3263 11.2265 19.0373 11.5233C18.7483 11.82 18.2735 11.8263 17.9767 11.5373C16.8148 10.4056 15.3097 9.50082 13.6388 9.13006ZM8.0191 14.7498L11.0536 11.7153C11.3627 11.67 11.6787 11.6465 12 11.6465C13.7394 11.6465 15.3219 12.334 16.5135 13.4534C16.8154 13.737 16.8302 14.2116 16.5466 14.5135C16.263 14.8154 15.7884 14.8302 15.4865 14.5466C14.5551 13.6717 13.334 13.1465 12 13.1465C10.666 13.1465 9.44489 13.6717 8.5135 14.5466C8.3737 14.678 8.19686 14.7453 8.0191 14.7498ZM16.8897 5.87917L18.0037 4.76513C19.4064 5.51947 20.5903 6.48277 21.543 7.48265C21.8287 7.78253 21.8172 8.25727 21.5174 8.543C21.2175 8.82872 20.7427 8.81724 20.457 8.51735C19.5043 7.51744 18.3104 6.57255 16.8897 5.87917Z" fill="#292556" fill-opacity="0.18"/>
<path d="M4 18L20 2" stroke="#292556" stroke-width="1.5" stroke-linecap="round" stroke-linejoin="round"/>
<path d="M14.5 18C14.5 19.3807 13.3807 20.5 12 20.5C10.6193 20.5 9.5 19.3807 9.5 18C9.5 16.6193 10.6193 15.5 12 15.5C13.3807 15.5 14.5 16.6193 14.5 18Z" fill="#292556"/>
</svg>
