<svg width="24" height="24" viewBox="0 0 24 24" fill="none" xmlns="http://www.w3.org/2000/svg">
<path d="M21.75 3.66846C21.75 3.04677 21.75 2.73593 21.5867 2.53085C21.5342 2.46493 21.4709 2.40833 21.3996 2.36343C21.1777 2.22374 20.8688 2.25807 20.2509 2.32672L13.9509 3.02672C13.4457 3.08286 13.1931 3.11092 13.0199 3.25526C12.9637 3.30208 12.9147 3.35687 12.8743 3.41788C12.75 3.60597 12.75 3.86014 12.75 4.36846V9.89811C12.75 10.4606 12.75 10.7418 12.8932 10.9389C12.9395 11.0026 12.9955 11.0586 13.0592 11.1049C13.2563 11.2481 13.5375 11.2481 14.1 11.2481H20.4C20.9625 11.2481 21.2437 11.2481 21.4408 11.1049C21.5045 11.0586 21.5605 11.0026 21.6068 10.9389C21.75 10.7418 21.75 10.4606 21.75 9.89811V3.66846Z" fill="#292556"/>
<path d="M11.25 4.83546C11.25 4.21377 11.25 3.90292 11.0867 3.69784C11.0342 3.63192 10.9709 3.57532 10.8996 3.53042C10.6777 3.39073 10.3688 3.42506 9.75092 3.49371L3.45092 4.19371C2.9457 4.24985 2.69309 4.27792 2.51988 4.42225C2.46369 4.46907 2.41465 4.52386 2.37433 4.58487C2.25 4.77296 2.25 5.02713 2.25 5.53546V9.89843C2.25 10.4609 2.25 10.7421 2.39324 10.9393C2.4395 11.0029 2.49549 11.0589 2.55916 11.1052C2.75631 11.2484 3.03754 11.2484 3.6 11.2484H9.9C10.4625 11.2484 10.7437 11.2484 10.9408 11.1052C11.0045 11.0589 11.0605 11.0029 11.1068 10.9393C11.25 10.7421 11.25 10.4609 11.25 9.89843V4.83546Z" fill="#292556" fill-opacity="0.18"/>
<path d="M3.6 12.7484C3.03754 12.7484 2.75631 12.7484 2.55916 12.8917C2.49549 12.9379 2.4395 12.9939 2.39324 13.0576C2.25 13.2547 2.25 13.536 2.25 14.0984V18.4614C2.25 18.9697 2.25 19.2239 2.37433 19.412C2.41465 19.473 2.46369 19.5278 2.51988 19.5746C2.69309 19.7189 2.9457 19.747 3.45092 19.8031L9.75092 20.5031C10.3688 20.5718 10.6777 20.6061 10.8996 20.4664C10.9709 20.4215 11.0342 20.3649 11.0867 20.299C11.25 20.0939 11.25 19.7831 11.25 19.1614V14.0984C11.25 13.536 11.25 13.2547 11.1068 13.0576C11.0605 12.9939 11.0045 12.9379 10.9408 12.8917C10.7437 12.7484 10.4625 12.7484 9.9 12.7484H3.6Z" fill="#292556" fill-opacity="0.18"/>
<path d="M14.1 12.7484C13.5375 12.7484 13.2563 12.7484 13.0592 12.8917C12.9955 12.9379 12.9395 12.9939 12.8932 13.0576C12.75 13.2547 12.75 13.536 12.75 14.0984V19.6281C12.75 20.1364 12.75 20.3906 12.8743 20.5787C12.9147 20.6397 12.9637 20.6945 13.0199 20.7413C13.1931 20.8856 13.4457 20.9137 13.9509 20.9698L20.2509 21.6698C20.8688 21.7385 21.1777 21.7728 21.3996 21.6331C21.4709 21.5882 21.5342 21.5316 21.5867 21.4657C21.75 21.2606 21.75 20.9498 21.75 20.3281V14.0984C21.75 13.536 21.75 13.2547 21.6068 13.0576C21.5605 12.9939 21.5045 12.9379 21.4408 12.8917C21.2437 12.7484 20.9625 12.7484 20.4 12.7484H14.1Z" fill="#292556" fill-opacity="0.18"/>
</svg>
