<svg width="24" height="24" viewBox="0 0 24 24" fill="none" xmlns="http://www.w3.org/2000/svg">
<path d="M13.3581 16.5411C13.2869 16.8498 13.2493 17.1709 13.2493 17.5001C13.2493 19.8473 15.1521 21.7501 17.4993 21.7501C17.92 21.7501 18.3277 21.6887 18.7132 21.574C19.1333 21.4489 19.2958 20.9403 19.026 20.5949L16.9993 18.0001L17.9993 17.0001L20.5942 19.0268C20.9396 19.2965 21.4482 19.1341 21.5732 18.714C21.688 18.3284 21.7493 17.9208 21.7493 17.5001C21.7493 15.1528 19.8465 13.2501 17.4993 13.2501C17.17 13.2501 16.8488 13.2876 16.54 13.359L13.5902 10.4092L10.4082 13.5912L13.3581 16.5411Z" fill="#292556"/>
<path d="M6.5 2.25C6.0793 2.25 5.67161 2.31135 5.28606 2.4261C4.866 2.55112 4.70351 3.05974 4.97328 3.40514L7 6L6 7L3.40514 4.97328C3.05974 4.70351 2.55112 4.866 2.4261 5.28606C2.31135 5.67161 2.25 6.0793 2.25 6.5C2.25 8.84721 4.15279 10.75 6.5 10.75C6.82917 10.75 7.15028 10.7124 7.45898 10.6412L10.4089 13.5911L13.5909 10.4091L10.6411 7.45935C10.7124 7.15054 10.75 6.8293 10.75 6.5C10.75 4.15279 8.84721 2.25 6.5 2.25Z" fill="#292556" fill-opacity="0.18"/>
</svg>
