<svg width="24" height="24" viewBox="0 0 24 24" fill="none" xmlns="http://www.w3.org/2000/svg">
<path fill-rule="evenodd" clip-rule="evenodd" d="M15.1775 3.86697L15.1775 3.86696C16.0019 3.04256 16.4141 2.63037 16.8828 2.45976C17.3799 2.27884 17.9248 2.27884 18.4219 2.45976C18.8906 2.63037 19.3028 3.04257 20.1272 3.86696C20.9516 4.69136 21.3638 5.10356 21.5344 5.57229C21.7153 6.06937 21.7153 6.6143 21.5344 7.11138C21.3638 7.58011 20.9516 7.99231 20.1272 8.81671L17.9111 11.0328C18.1468 12.4803 17.8508 13.9976 17.0231 15.2699C17.4313 15.761 17.4052 16.4913 16.9447 16.9518C16.4847 17.4118 15.7553 17.4383 15.2642 17.0313C13.9913 17.862 12.4721 18.1597 11.0228 17.9244L8.81491 20.1322C7.99051 20.9566 7.57831 21.3688 7.10958 21.5394C6.6125 21.7203 6.06757 21.7203 5.57049 21.5394C5.10175 21.3688 4.68956 20.9566 3.86516 20.1322C3.04076 19.3078 2.62856 18.8956 2.45796 18.4269C2.27704 17.9298 2.27704 17.3849 2.45796 16.8878C2.62856 16.4191 3.04076 16.0069 3.86516 15.1825L6.06898 12.9787C5.76677 11.1365 6.32606 9.18044 7.74683 7.75967C9.16689 6.3396 11.1217 5.78017 12.9631 6.08137L15.1775 3.86697ZM16.204 16.2729L16.2321 16.245L16.266 16.2107C16.2577 16.2227 16.2482 16.234 16.2376 16.2447C16.2271 16.2552 16.2158 16.2646 16.204 16.2729Z" fill="#292556" fill-opacity="0.18"/>
<path fill-rule="evenodd" clip-rule="evenodd" d="M13.3266 11.5493L14.5 11.5493C14.9142 11.5493 15.25 11.8851 15.25 12.2993C15.25 12.7135 14.9142 13.0493 14.5 13.0493L13.2695 13.0493C13.0039 13.4703 12.5346 13.75 12 13.75C11.1716 13.75 10.5 13.0784 10.5 12.25C10.5 11.6948 10.8016 11.21 11.25 10.9507L11.25 8.75C11.25 8.33579 11.5858 8 12 8C12.4142 8 12.75 8.33579 12.75 8.75L12.75 10.9507C12.994 11.0918 13.1945 11.2997 13.3266 11.5493Z" fill="#292556"/>
</svg>
