<svg width="24" height="24" viewBox="0 0 24 24" fill="none" xmlns="http://www.w3.org/2000/svg">
<path d="M16.9097 7.29759L13.6656 3.71984C12.9781 2.96161 12.6343 2.5825 12.2072 2.51045C12.0698 2.48727 11.9295 2.48723 11.7922 2.51031C11.365 2.58208 11.021 2.96097 10.333 3.71875L7.16264 7.21055C7.12719 7.24958 7.10947 7.2691 7.09739 7.28323C6.50187 7.97967 6.8333 9.05897 7.71707 9.30115C7.73499 9.30606 7.76062 9.31227 7.81186 9.32469L5.74384 11.2734C5.5542 11.4521 5.45937 11.5415 5.4053 11.6087C4.86456 12.2812 5.15166 13.2863 5.966 13.5717C6.04743 13.6002 6.17514 13.626 6.43057 13.6776L6.23589 13.861L6.23588 13.861C4.69993 15.3084 3.93196 16.032 4.02167 16.6721C4.0494 16.8699 4.12415 17.0582 4.23964 17.2212C4.61328 17.7485 5.6685 17.7485 7.77894 17.7485H9.74988H14.2499H16.2208C18.3313 17.7485 19.3865 17.7485 19.7601 17.2212C19.8756 17.0582 19.9504 16.8699 19.9781 16.6721C20.0678 16.032 19.2998 15.3084 17.7639 13.861L17.6062 13.7124C18.1578 13.617 18.4336 13.5692 18.5975 13.4876C19.2427 13.1662 19.4831 12.367 19.1222 11.743C19.0306 11.5845 18.8269 11.3926 18.4194 11.0087L18.4194 11.0087L16.5679 9.26399L16.5976 9.24807C17.3014 8.86247 17.4646 7.92304 16.9323 7.32258L16.9097 7.29759Z" fill="#292556" fill-opacity="0.18"/>
<path d="M9.75 17.749V19.499C9.75 20.4365 9.75 20.9052 9.98873 21.2338C10.0658 21.3399 10.1592 21.4332 10.2653 21.5103C10.5939 21.749 11.0626 21.749 12 21.749C12.9374 21.749 13.4062 21.749 13.7347 21.5103C13.8409 21.4332 13.9342 21.3399 14.0113 21.2338C14.25 20.9052 14.25 20.4365 14.25 19.499V17.749H9.75Z" fill="#292556"/>
</svg>
