<svg width="24" height="24" viewBox="0 0 24 24" fill="none" xmlns="http://www.w3.org/2000/svg">
<path d="M6.37754 8.97192C4.31854 10.6213 3 13.1566 3 16V16C3 17.1794 4.06015 18 5.23959 18H18.7604C19.9398 18 21 17.1794 21 16V16C21 13.1566 19.6815 10.6213 17.6225 8.97192M6.37754 8.97192C7.91795 7.738 9.87279 7 12 7C14.1272 7 16.0821 7.738 17.6225 8.97192M6.37754 8.97192L4 6M17.6225 8.97192L20 6M10 13.5C10 14.3284 9.32843 15 8.5 15C7.67157 15 7 14.3284 7 13.5C7 12.6716 7.67157 12 8.5 12C9.32843 12 10 12.6716 10 13.5ZM17 13.5C17 14.3284 16.3284 15 15.5 15C14.6716 15 14 14.3284 14 13.5C14 12.6716 14.6716 12 15.5 12C16.3284 12 17 12.6716 17 13.5Z" stroke="#292556" stroke-width="1.5" stroke-linecap="round" stroke-linejoin="round"/>
</svg>
