<svg width="24" height="24" viewBox="0 0 24 24" fill="none" xmlns="http://www.w3.org/2000/svg">
<path d="M5 12.6923V15.4615M19 12.6923V15.4615M9.59987 4.99357C8.62827 5.80192 7.99979 7.0889 7.99979 8.53846H16.0002C16.0002 7.0889 15.3717 5.80192 14.4001 4.99357M9.59987 4.99357C10.2684 4.43735 11.0995 4.10776 12 4.10776C12.9005 4.10776 13.7316 4.43735 14.4001 4.99357M9.59987 4.99357L7.8 3M14.4001 4.99357L16.2 3M9.9 21V17.7692M14.1 21V17.7692M10.95 11.3077H13.05C14.3624 11.3077 15.0186 11.3077 15.4786 11.6419C15.6272 11.7499 15.7578 11.8805 15.8658 12.0291C16.2 12.4891 16.2 13.1453 16.2 14.4577V14.6192C16.2 15.9316 16.2 16.5878 15.8658 17.0479C15.7578 17.1964 15.6272 17.3271 15.4786 17.435C15.0186 17.7692 14.3624 17.7692 13.05 17.7692H10.95C9.63759 17.7692 8.98139 17.7692 8.52138 17.435C8.37281 17.3271 8.24216 17.1964 8.13422 17.0479C7.8 16.5878 7.8 15.9316 7.8 14.6192V14.4577C7.8 13.1453 7.8 12.4891 8.13422 12.0291C8.24216 11.8805 8.37281 11.7499 8.52138 11.6419C8.98139 11.3077 9.63759 11.3077 10.95 11.3077Z" stroke="#292556" stroke-width="1.5" stroke-linecap="round" stroke-linejoin="round"/>
</svg>
