<svg width="24" height="24" viewBox="0 0 24 24" fill="none" xmlns="http://www.w3.org/2000/svg">
<path d="M16.2312 3C16.2312 3 14.5309 3.1349 13.2312 4.01042C12.2526 4.66961 12.0044 5.93987 12 7.04169M20 13.3913C20.0006 9.87487 18.269 5.83684 14.6667 6.03853C13.5721 6.09982 13.1269 7.11283 12 7.11283C11.9196 7.11283 11.8427 7.10767 11.7688 7.09808C10.8063 6.97315 10.3499 6.09545 9.33333 6.03853C5.73103 5.83684 3.99939 9.87487 4 13.3913C4.00063 17.024 6.30878 21.5664 10 20.942C10.8236 20.8027 11.1649 20.1772 12 20.1772C12.8351 20.1772 13.1764 20.8027 14 20.942C17.6912 21.5664 19.9994 17.024 20 13.3913Z" stroke="#292556" stroke-width="1.5" stroke-linecap="round" stroke-linejoin="round"/>
</svg>
