<svg width="24" height="24" viewBox="0 0 24 24" fill="none" xmlns="http://www.w3.org/2000/svg">
<path d="M9.49245 9C7.17733 9 5.30056 10.7909 5.30056 13C5.30056 13.1084 5.29886 13.2742 5.30056 13.4C5.3031 13.5868 5.30056 13.6396 5.30056 13.8C5.30056 16.4049 6.48671 18.7455 8.37175 20.3568C8.75467 20.7523 9.30284 21 9.91163 21C10.1125 21 10.2658 20.9606 10.4906 20.9227C11.0961 20.8207 11.4524 20.52 12.0076 20.52C12.5627 20.52 12.919 20.8207 13.5246 20.9227C13.7494 20.9606 13.9027 21 14.1035 21C14.7123 21 15.0806 20.6793 15.6434 20.3568C16.85 19.611 17.3 19.1395 18 18C18.1302 17.7642 18.2636 17.4958 18.3598 17.2965C18.4197 17.1725 18.4496 17.1105 18.4455 17.0452C18.4442 17.0242 18.4401 17.0025 18.4335 16.9826C18.413 16.9204 18.3613 16.8731 18.258 16.7786L17.7303 16.2957C16.8016 15.64 16.1995 14.5871 16.1995 13.4C16.1995 12.5444 16.5123 11.7584 17.0348 11.1407C17.0412 11.133 17.0477 11.1255 17.0541 11.118C17.4598 10.6479 17.6627 10.4128 17.6641 10.3221C17.6647 10.2819 17.6636 10.2745 17.6505 10.2366C17.6208 10.1508 17.4373 10.0403 17.0701 9.81915C17.06 9.81307 17.05 9.80712 17.0401 9.80131C16.15 9.27967 15.4674 9 14.5227 9C14.004 9 13.6127 9.10608 13.0487 9.2543C12.6336 9.36338 12.401 9.6 12.0076 9.6C11.6142 9.6 11.3815 9.36338 10.9665 9.2543C10.4025 9.10608 10.0112 9 9.49245 9Z" stroke="#292556" stroke-width="1.5" stroke-linejoin="round"/>
<path d="M14.1639 6.57388C13.3946 6.97671 13.0099 7.17812 12.6508 6.96684C12.5608 6.91387 12.4377 6.79081 12.3848 6.70079C12.1734 6.3417 12.3748 5.95702 12.7776 5.18767C13.2383 4.30764 13.8402 3.70616 14.7361 3.26364C15.4367 2.91756 15.7869 2.74452 16.1372 2.95279C16.2238 3.00431 16.3469 3.12736 16.3984 3.21399C16.6067 3.56418 16.4337 3.91451 16.0876 4.61516C15.6452 5.51106 15.0438 6.1131 14.1639 6.57388Z" stroke="#292556" stroke-width="1.5" stroke-linejoin="round"/>
</svg>
