<svg width="24" height="24" viewBox="0 0 24 24" fill="none" xmlns="http://www.w3.org/2000/svg">
<path d="M7.58109 15.712C7.38583 15.9073 7.06925 15.9073 6.87399 15.712C6.67872 15.5167 6.67872 15.2001 6.87399 15.0049C7.06925 14.8096 7.38583 14.8096 7.58109 15.0049C7.77635 15.2001 7.77635 15.5167 7.58109 15.712Z" fill="#292556"/>
<path d="M8.99515 17.1261C8.79989 17.3213 8.48331 17.3213 8.28805 17.1261C8.09279 16.9308 8.09279 16.6142 8.28805 16.4189C8.48331 16.2237 8.79989 16.2237 8.99515 16.4189C9.19042 16.6142 9.19042 16.9308 8.99515 17.1261Z" fill="#292556"/>
<path d="M6.16703 17.1261C5.97177 17.3213 5.65519 17.3213 5.45992 17.1261C5.26466 16.9308 5.26466 16.6142 5.45992 16.4189C5.65519 16.2237 5.97177 16.2237 6.16703 16.4189C6.36229 16.6142 6.36229 16.9308 6.16703 17.1261Z" fill="#292556"/>
<path d="M7.58109 18.5401C7.38583 18.7354 7.06925 18.7354 6.87399 18.5401C6.67872 18.3449 6.67872 18.0283 6.87399 17.833C7.06925 17.6377 7.38583 17.6377 7.58109 17.833C7.77635 18.0283 7.77635 18.3449 7.58109 18.5401Z" fill="#292556"/>
<path d="M17.127 6.16605C16.9318 6.36132 16.6152 6.36132 16.4199 6.16605C16.2247 5.97079 16.2247 5.65421 16.4199 5.45895C16.6152 5.26368 16.9318 5.26368 17.127 5.45895C17.3223 5.65421 17.3223 5.97079 17.127 6.16605Z" fill="#292556"/>
<path d="M18.5411 7.58012C18.3458 7.77538 18.0293 7.77538 17.834 7.58012C17.6387 7.38485 17.6387 7.06827 17.834 6.87301C18.0293 6.67775 18.3458 6.67775 18.5411 6.87301C18.7364 7.06827 18.7364 7.38485 18.5411 7.58012Z" fill="#292556"/>
<path d="M15.713 7.58012C15.5177 7.77538 15.2011 7.77538 15.0059 7.58012C14.8106 7.38485 14.8106 7.06827 15.0059 6.87301C15.2011 6.67775 15.5177 6.67775 15.713 6.87301C15.9082 7.06827 15.9082 7.38485 15.713 7.58012Z" fill="#292556"/>
<path d="M17.127 8.99418C16.9318 9.18944 16.6152 9.18944 16.4199 8.99418C16.2247 8.79892 16.2247 8.48233 16.4199 8.28707C16.6152 8.09181 16.9318 8.09181 17.127 8.28707C17.3223 8.48233 17.3223 8.79892 17.127 8.99418Z" fill="#292556"/>
<path d="M13.7684 4.22005C15.4282 2.56032 18.1191 2.56032 19.7788 4.22005V4.22005C21.4386 5.87978 21.4386 8.57073 19.7788 10.2305L10.2329 19.7764C8.57317 21.4361 5.88222 21.4361 4.22249 19.7764V19.7764C2.56276 18.1167 2.56276 15.4257 4.22249 13.766L13.7684 4.22005Z" stroke="#292556" stroke-width="1.5" stroke-linejoin="round"/>
<path d="M12.0007 9.52335C12.6841 8.83993 13.7921 8.83993 14.4755 9.52335V9.52335C15.159 10.2068 15.159 11.3148 14.4755 11.9982L12.0007 14.4731C11.3172 15.1565 10.2092 15.1565 9.52579 14.4731V14.4731C8.84237 13.7897 8.84237 12.6816 9.52579 11.9982L12.0007 9.52335Z" stroke="#292556" stroke-width="1.5" stroke-linejoin="round"/>
</svg>
