<svg width="24" height="24" viewBox="0 0 24 24" fill="none" xmlns="http://www.w3.org/2000/svg">
<path d="M3 21L21 3" stroke="#292556" stroke-width="1.5" stroke-linecap="round" stroke-linejoin="round"/>
<path fill-rule="evenodd" clip-rule="evenodd" d="M15.4016 5.83052C15.1947 5.67977 14.977 5.54263 14.7499 5.4205L14.7498 4.99945C14.7495 3.48088 13.5184 2.25 11.9998 2.25C10.4808 2.25 9.2495 3.48155 9.2498 5.00055L9.24988 5.42063C7.30685 6.46536 6.05695 8.60864 6.29335 10.9741C6.40691 12.1103 6.04854 13.2433 5.30222 14.1075L4.59027 14.9319C3.99765 15.6182 3.84313 16.4581 4.01798 17.2142L7.10979 14.1224C7.65988 13.1252 7.90099 11.9763 7.78592 10.8249C7.54111 8.3754 9.46469 6.25 11.9264 6.25H12.0738C12.906 6.25 13.6767 6.49295 14.3229 6.90924L15.4016 5.83052ZM7.01769 17.75H9.9994H13.9994H17.4333C18.3846 17.75 18.896 16.6325 18.2742 15.9126L17.562 15.088C16.5464 13.9122 16.0588 12.3706 16.2135 10.8246C16.2838 10.1222 16.1757 9.44648 15.9278 8.83987L17.0525 7.71515C17.5734 8.67435 17.8238 9.79662 17.706 10.9739C17.5923 12.1102 17.9507 13.2433 18.6972 14.1075L19.4094 14.9321C20.8706 16.6239 19.6688 19.25 17.4333 19.25H14.7382C14.6119 20.6516 13.4339 21.75 11.9994 21.75C10.5649 21.75 9.38692 20.6516 9.26061 19.25H6.56666C6.24484 19.25 5.94445 19.1956 5.67033 19.0974L7.01769 17.75ZM11.9264 4.75C11.5246 4.75 11.1333 4.79162 10.7564 4.87063C10.8211 4.24108 11.3531 3.75 11.9998 3.75C12.6464 3.75 13.1784 4.24099 13.2432 4.87052C12.8665 4.79158 12.4754 4.75 12.0738 4.75H11.9264ZM11.9994 20.25C11.3947 20.25 10.8902 19.8206 10.7744 19.25H13.2244C13.1086 19.8206 12.6041 20.25 11.9994 20.25Z" fill="#292556"/>
</svg>
