<svg width="24" height="24" viewBox="0 0 24 24" fill="none" xmlns="http://www.w3.org/2000/svg">
<path d="M13.0643 7.40742L7.40742 13.0643C6.4311 12.088 4.84819 12.088 3.87188 13.0643C2.89557 14.0406 2.89557 15.6235 3.87188 16.5998C4.84819 17.5761 6.4311 17.5761 7.40742 16.5998C6.4311 17.5761 6.4311 19.159 7.40742 20.1353C8.38373 21.1116 9.96664 21.1116 10.9429 20.1353C11.9193 19.159 11.9193 17.5761 10.9429 16.5998L16.5998 10.9429C17.5761 11.9193 19.159 11.9193 20.1353 10.9429C21.1116 9.96664 21.1116 8.38373 20.1353 7.40742C19.159 6.4311 17.5761 6.4311 16.5998 7.40742C17.5761 6.4311 17.5761 4.84819 16.5998 3.87188C15.6235 2.89557 14.0406 2.89557 13.0643 3.87188C12.088 4.84819 12.088 6.4311 13.0643 7.40742Z" stroke="#292556" stroke-width="1.5" stroke-linejoin="round"/>
</svg>
