<svg width="24" height="24" viewBox="0 0 24 24" fill="none" xmlns="http://www.w3.org/2000/svg">
<path d="M15.9999 12.5768C15.9999 11.8359 15.9999 11.4654 15.9277 11.1665C15.8965 11.0373 15.8846 10.9982 15.8382 10.8729C15.731 10.5831 15.4261 10.1224 14.8161 9.20094C14.4418 8.63553 14.0992 7.99189 13.9999 7.42029C13.9502 7.13395 13.9452 6.88791 13.9548 6.70393M8 12.5768C8 11.8359 8 11.4654 8.07219 11.1665C8.10339 11.0373 8.11529 10.9982 8.16162 10.8729C8.26882 10.5831 8.57381 10.1224 9.18378 9.20094C9.55806 8.63553 9.90068 7.99189 9.99997 7.42029C10.0497 7.13409 10.0546 6.88816 10.0451 6.70421M15.9999 11.6818L16 19.6937C16 20.5181 15.1273 21.05 14.3946 20.6722V20.6722C14.0559 20.4975 13.651 20.5104 13.3242 20.7063L12.9589 20.9253C12.3686 21.2791 11.6315 21.2791 11.0412 20.9253L10.6765 20.7067C10.3496 20.5107 9.94463 20.4977 9.60585 20.6723V20.6723C8.87295 21.0501 8.00013 20.5181 8.00011 19.6935L8 11.6818M10.0451 6.70421V6.70421C9.77471 6.70423 9.55554 6.48506 9.55556 6.21471L9.55565 4.85205C9.55571 3.82934 10.3848 3.00029 11.4075 3.00022L12.5921 3.00013C13.615 3.00006 14.4443 3.8293 14.4442 4.8522L14.4441 6.2146C14.4441 6.48484 14.225 6.70391 13.9548 6.70393V6.70393M10.0451 6.70421L13.9548 6.70393" stroke="#292556" stroke-width="1.5" stroke-linejoin="round"/>
</svg>
