<svg width="24" height="24" viewBox="0 0 24 24" fill="none" xmlns="http://www.w3.org/2000/svg">
<path d="M8.5 9H8.4C6.15016 9 5.02524 9 4.23664 9.57295C3.98196 9.75799 3.75799 9.98196 3.57295 10.2366C3 11.0252 3 12.1502 3 14.4V15.6C3 17.8498 3 18.9748 3.57295 19.7634C3.75799 20.018 3.98196 20.242 4.23664 20.4271C5.02524 21 6.15016 21 8.4 21H15.6C17.8498 21 18.9748 21 19.7634 20.4271C20.018 20.242 20.242 20.018 20.4271 19.7634C21 18.9748 21 17.8498 21 15.6V14.4C21 12.1502 21 11.0252 20.4271 10.2366C20.242 9.98196 20.018 9.75799 19.7634 9.57295C18.9748 9 17.8498 9 15.6 9H15.5M12 12V3M12 3L9.5 5.5M12 3L14.5 5.5" stroke="#292556" stroke-width="1.5" stroke-linecap="round" stroke-linejoin="round"/>
</svg>
