<svg width="24" height="24" viewBox="0 0 24 24" fill="none" xmlns="http://www.w3.org/2000/svg">
<path d="M8 10V10C6.13077 10 5.19615 10 4.5 10.4019C4.04394 10.6652 3.66523 11.0439 3.40192 11.5C3 12.1962 3 13.1308 3 15V15C3 16.8692 3 17.8038 3.40192 18.5C3.66523 18.9561 4.04394 19.3348 4.5 19.5981C5.19615 20 6.13077 20 8 20H16C17.8692 20 18.8038 20 19.5 19.5981C19.9561 19.3348 20.3348 18.9561 20.5981 18.5C21 17.8038 21 16.8692 21 15V15C21 13.1308 21 12.1962 20.5981 11.5C20.3348 11.0439 19.9561 10.6652 19.5 10.4019C18.8038 10 17.8692 10 16 10V10M8 10L5 4M8 10H16M16 10L19 4M9 15V15C9 14.1716 8.32843 13.5 7.5 13.5V13.5C6.67157 13.5 6 14.1716 6 15V15C6 15.8284 6.67157 16.5 7.5 16.5V16.5C8.32843 16.5 9 15.8284 9 15Z" stroke="#292556" stroke-width="1.5" stroke-linecap="round" stroke-linejoin="round"/>
<path d="M12.2501 14.25C12.6642 14.25 13 14.5858 13 15V15C13 15.4142 12.6642 15.75 12.2501 15.75V15.75C11.8359 15.75 11.5001 15.414 11.5002 14.9998V14.9998C11.5003 14.5857 11.836 14.25 12.2501 14.25V14.25Z" fill="#292556"/>
<path d="M15.0001 14.25C15.4142 14.25 15.75 14.5858 15.75 15V15C15.75 15.4142 15.4142 15.75 15.0001 15.75V15.75C14.5859 15.75 14.2501 15.414 14.2502 14.9998V14.9998C14.2503 14.5857 14.586 14.25 15.0001 14.25V14.25Z" fill="#292556"/>
<path d="M17.7501 14.25C18.1642 14.25 18.5 14.5858 18.5 15V15C18.5 15.4142 18.1642 15.75 17.7501 15.75V15.75C17.3359 15.75 17.0001 15.414 17.0002 14.9998V14.9998C17.0003 14.5857 17.336 14.25 17.7501 14.25V14.25Z" fill="#292556"/>
</svg>
