<svg width="24" height="24" viewBox="0 0 24 24" fill="none" xmlns="http://www.w3.org/2000/svg">
<path d="M12.0088 8H20M15.4648 14.0007L15.4631 14.0031M15.4631 14.0031L15.4597 14.0076L15.4294 14.0601M15.4631 14.0031C15.8045 13.4141 16 12.7299 16 12C16 9.79086 14.2091 8 12 8C9.79086 8 8 9.79086 8 12C8 12.6983 8.17896 13.3549 8.49352 13.9263M15.4631 14.0031C15.452 14.0222 15.4408 14.0412 15.4294 14.0601M15.4294 14.0601L11.4641 20.9282M15.4294 14.0601C14.7296 15.2225 13.4556 16 12 16C10.4892 16 9.17404 15.1624 8.49352 13.9263M8.49352 13.9263L8.5361 14M8.49352 13.9263L4.53611 7.07183M21 12C21 16.9706 16.9706 21 12 21C7.02944 21 3 16.9706 3 12C3 7.02944 7.02944 3 12 3C16.9706 3 21 7.02944 21 12Z" stroke="#292556" stroke-width="1.5" stroke-linecap="round" stroke-linejoin="round"/>
</svg>
