<svg width="24" height="24" viewBox="0 0 24 24" fill="none" xmlns="http://www.w3.org/2000/svg">
<path d="M9 8V8C7.89543 8 7 8.89543 7 10V11M9 8V6C9 4.34315 10.3431 3 12 3V3C13.6569 3 15 4.34315 15 6V8M9 8H15M15 8V8C16.1046 8 17 8.89543 17 10V11M7 11V11C4.79086 11 3 9.20914 3 7V5M7 11V15M17 11V11C19.2091 11 21 9.20914 21 7V5M17 11V15M7 15V16C7 18.7614 9.23858 21 12 21V21C14.7614 21 17 18.7614 17 16V15M7 15V15C4.79086 15 3 16.7909 3 19V21M17 15V15C19.2091 15 21 16.7909 21 19V21M10 12V16M14 16V12" stroke="#292556" stroke-width="1.5" stroke-linecap="round" stroke-linejoin="round"/>
</svg>
