<svg width="24" height="24" viewBox="0 0 24 24" fill="none" xmlns="http://www.w3.org/2000/svg">
<path d="M12.15 3H7.35C5.85011 3 5.10016 3 4.57443 3.38197C4.40464 3.50533 4.25533 3.65464 4.13197 3.82443C3.75 4.35016 3.75 5.10011 3.75 6.6V17.4C3.75 18.8999 3.75 19.6498 4.13197 20.1756C4.25533 20.3454 4.40464 20.4947 4.57443 20.618C5.10016 21 5.85011 21 7.35 21H8.6C8.97497 21 9.16246 21 9.29389 20.9045C9.33634 20.8737 9.37367 20.8363 9.40451 20.7939C9.5 20.6625 9.5 20.475 9.5 20.1V18.5C9.5 18.0353 9.5 17.803 9.53843 17.6098C9.69624 16.8164 10.3164 16.1962 11.1098 16.0384C11.303 16 11.5353 16 12 16C12.4647 16 12.697 16 12.8902 16.0384C13.6836 16.1962 14.3038 16.8164 14.4616 17.6098C14.5 17.803 14.5 18.0353 14.5 18.5V20.1C14.5 20.475 14.5 20.6625 14.5955 20.7939C14.6263 20.8363 14.6637 20.8737 14.7061 20.9045C14.8375 21 15.025 21 15.4 21H16.65C18.1499 21 18.8998 21 19.4256 20.618C19.5954 20.4947 19.7447 20.3454 19.868 20.1756C20.25 19.6498 20.25 18.8999 20.25 17.4V11.6C20.25 10.1001 20.25 9.35016 19.868 8.82443C19.7447 8.65464 19.5954 8.50533 19.4256 8.38197C18.8998 8 18.1499 8 16.65 8C16.275 8 16.0875 8 15.9561 7.90451C15.9137 7.87367 15.8763 7.83634 15.8455 7.79389C15.75 7.66246 15.75 7.47497 15.75 7.1V6.6C15.75 5.10011 15.75 4.35016 15.368 3.82443C15.2447 3.65464 15.0954 3.50533 14.9256 3.38197C14.3998 3 13.6499 3 12.15 3Z" stroke="#292556" stroke-width="1.5" stroke-linecap="round" stroke-linejoin="round"/>
<path d="M8.75 7.25C8.75 7.71731 8.75 7.95096 8.64952 8.125C8.58369 8.23901 8.48901 8.33369 8.375 8.39952C8.20096 8.5 7.96731 8.5 7.5 8.5V8.5C7.03269 8.5 6.79904 8.5 6.625 8.39952C6.51099 8.33369 6.41631 8.23901 6.35048 8.125C6.25 7.95096 6.25 7.71731 6.25 7.25V7.25C6.25 6.78269 6.25 6.54904 6.35048 6.375C6.41631 6.26099 6.51099 6.16631 6.625 6.10048C6.79904 6 7.03269 6 7.5 6V6C7.96731 6 8.20096 6 8.375 6.10048C8.48901 6.16631 8.58369 6.26099 8.64952 6.375C8.75 6.54904 8.75 6.78269 8.75 7.25V7.25Z" fill="#292556"/>
<path d="M13.25 7.25C13.25 7.71731 13.25 7.95096 13.1495 8.125C13.0837 8.23901 12.989 8.33369 12.875 8.39952C12.701 8.5 12.4673 8.5 12 8.5V8.5C11.5327 8.5 11.299 8.5 11.125 8.39952C11.011 8.33369 10.9163 8.23901 10.8505 8.125C10.75 7.95096 10.75 7.71731 10.75 7.25V7.25C10.75 6.78269 10.75 6.54904 10.8505 6.375C10.9163 6.26099 11.011 6.16631 11.125 6.10048C11.299 6 11.5327 6 12 6V6C12.4673 6 12.701 6 12.875 6.10048C12.989 6.16631 13.0837 6.26099 13.1495 6.375C13.25 6.54904 13.25 6.78269 13.25 7.25V7.25Z" fill="#292556"/>
<path d="M8.75 12C8.75 12.4673 8.75 12.701 8.64952 12.875C8.58369 12.989 8.48901 13.0837 8.375 13.1495C8.20096 13.25 7.96731 13.25 7.5 13.25V13.25C7.03269 13.25 6.79904 13.25 6.625 13.1495C6.51099 13.0837 6.41631 12.989 6.35048 12.875C6.25 12.701 6.25 12.4673 6.25 12V12C6.25 11.5327 6.25 11.299 6.35048 11.125C6.41631 11.011 6.51099 10.9163 6.625 10.8505C6.79904 10.75 7.03269 10.75 7.5 10.75V10.75C7.96731 10.75 8.20096 10.75 8.375 10.8505C8.48901 10.9163 8.58369 11.011 8.64952 11.125C8.75 11.299 8.75 11.5327 8.75 12V12Z" fill="#292556"/>
<path d="M13.25 12C13.25 12.4673 13.25 12.701 13.1495 12.875C13.0837 12.989 12.989 13.0837 12.875 13.1495C12.701 13.25 12.4673 13.25 12 13.25V13.25C11.5327 13.25 11.299 13.25 11.125 13.1495C11.011 13.0837 10.9163 12.989 10.8505 12.875C10.75 12.701 10.75 12.4673 10.75 12V12C10.75 11.5327 10.75 11.299 10.8505 11.125C10.9163 11.011 11.011 10.9163 11.125 10.8505C11.299 10.75 11.5327 10.75 12 10.75V10.75C12.4673 10.75 12.701 10.75 12.875 10.8505C12.989 10.9163 13.0837 11.011 13.1495 11.125C13.25 11.299 13.25 11.5327 13.25 12V12Z" fill="#292556"/>
<path d="M17.75 12C17.75 12.4673 17.75 12.701 17.6495 12.875C17.5837 12.989 17.489 13.0837 17.375 13.1495C17.201 13.25 16.9673 13.25 16.5 13.25V13.25C16.0327 13.25 15.799 13.25 15.625 13.1495C15.511 13.0837 15.4163 12.989 15.3505 12.875C15.25 12.701 15.25 12.4673 15.25 12V12C15.25 11.5327 15.25 11.299 15.3505 11.125C15.4163 11.011 15.511 10.9163 15.625 10.8505C15.799 10.75 16.0327 10.75 16.5 10.75V10.75C16.9673 10.75 17.201 10.75 17.375 10.8505C17.489 10.9163 17.5837 11.011 17.6495 11.125C17.75 11.299 17.75 11.5327 17.75 12V12Z" fill="#292556"/>
</svg>
