<svg width="24" height="24" viewBox="0 0 24 24" fill="none" xmlns="http://www.w3.org/2000/svg">
<path d="M9 5V5C8.07099 5 7.60649 5 7.21783 5.06156C5.07837 5.40042 3.40042 7.07837 3.06156 9.21783C3 9.60649 3 10.071 3 11V13C3 15.8003 3 17.2004 3.54497 18.27C4.02433 19.2108 4.78924 19.9757 5.73005 20.455C6.79961 21 8.19974 21 11 21H13C15.8003 21 17.2004 21 18.27 20.455C19.2108 19.9757 19.9757 19.2108 20.455 18.27C21 17.2004 21 15.8003 21 13V11C21 10.071 21 9.60649 20.9384 9.21783C20.5996 7.07837 18.9216 5.40042 16.7822 5.06156C16.3935 5 15.929 5 15 5V5M9 5V6.5M9 5V3M9 5H15M15 5V3M15 5V6.5" stroke="#292556" stroke-width="1.5" stroke-linecap="round" stroke-linejoin="round"/>
<path fill-rule="evenodd" clip-rule="evenodd" d="M13.3265 12.7993L14.9999 12.7993C15.4141 12.7993 15.7499 13.1351 15.7499 13.5493C15.7499 13.9635 15.4141 14.2993 14.9999 14.2993L13.2694 14.2993C13.0038 14.7203 12.5345 15 11.9999 15C11.1715 15 10.4999 14.3284 10.4999 13.5C10.4999 12.9448 10.8015 12.46 11.2499 12.2007L11.2499 9.5C11.2499 9.08579 11.5857 8.75 11.9999 8.75C12.4141 8.75 12.7499 9.08579 12.7499 9.5L12.7499 12.2007C12.9939 12.3418 13.1944 12.5497 13.3265 12.7993Z" fill="#292556"/>
</svg>
