<svg width="24" height="24" viewBox="0 0 24 24" fill="none" xmlns="http://www.w3.org/2000/svg">
<path d="M14.3712 7.50689C14.0783 7.79979 13.6034 7.79979 13.3105 7.50689C13.0176 7.214 13.0176 6.73913 13.3105 6.44623C13.6034 6.15334 14.0783 6.15334 14.3712 6.44623C14.664 6.73913 14.664 7.214 14.3712 7.50689Z" fill="#292556"/>
<path d="M16.4922 11.044C16.1994 11.3369 15.7245 11.3369 15.4316 11.044C15.1387 10.7511 15.1387 10.2762 15.4316 9.98334C15.7245 9.69045 16.1994 9.69045 16.4922 9.98334C16.7851 10.2762 16.7851 10.7511 16.4922 11.044Z" fill="#292556"/>
<path d="M11.543 10.337C11.2501 10.6299 10.7753 10.6299 10.4824 10.337C10.1895 10.0441 10.1895 9.5692 10.4824 9.27631C10.7753 8.98342 11.2501 8.98342 11.543 9.27631C11.8359 9.5692 11.8359 10.0441 11.543 10.337Z" fill="#292556"/>
<path d="M14.3712 14.5792C14.0783 14.8721 13.6034 14.8721 13.3105 14.5792C13.0176 14.2863 13.0176 13.8114 13.3105 13.5185C13.6034 13.2256 14.0783 13.2256 14.3712 13.5185C14.664 13.8114 14.664 14.2863 14.3712 14.5792Z" fill="#292556"/>
<path d="M10.836 13.8721C10.5431 14.165 10.0682 14.165 9.77533 13.8721C9.48244 13.5792 9.48244 13.1044 9.77533 12.8115C10.0682 12.5186 10.5431 12.5186 10.836 12.8115C11.1289 13.1044 11.1289 13.5792 10.836 13.8721Z" fill="#292556"/>
<path d="M10.7393 5.56838C12.3302 3.9775 13.1256 3.18206 14.0884 3.02958C14.3993 2.98033 14.7161 2.98033 15.027 3.02958C15.9898 3.18206 16.7945 3.98676 18.4038 5.59615V5.59615C20.0132 7.20555 20.8179 8.01025 20.9704 8.973C21.0197 9.28394 21.0197 9.60068 20.9704 9.91161C20.8179 10.8744 20.0225 11.6698 18.4316 13.2607L15.2991 16.3932C13.7083 17.984 12.9128 18.7795 11.9501 18.932C11.6391 18.9812 11.3224 18.9812 11.0115 18.932C10.0487 18.7795 9.24401 17.9748 7.63462 16.3654V16.3654C6.02522 14.756 5.22052 13.9513 5.06804 12.9885C5.01879 12.6776 5.01879 12.3609 5.06804 12.0499C5.22052 11.0872 6.01596 10.2917 7.60684 8.70085L10.7393 5.56838Z" stroke="#292556" stroke-width="1.5" stroke-linejoin="round"/>
<path d="M6.48077 15.2115L8.78846 17.5192L5.71154 20.5962C5.07429 21.2334 4.0411 21.2334 3.40385 20.5962V20.5962C2.76659 19.9589 2.76659 18.9257 3.40385 18.2885L6.48077 15.2115Z" stroke="#292556" stroke-width="1.5" stroke-linejoin="round"/>
</svg>
