<svg width="24" height="24" viewBox="0 0 24 24" fill="none" xmlns="http://www.w3.org/2000/svg">
<path d="M12 7.6845C13.1046 7.6845 14 7.26965 14 5.85538C14 4.90313 13.0933 3.93872 12.5009 3.41023C12.3143 3.24374 12.221 3.16049 12.0726 3.13872C12.0313 3.13267 11.9687 3.13267 11.9274 3.13872C11.779 3.16049 11.6857 3.24374 11.4991 3.41023C10.9067 3.93872 10 4.90313 10 5.85538C10 7.26965 10.8954 7.6845 12 7.6845Z" stroke="#292556" stroke-width="1.5" stroke-linejoin="round"/>
<path d="M7 12.75C7 10.8808 7 9.94615 7.40192 9.25C7.66523 8.79394 8.04394 8.41523 8.5 8.15192C9.19615 7.75 10.1308 7.75 12 7.75V7.75C13.8692 7.75 14.8038 7.75 15.5 8.15192C15.9561 8.41523 16.3348 8.79394 16.5981 9.25C17 9.94615 17 10.8808 17 12.75V16C17 17.8692 17 18.8038 16.5981 19.5C16.3348 19.9561 15.9561 20.3348 15.5 20.5981C14.8038 21 13.8692 21 12 21V21C10.1308 21 9.19615 21 8.5 20.5981C8.04394 20.3348 7.66523 19.9561 7.40192 19.5C7 18.8038 7 17.8692 7 16V12.75Z" stroke="#292556" stroke-width="1.5" stroke-linejoin="round"/>
</svg>
