<svg width="24" height="24" viewBox="0 0 24 24" fill="none" xmlns="http://www.w3.org/2000/svg">
<path d="M14.1716 18.8284C12.6095 17.2663 12.6095 14.7337 14.1716 13.1716C15.7337 11.6095 18.2663 11.6095 19.8284 13.1716M14.1716 18.8284C15.7337 20.3905 18.2663 20.3905 19.8284 18.8284C21.3905 17.2663 21.3905 14.7337 19.8284 13.1716M14.1716 18.8284L19.8284 13.1716M10 12L10 7.5C10 5.567 8.433 4 6.5 4V4C4.56701 4 3 5.567 3 7.5L3 12M10 12L10 16.5C10 18.433 8.433 20 6.5 20V20C4.567 20 3 18.433 3 16.5L3 12M10 12L3 12" stroke="#292556" stroke-width="1.5" stroke-linecap="round" stroke-linejoin="round"/>
</svg>
