<svg width="24" height="24" viewBox="0 0 24 24" fill="none" xmlns="http://www.w3.org/2000/svg">
<path d="M8 20.25C7.58579 20.25 7.25 20.5858 7.25 21C7.25 21.4142 7.58579 21.75 8 21.75V20.25ZM16 21.75C16.4142 21.75 16.75 21.4142 16.75 21C16.75 20.5858 16.4142 20.25 16 20.25V21.75ZM12.75 16.0014C12.75 15.5872 12.4142 15.2514 12 15.2514C11.5858 15.2514 11.25 15.5872 11.25 16.0014H12.75ZM17.2278 12.0106L16.497 11.8421L16.497 11.8421L17.2278 12.0106ZM6.77215 12.0106L7.503 11.8421L6.77215 12.0106ZM18.0915 5.91355L17.3418 5.93517L18.0915 5.91355ZM8.44182 3.03632L8.32547 2.2954L8.44182 3.03632ZM8 21.75H12V20.25H8V21.75ZM12 21.75H16V20.25H12V21.75ZM12.75 21V16.0014H11.25V21H12.75ZM12 15.2462C9.84322 15.2462 7.97031 13.8701 7.503 11.8421L6.0413 12.179C6.68204 14.9595 9.22097 16.7462 12 16.7462V15.2462ZM16.497 11.8421C16.0297 13.8701 14.1568 15.2462 12 15.2462V16.7462C14.779 16.7462 17.318 14.9595 17.9587 12.179L16.497 11.8421ZM7.503 11.8421C7.32829 11.084 7.14179 9.86267 6.99692 8.80684C6.92519 8.28402 6.86478 7.81021 6.8223 7.46708C6.80108 7.29558 6.78435 7.1569 6.77295 7.06127C6.76725 7.01346 6.76288 6.97642 6.75995 6.95144C6.75848 6.93894 6.75738 6.92946 6.75664 6.92316C6.75628 6.92001 6.756 6.91765 6.75582 6.9161C6.75574 6.91533 6.75567 6.91476 6.75563 6.9144C6.75561 6.91422 6.75559 6.91409 6.75558 6.91401C6.75558 6.91397 6.75558 6.91395 6.75557 6.91393C6.75557 6.91392 6.75557 6.91393 6.01053 7C5.26548 7.08607 5.26549 7.0861 5.26549 7.08615C5.2655 7.08618 5.2655 7.08624 5.26551 7.0863C5.26552 7.08643 5.26555 7.08661 5.26557 7.08685C5.26563 7.08731 5.2657 7.08799 5.26581 7.08886C5.26601 7.09062 5.26631 7.09319 5.2667 7.09656C5.26748 7.10329 5.26864 7.11321 5.27016 7.12615C5.2732 7.15204 5.27767 7.19003 5.28349 7.23884C5.29513 7.33645 5.31213 7.47738 5.33367 7.65135C5.37672 7.99916 5.43799 8.47975 5.51085 9.01073C5.65516 10.0625 5.84946 11.3465 6.0413 12.179L7.503 11.8421ZM17.9895 7C17.2444 6.91393 17.2444 6.91392 17.2444 6.91393C17.2444 6.91395 17.2444 6.91397 17.2444 6.91401C17.2444 6.91409 17.2444 6.91422 17.2444 6.9144C17.2443 6.91476 17.2443 6.91533 17.2442 6.9161C17.244 6.91765 17.2437 6.92001 17.2434 6.92316C17.2426 6.92946 17.2415 6.93894 17.2401 6.95144C17.2371 6.97642 17.2328 7.01346 17.2271 7.06127C17.2157 7.1569 17.1989 7.29558 17.1777 7.46708C17.1352 7.81021 17.0748 8.28402 17.0031 8.80684C16.8582 9.86267 16.6717 11.084 16.497 11.8421L17.9587 12.179C18.1505 11.3465 18.3448 10.0625 18.4892 9.01073C18.562 8.47975 18.6233 7.99916 18.6663 7.65135C18.6879 7.47738 18.7049 7.33645 18.7165 7.23884C18.7223 7.19003 18.7268 7.15204 18.7298 7.12615C18.7314 7.11321 18.7325 7.10329 18.7333 7.09656C18.7337 7.09319 18.734 7.09062 18.7342 7.08886C18.7343 7.08799 18.7344 7.08731 18.7344 7.08685C18.7345 7.08661 18.7345 7.08643 18.7345 7.0863C18.7345 7.08624 18.7345 7.08618 18.7345 7.08615C18.7345 7.0861 18.7345 7.08607 17.9895 7ZM9.53245 3.75H14.4676V2.25H9.53245V3.75ZM14.4676 3.75C15.0702 3.75 15.2832 3.75233 15.4418 3.77724L15.6745 2.2954C15.3706 2.24767 15.0107 2.25 14.4676 2.25V3.75ZM18.7334 7.09495C18.8022 6.55617 18.8501 6.19949 18.8412 5.89194L17.3418 5.93517C17.3465 6.09566 17.3218 6.30727 17.2455 6.90505L18.7334 7.09495ZM15.4418 3.77724C16.5121 3.94531 17.3106 4.85223 17.3418 5.93517L18.8412 5.89194C18.7892 4.08706 17.4583 2.57552 15.6745 2.2954L15.4418 3.77724ZM6.75449 6.90505C6.6782 6.30727 6.65354 6.09566 6.65817 5.93517L5.15879 5.89194C5.14992 6.19949 5.1978 6.55617 5.26656 7.09495L6.75449 6.90505ZM9.53245 2.25C8.98929 2.25 8.62943 2.24767 8.32547 2.2954L8.55818 3.77724C8.7168 3.75233 8.92982 3.75 9.53245 3.75V2.25ZM6.65817 5.93517C6.68938 4.85223 7.48791 3.94531 8.55818 3.77724L8.32547 2.2954C6.5417 2.57552 5.21082 4.08706 5.15879 5.89194L6.65817 5.93517Z" fill="#292556"/>
</svg>
