<svg width="24" height="24" viewBox="0 0 24 24" fill="none" xmlns="http://www.w3.org/2000/svg">
<path d="M14.6339 11.8804C14.1306 12.1687 13.6559 11.8087 13.1503 12.0601C11.4863 12.8873 11.8122 15.2192 12.7698 16.8639C13.9424 18.8779 16.4922 19.5946 18.4658 18.4643C20.4393 17.334 21.0886 14.785 19.9167 12.7707C18.9596 11.1256 17.0868 9.67974 15.5326 10.6957C15.0603 11.0044 15.1373 11.5921 14.6339 11.8804ZM14.6339 11.8804L13.7339 10.8754C13.7339 10.8754 10.8961 7.2065 12.2764 5.23813M12.2764 5.23813C11.8049 5.3564 11.2933 5.53338 10.8221 5.7982C8.71915 6.98021 9.41961 10.8272 9.41961 10.8272L9.44994 11.3744M12.2764 5.23813C13.2079 5.0045 13.9834 5 13.9834 5M9.44994 11.3744C9.42207 11.3621 9.39412 11.3481 9.36607 11.332C8.86272 11.0437 8.93966 10.456 8.4674 10.1473C6.91324 9.13135 5.0404 10.5772 4.08334 12.2223C2.91142 14.2366 3.56067 16.7856 5.53422 17.9159C7.50778 19.0462 10.0576 18.3295 11.2302 16.3155C12.1878 14.6708 12.5137 12.3389 10.8497 11.5117C10.3722 11.2743 9.92241 11.5821 9.44994 11.3744Z" stroke="#292556" stroke-width="1.5" stroke-linecap="round" stroke-linejoin="round"/>
</svg>
