<svg width="24" height="24" viewBox="0 0 24 24" fill="none" xmlns="http://www.w3.org/2000/svg">
<path d="M12 21H8C7.07069 21 6.60603 21 6.21964 20.9231C4.63288 20.6075 3.39249 19.3671 3.07686 17.7804C3 17.394 3 16.9293 3 16V16M12 21H16M12 21V9M12 9C12.5523 9 13 8.55228 13 8C13 7.44772 12.5523 7 12 7C11.4477 7 11 7.44772 11 8C11 8.55228 11.4477 9 12 9ZM16 21V21C16.9293 21 17.394 21 17.7804 20.9231C19.3671 20.6075 20.6075 19.3671 20.9231 17.7804C21 17.394 21 16.9293 21 16V8M16 21V16L17 14M17 14C17.5523 14 18 13.5523 18 13C18 12.4477 17.5523 12 17 12C16.4477 12 16 12.4477 16 13C16 13.5523 16.4477 14 17 14ZM8 3V3C7.07069 3 6.60603 3 6.21964 3.07686C4.63288 3.39249 3.39249 4.63288 3.07686 6.21964C3 6.60603 3 7.07069 3 8V16M8 3H16C16.9293 3 17.394 3 17.7804 3.07686C19.3671 3.39249 20.6075 4.63288 20.9231 6.21964C21 6.60603 21 7.07069 21 8V8M8 3V8L7 10M7 10C6.44772 10 6 10.4477 6 11C6 11.5523 6.44772 12 7 12C7.55228 12 8 11.5523 8 11C8 10.4477 7.55228 10 7 10ZM3 16H7M7 16C7 16.5523 7.44772 17 8 17C8.55228 17 9 16.5523 9 16C9 15.4477 8.55228 15 8 15C7.44772 15 7 15.4477 7 16ZM21 8H18M18 8C18 8.55228 17.5523 9 17 9C16.4477 9 16 8.55228 16 8C16 7.44772 16.4477 7 17 7C17.5523 7 18 7.44772 18 8Z" stroke="#292556" stroke-width="1.5" stroke-linecap="round" stroke-linejoin="round"/>
</svg>
