<svg width="24" height="24" viewBox="0 0 24 24" fill="none" xmlns="http://www.w3.org/2000/svg">
<path d="M8.5 11.25C8.08579 11.25 7.75 11.5858 7.75 12C7.75 12.4142 8.08579 12.75 8.5 12.75V11.25ZM15.5 12.75C15.9142 12.75 16.25 12.4142 16.25 12C16.25 11.5858 15.9142 11.25 15.5 11.25V12.75ZM8.5 15.25C8.08579 15.25 7.75 15.5858 7.75 16C7.75 16.4142 8.08579 16.75 8.5 16.75V15.25ZM15.5 16.75C15.9142 16.75 16.25 16.4142 16.25 16C16.25 15.5858 15.9142 15.25 15.5 15.25V16.75ZM9.81894 6.73177L9.41992 7.36681L9.81894 6.73177ZM9.26823 6.18106L9.90328 5.78203L9.26823 6.18106ZM14.7318 6.18106L15.3668 6.58008L14.7318 6.18106ZM14.1811 6.73177L14.5801 7.36681L14.1811 6.73177ZM6.23664 20.4271L5.79581 21.0338L6.23664 20.4271ZM18.4271 19.7634L17.8203 19.3225L18.4271 19.7634ZM17.7634 20.4271L17.3225 19.8203L17.7634 20.4271ZM17.7634 3.57295L18.2042 2.96619L17.7634 3.57295ZM18.4271 4.23664L19.0338 3.79581L18.4271 4.23664ZM10.4 3.75H13.6V2.25H10.4V3.75ZM18.25 8.4V15.6H19.75V8.4H18.25ZM13.6 20.25H10.4V21.75H13.6V20.25ZM5.75 15.6V8.4H4.25V15.6H5.75ZM8.5 12.75H15.5V11.25H8.5V12.75ZM8.5 16.75H15.5V15.25H8.5V16.75ZM14.25 3V4H15.75V3H14.25ZM9.75 4V3H8.25V4H9.75ZM12 6.25C11.4004 6.25 11.0045 6.24918 10.7034 6.21997C10.4138 6.19189 10.2919 6.14321 10.218 6.09672L9.41992 7.36681C9.77284 7.58856 10.1567 7.67399 10.5586 7.71297C10.9489 7.75082 11.4301 7.75 12 7.75V6.25ZM8.25 4C8.25 4.56989 8.24918 5.05106 8.28703 5.44138C8.32601 5.84325 8.41144 6.22716 8.63319 6.58008L9.90328 5.78203C9.85679 5.70806 9.80811 5.58616 9.78003 5.29659C9.75082 4.99547 9.75 4.59955 9.75 4H8.25ZM10.218 6.09672C10.0908 6.0168 9.9832 5.90924 9.90328 5.78203L8.63319 6.58008C8.83301 6.89809 9.10191 7.16699 9.41992 7.36681L10.218 6.09672ZM14.25 4C14.25 4.59955 14.2492 4.99547 14.22 5.29659C14.1919 5.58616 14.1432 5.70806 14.0967 5.78203L15.3668 6.58008C15.5886 6.22716 15.674 5.84325 15.713 5.44138C15.7508 5.05106 15.75 4.56989 15.75 4H14.25ZM12 7.75C12.5699 7.75 13.0511 7.75082 13.4414 7.71297C13.8433 7.67399 14.2272 7.58856 14.5801 7.36681L13.782 6.09672C13.7081 6.14321 13.5862 6.19189 13.2966 6.21997C12.9955 6.24918 12.5996 6.25 12 6.25V7.75ZM14.0967 5.78203C14.0168 5.90924 13.9092 6.0168 13.782 6.09672L14.5801 7.36681C14.8981 7.16699 15.167 6.89809 15.3668 6.58008L14.0967 5.78203ZM10.4 20.25C9.25837 20.25 8.4624 20.249 7.85114 20.1827C7.25392 20.118 6.92262 19.9984 6.67748 19.8203L5.79581 21.0338C6.33926 21.4287 6.96472 21.5955 7.68957 21.674C8.40038 21.751 9.29179 21.75 10.4 21.75V20.25ZM4.25 15.6C4.25 16.7082 4.24897 17.5996 4.32598 18.3104C4.40451 19.0353 4.57134 19.6607 4.96619 20.2042L6.17971 19.3225C6.00161 19.0774 5.88196 18.7461 5.81726 18.1489C5.75103 17.5376 5.75 16.7416 5.75 15.6H4.25ZM6.67748 19.8203C6.48647 19.6815 6.31849 19.5135 6.17971 19.3225L4.96619 20.2042C5.19748 20.5225 5.47745 20.8025 5.79581 21.0338L6.67748 19.8203ZM18.25 15.6C18.25 16.7416 18.249 17.5376 18.1827 18.1489C18.118 18.7461 17.9984 19.0774 17.8203 19.3225L19.0338 20.2042C19.4287 19.6607 19.5955 19.0353 19.674 18.3104C19.751 17.5996 19.75 16.7082 19.75 15.6H18.25ZM13.6 21.75C14.7082 21.75 15.5996 21.751 16.3104 21.674C17.0353 21.5955 17.6607 21.4287 18.2042 21.0338L17.3225 19.8203C17.0774 19.9984 16.7461 20.118 16.1489 20.1827C15.5376 20.249 14.7416 20.25 13.6 20.25V21.75ZM17.8203 19.3225C17.6815 19.5135 17.5135 19.6815 17.3225 19.8203L18.2042 21.0338C18.5225 20.8025 18.8025 20.5225 19.0338 20.2042L17.8203 19.3225ZM13.6 3.75C14.7416 3.75 15.5376 3.75103 16.1489 3.81726C16.7461 3.88196 17.0774 4.00161 17.3225 4.17971L18.2042 2.96619C17.6607 2.57134 17.0353 2.40451 16.3104 2.32598C15.5996 2.24897 14.7082 2.25 13.6 2.25V3.75ZM19.75 8.4C19.75 7.29179 19.751 6.40038 19.674 5.68957C19.5955 4.96472 19.4287 4.33926 19.0338 3.79581L17.8203 4.67748C17.9984 4.92262 18.118 5.25392 18.1827 5.85114C18.249 6.4624 18.25 7.25837 18.25 8.4H19.75ZM17.3225 4.17971C17.5135 4.31849 17.6815 4.48647 17.8203 4.67748L19.0338 3.79581C18.8025 3.47745 18.5225 3.19748 18.2042 2.96619L17.3225 4.17971ZM10.4 2.25C9.29179 2.25 8.40038 2.24897 7.68957 2.32598C6.96472 2.40451 6.33926 2.57134 5.79581 2.96619L6.67748 4.17971C6.92262 4.00161 7.25392 3.88196 7.85114 3.81726C8.4624 3.75103 9.25837 3.75 10.4 3.75V2.25ZM5.75 8.4C5.75 7.25837 5.75103 6.4624 5.81726 5.85114C5.88196 5.25392 6.00161 4.92262 6.17971 4.67748L4.96619 3.79581C4.57134 4.33926 4.40451 4.96472 4.32598 5.68957C4.24897 6.40038 4.25 7.29179 4.25 8.4H5.75ZM5.79581 2.96619C5.47745 3.19748 5.19748 3.47745 4.96619 3.79581L6.17971 4.67748C6.31849 4.48647 6.48647 4.31849 6.67748 4.17971L5.79581 2.96619Z" fill="#292556"/>
</svg>
