<svg width="24" height="24" viewBox="0 0 24 24" fill="none" xmlns="http://www.w3.org/2000/svg">
<path d="M13.9905 15.1741L13.2418 15.2178C13.2556 15.4536 13.3796 15.6692 13.5766 15.7995C13.7735 15.9299 14.0204 15.9598 14.2428 15.8804L13.9905 15.1741ZM17.9215 17.3154L17.1912 17.4859C17.2465 17.7231 17.4137 17.9187 17.6395 18.0103C17.8652 18.102 18.1214 18.0782 18.3265 17.9467L17.9215 17.3154ZM15.9404 3L16.5508 3.43585C16.7364 3.17588 16.737 2.82686 16.5523 2.56626C16.3675 2.30565 16.038 2.19067 15.7312 2.27976L15.9404 3ZM21 8.05957L21.7202 8.26876C21.8093 7.96199 21.6943 7.63245 21.4337 7.44771C21.1731 7.26297 20.8241 7.26357 20.5641 7.44921L21 8.05957ZM8.5 20.25C5.87665 20.25 3.75 18.1234 3.75 15.5H2.25C2.25 18.9518 5.04822 21.75 8.5 21.75V20.25ZM3.75 15.5C3.75 12.8766 5.87665 10.75 8.5 10.75V9.25C5.04822 9.25 2.25 12.0482 2.25 15.5H3.75ZM20.25 19C20.25 19.6904 19.6904 20.25 19 20.25V21.75C20.5188 21.75 21.75 20.5188 21.75 19H20.25ZM19 17.75C19.6904 17.75 20.25 18.3096 20.25 19H21.75C21.75 17.4812 20.5188 16.25 19 16.25V17.75ZM8.5 21.75H19V20.25H8.5V21.75ZM14.2428 15.8804C14.4785 15.7962 14.733 15.75 15 15.75V14.25C14.5586 14.25 14.1335 14.3266 13.7382 14.4678L14.2428 15.8804ZM8.5 10.75C11.0286 10.75 13.0962 12.7262 13.2418 15.2178L14.7392 15.1303C14.5475 11.8503 11.8277 9.25 8.5 9.25V10.75ZM18.3265 17.9467C18.5205 17.8222 18.7506 17.75 19 17.75V16.25C18.455 16.25 17.945 16.4093 17.5166 16.6841L18.3265 17.9467ZM15 15.75C16.065 15.75 16.9589 16.4907 17.1912 17.4859L18.6519 17.1449C18.2647 15.4861 16.7776 14.25 15 14.25V15.75ZM17.0807 10.25C15.2412 10.25 13.75 8.75878 13.75 6.91927H12.25C12.25 9.58721 14.4128 11.75 17.0807 11.75V10.25ZM18.8944 7.98293C17.3053 7.98293 16.0171 6.69471 16.0171 5.10562H14.5171C14.5171 7.52314 16.4769 9.48293 18.8944 9.48293V7.98293ZM16.0171 5.10562C16.0171 4.48189 16.2147 3.90654 16.5508 3.43585L15.3301 2.56415C14.8183 3.2808 14.5171 4.15914 14.5171 5.10562H16.0171ZM13.75 6.91927C13.75 5.40391 14.7626 4.12309 16.1496 3.72024L15.7312 2.27976C13.7207 2.86372 12.25 4.71877 12.25 6.91927H13.75ZM20.5641 7.44921C20.0935 7.78533 19.5181 7.98293 18.8944 7.98293V9.48293C19.8409 9.48293 20.7192 9.18168 21.4359 8.66992L20.5641 7.44921ZM20.2798 7.85038C19.8769 9.2374 18.5961 10.25 17.0807 10.25V11.75C19.2812 11.75 21.1363 10.2793 21.7202 8.26876L20.2798 7.85038Z" fill="#292556"/>
</svg>
