<svg width="24" height="24" viewBox="0 0 24 24" fill="none" xmlns="http://www.w3.org/2000/svg">
<path d="M7.5 16.9405V18.9702M12 18.4628V21M16.5 16.433V18.4628M8.5 14.0086C5.46243 14.0086 3 11.5443 3 8.50431C3 5.46436 5.46243 3 8.5 3C11.4282 3 13.8219 5.29002 13.9905 8.17813C14.306 8.06534 14.6458 8.00392 15 8.00392C16.4213 8.00392 17.6118 8.99311 17.9215 10.3211C18.2327 10.1213 18.6028 10.0055 19 10.0055C20.1046 10.0055 21 10.9016 21 12.007C21 13.1125 20.1046 14.0086 19 14.0086H8.5Z" stroke="#292556" stroke-width="1.5" stroke-linecap="round" stroke-linejoin="round"/>
</svg>
