<svg width="24" height="24" viewBox="0 0 24 24" fill="none" xmlns="http://www.w3.org/2000/svg">
<path d="M17.3722 9.00976C17.3722 9.99602 16.5468 10.7955 15.5286 10.7955C14.5104 10.7955 13.685 9.99602 13.685 9.00976C13.685 8.0235 14.5104 7.22398 15.5286 7.22398C16.5468 7.22398 17.3722 8.0235 17.3722 9.00976Z" stroke="#292556" stroke-width="1.5"/>
<path d="M10.5245 9.00976C10.5245 9.99602 9.69905 10.7955 8.68085 10.7955C7.66264 10.7955 6.83722 9.99602 6.83722 9.00976C6.83722 8.0235 7.66264 7.22398 8.68085 7.22398C9.69905 7.22398 10.5245 8.0235 10.5245 9.00976Z" stroke="#292556" stroke-width="1.5"/>
<path d="M11.0512 15.1324C11.0512 16.1187 10.2258 16.9182 9.2076 16.9182C8.18939 16.9182 7.36397 16.1187 7.36397 15.1324C7.36397 14.1462 8.18939 13.3467 9.2076 13.3467C10.2258 13.3467 11.0512 14.1462 11.0512 15.1324Z" stroke="#292556" stroke-width="1.5"/>
<path d="M20.9981 9.6592C20.8888 5.1236 14.2942 2.28438 9.49137 3.15744C4.68854 4.0305 2.365 8.76304 3.14995 13.3467C3.91315 17.8032 8.94421 21 12.1047 21C15.2652 21 17.899 19.4693 15.6768 17.6454C15.0586 17.1663 14.5551 16.563 14.2011 15.8771C13.6699 14.8482 14.6309 13.3793 15.814 13.4803C18.2149 13.6852 21.0834 13.196 20.9981 9.6592Z" stroke="#292556" stroke-width="1.5"/>
</svg>
