<svg width="24" height="24" viewBox="0 0 24 24" fill="none" xmlns="http://www.w3.org/2000/svg">
<path d="M7.5 9.5C7.5 10.0523 7.05228 10.5 6.5 10.5C5.94772 10.5 5.5 10.0523 5.5 9.5C5.5 8.94772 5.94772 8.5 6.5 8.5C7.05228 8.5 7.5 8.94772 7.5 9.5Z" fill="#292556"/>
<path d="M11.5 9.5C11.5 10.0523 11.0523 10.5 10.5 10.5C9.94772 10.5 9.5 10.0523 9.5 9.5C9.5 8.94772 9.94772 8.5 10.5 8.5C11.0523 8.5 11.5 8.94772 11.5 9.5Z" fill="#292556"/>
<path d="M15.5 9.5C15.5 10.0523 15.0523 10.5 14.5 10.5C13.9477 10.5 13.5 10.0523 13.5 9.5C13.5 8.94772 13.9477 8.5 14.5 8.5C15.0523 8.5 15.5 8.94772 15.5 9.5Z" fill="#292556"/>
<path d="M10.7505 14.5013V14.5013C10.7505 16.1581 12.0936 17.5013 13.7505 17.5013H16.0005L19.0005 20.0013V17.5013H19.01V17.5013C20.1093 17.5013 21.0005 16.6101 21.0005 15.5108V11.2513C21.0005 9.59444 19.6573 8.25129 18.0005 8.25129V8.25129M6.5 14.5L5.5 17L10.5 14.5H12.75C14.8567 14.5 15.91 14.5 16.6667 13.9944C16.9943 13.7755 17.2755 13.4943 17.4944 13.1667C18 12.41 18 11.3567 18 9.25V9.25C18 7.14331 18 6.08996 17.4944 5.33329C17.2755 5.00572 16.9943 4.72447 16.6667 4.50559C15.91 4 14.8567 4 12.75 4H8.25C6.14331 4 5.08996 4 4.33329 4.50559C4.00572 4.72447 3.72447 5.00572 3.50559 5.33329C3 6.08996 3 7.14331 3 9.25V11.5C3 13.1569 4.34315 14.5 6 14.5V14.5H6.5Z" stroke="#292556" stroke-width="1.5" stroke-linecap="round" stroke-linejoin="round"/>
</svg>
