<svg width="24" height="24" viewBox="0 0 24 24" fill="none" xmlns="http://www.w3.org/2000/svg">
<path d="M20 10V15.6C20 17.8498 20 18.9748 19.4271 19.7634C19.242 20.018 19.018 20.242 18.7634 20.4271C17.9748 21 16.8498 21 14.6 21H9M11.6 18H9.4C7.15016 18 6.02524 18 5.23664 17.4271C4.98196 17.242 4.75799 17.018 4.57295 16.7634C4 15.9748 4 14.8498 4 12.6V8.4C4 6.15016 4 5.02524 4.57295 4.23664C4.75799 3.98196 4.98196 3.75799 5.23664 3.57295C6.02524 3 7.15016 3 9.4 3H11.6C13.8498 3 14.9748 3 15.7634 3.57295C16.018 3.75799 16.242 3.98196 16.4271 4.23664C17 5.02524 17 6.15016 17 8.4V12.6C17 14.8498 17 15.9748 16.4271 16.7634C16.242 17.018 16.018 17.242 15.7634 17.4271C14.9748 18 13.8498 18 11.6 18Z" stroke="#292556" stroke-width="1.5" stroke-linecap="round" stroke-linejoin="round"/>
</svg>
