<svg width="24" height="24" viewBox="0 0 24 24" fill="none" xmlns="http://www.w3.org/2000/svg">
<path d="M9 16L8.4 16C6.15016 16 5.02524 16 4.23664 15.4271C3.98196 15.242 3.75799 15.018 3.57295 14.7634C3 13.9748 3 12.8498 3 10.6L3 8.4C3 6.15016 3 5.02524 3.57295 4.23664C3.75799 3.98196 3.98196 3.75799 4.23665 3.57295C5.02524 3 6.15016 3 8.4 3L10 3C11.8692 3 12.8038 3 13.5 3.40192C13.9561 3.66523 14.3348 4.04394 14.5981 4.5C15 5.19615 15 6.13077 15 8V8M9 16H9.6C11.8498 16 12.9748 16 13.7634 15.4271C14.018 15.242 14.242 15.018 14.4271 14.7634C15 13.9748 15 12.8498 15 10.6L15 8M9 16V16C9 17.8692 9 18.8038 9.40192 19.5C9.66523 19.9561 10.0439 20.3348 10.5 20.5981C11.1962 21 12.1308 21 14 21L15.6 21C17.8498 21 18.9748 21 19.7634 20.4271C20.018 20.242 20.242 20.018 20.4271 19.7634C21 18.9748 21 17.8498 21 15.6V13.4C21 11.1502 21 10.0252 20.4271 9.23665C20.242 8.98196 20.018 8.75799 19.7634 8.57295C18.9748 8 17.8498 8 15.6 8L15 8" stroke="#292556" stroke-width="1.5" stroke-linejoin="round"/>
</svg>
