<svg width="24" height="24" viewBox="0 0 24 24" fill="none" xmlns="http://www.w3.org/2000/svg">
<path d="M3.45409 10.797C3.18454 9.01796 3.04977 8.12845 3.27408 7.80265C3.49818 7.47716 3.89294 7.31417 4.28139 7.38675C4.67022 7.4594 5.20225 8.18489 6.26631 9.63587V9.63587C6.80886 10.3757 7.08014 10.7456 7.37938 10.8468C7.68052 10.9487 8.01213 10.9013 8.27268 10.7191C8.53158 10.5382 8.68835 10.107 9.00188 9.24482L10.3084 5.65197C10.9308 3.94039 11.242 3.08459 11.758 2.95589C11.9169 2.91627 12.0831 2.91627 12.242 2.95589C12.758 3.08459 13.0692 3.94039 13.6916 5.65198L14.9981 9.24482C15.3117 10.107 15.4684 10.5382 15.7273 10.7191C15.9879 10.9013 16.3195 10.9487 16.6206 10.8468C16.9199 10.7456 17.1911 10.3757 17.7337 9.63587V9.63587C18.7977 8.18489 19.3298 7.4594 19.7186 7.38675C20.1071 7.31417 20.5018 7.47716 20.7259 7.80265C20.9502 8.12845 20.8155 9.01796 20.5459 10.797L19.4637 17.9393C19.268 19.2311 19.1702 19.877 18.7857 20.3166C18.6609 20.4594 18.5163 20.5837 18.3564 20.6858C17.8642 21 17.2109 21 15.9044 21H8.09563C6.7891 21 6.13583 21 5.64362 20.6858C5.48371 20.5837 5.33915 20.4594 5.21426 20.3166C4.82985 19.877 4.73198 19.2311 4.53626 17.9393L3.45409 10.797Z" stroke="#292556" stroke-width="1.5" stroke-linejoin="round"/>
<path d="M10 15.5C10 14.3954 10.8954 13.5 12 13.5V13.5C13.1046 13.5 14 14.3954 14 15.5V15.5C14 16.6046 13.1046 17.5 12 17.5V17.5C10.8954 17.5 10 16.6046 10 15.5V15.5Z" stroke="#292556" stroke-width="1.5" stroke-linejoin="round"/>
</svg>
