<svg width="24" height="24" viewBox="0 0 24 24" fill="none" xmlns="http://www.w3.org/2000/svg">
<path fill-rule="evenodd" clip-rule="evenodd" d="M17.25 12.75C14.7647 12.75 12.75 14.7647 12.75 17.25C12.75 19.7353 14.7647 21.75 17.25 21.75C19.7353 21.75 21.75 19.7353 21.75 17.25C21.75 14.7647 19.7353 12.75 17.25 12.75ZM18 15.25C18 14.8358 17.6642 14.5 17.25 14.5C16.8358 14.5 16.5 14.8358 16.5 15.25V16.5H15.25C14.8358 16.5 14.5 16.8358 14.5 17.25C14.5 17.6642 14.8358 18 15.25 18H16.5V19.25C16.5 19.6642 16.8358 20 17.25 20C17.6642 20 18 19.6642 18 19.25V18H19.25C19.6642 18 20 17.6642 20 17.25C20 16.8358 19.6642 16.5 19.25 16.5H18V15.25Z" fill="#292556"/>
<path fill-rule="evenodd" clip-rule="evenodd" d="M5.75 6C5.75 5.83941 5.82276 5.6237 6.08391 5.35909C6.34823 5.09126 6.7679 4.81566 7.34569 4.56804C8.49861 4.07393 10.1436 3.75 12 3.75C13.8564 3.75 15.5014 4.07393 16.6543 4.56804C17.2321 4.81566 17.6518 5.09126 17.9161 5.35909C18.1772 5.6237 18.25 5.83941 18.25 6C18.25 6.16059 18.1772 6.3763 17.9161 6.64091C17.6518 6.90874 17.2321 7.18434 16.6543 7.43196C15.5014 7.92607 13.8564 8.25 12 8.25C10.1436 8.25 8.49861 7.92607 7.34569 7.43196C6.7679 7.18434 6.34823 6.90874 6.08391 6.64091C5.82276 6.3763 5.75 6.16059 5.75 6ZM17.2452 8.81068C17.6069 8.65566 17.9456 8.47981 18.25 8.28261V10C18.25 10.1606 18.1772 10.3763 17.9161 10.6409C17.7137 10.846 17.4202 11.0556 17.0343 11.2538C17.1059 11.2513 17.1778 11.25 17.25 11.25C18.1422 11.25 18.9889 11.4447 19.75 11.794V10V6C19.75 5.33216 19.431 4.75866 18.9837 4.30544C18.5396 3.85544 17.9341 3.48459 17.2452 3.18932C15.8646 2.59764 14.0096 2.25 12 2.25C9.99037 2.25 8.13539 2.59764 6.75481 3.18932C6.06586 3.48459 5.4604 3.85544 5.01628 4.30544C4.56899 4.75866 4.25 5.33216 4.25 6V10V14V18C4.25 18.6678 4.56899 19.2413 5.01628 19.6946C5.4604 20.1446 6.06586 20.5154 6.75481 20.8107C8.13539 21.4024 9.99037 21.75 12 21.75C12.4182 21.75 12.8298 21.7349 13.2317 21.7058C12.7669 21.2864 12.3681 20.7953 12.0526 20.2499C12.0351 20.25 12.0176 20.25 12 20.25C10.1436 20.25 8.49861 19.9261 7.34569 19.432C6.7679 19.1843 6.34823 18.9087 6.08391 18.6409C5.82276 18.3763 5.75 18.1606 5.75 18V16.2826C6.05441 16.4798 6.39311 16.6557 6.75481 16.8107C7.96634 17.3299 9.54318 17.6612 11.2693 17.7346C11.2565 17.5747 11.25 17.4131 11.25 17.25C11.25 16.9044 11.2792 16.5656 11.3353 16.236C9.7524 16.169 8.35898 15.8662 7.34569 15.432C6.7679 15.1843 6.34823 14.9087 6.08391 14.6409C5.82276 14.3763 5.75 14.1606 5.75 14V12.2826C6.05441 12.4798 6.39311 12.6557 6.75481 12.8107C8.13539 13.4024 9.99037 13.75 12 13.75C12.127 13.75 12.2534 13.7486 12.379 13.7459C12.859 13.0798 13.4723 12.5161 14.1798 12.0939C13.5029 12.1943 12.7696 12.25 12 12.25C10.1436 12.25 8.49861 11.9261 7.34569 11.432C6.7679 11.1843 6.34823 10.9087 6.08391 10.6409C5.82276 10.3763 5.75 10.1606 5.75 10V8.28261C6.05441 8.47981 6.39311 8.65566 6.75481 8.81068C8.13539 9.40236 9.99037 9.75 12 9.75C14.0096 9.75 15.8646 9.40236 17.2452 8.81068Z" fill="#292556"/>
</svg>
