<svg width="24" height="24" viewBox="0 0 24 24" fill="none" xmlns="http://www.w3.org/2000/svg">
<path d="M7 9C7 10.1046 6.10457 11 5 11C3.89543 11 3 10.1046 3 9C3 7.89543 3.89543 7 5 7C6.10457 7 7 7.89543 7 9Z" stroke="#292556" stroke-width="1.5" stroke-linejoin="round"/>
<path d="M21 9C21 10.1046 20.1046 11 19 11C17.8954 11 17 10.1046 17 9C17 7.89543 17.8954 7 19 7C20.1046 7 21 7.89543 21 9Z" stroke="#292556" stroke-width="1.5" stroke-linejoin="round"/>
<path d="M14 5C14 6.10457 13.1046 7 12 7C10.8954 7 10 6.10457 10 5C10 3.89543 10.8954 3 12 3C13.1046 3 14 3.89543 14 5Z" stroke="#292556" stroke-width="1.5" stroke-linejoin="round"/>
<path d="M9.21421 11.5061C9.82933 10.5663 10.8768 10 12 10V10C13.1232 10 14.1707 10.5663 14.7858 11.5061L16.4561 14.058C18.4088 17.0412 16.2685 21 12.7031 21H11.2969C7.73148 21 5.59124 17.0412 7.54388 14.058L9.21421 11.5061Z" stroke="#292556" stroke-width="1.5" stroke-linejoin="round"/>
</svg>
