<svg width="24" height="24" viewBox="0 0 24 24" fill="none" xmlns="http://www.w3.org/2000/svg">
<path d="M13.8 3H10.2C7.20021 3 5.70032 3 4.64886 3.76393C4.30928 4.01065 4.01065 4.30928 3.76393 4.64886C3 5.70032 3 7.20021 3 10.2V13.8C3 16.7998 3 18.2997 3.76393 19.3511C4.01065 19.6907 4.30928 19.9893 4.64886 20.2361C5.70032 21 7.20021 21 10.2 21H13.8C16.7998 21 18.2997 21 19.3511 20.2361C19.6907 19.9893 19.9893 19.6907 20.2361 19.3511C21 18.2997 21 16.7998 21 13.8V10.2C21 7.20021 21 5.70032 20.2361 4.64886C19.9893 4.30928 19.6907 4.01065 19.3511 3.76393C18.2997 3 16.7998 3 13.8 3Z" stroke="#292556" stroke-width="1.5" stroke-linecap="round" stroke-linejoin="round"/>
<path d="M7 18.0005H17M10.3333 11.2637H9.43595C8.62232 11.2637 8.2155 11.2637 8.06576 11.4698C8.01938 11.5336 7.98877 11.6075 7.97642 11.6854C7.93657 11.9371 8.22423 12.2247 8.79956 12.8001L11.3636 15.3641C11.6287 15.6292 11.7613 15.7618 11.9218 15.7872C11.9736 15.7954 12.0264 15.7954 12.0782 15.7872C12.2387 15.7618 12.3712 15.6292 12.6364 15.3641L15.2004 12.8001C15.7758 12.2247 16.0634 11.9371 16.0236 11.6854C16.0112 11.6075 15.9806 11.5336 15.9342 11.4698C15.7845 11.2637 15.3777 11.2637 14.5641 11.2637H13.6667L13.1257 6.99207C13.0538 6.42508 12.5715 6 12 6V6C11.4285 6 10.9462 6.42508 10.8743 6.99207L10.3333 11.2637Z" stroke="#292556" stroke-width="1.5" stroke-linecap="round" stroke-linejoin="round"/>
</svg>
