<svg width="24" height="24" viewBox="0 0 24 24" fill="none" xmlns="http://www.w3.org/2000/svg">
<path d="M15 14H11.9997M11.9997 14H9M11.9997 14L12 17M11.9997 14L12 11M18.5 13.6111C18.5 18.7211 14.7857 21 12 21C9.21429 21 5.5 18.8889 5.5 13.6111C5.5 10.1381 8.31458 6.31635 10.2395 4.10866C10.8861 3.36719 11.2093 2.99646 11.7374 2.90701C11.8874 2.8816 12.0995 2.88238 12.2493 2.90889C12.7767 3.00222 13.0983 3.37664 13.7416 4.12546C15.667 6.36668 18.5 10.2376 18.5 13.6111Z" stroke="#292556" stroke-width="1.5" stroke-linecap="round" stroke-linejoin="round"/>
</svg>
