<svg width="24" height="24" viewBox="0 0 24 24" fill="none" xmlns="http://www.w3.org/2000/svg">
<path d="M5.63849 18.3688L6.87592 19.6063C7.37013 20.1005 7.61723 20.3476 7.89289 20.4618C8.26043 20.614 8.6734 20.614 9.04094 20.4618C9.31659 20.3476 9.5637 20.1005 10.0579 19.6063V19.6063C10.5521 19.1121 10.7992 18.865 10.9134 18.5893C11.0656 18.2218 11.0656 17.8088 10.9134 17.4413C10.7992 17.1656 10.5521 16.9185 10.0579 16.4243L8.82047 15.1869M5.63849 18.3688L4.40105 17.1314C3.90684 16.6372 3.65974 16.3901 3.54556 16.1144C3.39332 15.7469 3.39332 15.3339 3.54556 14.9664C3.65974 14.6907 3.90684 14.4436 4.40105 13.9494V13.9494C4.89525 13.4552 5.14236 13.2081 5.41801 13.0939C5.78556 12.9417 6.19852 12.9417 6.56606 13.0939C6.84172 13.2081 7.08882 13.4552 7.58303 13.9494L8.82047 15.1869M5.63849 18.3688L4.57644 19.4309M8.82047 15.1869L15.1844 8.82291M15.1844 8.82291L16.4219 10.0603C16.9161 10.5545 17.1632 10.8017 17.4388 10.9158C17.8064 11.0681 18.2193 11.0681 18.5869 10.9158C18.8625 10.8017 19.1096 10.5545 19.6038 10.0603V10.0603C20.098 9.56614 20.3452 9.31904 20.4593 9.04338C20.6116 8.67584 20.6116 8.26287 20.4593 7.89533C20.3452 7.61967 20.098 7.37257 19.6038 6.87836L18.3664 5.64093M15.1844 8.82291L13.947 7.58547C13.4528 7.09126 13.2057 6.84416 13.0915 6.56851C12.9393 6.20096 12.9393 5.788 13.0915 5.42046C13.2057 5.1448 13.4528 4.8977 13.947 4.40349V4.40349C14.4412 3.90928 14.6883 3.66218 14.964 3.548C15.3315 3.39576 15.7445 3.39576 16.112 3.548C16.3877 3.66218 16.6348 3.90928 17.129 4.40349L18.3664 5.64093M18.3664 5.64093L19.4257 4.58165" stroke="#292556" stroke-width="1.5" stroke-linecap="round" stroke-linejoin="round"/>
</svg>
