<svg width="24" height="24" viewBox="0 0 24 24" fill="none" xmlns="http://www.w3.org/2000/svg">
<path d="M10.1021 5.41388L5.63619 9.87981C4.31831 11.1977 3.65937 11.8566 3.35489 12.5917C2.94891 13.5718 2.94891 14.6731 3.35489 15.6532C3.65937 16.3883 4.31831 17.0472 5.6362 18.3651V18.3651C6.95408 19.683 7.61302 20.3419 8.3481 20.6464C9.32821 21.0524 10.4295 21.0524 11.4096 20.6464C12.1447 20.3419 12.8036 19.683 14.1215 18.3651L18.5874 13.8992M10.1021 5.41388V5.41388C11.2107 4.30528 11.765 3.75098 12.3647 3.45782C13.4732 2.91591 14.7698 2.91591 15.8783 3.45782C16.4779 3.75098 17.0322 4.30528 18.1408 5.41387L18.5874 5.86047C19.696 6.96907 20.2503 7.52337 20.5435 8.12303C21.0854 9.23153 21.0854 10.5281 20.5435 11.6366C20.2503 12.2363 19.696 12.7906 18.5874 13.8992V13.8992M10.1021 5.41388L18.5874 13.8992" stroke="#292556" stroke-width="1.5" stroke-linecap="round" stroke-linejoin="round"/>
</svg>
