<svg width="24" height="24" viewBox="0 0 24 24" fill="none" xmlns="http://www.w3.org/2000/svg">
<path d="M12 8.5C14.0899 8.5 15.9437 9.49784 17.2177 10.4279C17.8659 10.9011 18.1899 11.1377 18.3007 11.7196C18.3277 11.8618 18.3277 12.1382 18.3007 12.2804C18.1899 12.8623 17.8659 13.0989 17.2177 13.5721C15.9437 14.5022 14.0899 15.5 12 15.5M12 8.5C9.91012 8.5 8.05632 9.49784 6.78231 10.4279C6.13414 10.9011 5.81005 11.1377 5.69934 11.7196C5.67227 11.8618 5.67227 12.1382 5.69934 12.2804C5.81005 12.8623 6.13414 13.0989 6.78231 13.5721C8.05632 14.5022 9.91012 15.5 12 15.5M12 8.5V6M12 15.5V18M12 6C12.8284 6 13.5 5.32843 13.5 4.5C13.5 3.67157 12.8284 3 12 3C11.1716 3 10.5 3.67157 10.5 4.5C10.5 5.32843 11.1716 6 12 6ZM7.13388 7.13388C7.36009 6.90768 7.5 6.59518 7.5 6.25C7.5 5.55964 6.94036 5 6.25 5C5.55964 5 5 5.55964 5 6.25C5 6.94036 5.55964 7.5 6.25 7.5C6.59518 7.5 6.90768 7.36009 7.13388 7.13388ZM7.13388 7.13388L8 8V9.64362M16.8661 7.13388C17.0923 7.36009 17.4048 7.5 17.75 7.5C18.4404 7.5 19 6.94036 19 6.25C19 5.55964 18.4404 5 17.75 5C17.0596 5 16.5 5.55964 16.5 6.25C16.5 6.59518 16.6399 6.90768 16.8661 7.13388ZM16.8661 7.13388L16 8V9.64362M12 18C12.8284 18 13.5 18.6716 13.5 19.5C13.5 20.3284 12.8284 21 12 21C11.1716 21 10.5 20.3284 10.5 19.5C10.5 18.6716 11.1716 18 12 18ZM7.13388 16.8661C7.36009 17.0923 7.5 17.4048 7.5 17.75C7.5 18.4404 6.94036 19 6.25 19C5.55964 19 5 18.4404 5 17.75C5 17.0596 5.55964 16.5 6.25 16.5C6.59518 16.5 6.90768 16.6399 7.13388 16.8661ZM7.13388 16.8661L8 16V14.3564M16.8661 16.8661C17.0923 16.6399 17.4048 16.5 17.75 16.5C18.4404 16.5 19 17.0596 19 17.75C19 18.4404 18.4404 19 17.75 19C17.0596 19 16.5 18.4404 16.5 17.75C16.5 17.4048 16.6399 17.0923 16.8661 16.8661ZM16.8661 16.8661L16 16V14.3564M13 12C13 12.5523 12.5523 13 12 13C11.4477 13 11 12.5523 11 12C11 11.4477 11.4477 11 12 11C12.5523 11 13 11.4477 13 12Z" stroke="#292556" stroke-width="1.5" stroke-linejoin="round"/>
</svg>
