<svg width="24" height="24" viewBox="0 0 24 24" fill="none" xmlns="http://www.w3.org/2000/svg">
<path d="M11 9C11 9.82843 10.3284 10.5 9.5 10.5C8.67157 10.5 8 9.82843 8 9C8 8.17157 8.67157 7.5 9.5 7.5C10.3284 7.5 11 8.17157 11 9Z" fill="#292556"/>
<path d="M16 9C16 9.82843 15.3284 10.5 14.5 10.5C13.6716 10.5 13 9.82843 13 9C13 8.17157 13.6716 7.5 14.5 7.5C15.3284 7.5 16 8.17157 16 9Z" fill="#292556"/>
<path d="M14.5 14.25C15.0523 14.25 15.5 13.8023 15.5 13.25C15.5 12.9191 15.1411 12.2668 14.8533 11.797C14.7222 11.583 14.6567 11.4761 14.5507 11.4541C14.5191 11.4476 14.4809 11.4476 14.4493 11.4541C14.3433 11.4761 14.2778 11.583 14.1467 11.797C13.8589 12.2668 13.5 12.9191 13.5 13.25C13.5 13.8023 13.9477 14.25 14.5 14.25Z" fill="#292556"/>
<path d="M8.75 16H15.25M21 12C21 16.9706 16.9706 21 12 21C7.02944 21 3 16.9706 3 12C3 7.02944 7.02944 3 12 3C16.9706 3 21 7.02944 21 12Z" stroke="#292556" stroke-width="1.5" stroke-linecap="round" stroke-linejoin="round"/>
</svg>
