<svg width="24" height="24" viewBox="0 0 24 24" fill="none" xmlns="http://www.w3.org/2000/svg">
<path d="M11 9.81882L8.00287 7.63885C6.07645 6.23766 5.11323 5.53706 4.31533 5.74166C4.06574 5.80566 3.83336 5.92399 3.63479 6.08818C3 6.61311 3 7.80416 3 10.1863L3 13.8145C3 16.1964 3 17.3873 3.63474 17.9122C3.83329 18.0764 4.06565 18.1947 4.31523 18.2588C5.11307 18.4634 6.07625 17.763 8.00261 16.3621L11 14.1825M11 9.81882V9.81882C11.9487 10.5089 12.4231 10.8539 12.614 11.2683C12.8282 11.7332 12.8282 12.2685 12.614 12.7333C12.423 13.1477 11.9486 13.4926 11 14.1825V14.1825M11 9.81882V9.81882C11 7.7633 11 6.73555 11.4843 6.22833C11.7588 5.94076 12.1231 5.75526 12.5172 5.70237C13.2123 5.60909 14.0434 6.21363 15.7057 7.42271L18.4973 9.45318C19.9085 10.4796 20.6141 10.9928 20.7437 11.6731C20.785 11.8896 20.785 12.112 20.7437 12.3286C20.614 13.0088 19.9083 13.5219 18.497 14.5482L15.705 16.5785C14.0432 17.787 13.2122 18.3913 12.5174 18.2981C12.1231 18.2452 11.7587 18.0596 11.484 17.7719C11 17.2647 11 16.2373 11 14.1825V14.1825" stroke="#292556" stroke-width="1.5" stroke-linejoin="round"/>
</svg>
