<svg width="24" height="24" viewBox="0 0 24 24" fill="none" xmlns="http://www.w3.org/2000/svg">
<path d="M12.4181 12.5464C10.7066 14.258 11.5002 20.9996 11.5002 20.9996M14.418 18.5474C14.418 18.5474 13.1834 16.6246 14.4179 14.5426C15.5698 12.5996 14.9828 10.9615 14.0005 10.2184M8.41807 18.5428C8.41807 18.5428 8.14331 13.7037 9.41829 11.5533C9.87906 10.7761 10.4325 10.2817 11.0037 9.99806M8.41838 7.58778C10.682 5.90377 13.669 6.41421 15.4196 7.45211C17.6758 8.7898 19.3382 12.105 17.2986 15.9996M6.74999 9.99806C5.72005 12.2389 5.5 14.4646 5.5005 16.0038M17.1342 4.83478C13.661 2.77555 6.68863 2.86848 4.34427 7.93308C3.43367 9.9003 3.08913 12.0743 3.0083 13.9977M21.0479 13.9977C21.438 11.2998 20.7756 8.8279 19.4699 7.00282" stroke="#292556" stroke-width="1.5" stroke-linecap="round" stroke-linejoin="round"/>
</svg>
