<svg width="24" height="24" viewBox="0 0 24 24" fill="none" xmlns="http://www.w3.org/2000/svg">
<path d="M8.75 8.5V15.5M21 12C21 16.9706 16.9706 21 12 21C7.02944 21 3 16.9706 3 12C3 7.02944 7.02944 3 12 3C16.9706 3 21 7.02944 21 12ZM13.2035 14.7664L15.8401 12.7101C16.2097 12.4219 16.3944 12.2779 16.4288 12.0909C16.4398 12.0311 16.4398 11.9699 16.4288 11.9102C16.3945 11.7232 16.2097 11.5791 15.8402 11.2908L13.2036 9.23401C12.647 8.79984 12.3687 8.58276 12.1356 8.63755C12.0628 8.65465 11.9948 8.68785 11.9366 8.73471C11.75 8.88482 11.75 9.23775 11.75 9.94363V14.0568C11.75 14.7625 11.75 15.1154 11.9366 15.2655C11.9948 15.3124 12.0628 15.3456 12.1356 15.3627C12.3687 15.4175 12.6469 15.2005 13.2035 14.7664Z" stroke="#292556" stroke-width="1.5" stroke-linecap="round" stroke-linejoin="round"/>
</svg>
