<svg width="24" height="24" viewBox="0 0 24 24" fill="none" xmlns="http://www.w3.org/2000/svg">
<path d="M12.0005 3V5M12.0005 3C9.51521 3 7.26521 4.00736 5.63653 5.63604M12.0005 3C14.4856 3 16.7355 4.00725 18.3642 5.63577M3.00049 12C3.00049 9.51472 4.00785 7.26472 5.63653 5.63604M3.00049 12H5.00049M3.00049 12C3.00049 14.4851 4.00774 16.735 5.63626 18.3637M5.63653 5.63604L7.04978 7.04929M18.3642 5.63577C19.993 7.26447 21.0005 9.51458 21.0005 12M18.3642 5.63577L16.95 7.04998M21.0005 12L19.0005 12M21.0005 12C21.0005 14.4853 19.9931 16.7353 18.3644 18.364M12.0005 21V19M12.0005 21C14.4858 21 16.7358 19.9926 18.3644 18.364M12.0005 21C9.51507 21 7.26496 19.9925 5.63626 18.3637M18.3644 18.364L16.9493 16.9488M5.63626 18.3637L7.05047 16.9495M12.0001 10.5V10.5C12.8285 10.5 13.5005 11.1716 13.5005 12V12C13.5005 12.8284 12.8289 13.5 12.0005 13.5V13.5C11.1721 13.5 10.5005 12.8282 10.5005 11.9998V11.9998C10.5005 11.1716 11.1719 10.5 12.0001 10.5V10.5ZM12.0001 10.5V7.75" stroke="#292556" stroke-width="1.5" stroke-linecap="round" stroke-linejoin="round"/>
</svg>
