<svg width="24" height="24" viewBox="0 0 24 24" fill="none" xmlns="http://www.w3.org/2000/svg">
<path d="M14.4475 12C14.4475 13.3486 13.354 14.4419 12.0052 14.4419C10.6563 14.4419 9.56283 13.3486 9.56283 12C9.56283 10.6514 10.6563 9.55814 12.0052 9.55814C13.354 9.55814 14.4475 10.6514 14.4475 12Z" stroke="#292556" stroke-width="1.5" stroke-linejoin="round"/>
<path d="M9.16705 4.69252C9.71406 4.07721 9.98756 3.76955 10.2626 3.57326C11.3052 2.82934 12.7051 2.82934 13.7477 3.57326C14.0228 3.76955 14.2963 4.07721 14.8433 4.69252V4.69252C15.0171 4.88804 15.104 4.9858 15.1967 5.07375C15.5399 5.39927 15.9552 5.63901 16.4088 5.77342C16.5313 5.80973 16.6595 5.83611 16.9158 5.88887V5.88887C17.7215 6.05468 18.1243 6.13758 18.4315 6.27731C19.5982 6.80814 20.2988 8.02162 20.1751 9.29747C20.1426 9.63332 20.013 10.0234 19.7539 10.8036V10.8036C19.6715 11.0516 19.6303 11.1756 19.6005 11.2998C19.4901 11.7601 19.4901 12.2399 19.6005 12.7002C19.6303 12.8244 19.6715 12.9484 19.7539 13.1964V13.1964C20.013 13.9766 20.1426 14.3667 20.1751 14.7025C20.2988 15.9784 19.5982 17.1919 18.4315 17.7227C18.1243 17.8624 17.7215 17.9453 16.9158 18.1111V18.1111C16.6595 18.1639 16.5313 18.1903 16.4088 18.2266C15.9552 18.361 15.5399 18.6007 15.1967 18.9262C15.104 19.0142 15.0171 19.112 14.8433 19.3075V19.3075C14.2963 19.9228 14.0228 20.2305 13.7477 20.4267C12.7051 21.1707 11.3052 21.1707 10.2626 20.4267C9.98756 20.2305 9.71406 19.9228 9.16705 19.3075V19.3075C8.99324 19.112 8.90633 19.0142 8.8136 18.9262C8.4704 18.6007 8.05508 18.361 7.60156 18.2266C7.47902 18.1903 7.35084 18.1639 7.09448 18.1111V18.1111C6.28881 17.9453 5.88597 17.8624 5.57884 17.7227C4.41209 17.1919 3.7115 15.9784 3.83519 14.7025C3.86775 14.3667 3.9973 13.9766 4.2564 13.1964V13.1964C4.33878 12.9484 4.37997 12.8244 4.40978 12.7002C4.52025 12.2399 4.52025 11.7601 4.40978 11.2998C4.37997 11.1756 4.33878 11.0516 4.2564 10.8036V10.8036C3.9973 10.0234 3.86775 9.63332 3.83519 9.29747C3.7115 8.02163 4.41209 6.80814 5.57884 6.27731C5.88597 6.13758 6.28881 6.05468 7.09448 5.88887V5.88887C7.35084 5.83611 7.47902 5.80973 7.60156 5.77342C8.05508 5.63901 8.4704 5.39927 8.8136 5.07375C8.90633 4.9858 8.99324 4.88804 9.16705 4.69252V4.69252Z" stroke="#292556" stroke-width="1.5" stroke-linejoin="round"/>
</svg>
