<svg width="24" height="24" viewBox="0 0 24 24" fill="none" xmlns="http://www.w3.org/2000/svg">
<path d="M9.41887 21H13.3375M13.3375 21H17.2561M13.3375 21V18.0805M17.4619 16.9085C17.3942 16.9503 17.3256 16.9912 17.2562 17.0312C13.5081 19.1912 8.71541 17.9094 6.55143 14.1681C4.38745 10.4268 5.67074 5.64285 9.41886 3.48283M17.4619 16.9085L15.9538 14.3909M17.4619 16.9085C17.8283 16.6791 18.1756 16.4198 18.5 16.1341M9.41886 3.48283L10.9277 6.00013M9.41886 3.48283C9.89267 3.21055 10.504 3 10.504 3M10.9277 6.00013C9.44246 6.83982 8.44019 8.43156 8.44019 10.257C8.44019 12.957 10.633 15.1458 13.338 15.1458C14.2999 15.1458 15.197 14.869 15.9538 14.3909M10.9277 6.00013C11.5683 5.63795 12.2987 5.41569 13.0773 5.37494C13.1636 5.37042 13.2505 5.36813 13.338 5.36813C16.043 5.36813 18.2358 7.55694 18.2358 10.257C18.2358 11.9969 17.3252 13.5245 15.9538 14.3909" stroke="#292556" stroke-width="1.5" stroke-linecap="round" stroke-linejoin="round"/>
</svg>
