<svg width="24" height="24" viewBox="0 0 24 24" fill="none" xmlns="http://www.w3.org/2000/svg">
<path d="M19.4745 18.9745C20.1076 18.3412 20.4992 17.4663 20.4992 16.5C20.4992 14.567 18.9323 13 16.9996 13C15.0668 13 13.5 14.567 13.5 16.5C13.5 18.433 15.0668 20 16.9996 20C17.9661 20 18.8412 19.6081 19.4745 18.9745ZM19.4745 18.9745L21 20.5" stroke="#292556" stroke-width="1.5" stroke-linecap="round"/>
<path fill-rule="evenodd" clip-rule="evenodd" d="M7.25312 11.7485C6.08487 10.9253 5.13978 9.80632 4.52687 8.49999C5.55311 6.31274 7.51059 4.65069 9.88757 4.02293C9.29548 4.8026 8.79869 5.70799 8.40434 6.64413C7.70885 8.2951 7.29277 10.1337 7.25312 11.7485ZM9.78669 7.22645C10.3656 5.85229 11.1348 4.68098 12 3.94098C12.8652 4.68098 13.6344 5.85229 14.2133 7.22645C14.7365 8.46853 15.0781 9.81496 15.2 11.0374C15.6692 10.8828 16.1651 10.7871 16.679 10.7588C16.5301 9.40774 16.1524 7.9658 15.5957 6.64413C15.2013 5.70799 14.7045 4.8026 14.1124 4.02293C16.4894 4.65069 18.4469 6.31275 19.4731 8.50001C19.0681 9.36326 18.518 10.1447 17.8543 10.813C18.4154 10.8966 18.95 11.0612 19.4459 11.2946C19.6796 11.0184 19.8983 10.7291 20.1005 10.4278C20.1836 10.8585 20.2331 11.3013 20.2464 11.7535C20.8032 12.135 21.2895 12.612 21.6816 13.1608C21.7268 12.7802 21.75 12.3928 21.75 12C21.75 10.6565 21.4778 9.3747 20.985 8.20812C19.5063 4.70833 16.0411 2.25 12 2.25C7.95891 2.25 4.49373 4.70832 3.01505 8.20809C2.52215 9.37468 2.25 10.6565 2.25 12C2.25 17.3848 6.61522 21.75 12 21.75C12.7464 21.75 13.4731 21.6661 14.1714 21.5073C13.4226 21.0834 12.7784 20.4964 12.2868 19.7946C12.1925 19.8879 12.0969 19.9762 12 20.059C11.1348 19.319 10.3656 18.1477 9.78669 16.7735C9.44659 15.9662 9.18326 15.1148 9.0071 14.282C9.80618 14.5395 10.6503 14.6967 11.5248 14.7386C11.6971 14.2025 11.9461 13.7006 12.2587 13.246C12.1728 13.2487 12.0865 13.25 12 13.25C10.8537 13.25 9.76187 13.0162 8.76962 12.5936C8.7566 12.3911 8.75 12.1929 8.75 12C8.75 10.553 9.12155 8.80539 9.78669 7.22645ZM8.40434 17.3559C8.79869 18.292 9.29548 19.1974 9.88757 19.9771C6.35465 19.044 3.75 15.8262 3.75 12C3.75 11.462 3.8014 10.9364 3.89949 10.4278C4.77912 11.738 5.96837 12.8233 7.36267 13.5786C7.53366 14.8303 7.89368 16.1437 8.40434 17.3559Z" fill="#292556"/>
</svg>
