<svg width="24" height="24" viewBox="0 0 24 24" fill="none" xmlns="http://www.w3.org/2000/svg">
<path d="M12 21C16.9706 21 21 16.9706 21 12V11.9C21 11.525 21 11.3375 20.9045 11.2061C20.8737 11.1637 20.8363 11.1263 20.7939 11.0955C20.6625 11 20.475 11 20.1 11H12.9C12.525 11 12.3375 11 12.2061 11.0955C12.1637 11.1263 12.1263 11.1637 12.0955 11.2061C12 11.3375 12 11.525 12 11.9V13.1C12 13.475 12 13.6625 12.0955 13.7939C12.1263 13.8363 12.1637 13.8737 12.2061 13.9045C12.3375 14 12.525 14 12.9 14H17.6586C16.8349 16.3304 14.6124 18 12 18C8.68629 18 6 15.3137 6 12C6 8.68629 8.68629 6 12 6C13.3334 6 14.5652 6.43494 15.5612 7.17068C15.895 7.41721 16.0619 7.54048 16.2077 7.55034C16.26 7.55388 16.2977 7.55107 16.3489 7.53978C16.4916 7.50836 16.6208 7.37923 16.879 7.12097L16.879 7.12096L17.7276 6.27243C17.9944 6.00557 18.1279 5.87214 18.1482 5.69981C18.1543 5.6477 18.1512 5.58501 18.1399 5.53377C18.1026 5.3643 17.9674 5.25363 17.697 5.03228C16.1453 3.7621 14.1617 3 12 3C7.02944 3 3 7.02944 3 12C3 16.9706 7.02944 21 12 21Z" stroke="#292556" stroke-width="1.5" stroke-linecap="round" stroke-linejoin="round"/>
</svg>
