<svg width="24" height="24" viewBox="0 0 24 24" fill="none" xmlns="http://www.w3.org/2000/svg">
<path d="M21 5.5C21 6.43462 21 6.90192 20.799 7.25C20.6674 7.47803 20.478 7.66739 20.25 7.79904C19.9019 8 19.4346 8 18.5 8H16.5C15.5654 8 15.0981 8 14.75 7.79904C14.522 7.66739 14.3326 7.47803 14.201 7.25C14 6.90192 14 6.43462 14 5.5V5.5C14 4.56538 14 4.09808 14.201 3.75C14.3326 3.52197 14.522 3.33261 14.75 3.20096C15.0981 3 15.5654 3 16.5 3H18.5C19.4346 3 19.9019 3 20.25 3.20096C20.478 3.33261 20.6674 3.52197 20.799 3.75C21 4.09808 21 4.56538 21 5.5V5.5Z" stroke="#292556" stroke-width="1.5" stroke-linecap="round" stroke-linejoin="round"/>
<path d="M10 18.5C10 19.4346 10 19.9019 9.79904 20.25C9.66739 20.478 9.47803 20.6674 9.25 20.799C8.90192 21 8.43462 21 7.5 21H5.5C4.56538 21 4.09808 21 3.75 20.799C3.52197 20.6674 3.33261 20.478 3.20096 20.25C3 19.9019 3 19.4346 3 18.5V18.5C3 17.5654 3 17.0981 3.20096 16.75C3.33261 16.522 3.52197 16.3326 3.75 16.201C4.09808 16 4.56538 16 5.5 16H7.5C8.43462 16 8.90192 16 9.25 16.201C9.47803 16.3326 9.66739 16.522 9.79904 16.75C10 17.0981 10 17.5654 10 18.5V18.5Z" stroke="#292556" stroke-width="1.5" stroke-linecap="round" stroke-linejoin="round"/>
<path d="M21 18.3C21 19.4249 21 19.9874 20.7135 20.3817C20.621 20.509 20.509 20.621 20.3817 20.7135C19.9874 21 19.4249 21 18.3 21H16.7C15.5751 21 15.0126 21 14.6183 20.7135C14.491 20.621 14.379 20.509 14.2865 20.3817C14 19.9874 14 19.4249 14 18.3V14.7C14 13.5751 14 13.0126 14.2865 12.6183C14.379 12.491 14.491 12.379 14.6183 12.2865C15.0126 12 15.5751 12 16.7 12H18.3C19.4249 12 19.9874 12 20.3817 12.2865C20.509 12.379 20.621 12.491 20.7135 12.6183C21 13.0126 21 13.5751 21 14.7V18.3Z" stroke="#292556" stroke-width="1.5" stroke-linecap="round" stroke-linejoin="round"/>
<path d="M10 9.3C10 10.4249 10 10.9874 9.71353 11.3817C9.62101 11.509 9.50902 11.621 9.38168 11.7135C8.98738 12 8.42492 12 7.3 12L5.7 12C4.57508 12 4.01262 12 3.61832 11.7135C3.49098 11.621 3.37899 11.509 3.28647 11.3817C3 10.9874 3 10.4249 3 9.3V5.7C3 4.57508 3 4.01262 3.28647 3.61832C3.37899 3.49098 3.49098 3.37899 3.61832 3.28647C4.01262 3 4.57508 3 5.7 3H7.3C8.42492 3 8.98738 3 9.38168 3.28647C9.50902 3.37899 9.62101 3.49098 9.71353 3.61832C10 4.01262 10 4.57508 10 5.7V9.3Z" stroke="#292556" stroke-width="1.5" stroke-linecap="round" stroke-linejoin="round"/>
</svg>
