<svg width="24" height="24" viewBox="0 0 24 24" fill="none" xmlns="http://www.w3.org/2000/svg">
<path d="M10.8561 10.964L13.036 13.1439M10.8561 10.964L9.92319 10.9154C9.55652 10.8963 9.37319 10.8868 9.1996 10.8462C8.95364 10.7886 8.72081 10.685 8.51342 10.5408C8.36705 10.4391 8.23723 10.3092 7.97761 10.0496V10.0496C7.33872 9.41072 7.01927 9.09128 6.86753 8.73689C6.65226 8.23414 6.65226 7.66517 6.86753 7.16242C7.01927 6.80804 7.33872 6.48859 7.97761 5.8497L8.78173 5.04558C9.84231 3.985 10.3726 3.45471 11.0144 3.35305C11.2217 3.32022 11.4329 3.32022 11.6402 3.35305C12.282 3.45471 12.8123 3.985 13.8729 5.04558L15.3237 6.49641M10.8561 10.964L10 11.8201L3.58993 18.2302C2.98798 18.8322 2.98798 19.8081 3.58993 20.4101V20.4101C4.19188 21.012 5.16784 21.012 5.76979 20.4101L13.036 13.1439M13.036 13.1439L13.0846 14.0768C13.1037 14.4435 13.1132 14.6268 13.1538 14.8004C13.2114 15.0464 13.315 15.2792 13.4592 15.4866C13.5609 15.633 13.6908 15.7628 13.9504 16.0224V16.0224C14.5893 16.6613 14.9087 16.9807 15.2631 17.1325C15.7659 17.3477 16.3348 17.3477 16.8376 17.1325C17.192 16.9807 17.5114 16.6613 18.1503 16.0224L18.9544 15.2183C20.015 14.1577 20.5453 13.6274 20.6469 12.9856C20.6798 12.7783 20.6798 12.5671 20.6469 12.3598C20.5453 11.718 20.015 11.1877 18.9544 10.1271L17.5036 8.67628M15.3237 6.49641L15.9425 5.87765C16.5444 5.2757 17.5204 5.2757 18.1223 5.87765V5.87765C18.7243 6.4796 18.7243 7.45556 18.1223 8.05751L17.5036 8.67628M15.3237 6.49641L17.5036 8.67628" stroke="#292556" stroke-width="1.5" stroke-linecap="round" stroke-linejoin="round"/>
</svg>
