<svg width="24" height="24" viewBox="0 0 24 24" fill="none" xmlns="http://www.w3.org/2000/svg">
<path d="M12.0001 10.5L7.29102 13.7601C4.30138 15.8298 2.80656 16.8647 2.85435 17.836C2.86897 18.1331 2.95908 18.4216 3.11618 18.6742C3.62976 19.5 5.44785 19.5 9.08402 19.5H11H14.9175C18.5544 19.5 20.3729 19.5 20.8864 18.6741C21.0435 18.4215 21.1336 18.133 21.1482 17.8359C21.1959 16.8645 19.7007 15.8296 16.7101 13.7598L12.0001 10.5ZM12.0001 10.5V8.68217C12.0001 8.58156 12.0816 8.5 12.1822 8.5V8.5C13.1883 8.5 14.0039 7.68441 14.0039 6.67832V6.5C14.0039 5.39543 13.1085 4.5 12.0039 4.5V4.5C10.8993 4.5 10.0039 5.39543 10.0039 6.5V6.5" stroke="#292556" stroke-width="1.5" stroke-linecap="round" stroke-linejoin="round"/>
</svg>
