<svg width="24" height="24" viewBox="0 0 24 24" fill="none" xmlns="http://www.w3.org/2000/svg">
<path d="M3 12C3 11.662 3.01863 11.3283 3.05493 11M3 12V15C3 16.1046 3.89543 17 5 17V17M3 12L3.05 11H3.05493M3.05493 11C3.55237 6.50005 7.36745 3 12 3C16.6326 3 20.4476 6.50005 20.9451 11M3.05493 11H5C6.65685 11 8 12.3431 8 14V14C8 15.6569 6.65685 17 5 17V17M20.9451 11C20.9814 11.3283 21 11.662 21 12M20.9451 11H19C17.3431 11 16 12.3431 16 14V14C16 15.6569 17.3431 17 19 17V17C20.1046 17 21 16.1046 21 15V12M20.9451 11H20.95L21 12M5 17V17C5 17.4647 5 17.697 5.03843 17.8902C5.19624 18.6836 5.81644 19.3038 6.60982 19.4616C6.80302 19.5 7.03534 19.5 7.5 19.5H10M10 19.5C10 20.3284 10.6716 21 11.5 21H13C13.8284 21 14.5 20.3284 14.5 19.5C14.5 18.6716 13.8284 18 13 18H11.5C10.6716 18 10 18.6716 10 19.5Z" stroke="#292556" stroke-width="1.5" stroke-linejoin="round"/>
</svg>
