<svg width="24" height="24" viewBox="0 0 24 24" fill="none" xmlns="http://www.w3.org/2000/svg">
<path d="M10 12.883V10.8375L12 9.61023L14 10.8375V12.883M10 12.883L8 14.107V16.1525L10 17.3798L12 16.1525M10 12.883L12 14.1102M14 12.883L12 14.1102M14 12.883L16 14.107V16.1525L14 17.3798L12 16.1525M12 14.1102V16.1525M5 9.60023V17.4002C5 18.9001 5 19.6501 5.38197 20.1758C5.50533 20.3456 5.65464 20.4949 5.82443 20.6183C6.35016 21.0002 7.10011 21.0002 8.6 21.0002H15.4C16.8999 21.0002 17.6498 21.0002 18.1756 20.6183C18.3454 20.4949 18.4947 20.3456 18.618 20.1758C19 19.6501 19 18.9001 19 17.4002V9.60023C19 8.10034 19 7.35039 18.618 6.82466C18.4947 6.65487 18.3454 6.50556 18.1756 6.3822C17.6498 6.00023 16.8999 6.00023 15.4 6.00023H8.6C7.10011 6.00023 6.35016 6.00023 5.82443 6.3822C5.65464 6.50556 5.50533 6.65487 5.38197 6.82466C5 7.35039 5 8.10034 5 9.60023ZM5 4.49023V4.49023C5 3.66181 5.67157 2.99023 6.5 2.99023H17.5C18.3284 2.99023 19 3.66181 19 4.49023V4.49023C19 5.31866 18.3284 5.99023 17.5 5.99023H6.5C5.67157 5.99023 5 5.31866 5 4.49023Z" stroke="#292556" stroke-width="1.5" stroke-linejoin="round"/>
</svg>
