<svg width="24" height="24" viewBox="0 0 24 24" fill="none" xmlns="http://www.w3.org/2000/svg">
<path d="M15.8588 9.2004C15.5659 9.49329 15.091 9.49329 14.7981 9.2004C14.5052 8.90751 14.5052 8.43263 14.7981 8.13974C15.091 7.84685 15.5659 7.84685 15.8588 8.13974C16.1517 8.43263 16.1517 8.90751 15.8588 9.2004Z" fill="#292556"/>
<path d="M11.4405 9.02252C11.1476 9.31541 10.6727 9.31541 10.3798 9.02252C10.0869 8.72962 10.0869 8.25475 10.3798 7.96186C10.6727 7.66896 11.1476 7.66896 11.4405 7.96186C11.7334 8.25475 11.7334 8.72962 11.4405 9.02252Z" fill="#292556"/>
<path d="M16.0367 13.6187C15.7438 13.9116 15.2689 13.9116 14.976 13.6187C14.6831 13.3258 14.6831 12.8509 14.976 12.5581C15.2689 12.2652 15.7438 12.2652 16.0367 12.5581C16.3296 12.8509 16.3296 13.3258 16.0367 13.6187Z" fill="#292556"/>
<path d="M7.47076 8.94145C7.64254 9.91733 8.10535 10.852 8.85919 11.6058C9.37205 12.1187 9.9686 12.4969 10.6049 12.7403C10.8347 12.8282 10.9496 12.8722 11.0143 12.9269C11.0411 12.9495 11.0511 12.9595 11.0737 12.9862C11.1284 13.051 11.1723 13.1659 11.2603 13.3957C11.5037 14.032 11.8819 14.6285 12.3947 15.1414C13.1486 15.8952 14.0832 16.358 15.0591 16.5298M7.47076 8.94145C7.19761 7.3896 7.66042 5.73355 8.85919 4.53478C10.8118 2.58216 13.9776 2.58216 15.9303 4.53478C16.4431 5.04764 16.8213 5.64419 17.0647 6.28047C17.1526 6.51026 17.1966 6.62515 17.2513 6.68993C17.2739 6.71666 17.2839 6.72667 17.3106 6.74925C17.3754 6.80397 17.4903 6.84793 17.7201 6.93585C18.3564 7.1793 18.9529 7.55745 19.4658 8.07031C21.4184 10.0229 21.4184 13.1888 19.4658 15.1414C18.267 16.3402 16.611 16.803 15.0591 16.5298M7.47076 8.94145L5.21272 14.0382C3.81142 17.2011 3.11077 18.7826 3.65177 19.6751C3.81878 19.9507 4.04989 20.1818 4.32544 20.3488C5.21799 20.8898 6.79945 20.1892 9.96238 18.7879L15.0591 16.5298" stroke="#292556" stroke-width="1.5" stroke-linejoin="round"/>
</svg>
