<svg width="24" height="24" viewBox="0 0 24 24" fill="none" xmlns="http://www.w3.org/2000/svg">
<path d="M14.0003 18.0003C15.1049 19.1048 16.8957 19.1048 18.0003 18.0003C19.1049 16.8957 19.1049 15.1049 18.0003 14.0003L10.0003 6.00031C8.89577 4.89574 7.10491 4.89574 6.00035 6.00031C4.89578 7.10488 4.89578 8.89573 6.00035 10.0003L14.0003 18.0003Z" stroke="#292556" stroke-width="1.5" stroke-linejoin="round"/>
<path d="M10.0003 18.0003C8.89572 19.1048 7.10487 19.1048 6.0003 18.0003C4.89573 16.8957 4.89573 15.1048 6.0003 14.0003L14.0003 6.0003C15.1048 4.89573 16.8957 4.89573 18.0003 6.0003C19.1048 7.10487 19.1048 8.89572 18.0003 10.0003L10.0003 18.0003Z" stroke="#292556" stroke-width="1.5" stroke-linejoin="round"/>
<path d="M3.5 5C3.5 4.17157 4.17157 3.5 5 3.5C5.82843 3.5 6.5 4.17157 6.5 5C6.5 5.82843 5.82843 6.5 5 6.5C4.17157 6.5 3.5 5.82843 3.5 5Z" fill="#292556"/>
<path d="M17.5 5C17.5 4.17157 18.1716 3.5 19 3.5C19.8284 3.5 20.5 4.17157 20.5 5C20.5 5.82843 19.8284 6.5 19 6.5C18.1716 6.5 17.5 5.82843 17.5 5Z" fill="#292556"/>
<path d="M3.5 19C3.5 18.1716 4.17157 17.5 5 17.5C5.82843 17.5 6.5 18.1716 6.5 19C6.5 19.8284 5.82843 20.5 5 20.5C4.17157 20.5 3.5 19.8284 3.5 19Z" fill="#292556"/>
<path d="M17.5 19C17.5 18.1716 18.1716 17.5 19 17.5C19.8284 17.5 20.5 18.1716 20.5 19C20.5 19.8284 19.8284 20.5 19 20.5C18.1716 20.5 17.5 19.8284 17.5 19Z" fill="#292556"/>
</svg>
