<svg width="24" height="24" viewBox="0 0 24 24" fill="none" xmlns="http://www.w3.org/2000/svg">
<path d="M12 8V8C12 6.13077 12 5.19615 12.4019 4.5C12.6652 4.04394 13.0439 3.66523 13.5 3.40192C14.1962 3 15.1308 3 17 3H17.5M8.4 20H15.6C17.8498 20 18.9748 20 19.7634 19.4271C20.018 19.242 20.242 19.018 20.4271 18.7634C21 17.9748 21 16.8498 21 14.6V13.4C21 11.1502 21 10.0252 20.4271 9.23664C20.242 8.98196 20.018 8.75799 19.7634 8.57295C18.9748 8 17.8498 8 15.6 8H8.4C6.15016 8 5.02524 8 4.23664 8.57295C3.98196 8.75799 3.75799 8.98196 3.57295 9.23664C3 10.0252 3 11.1502 3 13.4V14.6C3 16.8498 3 17.9748 3.57295 18.7634C3.75799 19.018 3.98196 19.242 4.23664 19.4271C5.02524 20 6.15016 20 8.4 20Z" stroke="#292556" stroke-width="1.5" stroke-linecap="round" stroke-linejoin="round"/>
<path d="M10.2502 15.9998C10.2501 16.4141 10.5859 16.75 11.0002 16.75H13C13.4142 16.75 13.75 16.4142 13.75 16V16C13.75 15.5858 13.4142 15.25 13 15.25H11.0002C10.586 15.25 10.2503 15.5857 10.2502 15.9998V15.9998Z" fill="#292556"/>
<path d="M7.25008 11.25C7.66424 11.25 7.99999 11.5858 7.99999 12V12C7.99999 12.4142 7.66424 12.75 7.25008 12.75V12.75C6.83585 12.75 6.50008 12.414 6.50018 11.9998V11.9998C6.50028 11.5857 6.836 11.25 7.25008 11.25V11.25Z" fill="#292556"/>
<path d="M7.25008 15.25C7.66424 15.25 7.99999 15.5858 7.99999 16V16C7.99999 16.4142 7.66424 16.75 7.25008 16.75V16.75C6.83585 16.75 6.50008 16.414 6.50018 15.9998V15.9998C6.50028 15.5857 6.836 15.25 7.25008 15.25V15.25Z" fill="#292556"/>
<path d="M12.0001 11.25C12.4142 11.25 12.75 11.5858 12.75 12V12C12.75 12.4142 12.4142 12.75 12.0001 12.75V12.75C11.5859 12.75 11.2501 12.414 11.2502 11.9998V11.9998C11.2503 11.5857 11.586 11.25 12.0001 11.25V11.25Z" fill="#292556"/>
<path d="M16.7501 11.25C17.1642 11.25 17.5 11.5858 17.5 12V12C17.5 12.4142 17.1642 12.75 16.7501 12.75V12.75C16.3359 12.75 16.0001 12.414 16.0002 11.9998V11.9998C16.0003 11.5857 16.336 11.25 16.7501 11.25V11.25Z" fill="#292556"/>
<path d="M16.7501 15.25C17.1642 15.25 17.5 15.5858 17.5 16V16C17.5 16.4142 17.1642 16.75 16.7501 16.75V16.75C16.3359 16.75 16.0001 16.414 16.0002 15.9998V15.9998C16.0003 15.5857 16.336 15.25 16.7501 15.25V15.25Z" fill="#292556"/>
</svg>
