<svg width="24" height="24" viewBox="0 0 24 24" fill="none" xmlns="http://www.w3.org/2000/svg">
<path d="M15 17H9M15 17V18C15 18.9319 15 19.3978 14.8478 19.7654C14.6448 20.2554 14.2554 20.6448 13.7654 20.8478C13.3978 21 12.9319 21 12 21V21C11.0681 21 10.6022 21 10.2346 20.8478C9.74458 20.6448 9.35523 20.2554 9.15224 19.7654C9 19.3978 9 18.9319 9 18V17M15 17V15.9927C15 15.6724 15.1007 15.3601 15.2879 15.1002L16.9883 12.7384C19.9159 8.67242 17.0103 3 12 3V3C6.98974 3 4.08414 8.67242 7.01166 12.7384L8.71212 15.1002C8.89929 15.3601 9 15.6724 9 15.9927V17M13.4145 7.07513L13.0044 6.61849C12.5903 6.15732 12.3832 5.92673 12.1253 5.88303C12.0423 5.86898 11.9577 5.86898 11.8747 5.88303C11.6168 5.92673 11.4097 6.15732 10.9956 6.61849L10.5855 7.07513L9.996 7.19522C9.38015 7.32069 9.07222 7.38342 8.90355 7.58679C8.84937 7.65212 8.80666 7.72617 8.77726 7.8058C8.68574 8.05365 8.7857 8.35158 8.98561 8.94744L9.17098 9.5L8.98561 10.0526C8.7857 10.6484 8.68574 10.9464 8.77726 11.1942C8.80666 11.2738 8.84937 11.3479 8.90355 11.4132C9.07222 11.6166 9.38015 11.6793 9.996 11.8048L10.5855 11.9249L10.9956 12.3815C11.4097 12.8427 11.6168 13.0733 11.8747 13.117C11.9577 13.131 12.0423 13.131 12.1253 13.117C12.3832 13.0733 12.5903 12.8427 13.0044 12.3815L13.4145 11.9249L14.004 11.8048C14.6199 11.6793 14.9278 11.6166 15.0964 11.4132C15.1506 11.3479 15.1933 11.2738 15.2227 11.1942C15.3143 10.9464 15.2143 10.6484 15.0144 10.0526L14.829 9.5L15.0144 8.94744C15.2143 8.35158 15.3143 8.05365 15.2227 7.8058C15.1933 7.72617 15.1506 7.65212 15.0964 7.58679C14.9278 7.38342 14.6199 7.32069 14.004 7.19522L13.4145 7.07513Z" stroke="#292556" stroke-width="1.5" stroke-linejoin="round"/>
<path d="M13 9.5C13 10.0523 12.5523 10.5 12 10.5C11.4477 10.5 11 10.0523 11 9.5C11 8.94772 11.4477 8.5 12 8.5C12.5523 8.5 13 8.94772 13 9.5Z" fill="#292556"/>
</svg>
