<svg width="24" height="24" viewBox="0 0 24 24" fill="none" xmlns="http://www.w3.org/2000/svg">
<path d="M14.1317 10.6757V10.6757C12.3465 8.89048 9.45201 8.89048 7.66675 10.6757L4.22101 14.1215C2.65891 15.6836 2.65891 18.2162 4.221 19.7783V19.7783C5.7831 21.3404 8.31576 21.3404 9.87786 19.7783L11.3706 18.2855M9.86663 13.3246V13.3246C11.6519 15.1098 14.5464 15.1098 16.3316 13.3246L19.7774 9.87884C21.3394 8.31674 21.3395 5.78408 19.7774 4.22198V4.22198C18.2153 2.65989 15.6826 2.65988 14.1205 4.22198L12.6277 5.71476" stroke="#292556" stroke-width="1.5" stroke-linecap="round" stroke-linejoin="round"/>
<path d="M14.1337 10.6757V10.6757C12.3484 8.89048 9.45396 8.89048 7.66871 10.6757L4.22296 14.1215C2.66086 15.6836 2.66086 18.2162 4.22296 19.7783V19.7783C5.78505 21.3404 8.31771 21.3404 9.87981 19.7783L11.3726 18.2855M9.86859 13.3246V13.3246C11.6538 15.1098 14.5483 15.1098 16.3336 13.3246L19.7793 9.87884C21.3414 8.31674 21.3414 5.78408 19.7793 4.22198V4.22198C18.2172 2.65989 15.6846 2.65988 14.1225 4.22198L12.6297 5.71476" stroke="#292556" stroke-width="1.5" stroke-linecap="round" stroke-linejoin="round"/>
</svg>
