<svg width="24" height="24" viewBox="0 0 24 24" fill="none" xmlns="http://www.w3.org/2000/svg">
<path d="M7 8V8C7 5.23858 9.23858 3 12 3H14M10 14.5V14.5C10 13.3954 10.8954 12.5 12 12.5V12.5C13.1046 12.5 14 13.3954 14 14.5V14.5C14 15.6046 13.1046 16.5 12 16.5V16.5C10.8954 16.5 10 15.6046 10 14.5ZM9.5 21H14.5C16.8346 21 18.0019 21 18.8856 20.5277C19.5833 20.1548 20.1548 19.5833 20.5277 18.8856C21 18.0019 21 16.8346 21 14.5V14.5C21 12.1654 21 10.9981 20.5277 10.1144C20.1548 9.4167 19.5833 8.84525 18.8856 8.47231C18.0019 8 16.8346 8 14.5 8H9.5C7.16537 8 5.99805 8 5.11441 8.47231C4.4167 8.84525 3.84525 9.4167 3.47231 10.1144C3 10.9981 3 12.1654 3 14.5V14.5C3 16.8346 3 18.0019 3.47231 18.8856C3.84525 19.5833 4.4167 20.1548 5.11441 20.5277C5.99805 21 7.16537 21 9.5 21Z" stroke="#292556" stroke-width="1.5" stroke-linecap="round" stroke-linejoin="round"/>
</svg>
