<svg width="24" height="24" viewBox="0 0 24 24" fill="none" xmlns="http://www.w3.org/2000/svg">
<path d="M10.3178 14.1979C11.6476 14.9656 13.2704 15.2259 14.8709 14.7971C15.9459 14.509 16.8741 13.9467 17.6005 13.2055M10.3178 14.1979C8.98772 13.4302 7.95063 12.1551 7.52177 10.5546C7.23371 9.47955 7.25672 8.39441 7.53563 7.39473M10.3178 14.1979L6.39109 21M9.03596 4.79704L8.43891 4.45234C7.72166 4.03825 6.80454 4.28385 6.39022 5.00097V5.00097C5.97573 5.71841 6.22146 6.63602 6.93902 7.05029L7.53563 7.39473M9.03596 4.79704C9.76222 4.05613 10.6903 3.49396 11.7651 3.20598C14.9662 2.34823 18.2565 4.24765 19.1142 7.44845C19.4022 8.52328 19.3792 9.60818 19.1005 10.6077M9.03596 4.79704L19.1005 10.6077M7.53563 7.39473L17.6005 13.2055M17.6005 13.2055L18.1968 13.5498C18.914 13.9639 19.8312 13.7183 20.2455 13.0012V13.0012C20.66 12.2838 20.4142 11.3661 19.6967 10.9519L19.1005 10.6077" stroke="#292556" stroke-width="1.5" stroke-linecap="round" stroke-linejoin="round"/>
</svg>
