<svg width="24" height="24" viewBox="0 0 24 24" fill="none" xmlns="http://www.w3.org/2000/svg">
<path d="M10.606 7.22533C8.91587 8.23173 7.16708 9.60724 6.55758 11.2249C5.04569 15.2377 8.76565 18.9555 12.7807 17.4445C14.4 16.8351 15.7767 15.0862 16.7838 13.3964M10.606 7.22533C11.1549 6.89851 11.75 6.58793 12.2971 6.32099C13.0394 5.9588 13.3828 5.07439 13.0391 4.32335V4.32335C12.7037 3.59029 11.8392 3.26136 11.116 3.61742C10.4668 3.937 9.78321 4.29726 9.13475 4.67849M10.606 7.22533L9.13475 4.67849M9.13475 4.67849C6.68526 6.11859 4.24935 8.07933 3.43019 10.4724C1.31696 16.6461 7.35641 22.6821 13.5336 20.5701C15.9069 19.7586 17.8725 17.3186 19.3229 14.8615M16.7838 13.3964C17.1095 12.85 17.4165 12.2635 17.6803 11.7243C18.0417 10.9856 18.9212 10.6427 19.6699 10.9829V10.9829C20.4054 11.3171 20.735 12.1844 20.3759 12.908C20.0583 13.5478 19.7016 14.2198 19.3229 14.8615M16.7838 13.3964L19.3229 14.8615" stroke="#292556" stroke-width="1.5" stroke-linejoin="round"/>
</svg>
