<svg width="24" height="24" viewBox="0 0 24 24" fill="none" xmlns="http://www.w3.org/2000/svg">
<path d="M10.5 5V3M10.5 5H13.5M10.5 5V5C9.10444 5 8.40666 5 7.83886 5.17224C6.56046 5.56004 5.56004 6.56046 5.17224 7.83886C5 8.40666 5 9.10444 5 10.5V10.5M13.5 5V3M13.5 5V5C14.8956 5 15.5933 5 16.1611 5.17224C17.4395 5.56004 18.44 6.56046 18.8278 7.83886C19 8.40666 19 9.10444 19 10.5V10.5M19 10.5H21M19 10.5V13.5M19 13.5H21M19 13.5V13.5C19 14.8956 19 15.5933 18.8278 16.1611C18.44 17.4395 17.4395 18.44 16.1611 18.8278C15.5933 19 14.8956 19 13.5 19V19M13.5 19V21M13.5 19H10.5M10.5 19V21M10.5 19V19C9.10444 19 8.40666 19 7.83886 18.8278C6.56046 18.44 5.56004 17.4395 5.17224 16.1611C5 15.5933 5 14.8956 5 13.5V13.5M5 13.5H3M5 13.5V10.5M5 10.5H3M10.7 16H13.3C14.4249 16 14.9874 16 15.3817 15.7135C15.509 15.621 15.621 15.509 15.7135 15.3817C16 14.9874 16 14.4249 16 13.3V10.7C16 9.57508 16 9.01262 15.7135 8.61832C15.621 8.49098 15.509 8.37899 15.3817 8.28647C14.9874 8 14.4249 8 13.3 8H10.7C9.57508 8 9.01262 8 8.61832 8.28647C8.49098 8.37899 8.37899 8.49098 8.28647 8.61832C8 9.01262 8 9.57508 8 10.7V13.3C8 14.4249 8 14.9874 8.28647 15.3817C8.37899 15.509 8.49098 15.621 8.61832 15.7135C9.01262 16 9.57508 16 10.7 16Z" stroke="#292556" stroke-width="1.5" stroke-linecap="round" stroke-linejoin="round"/>
</svg>
