<svg width="24" height="24" viewBox="0 0 24 24" fill="none" xmlns="http://www.w3.org/2000/svg">
<path d="M10.6138 9.63115C10.0021 8.2548 9.69628 7.56662 9.21678 7.45121C9.06764 7.41531 8.91224 7.41421 8.76261 7.44798C8.28152 7.55657 7.96591 8.24032 7.33469 9.60784L4.17905 16.4444C3.71136 17.4576 3.47752 17.9642 3.63023 18.3593C3.67854 18.4843 3.75148 18.5983 3.84471 18.6945C4.13941 18.9988 4.69739 18.9988 5.81335 18.9988H18.0184C19.1924 18.9988 19.7794 18.9988 20.0761 18.6794C20.1697 18.5787 20.2415 18.4597 20.2871 18.33C20.4315 17.9187 20.158 17.3992 19.6112 16.3603L17.5646 12.4723C16.958 11.32 16.6547 10.7438 16.2056 10.6419C16.0648 10.6099 15.9187 10.6088 15.7775 10.6387C15.3269 10.734 15.0151 11.3056 14.3916 12.4488L13.8725 13.4004C13.5379 14.0138 13.3706 14.3206 13.1362 14.3637C13.063 14.3771 12.9877 14.3741 12.9158 14.3547C12.6857 14.2928 12.5438 13.9735 12.26 13.3349L10.6138 9.63115Z" stroke="#292556" stroke-width="1.5" stroke-linejoin="round"/>
<path d="M21 7C21 8.10457 20.1046 9 19 9C17.8954 9 17 8.10457 17 7C17 5.89543 17.8954 5 19 5C20.1046 5 21 5.89543 21 7Z" stroke="#292556" stroke-width="1.5" stroke-linejoin="round"/>
</svg>
