<svg width="24" height="24" viewBox="0 0 24 24" fill="none" xmlns="http://www.w3.org/2000/svg">
<path fill-rule="evenodd" clip-rule="evenodd" d="M9.48457 10.252L4.59689 15.1397C4.52494 15.2116 4.46838 15.2975 4.43066 15.392L2.30346 20.7215C2.19232 21 2.25769 21.3179 2.46969 21.5299C2.68169 21.7419 2.99959 21.8073 3.27804 21.6961L8.6076 19.5689C8.70211 19.5312 8.78795 19.4746 8.85991 19.4027L13.7476 14.515L12.6869 13.4543L8.84633 17.2949L8.64483 15.9817C8.59514 15.6578 8.34097 15.4037 8.0171 15.3541L6.70488 15.153L10.5452 11.3127L9.48457 10.252ZM14.4547 11.6866L18.3438 7.79743L16.2021 5.65574L12.313 9.54488L11.2523 8.48422L15.6718 4.06474L16.6662 3.0704C17.8434 1.8932 19.752 1.8932 20.9292 3.0704C22.1064 4.2476 22.1064 6.15621 20.9292 7.33341L19.9348 8.32776L15.5153 12.7472L14.4547 11.6866ZM17.7268 4.13106C18.3182 3.53965 19.2771 3.53965 19.8685 4.13106C20.4599 4.72247 20.4599 5.68134 19.8685 6.27275L19.4045 6.73677L17.2628 4.59507L17.7268 4.13106ZM7.24568 16.7534L7.49783 18.3968L4.34397 19.6556L5.60282 16.5016L7.24568 16.7534Z" fill="#292556"/>
<path d="M21 21L3 3" stroke="#292556" stroke-width="1.5" stroke-linecap="round" stroke-linejoin="round"/>
</svg>
