<svg width="24" height="24" viewBox="0 0 24 24" fill="none" xmlns="http://www.w3.org/2000/svg">
<path fill-rule="evenodd" clip-rule="evenodd" d="M9.25863 11.9736C8.86186 11.4745 8.5027 10.9642 8.18207 10.4482C8.66278 10.2413 9.11305 9.94172 9.50507 9.54985C11.1649 7.89063 11.1649 5.20039 9.50507 3.54117C7.84537 1.88211 5.15458 1.88211 3.49487 3.54117C2.5627 4.47298 2.15435 5.73087 2.26879 6.9458C2.29464 9.70168 3.5148 12.7967 5.71729 15.5149L6.78409 14.4481C4.80989 11.9653 3.78167 9.224 3.7685 6.9019C3.76836 6.87764 3.76704 6.8534 3.76456 6.82926C3.68247 6.03286 3.94642 5.21071 4.55533 4.60203C5.62929 3.52849 7.37066 3.52849 8.44462 4.60203C9.51843 5.67542 9.51843 7.4156 8.44462 8.48898C8.01841 8.91502 7.4891 9.17121 6.93718 9.25944C6.69726 9.29779 6.49078 9.44999 6.38316 9.66782C6.27554 9.88565 6.2801 10.1421 6.39541 10.356C6.88921 11.2718 7.48973 12.1744 8.19164 13.0406L9.25863 11.9736ZM8.47992 16.2878C11.2244 18.8671 14.4396 20.2164 17.1036 20.2315C17.1278 20.2316 17.1521 20.233 17.1762 20.2354C17.9732 20.3175 18.7958 20.0536 19.4048 19.4449C20.4786 18.3715 20.4786 16.6313 19.4048 15.5579C18.3308 14.4844 16.5894 14.4844 15.5155 15.5579C15.0893 15.9839 14.8331 16.513 14.7448 17.0645C14.7065 17.3043 14.5543 17.5108 14.3365 17.6184C14.1188 17.726 13.8624 17.7215 13.6485 17.6063C12.348 16.9056 11.0742 15.99 9.89318 14.8746L10.9543 13.8134C11.7855 14.5945 12.6623 15.265 13.5561 15.8199C13.7631 15.3392 14.0629 14.889 14.455 14.497C16.1147 12.838 18.8055 12.838 20.4652 14.497C22.1251 16.1563 22.1251 18.8465 20.4652 20.5057C19.5331 21.4375 18.2749 21.8456 17.0597 21.7312C13.9344 21.7019 10.373 20.1383 7.41881 17.3489L8.47992 16.2878Z" fill="#292556"/>
<path d="M3 21L21 3" stroke="#292556" stroke-width="1.5" stroke-linecap="round" stroke-linejoin="round"/>
</svg>
