<svg width="24" height="24" viewBox="0 0 24 24" fill="none" xmlns="http://www.w3.org/2000/svg">
<path d="M6.53466 15.8807L2.96582 21.0357L8.12081 17.4669L6.53466 15.8807Z" fill="#292556"/>
<path d="M6.53466 15.8807L5.07303 14.4191C4.38851 13.7346 4.04625 13.3923 4.02195 13.0162C4.01392 12.8919 4.02703 12.7792 4.06333 12.6601C4.17324 12.2996 4.60247 12.034 5.46091 11.503C8.57708 9.5752 10.5391 7.61316 12.4669 4.49699C12.998 3.63855 13.2635 3.20932 13.624 3.09941C13.7431 3.0631 13.8559 3.05 13.9801 3.05803C14.3562 3.08233 14.6985 3.42459 15.383 4.10911L19.8924 8.61851C20.5769 9.30303 20.9192 9.64529 20.9435 10.0214C20.9515 10.1457 20.9384 10.2584 20.9021 10.3775C20.7922 10.738 20.363 11.0036 19.5045 11.5346C16.3884 13.4624 14.4263 15.4244 12.4985 18.5406C11.9675 19.399 11.7019 19.8283 11.3414 19.9382C11.2223 19.9745 11.1096 19.9876 10.9853 19.9796C10.6092 19.9553 10.267 19.613 9.58243 18.9285L8.12081 17.4669M6.53466 15.8807L2.96582 21.0357L8.12081 17.4669M6.53466 15.8807L8.12081 17.4669" stroke="#292556" stroke-width="1.5" stroke-linejoin="round"/>
</svg>
