<svg width="24" height="24" viewBox="0 0 24 24" fill="none" xmlns="http://www.w3.org/2000/svg">
<path d="M12.75 16.75C12.75 17.1642 12.4142 17.5 12 17.5C11.5858 17.5 11.25 17.1642 11.25 16.75C11.25 16.3358 11.5858 16 12 16C12.4142 16 12.75 16.3358 12.75 16.75Z" fill="#292556"/>
<path d="M11.25 13.75C11.25 14.1642 10.9142 14.5 10.5 14.5C10.0858 14.5 9.75 14.1642 9.75 13.75C9.75 13.3358 10.0858 13 10.5 13C10.9142 13 11.25 13.3358 11.25 13.75Z" fill="#292556"/>
<path d="M14.25 13.75C14.25 14.1642 13.9142 14.5 13.5 14.5C13.0858 14.5 12.75 14.1642 12.75 13.75C12.75 13.3358 13.0858 13 13.5 13C13.9142 13 14.25 13.3358 14.25 13.75Z" fill="#292556"/>
<path d="M12.75 9.75C12.75 10.1642 12.4142 10.5 12 10.5C11.5858 10.5 11.25 10.1642 11.25 9.75C11.25 9.33579 11.5858 9 12 9C12.4142 9 12.75 9.33579 12.75 9.75Z" fill="#292556"/>
<path d="M9.5 10.75C9.5 11.1642 9.16421 11.5 8.75 11.5C8.33579 11.5 8 11.1642 8 10.75C8 10.3358 8.33579 10 8.75 10C9.16421 10 9.5 10.3358 9.5 10.75Z" fill="#292556"/>
<path d="M16 10.75C16 11.1642 15.6642 11.5 15.25 11.5C14.8358 11.5 14.5 11.1642 14.5 10.75C14.5 10.3358 14.8358 10 15.25 10C15.6642 10 16 10.3358 16 10.75Z" fill="#292556"/>
<path d="M4.68037 8.49995L8.76465 16.8698C10.0034 19.4083 10.6227 20.6776 11.557 20.8898C11.8486 20.956 12.1514 20.956 12.443 20.8898C13.3773 20.6776 13.9966 19.4083 15.2354 16.8698L19.3196 8.49995M4.68037 8.49995L4.5663 8.25839C4.11438 7.30138 3.88842 6.82287 3.97329 6.35074C3.99975 6.20354 4.05425 6.04579 4.12429 5.91365C4.34895 5.4898 4.79937 5.26419 5.70022 4.81297C10.5263 2.39564 13.4736 2.39571 18.2997 4.81298C19.2006 5.2642 19.651 5.48981 19.8757 5.91366C19.9457 6.0458 20.0002 6.20355 20.0267 6.35075C20.1116 6.82289 19.8856 7.3014 19.4337 8.25842L19.3196 8.49995M4.68037 8.49995C10.5 4.99995 13.5 4.99995 19.3196 8.49995" stroke="#292556" stroke-width="1.5" stroke-linejoin="round"/>
</svg>
