<svg width="24" height="24" viewBox="0 0 24 24" fill="none" xmlns="http://www.w3.org/2000/svg">
<path d="M12.5 7V5.5C12.5 4.11929 11.3807 3 10 3C8.61929 3 7.5 4.11929 7.5 5.5V7H6.6C5.10011 7 4.35016 7 3.82443 7.38197C3.65464 7.50533 3.50533 7.65464 3.38197 7.82443C3 8.35016 3 9.10011 3 10.6V11.5H4.5C5.88071 11.5 7 12.6193 7 14C7 15.3807 5.88071 16.5 4.5 16.5H3V17.4C3 18.8999 3 19.6498 3.38197 20.1756C3.50533 20.3454 3.65464 20.4947 3.82443 20.618C4.35016 21 5.10011 21 6.6 21H7.5L7.5 19.5C7.5 18.1193 8.61929 17 10 17C11.3807 17 12.5 18.1193 12.5 19.5V21H13.4C14.8999 21 15.6498 21 16.1756 20.618C16.3454 20.4947 16.4947 20.3454 16.618 20.1756C17 19.6498 17 18.8999 17 17.4V16.5L18.5 16.5C19.8807 16.5 21 15.3807 21 14C21 12.6193 19.8807 11.5 18.5 11.5H17V10.6C17 9.10011 17 8.35016 16.618 7.82443C16.4947 7.65464 16.3454 7.50533 16.1756 7.38197C15.6498 7 14.8999 7 13.4 7H12.5Z" stroke="#292556" stroke-width="1.5" stroke-linejoin="round"/>
</svg>
