<svg width="24" height="24" viewBox="0 0 24 24" fill="none" xmlns="http://www.w3.org/2000/svg">
<path d="M8 7V7C6.13077 7 5.19615 7 4.5 7.40192C4.04394 7.66523 3.66523 8.04394 3.40192 8.5C3 9.19615 3 10.1308 3 12V15.6C3 17.8498 3 18.9748 3.57295 19.7634C3.75799 20.018 3.98196 20.242 4.23664 20.4271C5.02524 21 6.15016 21 8.4 21H15.6C17.8498 21 18.9748 21 19.7634 20.4271C20.018 20.242 20.242 20.018 20.4271 19.7634C21 18.9748 21 17.8498 21 15.6V12.4C21 10.1502 21 9.02524 20.4271 8.23664C20.242 7.98196 20.018 7.75799 19.7634 7.57295C18.9748 7 17.8498 7 15.6 7H8ZM8 7L15 3M13 14V13.7C13 12.5751 13 12.0126 12.7135 11.6183C12.621 11.491 12.509 11.379 12.3817 11.2865C11.9874 11 11.4249 11 10.3 11H10M13 14V14.3C13 15.4249 13 15.9874 12.7135 16.3817C12.621 16.509 12.509 16.621 12.3817 16.7135C11.9874 17 11.4249 17 10.3 17H10M13 14H7M7 14V14.3C7 15.4249 7 15.9874 7.28647 16.3817C7.37899 16.509 7.49098 16.621 7.61832 16.7135C8.01262 17 8.57508 17 9.7 17H10M7 14V13.7C7 12.5751 7 12.0126 7.28647 11.6183C7.37899 11.491 7.49098 11.379 7.61832 11.2865C8.01262 11 8.57508 11 9.7 11H10M10 17V11" stroke="#292556" stroke-width="1.5" stroke-linecap="round" stroke-linejoin="round"/>
<path d="M17.0001 10.5C17.4142 10.5 17.75 10.8358 17.75 11.25V11.25C17.75 11.6642 17.4142 12 17.0001 12V12C16.5859 12 16.2501 11.664 16.2502 11.2498V11.2498C16.2503 10.8357 16.586 10.5 17.0001 10.5V10.5Z" fill="#292556"/>
<path d="M17.0001 13.25C17.4142 13.25 17.75 13.5858 17.75 14V14C17.75 14.4142 17.4142 14.75 17.0001 14.75V14.75C16.5859 14.75 16.2501 14.414 16.2502 13.9998V13.9998C16.2503 13.5857 16.586 13.25 17.0001 13.25V13.25Z" fill="#292556"/>
<path d="M17.0001 16C17.4142 16 17.75 16.3358 17.75 16.75V16.75C17.75 17.1642 17.4142 17.5 17.0001 17.5V17.5C16.5859 17.5 16.2501 17.164 16.2502 16.7498V16.7498C16.2503 16.3357 16.586 16 17.0001 16V16Z" fill="#292556"/>
</svg>
