<svg width="24" height="24" viewBox="0 0 24 24" fill="none" xmlns="http://www.w3.org/2000/svg">
<path d="M8 15.5H16M10.5732 11.25C10.7497 11.7598 11.2259 12.125 11.7857 12.125H12M13.4268 7.75C13.2503 7.24023 12.7741 6.875 12.2143 6.875H12M12 6.875H11.7857C11.0756 6.875 10.5 7.46263 10.5 8.1875C10.5 8.91237 11.0756 9.5 11.7857 9.5H12.2143C12.9244 9.5 13.5 10.0876 13.5 10.8125C13.5 11.5374 12.9244 12.125 12.2143 12.125H12M12 6.875V6M12 12.125V13M16.1716 19.1716V19.1716C17.1112 20.1112 17.581 20.581 17.9884 20.5857C18.2617 20.5889 18.5243 20.4801 18.7152 20.2847C19 19.9932 19 19.3288 19 18L19 8.4C19 6.15016 19 5.02524 18.4271 4.23664C18.242 3.98196 18.018 3.75799 17.7634 3.57295C16.9748 3 15.8498 3 13.6 3H10.4C8.15016 3 7.02524 3 6.23664 3.57295C5.98196 3.75799 5.75799 3.98196 5.57295 4.23664C5 5.02524 5 6.15016 5 8.4V18C5 19.3288 5 19.9932 5.28477 20.2847C5.47573 20.4801 5.73834 20.5889 6.01156 20.5857C6.41899 20.581 6.8888 20.1112 7.82843 19.1716V19.1716C8.26244 18.7376 8.47944 18.5206 8.73374 18.4503C8.90799 18.4022 9.09201 18.4022 9.26626 18.4503C9.52056 18.5206 9.73756 18.7376 10.1716 19.1716L10.7272 19.7272C11.2575 20.2575 11.5226 20.5226 11.8436 20.5735C11.9472 20.5899 12.0528 20.5899 12.1564 20.5735C12.4774 20.5226 12.7425 20.2575 13.2728 19.7272L13.8284 19.1716C14.2624 18.7376 14.4794 18.5206 14.7337 18.4503C14.908 18.4022 15.092 18.4022 15.2663 18.4503C15.5206 18.5206 15.7376 18.7376 16.1716 19.1716Z" stroke="#292556" stroke-width="1.5" stroke-linecap="round" stroke-linejoin="round"/>
</svg>
