<svg width="24" height="24" viewBox="0 0 24 24" fill="none" xmlns="http://www.w3.org/2000/svg">
<path d="M9.54289 9.04289C9.93342 8.65237 10.5666 8.65237 10.9571 9.04289C11.3476 9.43342 11.3476 10.0666 10.9571 10.4571C10.5666 10.8476 9.93342 10.8476 9.54289 10.4571C9.15237 10.0666 9.15237 9.43342 9.54289 9.04289Z" fill="#292556"/>
<path d="M13.0429 13.5429C13.4334 13.1524 14.0666 13.1524 14.4571 13.5429C14.8476 13.9334 14.8476 14.5666 14.4571 14.9571C14.0666 15.3476 13.4334 15.3476 13.0429 14.9571C12.6524 14.5666 12.6524 13.9334 13.0429 13.5429Z" fill="#292556"/>
<path d="M14 9.50008L9.99999 14.5001M19.9465 13.5222L20.25 13.2857C20.8299 12.8338 21.1199 12.6079 21.217 12.33C21.2917 12.1163 21.2917 11.8837 21.217 11.67C21.1199 11.3921 20.8299 11.1662 20.25 10.7143L19.9465 10.4778C19.6442 10.2422 19.4931 10.1245 19.4066 10.0005C19.1671 9.65683 19.1671 9.20031 19.4066 8.85669C19.4931 8.73268 19.6442 8.61491 19.9465 8.37936V8.37936C20.5609 7.9006 20.8681 7.66122 20.9675 7.47902C21.2491 6.963 21.027 6.31657 20.4877 6.08261C20.2973 6 19.9078 6 19.1289 6L4.87108 6C4.09217 6 3.70271 6 3.51229 6.08261C2.973 6.31656 2.75088 6.963 3.03247 7.47902C3.1319 7.66122 3.4391 7.9006 4.05351 8.37936V8.37936C4.3558 8.61491 4.50694 8.73268 4.59339 8.85668C4.83295 9.20031 4.83295 9.65683 4.59339 10.0005C4.50694 10.1245 4.3558 10.2422 4.05351 10.4778L3.75 10.7143C3.17007 11.1662 2.88011 11.3921 2.78297 11.67C2.70827 11.8837 2.70827 12.1163 2.78297 12.33C2.88011 12.6079 3.17007 12.8338 3.75 13.2857L4.05351 13.5222C4.3558 13.7578 4.50694 13.8755 4.59339 13.9995C4.83295 14.3432 4.83295 14.7997 4.59339 15.1433C4.50694 15.2673 4.3558 15.3851 4.05351 15.6206V15.6206C3.4391 16.0994 3.1319 16.3388 3.03247 16.521C2.75088 17.037 2.973 17.6834 3.51229 17.9174C3.70271 18 4.09217 18 4.87108 18H19.1289C19.9078 18 20.2973 18 20.4877 17.9174C21.027 17.6834 21.2491 17.037 20.9675 16.521C20.8681 16.3388 20.5609 16.0994 19.9465 15.6206V15.6206C19.6442 15.3851 19.4931 15.2673 19.4066 15.1433C19.1671 14.7997 19.1671 14.3432 19.4066 13.9995C19.4931 13.8755 19.6442 13.7578 19.9465 13.5222Z" stroke="#292556" stroke-width="1.5" stroke-linecap="round"/>
</svg>
