<svg width="24" height="24" viewBox="0 0 24 24" fill="none" xmlns="http://www.w3.org/2000/svg">
<path d="M16 18.5V19.8591C16 20.5807 16 20.9414 15.8103 21.0916C15.7512 21.1384 15.6822 21.1712 15.6086 21.1876C15.3725 21.2401 15.0925 21.0126 14.5325 20.5576L12.8597 19.1985C12.509 18.9135 12.3336 18.771 12.3008 18.5884C12.2903 18.5299 12.2903 18.4701 12.3008 18.4116C12.3336 18.229 12.509 18.0865 12.8597 17.8015L14.5325 16.4424C15.0925 15.9874 15.3725 15.7599 15.6086 15.8124C15.6822 15.8288 15.7512 15.8616 15.8103 15.9084C16 16.0586 16 16.4193 16 17.1409V18.5ZM16 18.5H17.1243C17.1572 18.5 17.1737 18.5 17.1848 18.4999C20.1251 18.4824 21.9023 15.2419 20.3366 12.7532C20.3307 12.7437 20.3218 12.7298 20.3042 12.7021V12.7021M16.1575 6.08089L17.3069 5.35564C17.9171 4.97062 18.2222 4.77811 18.4504 4.85842C18.5216 4.88345 18.5861 4.92426 18.6393 4.97778C18.8097 5.14946 18.7667 5.50765 18.6808 6.22404L18.4239 8.364C18.3701 8.81271 18.3431 9.03706 18.2062 9.16227C18.1623 9.20233 18.1117 9.23427 18.0567 9.25659C17.8847 9.32631 17.6706 9.25403 17.2424 9.10947L15.2004 8.42001C14.5167 8.1892 14.1749 8.07379 14.0934 7.84605C14.0679 7.77504 14.0589 7.6992 14.0669 7.62421C14.0927 7.38367 14.3978 7.19116 15.008 6.80614L16.1575 6.08089ZM16.1575 6.08089L16.1603 6.07912L15.3126 4.73851C15.1849 4.53658 15.1211 4.43562 15.0715 4.36466C13.5795 2.2299 10.4192 2.22874 8.92567 4.3624C8.87602 4.43332 8.81211 4.53424 8.68429 4.73608V4.73608M8 18.5V18.5C6.97153 18.5 6.45729 18.5 6.11216 18.4348C3.79748 17.9973 2.45458 15.5592 3.32206 13.3691C3.4514 13.0425 3.72626 12.6079 4.27598 11.7386L4.42269 11.5067M3.46858 9.16361L5.50309 8.4734C5.92997 8.32858 6.14341 8.25617 6.31527 8.32534C6.37028 8.34747 6.42091 8.37922 6.4648 8.41908C6.60193 8.54365 6.62973 8.76731 6.68535 9.21464L6.95357 11.3719C7.04346 12.0948 7.0884 12.4563 6.91735 12.6288C6.86405 12.6826 6.79923 12.7236 6.72779 12.7487C6.49852 12.8291 6.19131 12.6334 5.57688 12.242L3.27415 10.775C2.66954 10.3898 2.36723 10.1972 2.34204 9.95731C2.33418 9.88249 2.34331 9.80687 2.36873 9.73607C2.45026 9.50907 2.7897 9.39392 3.46858 9.16361Z" stroke="#292556" stroke-width="1.5" stroke-linecap="round" stroke-linejoin="round"/>
</svg>
