<svg width="24" height="24" viewBox="0 0 24 24" fill="none" xmlns="http://www.w3.org/2000/svg">
<path d="M12 3C16.9706 3 21 7.02944 21 12C21 15.4146 19.0984 18.3851 16.2965 19.9102M19.832 20.3855H16.2965V19.9102M16.2965 19.9102V16.85M12 21C7.02944 21 3 16.9706 3 12C3 8.5854 4.90157 5.61494 7.7035 4.08982M4.16797 3.61447L7.7035 3.61447V4.08982M7.7035 4.08982L7.7035 7.15M10.75 15C9.75 14.75 9.25 14.25 9 13.25C8.75 14.25 8.25 14.75 7.25 15C8.25 15.25 8.75 15.75 9 16.75C9.25 15.75 9.75 15.25 10.75 15ZM17.5 10C15.5 9.5 14.5 8.5 14 6.5C13.5 8.5 12.5 9.5 10.5 10C12.5 10.5 13.5 11.5 14 13.5C14.5 11.5 15.5 10.5 17.5 10Z" stroke="#292556" stroke-width="1.5" stroke-linecap="round" stroke-linejoin="round"/>
</svg>
