<svg width="24" height="24" viewBox="0 0 24 24" fill="none" xmlns="http://www.w3.org/2000/svg">
<path d="M19 6C19 6.55228 18.5523 7 18 7C17.4477 7 17 6.55228 17 6C17 5.44772 17.4477 5 18 5C18.5523 5 19 5.44772 19 6Z" fill="#292556"/>
<path d="M15.6667 12.75C16.0809 12.75 16.4167 12.4142 16.4167 12C16.4167 11.5858 16.0809 11.25 15.6667 11.25V12.75ZM7 18.25C6.58579 18.25 6.25 18.5858 6.25 19C6.25 19.4142 6.58579 19.75 7 19.75V18.25ZM15.7944 6.51468C15.5108 4.95253 16.6343 3.75 18 3.75V2.25C15.7079 2.25 13.8661 4.29072 14.3185 6.78262L15.7944 6.51468ZM18 3.75C19.3656 3.75 20.4892 4.9525 20.2056 6.51471L21.6815 6.78258C22.1338 4.29075 20.2922 2.25 18 2.25V3.75ZM17.6812 9.27086C17.3097 8.9355 16.8758 8.49657 16.5124 8.00386C16.1445 7.50511 15.8816 6.99507 15.7944 6.51468L14.3185 6.78262C14.4626 7.57606 14.8668 8.29982 15.3052 8.89423C15.7481 9.49469 16.2596 10.0083 16.676 10.3842L17.6812 9.27086ZM20.2056 6.51471C20.1184 6.99509 19.8555 7.50512 19.4877 8.00387C19.1243 8.49658 18.6903 8.93551 18.3189 9.27087L19.3241 10.3842C19.7404 10.0083 20.2519 9.49471 20.6948 8.89424C21.1333 8.29982 21.5375 7.57605 21.6815 6.78258L20.2056 6.51471ZM8.75 12.75H15.6667V11.25H8.75V12.75ZM8.75 16.25H18.25V14.75H8.75V16.25ZM18.25 18.25H7V19.75H18.25V18.25ZM5 20.25C4.30964 20.25 3.75 19.6904 3.75 19H2.25C2.25 20.5188 3.48122 21.75 5 21.75V20.25ZM6.25 19C6.25 19.6904 5.69036 20.25 5 20.25V21.75C6.51878 21.75 7.75 20.5188 7.75 19H6.25ZM5 17.75C5.69036 17.75 6.25 18.3096 6.25 19H7.75C7.75 17.4812 6.51878 16.25 5 16.25V17.75ZM5 16.25C3.48122 16.25 2.25 17.4812 2.25 19H3.75C3.75 18.3096 4.30964 17.75 5 17.75V16.25ZM18.25 16.25C18.8023 16.25 19.25 16.6977 19.25 17.25H20.75C20.75 15.8693 19.6307 14.75 18.25 14.75V16.25ZM6.25 13.75C6.25 15.1307 7.36929 16.25 8.75 16.25V14.75C8.19772 14.75 7.75 14.3023 7.75 13.75H6.25ZM8.75 11.25C7.36929 11.25 6.25 12.3693 6.25 13.75H7.75C7.75 13.1977 8.19772 12.75 8.75 12.75V11.25ZM19.25 17.25C19.25 17.8023 18.8023 18.25 18.25 18.25V19.75C19.6307 19.75 20.75 18.6307 20.75 17.25H19.25ZM16.676 10.3842C17.4339 11.0686 18.5661 11.0686 19.3241 10.3842L18.3189 9.27087C18.1319 9.43968 17.8682 9.43968 17.6812 9.27086L16.676 10.3842Z" fill="#292556"/>
</svg>
