<svg width="24" height="24" viewBox="0 0 24 24" fill="none" xmlns="http://www.w3.org/2000/svg">
<path d="M16 8L14.5 9.5M14.5 9.5L12 12M14.5 9.5L13 8M14.5 9.5L16 11M12 12L9.5 14.5M12 12L10.5 10.5M12 12L13.5 13.5M9.5 14.5L8 16M9.5 14.5L8 13M9.5 14.5L11 16M19 3V3C20.1046 3 21 3.89543 21 5V5C21 6.85748 21 7.78622 20.912 8.5675C20.1806 15.0582 15.0582 20.1806 8.5675 20.912C7.78622 21 6.85748 21 5 21V21C3.89543 21 3 20.1046 3 19V19C3 17.1425 3 16.2138 3.08803 15.4325C3.81935 8.94182 8.94182 3.81935 15.4325 3.08803C16.2138 3 17.1425 3 19 3Z" stroke="#292556" stroke-width="1.5" stroke-linecap="round" stroke-linejoin="round"/>
</svg>
