<svg width="24" height="24" viewBox="0 0 24 24" fill="none" xmlns="http://www.w3.org/2000/svg">
<path d="M7 16.8891L10.5351 20.4242L13.0118 17.9475M13.0118 17.9475L10.8849 15.83M13.0118 17.9475L15.4791 15.4801M17.9512 13.0081L15.829 10.8859M17.9512 13.0081L20.4232 10.5361L16.8875 7M17.9512 13.0081L15.4791 15.4801M15.4791 15.4801L11.9427 11.9437M5.28553 18.7206V18.7206C3.96379 17.3988 3.30291 16.7379 3.09486 15.9615C2.95857 15.4528 2.95857 14.9172 3.09486 14.4086C3.30291 13.6321 3.96379 12.9712 5.28553 11.6495L11.6495 5.28553C12.9712 3.96379 13.6321 3.30291 14.4086 3.09486C14.9172 2.95857 15.4528 2.95857 15.9615 3.09486C16.7379 3.30291 17.3988 3.96379 18.7206 5.28553V5.28553C20.0423 6.60728 20.7032 7.26815 20.9112 8.04461C21.0475 8.55328 21.0475 9.08886 20.9112 9.59753C20.7032 10.374 20.0423 11.0349 18.7206 12.3566L12.3566 18.7206C11.0349 20.0423 10.374 20.7032 9.59753 20.9112C9.08886 21.0475 8.55328 21.0475 8.04461 20.9112C7.26815 20.7032 6.60728 20.0423 5.28553 18.7206Z" stroke="#292556" stroke-width="1.5" stroke-linecap="round" stroke-linejoin="round"/>
</svg>
