<svg width="24" height="24" viewBox="0 0 24 24" fill="none" xmlns="http://www.w3.org/2000/svg">
<path fill-rule="evenodd" clip-rule="evenodd" d="M12 13C13.6569 13 15 11.6569 15 10C15 8.34315 13.6569 7 12 7C10.3431 7 9 8.34315 9 10C9 11.6569 10.3431 13 12 13ZM12.5 9C12.5 8.58579 12.1642 8.25 11.75 8.25C11.3358 8.25 11 8.58579 11 9V10.5C11 10.9142 11.3358 11.25 11.75 11.25H13C13.4142 11.25 13.75 10.9142 13.75 10.5C13.75 10.0858 13.4142 9.75 13 9.75H12.5V9Z" fill="#292556"/>
<path d="M7.5 17.65C7.5 18.025 7.5 18.2125 7.40451 18.3439C7.37367 18.3863 7.33634 18.4237 7.29389 18.4545C7.16246 18.55 6.97497 18.55 6.6 18.55H6.4C6.02503 18.55 5.83754 18.55 5.70611 18.4545C5.66366 18.4237 5.62633 18.3863 5.59549 18.3439C5.5 18.2125 5.5 18.025 5.5 17.65V17.45C5.5 17.075 5.5 16.8875 5.59549 16.7561C5.62633 16.7137 5.66366 16.6763 5.70611 16.6455C5.83754 16.55 6.02503 16.55 6.4 16.55H6.6C6.97497 16.55 7.16246 16.55 7.29389 16.6455C7.33634 16.6763 7.37367 16.7137 7.40451 16.7561C7.5 16.8875 7.5 17.075 7.5 17.45V17.65Z" fill="#292556"/>
<path d="M18.5 17.65C18.5 18.025 18.5 18.2125 18.4045 18.3439C18.3737 18.3863 18.3363 18.4237 18.2939 18.4545C18.1625 18.55 17.975 18.55 17.6 18.55H17.4C17.025 18.55 16.8375 18.55 16.7061 18.4545C16.6637 18.4237 16.6263 18.3863 16.5955 18.3439C16.5 18.2125 16.5 18.025 16.5 17.65V17.45C16.5 17.075 16.5 16.8875 16.5955 16.7561C16.6263 16.7137 16.6637 16.6763 16.7061 16.6455C16.8375 16.55 17.025 16.55 17.4 16.55H17.6C17.975 16.55 18.1625 16.55 18.2939 16.6455C18.3363 16.6763 18.3737 16.7137 18.4045 16.7561C18.5 16.8875 18.5 17.075 18.5 17.45V17.65Z" fill="#292556"/>
<path d="M7.5 14.1C7.5 14.475 7.5 14.6625 7.40451 14.7939C7.37367 14.8363 7.33634 14.8737 7.29389 14.9045C7.16246 15 6.97497 15 6.6 15H6.4C6.02503 15 5.83754 15 5.70611 14.9045C5.66366 14.8737 5.62633 14.8363 5.59549 14.7939C5.5 14.6625 5.5 14.475 5.5 14.1V13.9C5.5 13.525 5.5 13.3375 5.59549 13.2061C5.62633 13.1637 5.66366 13.1263 5.70611 13.0955C5.83754 13 6.02503 13 6.4 13H6.6C6.97497 13 7.16246 13 7.29389 13.0955C7.33634 13.1263 7.37367 13.1637 7.40451 13.2061C7.5 13.3375 7.5 13.525 7.5 13.9V14.1Z" fill="#292556"/>
<path d="M18.5 14.1C18.5 14.475 18.5 14.6625 18.4045 14.7939C18.3737 14.8363 18.3363 14.8737 18.2939 14.9045C18.1625 15 17.975 15 17.6 15H17.4C17.025 15 16.8375 15 16.7061 14.9045C16.6637 14.8737 16.6263 14.8363 16.5955 14.7939C16.5 14.6625 16.5 14.475 16.5 14.1V13.9C16.5 13.525 16.5 13.3375 16.5955 13.2061C16.6263 13.1637 16.6637 13.1263 16.7061 13.0955C16.8375 13 17.025 13 17.4 13H17.6C17.975 13 18.1625 13 18.2939 13.0955C18.3363 13.1263 18.3737 13.1637 18.4045 13.2061C18.5 13.3375 18.5 13.525 18.5 13.9V14.1Z" fill="#292556"/>
<path d="M7.5 10.6C7.5 10.975 7.5 11.1625 7.40451 11.2939C7.37367 11.3363 7.33634 11.3737 7.29389 11.4045C7.16246 11.5 6.97497 11.5 6.6 11.5H6.4C6.02503 11.5 5.83754 11.5 5.70611 11.4045C5.66366 11.3737 5.62633 11.3363 5.59549 11.2939C5.5 11.1625 5.5 10.975 5.5 10.6V10.4C5.5 10.025 5.5 9.83754 5.59549 9.70611C5.62633 9.66366 5.66366 9.62633 5.70611 9.59549C5.83754 9.5 6.02503 9.5 6.4 9.5H6.6C6.97497 9.5 7.16246 9.5 7.29389 9.59549C7.33634 9.62633 7.37367 9.66366 7.40451 9.70611C7.5 9.83754 7.5 10.025 7.5 10.4V10.6Z" fill="#292556"/>
<path d="M18.5 10.6C18.5 10.975 18.5 11.1625 18.4045 11.2939C18.3737 11.3363 18.3363 11.3737 18.2939 11.4045C18.1625 11.5 17.975 11.5 17.6 11.5H17.4C17.025 11.5 16.8375 11.5 16.7061 11.4045C16.6637 11.3737 16.6263 11.3363 16.5955 11.2939C16.5 11.1625 16.5 10.975 16.5 10.6V10.4C16.5 10.025 16.5 9.83754 16.5955 9.70611C16.6263 9.66366 16.6637 9.62633 16.7061 9.59549C16.8375 9.5 17.025 9.5 17.4 9.5H17.6C17.975 9.5 18.1625 9.5 18.2939 9.59549C18.3363 9.62633 18.3737 9.66366 18.4045 9.70611C18.5 9.83754 18.5 10.025 18.5 10.4V10.6Z" fill="#292556"/>
<path d="M9.1 21H6C5.06812 21 4.60217 21 4.23463 20.8478C3.74458 20.6448 3.35523 20.2554 3.15224 19.7654C3 19.3978 3 18.9319 3 18V10.6C3 9.10011 3 8.35016 3.38197 7.82443C3.50533 7.65464 3.65464 7.50533 3.82443 7.38197C4.35016 7 5.10011 7 6.6 7H8L10.7272 4.27279L10.7272 4.27279C11.2575 3.7425 11.5226 3.47735 11.8436 3.42653C11.9472 3.41011 12.0528 3.41011 12.1564 3.42653C12.4774 3.47735 12.7425 3.7425 13.2728 4.27279L16 7H17.4C18.8999 7 19.6498 7 20.1756 7.38197C20.3454 7.50533 20.4947 7.65464 20.618 7.82443C21 8.35016 21 9.10011 21 10.6V18C21 18.9319 21 19.3978 20.8478 19.7654C20.6448 20.2554 20.2554 20.6448 19.7654 20.8478C19.3978 21 18.9319 21 18 21L14.9 21C14.525 21 14.3375 21 14.2061 20.9045C14.1637 20.8737 14.1263 20.8363 14.0955 20.7939C14 20.6625 14 20.475 14 20.1V17.8C14 17.0501 14 16.6751 13.809 16.4122C13.7473 16.3273 13.6727 16.2527 13.5878 16.191C13.3249 16 12.9499 16 12.2 16H11.8C11.0501 16 10.6751 16 10.4122 16.191C10.3273 16.2527 10.2527 16.3273 10.191 16.4122C10 16.6751 10 17.0501 10 17.8V20.1C10 20.475 10 20.6625 9.90451 20.7939C9.87367 20.8363 9.83634 20.8737 9.79389 20.9045C9.66246 21 9.47497 21 9.1 21Z" stroke="#292556" stroke-width="1.5" stroke-linecap="round" stroke-linejoin="round"/>
</svg>
