<svg width="24" height="24" viewBox="0 0 24 24" fill="none" xmlns="http://www.w3.org/2000/svg">
<path d="M3 10.2C3 7.20021 3 5.70032 3.76393 4.64886C4.01065 4.30928 4.30928 4.01065 4.64886 3.76393C5.70032 3 7.20021 3 10.2 3H13.8C16.7998 3 18.2997 3 19.3511 3.76393C19.6907 4.01065 19.9893 4.30928 20.2361 4.64886C21 5.70032 21 7.20021 21 10.2V13.8C21 16.7998 21 18.2997 20.2361 19.3511C19.9893 19.6907 19.6907 19.9893 19.3511 20.2361C18.2997 21 16.7998 21 13.8 21H10.2C7.20021 21 5.70032 21 4.64886 20.2361C4.30928 19.9893 4.01065 19.6907 3.76393 19.3511C3 18.2997 3 16.7998 3 13.8V10.2Z" stroke="#292556" stroke-width="1.5" stroke-linecap="round" stroke-linejoin="round"/>
<path d="M7.40409 10.2627L8.61539 10.4557L8.61523 8.67292C8.61523 6.92057 10.1306 5.5 11.9998 5.5C13.8691 5.5 15.3845 6.92057 15.3845 8.67292L15.3846 10.4557L16.5959 10.2627C17.1087 10.181 17.5996 10.5022 17.73 11.0047C17.8763 11.568 17.5165 12.1377 16.9451 12.2477L15.5 12.526C15.472 14.9639 16.9637 15.5 18.5 15.5C17.4782 17.4105 15.6403 17.5688 14.5 17.5C13 18.8384 11 18.8392 9.5 17.5C8.34864 17.5712 6.48932 17.4176 5.5 15.5C7.03631 15.5 8.52797 14.9639 8.5 12.526L7.05489 12.2477C6.48349 12.1377 6.12373 11.568 6.26995 11.0047C6.40042 10.5022 6.89134 10.181 7.40409 10.2627Z" stroke="#292556" stroke-width="1.5" stroke-linecap="round" stroke-linejoin="round"/>
</svg>
