<svg width="24" height="24" viewBox="0 0 24 24" fill="none" xmlns="http://www.w3.org/2000/svg">
<path d="M5.5 12C9.21429 12.9286 11.0714 14.7857 12 18.5C12.9286 14.7857 14.7857 12.9286 18.5 12C14.7857 11.0714 12.9286 9.21429 12 5.5C11.0714 9.21429 9.21429 11.0714 5.5 12Z" stroke="#292556" stroke-width="1.5" stroke-linejoin="round"/>
<path d="M16 6.25C17 6.5 17.5 7 17.75 8C18 7 18.5 6.5 19.5 6.25C18.5 6 18 5.5 17.75 4.5C17.5 5.5 17 6 16 6.25Z" stroke="#292556" stroke-width="1.5" stroke-linejoin="round"/>
<path d="M8 17.75C7 17.5 6.5 17 6.25 16C6 17 5.5 17.5 4.5 17.75C5.5 18 6 18.5 6.25 19.5C6.5 18.5 7 18 8 17.75Z" stroke="#292556" stroke-width="1.5" stroke-linejoin="round"/>
</svg>
