<svg width="24" height="24" viewBox="0 0 24 24" fill="none" xmlns="http://www.w3.org/2000/svg">
<path d="M12 3L19.639 14.4586C20.5922 15.8883 21.0687 16.6031 20.9602 17.2802C20.9256 17.496 20.851 17.7033 20.7401 17.8916C20.392 18.4824 19.5691 18.7293 17.9232 19.223L16.5 19.65M12 3L4.36095 14.4586C3.40782 15.8883 2.93125 16.6031 3.03978 17.2802C3.07436 17.496 3.14904 17.7033 3.25995 17.8916C3.60804 18.4824 4.43095 18.7293 6.07677 19.223L9 20.1M12 3L9 20.1M9 20.1L11.0949 20.7285C11.4939 20.8482 11.6934 20.908 11.898 20.92C11.966 20.9239 12.034 20.9239 12.102 20.92C12.3066 20.908 12.5061 20.8482 12.9051 20.7285L13.6667 20.5M13.6667 20.5V15.4167C13.6667 14.6343 14.3009 14 15.0833 14V14C15.8657 14 16.5 14.6343 16.5 15.4167V19.65M13.6667 20.5L16.5 19.65" stroke="#292556" stroke-width="1.5" stroke-linejoin="round"/>
</svg>
