<svg width="24" height="24" viewBox="0 0 24 24" fill="none" xmlns="http://www.w3.org/2000/svg">
<path d="M19.0833 8.91667L13.4982 14.5018C13.0188 14.9812 12.7791 15.2209 12.5108 15.4252C12.4215 15.4932 12.3299 15.5581 12.2363 15.6199C11.9549 15.8057 11.6494 15.9527 11.0386 16.2469L8.65703 17.3935C8.16697 17.6295 7.72023 17.9464 7.33563 18.331L4.75 20.9167C4.28976 21.3769 3.54357 21.3769 3.08333 20.9167V20.9167C2.6231 20.4564 2.6231 19.7102 3.08333 19.25L5.66896 16.6644C6.05356 16.2798 6.37051 15.833 6.60647 15.343L7.75314 12.9614C8.04726 12.3506 8.19432 12.0451 8.38006 11.7637C8.44188 11.6701 8.50685 11.5785 8.57484 11.4892C8.77909 11.2209 9.0188 10.9812 9.4982 10.5018L9.75 10.25M19.0833 8.91667L15.0833 4.91667M19.0833 8.91667L19.75 8.25C20.8546 7.14543 20.8546 5.35457 19.75 4.25V4.25C18.6454 3.14543 16.8546 3.14543 15.75 4.25L15.0833 4.91667M15.0833 4.91667L13.0833 6.91667M13.0833 6.91667L14.4167 8.25M13.0833 6.91667L11.4167 8.58333M11.4167 8.58333L12.75 9.91667M11.4167 8.58333L9.75 10.25M9.75 10.25L11.0833 11.5833" stroke="#292556" stroke-width="1.5" stroke-linecap="round" stroke-linejoin="round"/>
</svg>
