<svg width="24" height="24" viewBox="0 0 24 24" fill="none" xmlns="http://www.w3.org/2000/svg">
<path d="M10 6V5C10 3.89543 10.8954 3 12 3V3C13.1046 3 14 3.89543 14 5V12V12.4969C14 12.8925 14 13.0903 14.0492 13.2413C14.0709 13.3077 14.0778 13.3245 14.1096 13.3866C14.1819 13.5281 14.3952 13.7404 14.8218 14.1649C15.5495 14.8893 16 15.8921 16 17C16 19.2091 14.2091 21 12 21C9.79086 21 8 19.2091 8 17C8 15.8921 8.45045 14.8893 9.17821 14.165C9.60477 13.7404 9.81805 13.5281 9.89037 13.3866C9.92216 13.3245 9.92913 13.3077 9.95077 13.2413C10 13.0903 10 12.8925 10 12.4969V12V9M10 6H11.5M10 6V9M10 9H11.5" stroke="#292556" stroke-width="1.5" stroke-linecap="round" stroke-linejoin="round"/>
</svg>
