<svg width="24" height="24" viewBox="0 0 24 24" fill="none" xmlns="http://www.w3.org/2000/svg">
<path d="M5.99993 18.1244V18.8856C5.99993 19.506 5.49692 20.0091 4.87643 20.0091V20.0091C4.25594 20.0091 3.75293 19.506 3.75293 18.8856V10.1265C3.75293 9.50602 4.25594 9.00302 4.87643 9.00302V9.00302C5.49692 9.00302 5.99993 9.50603 5.99993 10.1265V11.0217M5.99993 18.1244L6.74931 18.8306C7.30248 19.3518 7.57907 19.6125 7.91797 19.7975C8.02617 19.8565 8.151 19.9147 8.26586 19.9594C8.6256 20.0997 8.98509 20.1415 9.70407 20.225C10.7567 20.3474 12.0778 20.4796 12.9999 20.4976C13.6935 20.5112 14.51 20.4655 15.2985 20.3972C16.5834 20.286 17.2259 20.2303 17.8252 19.8665C18.0095 19.7547 18.214 19.5959 18.368 19.445C18.8689 18.9544 19.1009 18.291 19.565 16.9644L20.7593 13.5502C21.3844 11.7632 20.1405 9.87067 18.2521 9.73572L16.2679 9.59391C15.595 9.54582 15.117 8.91828 15.2494 8.25681V8.25681C15.6269 6.93685 15.626 5.80164 15.2465 4.61039C15.0231 3.90895 14.339 3.5 13.6177 3.5C13.1126 3.5 12.6322 3.71626 12.4283 4.18885C12.0288 5.11465 11.3545 7.01836 10.3716 8.0236C8.91084 9.51762 7.83786 10.386 5.99993 11.0217M5.99993 18.1244V11.0217" stroke="#292556" stroke-width="1.5" stroke-linecap="round" stroke-linejoin="round"/>
</svg>
