<svg width="24" height="24" viewBox="0 0 24 24" fill="none" xmlns="http://www.w3.org/2000/svg">
<path d="M6.00091 5.87559V5.11445C6.00091 4.49396 5.4979 3.99095 4.87741 3.99095V3.99095C4.25691 3.99095 3.75391 4.49396 3.75391 5.11445V13.8735C3.75391 14.494 4.25691 14.997 4.87741 14.997V14.997C5.4979 14.997 6.00091 14.494 6.00091 13.8735V12.9783M6.00091 5.87559L6.75028 5.16943C7.30346 4.64817 7.58004 4.38753 7.91895 4.20252C8.02715 4.14345 8.15198 4.08534 8.26683 4.04056C8.62658 3.90032 8.98607 3.85854 9.70504 3.77498C10.7577 3.65264 12.0788 3.52041 13.0009 3.50238C13.6944 3.48882 14.5109 3.53455 15.2995 3.60281C16.5844 3.71405 17.2269 3.76967 17.8262 4.13346C18.0105 4.24532 18.215 4.40413 18.369 4.555C18.8698 5.04565 19.1019 5.70897 19.566 7.0356L20.7603 10.4498C21.3854 12.2368 20.1414 14.1293 18.2531 14.2643L16.2689 14.4061C15.596 14.4542 15.118 15.0817 15.2503 15.7432V15.7432C15.6279 17.0631 15.627 18.1984 15.2475 19.3896C15.024 20.0911 14.34 20.5 13.6187 20.5C13.1136 20.5 12.6332 20.2837 12.4293 19.8111C12.0298 18.8853 11.3555 16.9816 10.3726 15.9764C8.91182 14.4824 7.83883 13.614 6.00091 12.9783M6.00091 5.87559V12.9783" stroke="#292556" stroke-width="1.5" stroke-linecap="round" stroke-linejoin="round"/>
</svg>
