<svg width="24" height="24" viewBox="0 0 24 24" fill="none" xmlns="http://www.w3.org/2000/svg">
<path d="M18.0297 5.9807L16.3916 4.34384C15.8031 3.75573 15.5088 3.46168 15.101 3.36218C14.9817 3.33306 14.818 3.31616 14.6952 3.32028C14.2756 3.33436 13.9782 3.52894 13.3832 3.91812C12.2813 4.63891 11.4458 5.47327 10.7243 6.57396C10.3344 7.1689 10.1394 7.46637 10.1251 7.88644C10.121 8.00933 10.1379 8.17335 10.1671 8.29281C10.2667 8.70113 10.5613 8.99551 11.1505 9.58427L12.787 11.2196M9.0153 12.8936L3.6371 18.2678C3.37168 18.533 3.23897 18.6657 3.21353 18.8262C3.20531 18.878 3.20531 18.9309 3.21353 18.9827C3.23897 19.1432 3.37168 19.2759 3.6371 19.5411L4.46092 20.3643C4.72599 20.6292 4.85852 20.7616 5.01891 20.787C5.0707 20.7952 5.12347 20.7952 5.17527 20.787C5.33565 20.7616 5.46818 20.6292 5.73325 20.3643L11.1124 14.9891C11.3117 14.7899 11.4114 14.6904 11.5265 14.6117C11.5647 14.5855 11.6042 14.5611 11.6447 14.5386C11.7666 14.4709 11.9003 14.4264 12.1676 14.3374L14.1042 13.6923C14.3715 13.6033 14.5052 13.5587 14.6271 13.491C14.6676 13.4685 14.7071 13.4442 14.7454 13.418C14.8605 13.3393 14.9601 13.2397 15.1595 13.0406L20.3629 7.84093C20.6283 7.57571 20.761 7.44309 20.7865 7.28255C20.7947 7.23071 20.7947 7.17789 20.7865 7.12605C20.761 6.96551 20.6283 6.8329 20.3629 6.56767L19.5391 5.74445C19.274 5.47958 19.1415 5.34714 18.9811 5.32175C18.9293 5.31355 18.8765 5.31355 18.8247 5.32175C18.6643 5.34714 18.5318 5.47958 18.2667 5.74445L13.0624 10.945C12.8631 11.1442 12.7634 11.2438 12.6483 11.3225C12.61 11.3486 12.5705 11.373 12.53 11.3955C12.4081 11.4632 12.2744 11.5077 12.0071 11.5968L10.0705 12.2418C9.80322 12.3309 9.66956 12.3754 9.54765 12.4431C9.50712 12.4656 9.46766 12.49 9.42939 12.5161C9.31426 12.5948 9.21461 12.6944 9.0153 12.8936Z" stroke="#292556" stroke-width="1.5" stroke-linecap="round" stroke-linejoin="round"/>
</svg>
