<svg width="24" height="24" viewBox="0 0 24 24" fill="none" xmlns="http://www.w3.org/2000/svg">
<path d="M3 12C3 16.9706 7.02944 21 12 21C16.9706 21 21 16.9706 21 12C21 7.02944 16.9706 3 12 3C8.5854 3 5.61494 4.90157 4.08982 7.7035M3.61447 4.16797V7.7035H4.08982M4.08982 7.7035H7.15M10.0975 14.25C10.3329 14.9054 10.9679 15.375 11.7143 15.375H12M13.9025 9.75C13.6671 9.09458 13.0321 8.625 12.2857 8.625H12M12 8.625H11.7143C10.7675 8.625 10 9.38052 10 10.3125C10 11.2445 10.7675 12 11.7143 12H12.2857C13.2325 12 14 12.7555 14 13.6875C14 14.6195 13.2325 15.375 12.2857 15.375H12M12 8.625V7.5M12 15.375V16.5" stroke="#292556" stroke-width="1.5" stroke-linecap="round" stroke-linejoin="round"/>
</svg>
