<svg width="24" height="24" viewBox="0 0 24 24" fill="none" xmlns="http://www.w3.org/2000/svg">
<path d="M12 16L8 14.2222V9.77777M12 16L16 14.2222L16 9.77781M12 16V11.5556M16 9.77781L12 11.5556M16 9.77781L12 8L8 9.77777M8 9.77777L12 11.5556M3 12C3 16.9706 7.02944 21 12 21C16.9706 21 21 16.9706 21 12C21 7.02944 16.9706 3 12 3C8.5854 3 5.61494 4.90157 4.08982 7.7035M3.61447 4.16797V7.7035H4.08982M4.08982 7.7035H7.15" stroke="#292556" stroke-width="1.5" stroke-linecap="round" stroke-linejoin="round"/>
</svg>
