<svg width="24" height="24" viewBox="0 0 24 24" fill="none" xmlns="http://www.w3.org/2000/svg">
<path d="M19 6V14C19 15.8613 19 16.7919 18.7553 17.5451C18.2607 19.0673 17.0673 20.2607 15.5451 20.7553C14.7919 21 13.8613 21 12 21V21C10.1387 21 9.20808 21 8.45492 20.7553C6.93273 20.2607 5.73931 19.0673 5.24472 17.5451C5 16.7919 5 15.8613 5 14V6M19 6H21M19 6H15M5 6H3M5 6H9M9 6V6C9 5.06812 9 4.60218 9.15224 4.23463C9.35523 3.74458 9.74458 3.35523 10.2346 3.15224C10.6022 3 11.0681 3 12 3V3C12.9319 3 13.3978 3 13.7654 3.15224C14.2554 3.35523 14.6448 3.74458 14.8478 4.23463C15 4.60218 15 5.06812 15 6V6M9 6H15M14.25 15.75L12 13.5M12 13.5L9.75 11.25M12 13.5L14.25 11.25M12 13.5L9.75 15.75" stroke="#292556" stroke-width="1.5" stroke-linecap="round" stroke-linejoin="round"/>
</svg>
