<svg width="24" height="24" viewBox="0 0 24 24" fill="none" xmlns="http://www.w3.org/2000/svg">
<path d="M9 17C9 18.1046 8.10457 19 7 19C5.89543 19 5 18.1046 5 17M9 17C9 15.8954 8.10457 15 7 15C5.89543 15 5 15.8954 5 17M9 17H15M5 17V17C3.89543 17 3 16.1046 3 15V8.6C3 7.10011 3 6.35016 3.38197 5.82443C3.50533 5.65464 3.65464 5.50533 3.82443 5.38197C4.35016 5 5.10011 5 6.6 5H8.9C10.3999 5 11.1498 5 11.6756 5.38197C11.8454 5.50533 11.9947 5.65464 12.118 5.82443C12.5 6.35016 12.5 7.10011 12.5 8.6V10V10C12.5 9.06812 12.5 8.60218 12.6522 8.23463C12.8552 7.74458 13.2446 7.35523 13.7346 7.15224C14.1022 7 14.5681 7 15.5 7H16.2751C17.2345 7 17.7142 7 18.121 7.19294C18.2545 7.25626 18.3806 7.33419 18.4969 7.42529C18.8514 7.70286 19.066 8.13192 19.495 8.99003L20.6199 11.2399C20.788 11.576 20.872 11.7441 20.9231 11.9229C20.9401 11.9824 20.9543 12.0426 20.9657 12.1033C21 12.2861 21 12.474 21 12.8498V15C21 16.1046 20.1046 17 19 17V17M19 17C19 18.1046 18.1046 19 17 19C15.8954 19 15 18.1046 15 17M19 17C19 15.8954 18.1046 15 17 15C15.8954 15 15 15.8954 15 17M15 9.5H17L18.25 12H15V9.5Z" stroke="#292556" stroke-width="1.5" stroke-linecap="round" stroke-linejoin="round"/>
</svg>
