<svg width="24" height="24" viewBox="0 0 24 24" fill="none" xmlns="http://www.w3.org/2000/svg">
<path d="M11.1506 18.7058L17.3896 12.4667C18.4502 11.4061 18.9804 10.8759 19.0821 10.234C19.1149 10.0267 19.1149 9.81557 19.0821 9.60828C18.9804 8.96645 18.4502 8.43616 17.3896 7.37558L16.6244 6.61035C15.5638 5.54975 15.0335 5.01946 14.3916 4.9178C14.1844 4.88497 13.9732 4.88497 13.7659 4.9178C13.1241 5.01946 12.5938 5.54975 11.5332 6.61035L5.29421 12.8494M11.1506 18.7058L5.29421 12.8494M11.1506 18.7058L10.9735 19.237C10.6098 20.3282 10.4279 20.8738 10.0372 21.0555C9.91374 21.1129 9.77992 21.1445 9.64387 21.1484C9.21311 21.1606 8.80643 20.7539 7.99309 19.9406L4.0594 16.0069C3.24606 15.1935 2.8394 14.7868 2.85162 14.3561C2.85549 14.22 2.88708 14.0862 2.94446 13.9628C3.12617 13.572 3.67177 13.3902 4.76298 13.0264L5.29421 12.8494M17.007 6.99297V6.99297C17.6104 7.5964 17.9121 7.89812 18.2654 7.93459C18.3788 7.9463 18.4934 7.93853 18.6042 7.9116C18.9493 7.82773 19.2058 7.49026 19.7188 6.81532L20.0888 6.32851C20.4515 5.85124 20.6329 5.61261 20.6673 5.34861C20.6843 5.21778 20.6753 5.08488 20.6407 4.95755C20.571 4.70062 20.3591 4.48867 19.9352 4.06479V4.06479C19.5113 3.64091 19.2994 3.42897 19.0425 3.35924C18.9151 3.32468 18.7822 3.31566 18.6514 3.3327C18.3874 3.36707 18.1488 3.54842 17.6715 3.91113L17.1847 4.2811C16.5097 4.79407 16.1722 5.05055 16.0883 5.39567C16.0614 5.50648 16.0536 5.62107 16.0653 5.7345C16.1018 6.08779 16.4035 6.38952 17.007 6.99297Z" stroke="#292556" stroke-width="1.5" stroke-linejoin="round"/>
</svg>
