<svg width="24" height="24" viewBox="0 0 24 24" fill="none" xmlns="http://www.w3.org/2000/svg">
<path fill-rule="evenodd" clip-rule="evenodd" d="M18.1399 4.25408C18.2185 4.19082 18.2573 4.17153 18.2694 4.16673C18.2936 4.16317 18.3181 4.16317 18.3423 4.16673C18.3543 4.17153 18.3932 4.19082 18.4718 4.25408C18.6055 4.36162 18.7713 4.52601 19.0483 4.80297L19.1964 4.95109C19.4734 5.22805 19.6378 5.3939 19.7453 5.52757C19.8086 5.6062 19.8279 5.64505 19.8327 5.65711C19.8362 5.68127 19.8362 5.70582 19.8327 5.72999C19.8279 5.74204 19.8086 5.78088 19.7453 5.85953C19.6378 5.99321 19.4734 6.15905 19.1964 6.43601L18.1423 7.49009L16.5093 5.85705L17.5634 4.80297C17.8403 4.52601 18.0062 4.36162 18.1399 4.25408ZM18.3381 4.16538C18.338 4.16526 18.3392 4.16553 18.3418 4.16655C18.3394 4.16601 18.3381 4.1655 18.3381 4.16538ZM19.834 5.66134C19.8339 5.66128 19.8334 5.65997 19.8328 5.65758C19.8339 5.6602 19.8341 5.6614 19.834 5.66134ZM19.834 5.72576C19.8341 5.72571 19.8339 5.72691 19.8328 5.72952C19.8334 5.72712 19.8339 5.72581 19.834 5.72576ZM20.2571 7.49667L19.1478 8.60596C20.0579 10.0042 19.8995 11.8948 18.6727 13.1216L12.6313 19.163L12.6091 19.1853L12.609 19.1853C12.0466 19.7478 11.5929 20.2014 11.1959 20.5396C10.7872 20.8878 10.3905 21.1566 9.92819 21.3119C9.15322 21.5723 8.31438 21.5723 7.53942 21.3119C7.0771 21.1566 6.68044 20.8878 6.27171 20.5396C5.87466 20.2014 5.42098 19.7477 4.8585 19.1852L4.83634 19.163L4.81412 19.1408C4.25167 18.5784 3.798 18.1247 3.45978 17.7277C3.1116 17.319 2.84282 16.9223 2.68748 16.46C2.42709 15.685 2.42709 14.8462 2.68748 14.0712C2.84282 13.6089 3.1116 13.2122 3.45978 12.8035C3.798 12.4065 4.25169 11.9528 4.81416 11.3903L4.83635 11.3681L10.8778 5.32672C12.1046 4.09991 13.9952 3.94154 15.3934 4.8516L16.5027 3.74231L16.5277 3.71733C16.7713 3.47366 16.9949 3.25004 17.1996 3.08534C17.4223 2.90618 17.6895 2.73986 18.0321 2.68561C18.2135 2.65688 18.3982 2.65688 18.5796 2.68561C18.9222 2.73986 19.1894 2.90618 19.4121 3.08534C19.6168 3.25004 19.8404 3.47367 20.084 3.71734L20.109 3.74231L20.2571 3.89043L20.2821 3.91544L20.2821 3.91547C20.5258 4.15906 20.7494 4.38263 20.9141 4.58733C21.0932 4.81003 21.2595 5.07723 21.3138 5.41979C21.3425 5.60117 21.3425 5.78593 21.3138 5.96731C21.2595 6.30987 21.0932 6.57707 20.9141 6.79977C20.7494 7.00447 20.5258 7.22804 20.2821 7.47163L20.2821 7.47167L20.2571 7.49667ZM11.9384 6.38738C12.7613 5.56451 14.0954 5.56451 14.9183 6.38738L17.612 9.08108C18.4349 9.90396 18.4349 11.2381 17.612 12.061L11.5706 18.1024C10.9807 18.6922 10.5692 19.103 10.2232 19.3978C9.88368 19.687 9.65584 19.821 9.45043 19.89C8.98545 20.0463 8.48215 20.0463 8.01717 19.89C7.81176 19.821 7.58392 19.687 7.24442 19.3978C6.89844 19.103 6.48686 18.6922 5.897 18.1024C5.30715 17.5125 4.89636 17.101 4.60164 16.755C4.31243 16.4155 4.17838 16.1876 4.10936 15.9822C3.95313 15.5172 3.95313 15.0139 4.10936 14.549C4.17838 14.3436 4.31243 14.1157 4.60164 13.7762C4.89636 13.4302 5.30715 13.0187 5.89701 12.4288L11.9384 6.38738ZM18.2699 4.16655C18.2725 4.16553 18.2737 4.16526 18.2736 4.16538C18.2736 4.1655 18.2723 4.16601 18.2699 4.16655ZM8.12371 16.9995C8.74503 16.9995 9.24871 16.4958 9.24871 15.8745C9.24871 15.2532 8.74503 14.7495 8.12371 14.7495C7.50239 14.7495 6.99871 15.2532 6.99871 15.8745C6.99871 16.4958 7.50239 16.9995 8.12371 16.9995Z" fill="#292556"/>
</svg>
