<svg width="24" height="24" viewBox="0 0 24 24" fill="none" xmlns="http://www.w3.org/2000/svg">
<path fill-rule="evenodd" clip-rule="evenodd" d="M17.25 12C14.7647 12 12.75 14.0147 12.75 16.5C12.75 18.9853 14.7647 21 17.25 21C19.7353 21 21.75 18.9853 21.75 16.5C21.75 14.0147 19.7353 12 17.25 12ZM18.0328 14.0017C17.7576 13.6921 17.2835 13.6643 16.9739 13.9394C16.6644 14.2146 16.6365 14.6887 16.9117 14.9983L17.5799 15.75L15.25 15.75C14.8358 15.75 14.5 16.0858 14.5 16.5C14.5 16.9142 14.8358 17.25 15.25 17.25H17.5799L16.9117 18.0017C16.6365 18.3113 16.6644 18.7854 16.9739 19.0606C17.2835 19.3357 17.7576 19.3079 18.0328 18.9983L19.8106 16.9983C20.0631 16.7141 20.0631 16.2859 19.8106 16.0017L18.0328 14.0017Z" fill="#292556"/>
<path fill-rule="evenodd" clip-rule="evenodd" d="M10.9997 2.25C8.92858 2.25 7.24965 3.92893 7.24965 6C7.24965 8.07107 8.92858 9.75 10.9997 9.75C13.0707 9.75 14.7497 8.07107 14.7497 6C14.7497 3.92893 13.0707 2.25 10.9997 2.25ZM8.74965 6C8.74965 4.75736 9.75701 3.75 10.9997 3.75C12.2423 3.75 13.2497 4.75736 13.2497 6C13.2497 7.24264 12.2423 8.25 10.9997 8.25C9.75701 8.25 8.74965 7.24264 8.74965 6ZM9.50942 11.25C6.47063 11.25 3.71687 13.0396 2.4827 15.8165C1.2425 18.6069 3.2851 21.75 6.33874 21.75H14.343C13.657 21.3694 13.0535 20.8582 12.566 20.25H6.33874C4.37058 20.25 3.05408 18.2242 3.85342 16.4257C4.84684 14.1905 7.06342 12.75 9.50942 12.75H12.4899C12.5151 12.75 12.5404 12.7502 12.5656 12.7505C12.9867 12.2251 13.4942 11.7721 14.0668 11.4131C13.5546 11.3058 13.0267 11.25 12.4899 11.25H9.50942Z" fill="#292556"/>
</svg>
