<svg width="24" height="24" viewBox="0 0 24 24" fill="none" xmlns="http://www.w3.org/2000/svg">
<path d="M19.4745 18.9745C20.1076 18.3412 20.4992 17.4663 20.4992 16.5C20.4992 14.567 18.9323 13 16.9996 13C15.0668 13 13.5 14.567 13.5 16.5C13.5 18.433 15.0668 20 16.9996 20C17.9661 20 18.8412 19.6081 19.4745 18.9745ZM19.4745 18.9745L21 20.5" stroke="#292556" stroke-width="1.5" stroke-linecap="round"/>
<path fill-rule="evenodd" clip-rule="evenodd" d="M10.9997 2.25C8.92858 2.25 7.24965 3.92893 7.24965 6C7.24965 8.07107 8.92858 9.75 10.9997 9.75C13.0707 9.75 14.7497 8.07107 14.7497 6C14.7497 3.92893 13.0707 2.25 10.9997 2.25ZM8.74965 6C8.74965 4.75736 9.75701 3.75 10.9997 3.75C12.2423 3.75 13.2497 4.75736 13.2497 6C13.2497 7.24264 12.2423 8.25 10.9997 8.25C9.75701 8.25 8.74965 7.24264 8.74965 6ZM9.50942 11.25C6.47063 11.25 3.71687 13.0396 2.4827 15.8165C1.2425 18.6069 3.2851 21.75 6.33874 21.75H14.343C13.657 21.3694 13.0535 20.8582 12.566 20.25H6.33874C4.37058 20.25 3.05408 18.2242 3.85342 16.4257C4.84684 14.1905 7.06342 12.75 9.50942 12.75H12.4899C12.5151 12.75 12.5404 12.7502 12.5656 12.7505C12.9867 12.2251 13.4942 11.7721 14.0668 11.4131C13.5546 11.3058 13.0267 11.25 12.4899 11.25H9.50942Z" fill="#292556"/>
</svg>
