<svg width="24" height="24" viewBox="0 0 24 24" fill="none" xmlns="http://www.w3.org/2000/svg">
<path d="M13.6011 13.25H10.3989C8.95593 13.25 7.66435 14.1451 7.1577 15.4961C6.83947 16.3448 7.46681 17.25 8.37314 17.25H15.6269C16.5332 17.25 17.1605 16.3448 16.8423 15.4961C16.3356 14.1451 15.0441 13.25 13.6011 13.25Z" stroke="#292556" stroke-width="1.5" stroke-linejoin="round"/>
<path d="M10.0801 8.75C10.0801 7.64543 10.9755 6.75 12.0801 6.75C13.1846 6.75 14.0801 7.64543 14.0801 8.75C14.0801 9.85457 13.1846 10.75 12.0801 10.75C10.9755 10.75 10.0801 9.85457 10.0801 8.75Z" stroke="#292556" stroke-width="1.5" stroke-linejoin="round"/>
<path d="M13.8 3H10.2C7.20021 3 5.70032 3 4.64886 3.76393C4.30928 4.01065 4.01065 4.30928 3.76393 4.64886C3 5.70032 3 7.20021 3 10.2V13.8C3 16.7998 3 18.2997 3.76393 19.3511C4.01065 19.6907 4.30928 19.9893 4.64886 20.2361C5.70032 21 7.20021 21 10.2 21H13.8C16.7998 21 18.2997 21 19.3511 20.2361C19.6907 19.9893 19.9893 19.6907 20.2361 19.3511C21 18.2997 21 16.7998 21 13.8V10.2C21 7.20021 21 5.70032 20.2361 4.64886C19.9893 4.30928 19.6907 4.01065 19.3511 3.76393C18.2997 3 16.7998 3 13.8 3Z" stroke="#292556" stroke-width="1.5" stroke-linecap="round" stroke-linejoin="round"/>
</svg>
