<svg width="24" height="24" viewBox="0 0 24 24" fill="none" xmlns="http://www.w3.org/2000/svg">
<path d="M13.6011 12.5H10.3989C8.95593 12.5 7.66435 13.3951 7.1577 14.7461C6.83947 15.5948 7.46681 16.5 8.37314 16.5H15.6269C16.5332 16.5 17.1605 15.5948 16.8423 14.7461C16.3356 13.3951 15.0441 12.5 13.6011 12.5Z" stroke="#292556" stroke-width="1.5" stroke-linejoin="round"/>
<path d="M10.0801 8C10.0801 6.89543 10.9755 6 12.0801 6C13.1846 6 14.0801 6.89543 14.0801 8C14.0801 9.10457 13.1846 10 12.0801 10C10.9755 10 10.0801 9.10457 10.0801 8Z" stroke="#292556" stroke-width="1.5" stroke-linejoin="round"/>
<path d="M12 21C16.9706 21 21 16.9706 21 12C21 7.02944 16.9706 3 12 3C7.02944 3 3 7.02944 3 12C3 16.9706 7.02944 21 12 21Z" stroke="#292556" stroke-width="1.5" stroke-linejoin="round"/>
</svg>
