<svg width="24" height="24" viewBox="0 0 24 24" fill="none" xmlns="http://www.w3.org/2000/svg">
<path d="M20.9588 15.1105C20.5518 17.505 17.498 19.5 17.498 19.5C17.498 19.5 14.4218 17.5049 14.0373 15.1107C13.6527 12.7164 16.3444 11.9183 17.498 13.7742C18.6516 11.9182 21.3658 12.7161 20.9588 15.1105Z" stroke="#292556" stroke-width="1.5" stroke-linecap="round" stroke-linejoin="round"/>
<path fill-rule="evenodd" clip-rule="evenodd" d="M10.9997 2.25C8.92858 2.25 7.24965 3.92893 7.24965 6C7.24965 8.07107 8.92858 9.75 10.9997 9.75C13.0707 9.75 14.7497 8.07107 14.7497 6C14.7497 3.92893 13.0707 2.25 10.9997 2.25ZM8.74965 6C8.74965 4.75736 9.75701 3.75 10.9997 3.75C12.2423 3.75 13.2497 4.75736 13.2497 6C13.2497 7.24264 12.2423 8.25 10.9997 8.25C9.75701 8.25 8.74965 7.24264 8.74965 6ZM9.50942 11.25C6.47063 11.25 3.71687 13.0396 2.4827 15.8165C1.2425 18.6069 3.2851 21.75 6.33874 21.75H15.6606C16.0942 21.75 16.5074 21.6866 16.8937 21.5699C16.8595 21.5444 16.8232 21.5169 16.7841 21.4874C16.3875 21.1873 15.8633 20.7658 15.3077 20.25H6.33874C4.37058 20.25 3.05408 18.2242 3.85342 16.4257C4.84684 14.1905 7.06342 12.75 9.50942 12.75H12.3045C12.592 12.1001 13.0613 11.6232 13.6178 11.3329C13.248 11.2782 12.8712 11.25 12.4899 11.25H9.50942Z" fill="#292556"/>
</svg>
