<svg width="24" height="24" viewBox="0 0 24 24" fill="none" xmlns="http://www.w3.org/2000/svg">
<path d="M3.05747 13.0057C4.73872 10.2584 7.46246 8.36279 10.5757 7.70583M5.63455 18.3622L5.63604 18.3637C9.15076 21.8784 14.8492 21.8784 18.364 18.3637C18.6051 18.1225 18.8296 17.8712 19.0377 17.6109M5.63455 18.3622C2.12163 14.8476 2.12182 9.15097 5.6351 5.63667M5.63455 18.3622L5.6345 18.3646M5.63455 18.3622C5.67148 16.4466 6.28607 14.8488 7.36733 13.7335M5.6351 5.63667V5.6383C9.14982 2.12358 14.8492 2.12101 18.364 5.63573C20.1217 7.39344 21.0003 9.6973 21 12.0011M5.6351 5.63667C7.56783 5.6368 9.1586 6.26128 10.2662 7.3689C10.374 7.47668 10.4772 7.58903 10.5757 7.70583M21 12.0011L21.0014 11.9997M21 12.0011C19.6339 13.3666 18.0677 14.0498 16.5014 14.0504C14.9336 14.0511 13.3657 13.3679 11.9985 12.0006M21 12.0011C20.9997 13.9879 20.3456 15.9747 19.0377 17.6109M11.9985 12.0006C10.0498 11.9636 8.46714 12.5989 7.36733 13.7335M11.9985 12.0006C11.9985 10.2557 11.4896 8.78947 10.5757 7.70583M7.36733 13.7335C10.2756 17.1855 14.7813 18.6355 19.0377 17.6109M10.9928 3.05598C14.727 5.3412 16.8877 9.55245 16.5031 14.0499" stroke="#292556" stroke-width="1.5" stroke-linejoin="round"/>
</svg>
