<svg width="24" height="24" viewBox="0 0 24 24" fill="none" xmlns="http://www.w3.org/2000/svg">
<path d="M6.5 8V8C6.03558 8 5.80337 8 5.60842 8.02567C4.26222 8.2029 3.2029 9.26222 3.02567 10.6084C3 10.8034 3 11.0356 3 11.5V12.2205C3 14.4239 3 15.5256 3.32022 16.2218C3.95411 17.6 5.40364 18.4129 6.91014 18.2352C7.67119 18.1454 8.62091 17.565 10.5204 16.4042V16.4042C10.941 16.1471 11.1514 16.0186 11.3674 15.9466C11.778 15.8097 12.222 15.8097 12.6326 15.9466C12.8486 16.0186 13.059 16.1471 13.4796 16.4042V16.4042C15.3791 17.565 16.3288 18.1454 17.0899 18.2352C18.5964 18.4129 20.0459 17.6 20.6798 16.2218C21 15.5256 21 14.4239 21 12.2205V11.5C21 11.0356 21 10.8034 20.9743 10.6084C20.7971 9.26222 19.7378 8.2029 18.3916 8.02567C18.1966 8 17.9644 8 17.5 8V8M6.5 8V8C6.5 6.61929 7.61929 5.5 9 5.5H15C16.3807 5.5 17.5 6.61929 17.5 8V8M6.5 8H17.5M11 10.5H13" stroke="#292556" stroke-width="1.5" stroke-linecap="round" stroke-linejoin="round"/>
</svg>
