<svg width="24" height="24" viewBox="0 0 24 24" fill="none" xmlns="http://www.w3.org/2000/svg">
<path fill-rule="evenodd" clip-rule="evenodd" d="M10 3.40625C6.75323 3.92183 4.2124 5.64006 2.45701 7.48245C2.17128 7.78234 2.18276 8.25708 2.48265 8.5428C2.78253 8.82853 3.25727 8.81705 3.543 8.51716C5.08433 6.89943 7.25708 5.42573 10 4.92813V3.40625ZM10 7.67321C8.02849 8.11873 6.29218 9.18139 4.97673 10.4625C4.67999 10.7515 4.67371 11.2263 4.96271 11.5231C5.2517 11.8198 5.72653 11.8261 6.02327 11.5371C7.1009 10.4876 8.47359 9.63319 10 9.21893V7.67321ZM14 9.21894V7.67321C15.9715 8.11873 17.7078 9.18139 19.0233 10.4625C19.32 10.7515 19.3263 11.2263 19.0373 11.5231C18.7483 11.8198 18.2735 11.8261 17.9767 11.5371C16.8991 10.4876 15.5264 9.63319 14 9.21894ZM10 11.9609C9.05534 12.2665 8.20073 12.7822 7.4865 13.4532C7.1846 13.7368 7.16976 14.2114 7.45336 14.5133C7.73696 14.8152 8.2116 14.83 8.5135 14.5464C8.95115 14.1353 9.45277 13.8014 10 13.5629V11.9609ZM14 13.563V11.9609C14.9447 12.2665 15.7993 12.7822 16.5135 13.4532C16.8154 13.7368 16.8302 14.2114 16.5466 14.5133C16.263 14.8152 15.7884 14.83 15.4865 14.5464C15.0489 14.1353 14.5472 13.8014 14 13.563ZM14 4.92813V3.40625C17.2468 3.92183 19.7876 5.64006 21.543 7.48245C21.8287 7.78234 21.8172 8.25708 21.5174 8.5428C21.2175 8.82853 20.7427 8.81705 20.457 8.51716C18.9157 6.89943 16.7429 5.42573 14 4.92813ZM10.75 17.9998C10.75 17.3095 11.3096 16.7498 12 16.7498C12.6904 16.7498 13.25 17.3095 13.25 17.9998C13.25 18.6902 12.6904 19.2498 12 19.2498C11.3096 19.2498 10.75 18.6902 10.75 17.9998ZM12 15.2498C10.4812 15.2498 9.25 16.481 9.25 17.9998C9.25 19.5186 10.4812 20.7498 12 20.7498C13.5188 20.7498 14.75 19.5186 14.75 17.9998C14.75 16.481 13.5188 15.2498 12 15.2498Z" fill="#292556"/>
<path d="M12 14L12 3" stroke="#292556" stroke-width="1.5" stroke-linecap="round"/>
</svg>
