<?xml version="1.0" encoding="UTF-8"?>
<svg id="Layer_1" data-name="Layer 1" xmlns="http://www.w3.org/2000/svg" viewBox="0 0 971.6 229.4">
  <defs>
    <style>
      .cls-1 {
        fill: #fff;
      }
    </style>
  </defs>
  <rect x="0" width="971.6" height="229.4"/>
  <g>
    <path class="cls-1" d="M103.5,182.4v-38.8h34.2c21.2,0,41.1-10.2,53.5-27.4l5.2-7.2-92.9,25V46.5h106.8c0,8.4-.1,16.9-.2,25.3-5,3.3-23.5,14.6-48.6,11.5-20.4-2.5-33.8-13.2-38.7-17.6,3.3,4.9,10.6,14.5,23.7,21.5,9.4,5,20.1,7.8,31.1,7.8h32.7c0,48.2-39.1,87.4-87.4,87.4h-19.4Z"/>
    <g>
      <path class="cls-1" d="M585.8,131.3h12.9c-3,11.9-9.1,23.1-18.6,32.2l-.2.2c-27.1,26-70,25.4-96.2-1.5-26-27.1-25.6-70.2,1.3-96.4,27.1-26,70-25.4,96.2,1.5.2.2.4.4.6.6,8.2,8.5,13.7,18.6,16.5,29.3h-21.5c-11.5-20.7-32.8-36.9-55.3-38.4-23.5-1.6-40.9,13.9-42.7,37.4-2.4,35.6,29.4,72,64.1,74.1,23.5,1.6,41-13.2,42.8-37,0-.7,0-1.4,0-2.1h0Z"/>
      <path class="cls-1" d="M667.6,154.5v28h-2.3c-18.5,0-34.3-12.2-40.9-29.5v11.3c0,4.6,1.3,9.1,3.6,13l3.2,5.3h-33.5l3.2-5.3c2.4-3.9,3.6-8.4,3.6-13v-99.6c0-4.6-1.3-9.1-3.6-13l-3.2-5.3h16.8s10,0,10,0h0c.2,0,.3,0,.4,0,26.4-.4,42.3,21.9,42.7,49.5.2,26.9-15.5,49.4-40.9,51,6,8,14.6,13.1,24.2,13.1s9.4-1.3,13.5-3.5c.3-.2,3.2-2,3.2-2ZM625,141.9c6.7-.2,9.5-3.7,13.4-10,11.6-18.4,11.2-53.9-.9-71.9-3.5-5.2-6.9-8.3-12.7-8.6,0,0-.2,0-.3,0v90.5c.2,0,.3,0,.5,0Z"/>
      <path class="cls-1" d="M747.2,182.4h-33.5s1.7-2.2,3.2-5.3c1-2,1.5-4,1.7-6.1l-8.1-44.7h-12.8l-9.3,41c-.5,3.3-.1,6.7,1.6,9.6,0,0,0,0,0,0l3.2,5.3h-23.6l3.2-5.3c.6-1,1.2-2.1,1.9-3.7,2-4.6,5.1-14.2,5.9-16.7l18.5-81.3c.8-3.6,1.2-7.2,1.2-10.9s-1.2-8.4-3.6-13c-2.4-4.6-3.2-5.3-3.2-5.3h22.7l20.1,110.5h0s0,.1,0,.2v.4c.5,2.2,2.3,10.5,7.8,19.7,1.1,1.9,3.2,5.3,3.2,5.3ZM708.6,116.5l-3.9-21.4-4.9,21.4h8.8Z"/>
      <path class="cls-1" d="M797.7,46.4v29.2l-5.8-9.6c-3.6-6-10.1-9.7-17.2-9.7h-.2v52.2c3.3-1.2,6.2-3.4,7.9-6.6l5-9.3v43.5l-5-9.3c-1.7-3.2-4.6-5.4-7.9-6.6v43.9c0,4.6,1.3,9.1,3.6,13l3.2,5.3h-33.5l3.2-5.3c2.4-3.9,3.6-8.4,3.6-13v-99.6c0-4.6-1.3-9.1-3.6-13l-3.2-5.3h49.8Z"/>
      <path class="cls-1" d="M868.1,46.5v29.3l-5.8-9.6c-3.6-6-10.1-9.7-17.2-9.7h-.2v107.8c0,4.6,1.3,9.1,3.6,13l3.2,5.3h-33.5l3.2-5.3c2.4-3.9,3.6-8.4,3.6-13V56.5h-.1c-7,0-13.5,3.7-17.2,9.7l-5.8,9.6v-29.3h66.1Z"/>
      <path class="cls-1" d="M344.1,182.2V46.3h38.8l29.1,58.2v-58.2h38.8v135.9h-38.8l-47.1-90.7,18,90.7h-38.8Z"/>
      <path class="cls-1" d="M250.3,139.7l-29.4-92.9h54.5l1.4,46.3h5.3l1.4-46.3h54.5l-15,20.2c-24.7,33.3-32,76.5-19.7,116.1h0s-53.1,0-53.1,0v-43.5Z"/>
    </g>
  </g>
</svg>