<svg width="24" height="24" viewBox="0 0 24 24" fill="none" xmlns="http://www.w3.org/2000/svg">
<path d="M15.1324 9.90964L17.077 7.61155L16.3699 6.90444L14.0718 8.84898M15.1324 9.90964L14.0718 8.84898M15.1324 9.90964L16.7234 11.5006M15.1324 9.90964L13.3835 11.9765M14.0718 8.84898L12.4808 7.25799M14.0718 8.84898L12.0049 10.5979M16.7228 7.25827V7.25827C17.5038 8.03931 18.7702 8.03931 19.5512 7.25827V7.25827C20.3323 6.47722 20.3323 5.21089 19.5512 4.42984V4.42984C18.7702 3.64879 17.5038 3.64879 16.7228 4.42984V4.42984C15.9417 5.21089 15.9417 6.47722 16.7228 7.25827Z" stroke="#292556" stroke-opacity="0.18" stroke-width="1.5" stroke-linecap="round" stroke-linejoin="round"/>
<path d="M12.004 10.5979L8.24785 13.7762C7.80053 14.1547 7.57687 14.3439 7.30318 14.3446C7.22253 14.3448 7.12179 14.3272 7.04596 14.2998C6.78862 14.2066 6.65656 13.9778 6.39243 13.5202C5.10219 11.285 4.672 8.54846 5.40885 5.84375L5.05529 6.1973C4.21393 7.15754 3.58655 8.33397 3.26085 9.67761C2.13413 14.3257 5.04438 19.2146 9.76107 20.5972C12.7221 21.4651 15.6912 20.7449 17.77 18.9385L18.1368 18.5717C15.4321 19.3085 12.6955 18.8783 10.4603 17.5881C10.0027 17.324 9.77396 17.1919 9.68076 16.9346C9.6533 16.8587 9.63575 16.758 9.63594 16.6773C9.63661 16.4036 9.82586 16.18 10.2044 15.7327L13.3826 11.9765" stroke="#292556" stroke-width="1.5" stroke-linecap="round" stroke-linejoin="round"/>
</svg>
