<svg width="24" height="24" viewBox="0 0 24 24" fill="none" xmlns="http://www.w3.org/2000/svg">
<path d="M9.59968 4.99357C8.62807 5.80192 7.9996 7.0889 7.9996 8.53846H16C16 7.0889 15.3715 5.80192 14.3999 4.99357M9.59968 4.99357C10.2682 4.43735 11.0993 4.10776 11.9998 4.10776C12.9003 4.10776 13.7314 4.43735 14.3999 4.99357M9.59968 4.99357L7.7998 3M14.3999 4.99357L16.1998 3" stroke="#292556" stroke-opacity="0.18" stroke-width="1.5" stroke-linecap="round" stroke-linejoin="round"/>
<path d="M5 12.6922V15.4615M19 12.6922V15.4615M9.9 20.9999V17.7692M14.1 20.9999V17.7692M10.95 11.3076H13.05C14.3624 11.3076 15.0186 11.3076 15.4786 11.6418C15.6272 11.7498 15.7578 11.8804 15.8658 12.029C16.2 12.489 16.2 13.1452 16.2 14.4576V14.6192C16.2 15.9316 16.2 16.5878 15.8658 17.0478C15.7578 17.1963 15.6272 17.327 15.4786 17.4349C15.0186 17.7692 14.3624 17.7692 13.05 17.7692H10.95C9.63759 17.7692 8.98139 17.7692 8.52138 17.4349C8.37281 17.327 8.24216 17.1963 8.13422 17.0478C7.8 16.5878 7.8 15.9316 7.8 14.6192V14.4576C7.8 13.1452 7.8 12.489 8.13422 12.029C8.24216 11.8804 8.37281 11.7498 8.52138 11.6418C8.98139 11.3076 9.63759 11.3076 10.95 11.3076Z" stroke="#292556" stroke-width="1.5" stroke-linecap="round" stroke-linejoin="round"/>
</svg>
