<svg width="24" height="24" viewBox="0 0 24 24" fill="none" xmlns="http://www.w3.org/2000/svg">
<path d="M16.2312 3C16.2312 3 14.5309 3.1349 13.2312 4.01042C12.2526 4.66961 12.0044 5.93987 12 7.04169" stroke="#292556" stroke-opacity="0.18" stroke-width="1.5" stroke-linecap="round" stroke-linejoin="round"/>
<path d="M20 13.3912C19.9994 17.024 17.6912 21.5664 14 20.942C13.1764 20.8026 12.8351 20.1772 12 20.1772C11.1649 20.1772 10.8236 20.8026 10 20.942C6.30878 21.5664 4.00063 17.024 4 13.3912C3.99939 9.87485 5.73103 5.83682 9.33333 6.03851C10.3499 6.09543 10.8063 6.97313 11.7688 7.09806C11.8427 7.10765 11.9196 7.11281 12 7.11281C13.1269 7.11281 13.5721 6.0998 14.6667 6.03851C18.269 5.83682 20.0006 9.87485 20 13.3912Z" stroke="#292556" stroke-width="1.5" stroke-linecap="round" stroke-linejoin="round"/>
</svg>
