<svg width="24" height="24" viewBox="0 0 24 24" fill="none" xmlns="http://www.w3.org/2000/svg">
<path d="M7.5 15.3633L6.49933 16.617C5.16201 18.2925 4.49336 19.1303 4.65396 19.8347C4.70406 20.0545 4.80303 20.2601 4.94353 20.4364C5.39392 21.0013 6.4658 21.0013 8.60958 21.0013H15.3902C17.5341 21.0013 18.606 21.0013 19.0564 20.4363C19.1969 20.2601 19.2959 20.0545 19.3459 19.8347C19.5065 19.1303 18.8378 18.2925 17.5004 16.617L16.5 15.3636" stroke="#292556" stroke-opacity="0.18" stroke-width="1.5" stroke-linecap="round" stroke-linejoin="round"/>
<path d="M19 10C19 12.1526 18.0284 14.0782 16.4998 15.3623C15.2831 16.3844 13.7134 17 12 17C10.2864 17 8.71662 16.3843 7.49983 15.362C5.97145 14.0779 5 12.1524 5 10C5 6.13401 8.13401 3 12 3C15.866 3 19 6.13401 19 10Z" stroke="#292556" stroke-width="1.5" stroke-linejoin="round"/>
</svg>
