<svg width="24" height="24" viewBox="0 0 24 24" fill="none" xmlns="http://www.w3.org/2000/svg">
<path d="M17 8.1V8C17 5.23858 14.7614 3 12 3V3C9.23858 3 7 5.23858 7 8V8" stroke="#292556" stroke-opacity="0.18" stroke-width="1.5" stroke-linecap="round" stroke-linejoin="round"/>
<path d="M3.48606 15.7275C3.06895 13.5585 2.8604 12.4741 3.0387 11.6003C3.33807 10.1332 4.34752 8.91114 5.73164 8.34011C6.55604 8 7.66039 8 9.8691 8H14.1309C16.3396 8 17.444 8 18.2684 8.34011C19.6525 8.91114 20.6619 10.1332 20.9613 11.6003C21.1396 12.4741 20.931 13.5585 20.5139 15.7275V15.7275C20.2183 17.2646 20.0705 18.0332 19.7389 18.6449C19.1836 19.669 18.2527 20.4379 17.1422 20.7898C16.4788 21 15.6962 21 14.1309 21H9.8691C8.30383 21 7.5212 21 6.85783 20.7898C5.74725 20.4379 4.81643 19.669 4.26114 18.6449C3.92945 18.0332 3.78166 17.2646 3.48606 15.7275V15.7275Z" stroke="#292556" stroke-width="1.5" stroke-linecap="round" stroke-linejoin="round"/>
</svg>
