<svg width="24" height="24" viewBox="0 0 24 24" fill="none" xmlns="http://www.w3.org/2000/svg">
<path d="M7.58007 15.7121C7.38481 15.9073 7.06823 15.9073 6.87297 15.7121C6.6777 15.5168 6.6777 15.2002 6.87297 15.005C7.06823 14.8097 7.38481 14.8097 7.58007 15.005C7.77534 15.2002 7.77534 15.5168 7.58007 15.7121Z" fill="#292556" fill-opacity="0.18"/>
<path d="M8.99414 17.1261C8.79887 17.3214 8.48229 17.3214 8.28703 17.1261C8.09177 16.9309 8.09177 16.6143 8.28703 16.419C8.48229 16.2238 8.79887 16.2238 8.99414 16.419C9.1894 16.6143 9.1894 16.9309 8.99414 17.1261Z" fill="#292556" fill-opacity="0.18"/>
<path d="M6.16601 17.1261C5.97075 17.3214 5.65417 17.3214 5.4589 17.1261C5.26364 16.9309 5.26364 16.6143 5.4589 16.419C5.65417 16.2238 5.97075 16.2238 6.16601 16.419C6.36127 16.6143 6.36127 16.9309 6.16601 17.1261Z" fill="#292556" fill-opacity="0.18"/>
<path d="M7.58007 18.5402C7.38481 18.7355 7.06823 18.7355 6.87297 18.5402C6.6777 18.3449 6.6777 18.0283 6.87297 17.8331C7.06823 17.6378 7.38481 17.6378 7.58007 17.8331C7.77533 18.0283 7.77534 18.3449 7.58007 18.5402Z" fill="#292556" fill-opacity="0.18"/>
<path d="M17.126 6.16613C16.9308 6.36139 16.6142 6.36139 16.4189 6.16613C16.2236 5.97087 16.2236 5.65428 16.4189 5.45902C16.6142 5.26376 16.9308 5.26376 17.126 5.45902C17.3213 5.65428 17.3213 5.97087 17.126 6.16613Z" fill="#292556" fill-opacity="0.18"/>
<path d="M18.5401 7.58019C18.3448 7.77545 18.0282 7.77545 17.833 7.58019C17.6377 7.38493 17.6377 7.06835 17.833 6.87308C18.0282 6.67782 18.3448 6.67782 18.5401 6.87308C18.7353 7.06835 18.7353 7.38493 18.5401 7.58019Z" fill="#292556" fill-opacity="0.18"/>
<path d="M15.712 7.58019C15.5167 7.77545 15.2001 7.77545 15.0048 7.58019C14.8096 7.38493 14.8096 7.06835 15.0048 6.87308C15.2001 6.67782 15.5167 6.67782 15.712 6.87308C15.9072 7.06835 15.9072 7.38493 15.712 7.58019Z" fill="#292556" fill-opacity="0.18"/>
<path d="M17.126 8.99425C16.9308 9.18952 16.6142 9.18952 16.4189 8.99425C16.2236 8.79899 16.2236 8.48241 16.4189 8.28715C16.6142 8.09189 16.9308 8.09188 17.126 8.28715C17.3213 8.48241 17.3213 8.79899 17.126 8.99425Z" fill="#292556" fill-opacity="0.18"/>
<path d="M13.7682 4.22005C15.428 2.56032 18.1189 2.56032 19.7786 4.22005V4.22005C21.4384 5.87978 21.4384 8.57073 19.7786 10.2305L10.2327 19.7764C8.57297 21.4361 5.88202 21.4361 4.22229 19.7764V19.7764C2.56256 18.1167 2.56256 15.4257 4.22229 13.766L13.7682 4.22005Z" stroke="#292556" stroke-width="1.5" stroke-linejoin="round"/>
<path d="M12.0005 9.52335C12.6839 8.83993 13.7919 8.83993 14.4753 9.52335V9.52335C15.1588 10.2068 15.1588 11.3148 14.4753 11.9982L12.0005 14.4731C11.317 15.1565 10.209 15.1565 9.52559 14.4731V14.4731C8.84218 13.7897 8.84218 12.6816 9.52559 11.9982L12.0005 9.52335Z" stroke="#292556" stroke-width="1.5" stroke-linejoin="round"/>
</svg>
