<svg width="24" height="24" viewBox="0 0 24 24" fill="none" xmlns="http://www.w3.org/2000/svg">
<path d="M3 12C3 9.66111 3 8.49167 3.53647 7.63789C3.81621 7.19267 4.19267 6.81621 4.63789 6.53647C5.49167 6 6.66111 6 9 6H12.5C14.8389 6 16.0083 6 16.8621 6.53647C17.3073 6.81621 17.6838 7.19267 17.9635 7.63789C18.5 8.49167 18.5 9.66111 18.5 12V12C18.5 14.3389 18.5 15.5083 17.9635 16.3621C17.6838 16.8073 17.3073 17.1838 16.8621 17.4635C16.0083 18 14.8389 18 12.5 18H9C6.66111 18 5.49167 18 4.63789 17.4635C4.19267 17.1838 3.81621 16.8073 3.53647 16.3621C3 15.5083 3 14.3389 3 12V12Z" stroke="#292556" stroke-width="1.5" stroke-linecap="round" stroke-linejoin="round"/>
<path d="M21 11V13M10.75 14V10M7 10V14" stroke="#292556" stroke-opacity="0.18" stroke-width="1.5" stroke-linecap="round" stroke-linejoin="round"/>
</svg>
