<svg width="24" height="24" viewBox="0 0 24 24" fill="none" xmlns="http://www.w3.org/2000/svg">
<path d="M3 12C3 9.66111 3 8.49167 3.53647 7.63789C3.81621 7.19267 4.19267 6.81621 4.63789 6.53647C5.49167 6 6.66111 6 9 6H12.5C14.8389 6 16.0083 6 16.8621 6.53647C17.3073 6.81621 17.6838 7.19267 17.9635 7.63789C18.5 8.49167 18.5 9.66111 18.5 12V12C18.5 14.3389 18.5 15.5083 17.9635 16.3621C17.6838 16.8073 17.3073 17.1838 16.8621 17.4635C16.0083 18 14.8389 18 12.5 18H9C6.66111 18 5.49167 18 4.63789 17.4635C4.19267 17.1838 3.81621 16.8073 3.53647 16.3621C3 15.5083 3 14.3389 3 12V12Z" stroke="#292556" stroke-width="1.5" stroke-linecap="round" stroke-linejoin="round"/>
<path d="M21.75 11C21.75 10.5858 21.4142 10.25 21 10.25C20.5858 10.25 20.25 10.5858 20.25 11H21.75ZM20.25 13C20.25 13.4142 20.5858 13.75 21 13.75C21.4142 13.75 21.75 13.4142 21.75 13H20.25ZM10 14C10 14.4142 10.3358 14.75 10.75 14.75C11.1642 14.75 11.5 14.4142 11.5 14H10ZM11.5 10C11.5 9.58579 11.1642 9.25 10.75 9.25C10.3358 9.25 10 9.58579 10 10H11.5ZM7.75 10C7.75 9.58579 7.41421 9.25 7 9.25C6.58579 9.25 6.25 9.58579 6.25 10H7.75ZM6.25 14C6.25 14.4142 6.58579 14.75 7 14.75C7.41421 14.75 7.75 14.4142 7.75 14H6.25ZM13.75 14C13.75 14.4142 14.0858 14.75 14.5 14.75C14.9142 14.75 15.25 14.4142 15.25 14H13.75ZM15.25 10C15.25 9.58579 14.9142 9.25 14.5 9.25C14.0858 9.25 13.75 9.58579 13.75 10H15.25ZM20.25 11V13H21.75V11H20.25ZM11.5 14V10H10V14H11.5ZM6.25 10V14H7.75V10H6.25ZM15.25 14V10H13.75V14H15.25Z" fill="#292556" fill-opacity="0.18"/>
</svg>
