<svg width="24" height="24" viewBox="0 0 24 24" fill="none" xmlns="http://www.w3.org/2000/svg">
<path fill-rule="evenodd" clip-rule="evenodd" d="M15.8427 5.38954C15.6715 5.36016 15.4942 5.33746 15.3102 5.31962C14.5825 5.24904 13.6752 5.24905 12.5389 5.24905H12.4998H8.99983H8.96077H8.96076C7.82444 5.24905 6.91719 5.24904 6.18946 5.31962C5.44186 5.39212 4.80505 5.54461 4.23869 5.90048C3.69807 6.24017 3.24094 6.6973 2.90125 7.23792C2.54538 7.80428 2.39289 8.44109 2.32039 9.18868C2.24981 9.91641 2.24982 10.8237 2.24982 11.96V11.96V11.9991V12.0381V12.0381C2.24982 13.1744 2.24981 14.0817 2.32039 14.8094C2.39289 15.557 2.54538 16.1938 2.90125 16.7602C3.10055 17.0774 3.34028 17.3658 3.61359 17.6187L4.67549 16.5568C4.48062 16.384 4.3107 16.1839 4.17133 15.9621C3.99074 15.6747 3.87499 15.2999 3.81338 14.6646C3.75065 14.0178 3.74983 13.1833 3.74983 11.9991C3.74983 10.8148 3.75065 9.98032 3.81338 9.33348C3.87499 8.69818 3.99074 8.32339 4.17133 8.03597C4.39113 7.68616 4.68693 7.39036 5.03674 7.17056C5.32416 6.98997 5.69895 6.87422 6.33425 6.81261C6.98109 6.74988 7.81555 6.74905 8.99983 6.74905H12.4998C13.2961 6.74905 13.9342 6.74943 14.4635 6.76874L15.8427 5.38954ZM7.52596 17.2419C7.94935 17.2489 8.43477 17.2491 8.99983 17.2491H12.4998C13.6841 17.2491 14.5186 17.2482 15.1654 17.1855C15.8007 17.1239 16.1755 17.0081 16.4629 16.8275C16.8127 16.6077 17.1085 16.312 17.3283 15.9621C17.5089 15.6747 17.6247 15.2999 17.6863 14.6646C17.749 14.0178 17.7498 13.1833 17.7498 11.9991C17.7498 10.8148 17.749 9.98032 17.6863 9.33348C17.6247 8.69818 17.5089 8.32339 17.3283 8.03597C17.2524 7.9151 17.1674 7.80069 17.0742 7.69363L18.1365 6.63133C18.3078 6.81871 18.4625 7.02163 18.5984 7.23792C18.9543 7.80428 19.1068 8.44109 19.1793 9.18868C19.2498 9.91641 19.2498 10.8237 19.2498 11.96V11.9991V12.0381C19.2498 13.1744 19.2498 14.0817 19.1793 14.8094C19.1068 15.557 18.9543 16.1938 18.5984 16.7602C18.2587 17.3008 17.8016 17.7579 17.261 18.0976C16.6946 18.4535 16.0578 18.606 15.3102 18.6785C14.5825 18.7491 13.6752 18.7491 12.5389 18.7491H12.4998H8.99983H8.96079C7.82446 18.7491 6.91719 18.7491 6.18946 18.6785C6.15898 18.6755 6.1287 18.6725 6.09859 18.6692L7.52596 17.2419Z" fill="#292556"/>
<path d="M3 21L21 3" stroke="#292556" stroke-width="1.5" stroke-linecap="round" stroke-linejoin="round"/>
<path d="M21 11V13" stroke="#292556" stroke-opacity="0.18" stroke-width="1.5" stroke-linecap="round"/>
</svg>
