<svg width="24" height="24" viewBox="0 0 24 24" fill="none" xmlns="http://www.w3.org/2000/svg">
<path d="M13.999 19V18.5H9.99902V19C9.99902 20.1046 10.8945 21 11.999 21C13.1036 21 13.999 20.1046 13.999 19Z" stroke="#292556" stroke-opacity="0.18" stroke-width="1.5" stroke-linejoin="round"/>
<path d="M10 6L9.9998 5.0002C9.99958 3.89558 10.895 3 11.9996 3V3C13.1041 3 13.9994 3.89534 13.9994 4.9998V6M13.9994 18.5H17.4333C19.0267 18.5 19.8833 16.6282 18.8418 15.4224L18.1296 14.5978C17.2486 13.5777 16.8256 12.2404 16.9598 10.8992V10.8992C17.249 8.00848 14.979 5.5 12.0738 5.5H11.9264C9.02099 5.5 6.7507 8.00849 7.03964 10.8995V10.8995C7.17366 12.2405 6.7507 13.5777 5.86986 14.5977L5.15791 15.4221C4.11645 16.6282 4.9732 18.5 6.56666 18.5H9.9994H13.9994Z" stroke="#292556" stroke-width="1.5" stroke-linejoin="round"/>
</svg>
