<svg width="24" height="24" viewBox="0 0 24 24" fill="none" xmlns="http://www.w3.org/2000/svg">
<path d="M10.0001 8.29091C10.608 8.00834 11.2856 7.85059 12.0001 7.85059C12.7146 7.85059 13.3923 8.00834 14.0001 8.29091M16.7038 13.271C16.6097 13.9347 16.3728 14.5889 15.9837 15.1881C15.5945 15.7873 15.0931 16.2697 14.525 16.6256M9.46871 16.6215C8.90122 16.2647 8.4006 15.7815 8.0124 15.1817C7.6242 14.5819 7.38846 13.9272 7.29541 13.2634" stroke="#292556" stroke-opacity="0.18" stroke-width="1.5" stroke-linecap="round" stroke-linejoin="round"/>
<path d="M9.08417 3.62012C7.96797 4.48927 7.25 5.84585 7.25 7.37012C7.25 9.54476 8.71136 11.3781 10.7056 11.9416M14.9158 3.62012C16.032 4.48927 16.75 5.84585 16.75 7.37012C16.75 9.54476 15.2886 11.3781 13.2944 11.9416M6.66015 20.3336C8.06401 20.5083 9.53094 20.0567 10.6088 18.9789C11.9062 17.6815 12.2961 15.8203 11.7787 14.1839M2.53655 16.21C2.36186 14.8061 2.81342 13.3392 3.89124 12.2614C5.73523 10.4174 8.71813 10.4064 10.5756 12.2285M17.3398 20.3336C15.936 20.5083 14.4691 20.0567 13.3912 18.9789C12.0938 17.6815 11.7039 15.8203 12.2213 14.1839M21.4635 16.21C21.6381 14.8061 21.1866 13.3392 20.1088 12.2614C18.2648 10.4174 15.2819 10.4064 13.4244 12.2285M10.7056 11.9416C10.9662 11.498 11.4483 11.2001 12 11.2001C12.5517 11.2001 13.0338 11.498 13.2944 11.9416M10.7056 11.9416C10.6527 12.0317 10.609 12.1277 10.5756 12.2285M13.2944 11.9416C13.3473 12.0317 13.391 12.1277 13.4244 12.2285M11.7787 14.1839C11.8509 14.1946 11.9248 14.2001 12 14.2001C12.0752 14.2001 12.1491 14.1946 12.2213 14.1839M11.7787 14.1839C11.0552 14.0769 10.5 13.4534 10.5 12.7001C10.5 12.5354 10.5266 12.3768 10.5756 12.2285M12.2213 14.1839C12.9448 14.0769 13.5 13.4534 13.5 12.7001C13.5 12.5354 13.4734 12.3768 13.4244 12.2285" stroke="#292556" stroke-width="1.5" stroke-linecap="round" stroke-linejoin="round"/>
</svg>
