<svg width="24" height="24" viewBox="0 0 24 24" fill="none" xmlns="http://www.w3.org/2000/svg">
<path d="M15.0283 4.5L15.6689 4.05978C16.7184 3.33854 17.2432 2.97791 17.5064 3.10848C17.5862 3.14806 17.654 3.20823 17.7027 3.28278C17.8635 3.5287 17.5675 4.09244 16.9755 5.21992L14.6317 9.68363C14.4122 10.1016 14.3025 10.3105 14.3491 10.4958C14.3639 10.555 14.3895 10.6109 14.4245 10.6608C14.5342 10.8173 14.764 10.871 15.2237 10.9784L18.8676 11.8301C19.6652 12.0165 20.064 12.1097 20.1627 12.3453C20.1932 12.4183 20.2061 12.4974 20.2001 12.5763C20.1807 12.831 19.8316 13.0452 19.1334 13.4736L17.9999 14.169" stroke="#292556" stroke-opacity="0.18" stroke-width="1.5" stroke-linecap="round" stroke-linejoin="round"/>
<path d="M15.0284 4.5L4.86666 11.4833C4.17159 11.961 3.82406 12.1998 3.82027 12.4582C3.8191 12.5381 3.83709 12.6171 3.87272 12.6886C3.988 12.9199 4.40468 12.9847 5.23802 13.1144L8.57395 13.6334C9.089 13.7136 9.34653 13.7536 9.46861 13.9163C9.50737 13.968 9.53577 14.0266 9.55221 14.0891C9.60399 14.2858 9.47558 14.5126 9.21875 14.9662L6.95378 18.9663C6.34918 20.034 6.04688 20.5679 6.19638 20.8177C6.24177 20.8936 6.30646 20.956 6.38385 20.9987C6.63874 21.1394 7.16169 20.8185 8.20759 20.1769L18 14.169" stroke="#292556" stroke-width="1.5" stroke-linecap="round" stroke-linejoin="round"/>
</svg>
