<svg width="24" height="24" viewBox="0 0 24 24" fill="none" xmlns="http://www.w3.org/2000/svg">
<path d="M15.0283 4.5L17.1675 3.02989C17.6923 2.66927 17.9547 2.48896 18.0863 2.55424C18.1262 2.57403 18.1601 2.60412 18.1844 2.64139C18.2648 2.76435 18.1168 3.04622 17.8208 3.60996L14.3612 10.1986C14.2515 10.4076 14.1967 10.5121 14.2199 10.6047C14.2274 10.6343 14.2402 10.6623 14.2577 10.6872C14.3125 10.7655 14.4274 10.7923 14.6572 10.846L19.9338 12.0792C20.3326 12.1725 20.532 12.2191 20.5813 12.3369C20.5966 12.3734 20.603 12.4129 20.6 12.4524C20.5903 12.5797 20.4158 12.6868 20.0667 12.901L17.9999 14.169" stroke="#292556" stroke-opacity="0.18" stroke-width="1.5" stroke-linecap="round" stroke-linejoin="round"/>
<path fill-rule="evenodd" clip-rule="evenodd" d="M7.79387 8.56177L3.5086 11.5067L3.48225 11.5248L3.48224 11.5248C3.332 11.628 3.17007 11.7392 3.04966 11.844C2.9481 11.9324 2.66634 12.1862 2.66026 12.6013C2.65792 12.761 2.69389 12.919 2.76516 13.062C2.95035 13.4335 3.31418 13.5403 3.44401 13.576C3.59791 13.6184 3.79199 13.6485 3.97206 13.6765L3.97214 13.6765L4.00375 13.6814L8.67304 14.4079L5.44229 20.1137L5.42503 20.1441C5.28885 20.3846 5.16011 20.6119 5.07878 20.7949C5.03622 20.8907 4.98505 21.0207 4.96131 21.1649C4.93715 21.3117 4.92877 21.5536 5.07269 21.7941C5.16347 21.9458 5.29285 22.0707 5.44762 22.1561C5.693 22.2915 5.93444 22.2746 6.08035 22.2453C6.22366 22.2166 6.3517 22.1609 6.44594 22.115C6.62605 22.0273 6.84869 21.8906 7.08422 21.7461L7.08424 21.7461L7.11405 21.7278L15.6952 16.4631L14.6045 15.3724L7.32017 19.8415L10.1921 14.7695L10.2038 14.7489L10.2038 14.7489C10.2571 14.6548 10.3258 14.5337 10.3726 14.422C10.4257 14.295 10.5065 14.0556 10.4315 13.7704C10.3986 13.6455 10.3418 13.5281 10.2643 13.4248C10.0873 13.189 9.84934 13.1038 9.71683 13.0666C9.60017 13.0339 9.46265 13.0126 9.35571 12.9961L9.33237 12.9925L4.98038 12.3153L8.8726 9.6405L7.79387 8.56177ZM16.7957 14.0281L17.8864 15.1187L18.3923 14.8083C18.7453 14.5917 18.8559 14.1299 18.6393 13.7769C18.4227 13.4238 17.9609 13.3132 17.6078 13.5298L16.7957 14.0281ZM10.9681 8.20045L9.88935 7.12171L14.6037 3.88196C14.945 3.64736 15.412 3.73392 15.6466 4.07529C15.8811 4.41667 15.7946 4.88358 15.4532 5.11818L10.9681 8.20045ZM3.83238 12.1269L3.83522 12.1278C3.83326 12.1272 3.83235 12.1269 3.83238 12.1269ZM4.02926 12.9801L4.02712 12.9822C4.02708 12.9822 4.02776 12.9815 4.02926 12.9801Z" fill="#292556"/>
<path d="M21 21L3 3" stroke="#292556" stroke-width="1.5" stroke-linecap="round" stroke-linejoin="round"/>
</svg>
