<svg width="24" height="24" viewBox="0 0 24 24" fill="none" xmlns="http://www.w3.org/2000/svg">
<path d="M17.3283 5.5C17.3667 6.18583 17.124 6.88446 16.6 7.40839C17.5763 6.43208 19.1592 6.43208 20.1356 7.40839C21.1119 8.3847 21.1119 9.96762 20.1356 10.9439C19.1592 11.9202 17.5763 11.9202 16.6 10.9439L15.5439 12" stroke="#292556" stroke-opacity="0.18" stroke-width="1.5" stroke-linecap="round" stroke-linejoin="round"/>
<path d="M17.3281 5.5C17.2949 4.90784 17.0522 4.32523 16.5998 3.87286C15.6235 2.89655 14.0406 2.89655 13.0643 3.87286C12.088 4.84917 12.088 6.43208 13.0643 7.40839L7.40742 13.0652C6.4311 12.0889 4.84819 12.0889 3.87188 13.0652C2.89557 14.0416 2.89557 15.6245 3.87188 16.6008C4.84819 17.5771 6.4311 17.5771 7.40742 16.6008C6.4311 17.5771 6.4311 19.16 7.40742 20.1363C8.38373 21.1126 9.96664 21.1126 10.9429 20.1363C11.9193 19.16 11.9193 17.5771 10.9429 16.6008L15.5437 12" stroke="#292556" stroke-width="1.5" stroke-linecap="round" stroke-linejoin="round"/>
</svg>
