<svg width="24" height="24" viewBox="0 0 24 24" fill="none" xmlns="http://www.w3.org/2000/svg">
<path d="M9.62842 8.04688L11.6022 8.70481C11.7449 8.75236 11.8162 8.77613 11.8816 8.80321C12.4213 9.02663 12.8363 9.47484 13.0177 10.0301C13.0397 10.0974 13.0579 10.1703 13.0944 10.3162V10.3162C13.1415 10.5045 13.165 10.5987 13.1938 10.6819C13.4334 11.3747 14.0328 11.8808 14.7559 12.0011C14.8427 12.0155 14.9395 12.023 15.1331 12.0379L18.0609 12.2631" stroke="#292556" stroke-opacity="0.18" stroke-width="1.5" stroke-linejoin="round"/>
<path d="M11.0338 6.64189C12.3406 5.3351 12.994 4.68171 13.7831 4.54958C14.0564 4.50382 14.3355 4.50382 14.6088 4.54958C15.3979 4.68171 16.0513 5.3351 17.3581 6.64189L18.0608 7.3446C18.7045 7.98825 19.0263 8.31007 19.2044 8.65385C19.5782 9.37511 19.5782 10.233 19.2044 10.9543C19.0263 11.298 18.7045 11.6199 18.0608 12.2635V12.2635L11.7365 18.5878C10.4297 19.8946 9.7763 20.548 8.98714 20.6801C8.71383 20.7259 8.43482 20.7259 8.16151 20.6801C7.37235 20.548 6.71895 19.8946 5.41216 18.5878V18.5878C4.10537 17.281 3.45198 16.6277 3.31985 15.8385C3.27409 15.5652 3.27409 15.2862 3.31985 15.0129C3.45198 14.2237 4.10537 13.5703 5.41216 12.2635L9.62838 8.0473L11.0338 6.64189Z" stroke="#292556" stroke-width="1.5" stroke-linejoin="round"/>
<path d="M15.9759 4.15919C16.7714 3.36375 17.1691 2.96603 17.6505 2.88979C17.8059 2.86516 17.9643 2.86516 18.1198 2.88979C18.6012 2.96603 18.9989 3.36375 19.7943 4.15919L19.8408 4.20568C20.6362 5.00111 21.034 5.39883 21.1102 5.88021C21.1348 6.03568 21.1348 6.19405 21.1102 6.34952C21.034 6.8309 20.6362 7.22861 19.8408 8.02405L19.2905 8.57432L15.4257 4.70946L15.9759 4.15919Z" stroke="#292556" stroke-width="1.5" stroke-linejoin="round"/>
</svg>
