<svg width="24" height="24" viewBox="0 0 24 24" fill="none" xmlns="http://www.w3.org/2000/svg">
<path d="M9.18359 9.20094C9.55788 8.63553 9.9005 7.99189 9.99978 7.42029C10.0495 7.13409 10.0545 6.88816 10.0449 6.70421M14.8159 9.20094C14.4416 8.63553 14.099 7.99189 13.9997 7.42029C13.95 7.13395 13.945 6.88791 13.9546 6.70393M10.0449 6.70421V6.70421C9.77453 6.70423 9.55536 6.48506 9.55537 6.21471L9.55546 4.85205C9.55553 3.82934 10.3846 3.00029 11.4073 3.00022L12.5919 3.00013C13.6148 3.00006 14.4441 3.8293 14.444 4.8522L14.4439 6.2146C14.4439 6.48484 14.2249 6.70391 13.9546 6.70393V6.70393M10.0449 6.70421L13.9546 6.70393" stroke="#292556" stroke-opacity="0.18" stroke-width="1.5" stroke-linejoin="round"/>
<path d="M9.18378 9.20117C8.57381 10.1226 8.26882 10.5833 8.16162 10.8732C8.11529 10.9984 8.10339 11.0375 8.07219 11.1667C8 11.4657 8 11.8361 8 12.577M14.8161 9.20117C15.4261 10.1226 15.731 10.5833 15.8382 10.8732C15.8846 10.9984 15.8965 11.0375 15.9277 11.1667C15.9999 11.4657 15.9999 11.8361 15.9999 12.577M15.9999 11.6821L16 19.694C16 20.5183 15.1273 21.0502 14.3946 20.6724V20.6724C14.0559 20.4977 13.651 20.5107 13.3242 20.7066L12.9589 20.9255C12.3686 21.2793 11.6315 21.2793 11.0412 20.9255L10.6765 20.7069C10.3496 20.5109 9.94463 20.498 9.60585 20.6726V20.6726C8.87295 21.0503 8.00013 20.5183 8.00011 19.6938L8 11.6821" stroke="#292556" stroke-width="1.5" stroke-linecap="round" stroke-linejoin="round"/>
</svg>
