<svg width="24" height="24" viewBox="0 0 24 24" fill="none" xmlns="http://www.w3.org/2000/svg">
<path d="M3.87747 17.7041L7.19975 15.3311L8.61396 16.7453L6.2409 20.0675C5.63238 20.9195 4.40452 21.0211 3.66421 20.2808C2.92391 19.5405 3.02553 18.3126 3.87747 17.7041Z" stroke="#292556" stroke-opacity="0.18" stroke-width="1.5" stroke-linejoin="round"/>
<path d="M6.13894 9.32107V9.32107C5.14583 10.3142 4.64928 10.8107 4.53092 11.4058C4.47968 11.6634 4.47968 11.9285 4.53092 12.1861C4.64928 12.7812 5.14583 13.2777 6.13894 14.2708L7.1996 15.3315L8.61381 16.7457L9.67447 17.8063C10.6676 18.7995 11.1641 19.296 11.7592 19.4144C12.0168 19.4656 12.2819 19.4656 12.5395 19.4144C13.1346 19.296 13.6311 18.7995 14.6242 17.8063V17.8063M6.13894 9.32107L10.6644 4.79558C11.725 3.735 12.2553 3.20471 12.8971 3.10305C13.1044 3.07022 13.3156 3.07022 13.5229 3.10305C14.1647 3.20471 14.695 3.735 15.7556 4.79558L19.1497 8.1897C20.2103 9.25028 20.7406 9.78057 20.8422 10.4224C20.8751 10.6297 20.8751 10.8409 20.8422 11.0481C20.7406 11.69 20.2103 12.2203 19.1497 13.2809L14.6242 17.8063M6.13894 9.32107L14.6242 17.8063" stroke="#292556" stroke-width="1.5" stroke-linejoin="round"/>
</svg>
