<svg width="24" height="24" viewBox="0 0 24 24" fill="none" xmlns="http://www.w3.org/2000/svg">
<path d="M9 5V5C8.07099 5 7.60649 5 7.21783 5.06156C5.07837 5.40042 3.40042 7.07837 3.06156 9.21783C3 9.60649 3 10.071 3 11V13C3 15.8003 3 17.2004 3.54497 18.27C4.02433 19.2108 4.78924 19.9757 5.73005 20.455C6.79961 21 8.19974 21 11 21H13C15.8003 21 17.2004 21 18.27 20.455C19.2108 19.9757 19.9757 19.2108 20.455 18.27C21 17.2004 21 15.8003 21 13V11C21 10.071 21 9.60649 20.9384 9.21783C20.5996 7.07837 18.9216 5.40042 16.7822 5.06156C16.3935 5 15.929 5 15 5V5M9 5V6.5M9 5V3M9 5H15M15 5V3M15 5V6.5" stroke="#292556" stroke-width="1.5" stroke-linecap="round" stroke-linejoin="round"/>
<path d="M11.1444 10.5328C11.4546 9.57795 11.6098 9.10054 11.876 9.03218C11.9576 9.01124 12.0431 9.01124 12.1247 9.03218C12.3909 9.10054 12.546 9.57795 12.8563 10.5328L13.0331 11.077C13.1194 11.3426 13.1626 11.4754 13.2562 11.5633C13.2867 11.592 13.3208 11.6168 13.3576 11.637C13.4701 11.6988 13.6097 11.6988 13.8891 11.6988H14.4612C15.4652 11.6988 15.9672 11.6988 16.1145 11.9309C16.1596 12.002 16.186 12.0834 16.1913 12.1674C16.2086 12.4418 15.8025 12.7368 14.9902 13.327L14.5273 13.6633C14.3014 13.8275 14.1884 13.9096 14.1337 14.0257C14.1158 14.0637 14.1028 14.1037 14.095 14.1449C14.0709 14.271 14.1141 14.4039 14.2004 14.6695L14.3772 15.2137C14.6875 16.1685 14.8426 16.6459 14.6674 16.8577C14.6137 16.9226 14.5445 16.9729 14.4662 17.0039C14.2106 17.1051 13.8045 16.81 12.9923 16.2199L12.5293 15.8836C12.3034 15.7194 12.1904 15.6373 12.063 15.6212C12.0214 15.616 11.9793 15.616 11.9377 15.6212C11.8103 15.6373 11.6973 15.7194 11.4713 15.8836L11.0084 16.2199C10.1962 16.81 9.79009 17.1051 9.53452 17.0039C9.45621 16.9729 9.38701 16.9226 9.33332 16.8577C9.15811 16.6459 9.31323 16.1685 9.62347 15.2137L9.80029 14.6695C9.88661 14.4039 9.92976 14.271 9.90571 14.1449C9.89785 14.1037 9.88484 14.0637 9.86698 14.0257C9.81232 13.9096 9.69933 13.8275 9.47334 13.6633L9.01044 13.327C8.19821 12.7368 7.7921 12.4418 7.80936 12.1674C7.81465 12.0834 7.84108 12.002 7.88621 11.9309C8.0335 11.6988 8.53548 11.6988 9.53945 11.6988H10.1116C10.391 11.6988 10.5306 11.6988 10.6431 11.637C10.6799 11.6168 10.7139 11.592 10.7445 11.5633C10.8381 11.4754 10.8813 11.3426 10.9676 11.077L11.1444 10.5328Z" stroke="#292556" stroke-opacity="0.18" stroke-width="1.5" stroke-linecap="round" stroke-linejoin="round"/>
</svg>
