<svg width="24" height="24" viewBox="0 0 24 24" fill="none" xmlns="http://www.w3.org/2000/svg">
<path d="M9.5 19C9.5 19.8284 8.82843 20.5 8 20.5C7.17157 20.5 6.5 19.8284 6.5 19C6.5 18.1716 7.17157 17.5 8 17.5C8.82843 17.5 9.5 18.1716 9.5 19Z" stroke="#292556" stroke-width="1.5" stroke-linecap="round" stroke-linejoin="round"/>
<path d="M17.5 19C17.5 19.8284 16.8284 20.5 16 20.5C15.1716 20.5 14.5 19.8284 14.5 19C14.5 18.1716 15.1716 17.5 16 17.5C16.8284 17.5 17.5 18.1716 17.5 19Z" stroke="#292556" stroke-width="1.5" stroke-linecap="round" stroke-linejoin="round"/>
<path d="M5.75 5.5C5.75 5.08579 5.41421 4.75 5 4.75C4.58579 4.75 4.25 5.08579 4.25 5.5H5.75ZM3 2.75C2.58579 2.75 2.25 3.08579 2.25 3.5C2.25 3.91421 2.58579 4.25 3 4.25V2.75ZM21.6672 8.764C21.8564 8.39552 21.711 7.94343 21.3426 7.75424C20.9741 7.56504 20.522 7.71038 20.3328 8.07886L21.6672 8.764ZM18.459 13.3703L17.7918 13.0277L18.459 13.3703ZM15.7903 14.25H8V15.75H15.7903V14.25ZM5.75 12V11.5H4.25V12H5.75ZM5.75 11.5V5.5H4.25V11.5H5.75ZM5.75 11.5V5.5H4.25V11.5H5.75ZM20.3328 8.07886L17.7918 13.0277L19.1262 13.7128L21.6672 8.764L20.3328 8.07886ZM5.75 5.5C5.75 3.98122 4.51878 2.75 3 2.75V4.25C3.69036 4.25 4.25 4.80964 4.25 5.5H5.75ZM8 14.25C6.75736 14.25 5.75 13.2426 5.75 12H4.25C4.25 14.0711 5.92893 15.75 8 15.75V14.25ZM15.7903 15.75C17.1962 15.75 18.484 14.9636 19.1262 13.7128L17.7918 13.0277C17.4065 13.7781 16.6338 14.25 15.7903 14.25V15.75Z" fill="#292556"/>
<path d="M10.5 12H8V9.5H10.5V12Z" stroke="#292556" stroke-opacity="0.18" stroke-width="1.5" stroke-linecap="round" stroke-linejoin="round"/>
<path d="M16 12H13.5V9.5H16V12Z" stroke="#292556" stroke-opacity="0.18" stroke-width="1.5" stroke-linecap="round" stroke-linejoin="round"/>
<path d="M13.25 6.5H10.75V4H13.25V6.5Z" stroke="#292556" stroke-opacity="0.18" stroke-width="1.5" stroke-linecap="round" stroke-linejoin="round"/>
</svg>
