<svg width="24" height="24" viewBox="0 0 24 24" fill="none" xmlns="http://www.w3.org/2000/svg">
<path d="M8 20.2486C7.58579 20.2486 7.25 20.5843 7.25 20.9986C7.25 21.4128 7.58579 21.7486 8 21.7486V20.2486ZM16 21.7486C16.4142 21.7486 16.75 21.4128 16.75 20.9986C16.75 20.5843 16.4142 20.2486 16 20.2486V21.7486ZM12.75 16C12.75 15.5858 12.4142 15.25 12 15.25C11.5858 15.25 11.25 15.5858 11.25 16H12.75ZM8 21.7486H12V20.2486H8V21.7486ZM12 21.7486H16V20.2486H12V21.7486ZM12.75 20.9986V16H11.25V20.9986H12.75Z" fill="#292556" fill-opacity="0.18"/>
<path d="M6.77215 12.0106C7.32618 14.4148 9.53209 15.9962 12 15.9962C14.4679 15.9962 16.6738 14.4148 17.2278 12.0106C17.5944 10.4199 17.9895 7 17.9895 7C18.062 6.43172 18.0983 6.14758 18.0915 5.91355C18.0499 4.46965 16.9852 3.26042 15.5582 3.03632C15.3269 3 15.0404 3 14.4676 3H9.53245C8.95956 3 8.67311 3 8.44182 3.03632C7.0148 3.26042 5.9501 4.46965 5.90848 5.91355C5.90173 6.14758 5.938 6.43172 6.01053 7C6.01053 7 6.4056 10.4199 6.77215 12.0106Z" stroke="#292556" stroke-width="1.5" stroke-linecap="round" stroke-linejoin="round"/>
</svg>
