<svg width="24" height="24" viewBox="0 0 24 24" fill="none" xmlns="http://www.w3.org/2000/svg">
<path d="M14.6339 11.8804L13.7338 10.8754C13.7338 10.8754 10.8961 7.2065 12.2764 5.23813M12.2764 5.23813C11.8048 5.3564 11.2933 5.53338 10.8221 5.7982C8.71912 6.98021 9.41959 10.8272 9.41959 10.8272L9.44992 11.3744M12.2764 5.23813C13.2079 5.0045 13.9834 5 13.9834 5" stroke="#292556" stroke-opacity="0.18" stroke-width="1.5" stroke-linecap="round" stroke-linejoin="round"/>
<path d="M11.2302 16.3157C10.0576 18.3296 7.50778 19.0463 5.53422 17.916C3.56067 16.7857 2.91142 14.2368 4.08334 12.2224C5.0404 10.5774 6.91324 9.13148 8.4674 10.1474C8.93966 10.4561 8.86272 11.0439 9.36607 11.3321C9.39412 11.3482 9.42207 11.3622 9.44994 11.3745C9.92241 11.5822 10.3722 11.2745 10.8497 11.5118C12.5137 12.339 12.1878 14.6709 11.2302 16.3157Z" stroke="#292556" stroke-width="1.5" stroke-linecap="round" stroke-linejoin="round"/>
<path d="M19.9167 12.7708C21.0886 14.7852 20.4393 17.3341 18.4658 18.4644C16.4922 19.5947 13.9424 18.878 12.7698 16.8641C11.8122 15.2193 11.4863 12.8874 13.1503 12.0602C13.6559 11.8088 14.1306 12.1688 14.6339 11.8805C15.1373 11.5922 15.0603 11.0045 15.5326 10.6958C17.0868 9.67987 18.9596 11.1258 19.9167 12.7708Z" stroke="#292556" stroke-width="1.5" stroke-linecap="round" stroke-linejoin="round"/>
</svg>
