<svg width="24" height="24" viewBox="0 0 24 24" fill="none" xmlns="http://www.w3.org/2000/svg">
<path d="M3 8.50431C3 11.5443 5.46243 14.0086 8.5 14.0086H19C20.1046 14.0086 21 13.1125 21 12.007C21 10.9016 20.1046 10.0055 19 10.0055C18.6028 10.0055 18.2327 10.1213 17.9215 10.3211C17.6118 8.99311 16.4213 8.00392 15 8.00392C14.6458 8.00392 14.306 8.06534 13.9905 8.17813C13.8219 5.29002 11.4282 3 8.5 3C5.46243 3 3 5.46436 3 8.50431Z" stroke="#292556" stroke-width="1.5" stroke-linejoin="round"/>
<path d="M6 20.25C5.58579 20.25 5.25 20.5858 5.25 21C5.25 21.4142 5.58579 21.75 6 21.75V20.25ZM9.34957 16.8002C9.01838 17.0489 8.95156 17.5191 9.20033 17.8503C9.44909 18.1815 9.91924 18.2483 10.2504 17.9995L9.34957 16.8002ZM15 20.25C14.5858 20.25 14.25 20.5858 14.25 21C14.25 21.4142 14.5858 21.75 15 21.75V20.25ZM15.1496 17.7002C14.8184 17.949 14.7516 18.4191 15.0003 18.7503C15.2491 19.0815 15.7192 19.1483 16.0504 18.8996L15.1496 17.7002ZM6 21.75H11V20.25H6V21.75ZM13.75 19C13.75 17.4812 12.5188 16.25 11 16.25V17.75C11.6904 17.75 12.25 18.3096 12.25 19H13.75ZM11 21.75C12.5188 21.75 13.75 20.5188 13.75 19H12.25C12.25 19.6904 11.6904 20.25 11 20.25V21.75ZM11 16.25C10.3818 16.25 9.80925 16.4549 9.34957 16.8002L10.2504 17.9995C10.4593 17.8427 10.7177 17.75 11 17.75V16.25ZM15 21.75H16.5V20.25H15V21.75ZM18.75 19.5C18.75 18.2574 17.7426 17.25 16.5 17.25V18.75C16.9142 18.75 17.25 19.0858 17.25 19.5H18.75ZM16.5 21.75C17.7426 21.75 18.75 20.7426 18.75 19.5H17.25C17.25 19.9142 16.9142 20.25 16.5 20.25V21.75ZM16.5 17.25C15.9943 17.25 15.5257 17.4177 15.1496 17.7002L16.0504 18.8996C16.1757 18.8055 16.3303 18.75 16.5 18.75V17.25Z" fill="#292556" fill-opacity="0.18"/>
</svg>
