<svg width="24" height="24" viewBox="0 0 24 24" fill="none" xmlns="http://www.w3.org/2000/svg">
<path d="M3 15.5C3 18.5376 5.46243 21 8.5 21H19C20.1046 21 21 20.1046 21 19C21 17.8954 20.1046 17 19 17C18.6028 17 18.2327 17.1158 17.9215 17.3154C17.6118 15.9884 16.4213 15 15 15C14.6458 15 14.306 15.0614 13.9905 15.1741C13.8219 12.2882 11.4282 10 8.5 10C5.46243 10 3 12.4624 3 15.5Z" stroke="#292556" stroke-width="1.5" stroke-linecap="round" stroke-linejoin="round"/>
<path d="M13 6.91927C13 9.173 14.827 11 17.0807 11C18.9387 11 20.5066 9.75835 21 8.05957C20.4063 8.4835 19.6795 8.73293 18.8944 8.73293C16.8911 8.73293 15.2671 7.10893 15.2671 5.10562C15.2671 4.32051 15.5165 3.59367 15.9404 3C14.2417 3.4934 13 5.06134 13 6.91927Z" stroke="#292556" stroke-opacity="0.18" stroke-width="1.5" stroke-linejoin="round"/>
</svg>
