<svg width="24" height="24" viewBox="0 0 24 24" fill="none" xmlns="http://www.w3.org/2000/svg">
<path d="M3 8.50431C3 11.5443 5.46243 14.0086 8.5 14.0086H19C20.1046 14.0086 21 13.1125 21 12.007C21 10.9016 20.1046 10.0055 19 10.0055C18.6028 10.0055 18.2327 10.1213 17.9215 10.3211C17.6118 8.99311 16.4213 8.00392 15 8.00392C14.6458 8.00392 14.306 8.06534 13.9905 8.17813C13.8219 5.29002 11.4282 3 8.5 3C5.46243 3 3 5.46436 3 8.50431Z" stroke="#292556" stroke-width="1.5" stroke-linejoin="round"/>
<path d="M8 21.0002V20.9902M12 18.5002V18.5102M17.9215 16.9902V17.0002M6 17.0102V17.0002M16 20.9902V21.0002" stroke="#292556" stroke-opacity="0.18" stroke-width="1.5" stroke-linecap="round" stroke-linejoin="round"/>
</svg>
