<svg width="24" height="24" viewBox="0 0 24 24" fill="none" xmlns="http://www.w3.org/2000/svg">
<path d="M14.1716 4.17157L14.4747 4.47468M19.8284 9.82842L19.5253 9.52532M17 11L17 10.5556M17 3L17 3.44444M21 7L20.5556 6.99999M13 7H13.4444M19.8284 4.17157L19.5253 4.47467M14.1716 9.82842L14.4747 9.52532M18.25 7C18.25 7.69036 17.6904 8.25 17 8.25C16.3096 8.25 15.75 7.69036 15.75 7C15.75 6.30964 16.3096 5.75 17 5.75C17.6904 5.75 18.25 6.30964 18.25 7Z" stroke="#292556" stroke-opacity="0.18" stroke-width="1.5" stroke-linecap="round" stroke-linejoin="round"/>
<path d="M3 15.5C3 18.5376 5.46243 21 8.5 21H19C20.1046 21 21 20.1046 21 19C21 17.8954 20.1046 17 19 17C18.6028 17 18.2327 17.1158 17.9215 17.3154C17.6118 15.9884 16.4213 15 15 15C14.6458 15 14.306 15.0614 13.9905 15.1741C13.8219 12.2882 11.4282 10 8.5 10C5.46243 10 3 12.4624 3 15.5Z" stroke="#292556" stroke-width="1.5" stroke-linecap="round" stroke-linejoin="round"/>
</svg>
