<svg width="24" height="24" viewBox="0 0 24 24" fill="none" xmlns="http://www.w3.org/2000/svg">
<path d="M8 15L8 17L6.70711 18.2929M12 15V18M12 18C12.8284 18 13.5 18.6716 13.5 19.5C13.5 20.3284 12.8284 21 12 21C11.1716 21 10.5 20.3284 10.5 19.5C10.5 18.6716 11.1716 18 12 18ZM16 15V17L17.2929 18.2929M6.70711 18.2929C6.52614 18.1119 6.27614 18 6 18C5.44772 18 5 18.4477 5 19C5 19.5523 5.44772 20 6 20C6.55228 20 7 19.5523 7 19C7 18.7239 6.88807 18.4739 6.70711 18.2929ZM17.2929 18.2929C17.1119 18.4739 17 18.7239 17 19C17 19.5523 17.4477 20 18 20C18.5523 20 19 19.5523 19 19C19 18.4477 18.5523 18 18 18C17.7239 18 17.4739 18.1119 17.2929 18.2929Z" stroke="#292556" stroke-opacity="0.18" stroke-width="1.5" stroke-linecap="round" stroke-linejoin="round"/>
<path d="M15.3891 4.61091C13.2412 2.46303 9.7588 2.46303 7.61091 4.61091C6.12222 6.09961 5.66533 8.22939 6.24026 10.1116C5.38283 9.84663 4.41095 10.0535 3.73223 10.7322C2.75592 11.7085 2.75592 13.2915 3.73223 14.2678C4.22039 14.7559 4.86019 15 5.5 15H17.5C18.3957 15 19.2915 14.6583 19.9749 13.9749C21.3417 12.608 21.3417 10.392 19.9749 9.02513C19.159 8.20925 18.0405 7.88038 16.9807 8.03851C16.8761 6.78847 16.3455 5.56738 15.3891 4.61091Z" stroke="#292556" stroke-width="1.5" stroke-linecap="round" stroke-linejoin="round"/>
</svg>
