<svg width="24" height="24" viewBox="0 0 24 24" fill="none" xmlns="http://www.w3.org/2000/svg">
<path d="M12 3.65039L11.8796 2.91011C11.5167 2.96913 11.25 3.28263 11.25 3.65039H12ZM16.1207 3.74028C16.5296 3.67381 16.8071 3.28849 16.7406 2.87964C16.6742 2.4708 16.2889 2.19325 15.88 2.25972L16.1207 3.74028ZM12.75 10V3.65039H11.25V10H12.75ZM12.1204 4.39067L16.1207 3.74028L15.88 2.25972L11.8796 2.91011L12.1204 4.39067Z" fill="#292556" fill-opacity="0.18"/>
<path d="M6 10H18L16.1369 18.1978C15.8665 19.3872 15.7314 19.9819 15.3499 20.3813C15.2256 20.5114 15.0844 20.6242 14.93 20.7165C14.4559 21 13.8461 21 12.6264 21H11.3736C10.1539 21 9.54409 21 9.07002 20.7165C8.91561 20.6242 8.77436 20.5114 8.6501 20.3813C8.26861 19.9819 8.13345 19.3872 7.86314 18.1978L6 10Z" stroke="#292556" stroke-width="1.5" stroke-linecap="round" stroke-linejoin="round"/>
<path d="M19.4738 8.28509C17.5092 4.2383 6.48134 4.2383 4.51677 8.28509V8.28509C4.0921 9.15987 4.82945 10 5.80187 10H18.1938C19.174 10 19.9018 9.16687 19.4738 8.28509V8.28509Z" stroke="#292556" stroke-width="1.5" stroke-linecap="round" stroke-linejoin="round"/>
</svg>
