<svg width="24" height="24" viewBox="0 0 24 24" fill="none" xmlns="http://www.w3.org/2000/svg">
<path d="M16.8301 9C16.8301 9.9665 16.0466 10.75 15.0801 10.75C14.1136 10.75 13.3301 9.9665 13.3301 9C13.3301 8.0335 14.1136 7.25 15.0801 7.25C16.0466 7.25 16.8301 8.0335 16.8301 9Z" stroke="#292556" stroke-opacity="0.18" stroke-width="1.5"/>
<path d="M10.3301 9C10.3301 9.9665 9.54658 10.75 8.58008 10.75C7.61358 10.75 6.83008 9.9665 6.83008 9C6.83008 8.0335 7.61358 7.25 8.58008 7.25C9.54658 7.25 10.3301 8.0335 10.3301 9Z" stroke="#292556" stroke-opacity="0.18" stroke-width="1.5"/>
<path d="M10.8301 15C10.8301 15.9665 10.0466 16.75 9.08008 16.75C8.11358 16.75 7.33008 15.9665 7.33008 15C7.33008 14.0335 8.11358 13.25 9.08008 13.25C10.0466 13.25 10.8301 14.0335 10.8301 15Z" stroke="#292556" stroke-opacity="0.18" stroke-width="1.5"/>
<path d="M20.9981 9.6592C20.8888 5.1236 14.2942 2.28438 9.49137 3.15744C4.68854 4.0305 2.365 8.76304 3.14995 13.3467C3.91315 17.8032 8.94421 21 12.1047 21C15.2652 21 17.899 19.4693 15.6768 17.6454C15.0586 17.1663 14.5551 16.563 14.2011 15.8771C13.6699 14.8482 14.6309 13.3793 15.814 13.4803C18.2149 13.6852 21.0834 13.196 20.9981 9.6592Z" stroke="#292556" stroke-width="1.5"/>
</svg>
