<svg width="24" height="24" viewBox="0 0 24 24" fill="none" xmlns="http://www.w3.org/2000/svg">
<path d="M21 14.5V15.6C21 17.8498 21 18.9748 20.4271 19.7634C20.242 20.018 20.018 20.242 19.7634 20.4271C18.9748 21 17.8498 21 15.6 21H15" stroke="#292556" stroke-opacity="0.18" stroke-width="1.5" stroke-linejoin="round"/>
<path d="M9 16V16C9 17.8692 9 18.8038 9.40192 19.5C9.66523 19.9561 10.0439 20.3348 10.5 20.5981C11.1962 21 12.1308 21 14 21H15M15 8H15.6C17.8498 8 18.9748 8 19.7634 8.57295C20.018 8.75799 20.242 8.98196 20.4271 9.23664C21 10.0252 21 11.1502 21 13.4V14.5M9.6 16H8.4C6.15016 16 5.02524 16 4.23664 15.4271C3.98196 15.242 3.75799 15.018 3.57295 14.7634C3 13.9748 3 12.8498 3 10.6V8.4C3 6.15016 3 5.02524 3.57295 4.23664C3.75799 3.98196 3.98196 3.75799 4.23664 3.57295C5.02524 3 6.15016 3 8.4 3H9.6C11.8498 3 12.9748 3 13.7634 3.57295C14.018 3.75799 14.242 3.98196 14.4271 4.23664C15 5.02524 15 6.15016 15 8.4V10.6C15 12.8498 15 13.9748 14.4271 14.7634C14.242 15.018 14.018 15.242 13.7634 15.4271C12.9748 16 11.8498 16 9.6 16Z" stroke="#292556" stroke-width="1.5" stroke-linecap="round" stroke-linejoin="round"/>
</svg>
