<svg width="24" height="24" viewBox="0 0 24 24" fill="none" xmlns="http://www.w3.org/2000/svg">
<path d="M19.4637 17.9393L20.5459 10.797V10.797C20.8155 9.01795 20.9502 8.12845 20.7259 7.80265C20.5018 7.47716 20.1071 7.31417 19.7186 7.38675C19.3298 7.4594 18.7977 8.18489 17.7337 9.63587C17.1911 10.3757 16.9199 10.7456 16.6206 10.8468C16.3195 10.9487 15.9879 10.9013 15.7273 10.7191C15.4684 10.5382 15.3117 10.107 14.9981 9.24482L13.6916 5.65198C13.0692 3.94039 12.758 3.08459 12.242 2.95589C12.0831 2.91627 11.9169 2.91627 11.758 2.95589C11.242 3.08459 10.9308 3.94038 10.3084 5.65197L10.3084 5.65197L9.00188 9.24482C8.68835 10.107 8.53158 10.5382 8.27268 10.7191C8.01213 10.9013 7.68052 10.9487 7.37938 10.8468C7.08014 10.7456 6.80886 10.3757 6.26631 9.63587C5.20225 8.18489 4.67022 7.4594 4.28139 7.38675C3.89294 7.31417 3.49818 7.47716 3.27408 7.80265C3.04977 8.12845 3.18454 9.01796 3.45409 10.797L4.53626 17.9393C4.73198 19.2311 4.82985 19.877 5.21426 20.3166C5.33915 20.4594 5.48371 20.5837 5.64362 20.6858C6.13583 21 6.7891 21 8.09563 21H15.9044C17.2109 21 17.8642 21 18.3564 20.6858C18.5163 20.5837 18.6609 20.4594 18.7857 20.3166C19.1702 19.877 19.268 19.2311 19.4637 17.9393Z" stroke="#292556" stroke-width="1.5" stroke-linejoin="round"/>
<path d="M10 15.5C10 14.3954 10.8954 13.5 12 13.5V13.5C13.1046 13.5 14 14.3954 14 15.5V15.5C14 16.6046 13.1046 17.5 12 17.5V17.5C10.8954 17.5 10 16.6046 10 15.5V15.5Z" stroke="#292556" stroke-opacity="0.18" stroke-width="1.5" stroke-linejoin="round"/>
</svg>
