<svg width="24" height="24" viewBox="0 0 24 24" fill="none" xmlns="http://www.w3.org/2000/svg">
<path d="M10.5 7.15625C7.35482 7.84292 5 10.644 5 13.9952C5 17.8612 8.13401 20.9952 12 20.9952C15.866 20.9952 19 17.8612 19 13.9952C19 10.644 16.6452 7.84292 13.5 7.15625" stroke="#292556" stroke-opacity="0.18" stroke-width="1.5"/>
<path d="M12.4729 8.08913C12.3819 8.19151 12.3363 8.2427 12.2906 8.27538C12.1168 8.39953 11.8832 8.39953 11.7094 8.27538C11.6637 8.2427 11.6181 8.19151 11.5271 8.08913V8.08913L11.0543 7.55717L9.12843 5.39057C8.86783 5.0974 8.73753 4.95081 8.72437 4.78335C8.72013 4.72938 8.72468 4.67508 8.73784 4.62257C8.7787 4.45964 8.93158 4.33679 9.23734 4.09109L10.353 3.19454C10.4616 3.1073 10.5159 3.06368 10.5785 3.03677C10.5992 3.02785 10.6205 3.02035 10.6423 3.01431C10.7079 2.99609 10.7775 2.99609 10.9168 2.99609H13.0832C13.2225 2.99609 13.2921 2.99609 13.3577 3.01431C13.3795 3.02035 13.4008 3.02785 13.4215 3.03677C13.4841 3.06368 13.5384 3.1073 13.6469 3.19454L14.7627 4.09109C15.0684 4.33679 15.2213 4.45964 15.2622 4.62257C15.2753 4.67508 15.2799 4.72938 15.2756 4.78335C15.2625 4.95081 15.1322 5.0974 14.8716 5.39057L12.9457 7.55717C12.761 7.76492 12.6575 7.88139 12.4729 8.08913V8.08913Z" stroke="#292556" stroke-width="1.5" stroke-linecap="round" stroke-linejoin="round"/>
</svg>
