<svg width="24" height="24" viewBox="0 0 24 24" fill="none" xmlns="http://www.w3.org/2000/svg">
<path d="M14.7966 20.5574C14.9303 19.7248 14.9998 18.8708 14.9998 18.0005C14.9998 16.098 14.6677 14.2731 14.0584 12.5805M6.90545 19.4209C8.50455 16.4536 11.0134 14.049 14.0584 12.5805M14.0584 12.5805C13.6981 11.5794 13.2407 10.6246 12.6977 9.72749M14.0584 12.5805C16.1426 11.5754 18.478 11.0088 20.9448 11.0006M7.30367 4.32129C9.50755 5.66201 11.3618 7.52034 12.6977 9.72749M12.6977 9.72749C10.0205 11.7706 6.67956 12.9882 3.05469 13.0004M12.6977 9.72749C14.5044 8.3487 16.0088 6.59396 17.0941 4.58002" stroke="#292556" stroke-opacity="0.18" stroke-width="1.5" stroke-linecap="round" stroke-linejoin="round"/>
<path d="M21 12C21 16.9706 16.9706 21 12 21C7.02944 21 3 16.9706 3 12C3 7.02944 7.02944 3 12 3C16.9706 3 21 7.02944 21 12Z" stroke="#292556" stroke-width="1.5" stroke-linejoin="round"/>
</svg>
