<svg width="24" height="24" viewBox="0 0 24 24" fill="none" xmlns="http://www.w3.org/2000/svg">
<path d="M8.85856 17.5849L8.32823 17.0545C8.18758 17.1952 8.10856 17.3859 8.10856 17.5849C8.10856 17.7838 8.18758 17.9745 8.32823 18.1152L8.85856 17.5849ZM6.85778 18.1714C7.15067 17.8785 7.15067 17.4037 6.85778 17.1108C6.56489 16.8179 6.09001 16.8179 5.79712 17.1108L6.85778 18.1714ZM6.38368 15.11L5.85335 15.6403C5.99401 15.781 6.18477 15.86 6.38368 15.86C6.5826 15.86 6.77336 15.781 6.91401 15.6403L6.38368 15.11ZM8.00734 13.4863L8.72477 13.2677L8.36055 12.0725L7.47701 12.956L8.00734 13.4863ZM10.4878 15.9556L11.0181 16.486L11.9115 15.5926L10.6994 15.2361L10.4878 15.9556ZM8.32823 18.1152C8.69679 18.4837 8.71604 19.1416 8.27199 19.5856L9.33265 20.6463C10.3176 19.6614 10.3872 18.0528 9.38889 17.0545L8.32823 18.1152ZM8.27199 19.5856C7.82795 20.0297 7.17011 20.0104 6.80155 19.6419L5.74089 20.7025C6.73916 21.7008 8.34774 21.6312 9.33265 20.6463L8.27199 19.5856ZM6.80155 19.6419C6.43299 19.2733 6.41374 18.6155 6.85778 18.1714L5.79712 17.1108C4.81221 18.0957 4.74261 19.7043 5.74089 20.7025L6.80155 19.6419ZM4.38291 15.6965C4.82695 15.2525 5.48479 15.2718 5.85335 15.6403L6.91401 14.5797C5.91574 13.5814 4.30716 13.651 3.32225 14.6359L4.38291 15.6965ZM5.79712 17.1108C5.35308 17.5548 4.69523 17.5356 4.32667 17.167L3.26601 18.2277C4.26429 19.2259 5.87287 19.1563 6.85778 18.1714L5.79712 17.1108ZM4.32667 17.167C3.95811 16.7984 3.93887 16.1406 4.38291 15.6965L3.32225 14.6359C2.33734 15.6208 2.26774 17.2294 3.26601 18.2277L4.32667 17.167ZM9.4525 14.5147C9.11172 14.1739 8.87335 13.7553 8.72477 13.2677L7.28991 13.7049C7.5009 14.3974 7.85582 15.0393 8.39184 15.5753L9.4525 14.5147ZM7.47701 12.956L5.85335 14.5797L6.91401 15.6403L8.53767 14.0167L7.47701 12.956ZM10.6994 15.2361C10.2143 15.0935 9.79599 14.8581 9.4525 14.5147L8.39184 15.5753C8.93309 16.1166 9.57944 16.4703 10.2762 16.6752L10.6994 15.2361ZM9.95746 15.4253L8.32823 17.0545L9.38889 18.1152L11.0181 16.486L9.95746 15.4253Z" fill="#292556" fill-opacity="0.18"/>
<path d="M18.822 5.14556C16.5492 2.87276 12.2541 2.23111 9.54209 6.11875C8.27358 8.31261 7.34355 11.3072 8.00761 13.4864C8.1874 14.0764 8.48404 14.6066 8.92244 15.045C9.36481 15.4874 9.89716 15.7819 10.4881 15.9557C12.6458 16.5902 15.5842 15.6148 17.7726 14.3493C21.8854 11.971 21.0948 7.41836 18.822 5.14556Z" stroke="#292556" stroke-width="1.5"/>
</svg>
