<svg width="24" height="24" viewBox="0 0 24 24" fill="none" xmlns="http://www.w3.org/2000/svg">
<path d="M3 10H21M10 18H14" stroke="#292556" stroke-opacity="0.18" stroke-width="1.5" stroke-linecap="round" stroke-linejoin="round"/>
<path d="M3 10C3 9.53568 3 9.30353 3.01712 9.1078C3.20746 6.93229 4.93229 5.20746 7.1078 5.01712C7.30353 5 7.53568 5 8 5H16C16.4643 5 16.6965 5 16.8922 5.01712C19.0677 5.20746 20.7925 6.93229 20.9829 9.1078C21 9.30353 21 9.53568 21 10V10V10.9C21 14.2748 21 15.9621 20.1406 17.145C19.863 17.5271 19.5271 17.863 19.145 18.1406C17.9621 19 16.2748 19 12.9 19H11.1C7.72524 19 6.03786 19 4.85497 18.1406C4.47294 17.863 4.13698 17.5271 3.85942 17.145C3 15.9621 3 14.2748 3 10.9V10V10Z" stroke="#292556" stroke-width="1.5" stroke-linecap="round" stroke-linejoin="round"/>
</svg>
