<svg width="24" height="24" viewBox="0 0 24 24" fill="none" xmlns="http://www.w3.org/2000/svg">
<path d="M18.587 5.86047L18.1404 5.41387C17.0318 4.30528 16.4775 3.75098 15.8779 3.45782C14.7694 2.91591 13.4728 2.91591 12.3643 3.45782C11.7646 3.75098 11.2103 4.30528 10.1017 5.41388L18.587 13.8992C19.6956 12.7906 20.2499 12.2363 20.5431 11.6366C21.085 10.5281 21.085 9.23153 20.5431 8.12303C20.2499 7.52337 19.6956 6.96907 18.587 5.86047Z" stroke="#292556" stroke-opacity="0.18" stroke-width="1.5" stroke-linecap="round" stroke-linejoin="round"/>
<path d="M10.1016 5.41406L5.63562 9.88C4.31774 11.1979 3.6588 11.8568 3.35432 12.5919C2.94834 13.572 2.94834 14.6733 3.35432 15.6534C3.6588 16.3885 4.31774 17.0474 5.63563 18.3653C6.95351 19.6832 7.61245 20.3421 8.34753 20.6466C9.32764 21.0526 10.4289 21.0526 11.409 20.6466C12.1441 20.3421 12.803 19.6832 14.1209 18.3653L18.5868 13.8993L10.1016 5.41406Z" stroke="#292556" stroke-width="1.5" stroke-linecap="round" stroke-linejoin="round"/>
</svg>
