<svg width="24" height="24" viewBox="0 0 24 24" fill="none" xmlns="http://www.w3.org/2000/svg">
<path fill-rule="evenodd" clip-rule="evenodd" d="M15.9644 5.2684C14.7561 4.65497 13.4211 4.25 12.0004 4.25C8.41925 4.25 5.383 6.82308 3.54514 8.82213L3.48813 8.88412C2.72585 9.71267 2.17928 10.3068 2.00886 11.4445C1.96449 11.7407 1.96449 12.2593 2.00886 12.5555C2.17928 13.6932 2.72585 14.2873 3.48813 15.1159L3.54514 15.1779C3.91625 15.5815 4.33623 16.0086 4.79968 16.4332L5.86152 15.3713C5.42489 14.9744 5.0191 14.5648 4.64938 14.1627C3.8274 13.2686 3.59005 12.9858 3.49231 12.3333C3.47001 12.1844 3.47001 11.8156 3.49231 11.6667C3.59005 11.0142 3.8274 10.7314 4.64939 9.83733C6.44742 7.8816 9.09883 5.75 12.0004 5.75C12.9831 5.75 13.9371 5.9945 14.839 6.39387L15.9644 5.2684ZM7.86036 16.908C9.12379 17.7026 10.53 18.25 12.0004 18.25C14.902 18.25 17.5534 16.1184 19.3514 14.1627C20.1734 13.2686 20.4107 12.9858 20.5085 12.3333C20.5308 12.1844 20.5308 11.8156 20.5085 11.6667C20.4107 11.0142 20.1734 10.7314 19.3514 9.83733C18.6893 9.11713 17.9114 8.37308 17.048 7.72042L18.1179 6.6505C19.0249 7.35495 19.8134 8.12359 20.4556 8.82213L20.5127 8.88411C21.2749 9.71267 21.8215 10.3068 21.9919 11.4445C22.0363 11.7407 22.0363 12.2593 21.9919 12.5555C21.8215 13.6932 21.2749 14.2873 20.5127 15.1159L20.4556 15.1779C18.6178 17.1769 15.5815 19.75 12.0004 19.75C10.0654 19.75 8.28941 18.9987 6.77565 17.9927L7.86036 16.908Z" fill="#292556"/>
<path fill-rule="evenodd" clip-rule="evenodd" d="M12.8789 8.35356C12.597 8.28586 12.3027 8.25 12 8.25C9.92893 8.25 8.25 9.92893 8.25 12C8.25 12.3027 8.28586 12.597 8.35356 12.8789L9.8303 11.4021C10.0398 10.6401 10.6401 10.0398 11.4021 9.8303L12.8789 8.35356ZM10.8398 13.9282C11.1786 14.1325 11.5756 14.25 12 14.25C13.2426 14.25 14.25 13.2426 14.25 12C14.25 11.5756 14.1325 11.1786 13.9282 10.8398L15.0078 9.76011C15.474 10.3851 15.75 11.1603 15.75 12C15.75 14.0711 14.0711 15.75 12 15.75C11.1603 15.75 10.3851 15.474 9.76011 15.0078L10.8398 13.9282Z" fill="#292556" fill-opacity="0.18"/>
<path d="M3 21L21 3" stroke="#292556" stroke-width="1.5" stroke-linecap="round" stroke-linejoin="round"/>
</svg>
