<svg width="24" height="24" viewBox="0 0 24 24" fill="none" xmlns="http://www.w3.org/2000/svg">
<path d="M21 12C21 16.9706 16.9706 21 12 21C7.02944 21 3 16.9706 3 12C3 7.02944 7.02944 3 12 3C16.9706 3 21 7.02944 21 12Z" stroke="#292556" stroke-width="1.5"/>
<path fill-rule="evenodd" clip-rule="evenodd" d="M8.45019 6.40004C8.11882 6.15152 7.64872 6.21867 7.40019 6.55004C7.15166 6.88141 7.21882 7.35152 7.55019 7.60004L8.27075 8.14047C8.10024 8.38389 8.00019 8.68028 8.00019 9.00004C8.00019 9.82847 8.67176 10.5 9.50019 10.5C10.3286 10.5 11.0002 9.82847 11.0002 9.00004C11.0002 8.37016 10.6119 7.83095 10.0617 7.60868L8.45019 6.40004ZM16.4502 7.60004C16.7816 7.35152 16.8487 6.88141 16.6002 6.55004C16.3517 6.21867 15.8816 6.15152 15.5502 6.40004L13.9387 7.60868C13.3884 7.83095 13.0002 8.37016 13.0002 9.00004C13.0002 9.82847 13.6718 10.5 14.5002 10.5C15.3286 10.5 16.0002 9.82847 16.0002 9.00004C16.0002 8.68028 15.9001 8.38389 15.7296 8.14047L16.4502 7.60004ZM12.0002 12.75C9.64113 12.75 7.61555 14.1705 6.72894 16.1998C6.5631 16.5793 6.73636 17.0215 7.11593 17.1873C7.49549 17.3531 7.93763 17.1799 8.10347 16.8003C8.75998 15.2977 10.2586 14.25 12.0002 14.25C13.7418 14.25 15.2403 15.2977 15.8969 16.8003C16.0627 17.1799 16.5048 17.3531 16.8844 17.1873C17.264 17.0215 17.4372 16.5793 17.2714 16.1998C16.3848 14.1705 14.3592 12.75 12.0002 12.75Z" fill="#292556" fill-opacity="0.18"/>
</svg>
