<svg width="24" height="24" viewBox="0 0 24 24" fill="none" xmlns="http://www.w3.org/2000/svg">
<path d="M7.5 8L5.5027 9.45274C4.09152 10.4792 3.38593 10.9924 3.25627 11.6726C3.21499 11.8892 3.21501 12.1116 3.2563 12.3281C3.38603 13.0084 4.09168 13.5215 5.50297 14.5478L7.5 16" stroke="#292556" stroke-opacity="0.18" stroke-width="1.5" stroke-linecap="round" stroke-linejoin="round"/>
<path d="M13 9.81882L15.9971 7.63885C17.9236 6.23766 18.8868 5.53706 19.6847 5.74166C19.9343 5.80566 20.1666 5.92399 20.3652 6.08818C21 6.61311 21 7.80416 21 10.1863V13.8145C21 16.1964 21 17.3873 20.3653 17.9122C20.1667 18.0764 19.9343 18.1947 19.6848 18.2588C18.8869 18.4634 17.9238 17.763 15.9974 16.3621L13 14.1825M13 9.81882V9.81882C12.0513 10.5089 11.5769 10.8539 11.386 11.2683C11.1718 11.7332 11.1718 12.2685 11.386 12.7333C11.577 13.1477 12.0514 13.4926 13 14.1825V14.1825M13 9.81882V9.81882C13 7.7633 13 6.73555 12.5157 6.22833C12.2412 5.94076 11.8769 5.75526 11.4828 5.70237C10.7877 5.60909 9.9566 6.21363 8.29429 7.42271L7.5 8.00044M13 14.1825V14.1825C13 16.2373 13 17.2647 12.516 17.7719C12.2413 18.0596 11.8769 18.2452 11.4826 18.2981C10.7878 18.3913 9.95684 17.787 8.29496 16.5785L7.5 16.0004" stroke="#292556" stroke-width="1.5" stroke-linecap="round" stroke-linejoin="round"/>
</svg>
