<svg width="24" height="24" viewBox="0 0 24 24" fill="none" xmlns="http://www.w3.org/2000/svg">
<path d="M12 3H9C7.34315 3 6 4.34315 6 6C6 7.65685 7.34315 9 9 9H12M12 3H15C16.6569 3 18 4.34315 18 6C18 7.65685 16.6569 9 15 9H12M12 3V9M18 12.125C18 13.7128 16.7128 15 15.125 15C13.5372 15 12.25 13.7128 12.25 12.125C12.25 10.5372 13.5372 9.25 15.125 9.25C16.7128 9.25 18 10.5372 18 12.125Z" stroke="#292556" stroke-opacity="0.18" stroke-width="1.5"/>
<path d="M12 3H12.75C12.75 2.58579 12.4142 2.25 12 2.25V3ZM9 3.75H12V2.25H9V3.75ZM12 8.25H9V9.75H12V8.25ZM11.25 3V9H12.75V3H11.25ZM5.25 6C5.25 8.07107 6.92893 9.75 9 9.75V8.25C7.75736 8.25 6.75 7.24264 6.75 6H5.25ZM6.75 6C6.75 4.75736 7.75736 3.75 9 3.75V2.25C6.92893 2.25 5.25 3.92893 5.25 6H6.75ZM12 14.25H9V15.75H12V14.25ZM11.25 9V15H12.75V9H11.25ZM5.25 12C5.25 14.0711 6.92893 15.75 9 15.75V14.25C7.75736 14.25 6.75 13.2426 6.75 12H5.25ZM6.75 12C6.75 10.7574 7.75736 9.75 9 9.75V8.25C6.92893 8.25 5.25 9.92893 5.25 12H6.75ZM11.25 15V18H12.75V15H11.25ZM9 21.75C11.0711 21.75 12.75 20.0711 12.75 18H11.25C11.25 19.2426 10.2426 20.25 9 20.25V21.75ZM5.25 18C5.25 20.0711 6.92893 21.75 9 21.75V20.25C7.75736 20.25 6.75 19.2426 6.75 18H5.25ZM6.75 18C6.75 16.7574 7.75736 15.75 9 15.75V14.25C6.92893 14.25 5.25 15.9289 5.25 18H6.75Z" fill="#292556"/>
</svg>
