<svg width="24" height="24" viewBox="0 0 24 24" fill="none" xmlns="http://www.w3.org/2000/svg">
<path d="M7 7.5H3M7 12H3M7 16.5H3M17 7.5H21M21 12H17M17 16.5H21" stroke="#292556" stroke-opacity="0.18" stroke-width="1.5" stroke-linejoin="round"/>
<path d="M7 3V3C4.79086 3 3 4.79086 3 7V7.5V12V16.5V17C3 19.2091 4.79086 21 7 21V21M7 3H16.5C16.9643 3 17.1965 3 17.3921 3.01926C19.2912 3.20631 20.7937 4.70882 20.9807 6.60793C21 6.80349 21 7.03566 21 7.5V7.5V12V16.5V16.5C21 16.9643 21 17.1965 20.9807 17.3921C20.7937 19.2912 19.2912 20.7937 17.3921 20.9807C17.1965 21 16.9643 21 16.5 21H7M7 3V7.5V12V16.5V21M17 3V7.5V12V16.5V21" stroke="#292556" stroke-width="1.5" stroke-linejoin="round"/>
</svg>
