<svg width="24" height="24" viewBox="0 0 24 24" fill="none" xmlns="http://www.w3.org/2000/svg">
<path d="M7.45454 10L6.52084 8.53275C5.15149 6.38092 4.46682 5.305 4.72588 4.43139C4.80722 4.1571 4.94645 3.90346 5.13419 3.68758C5.73214 3 7.00743 3 9.55802 3L12 3" stroke="#292556" stroke-opacity="0.18" stroke-width="1.5" stroke-linecap="round" stroke-linejoin="round"/>
<path fill-rule="evenodd" clip-rule="evenodd" d="M20.0746 4.69268L17.2093 7.55795C17.0954 7.73809 16.9743 7.92846 16.846 8.1301L13.5878 13.25H11.5173L9.24955 15.5177L9.24955 17.4696L9.24952 17.5093C9.24928 17.6721 9.24902 17.8464 9.2839 18.0198C9.3106 18.1526 9.35262 18.2818 9.40912 18.4049C9.48293 18.5657 9.58565 18.7065 9.68157 18.838L9.70499 18.8701L9.72798 18.9017L9.72803 18.9018C10.2868 19.6702 10.736 20.2878 11.1113 20.7197C11.3032 20.9406 11.4987 21.1402 11.7024 21.2952C11.9066 21.4505 12.1561 21.5894 12.4527 21.6339C13.0749 21.7272 13.7047 21.5224 14.1529 21.081C14.3666 20.8705 14.4867 20.6115 14.5605 20.3658C14.6342 20.1206 14.6749 19.8442 14.7001 19.5527C14.7496 18.9826 14.7496 18.2189 14.7496 17.2688V17.2297L14.7496 14.2184L18.1115 8.93541L18.1394 8.89158L18.1394 8.89156C18.8004 7.85287 19.3337 7.01476 19.6633 6.32671C19.9216 5.78738 20.1047 5.24254 20.0746 4.69268ZM8.37992 12.8518L9.46645 11.7653L8.08685 9.59734C7.86447 9.24789 7.4009 9.14487 7.05144 9.36725C6.70199 9.58963 6.59897 10.0532 6.82135 10.4027L8.37992 12.8518ZM17.3891 3.8426C17.359 3.83844 17.328 3.83442 17.2959 3.83055C16.6391 3.75132 15.7369 3.75 14.4415 3.75L11.9996 3.75C11.5853 3.75 11.2496 3.41421 11.2496 3C11.2496 2.58579 11.5853 2.25 11.9996 2.25H14.4415H14.4935H14.4935C15.7247 2.24998 16.7181 2.24997 17.4755 2.34135C17.8798 2.39012 18.2675 2.46966 18.6151 2.61667L17.3891 3.8426ZM10.7496 14.75H13.2496L13.2496 17.2297C13.2496 18.2279 13.2489 18.9259 13.2057 19.4231C13.1844 19.6691 13.1552 19.8302 13.124 19.9342C13.1086 19.9854 13.0959 20.0117 13.0904 20.0218C12.9825 20.1224 12.8355 20.1702 12.689 20.1523C12.6786 20.1474 12.653 20.1336 12.6104 20.1012C12.5239 20.0355 12.4056 19.9224 12.2436 19.736C11.9163 19.3592 11.5052 18.7951 10.9181 17.9879C10.8551 17.9012 10.8203 17.8531 10.7952 17.8156C10.7734 17.7831 10.7709 17.776 10.7723 17.7791C10.7643 17.7615 10.7583 17.7431 10.7545 17.7241C10.754 17.7213 10.7526 17.7097 10.7514 17.6812C10.7497 17.6361 10.7496 17.5767 10.7496 17.4696L10.7496 14.75Z" fill="#292556"/>
<path d="M3 21L21 3" stroke="#292556" stroke-width="1.5" stroke-linecap="round" stroke-linejoin="round"/>
</svg>
