<svg width="24" height="24" viewBox="0 0 24 24" fill="none" xmlns="http://www.w3.org/2000/svg">
<path d="M21 15V15C21 16.861 21 17.7916 20.6985 18.5235C20.2924 19.5094 19.5094 20.2924 18.5235 20.6985C17.7916 21 16.8644 21 15.01 21V21H15M15 3V3C16.861 3 17.7916 3 18.5235 3.30148C19.5094 3.70761 20.2924 4.49058 20.6985 5.47652C21 6.20843 21 7.13562 21 8.99V8.99V9M3 9V9C3 7.13895 3 6.20843 3.30148 5.47652C3.70761 4.49058 4.49058 3.70761 5.47652 3.30148C6.20843 3 7.13562 3 8.99 3V3H9M9 21V21C7.13895 21 6.20843 21 5.47652 20.6985C4.49058 20.2924 3.70761 19.5094 3.30148 18.5235C3 17.7916 3 16.8644 3 15.01V15.01V15" stroke="#292556" stroke-width="1.5" stroke-linecap="round" stroke-linejoin="round"/>
<path d="M11.0034 8.99854C10.4322 9.28217 9.87875 9.77662 9.41798 10.5538C8.75951 11.6644 8.5144 13.4921 8.43131 15M14.0002 9.21883C14.9825 9.96196 15.5695 11.6001 14.4175 13.543C14.1192 14.0463 13.965 14.5403 13.9029 15M15.3388 6.84654C13.0426 5.46364 8.43294 5.52605 6.88302 8.92724C6.43217 9.91662 6.1912 10.9839 6.07617 12M17.9998 12C18.0053 10.5817 17.5846 9.29866 16.883 8.30252M12.4178 11.5469C11.31 12.6547 11.2517 15.8696 11.3484 18" stroke="#292556" stroke-opacity="0.18" stroke-width="1.5" stroke-linecap="round" stroke-linejoin="round"/>
</svg>
