<svg width="24" height="24" viewBox="0 0 24 24" fill="none" xmlns="http://www.w3.org/2000/svg">
<path d="M21 12C21 16.9706 16.9706 21 12 21C7.02944 21 3 16.9706 3 12C3 7.02944 7.02944 3 12 3C16.9706 3 21 7.02944 21 12Z" stroke="#292556" stroke-width="1.5" stroke-linejoin="round"/>
<path d="M8.75 8.49951V15.4995M13.2035 14.766L15.8401 12.7097C16.2097 12.4215 16.3944 12.2774 16.4288 12.0904C16.4398 12.0307 16.4398 11.9694 16.4288 11.9097C16.3945 11.7227 16.2097 11.5786 15.8402 11.2903L13.2036 9.23352C12.647 8.79935 12.3687 8.58227 12.1356 8.63706C12.0628 8.65416 11.9948 8.68736 11.9366 8.73422C11.75 8.88433 11.75 9.23727 11.75 9.94315L11.75 14.0563C11.75 14.762 11.75 15.1149 11.9366 15.265C11.9948 15.3119 12.0628 15.3451 12.1356 15.3622C12.3687 15.417 12.6469 15.2 13.2035 14.766Z" stroke="#292556" stroke-opacity="0.18" stroke-width="1.5" stroke-linecap="round" stroke-linejoin="round"/>
</svg>
