<svg width="24" height="24" viewBox="0 0 24 24" fill="none" xmlns="http://www.w3.org/2000/svg">
<path d="M15.25 14C15.25 14.4142 14.9142 14.75 14.5 14.75C14.0858 14.75 13.75 14.4142 13.75 14C13.75 13.5858 14.0858 13.25 14.5 13.25C14.9142 13.25 15.25 13.5858 15.25 14Z" fill="#292556" fill-opacity="0.18"/>
<path d="M18.25 14C18.25 14.4142 17.9142 14.75 17.5 14.75C17.0858 14.75 16.75 14.4142 16.75 14C16.75 13.5858 17.0858 13.25 17.5 13.25C17.9142 13.25 18.25 13.5858 18.25 14Z" fill="#292556" fill-opacity="0.18"/>
<path d="M16 13.25C15.5858 13.25 15.25 12.9142 15.25 12.5C15.25 12.0858 15.5858 11.75 16 11.75C16.4142 11.75 16.75 12.0858 16.75 12.5C16.75 12.9142 16.4142 13.25 16 13.25Z" fill="#292556" fill-opacity="0.18"/>
<path d="M16 16.25C15.5858 16.25 15.25 15.9142 15.25 15.5C15.25 15.0858 15.5858 14.75 16 14.75C16.4142 14.75 16.75 15.0858 16.75 15.5C16.75 15.9142 16.4142 16.25 16 16.25Z" fill="#292556" fill-opacity="0.18"/>
<path d="M8 15.5V14M8 12.5V14M8 14H9.5H6.5" stroke="#292556" stroke-opacity="0.18" stroke-width="1.5" stroke-linecap="round" stroke-linejoin="round"/>
<path d="M12 9.2L8.94737 8.79298C6.59022 8.4787 5.41165 8.32155 4.54311 8.80406C4.171 9.01078 3.84714 9.29432 3.59306 9.63584C3 10.433 3 11.622 3 14V14C3 16.378 3 17.567 3.59306 18.3642C3.84714 18.7057 4.171 18.9892 4.54311 19.1959C5.41165 19.6784 6.59022 19.5213 8.94737 19.207L11.2863 18.8952C11.603 18.8529 11.7613 18.8318 11.9205 18.8276C11.9735 18.8262 12.0265 18.8262 12.0795 18.8276C12.2387 18.8318 12.397 18.8529 12.7137 18.8952L15.0526 19.207C17.4098 19.5213 18.5884 19.6784 19.4569 19.1959C19.829 18.9892 20.1529 18.7057 20.4069 18.3642C21 17.567 21 16.378 21 14V14C21 11.622 21 10.433 20.4069 9.63584C20.1529 9.29432 19.829 9.01078 19.4569 8.80406C18.5884 8.32155 17.4098 8.4787 15.0526 8.79298L12 9.2ZM12 9.2V8.4C12 6.15016 12 5.02524 12.5729 4.23664C12.758 3.98196 12.982 3.75799 13.2366 3.57295C14.0252 3 15.1502 3 17.4 3H17.5" stroke="#292556" stroke-width="1.5" stroke-linecap="round" stroke-linejoin="round"/>
</svg>
