<svg width="24" height="24" viewBox="0 0 24 24" fill="none" xmlns="http://www.w3.org/2000/svg">
<path d="M12 3V5M12 3C9.51472 3 7.26472 4.00736 5.63604 5.63604M12 3C14.4851 3 16.735 4.00725 18.3637 5.63577M3 12C3 9.51472 4.00736 7.26472 5.63604 5.63604M3 12H5M3 12C3 14.4851 4.00725 16.735 5.63577 18.3637M5.63604 5.63604L7.04929 7.04929M18.3637 5.63577C19.9925 7.26447 21 9.51458 21 12M18.3637 5.63577L16.9495 7.04998M21 12L19 12M21 12C21 14.4853 19.9926 16.7353 18.364 18.364M12 21V19M12 21C14.4853 21 16.7353 19.9926 18.364 18.364M12 21C9.51458 21 7.26447 19.9925 5.63577 18.3637M18.364 18.364L16.9488 16.9488M5.63577 18.3637L7.04998 16.9495" stroke="#292556" stroke-width="1.5" stroke-linecap="round" stroke-linejoin="round"/>
<path d="M11.9996 10.5V10.5C12.828 10.5 13.5 11.1716 13.5 12V12C13.5 12.8284 12.8284 13.5 12 13.5V13.5C11.1716 13.5 10.5 12.8282 10.5 11.9998V11.9998C10.5 11.1716 11.1714 10.5 11.9996 10.5V10.5ZM11.9996 10.5V7.75" stroke="#292556" stroke-opacity="0.18" stroke-width="1.5" stroke-linecap="round" stroke-linejoin="round"/>
</svg>
