<svg width="24" height="24" viewBox="0 0 24 24" fill="none" xmlns="http://www.w3.org/2000/svg">
<path d="M3 11H9M21 11H9M9 19V11M9 5V11" stroke="#292556" stroke-opacity="0.18" stroke-width="1.5" stroke-linecap="round" stroke-linejoin="round"/>
<path d="M3 10.4V13.6C3 15.8498 3 16.9748 3.57295 17.7634C3.75799 18.018 3.98196 18.242 4.23664 18.4271C5.02524 19 6.15016 19 8.4 19H15.6C17.8498 19 18.9748 19 19.7634 18.4271C20.018 18.242 20.242 18.018 20.4271 17.7634C21 16.9748 21 15.8498 21 13.6V10.4C21 8.15016 21 7.02524 20.4271 6.23664C20.242 5.98196 20.018 5.75799 19.7634 5.57295C18.9748 5 17.8498 5 15.6 5H8.4C6.15016 5 5.02524 5 4.23664 5.57295C3.98196 5.75799 3.75799 5.98196 3.57295 6.23664C3 7.02524 3 8.15016 3 10.4Z" stroke="#292556" stroke-width="1.5" stroke-linejoin="round"/>
<path d="M6.5 13.5L9 11L11.5 13.5M9 9.5C9 10.3284 8.32843 11 7.5 11C6.67157 11 6 10.3284 6 9.5C6 8.67157 6.67157 8 7.5 8C8.32843 8 9 8.67157 9 9.5ZM9 9.5C9 10.3284 9.67157 11 10.5 11C11.3284 11 12 10.3284 12 9.5C12 8.67157 11.3284 8 10.5 8C9.67157 8 9 8.67157 9 9.5Z" stroke="#292556" stroke-width="1.5" stroke-linecap="round" stroke-linejoin="round"/>
</svg>
