<svg width="24" height="24" viewBox="0 0 24 24" fill="none" xmlns="http://www.w3.org/2000/svg">
<path d="M7 4.5L4.65625 12M17 4.5L19.3438 12M10.5 15.6771C10.8665 15.2619 11.4027 15 12 15C12.5973 15 13.1335 15.2619 13.5 15.6771" stroke="#292556" stroke-opacity="0.18" stroke-width="1.5" stroke-linecap="round" stroke-linejoin="round"/>
<path d="M13.5 15.6771C13.5 13.6463 15.1463 12 17.1771 12H19.3438V12C20.2585 12 21 12.7415 21 13.6562V15.75C21 17.8211 19.3211 19.5 17.25 19.5V19.5C15.1789 19.5 13.5 17.8211 13.5 15.75V15.6771V15.6771Z" stroke="#292556" stroke-width="1.5" stroke-linejoin="round"/>
<path d="M10.5 15.75V15.6771C10.5 13.6463 8.85371 12 6.82291 12H4.65625C3.74153 12 3 12.7415 3 13.6563V15.75C3 17.8211 4.67893 19.5 6.75 19.5C8.82107 19.5 10.5 17.8211 10.5 15.75Z" stroke="#292556" stroke-width="1.5" stroke-linejoin="round"/>
</svg>
