<svg width="24" height="24" viewBox="0 0 24 24" fill="none" xmlns="http://www.w3.org/2000/svg">
<path d="M3.70605 8.49999C5.07157 11.7319 8.27099 14 12.0002 14C15.7293 14 18.9287 11.7319 20.2942 8.50001M12.0001 21C14.4121 19.3855 16.0001 15.1204 16.0001 12C16.0001 8.87958 14.4121 4.61452 12.0001 3C9.58817 4.61452 8.00014 8.87958 8.00014 12C8.00014 15.1204 9.58817 19.3855 12.0001 21Z" stroke="#292556" stroke-opacity="0.18" stroke-width="1.5" stroke-linecap="round" stroke-linejoin="round"/>
<path d="M12 21C16.9706 21 21 16.9706 21 12C21 10.7586 20.7487 9.5759 20.2941 8.50001C18.9286 5.26806 15.7292 3 12 3C8.27085 3 5.07143 5.26805 3.70591 8.49999C3.25134 9.57588 3 10.7586 3 12C3 16.9706 7.02944 21 12 21Z" stroke="#292556" stroke-width="1.5" stroke-linejoin="round"/>
</svg>
