<svg width="24" height="24" viewBox="0 0 24 24" fill="none" xmlns="http://www.w3.org/2000/svg">
<path d="M17.4621 16.9081L15.9541 14.3905M9.4191 3.48242L10.9279 5.99973M10.9279 5.99973C9.4427 6.83941 8.44043 8.43116 8.44043 10.2566C8.44043 12.9566 10.6332 15.1454 13.3382 15.1454C14.3001 15.1454 15.1973 14.8686 15.9541 14.3905M10.9279 5.99973C11.5685 5.63755 12.299 5.41529 13.0776 5.37453C13.1639 5.37002 13.2508 5.36773 13.3382 5.36773C16.0432 5.36773 18.236 7.55654 18.236 10.2566C18.236 11.9965 17.3255 13.5241 15.9541 14.3905" stroke="#292556" stroke-opacity="0.18" stroke-width="1.5" stroke-linecap="round" stroke-linejoin="round"/>
<path d="M9.41887 21H13.3375M13.3375 21H17.2561M13.3375 21V18.0805M18.5 16.1341C18.1756 16.4198 17.8283 16.6791 17.4619 16.9085C17.3942 16.9503 17.3256 16.9912 17.2562 17.0312C13.5081 19.1912 8.71541 17.9094 6.55143 14.1681C4.38745 10.4268 5.67074 5.64285 9.41886 3.48283C9.89267 3.21055 10.504 3 10.504 3" stroke="#292556" stroke-width="1.5" stroke-linecap="round" stroke-linejoin="round"/>
</svg>
