<svg width="24" height="24" viewBox="0 0 24 24" fill="none" xmlns="http://www.w3.org/2000/svg">
<path d="M18.1576 9.01856V14.4287C18.1576 15.1082 18.1576 15.4479 18.0263 15.7408C17.9831 15.837 17.9299 15.9285 17.8675 16.0136C17.6778 16.2724 17.3825 16.4403 16.7918 16.7761L13.3339 18.7414C12.7562 19.0698 12.4674 19.2339 12.1545 19.2664C12.0516 19.2771 11.9478 19.2771 11.8449 19.2664C11.532 19.2339 11.2432 19.0698 10.6655 18.7415L7.20763 16.7761C6.61692 16.4403 6.32156 16.2724 6.13186 16.0136C6.0695 15.9285 6.0163 15.837 5.97313 15.7408C5.8418 15.4479 5.8418 15.1082 5.8418 14.4287V9.01855" stroke="#292556" stroke-opacity="0.18" stroke-width="1.5" stroke-linecap="round" stroke-linejoin="round"/>
<path d="M21 7.64286L13.129 4.01969C12.6361 3.79283 12.3897 3.6794 12.1293 3.65687C12.0432 3.64943 11.9568 3.64943 11.8707 3.65687C11.6103 3.6794 11.3639 3.79283 10.871 4.01969L3 7.64286L10.8235 11.4304C11.3362 11.6786 11.5925 11.8027 11.8649 11.8274C11.9548 11.8355 12.0452 11.8355 12.1351 11.8274C12.4075 11.8027 12.6638 11.6786 13.1765 11.4304L21 7.64286ZM21 7.64286V16.9C21 17.4876 21 17.7814 20.898 18.0437C20.8644 18.1302 20.8228 18.2134 20.7738 18.2922C20.6251 18.5311 20.3901 18.7074 19.92 19.06L18.75 19.9375" stroke="#292556" stroke-width="1.5" stroke-linecap="round" stroke-linejoin="round"/>
</svg>
