<svg width="24" height="24" viewBox="0 0 24 24" fill="none" xmlns="http://www.w3.org/2000/svg">
<path d="M10.8561 10.9644L13.036 13.1442L5.76979 20.4104C5.16784 21.0124 4.19188 21.0124 3.58993 20.4104C2.98798 19.8085 2.98798 18.8325 3.58993 18.2306L10.8561 10.9644Z" stroke="#292556" stroke-opacity="0.18" stroke-width="1.5" stroke-linejoin="round"/>
<path d="M15.9425 5.87802L15.3237 6.49678L17.5036 8.67664L18.1223 8.05788C18.7243 7.45593 18.7243 6.47997 18.1223 5.87802C17.5204 5.27606 16.5444 5.27607 15.9425 5.87802Z" stroke="#292556" stroke-opacity="0.18" stroke-width="1.5" stroke-linejoin="round"/>
<path d="M18.1506 16.0224L18.9547 15.2183C20.0153 14.1577 20.5456 13.6274 20.6472 12.9856C20.6801 12.7783 20.6801 12.5671 20.6472 12.3598C20.5456 11.718 20.0153 11.1877 18.9547 10.1271L17.5039 8.67628L15.324 6.49641L13.8732 5.04558C12.8126 3.985 12.2823 3.45471 11.6405 3.35305C11.4332 3.32022 11.222 3.32022 11.0147 3.35305C10.3729 3.45471 9.84259 3.985 8.782 5.04558L7.97789 5.8497C7.339 6.48859 7.01955 6.80804 6.86781 7.16242C6.65254 7.66517 6.65254 8.23414 6.86781 8.73689C7.01955 9.09128 7.339 9.41072 7.97789 10.0496C8.23751 10.3092 8.36732 10.4391 8.5137 10.5408C8.72109 10.685 8.95392 10.7886 9.19988 10.8462C9.37347 10.8868 9.5568 10.8963 9.92347 10.9154L10.8564 10.964L13.0363 13.1439L13.0848 14.0768C13.1039 14.4435 13.1135 14.6268 13.1541 14.8004C13.2116 15.0464 13.3152 15.2792 13.4594 15.4866C13.5612 15.633 13.691 15.7628 13.9507 16.0224C14.5896 16.6613 14.909 16.9807 15.2634 17.1325C15.7661 17.3477 16.3351 17.3477 16.8379 17.1325C17.1922 16.9807 17.5117 16.6613 18.1506 16.0224Z" stroke="#292556" stroke-width="1.5" stroke-linecap="round" stroke-linejoin="round"/>
</svg>
