<svg width="24" height="24" viewBox="0 0 24 24" fill="none" xmlns="http://www.w3.org/2000/svg">
<path d="M11.9962 10.5V8.68217C11.9962 8.58156 12.0777 8.5 12.1783 8.5V8.5C13.1844 8.5 14 7.68441 14 6.67832V6.5C14 5.39543 13.1046 4.5 12 4.5V4.5C10.8954 4.5 10 5.39543 10 6.5V6.5" stroke="#292556" stroke-opacity="0.18" stroke-width="1.5" stroke-linecap="round" stroke-linejoin="round"/>
<path d="M7.29102 13.7601L12.0001 10.5L16.7101 13.7598C19.7007 15.8296 21.1959 16.8645 21.1482 17.8359C21.1336 18.133 21.0435 18.4215 20.8864 18.6741C20.3729 19.5 18.5544 19.5 14.9175 19.5H11H9.08402C5.44785 19.5 3.62976 19.5 3.11618 18.6742C2.95908 18.4216 2.86897 18.1331 2.85435 17.836C2.80656 16.8647 4.30138 15.8298 7.29102 13.7601Z" stroke="#292556" stroke-width="1.5" stroke-linecap="round" stroke-linejoin="round"/>
</svg>
