<svg width="24" height="24" viewBox="0 0 24 24" fill="none" xmlns="http://www.w3.org/2000/svg">
<path d="M6 7V7C8.30479 4.69521 9.45718 3.54282 10.8215 3.21193C11.596 3.02411 12.404 3.02411 13.1785 3.21193C14.5428 3.54282 15.6952 4.69521 18 7V7L18.0156 7.01562" stroke="#292556" stroke-opacity="0.18" stroke-width="1.5" stroke-linecap="round" stroke-linejoin="round"/>
<path d="M6 7L5.63604 7.36396C4.48167 8.51833 3.90449 9.09551 3.54497 9.80112C3.42605 10.0345 3.32566 10.2769 3.24472 10.526C3 11.2791 3 12.0954 3 13.7279V18C3 19.6569 4.34315 21 6 21V21C7.65685 21 9 19.6569 9 18V17C9 15.3431 10.3431 14 12 14V14C13.6569 14 15 15.3431 15 17V18C15 19.6569 16.3431 21 18 21V21C19.6569 21 21 19.6569 21 18V13.7279C21 12.0954 21 11.2791 20.7553 10.526C20.6743 10.2769 20.5739 10.0345 20.455 9.80112C20.0955 9.09551 19.5183 8.51833 18.364 7.36396L18 7" stroke="#292556" stroke-width="1.5" stroke-linecap="round" stroke-linejoin="round"/>
</svg>
