<svg width="24" height="24" viewBox="0 0 24 24" fill="none" xmlns="http://www.w3.org/2000/svg">
<path d="M19.7945 13.4014L17.9836 11C17.9945 10.8347 18 10.668 18 10.5C18 6.35786 14.6421 3 10.5 3C6.35786 3 3 6.35786 3 10.5C3 13.378 4.6211 15.8775 7 17.135V19.65C7 20.2125 7 20.4937 7.14324 20.6908C7.1895 20.7545 7.24549 20.8105 7.30916 20.8568C7.50631 21 7.78754 21 8.35 21H12.75C13.2173 21 13.451 21 13.625 20.8995C13.739 20.8337 13.8337 20.739 13.8995 20.625C14 20.451 14 20.2173 14 19.75C14 19.2827 14 19.049 14.1005 18.875C14.1663 18.761 14.261 18.6663 14.375 18.6005C14.549 18.5 14.7827 18.5 15.25 18.5H16.65C17.2125 18.5 17.4937 18.5 17.6908 18.3568C17.7545 18.3105 17.8105 18.2545 17.8568 18.1908C18 17.9937 18 17.7125 18 17.15V15.9978C18 15.7674 18 15.6521 18.0251 15.5575C18.0942 15.2974 18.2974 15.0942 18.5575 15.0251C18.6521 15 18.7674 15 18.9978 15C19.4219 15 19.634 15 19.7637 14.9503C20.127 14.8109 20.3234 14.4168 20.2159 14.0428C20.1775 13.9093 20.0499 13.74 19.7945 13.4014Z" stroke="#292556" stroke-width="1.5" stroke-linecap="round" stroke-linejoin="round"/>
<path d="M7.90019 8.7624C7.85664 8.60834 7.83333 8.44578 7.83333 8.27778C7.83333 7.29594 8.62927 6.5 9.61111 6.5C9.93492 6.5 10.2385 6.58657 10.5 6.73783M7.90019 8.7624C7.09973 8.93553 6.5 9.64773 6.5 10.5C6.5 11.3523 7.09973 12.0645 7.90019 12.2376C7.85664 12.3917 7.83333 12.5542 7.83333 12.7222C7.83333 13.7041 8.62927 14.5 9.61111 14.5C9.93492 14.5 10.2385 14.4134 10.5 14.2622M7.90019 8.7624C7.96428 8.98913 8.07223 9.19744 8.21429 9.37761M10.5 6.73783C10.7615 6.58657 11.0651 6.5 11.3889 6.5C12.3707 6.5 13.1667 7.29594 13.1667 8.27778C13.1667 8.44578 13.1434 8.60834 13.0998 8.7624C13.9003 8.93553 14.5 9.64773 14.5 10.5C14.5 11.3523 13.9003 12.0645 13.0998 12.2376M10.5 6.73783V14.2622M10.5 14.2622C10.7615 14.4134 11.0651 14.5 11.3889 14.5C12.3707 14.5 13.1667 13.7041 13.1667 12.7222C13.1667 12.5542 13.1434 12.3917 13.0998 12.2376M13.0998 12.2376C13.0357 12.0109 12.9278 11.8026 12.7857 11.6224" stroke="#292556" stroke-opacity="0.18" stroke-width="1.5" stroke-linecap="round" stroke-linejoin="round"/>
</svg>
