<svg width="24" height="24" viewBox="0 0 24 24" fill="none" xmlns="http://www.w3.org/2000/svg">
<path fill-rule="evenodd" clip-rule="evenodd" d="M19.2411 17.5193C19.9549 17.6345 20.5001 18.2536 20.5001 19C20.5001 19.8284 19.8285 20.5 19.0001 20.5C18.2537 20.5 17.6346 19.9549 17.5193 19.241C16.1934 19.8624 14.5649 19.6255 13.4697 18.5303L11.4697 16.5303L12.5304 15.4697L14.5304 17.4697C15.3421 18.2814 16.6581 18.2814 17.4697 17.4697C18.2814 16.658 18.2814 15.342 17.4697 14.5304L15.4697 12.5303L16.5304 11.4697L18.5304 13.4697C19.6256 14.5649 19.8625 16.1934 19.2411 17.5193Z" fill="#292556" fill-opacity="0.18"/>
<path d="M12.0003 16.0003L10.0003 18.0003C8.89572 19.1048 7.10487 19.1048 6.0003 18.0003C4.89573 16.8957 4.89573 15.1048 6.0003 14.0003L14.0003 6.0003C15.1048 4.89573 16.8957 4.89573 18.0003 6.0003C19.1048 7.10487 19.1048 8.89572 18.0003 10.0003L16.0003 12.0003M12.0003 16.0003L6.00035 10.0003C4.89578 8.89573 4.89578 7.10488 6.00035 6.00031C7.10491 4.89574 8.89577 4.89574 10.0003 6.00031L16.0003 12.0003M12.0003 16.0003L16.0003 12.0003" stroke="#292556" stroke-width="1.5" stroke-linejoin="round"/>
<path d="M3.5 5C3.5 4.17157 4.17157 3.5 5 3.5C5.82843 3.5 6.5 4.17157 6.5 5C6.5 5.82843 5.82843 6.5 5 6.5C4.17157 6.5 3.5 5.82843 3.5 5Z" fill="#292556"/>
<path d="M17.5 5C17.5 4.17157 18.1716 3.5 19 3.5C19.8284 3.5 20.5 4.17157 20.5 5C20.5 5.82843 19.8284 6.5 19 6.5C18.1716 6.5 17.5 5.82843 17.5 5Z" fill="#292556"/>
<path d="M3.5 19C3.5 18.1716 4.17157 17.5 5 17.5C5.82843 17.5 6.5 18.1716 6.5 19C6.5 19.8284 5.82843 20.5 5 20.5C4.17157 20.5 3.5 19.8284 3.5 19Z" fill="#292556"/>
</svg>
