<svg width="24" height="24" viewBox="0 0 24 24" fill="none" xmlns="http://www.w3.org/2000/svg">
<path d="M9.5 6H8.4C6.15016 6 5.02524 6 4.23664 6.57295C3.98196 6.75799 3.75799 6.98196 3.57295 7.23664C3 8.02524 3 9.15016 3 11.4V12" stroke="#292556" stroke-opacity="0.18" stroke-width="1.5" stroke-linecap="round" stroke-linejoin="round"/>
<path d="M9.5 6H13.6245C14.663 6 15.1822 6 15.6568 6.16337C15.8136 6.21736 15.9657 6.28426 16.1115 6.36339C16.5526 6.60284 16.9035 6.98559 17.6052 7.75109L19.5488 9.87147C20.368 10.7651 20.7777 11.212 20.8568 11.7413C20.8824 11.9128 20.8824 12.0872 20.8568 12.2587C20.7777 12.788 20.368 13.2349 19.5488 14.1285L17.6052 16.2489C16.9035 17.0144 16.5526 17.3972 16.1115 17.6366C15.9657 17.7157 15.8136 17.7826 15.6568 17.8366C15.1822 18 14.663 18 13.6245 18H8.4C6.15016 18 5.02524 18 4.23664 17.4271C3.98196 17.242 3.75799 17.018 3.57295 16.7634C3 15.9748 3 14.8498 3 12.6V12" stroke="#292556" stroke-width="1.5" stroke-linecap="round" stroke-linejoin="round"/>
</svg>
