<svg width="24" height="24" viewBox="0 0 24 24" fill="none" xmlns="http://www.w3.org/2000/svg">
<path d="M11 19V12H13V19M11 19H13M11 19H9C8.44772 19 8 19.4477 8 20V20C8 20.5523 8.44772 21 9 21H15C15.5523 21 16 20.5523 16 20V20C16 19.4477 15.5523 19 15 19H13" stroke="#292556" stroke-opacity="0.18" stroke-width="1.5" stroke-linecap="round" stroke-linejoin="round"/>
<path d="M16.5 12H17.254C18.7616 12 19.5154 12 19.949 11.5903C20.087 11.46 20.199 11.3046 20.279 11.1325C20.5305 10.5916 20.2921 9.87645 19.8154 8.44619L18.8205 5.46158C18.4698 4.4095 18.2945 3.88345 17.9209 3.53584C17.7988 3.42224 17.663 3.32436 17.5167 3.24447C17.0688 3 16.5143 3 15.4053 3H8.59473C7.48574 3 6.93124 3 6.48334 3.24447C6.33696 3.32436 6.20116 3.42224 6.07908 3.53584C5.70552 3.88345 5.53017 4.40949 5.17947 5.46158L4.18461 8.44618C3.70785 9.87644 3.46948 10.5916 3.721 11.1325C3.80104 11.3046 3.91302 11.46 4.051 11.5903C4.48461 12 5.23842 12 6.74605 12H11H13H16.5ZM16.5 12V16" stroke="#292556" stroke-width="1.5" stroke-linecap="round" stroke-linejoin="round"/>
</svg>
