<svg width="24" height="24" viewBox="0 0 24 24" fill="none" xmlns="http://www.w3.org/2000/svg">
<path d="M12 3L12 9.99995M12 21V9.99995M12 9.99995H21" stroke="#292556" stroke-opacity="0.18" stroke-width="1.5" stroke-linejoin="round"/>
<path d="M12 3.00005L14 3.00005C16.8089 3.00005 18.2134 3.00005 19.2222 3.67415C19.659 3.96599 20.0341 4.34102 20.3259 4.7778C21 5.78669 21 7.19112 21 10V13.8001C21 16.7998 21 18.2997 20.2361 19.3512C19.9893 19.6908 19.6907 19.9894 19.3511 20.2361C18.2997 21.0001 16.7998 21.0001 13.8 21.0001H12H10.2C7.20021 21.0001 5.70032 21.0001 4.64886 20.2361C4.30928 19.9894 4.01065 19.6908 3.76393 19.3512C3 18.2997 3 16.7998 3 13.8001V10.2001C3 7.20027 3 5.70037 3.76393 4.64891C4.01065 4.30933 4.30928 4.0107 4.64886 3.76398C5.70032 3.00005 7.20021 3.00005 10.2 3.00005L12 3.00005Z" stroke="#292556" stroke-width="1.5" stroke-linejoin="round"/>
</svg>
