<svg width="24" height="24" viewBox="0 0 24 24" fill="none" xmlns="http://www.w3.org/2000/svg">
<path d="M13.3407 10.7025H16.3752M13.3407 10.7025V7.66797M13.3407 10.7025L9.73729 14.3059M9.73729 14.3059H14.289M9.73729 14.3059V9.75417M9.73729 14.3059L6.3235 17.7197C4.98741 19.0558 4.2396 19.8036 4.08008 20.9992" stroke="#292556" stroke-opacity="0.18" stroke-width="1.5" stroke-linecap="round" stroke-linejoin="round"/>
<path d="M19.1983 13.9052C21.7121 11.3913 21.7121 7.31557 19.1983 4.80173V4.80173C16.6844 2.28788 12.6087 2.28787 10.0948 4.80172L6.30172 8.59483C3.78788 11.1087 3.78788 15.1844 6.30172 17.6983V17.6983C8.81557 20.2121 12.8913 20.2121 15.4052 17.6983L19.1983 13.9052Z" stroke="#292556" stroke-width="1.5" stroke-linecap="round" stroke-linejoin="round"/>
</svg>
