<svg width="24" height="24" viewBox="0 0 24 24" fill="none" xmlns="http://www.w3.org/2000/svg">
<path d="M9.87545 14.122L5.63281 18.3646M9.87545 14.122C10.4183 14.6649 11.1683 15.0007 11.9968 15.0007C12.8252 15.0007 13.5752 14.6649 14.1181 14.122M9.87545 14.122C9.33256 13.5791 8.99677 12.8291 8.99677 12.0007C8.99677 11.1723 9.33256 10.4223 9.87545 9.87936M18.3607 5.63672L14.1181 9.87936M14.1181 9.87936C13.5752 9.33647 12.8252 9.00068 11.9968 9.00068C11.1683 9.00068 10.4183 9.33647 9.87545 9.87936M14.1181 9.87936C14.661 10.4223 14.9968 11.1723 14.9968 12.0007C14.9968 12.8291 14.661 13.5791 14.1181 14.122M14.1181 14.122L18.3607 18.3646M5.63281 5.63672L9.87545 9.87936" stroke="#292556" stroke-opacity="0.18" stroke-width="1.5" stroke-linecap="round" stroke-linejoin="round"/>
<path d="M12 21C16.9706 21 21 16.9706 21 12C21 7.02944 16.9706 3 12 3C7.02944 3 3 7.02944 3 12C3 16.9706 7.02944 21 12 21Z" stroke="#292556" stroke-width="1.5" stroke-linecap="round" stroke-linejoin="round"/>
</svg>
