<svg width="24" height="24" viewBox="0 0 24 24" fill="none" xmlns="http://www.w3.org/2000/svg">
<path d="M12.0001 3C7.02956 3 2.99997 7 4.00012 12C4.66541 15.3259 7.98533 18.4306 10.1339 20.1367C10.8361 20.6944 11.1873 20.9732 11.7325 21.0468C11.8836 21.0672 12.1166 21.0672 12.2678 21.0468C12.813 20.9732 13.1641 20.6944 13.8663 20.1368L13.8664 20.1368C16.015 18.4306 19.335 15.3259 20.0001 12C21 7 16.9707 3 12.0001 3Z" stroke="#292556" stroke-width="1.5" stroke-linejoin="round"/>
<path d="M15 11.1504C15 12.8072 13.6569 14.1504 12 14.1504C10.3431 14.1504 9 12.8072 9 11.1504C9 9.49354 10.3431 8.15039 12 8.15039C13.6569 8.15039 15 9.49354 15 11.1504Z" stroke="#292556" stroke-opacity="0.18" stroke-width="1.5" stroke-linejoin="round"/>
</svg>
