<svg width="24" height="24" viewBox="0 0 24 24" fill="none" xmlns="http://www.w3.org/2000/svg">
<path d="M9.03613 4.79704C9.7624 4.05613 10.6905 3.49396 11.7652 3.20598C14.9664 2.34823 18.2567 4.24765 19.1144 7.44845C19.4024 8.52328 19.3794 9.60818 19.1007 10.6077" stroke="#292556" stroke-opacity="0.18" stroke-width="1.5" stroke-linecap="round" stroke-linejoin="round"/>
<path d="M19.1152 7.44852C19.4032 8.52335 19.3802 9.60826 19.1015 10.6077M10.3187 14.198C11.6486 14.9657 13.2714 15.226 14.8719 14.7972C15.9469 14.5091 16.8751 13.9468 17.6015 13.2056M10.3187 14.198C8.98869 13.4303 7.9516 12.1552 7.52275 10.5547C7.23469 9.47963 7.2577 8.39448 7.53661 7.39481M10.3187 14.198L6.39207 21.0001M11.766 3.20605C10.6913 3.49404 9.7632 4.0562 9.03693 4.79712M9.03693 4.79712L8.43989 4.45242C7.72264 4.03833 6.80551 4.28393 6.3912 5.00105V5.00105C5.97671 5.71848 6.22244 6.63609 6.94 7.05037L7.53661 7.39481M9.03693 4.79712L19.1015 10.6077M7.53661 7.39481L17.6015 13.2056M17.6015 13.2056L18.1978 13.5499C18.915 13.964 19.8321 13.7184 20.2465 13.0013V13.0013C20.661 12.2838 20.4152 11.3662 19.6977 10.9519L19.1015 10.6077" stroke="#292556" stroke-width="1.5" stroke-linecap="round" stroke-linejoin="round"/>
</svg>
