<svg width="24" height="24" viewBox="0 0 24 24" fill="none" xmlns="http://www.w3.org/2000/svg">
<path d="M4.00977 19.9815L8.9004 15.0908" stroke="#292556" stroke-opacity="0.18" stroke-width="1.5" stroke-linecap="round" stroke-linejoin="round"/>
<path d="M13.7907 10.2006L14.2968 12.6265C14.4969 13.5856 14.5969 14.0651 14.8515 14.1629C14.9296 14.1928 15.014 14.2028 15.0969 14.1917C15.3672 14.1556 15.5756 13.7122 15.9923 12.8255L16.617 11.4966C16.7454 11.2233 16.8096 11.0867 16.9229 11.0097C16.9599 10.9847 17 10.9646 17.0422 10.9502C17.1719 10.9059 17.3197 10.9368 17.6153 10.9984L19.0278 11.2931C20.0865 11.5139 20.6159 11.6244 20.8079 11.4189C20.8666 11.3562 20.9081 11.2794 20.9284 11.196C20.9951 10.9228 20.6127 10.5404 19.848 9.77565L18.6474 8.57505C18.456 8.38367 18.3603 8.28798 18.3239 8.1684C18.312 8.1293 18.3049 8.08888 18.3029 8.04806C18.2965 7.92323 18.3541 7.80075 18.4692 7.55581L19.211 5.9777C19.6012 5.14741 19.7964 4.73227 19.6592 4.50363C19.617 4.43326 19.5581 4.37437 19.4877 4.33215C19.2591 4.19496 18.8439 4.39009 18.0136 4.78034L16.4355 5.5221C16.1906 5.63723 16.0681 5.69479 15.9433 5.68848C15.9025 5.68641 15.862 5.67935 15.8229 5.66745C15.7034 5.63105 15.6077 5.53536 15.4163 5.34398L14.2157 4.14337C13.4509 3.37862 13.0685 2.99624 12.7953 3.06291C12.7119 3.08327 12.6351 3.12476 12.5724 3.1834C12.367 3.37545 12.4774 3.90482 12.6983 4.96356L12.9929 6.37608C13.0546 6.67167 13.0854 6.81947 13.0411 6.9491C13.0267 6.99134 13.0067 7.03146 12.9816 7.06838C12.9046 7.18171 12.768 7.24593 12.4947 7.37438L11.1658 7.999C10.2791 8.41577 9.83576 8.62416 9.79966 8.89446C9.78858 8.97738 9.79849 9.06175 9.82847 9.13985C9.92619 9.39444 10.4057 9.49447 11.3649 9.69455L13.7907 10.2006ZM13.7907 10.2006L8.90009 15.0912" stroke="#292556" stroke-width="1.5" stroke-linecap="round" stroke-linejoin="round"/>
</svg>
