<svg width="24" height="24" viewBox="0 0 24 24" fill="none" xmlns="http://www.w3.org/2000/svg">
<path d="M12.2971 6.32099C11.75 6.58793 11.1549 6.89851 10.606 7.22533L9.13477 4.67849C9.78322 4.29726 10.4668 3.937 11.116 3.61742C11.8392 3.26136 12.7037 3.59029 13.0392 4.32335C13.3828 5.07439 13.0394 5.9588 12.2971 6.32099Z" stroke="#292556" stroke-opacity="0.18" stroke-width="1.5" stroke-linejoin="round"/>
<path d="M16.7838 13.3964C17.1095 12.85 17.4165 12.2635 17.6803 11.7243C18.0417 10.9856 18.9212 10.6427 19.6699 10.9829C20.4054 11.3171 20.735 12.1844 20.3759 12.908C20.0583 13.5478 19.7017 14.2198 19.3229 14.8615L16.7838 13.3964Z" stroke="#292556" stroke-opacity="0.18" stroke-width="1.5" stroke-linejoin="round"/>
<path d="M3.43019 10.4727C1.31696 16.6463 7.35641 22.6823 13.5336 20.5703C15.9069 19.7589 17.8725 17.3188 19.3229 14.8617L16.7838 13.3966C15.7767 15.0864 14.4 16.8353 12.7807 17.4447C8.76565 18.9557 5.04569 15.2379 6.55758 11.2252C7.16708 9.60746 8.91587 8.23195 10.606 7.22555L9.13475 4.67871C6.68526 6.11881 4.24935 8.07955 3.43019 10.4727Z" stroke="#292556" stroke-width="1.5" stroke-linejoin="round"/>
</svg>
