<svg width="24" height="24" viewBox="0 0 24 24" fill="none" xmlns="http://www.w3.org/2000/svg">
<path d="M8.5 4V18M15.5 6V20" stroke="#292556" stroke-opacity="0.18" stroke-width="1.5" stroke-linejoin="round"/>
<path d="M3 8.52154C3 7.44189 3 6.90207 3.23422 6.4617C3.31082 6.31767 3.40476 6.18355 3.51395 6.06233C3.84776 5.69172 4.35508 5.50724 5.36973 5.13828L7.40305 4.39889C7.88605 4.22325 8.12755 4.13544 8.3785 4.11078C8.46173 4.1026 8.5454 4.09965 8.629 4.10195C8.88106 4.10887 9.12815 4.17947 9.62232 4.32066L14.4586 5.70245C14.8724 5.82068 15.0793 5.8798 15.2897 5.89416C15.4274 5.90356 15.5656 5.89869 15.7023 5.87962C15.9112 5.85048 16.1134 5.77694 16.5179 5.62986V5.62986C18.1345 5.04199 18.9428 4.74806 19.5806 4.94152C19.9878 5.06505 20.345 5.31524 20.6002 5.65572C21 6.18895 21 7.04905 21 8.76926V15.4785C21 16.5581 21 17.0979 20.7658 17.5383C20.6892 17.6823 20.5952 17.8165 20.4861 17.9377C20.1522 18.3083 19.6449 18.4928 18.6303 18.8617L16.597 19.6011C16.1139 19.7767 15.8724 19.8646 15.6215 19.8892C15.5383 19.8974 15.4546 19.9003 15.371 19.8981C15.1189 19.8911 14.8719 19.8205 14.3777 19.6793L9.54142 18.2975C9.12761 18.1793 8.9207 18.1202 8.71026 18.1058C8.57261 18.0964 8.43436 18.1013 8.29771 18.1204C8.08881 18.1495 7.88658 18.2231 7.48211 18.3701V18.3701C5.86548 18.958 5.05716 19.2519 4.41942 19.0585C4.01221 18.9349 3.65501 18.6848 3.39976 18.3443C3 17.811 3 16.9509 3 15.2307V8.52154Z" stroke="#292556" stroke-width="1.5" stroke-linejoin="round"/>
</svg>
