<svg width="24" height="24" viewBox="0 0 24 24" fill="none" xmlns="http://www.w3.org/2000/svg">
<path d="M10 10H14M10 14H14" stroke="#292556" stroke-opacity="0.18" stroke-width="1.5" stroke-linecap="round" stroke-linejoin="round"/>
<path d="M17.26 13.74V10.26C17.26 9.08844 17.26 8.50266 17.1382 8.02046C16.7782 6.59493 15.6651 5.48185 14.2395 5.12179C13.7573 5 13.1716 5 12 5C10.8284 5 10.2426 5 9.76045 5.12179C8.33492 5.48185 7.22184 6.59493 6.86178 8.02046C6.73999 8.50266 6.73999 9.08844 6.73999 10.26V13.74C6.73999 14.9116 6.73999 15.4973 6.86178 15.9795C7.22184 17.4051 8.33492 18.5182 9.76045 18.8782C10.2426 19 10.8284 19 12 19C13.1716 19 13.7573 19 14.2395 18.8782C15.6651 18.5182 16.7782 17.4051 17.1382 15.9795C17.26 15.4973 17.26 14.9116 17.26 13.74Z" stroke="#292556" stroke-width="1.5" stroke-linecap="round" stroke-linejoin="round"/>
<path d="M5 7C3.89543 7 3 8.34315 3 10C3 12.6713 4.47297 15.0369 6.73633 16.4898V8.51015C6.3915 7.60785 5.74307 7 5 7Z" stroke="#292556" stroke-width="1.5" stroke-linecap="round" stroke-linejoin="round"/>
<path d="M21 10C21 8.34315 20.1046 7 19 7C18.2569 7 17.6085 7.60785 17.2637 8.51015V16.4898C19.527 15.0369 21 12.6713 21 10Z" stroke="#292556" stroke-width="1.5" stroke-linecap="round" stroke-linejoin="round"/>
</svg>
