<svg width="24" height="24" viewBox="0 0 24 24" fill="none" xmlns="http://www.w3.org/2000/svg">
<path d="M21 10V10C21 8.13623 21 7.20435 20.6955 6.46927C20.2895 5.48915 19.5108 4.71046 18.5307 4.30448C17.7956 4 16.8638 4 15 4H14.5" stroke="#292556" stroke-opacity="0.18" stroke-width="1.5" stroke-linecap="round" stroke-linejoin="round"/>
<path d="M21 10V11.5143C21 12.8965 21 13.5876 20.831 14.1504C20.4445 15.4375 19.4375 16.4445 18.1504 16.831C17.5876 17 16.8965 17 15.5143 17V17C15.3783 17 15.3103 17 15.2465 17.0111C15.1019 17.0362 14.9679 17.1033 14.861 17.2038C14.8138 17.2482 14.773 17.3026 14.6914 17.4114L14.16 18.12C13.2866 19.2845 12.85 19.8667 12.2766 19.9743C12.0938 20.0086 11.9062 20.0086 11.7234 19.9743C11.15 19.8667 10.7134 19.2845 9.84 18.12L9.30857 17.4114C9.22696 17.3026 9.18616 17.2482 9.13901 17.2038C9.03214 17.1033 8.89811 17.0362 8.75352 17.0111C8.68974 17 8.62173 17 8.48571 17V17C7.1035 17 6.41239 17 5.8496 16.831C4.5625 16.4445 3.5555 15.4375 3.169 14.1504C3 13.5876 3 12.8965 3 11.5143V10.5C3 8.16537 3 6.99805 3.47231 6.11441C3.84525 5.4167 4.4167 4.84525 5.11441 4.47231C5.99805 4 7.16537 4 9.5 4H15" stroke="#292556" stroke-width="1.5" stroke-linecap="round" stroke-linejoin="round"/>
</svg>
