<svg width="24" height="24" viewBox="0 0 24 24" fill="none" xmlns="http://www.w3.org/2000/svg">
<path d="M4.7281 10.082L4.32226 8.87942C3.43158 6.24016 2.98624 4.92052 3.49413 4.11558C3.6528 3.86411 3.86554 3.65119 4.11687 3.4923C4.92137 2.98372 6.24139 3.42791 8.88143 4.31631L10.0878 4.72227" stroke="#292556" stroke-opacity="0.18" stroke-width="1.5" stroke-linejoin="round"/>
<path d="M4.72754 10.0824L6.66105 15.8118C7.12051 17.1733 7.35024 17.854 7.55168 18.1169C8.40904 19.2361 10.1242 19.1407 10.8521 17.9333C11.0231 17.6497 11.1759 16.9477 11.4815 15.5436V15.5436C11.5239 15.3488 11.5451 15.2515 11.5768 15.1913C11.7082 14.9417 12.0201 14.8501 12.2656 14.9891C12.3247 15.0226 12.3952 15.0931 12.5362 15.234L16.9874 19.6852C17.7287 20.4265 18.9306 20.4265 19.6719 19.6852V19.6852C20.4132 18.9439 20.4132 17.742 19.6719 17.0007L15.2233 12.5521C15.0786 12.4074 15.0063 12.3351 14.9723 12.274C14.8368 12.0304 14.9267 11.723 15.1721 11.5908C15.2336 11.5576 15.3335 11.5356 15.5334 11.4917V11.4917C16.9743 11.1748 17.6947 11.0164 17.9845 10.8371C19.1691 10.1043 19.2605 8.41533 18.162 7.55895C17.8932 7.34942 17.1941 7.11416 15.7958 6.64363L10.0873 4.72266" stroke="#292556" stroke-width="1.5" stroke-linecap="round" stroke-linejoin="round"/>
</svg>
