<svg width="24" height="24" viewBox="0 0 24 24" fill="none" xmlns="http://www.w3.org/2000/svg">
<path d="M12 21H14.8816C15.3714 21 15.6163 21 15.8422 20.9266C15.9169 20.9023 15.9896 20.8722 16.0597 20.8365C16.2713 20.7287 16.4445 20.5555 16.7908 20.2092L18.5 18.5" stroke="#292556" stroke-opacity="0.18" stroke-width="1.5" stroke-linecap="round" stroke-linejoin="round"/>
<path d="M12 21H9.11838C8.62862 21 8.38374 21 8.15779 20.9266C8.08306 20.9023 8.01035 20.8722 7.94033 20.8365C7.72865 20.7287 7.5555 20.5555 7.20919 20.2092L3.79081 16.7908C3.4445 16.4445 3.27135 16.2713 3.16349 16.0597C3.12782 15.9896 3.0977 15.9169 3.07342 15.8422C3 15.6163 3 15.3714 3 14.8816V9.11838C3 8.62862 3 8.38374 3.07342 8.15779C3.0977 8.08306 3.12782 8.01035 3.16349 7.94033C3.27135 7.72865 3.4445 7.5555 3.79081 7.20919L7.20919 3.79081C7.5555 3.4445 7.72865 3.27135 7.94033 3.16349C8.01035 3.12782 8.08306 3.0977 8.15779 3.07342C8.38374 3 8.62862 3 9.11838 3H14.8816C15.3714 3 15.6163 3 15.8422 3.07342C15.9169 3.0977 15.9896 3.12782 16.0597 3.16349C16.2713 3.27135 16.4445 3.4445 16.7908 3.79081L20.2092 7.20919C20.5555 7.5555 20.7287 7.72865 20.8365 7.94033C20.8722 8.01035 20.9023 8.08306 20.9266 8.15779C21 8.38374 21 8.62862 21 9.11838V14.8816C21 15.3714 21 15.6163 20.9266 15.8422C20.9023 15.9169 20.8722 15.9896 20.8365 16.0597C20.7287 16.2713 20.5555 16.4445 20.2092 16.7908L18.5 18.5" stroke="#292556" stroke-width="1.5" stroke-linecap="round" stroke-linejoin="round"/>
</svg>
