<svg width="24" height="24" viewBox="0 0 24 24" fill="none" xmlns="http://www.w3.org/2000/svg">
<path d="M3 20.9995L8.32955 18.8723L7.90348 16.0953L5.1272 15.6699L3 20.9995Z" stroke="#292556" stroke-opacity="0.18" stroke-width="1.5" stroke-linecap="round" stroke-linejoin="round"/>
<path fill-rule="evenodd" clip-rule="evenodd" d="M9.48419 10.2521L4.59664 15.1397C4.39674 15.3396 4.32623 15.6349 4.41427 15.9036C4.5023 16.1722 4.73393 16.3685 5.01337 16.4113L7.24543 16.7534L7.588 18.9861C7.63087 19.2655 7.82721 19.4971 8.09584 19.5851C8.36447 19.6731 8.65977 19.6026 8.85966 19.4027L13.7472 14.5151L12.6865 13.4545L8.84608 17.2949L8.64458 15.9817C8.59489 15.6578 8.34072 15.4037 8.01686 15.3541L6.70463 15.153L10.5448 11.3128L9.48419 10.2521ZM14.4543 11.6867L18.3436 7.79743L16.2019 5.65574L12.3126 9.54501L11.252 8.48435L15.6716 4.06474L16.6659 3.0704C17.8431 1.8932 19.7517 1.8932 20.9289 3.0704C22.1061 4.2476 22.1061 6.15621 20.9289 7.33341L19.9346 8.32776L15.515 12.7474L14.4543 11.6867ZM17.7266 4.13106C18.318 3.53965 19.2769 3.53965 19.8683 4.13106C20.4597 4.72247 20.4597 5.68134 19.8683 6.27275L19.4042 6.73677L17.2626 4.59507L17.7266 4.13106Z" fill="#292556"/>
<path d="M21 21L3 3" stroke="#292556" stroke-width="1.5" stroke-linecap="round" stroke-linejoin="round"/>
</svg>
