<svg width="24" height="24" viewBox="0 0 24 24" fill="none" xmlns="http://www.w3.org/2000/svg">
<path d="M4.02513 4.0716L3.4949 3.54117L3.4949 3.54117L4.02513 4.0716ZM8.97487 4.0716L9.5051 3.54117L8.97487 4.0716ZM8.97487 9.01942L8.44465 8.48898L8.44465 8.48898L8.97487 9.01942ZM3.01853 6.90616L3.76852 6.9019C3.76838 6.87764 3.76707 6.8534 3.76458 6.82926L3.01853 6.90616ZM7.05559 10L6.9372 9.25944C6.69728 9.29779 6.49081 9.44999 6.38319 9.66782C6.27556 9.88565 6.28013 10.1421 6.39544 10.356L7.05559 10ZM7.01069 11.403C7.23328 11.7524 7.69691 11.8551 8.04623 11.6325C8.39555 11.4099 8.49829 10.9463 8.2757 10.597L7.01069 11.403ZM3.93533 12.8572C4.1326 13.2214 4.58779 13.3568 4.952 13.1595C5.31622 12.9622 5.45155 12.507 5.25427 12.1428L3.93533 12.8572ZM4.55535 4.60203C5.62932 3.52849 7.37068 3.52849 8.44465 4.60203L9.5051 3.54117C7.8454 1.88211 5.1546 1.88211 3.4949 3.54117L4.55535 4.60203ZM8.44465 4.60203C9.51845 5.67542 9.51845 7.4156 8.44465 8.48898L9.5051 9.54985C11.165 7.89063 11.165 5.20039 9.5051 3.54117L8.44465 4.60203ZM3.76458 6.82926C3.6825 6.03286 3.94644 5.21071 4.55535 4.60203L3.4949 3.54117C2.5532 4.4825 2.14608 5.75662 2.27248 6.98305L3.76458 6.82926ZM8.44465 8.48898C8.01844 8.91502 7.48913 9.17121 6.9372 9.25944L7.17398 10.7406C8.02737 10.6042 8.84804 10.2067 9.5051 9.54985L8.44465 8.48898ZM8.2757 10.597C8.07445 10.2811 7.88774 9.96309 7.71575 9.6441L6.39544 10.356C6.58497 10.7075 6.79016 11.0569 7.01069 11.403L8.2757 10.597ZM5.25427 12.1428C4.2759 10.3365 3.77767 8.5149 3.76852 6.9019L2.26854 6.91041C2.27935 8.81496 2.86295 10.8774 3.93533 12.8572L5.25427 12.1428Z" fill="#292556" fill-opacity="0.18"/>
<path fill-rule="evenodd" clip-rule="evenodd" d="M9.25873 11.9737C8.90018 11.5226 8.57229 11.0624 8.27577 10.5971C8.05318 10.2477 7.58956 10.145 7.24023 10.3676C6.89091 10.5902 6.78817 11.0538 7.01076 11.4031C7.36503 11.9591 7.7591 12.5067 8.19174 13.0407L9.25873 11.9737ZM8.48001 16.2879C11.2245 18.8672 14.4397 20.2165 17.1037 20.2316C17.1279 20.2317 17.1522 20.2331 17.1763 20.2355C17.9733 20.3176 18.7959 20.0536 19.4049 19.445C20.4787 18.3716 20.4787 16.6314 19.4049 15.558C18.3309 14.4845 16.5895 14.4845 15.5156 15.558C15.0894 15.984 14.8332 16.5131 14.7449 17.0646C14.7066 17.3044 14.5544 17.5109 14.3366 17.6185C14.1189 17.7261 13.8625 17.7216 13.6486 17.6064C12.3481 16.9057 11.0743 15.99 9.89327 14.8747L10.9544 13.8135C11.7856 14.5946 12.6624 15.2651 13.5562 15.82C13.7632 15.3393 14.063 14.8891 14.4551 14.4971C16.1148 12.8381 18.8056 12.8381 20.4653 14.4971C22.1252 16.1564 22.1252 18.8466 20.4653 20.5058C19.5332 21.4376 18.2749 21.8457 17.0598 21.7313C13.9345 21.702 10.3731 20.1384 7.4189 17.349L8.48001 16.2879ZM6.78428 14.4481C6.18847 13.6987 5.67744 12.924 5.25434 12.1429C5.05707 11.7787 4.60188 11.6433 4.23767 11.8406C3.87345 12.0379 3.73812 12.4931 3.9354 12.8573C4.42649 13.7639 5.02218 14.6573 5.7173 15.5151L6.78428 14.4481Z" fill="#292556"/>
<path d="M3 21L21 3" stroke="#292556" stroke-width="1.5" stroke-linecap="round" stroke-linejoin="round"/>
</svg>
