<svg width="24" height="24" viewBox="0 0 24 24" fill="none" xmlns="http://www.w3.org/2000/svg">
<path d="M16.3987 16.4411L15.8685 15.9107L15.8685 15.9107L16.3987 16.4411ZM21.1462 10.2238C21.2698 9.82849 21.0495 9.40779 20.6542 9.28418C20.2589 9.16056 19.8382 9.38084 19.7145 9.77617L21.1462 10.2238ZM9.73141 19.7553C9.33605 19.8789 9.11568 20.2995 9.23921 20.6949C9.36273 21.0902 9.78338 21.3106 10.1787 21.1871L9.73141 19.7553ZM16.9289 16.9715C18.9833 14.918 20.4198 12.5468 21.1462 10.2238L19.7145 9.77617C19.067 11.8472 17.7672 14.0127 15.8685 15.9107L16.9289 16.9715ZM10.1787 21.1871C12.5025 20.461 14.8746 19.0251 16.9289 16.9715L15.8685 15.9107C13.9697 17.8087 11.8034 19.108 9.73141 19.7553L10.1787 21.1871Z" fill="#292556" fill-opacity="0.18"/>
<path d="M19.935 4.0716L20.4653 3.54117L20.4653 3.54117L19.935 4.0716ZM14.9853 9.01942L15.5155 8.48898L15.5155 8.48898L14.9853 9.01942ZM8.97487 15.0275L8.44465 15.5579L8.44465 15.5579L8.97487 15.0275ZM4.02513 19.9753L3.4949 20.5057L3.4949 20.5057L4.02513 19.9753ZM20.9416 6.90616L20.1956 6.82926C20.1931 6.8534 20.1918 6.87764 20.1916 6.9019L20.9416 6.90616ZM6.86079 20.9815L6.85653 20.2315C6.83229 20.2316 6.80807 20.233 6.78395 20.2354L6.86079 20.9815ZM16.9046 10L17.5647 10.356C17.68 10.1421 17.6846 9.88565 17.577 9.66782C17.4693 9.44999 17.2629 9.29779 17.023 9.25944L16.9046 10ZM13.9246 13.9672L13.3944 13.4368L13.3944 13.4368L13.9246 13.9672ZM9.95588 16.946L9.2153 17.0645C9.25367 17.3043 9.40583 17.5108 9.62359 17.6184C9.84136 17.726 10.0978 17.7215 10.3116 17.6063L9.95588 16.946ZM19.7153 9.77621C19.5917 10.1715 19.812 10.5922 20.2073 10.7159C20.6027 10.8395 21.0234 10.6192 21.147 10.2239L19.7153 9.77621ZM10.1795 21.1871C10.5749 21.0636 10.7953 20.6429 10.6717 20.2476C10.5482 19.8522 10.1276 19.6318 9.73221 19.7554L10.1795 21.1871ZM20.4653 3.54117C18.8056 1.88211 16.1148 1.88211 14.4551 3.54117L15.5155 4.60203C16.5895 3.52849 18.3308 3.52849 19.4048 4.60203L20.4653 3.54117ZM14.4551 3.54117C12.7952 5.20039 12.7952 7.89063 14.4551 9.54985L15.5155 8.48898C14.4417 7.4156 14.4417 5.67542 15.5155 4.60203L14.4551 3.54117ZM9.5051 14.497C7.8454 12.838 5.1546 12.838 3.4949 14.497L4.55535 15.5579C5.62932 14.4844 7.37068 14.4844 8.44465 15.5579L9.5051 14.497ZM3.4949 14.497C1.83503 16.1563 1.83503 18.8465 3.4949 20.5057L4.55535 19.4449C3.48155 18.3715 3.48155 16.6313 4.55535 15.5579L3.4949 14.497ZM21.6877 6.98305C21.8141 5.75662 21.407 4.4825 20.4653 3.54117L19.4048 4.60203C20.0137 5.21071 20.2777 6.03286 20.1956 6.82926L21.6877 6.98305ZM3.4949 20.5057C4.43658 21.447 5.71102 21.8539 6.93762 21.7275L6.78395 20.2354C5.98694 20.3175 5.16429 20.0536 4.55535 19.4449L3.4949 20.5057ZM14.4551 9.54985C15.1121 10.2067 15.9328 10.6042 16.7862 10.7406L17.023 9.25944C16.471 9.17121 15.9417 8.91502 15.5155 8.48898L14.4551 9.54985ZM14.4548 14.4977C15.7427 13.2103 16.7863 11.7997 17.5647 10.356L16.2444 9.6441C15.5373 10.9555 14.5823 12.2493 13.3944 13.4368L14.4548 14.4977ZM10.6965 16.8275C10.56 15.9743 10.1622 15.1539 9.5051 14.497L8.44465 15.5579C8.87085 15.9839 9.12706 16.513 9.2153 17.0645L10.6965 16.8275ZM10.3116 17.6063C11.7558 16.8282 13.167 15.785 14.4548 14.4977L13.3944 13.4368C12.2064 14.6243 10.9121 15.5789 9.60015 16.2857L10.3116 17.6063ZM21.147 10.2239C21.4983 9.10034 21.6855 7.98122 21.6916 6.91041L20.1916 6.9019C20.1865 7.80558 20.028 8.77643 19.7153 9.77621L21.147 10.2239ZM6.86504 21.7315C7.93616 21.7254 9.05564 21.5383 10.1795 21.1871L9.73221 19.7554C8.73198 20.0679 7.76067 20.2264 6.85653 20.2315L6.86504 21.7315Z" fill="#292556"/>
</svg>
