<svg width="24" height="24" viewBox="0 0 24 24" fill="none" xmlns="http://www.w3.org/2000/svg">
<path d="M12.0008 5L12.0006 4.25L12.0008 5ZM7.84894 4.85767C7.45301 4.9794 7.23073 5.39903 7.35245 5.79496C7.47417 6.19088 7.89381 6.41317 8.28974 6.29144L7.84894 4.85767ZM15.7108 6.28963C16.1068 6.41118 16.5263 6.18872 16.6479 5.79274C16.7694 5.39677 16.5469 4.97723 16.151 4.85567L15.7108 6.28963ZM8.28974 6.29144C9.41631 5.94509 10.6727 5.75027 12.0009 5.75L12.0006 4.25C10.5273 4.2503 9.12224 4.46621 7.84894 4.85767L8.28974 6.29144ZM12.0009 5.75C13.3287 5.74973 14.5847 5.94394 15.7108 6.28963L16.151 4.85567C14.8781 4.46492 13.4734 4.24971 12.0006 4.25L12.0009 5.75Z" fill="#292556" fill-opacity="0.18"/>
<path d="M21 10.1233L21.75 10.1234L21.75 10.1234L21 10.1233ZM18.1995 12.9952L18.1996 13.7452L18.1995 12.9952ZM15.4 10.1244L16.15 10.1245L16.15 10.1245L15.4 10.1244ZM8.6 10.1258L9.35 10.1259L9.35 10.1259L8.6 10.1258ZM3 10.1269L3.75 10.127L3.75 10.127L3 10.1269ZM19.9657 7.89458L19.4318 8.42124C19.4488 8.43856 19.4668 8.45503 19.4854 8.47061L19.9657 7.89458ZM4.0351 7.89777L4.51546 8.47376C4.53412 8.45819 4.55202 8.44173 4.56908 8.42443L4.0351 7.89777ZM15.9311 8.44183L16.5437 8.87453C16.6824 8.67812 16.7186 8.4271 16.6409 8.19953C16.5632 7.97196 16.3811 7.79544 16.1512 7.72486L15.9311 8.44183ZM8.06955 8.4434L7.84918 7.72651C7.61939 7.79714 7.43738 7.97366 7.35974 8.20118C7.2821 8.4287 7.31823 8.67966 7.45691 8.87603L8.06955 8.4434ZM8.28995 6.28911C8.68588 6.16738 8.90816 5.74775 8.78644 5.35182C8.66471 4.9559 8.24508 4.73361 7.84915 4.85534L8.28995 6.28911ZM16.1512 4.85333C15.7552 4.73178 15.3357 4.95424 15.2141 5.35022C15.0926 5.7462 15.315 6.16574 15.711 6.28729L16.1512 4.85333ZM20.25 10.1231C20.2498 11.3127 19.3139 12.245 18.1993 12.2452L18.1996 13.7452C20.1778 13.7448 21.7496 12.1054 21.75 10.1234L20.25 10.1231ZM18.1993 12.2452C17.0849 12.2454 16.1498 11.3139 16.15 10.1245L14.65 10.1242C14.6496 12.1065 16.2212 13.7456 18.1996 13.7452L18.1993 12.2452ZM7.85 10.1256C7.84977 11.3152 6.91393 12.2474 5.7993 12.2477L5.7996 13.7477C7.77777 13.7473 9.34962 12.1079 9.35 10.1259L7.85 10.1256ZM5.7993 12.2477C4.68492 12.2479 3.74977 11.3164 3.75 10.127L2.25 10.1267C2.24962 12.1089 3.82119 13.7481 5.7996 13.7477L5.7993 12.2477ZM19.4854 8.47061C19.95 8.85797 20.2501 9.45165 20.25 10.1231L21.75 10.1234C21.7502 8.99587 21.244 7.9839 20.4461 7.31856L19.4854 8.47061ZM3.75 10.127C3.75013 9.45551 4.05052 8.8615 4.51546 8.47376L3.55474 7.32179C2.75681 7.98725 2.25021 8.99921 2.25 10.1267L3.75 10.127ZM16.15 10.1245C16.1501 9.65477 16.2969 9.22394 16.5437 8.87453L15.3185 8.00913C14.8973 8.60545 14.6501 9.3372 14.65 10.1242L16.15 10.1245ZM12.0006 8.61901C13.3286 8.61875 14.5847 8.81301 15.711 9.1588L16.1512 7.72486C14.8782 7.334 13.4733 7.11872 12.0003 7.11901L12.0006 8.61901ZM7.45691 8.87603C7.70347 9.22519 7.85009 9.65585 7.85 10.1256L9.35 10.1259C9.35015 9.33884 9.10329 8.60708 8.68219 8.01077L7.45691 8.87603ZM8.28992 9.1603C9.41636 8.81404 10.6725 8.61928 12.0006 8.61901L12.0003 7.11901C10.5272 7.11931 9.12234 7.33515 7.84918 7.72651L8.28992 9.1603ZM4.56908 8.42443C5.46336 7.5177 6.74503 6.76408 8.28995 6.28911L7.84915 4.85534C6.11135 5.38961 4.59971 6.25724 3.50112 7.37112L4.56908 8.42443ZM15.711 6.28729C17.2561 6.76161 18.5378 7.5148 19.4318 8.42124L20.4997 7.36793C19.4012 6.25412 17.8893 5.3869 16.1512 4.85333L15.711 6.28729Z" fill="#292556"/>
<path d="M12 13V19M12 19L9.5 16.5M12 19L14.5 16.5" stroke="#292556" stroke-width="1.5" stroke-linecap="round" stroke-linejoin="round"/>
</svg>
