<svg width="24" height="24" viewBox="0 0 24 24" fill="none" xmlns="http://www.w3.org/2000/svg">
<path d="M12.0008 8L12.0006 7.25L12.0008 8ZM7.84894 7.85767C7.45301 7.9794 7.23073 8.39903 7.35245 8.79496C7.47417 9.19088 7.89381 9.41317 8.28974 9.29144L7.84894 7.85767ZM15.7108 9.28963C16.1068 9.41118 16.5263 9.18872 16.6479 8.79274C16.7694 8.39677 16.5469 7.97723 16.151 7.85567L15.7108 9.28963ZM8.28974 9.29144C9.41631 8.94509 10.6727 8.75027 12.0009 8.75L12.0006 7.25C10.5273 7.2503 9.12224 7.46621 7.84894 7.85767L8.28974 9.29144ZM12.0009 8.75C13.3287 8.74973 14.5847 8.94394 15.7108 9.28963L16.151 7.85567C14.8781 7.46492 13.4734 7.24971 12.0006 7.25L12.0009 8.75Z" fill="#292556" fill-opacity="0.18"/>
<path d="M21 13.1252L21.75 13.1254L21.75 13.1254L21 13.1252ZM18.1995 15.9971L18.1996 16.7471L18.1995 15.9971ZM15.4 13.1263L16.15 13.1265L16.15 13.1265L15.4 13.1263ZM8.6 13.1277L9.35 13.1278L9.35 13.1278L8.6 13.1277ZM3 13.1288L3.75 13.129L3.75 13.129L3 13.1288ZM19.9657 10.8965L19.4318 11.4232C19.4488 11.4405 19.4668 11.457 19.4854 11.4726L19.9657 10.8965ZM4.0351 10.8997L4.51546 11.4757C4.53412 11.4601 4.55202 11.4437 4.56908 11.4264L4.0351 10.8997ZM15.9311 11.4438L16.5437 11.8765C16.6824 11.6801 16.7186 11.4291 16.6409 11.2015C16.5632 10.9739 16.3811 10.7974 16.1512 10.7268L15.9311 11.4438ZM8.06955 11.4454L7.84918 10.7285C7.61939 10.7991 7.43738 10.9756 7.35974 11.2031C7.2821 11.4307 7.31823 11.6816 7.45691 11.878L8.06955 11.4454ZM8.28995 9.29106C8.68588 9.16934 8.90816 8.7497 8.78644 8.35377C8.66471 7.95785 8.24508 7.73557 7.84915 7.85729L8.28995 9.29106ZM16.1512 7.85529C15.7552 7.73373 15.3357 7.9562 15.2141 8.35217C15.0926 8.74815 15.315 9.16769 15.711 9.28924L16.1512 7.85529ZM20.25 13.1251C20.2498 14.3147 19.3139 15.2469 18.1993 15.2471L18.1996 16.7471C20.1778 16.7467 21.7496 15.1074 21.75 13.1254L20.25 13.1251ZM18.1993 15.2471C17.0849 15.2474 16.1498 14.3159 16.15 13.1265L14.65 13.1262C14.6496 15.1084 16.2212 16.7475 18.1996 16.7471L18.1993 15.2471ZM7.85 13.1276C7.84977 14.3172 6.91393 15.2494 5.7993 15.2496L5.7996 16.7496C7.77777 16.7492 9.34962 15.1099 9.35 13.1278L7.85 13.1276ZM5.7993 15.2496C4.68492 15.2498 3.74977 14.3184 3.75 13.129L2.25 13.1287C2.24962 15.1109 3.82119 16.75 5.7996 16.7496L5.7993 15.2496ZM19.4854 11.4726C19.95 11.8599 20.2501 12.4536 20.25 13.1251L21.75 13.1254C21.7502 11.9978 21.244 10.9859 20.4461 10.3205L19.4854 11.4726ZM3.75 13.129C3.75013 12.4575 4.05052 11.8635 4.51546 11.4757L3.55474 10.3237C2.75681 10.9892 2.25021 12.0012 2.25 13.1287L3.75 13.129ZM16.15 13.1265C16.1501 12.6567 16.2969 12.2259 16.5437 11.8765L15.3185 11.0111C14.8973 11.6074 14.6501 12.3392 14.65 13.1262L16.15 13.1265ZM12.0006 11.621C13.3286 11.6207 14.5847 11.815 15.711 12.1608L16.1512 10.7268C14.8782 10.336 13.4733 10.1207 12.0003 10.121L12.0006 11.621ZM7.45691 11.878C7.70347 12.2271 7.85009 12.6578 7.85 13.1276L9.35 13.1278C9.35015 12.3408 9.10329 11.609 8.68219 11.0127L7.45691 11.878ZM8.28992 12.1623C9.41636 11.816 10.6725 11.6212 12.0006 11.621L12.0003 10.121C10.5272 10.1213 9.12234 10.3371 7.84918 10.7285L8.28992 12.1623ZM4.56908 11.4264C5.46336 10.5197 6.74503 9.76603 8.28995 9.29106L7.84915 7.85729C6.11135 8.39156 4.59971 9.25919 3.50112 10.3731L4.56908 11.4264ZM15.711 9.28924C17.2561 9.76356 18.5378 10.5167 19.4318 11.4232L20.4997 10.3699C19.4012 9.25607 17.8893 8.38885 16.1512 7.85529L15.711 9.28924Z" fill="#292556"/>
</svg>
