<svg width="24" height="24" viewBox="0 0 24 24" fill="none" xmlns="http://www.w3.org/2000/svg">
<path d="M5.97579 15.4092L5.31337 16.3182C3.29385 19.0897 2.28408 20.4755 2.55911 20.9766C2.64134 21.1264 2.76452 21.2497 2.91425 21.3321C3.41506 21.6076 4.80183 20.5992 7.57536 18.5825L8.48657 17.92L5.97579 15.4092Z" fill="#292556" fill-opacity="0.18"/>
<path d="M19.4791 11.4917C20.3375 10.9606 20.7667 10.6951 20.8767 10.3345C20.913 10.2154 20.9261 10.1027 20.918 9.97844C20.8937 9.60232 20.5515 9.26006 19.867 8.57554L15.3576 4.06614C14.673 3.38162 14.3308 3.03936 13.9547 3.01506C13.8304 3.00703 13.7177 3.02014 13.5986 3.05644C13.2381 3.16635 12.9725 3.59558 12.4415 4.45402C10.5137 7.57019 8.55164 9.53223 5.43547 11.46C4.57702 11.9911 4.1478 12.2566 4.03789 12.6171C4.00158 12.7362 3.98848 12.849 3.99651 12.9732C4.02081 13.3493 4.36307 13.6916 5.04759 14.3761L9.55699 18.8855C10.2415 19.57 10.5838 19.9123 10.9599 19.9366C11.0841 19.9446 11.1969 19.9315 11.316 19.8952C11.6765 19.7853 11.942 19.3561 12.4731 18.4976C14.4009 15.3815 16.3629 13.4194 19.4791 11.4917Z" stroke="#292556" stroke-width="1.5" stroke-linejoin="round"/>
</svg>
