<svg width="24" height="24" viewBox="0 0 24 24" fill="none" xmlns="http://www.w3.org/2000/svg">
<path d="M11 19.4976C11.764 19.1194 12.6199 18.6758 13.5882 18.1739C14.9123 17.4877 16.0464 16.8999 17 16.3691" stroke="#292556" stroke-opacity="0.18" stroke-width="1.5" stroke-linecap="round" stroke-linejoin="round"/>
<path d="M15.0857 12L19.0217 8.86911M15.0857 12L19.0217 15.1309M15.0857 12L4.63193 20.3155M15.0857 12L4.63193 3.68449M19.0217 8.86911C17.8133 8.01614 16.0215 7.08747 13.5882 5.82637C9.4223 3.66724 7.33933 2.58768 5.6874 3.14534C5.30903 3.27307 4.95337 3.45502 4.63193 3.68449M19.0217 8.86911C20.1053 9.63398 20.7197 10.338 20.9069 11.1663C21.031 11.7155 21.031 12.2845 20.9069 12.8337C20.7197 13.662 20.1053 14.366 19.0217 15.1309M19.0217 15.1309C18.4709 15.5197 17.7988 15.9243 17 16.3689M4.63193 20.3155C4.95337 20.545 5.30903 20.7269 5.6874 20.8547C6.95533 21.2827 8.47721 20.7462 11 19.4973M4.63193 20.3155C4.51079 20.229 4.39452 20.1358 4.28372 20.0362C3 18.8822 3 16.5881 3 12C3 7.41186 3 5.11779 4.28372 3.96378C4.39452 3.86417 4.51079 3.77096 4.63193 3.68449" stroke="#292556" stroke-width="1.5" stroke-linecap="round" stroke-linejoin="round"/>
</svg>
