<svg width="24" height="24" viewBox="0 0 24 24" fill="none" xmlns="http://www.w3.org/2000/svg">
<path d="M3.30762 14.3301L9.10317 12.7772M14.8987 11.2242L20.6943 9.67134M15.001 12C15.001 13.6569 13.6578 15 12.001 15C10.3441 15 9.00098 13.6569 9.00098 12C9.00098 10.3431 10.3441 9 12.001 9C13.6578 9 15.001 10.3431 15.001 12Z" stroke="#292556" stroke-opacity="0.18" stroke-width="1.5"/>
<path d="M20.6926 9.66896C21.9791 14.4702 19.1299 19.4052 14.3287 20.6917C9.52748 21.9781 4.59245 19.1289 3.30597 14.3277C2.0195 9.5265 4.86874 4.59147 9.66993 3.305C14.4711 2.01852 19.4062 4.86776 20.6926 9.66896Z" stroke="#292556" stroke-width="1.5"/>
</svg>
