<svg width="24" height="24" viewBox="0 0 24 24" fill="none" xmlns="http://www.w3.org/2000/svg">
<path d="M5.25 18V18C4.00736 18 3 16.9926 3 15.75V10.5C3 8.62513 3 7.6877 3.47746 7.03054C3.63166 6.8183 3.8183 6.63166 4.03054 6.47746C4.6877 6 5.62513 6 7.5 6H16.5C18.3749 6 19.3123 6 19.9695 6.47746C20.1817 6.63166 20.3683 6.8183 20.5225 7.03054C21 7.6877 21 8.62513 21 10.5V15.75C21 16.9926 19.9926 18 18.75 18V18M18 6V6C18 5.06812 18 4.60218 17.8478 4.23463C17.6448 3.74458 17.2554 3.35523 16.7654 3.15224C16.3978 3 15.9319 3 15 3H9C8.06812 3 7.60218 3 7.23463 3.15224C6.74458 3.35523 6.35523 3.74458 6.15224 4.23463C6 4.60218 6 5.06812 6 6V6H18Z" stroke="#292556" stroke-width="1.5" stroke-linejoin="round"/>
<path d="M6 10.5H18M6 18V18C6 18.9319 6 19.3978 6.15224 19.7654C6.35523 20.2554 6.74458 20.6448 7.23463 20.8478C7.60218 21 8.06812 21 9 21H15C15.9319 21 16.3978 21 16.7654 20.8478C17.2554 20.6448 17.6448 20.2554 17.8478 19.7654C18 19.3978 18 18.9319 18 18V18V17.6C18 16.1001 18 15.3502 17.618 14.8244C17.4947 14.6546 17.3454 14.5053 17.1756 14.382C16.6498 14 15.8999 14 14.4 14H9.6C8.10011 14 7.35016 14 6.82443 14.382C6.65464 14.5053 6.50533 14.6546 6.38197 14.8244C6 15.3502 6 16.1001 6 17.6V18Z" stroke="#292556" stroke-opacity="0.18" stroke-width="1.5" stroke-linecap="round" stroke-linejoin="round"/>
</svg>
