<svg width="24" height="24" viewBox="0 0 24 24" fill="none" xmlns="http://www.w3.org/2000/svg">
<path d="M12.5 21V19.5C12.5 18.1193 11.3807 17 10 17C8.61929 17 7.5 18.1193 7.5 19.5L7.5 21H6.6C5.10011 21 4.35016 21 3.82443 20.618C3.65464 20.4947 3.50533 20.3454 3.38197 20.1756C3 19.6498 3 18.8999 3 17.4V16.5H4.5C5.88071 16.5 7 15.3807 7 14C7 12.6193 5.88071 11.5 4.5 11.5H3" stroke="#292556" stroke-opacity="0.18" stroke-width="1.5" stroke-linejoin="round"/>
<path d="M3 11.5V10.6C3 9.10011 3 8.35016 3.38197 7.82443C3.50533 7.65464 3.65464 7.50533 3.82443 7.38197C4.35016 7 5.10011 7 6.6 7H7.5V5.5C7.5 4.11929 8.61929 3 10 3C11.3807 3 12.5 4.11929 12.5 5.5V7H13.4C14.8999 7 15.6498 7 16.1756 7.38197C16.3454 7.50533 16.4947 7.65464 16.618 7.82443C17 8.35016 17 9.10011 17 10.6V11.5H18.5C19.8807 11.5 21 12.6193 21 14C21 15.3807 19.8807 16.5 18.5 16.5L17 16.5V17.4C17 18.8999 17 19.6498 16.618 20.1756C16.4947 20.3454 16.3454 20.4947 16.1756 20.618C15.6498 21 14.8999 21 13.4 21H12.5" stroke="#292556" stroke-width="1.5" stroke-linecap="round" stroke-linejoin="round"/>
</svg>
