<svg width="24" height="24" viewBox="0 0 24 24" fill="none" xmlns="http://www.w3.org/2000/svg">
<path d="M14 16.38C13.5858 16.38 13.25 16.7158 13.25 17.13C13.25 17.5442 13.5858 17.88 14 17.88V16.38ZM18.9163 14.3144C19.09 13.9383 18.9259 13.4927 18.5498 13.3191C18.1737 13.1454 17.7281 13.3095 17.5545 13.6856L18.9163 14.3144ZM14 17.88C16.1783 17.88 17.9682 16.3678 18.9163 14.3144L17.5545 13.6856C16.7697 15.3852 15.4203 16.38 14 16.38V17.88Z" fill="#292556" fill-opacity="0.18"/>
<path d="M19.3482 8.3896C19.2293 7.99282 18.8113 7.76757 18.4145 7.88649C18.0177 8.00541 17.7925 8.42346 17.9114 8.82023L19.3482 8.3896ZM5.2998 16.3799C4.88559 16.3799 4.5498 16.7157 4.5498 17.1299C4.5498 17.5441 4.88559 17.8799 5.2998 17.8799V16.3799ZM10.6482 8.38948C10.5293 7.9927 10.1113 7.76745 9.71449 7.88637C9.31771 8.00529 9.09246 8.42334 9.21138 8.82012L10.6482 8.38948ZM17.5543 13.6856C17.3806 14.0617 17.5447 14.5073 17.9208 14.6809C18.2969 14.8546 18.7425 14.6905 18.9161 14.3144L17.5543 13.6856ZM19.4998 9.36202C19.4998 7.57 18.0277 6.13 16.2498 6.13V7.63C17.2134 7.63 17.9998 8.41248 17.9998 9.36202H19.4998ZM14.4998 9.36202C14.4998 8.41248 15.2862 7.63 16.2498 7.63V6.13C14.4719 6.13 12.9998 7.57 12.9998 9.36202H14.4998ZM16.2498 11.094C15.2862 11.094 14.4998 10.3116 14.4998 9.36202H12.9998C12.9998 11.154 14.4719 12.594 16.2498 12.594V11.094ZM16.2498 12.594C18.0277 12.594 19.4998 11.154 19.4998 9.36202H17.9998C17.9998 10.3116 17.2134 11.094 16.2498 11.094V12.594ZM19.6998 10.63C19.6998 9.83217 19.5544 9.07733 19.3482 8.3896L17.9114 8.82023C18.0873 9.40709 18.1998 10.0137 18.1998 10.63H19.6998ZM10.7998 9.3619C10.7998 7.56988 9.32774 6.12988 7.5498 6.12988V7.62988C8.51343 7.62988 9.2998 8.41236 9.2998 9.3619H10.7998ZM5.7998 9.3619C5.7998 8.41236 6.58618 7.62988 7.5498 7.62988V6.12988C5.77187 6.12988 4.2998 7.56988 4.2998 9.3619H5.7998ZM7.5498 11.0939C6.58618 11.0939 5.7998 10.3114 5.7998 9.3619H4.2998C4.2998 11.1539 5.77187 12.5939 7.5498 12.5939V11.0939ZM7.5498 12.5939C9.32774 12.5939 10.7998 11.1539 10.7998 9.3619H9.2998C9.2998 10.3114 8.51343 11.0939 7.5498 11.0939V12.5939ZM5.2998 17.8799C6.95429 17.8799 8.39604 16.9997 9.39981 15.6802C10.4028 14.3616 10.9998 12.5735 10.9998 10.6299H9.4998C9.4998 12.2761 8.99255 13.738 8.20597 14.772C7.42013 15.805 6.38688 16.3799 5.2998 16.3799V17.8799ZM10.9998 10.6299C10.9998 9.83206 10.8544 9.07721 10.6482 8.38948L9.21138 8.82012C9.38726 9.40697 9.4998 10.0136 9.4998 10.6299H10.9998ZM18.9161 14.3144C19.417 13.2296 19.6998 11.9684 19.6998 10.63H18.1998C18.1998 11.7593 17.9608 12.8051 17.5543 13.6856L18.9161 14.3144Z" fill="#292556"/>
</svg>
