<svg width="24" height="24" viewBox="0 0 24 24" fill="none" xmlns="http://www.w3.org/2000/svg">
<path d="M10 7.62988C10.4143 7.62988 10.75 7.2941 10.75 6.87988C10.75 6.46567 10.4143 6.12988 10 6.12988V7.62988ZM5.08373 9.69548C4.91009 10.0715 5.07419 10.5172 5.45025 10.6908C5.82631 10.8644 6.27193 10.7003 6.44557 10.3243L5.08373 9.69548ZM10 6.12988C7.82175 6.12988 6.03182 7.64213 5.08373 9.69548L6.44557 10.3243C7.23033 8.62467 8.57974 7.62988 10 7.62988V6.12988Z" fill="#292556" fill-opacity="0.18"/>
<path d="M4.65138 15.6202C4.7703 16.0169 5.18835 16.2422 5.58512 16.1233C5.9819 16.0044 6.20715 15.5863 6.08823 15.1895L4.65138 15.6202ZM18.6998 7.62988C19.114 7.62988 19.4498 7.2941 19.4498 6.87988C19.4498 6.46567 19.114 6.12988 18.6998 6.12988V7.62988ZM13.3514 15.6203C13.4703 16.0171 13.8883 16.2423 14.2851 16.1234C14.6819 16.0045 14.9071 15.5864 14.7882 15.1896L13.3514 15.6203ZM6.44532 10.3242C6.61896 9.9481 6.45487 9.50248 6.0788 9.32885C5.70274 9.15521 5.25712 9.3193 5.08348 9.69537L6.44532 10.3242ZM4.4998 14.6477C4.4998 16.4398 5.97187 17.8798 7.7498 17.8798V16.3798C6.78618 16.3798 5.9998 15.5973 5.9998 14.6477H4.4998ZM9.4998 14.6477C9.4998 15.5973 8.71343 16.3798 7.7498 16.3798V17.8798C9.52774 17.8798 10.9998 16.4398 10.9998 14.6477H9.4998ZM7.7498 12.9157C8.71343 12.9157 9.4998 13.6982 9.4998 14.6477H10.9998C10.9998 12.8557 9.52774 11.4157 7.7498 11.4157V12.9157ZM7.7498 11.4157C5.97187 11.4157 4.4998 12.8557 4.4998 14.6477H5.9998C5.9998 13.6982 6.78618 12.9157 7.7498 12.9157V11.4157ZM4.2998 13.3798C4.2998 14.1776 4.44526 14.9324 4.65138 15.6202L6.08823 15.1895C5.91235 14.6027 5.7998 13.9961 5.7998 13.3798H4.2998ZM13.1998 14.6479C13.1998 16.4399 14.6719 17.8799 16.4498 17.8799V16.3799C15.4862 16.3799 14.6998 15.5974 14.6998 14.6479H13.1998ZM18.1998 14.6479C18.1998 15.5974 17.4134 16.3799 16.4498 16.3799V17.8799C18.2277 17.8799 19.6998 16.4399 19.6998 14.6479H18.1998ZM16.4498 12.9158C17.4134 12.9158 18.1998 13.6983 18.1998 14.6479H19.6998C19.6998 12.8558 18.2277 11.4158 16.4498 11.4158V12.9158ZM16.4498 11.4158C14.6719 11.4158 13.1998 12.8558 13.1998 14.6479H14.6998C14.6998 13.6983 15.4862 12.9158 16.4498 12.9158V11.4158ZM18.6998 6.12988C17.0453 6.12988 15.6036 7.0101 14.5998 8.32961C13.5968 9.64814 12.9998 11.4363 12.9998 13.3799H14.4998C14.4998 11.7336 15.0071 10.2718 15.7936 9.23777C16.5795 8.20474 17.6127 7.62988 18.6998 7.62988V6.12988ZM12.9998 13.3799C12.9998 14.1777 13.1453 14.9326 13.3514 15.6203L14.7882 15.1896C14.6123 14.6028 14.4998 13.9962 14.4998 13.3799H12.9998ZM5.08348 9.69537C4.58259 10.7802 4.2998 12.0414 4.2998 13.3798H5.7998C5.7998 12.2505 6.03876 11.2047 6.44532 10.3242L5.08348 9.69537Z" fill="#292556"/>
</svg>
