<svg width="24" height="24" viewBox="0 0 24 24" fill="none" xmlns="http://www.w3.org/2000/svg">
<path d="M13.9992 12L20.9991 12.0002C20.9991 15.3303 19.1904 18.2379 16.5018 19.7944L12.999 13.7323" stroke="#292556" stroke-opacity="0.18" stroke-width="1.5" stroke-linejoin="round"/>
<path d="M11.0002 10.2675L7.50036 4.20526C10.3843 2.54019 13.8067 2.6528 16.499 4.20298L13.0004 10.2675M13.0004 10.2675C12.0438 9.71525 10.8203 10.0427 10.268 10.9993C9.71574 11.9559 10.0435 13.1799 11.0001 13.7322M13.0004 10.2675C13.957 10.8198 14.2844 12.0427 13.7321 12.9993C13.1798 13.9559 11.9567 14.2845 11.0001 13.7322M9.99995 11.9999L3 12.0001C3 15.3302 4.80872 18.2378 7.49734 19.7943L11.0001 13.7322" stroke="#292556" stroke-width="1.5" stroke-linejoin="round"/>
</svg>
