<svg width="24" height="24" viewBox="0 0 24 24" fill="none" xmlns="http://www.w3.org/2000/svg">
<path d="M20.912 8.5675C21 7.78622 21 6.85748 21 5C21 3.89543 20.1046 3 19 3C17.1425 3 16.2138 3 15.4325 3.08803C8.94182 3.81935 3.81935 8.94182 3.08803 15.4325C3 16.2138 3 17.1425 3 19C3 20.1046 3.89543 21 5 21C6.85748 21 7.78622 21 8.5675 20.912C15.0582 20.1806 20.1806 15.0582 20.912 8.5675Z" stroke="#292556" stroke-width="1.5" stroke-linecap="round" stroke-linejoin="round"/>
<path d="M16 8L14.5 9.5M14.5 9.5L12 12M14.5 9.5L13 8M14.5 9.5L16 11M12 12L9.5 14.5M12 12L10.5 10.5M12 12L13.5 13.5M9.5 14.5L8 16M9.5 14.5L8 13M9.5 14.5L11 16" stroke="#292556" stroke-opacity="0.18" stroke-width="1.5" stroke-linecap="round" stroke-linejoin="round"/>
</svg>
