<svg width="24" height="24" viewBox="0 0 24 24" fill="none" xmlns="http://www.w3.org/2000/svg">
<path d="M7.05859 16.9476L10.5937 20.4828L20.4818 10.5947L16.9461 7.05859M13.0704 18.0061L10.9435 15.8886M18.0098 13.0667L15.8876 10.9445M15.5377 15.5387L12.0013 12.0023" stroke="#292556" stroke-opacity="0.18" stroke-width="1.5" stroke-linecap="round" stroke-linejoin="round"/>
<path d="M11.6495 5.28553L5.28553 11.6495C3.96379 12.9712 3.30291 13.6321 3.09486 14.4086C2.95857 14.9172 2.95857 15.4528 3.09486 15.9615C3.30291 16.7379 3.96379 17.3988 5.28553 18.7206L7.04812 20.4831C8.02729 21.4623 9.61484 21.4623 10.594 20.4831L20.4821 10.5951C21.4618 9.61532 21.4618 8.02681 20.4821 7.04705L18.7206 5.28553C17.3988 3.96379 16.7379 3.30291 15.9615 3.09486C15.4528 2.95857 14.9172 2.95857 14.4086 3.09486C13.6321 3.30291 12.9712 3.96379 11.6495 5.28553Z" stroke="#292556" stroke-width="1.5" stroke-linecap="round" stroke-linejoin="round"/>
</svg>
