<svg width="24" height="24" viewBox="0 0 24 24" fill="none" xmlns="http://www.w3.org/2000/svg">
<path d="M3 13C3 14.6569 4.34315 16 6 16C7.65685 16 9 14.6569 9 13M15 13C15 14.6569 16.3431 16 18 16C19.6569 16 21 14.6569 21 13" stroke="#292556" stroke-opacity="0.18" stroke-width="1.5" stroke-linecap="round" stroke-linejoin="round"/>
<path d="M12 21H5M12 21H19M12 21V5M12 5V3M12 5H6M12 5H18M6 5L3 13H9L6 5ZM18 5L15 13H21L18 5Z" stroke="#292556" stroke-width="1.5" stroke-linecap="round" stroke-linejoin="round"/>
</svg>
