<svg width="24" height="24" viewBox="0 0 24 24" fill="none" xmlns="http://www.w3.org/2000/svg">
<path d="M12 6.5C12.8284 6.5 13.5 5.82843 13.5 5C13.5 4.17157 12.8284 3.5 12 3.5C11.1716 3.5 10.5 4.17157 10.5 5C10.5 5.82843 11.1716 6.5 12 6.5ZM12 6.5C16.4183 6.5 20 10.0817 20 14.5V17.5H4V14.5C4 10.0817 7.58172 6.5 12 6.5ZM19.5 17.5H4.5M4.5 20.5H19.5C20.3284 20.5 21 19.8284 21 19V19C21 18.1716 20.3284 17.5 19.5 17.5H4.5C3.67157 17.5 3 18.1716 3 19V19C3 19.8284 3.67157 20.5 4.5 20.5Z" stroke="#292556" stroke-width="1.5" stroke-linejoin="round"/>
<path d="M9.5 9.69238C8.11785 10.5307 7.08818 11.892 6.68555 13.5017" stroke="#292556" stroke-opacity="0.18" stroke-width="1.5" stroke-linecap="round" stroke-linejoin="round"/>
</svg>
