<svg width="24" height="24" viewBox="0 0 24 24" fill="none" xmlns="http://www.w3.org/2000/svg">
<path d="M9.5 10L15 7M9.5 14L15 17" stroke="#292556" stroke-opacity="0.18" stroke-width="1.5" stroke-linecap="round" stroke-linejoin="round"/>
<path d="M3 12C3 10.067 4.567 8.5 6.5 8.5V8.5C8.433 8.5 10 10.067 10 12V12C10 13.933 8.433 15.5 6.5 15.5V15.5C4.567 15.5 3 13.933 3 12V12Z" stroke="#292556" stroke-width="1.5" stroke-linecap="round" stroke-linejoin="round"/>
<path d="M15 6C15 4.34315 16.3431 3 18 3V3C19.6569 3 21 4.34315 21 6V6C21 7.65685 19.6569 9 18 9V9C16.3431 9 15 7.65685 15 6V6Z" stroke="#292556" stroke-width="1.5" stroke-linecap="round" stroke-linejoin="round"/>
<path d="M15 18C15 16.3431 16.3431 15 18 15V15C19.6569 15 21 16.3431 21 18V18C21 19.6569 19.6569 21 18 21V21C16.3431 21 15 19.6569 15 18V18Z" stroke="#292556" stroke-width="1.5" stroke-linecap="round" stroke-linejoin="round"/>
</svg>
