<svg width="24" height="24" viewBox="0 0 24 24" fill="none" xmlns="http://www.w3.org/2000/svg">
<path d="M4 11.2881V18.2496C4 19.768 5.23074 20.9991 6.74922 20.9996L6.99886 20.9996C8.38009 21 9.5 19.8802 9.5 18.499V18.499C9.5 17.1183 10.6193 15.9988 12 15.9988V15.9988C13.3807 15.9988 14.5 17.1181 14.5 18.4988V18.4988C14.5 19.8795 15.6193 20.9988 17 20.9988H17.25C18.7688 20.9988 20 19.7676 20 18.2488V11.2881" stroke="#292556" stroke-opacity="0.18" stroke-width="1.5" stroke-linecap="round" stroke-linejoin="round"/>
<path d="M19.603 5.40454C18.9071 4.36072 18.5591 3.83881 18.0626 3.50662C17.8991 3.39723 17.7253 3.30419 17.5436 3.22883C16.9917 3 16.3645 3 15.11 3H8.88994C7.63536 3 7.00807 3 6.45624 3.22885C6.27452 3.30421 6.10066 3.39726 5.93717 3.50666C5.44066 3.83887 5.09271 4.36081 4.39681 5.4047L3.88434 6.17344C3.50699 6.73949 3.31831 7.02252 3.19864 7.33481C3.14712 7.46924 3.10535 7.6072 3.07365 7.74763C3 8.07386 3 8.41401 3 9.09431V9.09431C3 10.6991 4.30092 12 5.90569 12C7.15639 12 8.26677 11.1997 8.66228 10.0132L9 9L9.36754 10.1026C9.74524 11.2357 10.8056 12 12 12C13.1944 12 14.2548 11.2357 14.6325 10.1026L15 9L15.3377 10.0132C15.7332 11.1997 16.8436 12 18.0943 12C19.6991 12 21 10.6991 21 9.09431V9.09431C21 8.41407 21 8.07395 20.9264 7.74774C20.8946 7.60724 20.8528 7.46921 20.8013 7.33471C20.6816 7.02245 20.493 6.73946 20.1156 6.17347L19.603 5.40454Z" stroke="#292556" stroke-width="1.5" stroke-linecap="round" stroke-linejoin="round"/>
</svg>
