<svg width="24" height="24" viewBox="0 0 24 24" fill="none" xmlns="http://www.w3.org/2000/svg">
<path d="M9 6.8C9 6.05005 9 5.67508 9.19098 5.41221C9.25266 5.32732 9.32732 5.25266 9.41221 5.19098C9.67508 5 10.0501 5 10.8 5H12H18.5L21 7L18.5 9H12H10.8C10.0501 9 9.67508 9 9.41221 8.80902C9.32732 8.74734 9.25266 8.67268 9.19098 8.58779C9 8.32492 9 7.94995 9 7.2V6.8Z" stroke="#292556" stroke-opacity="0.18" stroke-width="1.5" stroke-linecap="round" stroke-linejoin="round"/>
<path d="M12.75 3C12.75 2.58579 12.4142 2.25 12 2.25C11.5858 2.25 11.25 2.58579 11.25 3H12.75ZM8 20.25C7.58579 20.25 7.25 20.5858 7.25 21C7.25 21.4142 7.58579 21.75 8 21.75V20.25ZM16 21.75C16.4142 21.75 16.75 21.4142 16.75 21C16.75 20.5858 16.4142 20.25 16 20.25V21.75ZM3 14L2.53148 13.4143C2.35357 13.5567 2.25 13.7722 2.25 14C2.25 14.2278 2.35357 14.4433 2.53148 14.5857L3 14ZM5.5 12V11.25C5.3297 11.25 5.16446 11.308 5.03148 11.4143L5.5 12ZM5.5 16L5.03148 16.5857C5.16446 16.692 5.3297 16.75 5.5 16.75V16ZM14.809 15.5878L14.2023 15.1469L14.809 15.5878ZM14.5878 15.809L15.0286 16.4158L14.5878 15.809ZM14.809 12.4122L14.2023 12.8531L14.809 12.4122ZM14.5878 12.191L14.1469 12.7977L14.5878 12.191ZM12 20.25H8V21.75H12V20.25ZM12 21.75H16V20.25H12V21.75ZM15.75 14.2V13.8H14.25V14.2H15.75ZM5.03148 11.4143L2.53148 13.4143L3.46852 14.5857L5.96852 12.5857L5.03148 11.4143ZM2.53148 14.5857L5.03148 16.5857L5.96852 15.4143L3.46852 13.4143L2.53148 14.5857ZM12.75 4.25V3H11.25V4.25H12.75ZM12.75 12V9.75H11.25V12H12.75ZM13.2 11.25H12V12.75H13.2V11.25ZM12 11.25H5.5V12.75H12V11.25ZM12.75 21V16H11.25V21H12.75ZM5.5 16.75H12V15.25H5.5V16.75ZM12 16.75H13.2V15.25H12V16.75ZM14.25 14.2C14.25 14.5917 14.249 14.8252 14.2305 14.9958C14.2135 15.1523 14.1894 15.1647 14.2023 15.1469L15.4158 16.0286C15.6196 15.748 15.691 15.4415 15.7218 15.1573C15.751 14.8872 15.75 14.5583 15.75 14.2H14.25ZM13.2 16.75C13.5583 16.75 13.8872 16.751 14.1573 16.7218C14.4415 16.691 14.748 16.6196 15.0286 16.4158L14.1469 15.2023C14.1647 15.1894 14.1523 15.2135 13.9958 15.2305C13.8252 15.249 13.5917 15.25 13.2 15.25V16.75ZM14.2023 15.1469C14.1868 15.1682 14.1682 15.1868 14.1469 15.2023L15.0286 16.4158C15.1772 16.3078 15.3078 16.1772 15.4158 16.0286L14.2023 15.1469ZM15.75 13.8C15.75 13.4417 15.751 13.1128 15.7218 12.8427C15.691 12.5585 15.6196 12.252 15.4158 11.9714L14.2023 12.8531C14.1894 12.8353 14.2135 12.8477 14.2305 13.0042C14.249 13.1748 14.25 13.4083 14.25 13.8H15.75ZM13.2 12.75C13.5917 12.75 13.8252 12.751 13.9958 12.7695C14.1523 12.7865 14.1647 12.8106 14.1469 12.7977L15.0286 11.5842C14.748 11.3804 14.4415 11.309 14.1573 11.2782C13.8872 11.249 13.5583 11.25 13.2 11.25V12.75ZM15.4158 11.9714C15.3078 11.8228 15.1772 11.6922 15.0286 11.5842L14.1469 12.7977C14.1682 12.8132 14.1868 12.8318 14.2023 12.8531L15.4158 11.9714Z" fill="#292556"/>
</svg>
