<svg width="24" height="24" viewBox="0 0 24 24" fill="none" xmlns="http://www.w3.org/2000/svg">
<path d="M12.0005 8L15.4646 10M12.0005 8L12.0005 6M12.0005 8L10.2684 9M15.4646 10L17.1966 9.00001M15.4646 10V12M12.0005 3L12.0005 6M19.7947 7.5L17.1966 9.00001M17.1966 9.00001L17.9287 6.26798M17.1966 9.00001L19.9287 9.73208M12.0005 6L14.0005 4M12.0005 6L10.0005 4" stroke="#292556" stroke-opacity="0.18" stroke-width="1.5" stroke-linecap="round" stroke-linejoin="round"/>
<path d="M15.4646 13.9997L12.0005 15.9997M15.4646 13.9997L17.1966 14.9997M15.4646 13.9997V11.9997M12.0005 15.9997L8.53639 13.9997M12.0005 15.9997V17.9997M8.53639 13.9997V9.99968M8.53639 13.9997L6.80434 14.9997M8.53639 9.99968L6.80431 8.99966M8.53639 9.99968L10.2684 8.99968M12.0005 20.9997V17.9997M19.7947 16.4997L17.1966 14.9997M4.20626 7.49968L6.80431 8.99966M4.20627 16.4997L6.80434 14.9997M6.80434 14.9997L4.07227 14.2677M6.80434 14.9997L6.07224 17.7318M14.0005 19.9997L12.0005 17.9997M12.0005 17.9997L10.0005 19.9997M6.80431 8.99966L6.07228 6.26758M6.80431 8.99966L4.07228 9.73168M17.1966 14.9997L19.9287 14.2676M17.1966 14.9997L17.9287 17.7317" stroke="#292556" stroke-width="1.5" stroke-linecap="round" stroke-linejoin="round"/>
</svg>
