<svg width="24" height="24" viewBox="0 0 24 24" fill="none" xmlns="http://www.w3.org/2000/svg">
<path d="M18 3.5L19 3M20 6.5L18 5.5" stroke="#292556" stroke-opacity="0.18" stroke-width="1.5" stroke-linecap="round" stroke-linejoin="round"/>
<path d="M12 3C11.535 3 11.3025 3 11.1118 3.05111C10.5941 3.18981 10.1898 3.59413 10.0511 4.11177C10 4.30252 10 4.53501 10 5V7H14V5C14 4.53501 14 4.30252 13.9489 4.11177C13.8102 3.59413 13.4059 3.18981 12.8882 3.05111C12.6975 3 12.465 3 12 3V3Z" stroke="#292556" stroke-opacity="0.18" stroke-width="1.5" stroke-linecap="round" stroke-linejoin="round"/>
<path d="M7 10.7333V17.4C7 18.8999 7 19.6498 7.38197 20.1756C7.50533 20.3454 7.65464 20.4947 7.82443 20.618C8.35016 21 9.10011 21 10.6 21H13.4C14.8999 21 15.6498 21 16.1756 20.618C16.3454 20.4947 16.4947 20.3454 16.618 20.1756C17 19.6498 17 18.8999 17 17.4V10.7333M7 10.7333V10.6C7 9.10011 7 8.35016 7.38197 7.82443C7.50533 7.65464 7.65464 7.50533 7.82443 7.38197C8.35016 7 9.10011 7 10.6 7H13.4C14.8999 7 15.6498 7 16.1756 7.38197C16.3454 7.50533 16.4947 7.65464 16.618 7.82443C17 8.35016 17 9.10011 17 10.6V10.7333M7 10.7333H17M10 7H14" stroke="#292556" stroke-width="1.5" stroke-linecap="round" stroke-linejoin="round"/>
</svg>
