<svg width="24" height="24" viewBox="0 0 24 24" fill="none" xmlns="http://www.w3.org/2000/svg">
<path d="M18.2128 12.1514L14.0459 16.3182" stroke="#292556" stroke-opacity="0.18" stroke-width="1.5" stroke-linecap="round" stroke-linejoin="round"/>
<path d="M8.9697 4.42379L3.51487 9.87861C2.3433 11.0502 2.3433 12.9497 3.51487 14.1212V14.1212C4.68645 15.2928 6.58594 15.2928 7.75752 14.1212L13.97 7.90881M5.78772 11.8484L11.678 5.95816C11.9772 5.65892 12.1268 5.5093 12.2677 5.3986C13.3556 4.54352 14.8873 4.54352 15.9753 5.3986C16.1161 5.5093 16.2657 5.65892 16.565 5.95816V5.95816L16.5964 5.98952M15.0306 19.5761L20.4854 14.1213C21.657 12.9497 21.657 11.0502 20.4854 9.87861V9.87861C19.3139 8.70704 17.4144 8.70704 16.2428 9.87861L10.0304 16.091M7.40396 18.0103L7.41944 18.0258V18.0258C7.73345 18.3398 7.89045 18.4968 8.03894 18.6121C9.12152 19.4527 10.6361 19.4527 11.7187 18.6121C11.8672 18.4968 12.0242 18.3398 12.3382 18.0258L14.0457 16.3183" stroke="#292556" stroke-width="1.5" stroke-linecap="round" stroke-linejoin="round"/>
</svg>
