<svg width="24" height="24" viewBox="0 0 24 24" fill="none" xmlns="http://www.w3.org/2000/svg">
<path d="M17.8496 8.12109V8.12109C18.5076 8.12109 18.8366 8.12109 18.9964 8.14178C21.1276 8.41762 21.9406 11.076 20.3283 12.4968C20.2074 12.6033 19.9347 12.7873 19.3893 13.1554L18.8801 13.499" stroke="#292556" stroke-opacity="0.18" stroke-width="1.5" stroke-linecap="round" stroke-linejoin="round"/>
<path d="M18.0004 8.1221H17.674C17.3308 8.1221 17.1592 8.1221 17.0043 8.10267C16.1732 7.99844 15.4495 7.48492 15.0767 6.73484C15.0072 6.59501 14.9505 6.43304 14.8372 6.10911V6.10911C14.4502 5.00272 14.2566 4.44953 14.0832 4.18832C13.0943 2.69854 10.9065 2.69854 9.91755 4.18832C9.74415 4.44953 9.55062 5.00272 9.16358 6.10911L9.1265 6.2151C9.04867 6.43756 9.00976 6.5488 8.96584 6.64657C8.59408 7.47408 7.80322 8.03528 6.89937 8.11293C6.79257 8.1221 6.67473 8.1221 6.43905 8.1221H6.258C5.55185 8.1221 5.19877 8.1221 5.01984 8.14812C2.97522 8.44542 2.1533 10.9538 3.62549 12.4034C3.75432 12.5303 4.03893 12.7393 4.60815 13.1572V13.1572C4.77189 13.2774 4.85376 13.3375 4.92351 13.397C5.65755 14.0237 5.96532 15.0169 5.71424 15.9488C5.69037 16.0374 5.65576 16.1363 5.58652 16.3342V16.3342C5.29181 17.1767 5.14445 17.5979 5.10924 17.8185C4.79716 19.7742 6.77468 21.299 8.58675 20.4999C8.79119 20.4098 9.14979 20.1678 9.86699 19.6838L10.3046 19.3885C10.5902 19.1958 10.7329 19.0995 10.874 19.0283C11.5824 18.6708 12.4184 18.6708 13.1268 19.0283C13.2678 19.0995 13.4106 19.1958 13.6961 19.3885L14.1925 19.7235C14.8624 20.1755 15.1973 20.4015 15.3872 20.4879C17.214 21.3193 19.2263 19.7676 18.8867 17.7895C18.8514 17.5839 18.718 17.2025 18.4512 16.4398L17.989 15.1186C17.8363 14.6822 17.9971 14.1976 18.3804 13.939V13.939L19.0309 13.5" stroke="#292556" stroke-width="1.5" stroke-linecap="round" stroke-linejoin="round"/>
</svg>
