<svg width="24" height="24" viewBox="0 0 24 24" fill="none" xmlns="http://www.w3.org/2000/svg">
<path d="M15.5181 8.48218L19.435 4.56522M19.435 4.56522L17.8698 3M19.435 4.56522L21.0002 6.13043" stroke="#292556" stroke-opacity="0.18" stroke-width="1.5" stroke-linecap="round" stroke-linejoin="round"/>
<path d="M17.6406 10.5981L11.9969 16.2418C10.8259 17.4128 8.92732 17.4128 7.75632 16.2418V16.2418C6.58532 15.0708 6.58532 13.1722 7.75632 12.0012L13.4 6.35753M17.6406 10.5981L19.4348 12.3915M17.6406 10.5981L15.5178 8.48239L13.4 6.35753M13.4 6.35753L11.6087 4.56543M6.6967 15.1822L5.98959 15.8893C5.4038 16.4751 5.4038 17.4248 5.98959 18.0106V18.0106M8.81802 17.3035L8.11091 18.0106C7.52512 18.5964 6.57538 18.5964 5.98959 18.0106V18.0106M5.98959 18.0106L3 21.0002" stroke="#292556" stroke-width="1.5" stroke-linecap="round" stroke-linejoin="round"/>
</svg>
