<svg width="24" height="24" viewBox="0 0 24 24" fill="none" xmlns="http://www.w3.org/2000/svg">
<path d="M6 11.0217C7.83793 10.386 8.91091 9.51762 10.3717 8.0236C11.3546 7.01836 12.0289 5.11465 12.4283 4.18885C12.6322 3.71626 13.1127 3.5 13.6178 3.5C14.3391 3.5 15.0231 3.90895 15.2466 4.61039C15.6261 5.80164 15.627 6.93685 15.2494 8.25681V8.25681C15.1171 8.91828 15.5951 9.54582 16.268 9.59391L18.2522 9.73572C20.1405 9.87067 21.3845 11.7632 20.7594 13.5502L20.25 15.0063" stroke="#292556" stroke-opacity="0.18" stroke-width="1.5" stroke-linecap="round" stroke-linejoin="round"/>
<path d="M6 18.1243V18.884C6 19.5053 5.49632 20.009 4.875 20.009V20.009C4.25368 20.009 3.75 19.5053 3.75 18.884V10.1279C3.75 9.50661 4.25368 9.00293 4.875 9.00293V9.00293C5.49632 9.00293 6 9.50661 6 10.1279V11.0216V18.1243ZM6 18.1243L6.74938 18.8305C7.30255 19.3517 7.57914 19.6124 7.91804 19.7974C8.02624 19.8565 8.15107 19.9146 8.26593 19.9594C8.62567 20.0996 8.98516 20.1414 9.70414 20.2249C10.7568 20.3473 12.0779 20.4795 13 20.4975C13.6935 20.5111 14.51 20.4654 15.2986 20.3971C16.5835 20.2859 17.226 20.2302 17.8253 19.8665C18.0096 19.7546 18.2141 19.5958 18.3681 19.4449C18.8689 18.9543 19.101 18.2909 19.565 16.9643L20.25 15.0062" stroke="#292556" stroke-width="1.5" stroke-linecap="round" stroke-linejoin="round"/>
</svg>
