<svg width="24" height="24" viewBox="0 0 24 24" fill="none" xmlns="http://www.w3.org/2000/svg">
<path d="M6 12.9783C7.83793 13.614 8.91091 14.4824 10.3717 15.9764C11.3546 16.9816 12.0289 18.8853 12.4283 19.8111C12.6322 20.2837 13.1127 20.5 13.6178 20.5C14.3391 20.5 15.0231 20.0911 15.2466 19.3896C15.6261 18.1984 15.627 17.0631 15.2494 15.7432V15.7432C15.1171 15.0817 15.5951 14.4542 16.268 14.4061L18.2522 14.2643C20.1405 14.1293 21.3845 12.2368 20.7594 10.4498L20.25 8.99369" stroke="#292556" stroke-opacity="0.18" stroke-width="1.5" stroke-linecap="round" stroke-linejoin="round"/>
<path d="M6 5.87567V5.11603C6 4.49471 5.49632 3.99104 4.875 3.99104V3.99104C4.25368 3.99104 3.75 4.49472 3.75 5.11604V13.8721C3.75 14.4934 4.25368 14.9971 4.875 14.9971V14.9971C5.49632 14.9971 6 14.4934 6 13.8721V12.9784V5.87567ZM6 5.87567L6.74938 5.16952C7.30255 4.64826 7.57914 4.38762 7.91804 4.20261C8.02624 4.14354 8.15107 4.08542 8.26593 4.04065C8.62567 3.90041 8.98516 3.85863 9.70414 3.77507C10.7568 3.65272 12.0779 3.5205 13 3.50247C13.6935 3.48891 14.51 3.53463 15.2986 3.6029C16.5835 3.71414 17.226 3.76976 17.8253 4.13355C18.0096 4.24541 18.2141 4.40422 18.3681 4.55509C18.8689 5.04574 19.101 5.70905 19.565 7.03569L20.25 8.99378" stroke="#292556" stroke-width="1.5" stroke-linecap="round" stroke-linejoin="round"/>
</svg>
