<svg width="24" height="24" viewBox="0 0 24 24" fill="none" xmlns="http://www.w3.org/2000/svg">
<path d="M3.72222 11.75L3.22767 9.61535C2.88964 8.15631 2.72063 7.42679 2.72739 6.94127C2.76198 4.46012 5.02387 2.60879 7.4629 3.06529C7.94018 3.15463 8.6219 3.4645 9.98534 4.08425V4.08425C10.3375 4.24432 10.5136 4.32436 10.6888 4.38514C11.5381 4.67984 12.4619 4.67984 13.3112 4.38514C13.4864 4.32436 13.6625 4.24432 14.0147 4.08425V4.08425C15.3781 3.4645 16.0598 3.15462 16.5371 3.06529C18.9761 2.60879 21.238 4.46012 21.2726 6.94127C21.2794 7.42678 21.1104 8.15631 20.7723 9.61535L20.2778 11.75" stroke="#292556" stroke-opacity="0.18" stroke-width="1.5" stroke-linejoin="round"/>
<path d="M3.72217 11.75L5.17884 18.0375C5.4003 18.9934 5.51103 19.4713 5.66899 19.7523C6.30699 20.887 7.7719 21.2451 8.86148 20.5328C9.13123 20.3564 9.44999 19.9834 10.0875 19.2375V19.2375C10.4458 18.8184 10.6249 18.6088 10.8042 18.4751C11.5135 17.946 12.4863 17.946 13.1957 18.4751C13.375 18.6088 13.5541 18.8184 13.9124 19.2375V19.2375C14.5499 19.9834 14.8687 20.3564 15.1384 20.5328C16.228 21.2451 17.6929 20.887 18.3309 19.7523C18.4889 19.4713 18.5996 18.9934 18.8211 18.0375L20.2777 11.75" stroke="#292556" stroke-width="1.5" stroke-linecap="round" stroke-linejoin="round"/>
</svg>
