<svg width="24" height="24" viewBox="0 0 24 24" fill="none" xmlns="http://www.w3.org/2000/svg">
<path d="M20.1049 6.38097L20.427 5.9669C20.7875 5.50338 20.9677 5.27161 21.0072 5.01467C21.0289 4.87275 21.0199 4.7278 20.9807 4.58968C20.9097 4.33962 20.7021 4.13201 20.2868 3.71679C19.8705 3.30043 19.6623 3.09225 19.4116 3.02133C19.2732 2.98216 19.1279 2.97333 18.9857 2.99544C18.7283 3.03548 18.4965 3.21691 18.0327 3.57977L18.0327 3.57977L17.6196 3.90302C16.9872 4.39786 16.671 4.64527 16.5854 4.97112C16.5521 5.09803 16.5441 5.23026 16.5618 5.36027C16.6073 5.69409 16.8912 5.97798 17.459 6.54577L17.459 6.54577C18.0283 7.11509 18.3129 7.39975 18.6474 7.44495C18.7777 7.46256 18.9102 7.45431 19.0372 7.42068C19.3635 7.33431 19.6107 7.01653 20.1049 6.38097Z" stroke="#292556" stroke-opacity="0.18" stroke-width="1.5" stroke-linejoin="round"/>
<path d="M4.61151 12.0825L13.5508 4.90584C14.0802 4.48086 14.3449 4.26837 14.6446 4.2408C14.7418 4.23186 14.8398 4.2372 14.9355 4.25666C15.2305 4.31666 15.4705 4.55666 15.9505 5.03668L16.0467 5.13294L18.8752 7.96137L18.9714 8.05764C19.4515 8.53765 19.6915 8.77766 19.7515 9.07262C19.7709 9.16829 19.7763 9.2663 19.7673 9.36352C19.7398 9.66325 19.5273 9.92793 19.1023 10.4573L11.9256 19.3966M4.61151 12.0825L11.9256 19.3966M4.61151 12.0825L4.21592 12.4001C3.57053 12.9182 3.24784 13.1773 3.1708 13.5178C3.14604 13.6273 3.13988 13.7402 3.1526 13.8517C3.19214 14.1986 3.48476 14.4913 4.06998 15.0765L8.93163 19.9381C9.51686 20.5234 9.80947 20.816 10.1564 20.8555C10.2679 20.8682 10.3808 20.8621 10.4903 20.8373C10.8309 20.7603 11.0899 20.4376 11.6081 19.7922L11.9256 19.3966" stroke="#292556" stroke-width="1.5" stroke-linejoin="round"/>
</svg>
