<svg width="24" height="24" viewBox="0 0 24 24" fill="none" xmlns="http://www.w3.org/2000/svg">
<path d="M18.0298 5.9807L16.3917 4.34384C15.8032 3.75573 15.5089 3.46168 15.1011 3.36218C14.9818 3.33306 14.8181 3.31616 14.6953 3.32028C14.2757 3.33436 13.9783 3.52894 13.3833 3.91812C12.2814 4.63891 11.4459 5.47327 10.7244 6.57396C10.3344 7.1689 10.1395 7.46637 10.1252 7.88644C10.1211 8.00933 10.138 8.17335 10.1671 8.29281C10.2668 8.70113 10.5614 8.99551 11.1506 9.58427L12.7871 11.2196" stroke="#292556" stroke-opacity="0.18" stroke-width="1.5" stroke-linecap="round" stroke-linejoin="round"/>
<path d="M20.6815 7.52226C20.8142 7.38965 20.8805 7.32334 20.8932 7.24307C20.8973 7.21715 20.8973 7.19074 20.8932 7.16482C20.8805 7.08455 20.8142 7.01825 20.6815 6.88563L19.221 5.42625C19.0885 5.29381 19.0222 5.22759 18.942 5.2149C18.9161 5.2108 18.8897 5.2108 18.8638 5.2149C18.7836 5.22759 18.7174 5.29381 18.5848 5.42625L13.0624 10.9447C12.8631 11.1438 12.7634 11.2434 12.6483 11.3221C12.61 11.3483 12.5705 11.3726 12.53 11.3951C12.4081 11.4628 12.2744 11.5074 12.0071 11.5964L10.0705 12.2415C9.80322 12.3305 9.66956 12.375 9.54765 12.4427C9.50712 12.4652 9.46766 12.4896 9.42939 12.5158C9.31426 12.5945 9.21461 12.694 9.0153 12.8932L3.31855 18.5858C3.18584 18.7184 3.11948 18.7847 3.10676 18.865C3.10266 18.8909 3.10266 18.9173 3.10676 18.9432C3.11948 19.0235 3.18584 19.0898 3.31855 19.2224L4.77901 20.6818C4.91154 20.8142 4.97781 20.8805 5.058 20.8931C5.0839 20.8972 5.11028 20.8972 5.13618 20.8931C5.21637 20.8805 5.28263 20.8142 5.41517 20.6818L11.1124 14.9888C11.3117 14.7896 11.4114 14.69 11.5265 14.6113C11.5647 14.5852 11.6042 14.5608 11.6447 14.5383C11.7666 14.4706 11.9003 14.4261 12.1676 14.337L14.1042 13.692C14.3715 13.6029 14.5052 13.5584 14.6271 13.4907C14.6676 13.4682 14.7071 13.4438 14.7454 13.4176C14.8605 13.339 14.9601 13.2394 15.1595 13.0402L20.6815 7.52226Z" stroke="#292556" stroke-width="1.5" stroke-linecap="round" stroke-linejoin="round"/>
</svg>
