<svg width="24" height="24" viewBox="0 0 24 24" fill="none" xmlns="http://www.w3.org/2000/svg">
<path d="M5.01562 10.4658C10.0106 12.3906 13.9922 12.3926 18.9852 10.4716" stroke="#292556" stroke-opacity="0.18" stroke-width="1.5" stroke-linecap="round" stroke-linejoin="round"/>
<path d="M14 5.40275C13.3663 5.24975 12.695 5.16759 12 5.16759C11.305 5.16759 10.6337 5.24975 10 5.40275M14 5.40275C16.7501 6.06673 18.7919 8.06483 18.985 10.4719C18.995 10.5957 19 10.7206 19 10.8464C19 12.3733 16.1201 16.5302 14.0547 19.3151C13.255 20.3934 12.8551 20.9326 12.2782 21.0415C12.1013 21.0749 11.8987 21.0749 11.7218 21.0415C11.1449 20.9326 10.745 20.3934 9.94527 19.3151C7.8799 16.5302 5 12.3733 5 10.8464C5 10.7186 5.0052 10.5918 5.01545 10.4661C5.21141 8.06164 7.25215 6.0662 10 5.40275M14 5.40275V5C14 4.53501 14 4.30252 13.9489 4.11177C13.8102 3.59413 13.4059 3.18981 12.8882 3.05111C12.6975 3 12.465 3 12 3V3C11.535 3 11.3025 3 11.1118 3.05111C10.5941 3.18981 10.1898 3.59413 10.0511 4.11177C10 4.30252 10 4.53501 10 5V5.40275" stroke="#292556" stroke-width="1.5" stroke-linecap="round" stroke-linejoin="round"/>
</svg>
