<svg width="24" height="24" viewBox="0 0 24 24" fill="none" xmlns="http://www.w3.org/2000/svg">
<path d="M8 8L8.25257 7.49486C9.64404 4.71192 10.3398 3.32046 11.3808 3.08609C11.7062 3.01284 12.0438 3.01284 12.3692 3.08609C13.4102 3.32046 14.106 4.71192 15.4974 7.49486L15.75 8" stroke="#292556" stroke-opacity="0.18" stroke-width="1.5" stroke-linecap="round" stroke-linejoin="round"/>
<path d="M8 8L4.10498 15.79C3.07618 17.8476 2.56177 18.8765 2.85741 19.686C2.95078 19.9417 3.09536 20.1757 3.28229 20.3735C3.87419 21 5.02444 21 7.32492 21H16.4251C18.7256 21 19.8758 21 20.4677 20.3735C20.6546 20.1757 20.7992 19.9417 20.8926 19.686C21.1882 18.8765 20.6738 17.8476 19.645 15.79L15.75 8" stroke="#292556" stroke-width="1.5" stroke-linecap="round" stroke-linejoin="round"/>
</svg>
