<svg width="24" height="24" viewBox="0 0 24 24" fill="none" xmlns="http://www.w3.org/2000/svg">
<path d="M9 7V6C9 5.06812 9 4.60218 9.15224 4.23463C9.35523 3.74458 9.74458 3.35523 10.2346 3.15224C10.6022 3 11.0681 3 12 3V3C12.9319 3 13.3978 3 13.7654 3.15224C14.2554 3.35523 14.6448 3.74458 14.8478 4.23463C15 4.60218 15 5.06812 15 6V7" stroke="#292556" stroke-opacity="0.18" stroke-width="1.5" stroke-linejoin="round"/>
<path d="M6 13C6 10.6611 6 9.49167 6.53647 8.63789C6.81621 8.19267 7.19267 7.81621 7.63789 7.53647C8.49167 7 9.66111 7 12 7V7C14.3389 7 15.5083 7 16.3621 7.53647C16.8073 7.81621 17.1838 8.19267 17.4635 8.63789C18 9.49167 18 10.6611 18 13V14C18 16.3389 18 17.5083 17.4635 18.3621C17.1838 18.8073 16.8073 19.1838 16.3621 19.4635C15.5083 20 14.3389 20 12 20V20C9.66111 20 8.49167 20 7.63789 19.4635C7.19267 19.1838 6.81621 18.8073 6.53647 18.3621C6 17.5083 6 16.3389 6 14V13Z" stroke="#292556" stroke-width="1.5" stroke-linejoin="round"/>
<path d="M8.75 20.25C8.75 20.9404 8.19036 21.5 7.5 21.5C6.80964 21.5 6.25 20.9404 6.25 20.25C6.25 19.5596 6.80964 19 7.5 19C8.19036 19 8.75 19.5596 8.75 20.25Z" fill="#292556"/>
<path d="M17.75 20.25C17.75 20.9404 17.1904 21.5 16.5 21.5C15.8096 21.5 15.25 20.9404 15.25 20.25C15.25 19.5596 15.8096 19 16.5 19C17.1904 19 17.75 19.5596 17.75 20.25Z" fill="#292556"/>
</svg>
