<svg width="24" height="24" viewBox="0 0 24 24" fill="none" xmlns="http://www.w3.org/2000/svg">
<path d="M10.9497 18.4772C11.2356 19.5441 10.6024 20.6408 9.5355 20.9267C8.46856 21.2126 7.37189 20.5794 7.08601 19.5125C6.80012 18.4456 7.43329 17.3489 8.50022 17.063M10.9497 18.4772C10.6638 17.4103 9.56715 16.7771 8.50022 17.063M10.9497 18.4772L20 16.0547M8.50022 17.063L5.57874 6.15988C5.27984 5.04436 4.03295 4.48353 3 5V5" stroke="#292556" stroke-width="1.5" stroke-linecap="round" stroke-linejoin="round"/>
<path d="M17.0281 12.1861C17.1711 12.7195 16.8545 13.2679 16.321 13.4108L12.4573 14.4461C11.9239 14.589 11.3755 14.2725 11.2326 13.739L10.1973 9.87529C10.0544 9.34182 10.3709 8.79348 10.9044 8.65054L14.7681 7.61526C15.3016 7.47232 15.8499 7.78891 15.9929 8.32237L17.0281 12.1861Z" stroke="#292556" stroke-opacity="0.18" stroke-width="1.5" stroke-linecap="round" stroke-linejoin="round"/>
</svg>
