<svg width="24" height="24" viewBox="0 0 24 24" fill="none" xmlns="http://www.w3.org/2000/svg">
<path d="M17.6716 3.91113C18.1489 3.54842 18.3875 3.36707 18.6515 3.3327C18.7823 3.31566 18.9152 3.32468 19.0426 3.35924C19.2995 3.42897 19.5114 3.64091 19.9353 4.06479V4.06479C20.3592 4.48867 20.5711 4.70062 20.6409 4.95755C20.6754 5.08488 20.6844 5.21778 20.6674 5.34861C20.633 5.61261 20.4516 5.85124 20.0889 6.32851L18.4712 8.45705L15.543 5.52884L17.6716 3.91113Z" stroke="#292556" stroke-opacity="0.18" stroke-width="1.5" stroke-linejoin="round"/>
<path d="M11.1506 18.7055L17.3896 12.4664C18.4502 11.4059 18.9804 10.8756 19.0821 10.2337C19.1149 10.0264 19.1149 9.81528 19.0821 9.608C18.9804 8.96616 18.4502 8.43587 17.3896 7.37529L16.6244 6.61006C15.5638 5.54947 15.0335 5.01917 14.3916 4.91751C14.1844 4.88468 13.9732 4.88468 13.7659 4.91751C13.1241 5.01917 12.5938 5.54947 11.5332 6.61006L5.29421 12.8491M11.1506 18.7055L5.29421 12.8491M11.1506 18.7055L10.9735 19.2367C10.6098 20.3279 10.4279 20.8735 10.0372 21.0552C9.91374 21.1126 9.77992 21.1442 9.64387 21.1481C9.21311 21.1603 8.80643 20.7536 7.99309 19.9403L4.0594 16.0066C3.24606 15.1932 2.8394 14.7866 2.85162 14.3558C2.85549 14.2197 2.88708 14.0859 2.94446 13.9625C3.12617 13.5718 3.67177 13.3899 4.76298 13.0261L5.29421 12.8491M18.4711 8.45676L15.5429 5.52856" stroke="#292556" stroke-width="1.5" stroke-linejoin="round"/>
</svg>
