<svg width="24" height="24" viewBox="0 0 24 24" fill="none" xmlns="http://www.w3.org/2000/svg">
<path d="M14.6924 4.17069C15.415 4.17069 16.0953 4.35084 16.69 4.66836C16.7639 4.7078 16.8364 4.74937 16.9076 4.79298C17.3735 5.07849 17.6065 5.22124 17.7679 5.24114C17.8332 5.24918 17.8623 5.24964 17.9278 5.24367C18.0898 5.2289 18.2678 5.12741 18.6239 4.92444L19.1235 4.63968C20.1425 4.05886 20.652 3.76846 20.9007 3.91297C20.9764 3.95694 21.0392 4.02 21.0829 4.09585C21.2265 4.34519 20.9341 4.85356 20.3493 5.87028L19.203 7.86341C19.1371 7.97796 19.1042 8.03523 19.0873 8.09614C19.0815 8.11701 19.0775 8.13621 19.0744 8.15763C19.0653 8.22018 19.0726 8.28905 19.0874 8.42678C19.1454 8.96731 19.1711 9.49194 19.1667 10" stroke="#292556" stroke-opacity="0.18" stroke-width="1.5" stroke-linecap="round" stroke-linejoin="round"/>
<path d="M14.6922 4.1709C12.3603 4.1709 10.4699 6.04688 10.4699 8.36101C10.4699 8.47864 10.4748 8.59513 10.4844 8.7103C7.93023 8.34629 5.68712 6.92242 4.13557 4.85731C3.84078 5.41111 3.66822 6.05852 3.66822 6.74493C3.66822 8.04754 4.27937 9.20196 5.21407 9.87277C4.64606 9.85717 4.114 9.68557 3.64665 9.40476V9.45156C3.64665 11.2768 4.84019 12.79 6.42917 13.141C6.14157 13.2268 5.8324 13.2736 5.51605 13.2736C5.29316 13.2736 5.07746 13.2502 4.86176 13.2034C5.30035 14.701 6.58016 15.7852 8.09725 15.8164C6.9109 16.8226 5.41539 17.4233 3.79045 17.4233C3.52249 17.4233 3.2611 17.409 3 17.3737C4.68921 18.9994 6.99266 20.0002 9.53164 20.0002C14.5077 20.0002 19.1133 16.2556 19.1666 10.0002" stroke="#292556" stroke-width="1.5" stroke-linecap="round" stroke-linejoin="round"/>
</svg>
