<svg width="24" height="24" viewBox="0 0 24 24" fill="none" xmlns="http://www.w3.org/2000/svg">
<path d="M21 15V15C21 16.8553 21 17.7829 20.7048 18.508C20.2985 19.5064 19.5064 20.2985 18.508 20.7048C17.7829 21 16.8657 21 15.0312 21V21H15M15 3V3C16.8553 3 17.7829 3 18.508 3.29516C19.5064 3.70153 20.2985 4.49362 20.7048 5.49197C21 6.2171 21 7.13432 21 8.96875V8.96875V9M3 9V9C3 7.14473 3 6.2171 3.29516 5.49197C3.70153 4.49362 4.49362 3.70153 5.49197 3.29516C6.2171 3 7.13432 3 8.96875 3V3H9M9 21V21C7.14473 21 6.2171 21 5.49197 20.7048C4.49362 20.2985 3.70153 19.5064 3.29516 18.508C3 17.7829 3 16.8657 3 15.0312V15.0312V15" stroke="#292556" stroke-width="1.5" stroke-linecap="round" stroke-linejoin="round"/>
<path d="M8.27174 13.9638C8.72355 13.2107 9.53732 12.75 10.4155 12.75H13.5845C14.4627 12.75 15.2764 13.2107 15.7283 13.9638V13.9638C16.728 15.6301 15.5278 17.75 13.5845 17.75H10.4155C8.47224 17.75 7.27196 15.6301 8.27174 13.9638V13.9638Z" stroke="#292556" stroke-opacity="0.18" stroke-width="1.5" stroke-linejoin="round"/>
<path d="M10 8.25C10 7.14543 10.8402 6.25 12 6.25C13.1598 6.25 14 7.14543 14 8.25C14 9.35457 13.1598 10.25 12 10.25C10.8402 10.25 10 9.35457 10 8.25Z" stroke="#292556" stroke-opacity="0.18" stroke-width="1.5" stroke-linejoin="round"/>
</svg>
