<svg width="24" height="24" viewBox="0 0 24 24" fill="none" xmlns="http://www.w3.org/2000/svg">
<path d="M13.75 16.5C12.75 16.75 12.25 17.25 12 18.25C11.75 17.25 11.25 16.75 10.25 16.5C11.25 16.25 11.75 15.75 12 14.75C12.25 15.75 12.75 16.25 13.75 16.5Z" stroke="#292556" stroke-opacity="0.18" stroke-width="1.5" stroke-linecap="round" stroke-linejoin="round"/>
<path d="M10.5098 12.75H13.4902V11.25H10.5098V12.75ZM16.6609 20.25H7.33909V21.75H16.6609V20.25ZM12 8.25C10.7574 8.25 9.75 7.24264 9.75 6H8.25C8.25 8.07107 9.92893 9.75 12 9.75V8.25ZM14.25 6C14.25 7.24264 13.2426 8.25 12 8.25V9.75C14.0711 9.75 15.75 8.07107 15.75 6H14.25ZM12 3.75C13.2426 3.75 14.25 4.75736 14.25 6H15.75C15.75 3.92893 14.0711 2.25 12 2.25V3.75ZM12 2.25C9.92893 2.25 8.25 3.92893 8.25 6H9.75C9.75 4.75736 10.7574 3.75 12 3.75V2.25ZM7.33909 20.25C5.37093 20.25 4.05442 18.2242 4.85377 16.4257L3.48305 15.8165C2.24285 18.6069 4.28545 21.75 7.33909 21.75V20.25ZM19.1462 16.4257C19.9456 18.2242 18.6291 20.25 16.6609 20.25V21.75C19.7146 21.75 21.7572 18.6069 20.5169 15.8165L19.1462 16.4257ZM13.4902 12.75C15.9362 12.75 18.1528 14.1905 19.1462 16.4257L20.5169 15.8165C19.2828 13.0396 16.529 11.25 13.4902 11.25V12.75ZM10.5098 11.25C7.47098 11.25 4.71722 13.0396 3.48305 15.8165L4.85377 16.4257C5.84718 14.1905 8.06376 12.75 10.5098 12.75V11.25Z" fill="#292556"/>
</svg>
