<svg width="24" height="24" viewBox="0 0 24 24" fill="none" xmlns="http://www.w3.org/2000/svg">
<path d="M15 8.75C15 9.16421 14.6642 9.5 14.25 9.5C13.8358 9.5 13.5 9.16421 13.5 8.75C13.5 8.33579 13.8358 8 14.25 8C14.6642 8 15 8.33579 15 8.75Z" fill="#292556" fill-opacity="0.18"/>
<path d="M11.5 9.5C11.9142 9.5 12.25 9.16421 12.25 8.75C12.25 8.33579 11.9142 8 11.5 8L11.5 9.5ZM6.5 8C6.08579 8 5.75 8.33579 5.75 8.75C5.75 9.16421 6.08579 9.5 6.5 9.5L6.5 8ZM11.5 8L6.5 8L6.5 9.5L11.5 9.5L11.5 8Z" fill="#292556" fill-opacity="0.18"/>
<path d="M3 12C3 9.19108 3 7.78661 3.67412 6.77772C3.96596 6.34096 4.34096 5.96596 4.77772 5.67412C5.78661 5 7.19108 5 10 5H11C13.8089 5 15.2134 5 16.2223 5.67412C16.659 5.96596 17.034 6.34096 17.3259 6.77772C18 7.78661 18 9.19108 18 12V12C18 14.8089 18 16.2134 17.3259 17.2223C17.034 17.659 16.659 18.034 16.2223 18.3259C15.2134 19 13.8089 19 11 19H10C7.19108 19 5.78661 19 4.77772 18.3259C4.34096 18.034 3.96596 17.659 3.67412 17.2223C3 16.2134 3 14.8089 3 12V12Z" stroke="#292556" stroke-width="1.5" stroke-linecap="round" stroke-linejoin="round"/>
<path d="M18 9.5L18.395 9.30249C19.4238 8.78809 19.9382 8.53089 20.343 8.67871C20.4709 8.72539 20.5878 8.79768 20.6868 8.89115C21 9.1871 21 9.76222 21 10.9125V13.0875C21 14.2378 21 14.8129 20.6868 15.1089C20.5878 15.2023 20.4709 15.2746 20.343 15.3213C19.9382 15.4691 19.4238 15.2119 18.395 14.6975L18 14.5V9.5Z" stroke="#292556" stroke-width="1.5" stroke-linecap="round" stroke-linejoin="round"/>
</svg>
