<svg width="24" height="24" viewBox="0 0 24 24" fill="none" xmlns="http://www.w3.org/2000/svg">
<path d="M8.16504 15.5244C9.32842 15.8293 10.6284 15.9997 12 15.9997C13.3716 15.9997 14.6715 15.8293 15.8349 15.5244" stroke="#292556" stroke-opacity="0.18" stroke-width="1.5" stroke-linecap="round" stroke-linejoin="round"/>
<path d="M3 11C3 9.34315 4.34315 8 6 8C7.65685 8 9 9.34315 9 11C9 12.6569 7.65685 14 6 14C5.5428 14 5.10949 13.8977 4.7217 13.7148C3.70415 13.2348 3 12.1997 3 11ZM3 11C3 12.9994 5.11246 14.7247 8.16509 15.5247M21 11C21 9.34315 19.6569 8 18 8C16.3431 8 15 9.34315 15 11C15 12.6569 16.3431 14 18 14C18.4618 14 18.8993 13.8956 19.2901 13.7092C20.3013 13.2269 21 12.195 21 11ZM21 11C21 12.9994 18.8875 14.7247 15.8349 15.5247" stroke="#292556" stroke-width="1.5" stroke-linecap="round" stroke-linejoin="round"/>
</svg>
