<svg width="24" height="24" viewBox="0 0 24 24" fill="none" xmlns="http://www.w3.org/2000/svg">
<path d="M3.05762 13.0063C4.73887 10.259 7.46261 8.36346 10.5759 7.70649M18.3641 18.3643C18.6052 18.1232 18.8298 17.8718 19.0378 17.6116C14.7814 18.6362 10.2758 17.1862 7.36748 13.7341M10.9929 3.05664C14.7271 5.34186 16.8878 9.55312 16.5033 14.0506" stroke="#292556" stroke-opacity="0.18" stroke-width="1.5" stroke-linecap="round" stroke-linejoin="round"/>
<path d="M5.63455 18.3625L5.63604 18.364C9.15076 21.8787 14.8492 21.8787 18.364 18.364C18.6051 18.1229 18.8296 17.8715 19.0377 17.6112C20.3456 15.975 20.9997 13.9882 21 12.0014M5.63455 18.3625C2.12163 14.8479 2.12182 9.15128 5.6351 5.63698M5.63455 18.3625L5.6345 18.3649M5.63455 18.3625C5.67148 16.4469 6.28607 14.8491 7.36733 13.7338C8.46714 12.5993 10.0498 11.9639 11.9985 12.0009M5.6351 5.63698L5.63604 5.63604C9.15076 2.12132 14.8492 2.12132 18.364 5.63604C20.1217 7.39375 21.0003 9.69761 21 12.0014M5.6351 5.63698C7.56783 5.63711 9.1586 6.26158 10.2662 7.36921C10.374 7.47699 10.4772 7.58934 10.5757 7.70613C11.4896 8.78978 11.9985 10.256 11.9985 12.0009M21 12.0014L21.0014 12M21 12.0014C19.6339 13.3669 18.0677 14.0501 16.5014 14.0507C14.9336 14.0514 13.3657 13.3682 11.9985 12.0009" stroke="#292556" stroke-width="1.5" stroke-linejoin="round"/>
</svg>
