<svg width="24" height="24" viewBox="0 0 24 24" fill="none" xmlns="http://www.w3.org/2000/svg">
<path d="M17 7.83701C18.4964 11.0012 18.4964 13.0012 17 16.1655M19.0571 5.75488C21.647 8.87808 21.647 15.1245 19.0571 18.2477" stroke="#292556" stroke-opacity="0.18" stroke-width="1.5" stroke-linecap="round" stroke-linejoin="round"/>
<path fill-rule="evenodd" clip-rule="evenodd" d="M15.0362 6.19594C14.9048 5.65634 14.6751 5.17555 14.2482 4.8236C13.9352 4.5656 13.569 4.38004 13.1758 4.28021C12.4262 4.08987 11.7016 4.35924 10.9962 4.75695C10.2915 5.15425 9.43528 5.78217 8.36898 6.56415L8.32657 6.59526L6.7535 7.74886L6.49911 7.74885L6.46077 7.74885C5.79118 7.74882 5.23244 7.74879 4.7801 7.7948C4.30662 7.84296 3.86724 7.94766 3.47124 8.21226C3.17096 8.41289 2.91314 8.67071 2.7125 8.97098C2.44789 9.36698 2.34318 9.80636 2.29501 10.2798C2.24899 10.7322 2.24901 11.2909 2.24902 11.9605V11.9605V11.9989V12.0372V12.0372C2.24901 12.7068 2.24899 13.2655 2.29501 13.7178C2.34317 14.1913 2.44788 14.6306 2.71247 15.0266C2.9131 15.3269 3.17091 15.5847 3.47118 15.7853C3.86716 16.0499 4.30652 16.1547 4.77999 16.2028C4.8539 16.2104 4.93065 16.2166 5.01027 16.2219L7.74902 13.4832V8.87891L9.21362 7.80486C10.3322 6.98458 11.116 6.41136 11.7329 6.06359C12.3583 5.71099 12.642 5.69225 12.8067 5.73407C12.9854 5.77945 13.1518 5.86379 13.2941 5.98107C13.4252 6.08915 13.5779 6.32899 13.6634 7.04185C13.6812 7.19064 13.6954 7.35143 13.7065 7.52563L15.0362 6.19594ZM8.84512 15.9226L9.21366 16.1929C10.3322 17.0131 11.116 17.5863 11.7329 17.934C12.3583 18.2866 12.642 18.3054 12.8067 18.2636C12.9854 18.2182 13.1518 18.1338 13.2941 18.0166C13.4252 17.9085 13.5779 17.6686 13.6634 16.9558C13.7477 16.2527 13.749 15.2816 13.749 13.8946V11.0187L15.2488 9.51893C15.249 9.69119 15.249 9.86838 15.249 10.0505V10.1031V13.8946V13.9472C15.249 15.2695 15.2491 16.3312 15.1527 17.1344C15.0562 17.9385 14.8449 18.6821 14.2482 19.174C13.9352 19.432 13.569 19.6176 13.1759 19.7174C12.4263 19.9078 11.7017 19.6384 10.9962 19.2407C10.2915 18.8434 9.43534 18.2155 8.36906 17.4336L8.36904 17.4336L8.32662 17.4025L7.77198 16.9957L8.84512 15.9226ZM6.24902 9.24895V14.7487C5.66642 14.7481 5.25486 14.7434 4.93183 14.7105C4.57696 14.6744 4.413 14.6106 4.30455 14.5381C4.16806 14.4469 4.05088 14.3298 3.95968 14.1933C3.88722 14.0848 3.8234 13.9209 3.78731 13.566C3.74993 13.1986 3.74902 12.7167 3.74902 11.9989C3.74902 11.281 3.74993 10.7991 3.78731 10.4316C3.82341 10.0768 3.88723 9.9128 3.95969 9.80435C4.05089 9.66786 4.16808 9.55067 4.30457 9.45947C4.41303 9.38701 4.577 9.32319 4.93188 9.2871C5.2549 9.25425 5.66645 9.24958 6.24902 9.24895Z" fill="#292556"/>
<path d="M3 21L21 3" stroke="#292556" stroke-width="1.5" stroke-linecap="round" stroke-linejoin="round"/>
</svg>
