<svg width="24" height="24" viewBox="0 0 24 24" fill="none" xmlns="http://www.w3.org/2000/svg">
<path d="M9 6.3042L11.3337 3.73389C11.6087 3.43096 11.7462 3.2795 11.917 3.25075C11.972 3.24151 12.028 3.24151 12.083 3.25075C12.2538 3.2795 12.3913 3.43096 12.6663 3.73389L15 6.3042" stroke="#292556" stroke-opacity="0.18" stroke-width="1.5" stroke-linecap="round" stroke-linejoin="round"/>
<path d="M10.5 16.9995V20.0995C10.5 20.4745 10.5 20.662 10.5955 20.7934C10.6263 20.8359 10.6637 20.8732 10.7061 20.904C10.8375 20.9995 11.025 20.9995 11.4 20.9995H12.6C12.975 20.9995 13.1625 20.9995 13.2939 20.904C13.3363 20.8732 13.3737 20.8359 13.4045 20.7934C13.5 20.662 13.5 20.4745 13.5 20.0995V16.9995M9 6.30371L7.84476 7.57609C7.69861 7.73706 7.62553 7.81755 7.59331 7.8876C7.48698 8.11872 7.57116 8.39284 7.78888 8.52446C7.85486 8.56435 7.96051 8.58995 8.17182 8.64115V8.64115C8.40037 8.69653 8.51465 8.72422 8.58267 8.76642C8.80782 8.90609 8.88492 9.19713 8.75847 9.42995C8.72026 9.5003 8.63468 9.58093 8.46353 9.74221L6.3233 11.759C6.07723 11.9908 5.95419 12.1068 5.91328 12.2124C5.83247 12.4211 5.90016 12.6581 6.07899 12.7926C6.16953 12.8607 6.33524 12.8941 6.66667 12.9611V12.9611C6.99809 13.028 7.1638 13.0614 7.25434 13.1295C7.43318 13.264 7.50086 13.501 7.42005 13.7097C7.37914 13.8153 7.2561 13.9313 7.01003 14.1631L5.65021 15.4445C5.03583 16.0234 4.72864 16.3129 4.76453 16.5689C4.77562 16.6481 4.80552 16.7234 4.85172 16.7886C5.00117 16.9995 5.42326 16.9995 6.26744 16.9995H17.7326C18.5767 16.9995 18.9988 16.9995 19.1483 16.7886C19.1945 16.7234 19.2244 16.6481 19.2355 16.5689C19.2714 16.3129 18.9642 16.0234 18.3498 15.4445L17.1489 14.3129C16.7879 13.9727 16.6073 13.8026 16.5785 13.6393C16.5509 13.4832 16.599 13.3232 16.7082 13.2082C16.8223 13.088 17.0667 13.0457 17.5556 12.9611V12.9611C18.0444 12.8764 18.2888 12.8341 18.4029 12.7139C18.5121 12.5989 18.5602 12.4389 18.5326 12.2828C18.5038 12.1195 18.3232 11.9494 17.9622 11.6092L15.8168 9.58754C15.7496 9.52428 15.7161 9.49265 15.6957 9.46775C15.487 9.21314 15.5771 8.82988 15.8773 8.69484C15.9067 8.68164 15.9508 8.66827 16.0391 8.64153V8.64153C16.1209 8.61675 16.1618 8.60436 16.1901 8.59178C16.4781 8.46389 16.5774 8.10468 16.396 7.847C16.3782 7.82166 16.3495 7.79001 16.292 7.72673L15 6.30371" stroke="#292556" stroke-width="1.5" stroke-linecap="round" stroke-linejoin="round"/>
</svg>
